<?xml version="1.0" encoding="utf-8"?>
<!-- Generator: Adobe Illustrator 18.0.0, SVG Export Plug-In . SVG Version: 6.00 Build 0)  -->
<!DOCTYPE svg PUBLIC "-//W3C//DTD SVG 1.1//EN" "http://www.w3.org/Graphics/SVG/1.1/DTD/svg11.dtd">
<svg version="1.1" id="Layer_1" xmlns="http://www.w3.org/2000/svg" xmlns:xlink="http://www.w3.org/1999/xlink" x="0px" y="0px"
	 viewBox="0 0 1413.5 3608.7" enable-background="new 0 0 1413.5 3608.7" xml:space="preserve">
<linearGradient id="SVGID_1_" gradientUnits="userSpaceOnUse" x1="706.75" y1="3608.1665" x2="706.75" y2="0.5">
	<stop  offset="0" style="stop-color:#00004C"/>
	<stop  offset="1" style="stop-color:#000000"/>
</linearGradient>
<rect x="0.5" y="0.5" fill="url(#SVGID_1_)" stroke="#221F1F" stroke-miterlimit="10" width="1412.5" height="3607.7"/>
<text transform="matrix(1 0 0 1 86.0983 368.4562)"><tspan x="0" y="0" fill="#FFFFFF" font-family="'Montserrat-Bold'" font-size="140">Constellations</tspan><tspan x="1051.1" y="0" fill="#FFFFFF" font-family="'Montserrat-Bold'" font-size="100"> </tspan></text>
<g>
	<rect x="97.4" y="133.9" fill="#FFFFFF" width="101.7" height="16"/>
	
		<rect x="106.6" y="92.4" transform="matrix(0.7071 0.7071 -0.7071 0.7071 121.7289 -44.5112)" fill="#FFFFFF" width="16" height="64.6"/>
	
		<rect x="89.1" y="153.9" transform="matrix(0.7071 0.7071 -0.7071 0.7071 148.883 -35.593)" fill="#FFFFFF" width="56.7" height="16"/>
</g>
<text transform="matrix(1 0 0 1 97.3613 492.9448)" fill="#FFFFFF" font-family="'Montserrat-Regular'" font-size="80">2 / 12</text>
<circle fill="#FFFFFF" cx="241.9" cy="745.6" r="9.6"/>
<circle fill="#FFFFFF" cx="1065.9" cy="736" r="9.6"/>
<circle fill="#FFFFFF" cx="974.6" cy="920.5" r="9.6"/>
<circle fill="#FFFFFF" cx="728.3" cy="890.5" r="9.6"/>
<circle fill="#FFFFFF" cx="688.6" cy="745.6" r="9.6"/>
<circle fill="#FFFFFF" cx="544.3" cy="684.5" r="9.6"/>
<line fill="none" stroke="#FFFFFF" stroke-width="4" stroke-miterlimit="10" x1="271.1" y1="738.9" x2="516.1" y2="691.2"/>
<line fill="none" stroke="#FFFFFF" stroke-width="4" stroke-miterlimit="10" x1="569" y1="691.2" x2="665" y2="733.2"/>
<line fill="none" stroke="#FFFFFF" stroke-width="4" stroke-miterlimit="10" x1="698.3" y1="763.2" x2="723.7" y2="871.8"/>
<line fill="none" stroke="#FFFFFF" stroke-width="4" stroke-miterlimit="10" x1="745" y1="893.8" x2="955" y2="920.5"/>
<line fill="none" stroke="#FFFFFF" stroke-width="4" stroke-miterlimit="10" x1="984.3" y1="904.5" x2="1056.3" y2="755.3"/>
<circle fill="#FFFFFF" cx="1273" cy="141.9" r="64"/>
<text transform="matrix(1 0 0 1 1260.9996 175.8766)" font-family="'Montserrat-Bold'" font-size="80">i</text>
<text transform="matrix(1 0 0 1 558.9997 1042.1664)" opacity="0.5" fill="#FFFFFF" font-family="'Montserrat-Bold'" font-size="80">The Big Dipper</text>
<text transform="matrix(1 0 0 1 440.0051 1655.4822)" opacity="0.5"><tspan x="0" y="0" fill="#FFFFFF" font-family="'Montserrat-Bold'" font-size="80">Canis Major</tspan><tspan x="0" y="48" fill="#FFFFFF" font-family="'Montserrat-Regular'" font-size="40" letter-spacing="25">	</tspan><tspan x="36" y="48" fill="#FFFFFF" font-family="'Montserrat-Regular'" font-size="40">    (The Great Dog)</tspan></text>
<circle fill="#FFFFFF" cx="130.2" cy="1492.2" r="9.6"/>
<circle fill="#FFFFFF" cx="330.5" cy="1744.1" r="9.6"/>
<circle fill="#FFFFFF" cx="351.9" cy="1567" r="9.6"/>
<circle fill="#FFFFFF" cx="993.8" cy="1563.7" r="9.6"/>
<circle fill="#FFFFFF" cx="903.5" cy="1190" r="9.6"/>
<circle fill="#FFFFFF" cx="759.4" cy="1353.6" r="9.6"/>
<circle fill="#FFFFFF" cx="732.1" cy="1261.1" r="9.6"/>
<circle fill="#FFFFFF" cx="842.4" cy="1405.1" r="17.3"/>
<line fill="none" stroke="#FFFFFF" stroke-width="4" stroke-miterlimit="10" x1="346" y1="1587.5" x2="332" y2="1723.5"/>
<line fill="none" stroke="#FFFFFF" stroke-width="4" stroke-miterlimit="10" x1="148.1" y1="1498.6" x2="333.8" y2="1560.7"/>
<line fill="none" stroke="#FFFFFF" stroke-width="4" stroke-miterlimit="10" x1="372.9" y1="1563.1" x2="815.3" y2="1415.9"/>
<line fill="none" stroke="#FFFFFF" stroke-width="4" stroke-miterlimit="10" x1="981.7" y1="1551.8" x2="861.7" y2="1426.2"/>
<line fill="none" stroke="#FFFFFF" stroke-width="4" stroke-miterlimit="10" x1="819.3" y1="1384.9" x2="777.3" y2="1360.1"/>
<line fill="none" stroke="#FFFFFF" stroke-width="4" stroke-miterlimit="10" x1="735.2" y1="1277.8" x2="751.3" y2="1335.8"/>
<line fill="none" stroke="#FFFFFF" stroke-width="4" stroke-miterlimit="10" x1="746" y1="1248.7" x2="887.2" y2="1193.1"/>
<line fill="none" stroke="#FFFFFF" stroke-width="4" stroke-miterlimit="10" x1="895.8" y1="1201.3" x2="773.7" y2="1341.1"/>
<circle opacity="0.5" fill="#FFFFFF" cx="139.8" cy="1180.4" r="3.6"/>
<circle opacity="0.5" fill="#FFFFFF" cx="381.4" cy="817.5" r="3.6"/>
<circle opacity="0.5" fill="#FFFFFF" cx="987.9" cy="1300.6" r="3.6"/>
<circle opacity="0.5" fill="#FFFFFF" cx="377.8" cy="1120.5" r="3.6"/>
<circle opacity="0.5" fill="#FFFFFF" cx="398.2" cy="1441.5" r="3.6"/>
<circle opacity="0.5" fill="#FFFFFF" cx="648.4" cy="1294.2" r="3.6"/>
<circle opacity="0.5" fill="#FFFFFF" cx="32.3" cy="1564" r="3.6"/>
<circle opacity="0.5" fill="#FFFFFF" cx="91.7" cy="1062.1" r="3.6"/>
<circle opacity="0.5" fill="#FFFFFF" cx="1230.6" cy="1016.5" r="3.6"/>
<circle opacity="0.5" fill="#FFFFFF" cx="12.6" cy="916.5" r="3.6"/>
<circle opacity="0.5" fill="#FFFFFF" cx="1175.5" cy="829.9" r="3.6"/>
<circle opacity="0.5" fill="#FFFFFF" cx="304.6" cy="792.5" r="3.6"/>
<circle opacity="0.5" fill="#FFFFFF" cx="1109" cy="519.9" r="3.6"/>
<circle opacity="0.5" fill="#FFFFFF" cx="1156.3" cy="468.5" r="3.6"/>
<circle opacity="0.5" fill="#FFFFFF" cx="787" cy="817.5" r="3.6"/>
<circle opacity="0.5" fill="#FFFFFF" cx="67" cy="691.2" r="3.6"/>
<circle opacity="0.5" fill="#FFFFFF" cx="850" cy="612.1" r="3.6"/>
<circle opacity="0.5" fill="#FFFFFF" cx="407" cy="608.5" r="3.6"/>
<circle opacity="0.5" fill="#FFFFFF" cx="249.4" cy="970.8" r="3.6"/>
<circle opacity="0.5" fill="#FFFFFF" cx="139" cy="1488.6" r="3.6"/>
<circle opacity="0.5" fill="#FFFFFF" cx="569" cy="1054.9" r="3.6"/>
<circle opacity="0.5" fill="#FFFFFF" cx="107.3" cy="1315.8" r="3.6"/>
<circle opacity="0.5" fill="#FFFFFF" cx="1343.8" cy="685.7" r="3.6"/>
<circle opacity="0.5" fill="#FFFFFF" cx="1394.6" cy="1095.3" r="3.6"/>
<circle opacity="0.5" fill="#FFFFFF" cx="745.3" cy="1638" r="3.6"/>
<circle opacity="0.5" fill="#FFFFFF" cx="1046.7" cy="1606.7" r="3.6"/>
<circle opacity="0.5" fill="#FFFFFF" cx="1363.3" cy="1549.5" r="3.6"/>
<circle opacity="0.5" fill="#FFFFFF" cx="1188.1" cy="1318" r="3.6"/>
<circle opacity="0.5" fill="#FFFFFF" cx="729.3" cy="1717.2" r="3.6"/>
<circle opacity="0.5" fill="#FFFFFF" cx="912.8" cy="1751.5" r="3.6"/>
<circle opacity="0.5" fill="#FFFFFF" cx="959.6" cy="1424.4" r="3.6"/>
<circle opacity="0.5" fill="#FFFFFF" cx="1271.9" cy="1853" r="3.6"/>
<circle opacity="0.5" fill="#FFFFFF" cx="582.1" cy="1732.7" r="3.6"/>
<circle opacity="0.5" fill="#FFFFFF" cx="370.1" cy="2070.7" r="3.6"/>
<circle opacity="0.5" fill="#FFFFFF" cx="148.1" cy="1885.9" r="3.6"/>
<circle opacity="0.5" fill="#FFFFFF" cx="204.6" cy="1675.1" r="3.6"/>
<circle opacity="0.5" fill="#FFFFFF" cx="521.8" cy="1679" r="3.6"/>
<circle opacity="0.5" fill="#FFFFFF" cx="399.6" cy="1820" r="3.6"/>
<circle opacity="0.5" fill="#FFFFFF" cx="818.6" cy="2220.1" r="3.6"/>
<circle opacity="0.5" fill="#FFFFFF" cx="1038" cy="2110.3" r="3.6"/>
<circle opacity="0.5" fill="#FFFFFF" cx="1127.2" cy="2419.4" r="3.6"/>
<circle opacity="0.5" fill="#FFFFFF" cx="1339.7" cy="2221.6" r="3.6"/>
<circle opacity="0.5" fill="#FFFFFF" cx="746.1" cy="2114.9" r="3.6"/>
<circle opacity="0.5" fill="#FFFFFF" cx="1210.6" cy="2005" r="3.6"/>
<circle opacity="0.5" fill="#FFFFFF" cx="984.3" cy="1906.7" r="3.6"/>
<circle opacity="0.5" fill="#FFFFFF" cx="167.6" cy="2201.6" r="3.6"/>
<circle opacity="0.5" fill="#FFFFFF" cx="1080.9" cy="1788.6" r="3.6"/>
<circle opacity="0.5" fill="#FFFFFF" cx="390" cy="2305.3" r="3.6"/>
<circle opacity="0.5" fill="#FFFFFF" cx="187.8" cy="2564.4" r="3.6"/>
<circle opacity="0.5" fill="#FFFFFF" cx="474.8" cy="2608" r="3.6"/>
<circle opacity="0.5" fill="#FFFFFF" cx="204.9" cy="2079.4" r="3.6"/>
<circle opacity="0.5" fill="#FFFFFF" cx="518.2" cy="1969.4" r="3.6"/>
<circle opacity="0.5" fill="#FFFFFF" cx="579.7" cy="2375.1" r="3.6"/>
<circle opacity="0.5" fill="#FFFFFF" cx="56.8" cy="2286.1" r="3.6"/>
<circle opacity="0.5" fill="#FFFFFF" cx="576.8" cy="2837.7" r="3.6"/>
<circle opacity="0.5" fill="#FFFFFF" cx="833.8" cy="2477.7" r="3.6"/>
<circle opacity="0.5" fill="#FFFFFF" cx="814.8" cy="2777.9" r="3.6"/>
<circle opacity="0.5" fill="#FFFFFF" cx="835.2" cy="3098.9" r="3.6"/>
<circle opacity="0.5" fill="#FFFFFF" cx="1085.3" cy="2951.6" r="3.6"/>
<circle opacity="0.5" fill="#FFFFFF" cx="528.7" cy="2719.4" r="3.6"/>
<circle opacity="0.5" fill="#FFFFFF" cx="449.5" cy="2573.9" r="3.6"/>
<circle opacity="0.5" fill="#FFFFFF" cx="913.1" cy="1973" r="3.6"/>
<circle opacity="0.5" fill="#FFFFFF" cx="686.4" cy="2628.1" r="3.6"/>
<circle opacity="0.5" fill="#FFFFFF" cx="1006" cy="2712.3" r="3.6"/>
<circle opacity="0.5" fill="#FFFFFF" cx="544.2" cy="2973.2" r="3.6"/>
<circle fill="#FFFFFF" cx="305.3" cy="2141.4" r="9.6"/>
<circle fill="#FFFFFF" cx="908.3" cy="2479.4" r="9.6"/>
<circle fill="#FFFFFF" cx="908.3" cy="2479.4" r="9.6"/>
<circle fill="#FFFFFF" cx="908.3" cy="2479.4" r="9.6"/>
<circle fill="#FFFFFF" cx="908.3" cy="2479.4" r="9.6"/>
<circle fill="#FFFFFF" cx="908.3" cy="2479.4" r="9.6"/>
<circle fill="#FFFFFF" cx="908.3" cy="2479.4" r="9.6"/>
<circle fill="#FFFFFF" cx="908.3" cy="2479.4" r="9.6"/>
<circle fill="#FFFFFF" cx="908.3" cy="2479.4" r="9.6"/>
<circle fill="#FFFFFF" cx="908.3" cy="2479.4" r="9.6"/>
<circle fill="#FFFFFF" cx="908.3" cy="2479.4" r="9.6"/>
<circle fill="#FFFFFF" cx="908.3" cy="2479.4" r="9.6"/>
<circle fill="#FFFFFF" cx="908.3" cy="2479.4" r="9.6"/>
<circle fill="#FFFFFF" cx="908.3" cy="2479.4" r="9.6"/>
<circle fill="#FFFFFF" cx="908.3" cy="2479.4" r="9.6"/>
<circle fill="#FFFFFF" cx="908.3" cy="2479.4" r="9.6"/>
<circle fill="#FFFFFF" cx="908.3" cy="2479.4" r="9.6"/>
<circle fill="#FFFFFF" cx="908.3" cy="2479.4" r="9.6"/>
<circle fill="#FFFFFF" cx="742.5" cy="2255.4" r="9.6"/>
<circle fill="#FFFFFF" cx="493.8" cy="2456.2" r="9.6"/>
<circle opacity="0.5" fill="#FFFFFF" cx="162.3" cy="2838.3" r="3.6"/>
<circle opacity="0.5" fill="#FFFFFF" cx="404.3" cy="2879.1" r="3.6"/>
<circle opacity="0.5" fill="#FFFFFF" cx="605.7" cy="2895.9" r="3.6"/>
<circle opacity="0.5" fill="#FFFFFF" cx="78" cy="2949.3" r="3.6"/>
<circle opacity="0.5" fill="#FFFFFF" cx="561.2" cy="3100.5" r="3.6"/>
<circle opacity="0.5" fill="#FFFFFF" cx="159.2" cy="3027.2" r="3.6"/>
<circle opacity="0.5" fill="#FFFFFF" cx="464" cy="3115.3" r="3.6"/>
<circle opacity="0.5" fill="#FFFFFF" cx="256.2" cy="2956.4" r="3.6"/>
<circle opacity="0.5" fill="#FFFFFF" cx="404.1" cy="3152.3" r="3.6"/>
<circle opacity="0.5" fill="#FFFFFF" cx="539" cy="3302.8" r="3.6"/>
<circle opacity="0.5" fill="#FFFFFF" cx="118.8" cy="2979.2" r="3.6"/>
<circle opacity="0.5" fill="#FFFFFF" cx="366.1" cy="3421" r="3.6"/>
<circle opacity="0.5" fill="#FFFFFF" cx="124.3" cy="3091.6" r="3.6"/>
<circle opacity="0.5" fill="#FFFFFF" cx="285.3" cy="3365" r="3.6"/>
<circle opacity="0.5" fill="#FFFFFF" cx="902.6" cy="2886.9" r="3.6"/>
<circle opacity="0.5" fill="#FFFFFF" cx="1108" cy="2752.6" r="3.6"/>
<circle opacity="0.5" fill="#FFFFFF" cx="1267.3" cy="2628.1" r="3.6"/>
<circle opacity="0.5" fill="#FFFFFF" cx="916.1" cy="3025.5" r="3.6"/>
<circle opacity="0.5" fill="#FFFFFF" cx="1373.5" cy="2808.5" r="3.6"/>
<circle opacity="0.5" fill="#FFFFFF" cx="1028.6" cy="3027.6" r="3.6"/>
<circle opacity="0.5" fill="#FFFFFF" cx="1312.2" cy="2885.4" r="3.6"/>
<circle opacity="0.5" fill="#FFFFFF" cx="902.2" cy="3107.6" r="3.6"/>
<circle opacity="0.5" fill="#FFFFFF" cx="1144.2" cy="3148.5" r="3.6"/>
<circle opacity="0.5" fill="#FFFFFF" cx="1345.6" cy="3165.3" r="3.6"/>
<circle opacity="0.5" fill="#FFFFFF" cx="817.9" cy="3218.6" r="3.6"/>
<circle opacity="0.5" fill="#FFFFFF" cx="1301.1" cy="3369.8" r="3.6"/>
<circle opacity="0.5" fill="#FFFFFF" cx="899.1" cy="3296.5" r="3.6"/>
<circle opacity="0.5" fill="#FFFFFF" cx="1203.9" cy="3384.6" r="3.6"/>
<circle fill="#FFFFFF" cx="929.7" cy="3497.7" r="9.6"/>
<circle fill="#FFFFFF" cx="1280" cy="3231.8" r="9.6"/>
<circle fill="#FFFFFF" cx="547.8" cy="3458.7" r="9.6"/>
<circle fill="#FFFFFF" cx="156.1" cy="3397.9" r="9.6"/>
<circle fill="#FFFFFF" cx="1006" cy="3369.8" r="9.6"/>
<circle fill="#FFFFFF" cx="1196.2" cy="2909.1" r="9.6"/>
<circle fill="#FFFFFF" cx="906.2" cy="2781.4" r="9.6"/>
<circle fill="#FFFFFF" cx="567" cy="3168.9" r="9.6"/>
<circle fill="#FFFFFF" cx="280.2" cy="3078.4" r="9.6"/>
<circle fill="#FFFFFF" cx="622" cy="2899.5" r="9.6"/>
<circle fill="#FFFFFF" cx="1245.7" cy="2118.5" r="9.6"/>
<line fill="none" stroke="#FFFFFF" stroke-width="4" stroke-miterlimit="10" x1="314.9" y1="2162.5" x2="478.4" y2="2437.5"/>
<line fill="none" stroke="#FFFFFF" stroke-width="4" stroke-miterlimit="10" x1="725.8" y1="2271" x2="514.6" y2="2437.5"/>
</svg>
