<?xml version="1.0" encoding="utf-8"?>
<!-- Generator: Adobe Illustrator 18.0.0, SVG Export Plug-In . SVG Version: 6.00 Build 0)  -->
<!DOCTYPE svg PUBLIC "-//W3C//DTD SVG 1.1//EN" "http://www.w3.org/Graphics/SVG/1.1/DTD/svg11.dtd">
<svg version="1.1" id="Layer_1" xmlns="http://www.w3.org/2000/svg" xmlns:xlink="http://www.w3.org/1999/xlink" x="0px" y="0px"
	 viewBox="76.3 280.8 2703.3 2364.1" enable-background="new 76.3 280.8 2703.3 2364.1" xml:space="preserve">
<g>
	<g>
		<path fill="#00004C" d="M2103.4,530.8v1777.1H326.3V530.8H2103.4 M2353.4,280.8H76.3v2277.1h2277.1V280.8L2353.4,280.8z"/>
	</g>
</g>
<path display="none" fill="#FFFFFF" d="M2354.4,933c-72.2,0-111.9,63.1-168.9,165.8c-51.9,95.6-111.9,205.5-236.1,205.5
	s-185.2-109.9-236.1-205.5c-56-102.8-95.6-165.8-168.9-165.8c-72.2,0-111.9,63.1-168.9,165.8c-51.9,95.6-111.9,205.5-236.1,205.5
	s-184.2-109.9-236.1-205.5C847.5,996.1,807.9,933,734.6,933v-75.3c124.1,0,185.2,109.9,236.1,205.5c57,103.8,96.7,166.9,168.9,166.9
	c72.2,0,111.9-63.1,168.9-165.8c51.9-95.6,111.9-205.5,236.1-205.5s185.2,109.9,236.1,205.5c56,102.8,95.6,165.8,168.9,165.8
	c72.2,0,111.9-63.1,168.9-165.8c51.9-95.6,111.9-205.5,236.1-205.5"/>
<path display="none" fill="#FFFFFF" d="M2354.4,1442.8c-72.2,0-111.9,63.1-168.9,165.8c-51.9,95.6-111.9,205.5-236.1,205.5
	s-185.2-109.9-236.1-205.5c-56-102.8-95.6-165.8-168.9-165.8c-72.2,0-111.9,63.1-168.9,165.8c-51.9,95.6-111.9,205.5-236.1,205.5
	s-185.2-109.9-236.1-205.5c-56-102.8-95.6-165.8-168.9-165.8v-75.3c124.1,0,185.2,109.9,236.1,205.5
	c56,102.8,95.6,165.8,168.9,165.8c73.3,0,111.9-63.1,168.9-165.8c51.9-95.6,111.9-205.5,236.1-205.5s185.2,109.9,236.1,205.5
	c56,102.8,95.6,165.8,168.9,165.8c72.2,0,111.9-63.1,168.9-165.8c51.9-95.6,111.9-205.5,236.1-205.5"/>
<path display="none" fill="#FFFFFF" d="M2354.4,1957.6c-72.2,0-111.9,63.1-168.9,165.8c-51.9,95.6-111.9,205.5-236.1,205.5
	s-185.2-109.9-236.1-205.5c-56-102.8-95.6-165.8-168.9-165.8c-72.2,0-111.9,63.1-168.9,165.8c-51.9,95.6-111.9,205.5-236.1,205.5
	s-185.2-109.9-236.1-205.5c-56-102.8-95.6-165.8-168.9-165.8v-75.3c124.1,0,185.2,109.9,236.1,205.5
	c56,102.8,95.6,165.8,168.9,165.8c73.3,0,111.9-63.1,168.9-165.8c51.9-95.6,111.9-205.5,236.1-205.5s185.2,109.9,236.1,205.5
	c56,102.8,95.6,165.8,168.9,165.8c72.2,0,111.9-63.1,168.9-165.8c51.9-95.6,111.9-205.5,236.1-205.5"/>
<polygon fill="#00004C" stroke="#FFFFFF" stroke-width="250" stroke-miterlimit="10" points="957.4,1619.1 1777.4,726.9 
	2597.4,1619.1 "/>
<g>
	<rect x="894.9" y="1561" fill="#00004C" width="1766.4" height="1056.4"/>
	<path fill="#FFFFFF" d="M2598.8,1623.5V2555H957.4v-931.4H2598.8 M2723.8,1498.5h-125H957.4h-125v125V2555v125h125h1641.4h125v-125
		v-931.4V1498.5L2723.8,1498.5z"/>
</g>
<rect x="1593.4" y="1926.7" fill="#FFFFFF" width="383.9" height="637.9"/>
<g>
	<polygon fill="#00004C" points="957.4,1625.1 1777.4,732.9 2597.4,1625.1 	"/>
</g>
</svg>
