<?xml version="1.0" encoding="utf-8"?>
<!-- Generator: Adobe Illustrator 18.0.0, SVG Export Plug-In . SVG Version: 6.00 Build 0)  -->
<!DOCTYPE svg PUBLIC "-//W3C//DTD SVG 1.1//EN" "http://www.w3.org/Graphics/SVG/1.1/DTD/svg11.dtd">
<svg version="1.1" id="Layer_1" xmlns="http://www.w3.org/2000/svg" xmlns:xlink="http://www.w3.org/1999/xlink" x="0px" y="0px"
	 viewBox="76.3 1253.6 2406.4 2064" enable-background="new 76.3 1253.6 2406.4 2064" xml:space="preserve">
<g>
	<rect x="76.3" y="1253.6" fill="#F4C248" width="2064" height="2064"/>
</g>
<rect x="166.4" y="2997.8" fill="#FFFFFF" width="573.2" height="239.2"/>
<rect x="822.7" y="2997.8" fill="#FFFFFF" width="573.2" height="239.2"/>
<rect x="1477" y="2997.8" fill="#FFFFFF" width="573.2" height="239.2"/>
<path fill="none" stroke="#FFFFFF" stroke-width="80" stroke-miterlimit="10" d="M493.2,2957.3"/>
<path fill="none" stroke="#FFFFFF" stroke-width="80" stroke-miterlimit="10" d="M1552,2957.3"/>
<rect x="493.2" y="2678.7" fill="#FFFFFF" width="573.2" height="239.2"/>
<rect x="1149.5" y="2678.7" fill="#FFFFFF" width="573.2" height="239.2"/>
<polygon fill="#F4C248" points="2481.5,2678.7 2201.7,2678.7 1803.8,2678.7 1803.8,2917.9 2201.7,2917.9 2481.5,2917.9 "/>
<rect x="821.7" y="2359.8" fill="#FFFFFF" width="573.2" height="239.2"/>
<rect x="1478.1" y="2359.8" fill="#FFFFFF" width="573.2" height="239.2"/>
<rect x="1148.5" y="2041.3" fill="#FFFFFF" width="573.2" height="239.2"/>
<polygon fill="#F4C248" points="2482.7,2041.3 2203.5,2041.3 1805,2041.3 1805,2280.6 2203.5,2280.6 2482.7,2280.6 "/>
<rect x="1803.8" y="2678.7" fill="#FFFFFF" width="336.5" height="239.2"/>
<rect x="1804.8" y="2041.3" fill="#FFFFFF" width="335.5" height="239.2"/>
</svg>
