<?xml version="1.0" encoding="utf-8"?>
<!-- Generator: Adobe Illustrator 18.0.0, SVG Export Plug-In . SVG Version: 6.00 Build 0)  -->
<!DOCTYPE svg PUBLIC "-//W3C//DTD SVG 1.1//EN" "http://www.w3.org/Graphics/SVG/1.1/DTD/svg11.dtd">
<svg version="1.1" id="Layer_1" xmlns="http://www.w3.org/2000/svg" xmlns:xlink="http://www.w3.org/1999/xlink" x="0px" y="0px"
	 viewBox="76.3 280.8 2683 2277.1" enable-background="new 76.3 280.8 2683 2277.1" xml:space="preserve">
<g>
	<g>
		<rect x="76.3" y="280.8" fill="#23B2FE" width="2277.1" height="2277.1"/>
	</g>
	<g>
		<path fill="#23B2FE" d="M2589.4,1063.2c-52.9-96.7-112.9-205.5-236.1-205.5V934c73.3,0,111.9,63.1,168.9,165.8
			c52.9,96.7,112.9,205.5,236.1,205.5v-76.3C2686.1,1229.1,2646.4,1166,2589.4,1063.2z"/>
	</g>
	<path fill="#FFFFFF" d="M2354.4,933c-72.2,0-111.9,63.1-168.9,165.8c-51.9,95.6-111.9,205.5-236.1,205.5s-185.2-109.9-236.1-205.5
		c-56-102.8-95.6-165.8-168.9-165.8c-72.2,0-111.9,63.1-168.9,165.8c-51.9,95.6-111.9,205.5-236.1,205.5s-184.2-109.9-236.1-205.5
		C847.5,996.1,807.9,933,734.6,933v-75.3c124.1,0,185.2,109.9,236.1,205.5c57,103.8,96.7,166.9,168.9,166.9
		c72.2,0,111.9-63.1,168.9-165.8c51.9-95.6,111.9-205.5,236.1-205.5s185.2,109.9,236.1,205.5c56,102.8,95.6,165.8,168.9,165.8
		c72.2,0,111.9-63.1,168.9-165.8c51.9-95.6,111.9-205.5,236.1-205.5"/>
	<path fill="#FFFFFF" d="M2354.4,1442.8c-72.2,0-111.9,63.1-168.9,165.8c-51.9,95.6-111.9,205.5-236.1,205.5
		s-185.2-109.9-236.1-205.5c-56-102.8-95.6-165.8-168.9-165.8c-72.2,0-111.9,63.1-168.9,165.8c-51.9,95.6-111.9,205.5-236.1,205.5
		s-185.2-109.9-236.1-205.5c-56-102.8-95.6-165.8-168.9-165.8v-75.3c124.1,0,185.2,109.9,236.1,205.5
		c56,102.8,95.6,165.8,168.9,165.8c73.3,0,111.9-63.1,168.9-165.8c51.9-95.6,111.9-205.5,236.1-205.5s185.2,109.9,236.1,205.5
		c56,102.8,95.6,165.8,168.9,165.8c72.2,0,111.9-63.1,168.9-165.8c51.9-95.6,111.9-205.5,236.1-205.5"/>
	<path fill="#FFFFFF" d="M2354.4,1957.6c-72.2,0-111.9,63.1-168.9,165.8c-51.9,95.6-111.9,205.5-236.1,205.5
		s-185.2-109.9-236.1-205.5c-56-102.8-95.6-165.8-168.9-165.8c-72.2,0-111.9,63.1-168.9,165.8c-51.9,95.6-111.9,205.5-236.1,205.5
		s-185.2-109.9-236.1-205.5c-56-102.8-95.6-165.8-168.9-165.8v-75.3c124.1,0,185.2,109.9,236.1,205.5
		c56,102.8,95.6,165.8,168.9,165.8c73.3,0,111.9-63.1,168.9-165.8c51.9-95.6,111.9-205.5,236.1-205.5s185.2,109.9,236.1,205.5
		c56,102.8,95.6,165.8,168.9,165.8c72.2,0,111.9-63.1,168.9-165.8c51.9-95.6,111.9-205.5,236.1-205.5"/>
	<g>
		<g>
			<path fill="#23B2FE" d="M2354.4,1367c123.1,0,183.1,109.9,236.1,205.5c57,103.8,96.7,165.8,168.9,165.8v76.3
				c-123.1,0-183.1-109.9-236.1-205.5c-57-103.8-96.7-165.8-168.9-165.8"/>
		</g>
	</g>
	<g>
		<g>
			<path fill="#23B2FE" d="M2354.4,1882.3c123.1,0,183.1,109.9,236.1,205.5c57,103.8,96.7,165.8,168.9,165.8v76.3
				c-123.1,0-183.1-109.9-236.1-205.5c-57-103.8-96.7-165.8-168.9-165.8"/>
		</g>
	</g>
</g>
</svg>
