<?xml version="1.0" encoding="utf-8"?>
<!-- Generator: Adobe Illustrator 18.0.0, SVG Export Plug-In . SVG Version: 6.00 Build 0)  -->
<!DOCTYPE svg PUBLIC "-//W3C//DTD SVG 1.1//EN" "http://www.w3.org/Graphics/SVG/1.1/DTD/svg11.dtd">
<svg version="1.1" id="Layer_1" xmlns="http://www.w3.org/2000/svg" xmlns:xlink="http://www.w3.org/1999/xlink" x="0px" y="0px"
	 viewBox="0 1893.9 2834.6 920.7" enable-background="new 0 1893.9 2834.6 920.7" xml:space="preserve">
<g>
	<path fill="#FEBC2D" d="M753.3,2001.2c13.8,6.2,24.5,15.1,32,26.6c7.4,11.5,11.2,25.2,11.2,40.7s-3.7,29.1-11.2,40.6
		c-7.4,11.4-18.2,20.3-32,26.4c-13.8,6.2-30.1,9.3-48.9,9.3h-36.1v54.2h-58.6v-207.2h94.7C723.2,1991.9,739.5,1995.1,753.3,2001.2z
		 M728.2,2090.9c6.1-5.2,9.2-12.6,9.2-22.3s-3.1-17.2-9.2-22.5c-6.1-5.3-15.2-8-27.2-8h-32.6v60.7H701
		C712.9,2098.8,722,2096.2,728.2,2090.9z"/>
	<path fill="#FEBC2D" d="M977.9,2053.8c12.1,11.8,18.3,29.7,18.3,53.6v91.8h-56.2v-82.6c0-21.9-8.8-32.9-26.3-32.9
		c-9.7,0-17.4,3.2-23.2,9.5c-5.8,6.4-8.8,15.8-8.8,28.4v77.7h-56.2v-219.7h56.2v74c6.1-5.7,13.3-10.1,21.6-13
		c8.3-3,17.2-4.4,26.6-4.4C949.7,2036.1,965.6,2042.1,977.9,2053.8z"/>
	<path fill="#FEBC2D" d="M1197.3,2038.7l-69.3,167c-8.1,19.7-18,33.5-29.6,41.5c-11.6,8-26,11.9-42.6,11.9c-8.5,0-17.1-1.3-25.6-3.9
		c-8.7-2.7-15.6-6.1-20.8-10.5l19.5-39.4c3.2,3,6.9,5.3,11.4,6.9c4.4,1.8,9,2.5,13.5,2.5c5.3,0,9.7-1.1,13.1-3.3s6.4-5.6,8.8-10.4
		l-68.7-162.5h57.7l39.4,98l39.8-98L1197.3,2038.7L1197.3,2038.7L1197.3,2038.7z"/>
	<path fill="#FEBC2D" d="M1227.8,2197.3c-13-3.1-23.5-7-31.4-11.9l16.9-38.6c7.3,4.5,16,8.1,26.1,10.8s20,3.9,29.9,3.9
		c9.1,0,15.6-1,19.4-2.8c3.8-1.9,5.7-4.6,5.7-8.1s-2.4-6-6.9-7.6c-4.6-1.5-11.9-3-22-4.3c-12.8-1.6-23.8-3.7-32.7-6.2
		c-9-2.6-16.8-7.3-23.2-14.2c-6.5-6.9-9.9-16.6-9.9-29c0-10.3,3.1-19.4,9.2-27.4c6.1-8,15-14.3,26.7-19c11.7-4.6,25.8-6.9,42.2-6.9
		c11.6,0,23.2,1.2,34.6,3.6c11.4,2.4,21,5.7,28.7,10.1l-16.9,38.2c-14.2-7.9-29.6-11.8-46.2-11.8c-8.9,0-15.4,1.1-19.5,3.2
		c-4.1,2.1-6.2,4.7-6.2,8.1c0,3.7,2.3,6.4,6.8,7.9c4.5,1.5,12.1,3.1,22.5,4.6c13.1,2,24.2,4.2,32.9,6.8c8.7,2.6,16.2,7.2,22.7,14
		c6.4,6.8,9.6,16.3,9.6,28.6c0,10.1-3.1,19.1-9.2,27.1s-15.1,14.2-27.1,18.7c-11.9,4.5-26.3,6.8-43,6.8
		C1254.1,2201.8,1240.9,2200.2,1227.8,2197.3z"/>
	<path fill="#FEBC2D" d="M1374.4,2012.4c-6.4-5.7-9.5-12.8-9.5-21.2c0-8.5,3.2-15.6,9.5-21.3c6.2-5.7,14.6-8.7,24.9-8.7
		c10.3,0,18.6,2.7,24.9,8.1c6.3,5.4,9.5,12.4,9.5,20.8c0,8.9-3.2,16.2-9.5,22c-6.3,5.8-14.6,8.8-24.9,8.8
		C1389,2020.9,1380.7,2018.1,1374.4,2012.4z M1371.1,2038.7h56.2v160.4h-56.2V2038.7z"/>
	<path fill="#FEBC2D" d="M1498.1,2191.3c-14-7.1-25-17-32.7-29.6c-7.8-12.6-11.6-26.9-11.6-42.9s3.8-30.2,11.6-42.7
		s18.6-22.3,32.7-29.4c14-7,29.9-10.5,47.8-10.5c18.2,0,33.8,3.8,47.1,11.6c13.1,7.8,22.6,18.6,28.2,32.4l-43.5,22.2
		c-7.3-14.3-18-21.6-32-21.6c-10.1,0-18.5,3.4-25.1,10.1s-10,16-10,27.8c0,12.1,3.4,21.5,10,28.3s14.9,10.3,25.1,10.3
		c14,0,24.8-7.2,32-21.6l43.5,22.2c-5.5,13.8-14.9,24.6-28.2,32.4s-28.9,11.6-47.1,11.6C1528,2201.8,1512.2,2198.4,1498.1,2191.3z"
		/>
	<path fill="#FEBC2D" d="M1660.9,2197.3c-13-3.1-23.5-7-31.4-11.9l16.9-38.6c7.3,4.5,16,8.1,26.1,10.8c10.1,2.7,20,3.9,29.9,3.9
		c9.1,0,15.6-1,19.4-2.8c3.8-1.9,5.7-4.6,5.7-8.1s-2.4-6-6.9-7.6c-4.6-1.5-11.9-3-22-4.3c-12.8-1.6-23.8-3.7-32.7-6.2
		c-9-2.6-16.8-7.3-23.2-14.2c-6.5-6.9-9.9-16.6-9.9-29c0-10.3,3.1-19.4,9.2-27.4c6.1-8,15-14.3,26.7-19c11.7-4.6,25.8-6.9,42.2-6.9
		c11.6,0,23.2,1.2,34.6,3.6c11.4,2.4,21,5.7,28.7,10.1l-16.9,38.2c-14.2-7.9-29.6-11.8-46.2-11.8c-8.9,0-15.4,1.1-19.5,3.2
		c-4.1,2.1-6.2,4.7-6.2,8.1c0,3.7,2.3,6.4,6.8,7.9c4.5,1.5,12.1,3.1,22.5,4.6c13.1,2,24.2,4.2,32.9,6.8c8.7,2.6,16.2,7.2,22.7,14
		c6.4,6.8,9.6,16.3,9.6,28.6c0,10.1-3.1,19.1-9.2,27.1c-6.1,8-15.1,14.2-27.1,18.7c-11.9,4.5-26.3,6.8-43,6.8
		C1687.2,2201.8,1673.9,2200.2,1660.9,2197.3z"/>
</g>
<g>
	<path fill="#141449" d="M192.3,2274.5v149.6h300.2v148.6H192.3v233.2H0v-680.1h533.3v148.6L192.3,2274.5L192.3,2274.5z"/>
	<path fill="#141449" d="M715,2779.8c-45.3-23.3-80.8-55.7-106.4-97.2c-25.6-41.4-38.4-88.4-38.4-140.9c0-51.8,12.7-98.5,38.4-139.9
		c25.6-41.4,60.9-73.6,105.9-96.7c45-23,95.9-34.4,153-34.4c57,0,108.1,11.5,153.5,34.4c45.3,23,80.6,55.1,105.9,96.2
		c25.3,41.1,37.9,88,37.9,140.3c0,52.3-12.6,99.4-37.9,140.9c-25.3,41.4-60.6,73.8-105.9,97.2c-45.3,23.3-96.5,34.9-153.5,34.9
		C811.2,2814.7,760.4,2803.1,715,2779.8z M947.2,2634.4c20.7-22.3,31.1-53.2,31.1-92.9c0-38.9-10.4-69.3-31.1-91.3
		c-20.7-22-47.3-33.1-79.6-33.1s-58.9,11.1-79.6,33.1c-20.7,22-31.1,52.5-31.1,91.3c0,39.5,10.4,70.4,31.1,92.9
		c20.7,22.3,47.3,33.5,79.6,33.5C899.9,2668,926.5,2656.8,947.2,2634.4z"/>
	<path fill="#141449" d="M1568.9,2805.9l-94.2-137.9l-101,137.9h-200.1l200.1-263.3l-194.3-263.3h207.9l93.2,133.1l97.2-133.1H1773
		l-194.3,256.5l201.1,270.1H1568.9L1568.9,2805.9z"/>
</g>
<polygon fill="#FFFFFF" points="2066.4,2128.5 1991.4,2343.4 2112.5,2284.3 "/>
<polyline fill="#141449" points="1906.5,2803.2 1906.5,2438 1906.5,2030.5 2273.6,2030.5 2682.5,2030.5 2682.5,2803.2 "/>
<polyline fill="#FEBC2D" points="1906.5,2803.2 1906.5,2433.1 2068.8,1904 2183,2192.7 2260,2064 2299.5,2038.6 2366.2,2294.3 
	2422.1,2438.6 2524.3,2532.7 2682.5,2539 2682.5,2803.2 "/>
<polyline fill="#141449" points="1906.5,2803.2 2122.2,2712.7 2552.9,2610.7 2682.5,2539 2682.5,2803.2 "/>
<path fill="#FFFFFF" d="M2241.9,2717.1c0,0-209.4-220.4,0-141.4s301.8,22.7,389-14.5c39.8-16.9,60-17.4,60-36.1l22.3-20.7
	c0,0,23.6,25.5,3.4,35.3c-11.9,5.7-23.3,12.1-29.7,21.2c-26.5,37.5-72.4,70.9-135.2,97.7C2456.4,2699.1,2375.4,2717.1,2241.9,2717.1
	z"/>
<polygon fill="#FFFFFF" points="2188.9,2244.8 2068.8,1906.1 2102.5,1902 2199.6,2218.6 "/>
<polygon fill="#FFFFFF" points="2188.9,2244.8 2171.2,2194.6 2265.8,2019 2290.3,2035.4 "/>
<rect x="2139.6" y="2213.7" transform="matrix(-0.3551 -0.9348 0.9348 -0.3551 1112.4659 5228.3447)" fill="#FFFFFF" width="440" height="33.5"/>
<path fill="#FFFFFF" d="M2645.8,2560.8c-8.8,0.4-17.5,0.6-26.2,0.3c-30.6-1-59.4-6.5-85.9-16.4c-26.8-10-49.9-24.1-68.6-41.5
	c-19.5-18.5-35.1-37.2-43-61.1l-129.7-418.2l41.6,0.2c25.2,69.8,85.8,227.2,133,337.6c24,56.2,43,102.2,55,114.1
	c42.6,42.3,55.3,46.4,80.4,53c25.2,6.6,64.5,8.1,80-1c15.5-9.1-5.2,3.2,22.6-4.6l8.7,26.6
	C2691.3,2555.9,2668.5,2559.5,2645.8,2560.8z"/>
<path fill="#141449" d="M2834.6,2490.3c0,31.6-25.6,57.1-57.1,57.1s-57.1-25.6-57.1-57.1c0-31.6,25.6-57.1,57.1-57.1
	S2834.6,2458.8,2834.6,2490.3"/>
<path fill="#FFFFFF" d="M1894.6,2438.4c24.7-10.7,52-17.5,79.4-13.9c32.4,4.1,74.9,11.9,124.2,53.7c21.9,18.6,45.1,39.9,69.4,58.2
	c24.3,18.4,49.6,33.5,75.7,39.4l-1.1,141.1c-197.4,4-199.8,91.2-210,97.1"/>
<rect x="1894.6" y="2461.2" fill="#FFFFFF" width="134.6" height="352.7"/>
<path fill="#141449" d="M2339.6,2377.8c-5.2-13.8-4.8-28.8,1.2-42.3c5.9-13.5,16.9-23.9,30.8-29c13.8-5.2,28.7-4.8,42.3,1.2
	c13.5,5.9,23.9,16.9,29,30.8l-26.7,10.1c-2.6-6.7-7.5-11.9-14.1-14.9c-6.5-2.9-13.7-3.2-20.4-0.5l0,0c-6.7,2.6-11.9,7.5-14.9,14.1
	c-2.9,6.5-3.2,13.7-0.5,20.4L2339.6,2377.8z"/>
<rect x="2254.6" y="2022.6" fill="#FFFFFF" width="31.4" height="7.9"/>
<polygon fill="#FFFFFF" points="2195.6,2224.3 2091.6,1954.7 2140.9,1941.2 2226.7,2167.8 "/>
<polygon fill="#FFFFFF" points="1906.3,2434.6 1900.6,2432.7 1900.2,2348.6 1906.5,2329.5 2037.8,1893.9 2068.8,1904 "/>
<path fill="#141449" d="M2173.6,2442.3c-5.2-13.8-4.8-28.8,1.2-42.3c5.9-13.5,16.9-23.9,30.8-29c13.8-5.2,28.7-4.8,42.3,1.2
	c13.5,5.9,23.9,16.9,29,30.8l-26.7,10.1c-2.6-6.7-7.5-11.9-14.1-14.9c-6.5-2.9-13.7-3.2-20.4-0.5l0,0c-6.7,2.6-11.9,7.5-14.9,14.1
	c-2.9,6.5-3.2,13.7-0.5,20.4L2173.6,2442.3z"/>
<line fill="none" x1="2452.9" y1="2368.3" x2="2148.8" y2="2485.5"/>
<polygon fill="#FFFFFF" points="2093.1,2142.9 2037.1,2347.8 2138.2,2299.7 "/>
<line fill="none" x1="2188.9" y1="2244.8" x2="1906.3" y2="2434.6"/>
</svg>
