<?xml version="1.0" encoding="utf-8"?>
<!-- Generator: Adobe Illustrator 18.0.0, SVG Export Plug-In . SVG Version: 6.00 Build 0)  -->
<!DOCTYPE svg PUBLIC "-//W3C//DTD SVG 1.1//EN" "http://www.w3.org/Graphics/SVG/1.1/DTD/svg11.dtd">
<svg version="1.1" id="Layer_1" xmlns="http://www.w3.org/2000/svg" xmlns:xlink="http://www.w3.org/1999/xlink" x="0px" y="0px"
	 viewBox="0 0 2834.6 2834.6" enable-background="new 0 0 2834.6 2834.6" xml:space="preserve">
<polygon fill="#FFFFFF" points="601.9,1030 375.8,1678 741.2,1500 "/>
<polyline fill="#00004C" points="120,3064.7 120,1963 120,734.6 674.1,734.6 1003.5,1177.7 1307.7,734.6 2459.6,734.6 
	2459.6,3064.7 "/>
<polyline fill="#FEBC2D" points="120,3064.7 120,1948.7 609.5,353.3 953.5,1223.9 1185.8,835.4 1305.1,759.1 1506.1,1529.8 
	1674.5,1965.3 1982.7,2248.9 2459.6,2267.8 2459.6,3064.7 "/>
<polyline fill="#141449" points="120,3064.7 770.3,2791.6 2069,2484 2459.6,2267.8 2459.6,3064.7 "/>
<path fill="#FFFFFF" d="M1131.1,2804.8c0,0-631.5-664.7,0-426.3s910.2,68.4,1172.8-43.6c119.8-51,181-52.5,181-108.8l67.3-62.6
	c0,0,71,76.8,10.1,106.6c-35.9,17.2-70.3,36.6-89.7,63.9c-79.9,113-218.3,213.8-407.5,294.7
	C1778,2750.7,1533.7,2804.8,1131.1,2804.8z"/>
<polygon fill="#FFFFFF" points="971.5,1380.9 609.5,359.3 710.8,347.2 1003.5,1301.7 "/>
<polygon fill="#FFFFFF" points="971.5,1380.9 917.9,1229.5 1203.2,699.7 1277.1,749.2 "/>
<rect x="823" y="1287.1" transform="matrix(-0.3551 -0.9348 0.9348 -0.3551 763.6193 3202.2004)" fill="#FFFFFF" width="1326.6" height="101.3"/>
<path fill="#FFFFFF" d="M2349.1,2333.5c-26.4,1.3-52.8,1.8-79.2,1c-92.1-3-179-19.7-259.2-49.4c-80.8-30.1-150.6-72.5-206.7-125.2
	c-58.9-55.6-106-112.1-129.7-184.2L1283.4,714.8l125.7,0.5c76,210.5,258.9,685.2,401,1018c72.3,169.5,129.8,308.3,165.8,344
	c128.6,127.6,166.6,139.8,242.4,159.7c75.8,20,194.6,24.3,241.3-3s-15.9,9.4,68-13.9l26.1,80.2
	C2486.3,2318.6,2417.6,2329.7,2349.1,2333.5z"/>
<path fill="#00004C" d="M2918.4,2121c0,95.1-77.2,172.3-172.3,172.3c-95.1,0-172.3-77.2-172.3-172.3c0-95.1,77.2-172.3,172.3-172.3
	C2841.2,1948.7,2918.4,2025.9,2918.4,2121"/>
<path fill="#FFFFFF" d="M83.8,1964.6c74.4-32.2,156.7-52.8,239.6-42c97.5,12.6,225.7,35.9,374.6,161.8
	c66,55.9,136,120.1,209.1,175.4c73.1,55.2,149.6,100.8,228.1,118.8l-3.3,425.6c-595.5,12.2-602.6,274.8-633.1,292.7"/>
<rect x="83.8" y="2033.3" fill="#FFFFFF" width="405.7" height="1063.5"/>
<path fill="#00004C" d="M1425.7,1781.7c-15.9-41.6-14.7-87,3.6-127.6c18-40.7,51-71.9,92.9-87.5c41.6-15.9,86.7-14.7,127.6,3.6
	c40.7,18,71.9,51,87.5,92.9l-80.5,30.4c-7.7-20.2-22.6-35.9-42.4-44.8c-19.7-8.6-41.5-9.4-61.5-1.6l0,0
	c-20.2,7.7-35.9,22.6-44.8,42.4c-8.6,19.7-9.4,41.5-1.6,61.5L1425.7,1781.7z"/>
<rect x="1169.6" y="710.7" fill="#FFFFFF" width="94.5" height="23.9"/>
<g>
	<path fill="#00004C" d="M2682.3,335.6h-49.9v-13h114.8v13h-49.9v128.9h-15L2682.3,335.6L2682.3,335.6z"/>
	<path fill="#00004C" d="M2918.4,322.6v141.9H2904V351l-55.8,95.5h-7.1l-55.8-94.9v112.9h-14.4V322.6h12.4l61.7,105.2l61-105.2
		L2918.4,322.6L2918.4,322.6z"/>
</g>
<polygon fill="#FFFFFF" points="991.7,1319.1 678,506.1 826.5,465.4 1085.3,1148.4 "/>
<polygon fill="#FFFFFF" points="119.2,1953 102.1,1947.4 100.9,1693.9 119.9,1636.2 516,322.6 609.5,353.3 "/>
<path fill="#00004C" d="M925.4,1976.1c-15.9-41.6-14.7-87,3.6-127.6c18-40.7,51-71.9,92.9-87.5c41.6-15.9,86.7-14.7,127.6,3.6
	c40.7,18,71.9,51,87.5,92.9l-80.5,30.4c-7.7-20.2-22.6-35.9-42.4-44.8c-19.7-8.6-41.5-9.4-61.5-1.6l0,0
	c-20.2,7.7-35.9,22.6-44.8,42.4c-8.6,19.7-9.4,41.5-1.6,61.5L925.4,1976.1z"/>
<line fill="none" x1="1767.3" y1="1753.1" x2="850.4" y2="2106.7"/>
<polygon fill="#FFFFFF" points="682.4,1073.6 513.6,1691.2 818.4,1546.3 "/>
<line fill="none" x1="971.5" y1="1380.9" x2="119.2" y2="1953"/>
<g>
	<path fill="#00004C" d="M1207.9,1925.9c0,68.5-55.6,124.1-124.1,124.1s-124.1-55.6-124.1-124.1s55.6-124.1,124.1-124.1
		S1207.9,1857.4,1207.9,1925.9"/>
	<polygon display="none" fill="#FEBC2D" points="953.4,1909.6 1064.5,1929.6 953.4,1966.5 	"/>
	<g display="none">
		<path display="inline" fill="none" stroke="#00004C" stroke-width="22.3323" stroke-miterlimit="10" d="M1183.8,1706.6
			c1.8,56.9-42.8,104.4-99.7,106.2"/>
		<path display="inline" fill="none" stroke="#00004C" stroke-width="22.3323" stroke-miterlimit="10" d="M1273.3,1767.7
			c-19.4,53.5-78.4,81.2-132,61.8"/>
		<path display="inline" fill="none" stroke="#00004C" stroke-width="22.3323" stroke-miterlimit="10" d="M1070,1696.3
			c23.6,51.8,0.8,112.8-51,136.5"/>
	</g>
</g>
<g>
	<path fill="#00004C" d="M1697.1,1724.5c0,64.1-52.1,116.2-116.2,116.2s-116.2-52.1-116.2-116.2s52.1-116.2,116.2-116.2
		C1645,1608.3,1697.1,1660.3,1697.1,1724.5"/>
	<polyline display="none" fill="#FEBC2D" points="1458.8,1762.5 1458.8,1709.2 1562.9,1728 	"/>
	<g display="none">
		<path display="inline" fill="none" stroke="#00004C" stroke-width="20.9057" stroke-miterlimit="10" d="M1674.5,1519.2
			c1.7,53.3-40,97.8-93.3,99.5"/>
		<path display="inline" fill="none" stroke="#00004C" stroke-width="20.9057" stroke-miterlimit="10" d="M1758.3,1576.5
			c-18.2,50.1-73.4,76-123.5,57.8"/>
		<path display="inline" fill="none" stroke="#00004C" stroke-width="20.9057" stroke-miterlimit="10" d="M1568,1509.6
			c22.1,48.5,0.7,105.6-47.8,127.7"/>
	</g>
</g>
<path fill="#00004C" d="M1035.5,1074.8c0,50.6-41.1,91.7-91.7,91.7s-91.6-41.1-91.6-91.7c0-50.6,41.1-91.7,91.7-91.7
	C994.5,983.1,1035.5,1024.2,1035.5,1074.8"/>
<path fill="#00004C" d="M1346.6,1189.1c-131.1,52.1-279.5-12-331.6-143.1s12-279.5,143.1-331.6"/>
<path fill="#00004C" d="M539.9,956.7c131.1-52.1,279.5,12,331.6,143.1c52.1,131.1-12,279.5-143.1,331.6"/>
</svg>
