<?xml version="1.0" encoding="utf-8"?>
<!-- Generator: Adobe Illustrator 18.0.0, SVG Export Plug-In . SVG Version: 6.00 Build 0)  -->
<!DOCTYPE svg PUBLIC "-//W3C//DTD SVG 1.1//EN" "http://www.w3.org/Graphics/SVG/1.1/DTD/svg11.dtd">
<svg version="1.1" id="Layer_1" xmlns="http://www.w3.org/2000/svg" xmlns:xlink="http://www.w3.org/1999/xlink" x="0px" y="0px"
	 viewBox="0 0 2834.6 2834.6" enable-background="new 0 0 2834.6 2834.6" xml:space="preserve">
<polygon fill="#FFFFFF" points="893.9,862.1 737.9,1309.3 990.1,1186.4 "/>
<polyline fill="#00004C" points="561.4,2266.1 561.4,1505.9 561.4,658.3 943.8,658.3 1381,658.3 2175.8,658.3 2175.8,2266.1 "/>
<polyline fill="#FEBC2D" points="561.4,2266.1 561.4,1496.1 899.2,395.2 1136.6,995.9 1296.9,727.9 1379.2,675.2 1517.9,1207 
	1634.1,1507.5 1846.7,1703.2 2175.8,1716.3 2175.8,2266.1 "/>
<polyline fill="#141449" points="561.4,2266.1 1010.2,2077.7 1906.3,1865.4 2175.8,1716.3 2175.8,2266.1 "/>
<path fill="#FFFFFF" d="M1259.1,2086.8c0,0-435.8-458.7,0-294.2s628.1,47.2,809.3-30.1c82.7-35.2,124.9-36.2,124.9-75.1l46.4-43.2
	c0,0,49,53,7,73.6c-24.8,11.9-48.5,25.3-61.9,44.1c-55.1,78-150.6,147.5-281.2,203.4C1705.5,2049.5,1536.9,2086.8,1259.1,2086.8z"/>
<polygon fill="#FFFFFF" points="1149,1104.3 899.2,399.3 969.1,391 1171.1,1049.6 "/>
<polygon fill="#FFFFFF" points="1149,1104.3 1112,999.8 1308.9,634.2 1359.9,668.4 "/>
<rect x="1046.6" y="1039.6" transform="matrix(0.3551 0.9348 -0.9348 0.3551 1974.5713 -713.2915)" fill="#FFFFFF" width="915.4" height="69.9"/>
<path fill="#FFFFFF" d="M2099.6,1761.6c-18.2,0.9-36.4,1.2-54.7,0.7c-63.6-2.1-123.5-13.6-178.9-34.1
	c-55.8-20.8-103.9-50-142.6-86.4c-40.6-38.4-73.1-77.4-89.5-127.1l-269.7-870.1l86.7,0.3c52.4,145.3,178.6,472.8,276.7,702.5
	c49.9,117,89.6,212.7,114.4,237.4c88.7,88,115,96.5,167.3,110.2c52.3,13.8,134.3,16.8,166.5-2.1c32.2-18.8-11,6.5,46.9-9.6l18,55.3
	C2194.2,1751.3,2146.8,1759,2099.6,1761.6z"/>
<path fill="#00004C" d="M2492.4,1615c0,65.6-53.3,118.9-118.9,118.9c-65.6,0-118.9-53.3-118.9-118.9c0-65.6,53.3-118.9,118.9-118.9
	C2439.1,1496.1,2492.4,1549.3,2492.4,1615"/>
<path fill="#FFFFFF" d="M536.4,1507c51.3-22.2,108.1-36.4,165.3-29c67.3,8.7,155.7,24.8,258.5,111.6c45.5,38.6,93.8,82.9,144.3,121
	c50.4,38.1,103.2,69.6,157.4,82l-2.3,293.7c-410.9,8.4-415.8,189.6-436.9,202"/>
<rect x="536.4" y="1554.4" fill="#FFFFFF" width="279.9" height="733.8"/>
<rect x="1285.7" y="641.8" fill="#FFFFFF" width="65.2" height="16.5"/>
<polygon fill="#FFFFFF" points="1162.9,1061.6 946.5,500.6 1048.9,472.5 1227.5,943.8 "/>
<polygon fill="#FFFFFF" points="560.9,1499 549.1,1495.2 548.2,1320.2 561.4,1280.4 834.7,374 899.2,395.2 "/>
<line fill="none" x1="1698.1" y1="1361.1" x2="1065.4" y2="1605.1"/>
<polygon fill="#FFFFFF" points="949.5,892.2 833,1318.4 1043.3,1218.4 "/>
<line fill="none" x1="1149" y1="1104.3" x2="560.9" y2="1499"/>
<g>
	<path fill="#00004C" d="M1323.1,1473.4c0,47.3-38.4,85.6-85.6,85.6c-47.3,0-85.6-38.4-85.6-85.6c0-47.3,38.4-85.6,85.6-85.6
		C1284.8,1387.8,1323.1,1426.2,1323.1,1473.4"/>
	<polygon display="none" fill="#FEBC2D" points="1147.5,1462.2 1224.2,1476 1147.5,1501.4 	"/>
	<g display="none">
		<path display="inline" fill="none" stroke="#00004C" stroke-width="15.4098" stroke-miterlimit="10" d="M1306.5,1322.1
			c1.2,39.3-29.5,72-68.8,73.3"/>
		<path display="inline" fill="none" stroke="#00004C" stroke-width="15.4098" stroke-miterlimit="10" d="M1368.3,1364.3
			c-13.4,36.9-54.1,56-91.1,42.6"/>
		<path display="inline" fill="none" stroke="#00004C" stroke-width="15.4098" stroke-miterlimit="10" d="M1228,1315
			c16.3,35.7,0.6,77.8-35.2,94.2"/>
	</g>
</g>
<g>
	<path fill="#00004C" d="M1643.3,1315c0,47.3-38.4,85.6-85.6,85.6s-85.6-38.4-85.6-85.6c0-47.3,38.4-85.6,85.6-85.6
		S1643.3,1267.7,1643.3,1315"/>
	<polygon display="none" fill="#FEBC2D" points="1467.6,1303.8 1544.4,1317.6 1467.6,1343 	"/>
	<g display="none">
		<path display="inline" fill="none" stroke="#00004C" stroke-width="15.4098" stroke-miterlimit="10" d="M1626.7,1163.7
			c1.2,39.3-29.5,72-68.8,73.3"/>
		<path display="inline" fill="none" stroke="#00004C" stroke-width="15.4098" stroke-miterlimit="10" d="M1688.5,1205.8
			c-13.4,36.9-54.1,56-91.1,42.6"/>
		<path display="inline" fill="none" stroke="#00004C" stroke-width="15.4098" stroke-miterlimit="10" d="M1548.2,1156.6
			c16.3,35.7,0.6,77.9-35.2,94.2"/>
	</g>
</g>
<path fill="#00004C" d="M1211.8,1392.2c12.8,34-4.5,72-38.6,84.7c-34,12.8-72-4.5-84.8-38.6"/>
<path fill="#00004C" d="M1651.1,1188.6c12.8,34-4.5,72-38.6,84.7c-34,12.8-72-4.5-84.8-38.6"/>
<polygon fill="#FEBC2D" points="1152.3,1524.3 1147.5,1481.1 1213.4,1476 "/>
<polygon fill="#FEBC2D" points="1473.7,1374.4 1473.7,1331.3 1534.8,1326.2 "/>
<g>
	<path fill="#00004C" d="M1643.2,1315c0,47.3-38.4,85.6-85.6,85.6c-47.3,0-85.6-38.4-85.6-85.6c0-47.3,38.4-85.6,85.6-85.6
		C1604.9,1229.4,1643.2,1267.8,1643.2,1315"/>
	<polygon display="none" fill="#FEBC2D" points="1467.6,1303.8 1544.3,1317.6 1467.6,1343 	"/>
	<g display="none">
		<path display="inline" fill="none" stroke="#00004C" stroke-width="15.4098" stroke-miterlimit="10" d="M1626.6,1163.7
			c1.2,39.3-29.5,72-68.8,73.3"/>
		<path display="inline" fill="none" stroke="#00004C" stroke-width="15.4098" stroke-miterlimit="10" d="M1688.4,1205.9
			c-13.4,36.9-54.1,56-91.1,42.6"/>
		<path display="inline" fill="none" stroke="#00004C" stroke-width="15.4098" stroke-miterlimit="10" d="M1548.1,1156.6
			c16.3,35.7,0.6,77.8-35.2,94.2"/>
	</g>
</g>
<polygon fill="#FEBC2D" points="1472.4,1365.9 1467.6,1322.7 1533.5,1317.6 "/>
</svg>
