<?xml version="1.0" encoding="utf-8"?>
<!-- Generator: Adobe Illustrator 18.0.0, SVG Export Plug-In . SVG Version: 6.00 Build 0)  -->
<!DOCTYPE svg PUBLIC "-//W3C//DTD SVG 1.1//EN" "http://www.w3.org/Graphics/SVG/1.1/DTD/svg11.dtd">
<svg version="1.1" id="Layer_1" xmlns="http://www.w3.org/2000/svg" xmlns:xlink="http://www.w3.org/1999/xlink" x="0px" y="0px"
	 viewBox="83.8 352.8 2834.6 2774.3" enable-background="new 83.8 352.8 2834.6 2774.3" xml:space="preserve">
<polygon fill="#FFFFFF" points="601.9,1060.2 375.8,1708.2 741.2,1530.2 "/>
<polyline fill="#00004C" points="120,3095 120,1993.2 120,764.8 674.1,764.8 1003.5,1207.9 1307.7,764.8 2459.6,764.8 2459.6,3095 
	"/>
<polyline fill="#FEBC2D" points="120,3095 120,1978.9 609.5,383.5 953.5,1254.1 1185.8,865.6 1305.1,789.3 1506.1,1560 
	1674.5,1995.5 1982.7,2279.1 2459.6,2298 2459.6,3095 "/>
<polyline fill="#141449" points="120,3095 770.3,2821.8 2069,2514.2 2459.6,2298 2459.6,3095 "/>
<path fill="#FFFFFF" d="M1131.1,2835c0,0-631.5-664.7,0-426.3c631.5,238.4,910.2,68.4,1172.8-43.6c119.8-51,181-52.5,181-108.8
	l67.3-62.6c0,0,71,76.8,10.1,106.6c-35.9,17.2-70.3,36.6-89.7,63.9c-79.9,113-218.3,213.8-407.5,294.7
	C1778,2780.9,1533.7,2835,1131.1,2835z"/>
<polygon fill="#FFFFFF" points="971.5,1411.1 609.5,389.5 710.8,377.4 1003.5,1331.9 "/>
<polygon fill="#FFFFFF" points="971.5,1411.1 917.9,1259.7 1203.2,729.9 1277.1,779.4 "/>
<rect x="823.1" y="1317.3" transform="matrix(-0.3551 -0.9348 0.9348 -0.3551 735.4991 3243.2456)" fill="#FFFFFF" width="1326.6" height="101.3"/>
<path fill="#FFFFFF" d="M2349.1,2363.7c-26.4,1.3-52.8,1.8-79.2,1c-92.1-3-179-19.7-259.2-49.4c-80.8-30.1-150.6-72.5-206.7-125.2
	c-58.9-55.6-106-112.1-129.7-184.2L1283.4,745l125.7,0.5c76,210.5,258.9,685.2,401,1018c72.3,169.5,129.8,308.3,165.8,344
	c128.6,127.6,166.6,139.8,242.4,159.7c75.8,20,194.6,24.3,241.3-3s-15.9,9.4,68-13.9l26.1,80.2
	C2486.3,2348.8,2417.6,2359.9,2349.1,2363.7z"/>
<path fill="#00004C" d="M2918.5,2151.2c0,95.1-77.2,172.3-172.3,172.3c-95.1,0-172.3-77.2-172.3-172.3s77.2-172.3,172.3-172.3
	C2841.2,1978.9,2918.5,2056.1,2918.5,2151.2"/>
<path fill="#FFFFFF" d="M83.8,1994.8c74.4-32.2,156.7-52.8,239.6-42c97.5,12.6,225.7,35.9,374.6,161.8
	c66,55.9,136,120.1,209.1,175.4c73.1,55.2,149.6,100.8,228.1,118.8l-3.3,425.6c-595.5,12.2-602.6,274.8-633.1,292.7"/>
<rect x="83.8" y="2063.5" fill="#FFFFFF" width="405.7" height="1063.5"/>
<path fill="#00004C" d="M1449,1763.3c-15.9-41.6-14.7-87,3.6-127.6c18-40.7,51-71.9,92.9-87.5c41.6-15.9,86.7-14.7,127.6,3.6
	c40.7,18,71.9,51,87.5,92.9l-80.5,30.4c-7.7-20.2-22.6-35.9-42.4-44.8c-19.7-8.6-41.5-9.4-61.5-1.6l0,0
	c-20.2,7.7-35.9,22.6-44.8,42.4c-8.6,19.7-9.4,41.5-1.6,61.5L1449,1763.3z"/>
<rect x="1169.6" y="740.9" fill="#FFFFFF" width="94.5" height="23.9"/>
<polygon fill="#FFFFFF" points="991.7,1349.3 678,536.3 826.5,495.6 1085.3,1178.6 "/>
<polygon fill="#FFFFFF" points="119.2,1983.2 102.1,1977.6 100.9,1724.1 119.9,1666.4 516,352.8 609.5,383.5 "/>
<path fill="#00004C" d="M905.3,2025.1c-15.9-41.6-14.7-87,3.6-127.6c18-40.7,51-71.9,92.9-87.5c41.6-15.9,86.7-14.7,127.6,3.6
	c40.7,18,71.9,51,87.5,92.9l-80.5,30.4c-7.7-20.2-22.6-35.9-42.4-44.8c-19.7-8.6-41.5-9.4-61.5-1.6l0,0
	c-20.2,7.7-35.9,22.6-44.8,42.4c-8.6,19.7-9.4,41.5-1.6,61.5L905.3,2025.1z"/>
<line fill="none" x1="1767.3" y1="1783.3" x2="850.4" y2="2136.9"/>
<polygon fill="#FFFFFF" points="682.4,1103.8 513.6,1721.4 818.4,1576.5 "/>
<line fill="none" x1="971.5" y1="1411.1" x2="119.2" y2="1983.2"/>
<g>
	<path fill="#00004C" d="M1223.9,1946.1c0,68.5-55.6,124.1-124.1,124.1s-124.1-55.6-124.1-124.1c0-68.5,55.6-124.1,124.1-124.1
		S1223.9,1877.6,1223.9,1946.1"/>
	<polygon display="none" fill="#FEBC2D" points="969.4,1929.8 1080.5,1949.8 969.4,1986.7 	"/>
	<g display="none">
		<path display="inline" fill="none" stroke="#00004C" stroke-width="22.3323" stroke-miterlimit="10" d="M1199.8,1726.8
			c1.8,56.9-42.8,104.4-99.7,106.2"/>
		<path display="inline" fill="none" stroke="#00004C" stroke-width="22.3323" stroke-miterlimit="10" d="M1289.3,1787.9
			c-19.4,53.5-78.4,81.2-132,61.8"/>
		<path display="inline" fill="none" stroke="#00004C" stroke-width="22.3323" stroke-miterlimit="10" d="M1086,1716.5
			c23.6,51.8,0.8,112.8-51,136.5"/>
	</g>
</g>
<path fill="#00004C" d="M1005.4,1163.1c0,61.5-50,111.5-111.5,111.5s-111.4-50-111.4-111.5s50-111.5,111.5-111.5
	S1005.4,1101.6,1005.4,1163.1"/>
<path fill="#00004C" d="M1334,1288c-143.2,56.9-305.5-13.1-362.4-156.4c-56.9-143.2,13.1-305.4,156.4-362.3"/>
<path fill="#00004C" d="M452.5,1034.1c143.2-56.9,305.5,13.1,362.3,156.3c56.9,143.2-13.1,305.5-156.4,362.4"/>
<g>
	<path fill="#00004C" d="M1687.8,1716.5c0,68.5-55.6,124.1-124.1,124.1c-68.5,0-124.1-55.6-124.1-124.1
		c0-68.5,55.6-124.1,124.1-124.1C1632.2,1592.4,1687.8,1648,1687.8,1716.5"/>
	<polygon display="none" fill="#FEBC2D" points="1433.3,1700.2 1544.5,1720.2 1433.3,1757.1 	"/>
	<g display="none">
		<path display="inline" fill="none" stroke="#00004C" stroke-width="22.3323" stroke-miterlimit="10" d="M1663.8,1497.2
			c1.8,56.9-42.8,104.4-99.7,106.2"/>
		<path display="inline" fill="none" stroke="#00004C" stroke-width="22.3323" stroke-miterlimit="10" d="M1753.3,1558.3
			c-19.4,53.5-78.4,81.2-132,61.8"/>
		<path display="inline" fill="none" stroke="#00004C" stroke-width="22.3323" stroke-miterlimit="10" d="M1550,1486.9
			c23.6,51.8,0.8,112.9-51,136.5"/>
	</g>
</g>
</svg>
