<?xml version="1.0" encoding="utf-8"?>
<!-- Generator: Adobe Illustrator 18.0.0, SVG Export Plug-In . SVG Version: 6.00 Build 0)  -->
<!DOCTYPE svg PUBLIC "-//W3C//DTD SVG 1.1//EN" "http://www.w3.org/Graphics/SVG/1.1/DTD/svg11.dtd">
<svg version="1.1" id="Layer_1" xmlns="http://www.w3.org/2000/svg" xmlns:xlink="http://www.w3.org/1999/xlink" x="0px" y="0px"
	 viewBox="0 0 2834.6 2834.6" enable-background="new 0 0 2834.6 2834.6" xml:space="preserve">
<polygon fill="#FFFFFF" points="601.9,1060.2 375.8,1708.2 741.2,1530.2 "/>
<polyline fill="#00004C" points="120,3094.9 120,1993.2 120,764.8 674.1,764.8 1003.5,1207.9 1307.7,764.8 2459.6,764.8 
	2459.6,3094.9 "/>
<polyline fill="#FEBC2D" points="120,3094.9 120,1978.9 609.5,383.5 953.5,1254.1 1185.8,865.6 1305.1,789.3 1506.1,1560 
	1674.5,1995.5 1982.7,2279.1 2459.6,2298 2459.6,3094.9 "/>
<polyline fill="#141449" points="120,3094.9 770.3,2821.8 2069,2514.2 2459.6,2298 2459.6,3094.9 "/>
<path fill="#FFFFFF" d="M1131.1,2835c0,0-631.5-664.7,0-426.3s910.2,68.4,1172.8-43.6c119.8-51,181-52.5,181-108.8l67.3-62.6
	c0,0,71,76.8,10.1,106.6c-35.9,17.2-70.3,36.6-89.7,63.9c-79.9,113-218.3,213.8-407.5,294.7C1778,2780.9,1533.7,2835,1131.1,2835z"
	/>
<polygon fill="#FFFFFF" points="971.5,1411.1 609.5,389.5 710.8,377.4 1003.5,1331.9 "/>
<polygon fill="#FFFFFF" points="971.5,1411.1 917.9,1259.7 1203.2,729.9 1277.1,779.4 "/>
<rect x="823.1" y="1317.3" transform="matrix(0.3551 0.9348 -0.9348 0.3551 2237.342 -507.3399)" fill="#FFFFFF" width="1326.6" height="101.3"/>
<path fill="#FFFFFF" d="M2349.1,2363.7c-26.4,1.3-52.8,1.8-79.2,1c-92.1-3-179-19.7-259.2-49.4c-80.8-30.1-150.6-72.5-206.7-125.2
	c-58.9-55.6-106-112.1-129.7-184.2L1283.4,745l125.7,0.5c76,210.5,258.9,685.2,401,1018c72.3,169.5,129.8,308.3,165.8,344
	c128.6,127.6,166.6,139.8,242.4,159.7c75.8,20,194.6,24.3,241.3-3s-15.9,9.4,68-13.9l26.1,80.2
	C2486.3,2348.8,2417.6,2359.9,2349.1,2363.7z"/>
<path fill="#00004C" d="M2918.4,2151.2c0,95.1-77.2,172.3-172.3,172.3c-95.1,0-172.3-77.2-172.3-172.3
	c0-95.1,77.2-172.3,172.3-172.3C2841.2,1978.9,2918.4,2056.1,2918.4,2151.2"/>
<path fill="#FFFFFF" d="M83.8,1994.8c74.4-32.2,156.7-52.8,239.6-42c97.5,12.6,225.7,35.9,374.6,161.8
	c66,55.9,136,120.1,209.1,175.4c73.1,55.2,149.6,100.8,228.1,118.8l-3.3,425.6c-595.5,12.2-602.6,274.8-633.1,292.7"/>
<rect x="83.8" y="2063.5" fill="#FFFFFF" width="405.7" height="1063.5"/>
<path fill="#00004C" d="M1591.5,1836.4c-44.5,1.1-86.9-15.1-119.1-45.9c-32.4-30.5-50.8-72.1-51.5-116.8
	c-1.1-44.5,15-86.6,45.9-119.1c30.5-32.4,72.1-50.8,116.8-51.5l1.8,86c-21.6,0.5-41.4,9.3-56.4,25c-14.7,15.7-22.7,36-22,57.4l0,0
	c0.5,21.6,9.3,41.4,25,56.4c15.7,14.7,36,22.7,57.4,22L1591.5,1836.4z"/>
<rect x="1169.6" y="740.9" fill="#FFFFFF" width="94.5" height="23.9"/>
<polygon fill="#FFFFFF" points="991.7,1349.3 678,536.3 826.5,495.6 1085.3,1178.6 "/>
<polygon fill="#FFFFFF" points="119.2,1983.2 102.1,1977.6 100.9,1724.1 119.9,1666.4 516,352.8 609.5,383.5 "/>
<line fill="none" x1="1767.3" y1="1783.3" x2="850.4" y2="2136.9"/>
<polygon fill="#FFFFFF" points="682.4,1103.8 513.6,1721.4 818.4,1576.5 "/>
<line fill="none" x1="971.5" y1="1411.1" x2="119.2" y2="1983.2"/>
<path fill="#00004C" d="M1005.4,1163.1c0,61.5-50,111.5-111.5,111.5s-111.4-50-111.4-111.5s50-111.5,111.5-111.5
	S1005.4,1101.6,1005.4,1163.1"/>
<path fill="#00004C" d="M1334,1288c-143.2,56.9-305.5-13.1-362.4-156.4c-56.9-143.2,13.1-305.4,156.4-362.3"/>
<path fill="#00004C" d="M452.5,1034.1c143.2-56.9,305.5,13.1,362.3,156.3c56.9,143.2-13.1,305.5-156.4,362.4"/>
<g>
	<path fill="#00004C" d="M1627,1595.7c64.6,22.8,98.5,93.8,75.6,158.4c-22.8,64.6-93.8,98.5-158.4,75.6
		c-64.6-22.8-98.5-93.8-75.6-158.4C1491.5,1606.7,1562.4,1572.8,1627,1595.7"/>
	<polygon display="none" fill="#FEBC2D" points="1526.8,1830.2 1582.7,1732 1580.4,1849.1 	"/>
	<g display="none">
		<path display="inline" fill="none" stroke="#00004C" stroke-width="22.3323" stroke-miterlimit="10" d="M1412.2,1545.2
			c54.2,17.3,84.2,75.2,66.9,129.4"/>
		<path display="inline" fill="none" stroke="#00004C" stroke-width="22.3323" stroke-miterlimit="10" d="M1499.7,1481.2
			c44,36.1,50.4,101,14.3,145.1"/>
		<path display="inline" fill="none" stroke="#00004C" stroke-width="22.3323" stroke-miterlimit="10" d="M1364.6,1649
			c56.7-5,106.7,36.9,111.7,93.6"/>
	</g>
</g>
<path fill="#00004C" d="M1120.9,2094.4c-44.5,1.1-86.9-15.1-119.1-45.9c-32.4-30.5-50.8-72.1-51.5-116.8
	c-1.1-44.5,15-86.6,45.9-119.1c30.5-32.4,72.1-50.8,116.8-51.5l1.8,86c-21.6,0.5-41.4,9.3-56.4,25c-14.7,15.7-22.7,36-22,57.4l0,0
	c0.5,21.6,9.3,41.4,25,56.4c15.7,14.7,36,22.7,57.4,22L1120.9,2094.4z"/>
<g>
	<path fill="#00004C" d="M1156.4,1853.7c64.6,22.8,98.5,93.8,75.6,158.4c-22.8,64.6-93.8,98.5-158.4,75.6
		c-64.6-22.8-98.5-93.8-75.6-158.4C1020.8,1864.7,1091.8,1830.8,1156.4,1853.7"/>
	<polygon display="none" fill="#FEBC2D" points="1056.2,2088.2 1112.1,1990 1109.8,2107.1 	"/>
	<g display="none">
		<path display="inline" fill="none" stroke="#00004C" stroke-width="22.3323" stroke-miterlimit="10" d="M941.6,1803.2
			c54.2,17.3,84.2,75.2,66.9,129.4"/>
		<path display="inline" fill="none" stroke="#00004C" stroke-width="22.3323" stroke-miterlimit="10" d="M1029.1,1739.2
			c44,36.1,50.4,101,14.3,145.1"/>
		<path display="inline" fill="none" stroke="#00004C" stroke-width="22.3323" stroke-miterlimit="10" d="M894,1907
			c56.7-5,106.7,36.9,111.7,93.6"/>
	</g>
</g>
</svg>
