<?xml version="1.0" encoding="utf-8"?>
<!-- Generator: Adobe Illustrator 18.0.0, SVG Export Plug-In . SVG Version: 6.00 Build 0)  -->
<!DOCTYPE svg PUBLIC "-//W3C//DTD SVG 1.1//EN" "http://www.w3.org/Graphics/SVG/1.1/DTD/svg11.dtd">
<svg version="1.1" id="Layer_1" xmlns="http://www.w3.org/2000/svg" xmlns:xlink="http://www.w3.org/1999/xlink" x="0px" y="0px"
	 viewBox="83.8 292.4 2834.6 2774.3" enable-background="new 83.8 292.4 2834.6 2774.3" xml:space="preserve">
<polygon fill="#FFFFFF" points="601.9,999.8 375.8,1647.8 741.2,1469.8 "/>
<polyline fill="#00004C" points="120,3034.5 120,1932.8 120,704.4 674.1,704.4 1003.5,1147.5 1307.7,704.4 2459.6,704.4 
	2459.6,3034.5 "/>
<polyline fill="#FEBC2D" points="120,3034.5 120,1918.5 609.5,323.1 953.5,1193.7 1185.8,805.2 1305.1,728.9 1506.1,1499.6 
	1674.5,1935.1 1982.7,2218.7 2459.6,2237.6 2459.6,3034.5 "/>
<polyline fill="#141449" points="120,3034.5 770.3,2761.4 2069,2453.8 2459.6,2237.6 2459.6,3034.5 "/>
<path fill="#FFFFFF" d="M1131.1,2774.6c0,0-631.5-664.7,0-426.3s910.2,68.4,1172.8-43.6c119.8-51,181-52.5,181-108.8l67.3-62.6
	c0,0,71,76.8,10.1,106.6c-35.9,17.2-70.3,36.6-89.7,63.9c-79.9,113-218.3,213.8-407.5,294.7
	C1778,2720.5,1533.7,2774.6,1131.1,2774.6z"/>
<polygon fill="#FFFFFF" points="971.5,1350.7 609.5,329.1 710.8,317 1003.5,1271.5 "/>
<polygon fill="#FFFFFF" points="971.5,1350.7 917.9,1199.3 1203.2,669.5 1277.1,719 "/>
<rect x="823" y="1256.9" transform="matrix(0.3551 0.9348 -0.9348 0.3551 2180.8196 -546.1646)" fill="#FFFFFF" width="1326.6" height="101.3"/>
<path fill="#FFFFFF" d="M2349.1,2303.3c-26.4,1.3-52.8,1.8-79.2,1c-92.1-3-179-19.7-259.2-49.4c-80.8-30.1-150.6-72.5-206.7-125.2
	c-58.9-55.6-106-112.1-129.7-184.2L1283.4,684.6l125.7,0.5c76,210.5,258.9,685.2,401,1018c72.3,169.5,129.8,308.3,165.8,344
	c128.6,127.6,166.6,139.8,242.4,159.7c75.8,20,194.6,24.3,241.3-3s-15.9,9.4,68-13.9l26.1,80.2
	C2486.3,2288.4,2417.6,2299.5,2349.1,2303.3z"/>
<path fill="#00004C" d="M2918.4,2090.8c0,95.1-77.2,172.3-172.3,172.3c-95.1,0-172.3-77.2-172.3-172.3
	c0-95.1,77.2-172.3,172.3-172.3C2841.2,1918.5,2918.4,1995.7,2918.4,2090.8"/>
<path fill="#FFFFFF" d="M83.8,1934.4c74.4-32.2,156.7-52.8,239.6-42c97.5,12.6,225.7,35.9,374.6,161.8
	c66,55.9,136,120.1,209.1,175.4c73.1,55.2,149.6,100.8,228.1,118.8l-3.3,425.6c-595.5,12.2-602.6,274.8-633.1,292.7"/>
<rect x="83.8" y="2003.1" fill="#FFFFFF" width="405.7" height="1063.5"/>
<path fill="#141449" d="M1425.7,1751.5c-15.9-41.6-14.7-87,3.6-127.6c18-40.7,51-71.9,92.9-87.5c41.6-15.9,86.7-14.7,127.6,3.6
	c40.7,18,71.9,51,87.5,92.9l-80.5,30.4c-7.7-20.2-22.6-35.9-42.4-44.8c-19.7-8.6-41.5-9.4-61.5-1.6l0,0
	c-20.2,7.7-35.9,22.6-44.8,42.4c-8.6,19.7-9.4,41.5-1.6,61.5L1425.7,1751.5z"/>
<rect x="1169.6" y="680.5" fill="#FFFFFF" width="94.5" height="23.9"/>
<g>
	<path fill="#00004C" d="M2682.3,305.4h-49.9v-13h114.8v13h-49.9v128.9h-15L2682.3,305.4L2682.3,305.4z"/>
	<path fill="#00004C" d="M2918.4,292.4v141.9H2904V320.8l-55.8,95.5h-7.1l-55.8-94.9v112.9h-14.4V292.4h12.4l61.7,105.2l61-105.2
		H2918.4L2918.4,292.4z"/>
</g>
<polygon fill="#FFFFFF" points="991.7,1288.9 678,475.9 826.5,435.2 1085.3,1118.2 "/>
<polygon fill="#FFFFFF" points="119.2,1922.8 102.1,1917.2 100.9,1663.7 119.9,1606 516,292.4 609.5,323.1 "/>
<path fill="#141449" d="M925.4,1945.9c-15.9-41.6-14.7-87,3.6-127.6c18-40.7,51-71.9,92.9-87.5c41.6-15.9,86.7-14.7,127.6,3.6
	c40.7,18,71.9,51,87.5,92.9l-80.5,30.4c-7.7-20.2-22.6-35.9-42.4-44.8c-19.7-8.6-41.5-9.4-61.5-1.6l0,0
	c-20.2,7.7-35.9,22.6-44.8,42.4c-8.6,19.7-9.4,41.5-1.6,61.5L925.4,1945.9z"/>
<line fill="none" x1="1767.3" y1="1722.9" x2="850.4" y2="2076.5"/>
<polygon fill="#FFFFFF" points="682.4,1043.4 513.6,1661 818.4,1516.1 "/>
<line fill="none" x1="971.5" y1="1350.7" x2="119.2" y2="1922.8"/>
<path fill="#00004C" d="M1253.5,1889.5c0,95.1-77.2,172.3-172.3,172.3s-172.3-77.2-172.3-172.3c0-95.1,77.2-172.3,172.3-172.3
	S1253.5,1794.4,1253.5,1889.5"/>
<polygon fill="#FEBC2D" points="900.2,1866.9 1054.5,1894.7 900.2,1945.9 "/>
<path fill="none" stroke="#00004C" stroke-width="31" stroke-miterlimit="10" d="M1220,1585.1c2.5,79-59.4,145-138.4,147.5"/>
<path fill="none" stroke="#00004C" stroke-width="31" stroke-miterlimit="10" d="M1344.3,1670c-26.9,74.3-108.8,112.7-183.2,85.8"/>
<path fill="none" stroke="#00004C" stroke-width="31" stroke-miterlimit="10" d="M1062.1,1570.9c32.8,71.9,1,156.7-70.9,189.4"/>
<path fill="#00004C" d="M1755.8,1697.1c0,95.1-77.2,172.3-172.3,172.3s-172.3-77.2-172.3-172.3c0-95.1,77.2-172.3,172.3-172.3
	S1755.8,1602,1755.8,1697.1"/>
<polyline fill="#FEBC2D" points="1402.4,1753.5 1402.4,1674.5 1556.8,1702.3 "/>
<path fill="none" stroke="#00004C" stroke-width="31" stroke-miterlimit="10" d="M1722.3,1392.7c2.5,79-59.4,145-138.4,147.5"/>
<path fill="none" stroke="#00004C" stroke-width="31" stroke-miterlimit="10" d="M1846.6,1477.6c-26.9,74.3-108.8,112.7-183.2,85.8"
	/>
<path fill="none" stroke="#00004C" stroke-width="31" stroke-miterlimit="10" d="M1564.3,1378.5c32.8,71.9,1,156.7-70.9,189.4"/>
<polygon fill="#00004C" points="933.6,929 809.8,1077.7 686.1,1226.3 619.2,1044.8 522.3,733.3 "/>
<polygon fill="#00004C" points="886.7,945 1104.3,517.6 1201.2,829.1 1268.1,1010.7 1077.4,977.8 "/>
<path fill="#00004C" d="M982.3,927c0,42.6-34.6,77.2-77.2,77.2S828,969.6,828,927s34.6-77.2,77.2-77.2S982.3,884.4,982.3,927"/>
</svg>
