<?xml version="1.0" encoding="utf-8"?>
<!-- Generator: Adobe Illustrator 18.0.0, SVG Export Plug-In . SVG Version: 6.00 Build 0)  -->
<!DOCTYPE svg PUBLIC "-//W3C//DTD SVG 1.1//EN" "http://www.w3.org/Graphics/SVG/1.1/DTD/svg11.dtd">
<svg version="1.1" id="Layer_1" xmlns="http://www.w3.org/2000/svg" xmlns:xlink="http://www.w3.org/1999/xlink" x="0px" y="0px"
	 viewBox="83.8 262.2 2834.6 2774.3" enable-background="new 83.8 262.2 2834.6 2774.3" xml:space="preserve">
<polygon fill="#FFFFFF" points="601.9,969.6 375.8,1617.6 741.2,1439.6 "/>
<polyline fill="#00004C" points="120,3004.3 120,1902.6 120,674.2 1226.8,674.2 2459.6,674.2 2459.6,3004.3 "/>
<polyline fill="#FEBC2D" points="120,3004.3 120,1888.3 609.5,292.9 953.5,1163.5 1185.8,775 1305.1,698.7 1506.1,1469.4 
	1674.5,1904.9 1982.7,2188.5 2459.6,2207.4 2459.6,3004.3 "/>
<polyline fill="#141449" points="120,3004.3 770.3,2731.2 2069,2423.6 2459.6,2207.4 2459.6,3004.3 "/>
<path fill="#FFFFFF" d="M1131.1,2744.4c0,0-631.5-664.7,0-426.3c631.5,238.4,910.2,68.4,1172.8-43.6c119.8-51,181-52.5,181-108.8
	l67.3-62.6c0,0,71,76.8,10.1,106.6c-35.9,17.2-70.3,36.6-89.7,63.9c-79.9,113-218.3,213.8-407.5,294.7
	C1778,2690.3,1533.7,2744.4,1131.1,2744.4z"/>
<polygon fill="#FFFFFF" points="971.5,1320.5 609.5,298.9 710.8,286.8 1003.5,1241.3 "/>
<polygon fill="#FFFFFF" points="971.5,1320.5 917.9,1169.1 1203.2,639.3 1277.1,688.8 "/>
<rect x="822.9" y="1226.7" transform="matrix(-0.3551 -0.9348 0.9348 -0.3551 819.9243 3120.2795)" fill="#FFFFFF" width="1326.6" height="101.3"/>
<path fill="#FFFFFF" d="M2349.1,2273.1c-26.4,1.3-52.8,1.8-79.2,1c-92.1-3-179-19.7-259.2-49.4c-80.8-30.1-150.6-72.5-206.7-125.2
	c-58.9-55.6-106-112.1-129.7-184.2L1283.4,654.4l125.7,0.5c76,210.5,258.9,685.2,401,1018c72.3,169.5,129.8,308.3,165.8,344
	c128.6,127.6,166.6,139.8,242.4,159.7c75.8,20,194.6,24.3,241.3-3s-15.9,9.4,68-13.9l26.1,80.2
	C2486.3,2258.2,2417.6,2269.3,2349.1,2273.1z"/>
<path fill="#141449" d="M2918.4,2060.6c0,95.1-77.2,172.3-172.3,172.3c-95.1,0-172.3-77.2-172.3-172.3
	c0-95.1,77.2-172.3,172.3-172.3C2841.2,1888.3,2918.4,1965.5,2918.4,2060.6"/>
<path fill="#FFFFFF" d="M83.8,1904.2c74.4-32.2,156.7-52.8,239.6-42c97.5,12.6,225.7,35.9,374.6,161.8
	c66,55.9,136,120.1,209.1,175.4c73.1,55.2,149.6,100.8,228.1,118.8l-3.3,425.6c-595.5,12.2-602.6,274.8-633.1,292.7"/>
<rect x="83.8" y="1972.9" fill="#FFFFFF" width="405.7" height="1063.5"/>
<path fill="#141449" d="M1425.7,1721.3c-15.9-41.6-14.7-87,3.6-127.6c18-40.7,51-71.9,92.9-87.5c41.6-15.9,86.7-14.7,127.6,3.6
	c40.7,18,71.9,51,87.5,92.9l-80.5,30.4c-7.7-20.2-22.6-35.9-42.4-44.8c-19.7-8.6-41.5-9.4-61.5-1.6l0,0
	c-20.2,7.7-35.9,22.6-44.8,42.4c-8.6,19.7-9.4,41.5-1.6,61.5L1425.7,1721.3z"/>
<rect x="1169.6" y="650.3" fill="#FFFFFF" width="94.5" height="23.9"/>
<g>
	<path fill="#00004C" d="M2682.3,275.2h-49.9v-13h114.8v13h-49.9v128.9h-15L2682.3,275.2L2682.3,275.2z"/>
	<path fill="#00004C" d="M2918.4,262.2v141.9H2904V290.6l-55.8,95.5h-7.1l-55.8-94.9v112.9h-14.4V262.2h12.4l61.7,105.2l61-105.2
		L2918.4,262.2L2918.4,262.2z"/>
</g>
<polygon fill="#FFFFFF" points="991.7,1258.7 678,445.7 826.5,405 1085.3,1088 "/>
<polygon fill="#FFFFFF" points="119.2,1892.6 102.1,1887 100.9,1633.5 119.9,1575.8 516,262.2 609.5,292.9 "/>
<path fill="#141449" d="M925.4,1915.7c-15.9-41.6-14.7-87,3.6-127.6c18-40.7,51-71.9,92.9-87.5c41.6-15.9,86.7-14.7,127.6,3.6
	c40.7,18,71.9,51,87.5,92.9l-80.5,30.4c-7.7-20.2-22.6-35.9-42.4-44.8c-19.7-8.6-41.5-9.4-61.5-1.6l0,0
	c-20.2,7.7-35.9,22.6-44.8,42.4c-8.6,19.7-9.4,41.5-1.6,61.5L925.4,1915.7z"/>
<line fill="none" x1="1767.3" y1="1692.7" x2="850.4" y2="2046.3"/>
<polygon fill="#FFFFFF" points="682.4,1013.2 513.6,1630.8 818.4,1485.9 "/>
<line fill="none" x1="971.5" y1="1320.5" x2="119.2" y2="1892.6"/>
</svg>
