<?xml version="1.0" encoding="utf-8"?>
<!-- Generator: Adobe Illustrator 18.0.0, SVG Export Plug-In . SVG Version: 6.00 Build 0)  -->
<!DOCTYPE svg PUBLIC "-//W3C//DTD SVG 1.1//EN" "http://www.w3.org/Graphics/SVG/1.1/DTD/svg11.dtd">
<svg version="1.1" id="Layer_1" xmlns="http://www.w3.org/2000/svg" xmlns:xlink="http://www.w3.org/1999/xlink" x="0px" y="0px"
	 viewBox="83.8 352.8 2834.6 2774.3" enable-background="new 83.8 352.8 2834.6 2774.3" xml:space="preserve">
<polygon fill="#FFFFFF" points="880.6,1270.9 724.6,1718.1 976.8,1595.2 "/>
<polyline fill="#00004C" points="548.1,2674.9 548.1,1914.7 548.1,1067.1 930.5,1067.1 1157.8,1372.8 1367.7,1067.1 2162.5,1067.1 
	2162.5,2674.9 "/>
<polyline fill="#FEBC2D" points="548.1,2674.9 548.1,1904.9 885.9,804 1123.3,1404.7 1283.6,1136.7 1365.9,1084 1504.6,1615.8 
	1620.8,1916.3 1833.4,2112 2162.5,2125.1 2162.5,2674.9 "/>
<polyline fill="#141449" points="548.1,2674.9 996.9,2486.5 1893,2274.2 2162.5,2125.1 2162.5,2674.9 "/>
<path fill="#FFFFFF" d="M1245.8,2495.6c0,0-435.8-458.7,0-294.2c435.8,164.5,628.1,47.2,809.3-30.1c82.7-35.2,124.9-36.2,124.9-75.1
	l46.4-43.2c0,0,49,53,7,73.6c-24.8,11.9-48.5,25.3-61.9,44.1c-55.1,78-150.6,147.5-281.2,203.4
	C1692.2,2458.3,1523.6,2495.6,1245.8,2495.6z"/>
<polygon fill="#FFFFFF" points="1135.7,1513.1 885.9,808.1 955.8,799.8 1157.8,1458.4 "/>
<polygon fill="#FFFFFF" points="1135.7,1513.1 1098.7,1408.6 1295.6,1043 1346.6,1077.2 "/>
<rect x="1033.3" y="1448.3" transform="matrix(-0.3551 -0.9348 0.9348 -0.3551 633.8615 3403.7864)" fill="#FFFFFF" width="915.4" height="69.9"/>
<path fill="#FFFFFF" d="M2086.3,2170.4c-18.2,0.9-36.4,1.2-54.7,0.7c-63.6-2.1-123.5-13.6-178.9-34.1
	c-55.8-20.8-103.9-50-142.6-86.4c-40.6-38.4-73.1-77.4-89.5-127.1l-269.7-870.1l86.7,0.3c52.4,145.3,178.6,472.8,276.7,702.5
	c49.9,117,89.6,212.7,114.4,237.4c88.7,88,115,96.5,167.3,110.2c52.3,13.8,134.3,16.8,166.5-2.1c32.2-18.8-11,6.5,46.9-9.6l18,55.3
	C2180.9,2160.1,2133.5,2167.8,2086.3,2170.4z"/>
<path fill="#00004C" d="M2479.1,2023.8c0,65.6-53.3,118.9-118.9,118.9c-65.6,0-118.9-53.3-118.9-118.9
	c0-65.6,53.3-118.9,118.9-118.9C2425.8,1904.9,2479.1,1958.1,2479.1,2023.8"/>
<path fill="#FFFFFF" d="M523.1,1915.8c51.3-22.2,108.1-36.4,165.3-29c67.3,8.7,155.7,24.8,258.5,111.6
	c45.5,38.6,93.8,82.9,144.3,121c50.4,38.1,103.2,69.6,157.4,82l-2.3,293.7c-410.9,8.4-415.8,189.6-436.9,202"/>
<rect x="523.1" y="1963.2" fill="#FFFFFF" width="279.9" height="733.8"/>
<rect x="1272.4" y="1050.6" fill="#FFFFFF" width="65.2" height="16.5"/>
<polygon fill="#FFFFFF" points="1149.6,1470.4 933.2,909.4 1035.6,881.3 1214.2,1352.6 "/>
<polygon fill="#FFFFFF" points="547.6,1907.8 535.8,1904 534.9,1729 548.1,1689.2 821.4,782.8 885.9,804 "/>
<line fill="none" x1="1684.8" y1="1769.9" x2="1052.1" y2="2013.9"/>
<polygon fill="#FFFFFF" points="936.2,1301 819.7,1727.2 1030,1627.2 "/>
<line fill="none" x1="1135.7" y1="1513.1" x2="547.6" y2="1907.8"/>
<g>
	<path fill="#00004C" d="M1309.8,1882.2c0,47.3-38.4,85.6-85.6,85.6c-47.3,0-85.6-38.4-85.6-85.6c0-47.3,38.4-85.6,85.6-85.6
		C1271.5,1796.6,1309.8,1835,1309.8,1882.2"/>
	<polygon display="none" fill="#FEBC2D" points="1134.2,1871 1210.9,1884.8 1134.2,1910.2 	"/>
	<g display="none">
		<path display="inline" fill="none" stroke="#00004C" stroke-width="15.4098" stroke-miterlimit="10" d="M1293.2,1730.9
			c1.2,39.3-29.5,72-68.8,73.3"/>
		<path display="inline" fill="none" stroke="#00004C" stroke-width="15.4098" stroke-miterlimit="10" d="M1355,1773.1
			c-13.4,36.9-54.1,56-91.1,42.6"/>
		<path display="inline" fill="none" stroke="#00004C" stroke-width="15.4098" stroke-miterlimit="10" d="M1214.7,1723.8
			c16.3,35.7,0.6,77.8-35.2,94.2"/>
	</g>
</g>
<path fill="#00004C" d="M1159.1,1341.9c0,42.4-34.5,76.9-76.9,76.9s-76.9-34.5-76.9-76.9s34.5-76.9,76.9-76.9
	S1159.1,1299.5,1159.1,1341.9"/>
<path fill="#00004C" d="M1385.8,1428.1c-98.8,39.3-210.8-9-250.1-107.9c-39.3-98.8,9-210.7,107.9-250"/>
<path fill="#00004C" d="M777.6,1252.9c98.8-39.3,210.8,9,250,107.9c39.3,98.8-9,210.8-107.9,250.1"/>
<g>
	<path fill="#00004C" d="M1630,1723.8c0,47.3-38.4,85.6-85.6,85.6s-85.6-38.4-85.6-85.6c0-47.3,38.4-85.6,85.6-85.6
		S1630,1676.5,1630,1723.8"/>
	<polygon display="none" fill="#FEBC2D" points="1454.3,1712.6 1531.1,1726.4 1454.3,1751.8 	"/>
	<g display="none">
		<path display="inline" fill="none" stroke="#00004C" stroke-width="15.4098" stroke-miterlimit="10" d="M1613.4,1572.5
			c1.2,39.3-29.5,72-68.8,73.3"/>
		<path display="inline" fill="none" stroke="#00004C" stroke-width="15.4098" stroke-miterlimit="10" d="M1675.2,1614.6
			c-13.4,36.9-54.1,56-91.1,42.6"/>
		<path display="inline" fill="none" stroke="#00004C" stroke-width="15.4098" stroke-miterlimit="10" d="M1534.9,1565.4
			c16.3,35.7,0.6,77.9-35.2,94.2"/>
	</g>
</g>
<path fill="#00004C" d="M1198.5,1801c12.8,34-4.5,72-38.6,84.7c-34,12.8-72-4.5-84.8-38.6"/>
<path fill="#00004C" d="M1637.8,1597.4c12.8,34-4.5,72-38.6,84.7c-34,12.8-72-4.5-84.8-38.6"/>
</svg>
