<?xml version="1.0" encoding="utf-8"?>
<!-- Generator: Adobe Illustrator 18.0.0, SVG Export Plug-In . SVG Version: 6.00 Build 0)  -->
<!DOCTYPE svg PUBLIC "-//W3C//DTD SVG 1.1//EN" "http://www.w3.org/Graphics/SVG/1.1/DTD/svg11.dtd">
<svg version="1.1" id="Layer_1" xmlns="http://www.w3.org/2000/svg" xmlns:xlink="http://www.w3.org/1999/xlink" x="0px" y="0px"
	 viewBox="0 0 2834.6 2834.6" enable-background="new 0 0 2834.6 2834.6" xml:space="preserve">
<polygon fill="#FFFFFF" points="880.6,1301.1 724.6,1748.3 976.8,1625.4 "/>
<polyline fill="#00004C" points="548.1,2705.1 548.1,1944.9 548.1,1097.3 930.5,1097.3 1157.8,1403 1367.7,1097.3 2162.5,1097.3 
	2162.5,2705.1 "/>
<polyline fill="#FEBC2D" points="548.1,2705.1 548.1,1935.1 885.9,834.2 1123.3,1434.9 1283.6,1166.9 1365.9,1114.2 1504.6,1646 
	1620.8,1946.5 1833.4,2142.2 2162.5,2155.3 2162.5,2705.1 "/>
<polyline fill="#141449" points="548.1,2705.1 996.9,2516.7 1893,2304.4 2162.5,2155.3 2162.5,2705.1 "/>
<path fill="#FFFFFF" d="M1245.8,2525.8c0,0-435.8-458.7,0-294.2s628.1,47.2,809.3-30.1c82.7-35.2,124.9-36.2,124.9-75.1l46.4-43.2
	c0,0,49,53,7,73.6c-24.8,11.9-48.5,25.3-61.9,44.1c-55.1,78-150.6,147.5-281.2,203.4C1692.2,2488.5,1523.6,2525.8,1245.8,2525.8z"/>
<polygon fill="#FFFFFF" points="1135.7,1543.3 885.9,838.3 955.8,830 1157.8,1488.6 "/>
<polygon fill="#FFFFFF" points="1135.7,1543.3 1098.7,1438.8 1295.6,1073.2 1346.6,1107.4 "/>
<rect x="1033.3" y="1478.5" transform="matrix(0.3551 0.9348 -0.9348 0.3551 2376.3425 -417.7785)" fill="#FFFFFF" width="915.4" height="69.9"/>
<path fill="#FFFFFF" d="M2086.3,2200.6c-18.2,0.9-36.4,1.2-54.7,0.7c-63.6-2.1-123.5-13.6-178.9-34.1
	c-55.8-20.8-103.9-50-142.6-86.4c-40.6-38.4-73.1-77.4-89.5-127.1l-269.7-870.1l86.7,0.3c52.4,145.3,178.6,472.8,276.7,702.5
	c49.9,117,89.6,212.7,114.4,237.4c88.7,88,115,96.5,167.3,110.2c52.3,13.8,134.3,16.8,166.5-2.1c32.2-18.8-11,6.5,46.9-9.6l18,55.3
	C2180.9,2190.3,2133.5,2198,2086.3,2200.6z"/>
<path fill="#00004C" d="M2479.1,2054c0,65.6-53.3,118.9-118.9,118.9c-65.6,0-118.9-53.3-118.9-118.9c0-65.6,53.3-118.9,118.9-118.9
	C2425.8,1935.1,2479.1,1988.3,2479.1,2054"/>
<path fill="#FFFFFF" d="M523.1,1946c51.3-22.2,108.1-36.4,165.3-29c67.3,8.7,155.7,24.8,258.5,111.6c45.5,38.6,93.8,82.9,144.3,121
	c50.4,38.1,103.2,69.6,157.4,82l-2.3,293.7c-410.9,8.4-415.8,189.6-436.9,202"/>
<rect x="523.1" y="1993.4" fill="#FFFFFF" width="279.9" height="733.8"/>
<rect x="1272.4" y="1080.8" fill="#FFFFFF" width="65.2" height="16.5"/>
<polygon fill="#FFFFFF" points="1149.6,1500.6 933.2,939.6 1035.6,911.5 1214.2,1382.8 "/>
<polygon fill="#FFFFFF" points="547.6,1938 535.8,1934.2 534.9,1759.2 548.1,1719.4 821.4,813 885.9,834.2 "/>
<line fill="none" x1="1684.8" y1="1800.1" x2="1052.1" y2="2044.1"/>
<polygon fill="#FFFFFF" points="936.2,1331.2 819.7,1757.4 1030,1657.4 "/>
<line fill="none" x1="1135.7" y1="1543.3" x2="547.6" y2="1938"/>
<g>
	<path fill="#00004C" d="M1309.8,1912.4c0,47.3-38.4,85.6-85.6,85.6c-47.3,0-85.6-38.4-85.6-85.6c0-47.3,38.4-85.6,85.6-85.6
		C1271.5,1826.8,1309.8,1865.2,1309.8,1912.4"/>
	<polygon display="none" fill="#FEBC2D" points="1134.2,1901.2 1210.9,1915 1134.2,1940.4 	"/>
	<g display="none">
		<path display="inline" fill="none" stroke="#00004C" stroke-width="15.4098" stroke-miterlimit="10" d="M1293.2,1761.1
			c1.2,39.3-29.5,72-68.8,73.3"/>
		<path display="inline" fill="none" stroke="#00004C" stroke-width="15.4098" stroke-miterlimit="10" d="M1355,1803.3
			c-13.4,36.9-54.1,56-91.1,42.6"/>
		<path display="inline" fill="none" stroke="#00004C" stroke-width="15.4098" stroke-miterlimit="10" d="M1214.7,1754
			c16.3,35.7,0.6,77.8-35.2,94.2"/>
	</g>
</g>
<path fill="#00004C" d="M1159.1,1372.1c0,42.4-34.5,76.9-76.9,76.9s-76.9-34.5-76.9-76.9s34.5-76.9,76.9-76.9
	S1159.1,1329.7,1159.1,1372.1"/>
<path fill="#00004C" d="M1385.8,1458.3c-98.8,39.3-210.8-9-250.1-107.9c-39.3-98.8,9-210.7,107.9-250"/>
<path fill="#00004C" d="M777.6,1283.1c98.8-39.3,210.8,9,250,107.9c39.3,98.8-9,210.8-107.9,250.1"/>
<g>
	<path fill="#00004C" d="M1630,1754c0,47.3-38.4,85.6-85.6,85.6c-47.2,0-85.6-38.4-85.6-85.6c0-47.3,38.4-85.6,85.6-85.6
		C1591.6,1668.4,1630,1706.7,1630,1754"/>
	<polygon display="none" fill="#FEBC2D" points="1454.3,1742.8 1531.1,1756.6 1454.3,1782 	"/>
	<g display="none">
		<path display="inline" fill="none" stroke="#00004C" stroke-width="15.4098" stroke-miterlimit="10" d="M1613.4,1602.7
			c1.2,39.3-29.5,72-68.8,73.3"/>
		<path display="inline" fill="none" stroke="#00004C" stroke-width="15.4098" stroke-miterlimit="10" d="M1675.2,1644.8
			c-13.4,36.9-54.1,56-91.1,42.6"/>
		<path display="inline" fill="none" stroke="#00004C" stroke-width="15.4098" stroke-miterlimit="10" d="M1534.9,1595.6
			c16.3,35.7,0.6,77.9-35.2,94.2"/>
	</g>
</g>
<path fill="#00004C" d="M1198.5,1831.2c12.8,34-4.5,72-38.6,84.7c-34,12.8-72-4.5-84.8-38.6"/>
<path fill="#00004C" d="M1637.8,1627.6c12.8,34-4.5,72-38.6,84.7c-34,12.8-72-4.5-84.8-38.6"/>
<polygon fill="#FEBC2D" points="1139,1963.2 1139,1920.1 1200.1,1915 "/>
<polygon fill="#FEBC2D" points="1458.8,1813.4 1458.8,1770.2 1520,1765.1 "/>
</svg>
