<?xml version="1.0" encoding="utf-8"?>
<!-- Generator: Adobe Illustrator 18.0.0, SVG Export Plug-In . SVG Version: 6.00 Build 0)  -->
<!DOCTYPE svg PUBLIC "-//W3C//DTD SVG 1.1//EN" "http://www.w3.org/Graphics/SVG/1.1/DTD/svg11.dtd">
<svg version="1.1" id="Layer_1" xmlns="http://www.w3.org/2000/svg" xmlns:xlink="http://www.w3.org/1999/xlink" x="0px" y="0px"
	 viewBox="1363.6 1472.2 716.1 364.6" enable-background="new 1363.6 1472.2 716.1 364.6" xml:space="preserve">
<path fill="#00004C" d="M1591.5,1836.4c-44.5,1.1-86.9-15.1-119.1-45.9c-32.4-30.5-50.8-72.1-51.5-116.8
	c-1.1-44.5,15-86.6,45.9-119.1c30.5-32.4,72.1-50.8,116.8-51.5l1.8,86c-21.6,0.5-41.4,9.3-56.4,25c-14.7,15.7-22.7,36-22,57.4l0,0
	c0.5,21.6,9.3,41.4,25,56.4c15.7,14.7,36,22.7,57.4,22L1591.5,1836.4z"/>
<g>
	<path fill="#00004C" d="M1627,1595.7c64.6,22.8,98.5,93.8,75.6,158.4s-93.8,98.5-158.4,75.6s-98.5-93.8-75.6-158.4
		S1562.4,1572.8,1627,1595.7"/>
	<polygon display="none" fill="#FEBC2D" points="1526.8,1830.2 1582.7,1732 1580.4,1849.1 	"/>
	<g display="none">
		<path display="inline" fill="none" stroke="#00004C" stroke-width="22.3323" stroke-miterlimit="10" d="M1412.2,1545.2
			c54.2,17.3,84.2,75.2,66.9,129.4"/>
		<path display="inline" fill="none" stroke="#00004C" stroke-width="22.3323" stroke-miterlimit="10" d="M1499.7,1481.2
			c44,36.1,50.4,101,14.3,145.1"/>
		<path display="inline" fill="none" stroke="#00004C" stroke-width="22.3323" stroke-miterlimit="10" d="M1364.6,1649
			c56.7-5,106.7,36.9,111.7,93.6"/>
	</g>
</g>
<path fill="#00004C" d="M1961.5,1836c-44.5,1.1-86.9-15.1-119.1-45.9c-32.4-30.5-50.8-72.1-51.5-116.8c-1.1-44.5,15-86.6,45.9-119.1
	c30.5-32.4,72.1-50.8,116.8-51.5l1.8,86c-21.6,0.5-41.4,9.3-56.4,25c-14.7,15.7-22.7,36-22,57.4l0,0c0.5,21.6,9.3,41.4,25,56.4
	c15.7,14.7,36,22.7,57.4,22L1961.5,1836z"/>
<g>
	<path fill="#00004C" d="M1997,1595.3c64.6,22.8,98.5,93.8,75.6,158.4s-93.8,98.5-158.4,75.6s-98.5-93.8-75.6-158.4
		C1861.5,1606.3,1932.4,1572.4,1997,1595.3"/>
	<polygon display="none" fill="#FEBC2D" points="1896.8,1829.8 1952.7,1731.6 1950.4,1848.8 	"/>
	<g display="none">
		<path display="inline" fill="none" stroke="#00004C" stroke-width="22.3323" stroke-miterlimit="10" d="M1782.2,1544.8
			c54.2,17.3,84.2,75.2,66.9,129.4"/>
		<path display="inline" fill="none" stroke="#00004C" stroke-width="22.3323" stroke-miterlimit="10" d="M1869.7,1480.8
			c44,36.1,50.4,101,14.3,145.1"/>
		<path display="inline" fill="none" stroke="#00004C" stroke-width="22.3323" stroke-miterlimit="10" d="M1734.6,1648.7
			c56.7-5,106.7,36.9,111.7,93.6"/>
	</g>
</g>
</svg>
