<?xml version="1.0" encoding="utf-8"?>
<!-- Generator: Adobe Illustrator 18.0.0, SVG Export Plug-In . SVG Version: 6.00 Build 0)  -->
<!DOCTYPE svg PUBLIC "-//W3C//DTD SVG 1.1//EN" "http://www.w3.org/Graphics/SVG/1.1/DTD/svg11.dtd">
<svg version="1.1" id="Layer_1" xmlns="http://www.w3.org/2000/svg" xmlns:xlink="http://www.w3.org/1999/xlink" x="0px" y="0px"
	 viewBox="0 0 1639.9 1657.8" enable-background="new 0 0 1639.9 1657.8" xml:space="preserve">
<g id="XMLID_1_" display="none">
	<g display="inline">
		<path fill="#FEBC2D" d="M330.7,204c16.5-32.9,34.6-64.9,55-95.8c26.5,25.6,19,68.6,21,105.5c2.1,39.4,17.3,76.7,30.2,113.9
			c44.2,127.4,63.7,261.9,83,395.3c57.5-165.5,117.4-335.1,231-468.4c12.3,143.4,25,288.4,70.5,424.9c24,72.1,57,141.2,75.7,214.8
			c24.5,96.6,29.1,209.4,105.3,273.5c25.4,21.4,56.4,34.8,87.6,46.1c145.3,52.7,304.8,65.7,456.7,37c-9,39.1-53.3,57.4-92.2,67.3
			c-209.7,53.5-430.4,39.6-645,11.9c-59.2-7.6-118.6-16.3-175.7-33.5c-56.5-17-110.1-42-164.5-64.6
			c-150.3-62.4-308.1-106.4-468.9-131c0,0,48.5-144.9,53-153.1C180.7,717.5,212.8,439.2,330.7,204z"/>
	</g>
	<g display="inline">
	</g>
</g>
<g id="XMLID_2_">
	<g>
		<path fill="#FEBC2D" d="M330.7,204c16.5-32.9,34.6-64.9,55-95.8c26.5,25.6,19,68.6,21,105.5c2.1,39.4,17.3,76.7,30.2,113.9
			c44.2,127.4,63.7,261.9,83,395.3c57.5-165.5,117.4-335.1,231-468.4c12.3,143.4,25,288.4,70.5,424.9c24,72.1,57,141.2,75.7,214.8
			c24.5,96.6,29.1,209.4,105.3,273.5c25.4,21.4,56.4,34.8,87.6,46.1c145.3,52.7,304.8,65.7,456.7,37c-9,39.1-53.3,57.4-92.2,67.3
			c-209.7,53.5-430.4,39.6-645,11.9c-59.2-7.6-118.6-16.3-175.7-33.5c-56.5-17-110.1-42-164.5-64.6
			c-150.3-62.4-308.1-106.4-468.9-131c0,0,48.5-144.9,53-153.1C180.7,717.5,212.8,439.2,330.7,204z"/>
	</g>
	<g>
	</g>
</g>
<path fill="none" stroke="#00004C" stroke-width="60" stroke-linejoin="bevel" stroke-miterlimit="10" d="M925.2,1021.7
	c46.2,190.9,272.7,299.6,506.3,243"/>
<path fill="none" stroke="#00004C" stroke-width="60" stroke-linejoin="bevel" stroke-miterlimit="10" d="M1518.5,1368.3
	c-150.6,149.3-682,259.5-1315.5,259.5"/>
<g>
	<circle fill="#151349" cx="1563" cy="1254.3" r="76.9"/>
</g>
<line fill="none" stroke="#00004C" stroke-width="60" stroke-miterlimit="10" x1="396.8" y1="10.4" x2="47.5" y2="958.1"/>
<line fill="none" stroke="#00004C" stroke-width="60" stroke-linejoin="bevel" stroke-miterlimit="10" x1="395.3" y1="25.6" x2="519.9" y2="723"/>
<line fill="none" stroke="#00004C" stroke-width="60" stroke-linejoin="bevel" stroke-miterlimit="10" x1="569.7" y1="610.7" x2="750.9" y2="254.6"/>
<line display="none" fill="none" stroke="#231F20" stroke-width="60" stroke-linejoin="bevel" stroke-miterlimit="10" x1="522" y1="704.3" x2="569.7" y2="610.7"/>
<line fill="none" stroke="#00004C" stroke-width="60" stroke-linejoin="bevel" stroke-miterlimit="10" x1="746.6" y1="273.3" x2="860" y2="783.1"/>
<g display="none">
	<circle display="inline" fill="#151349" cx="620.3" cy="1032" r="61.9"/>
	<circle display="inline" fill="#151349" cx="889.4" cy="908.3" r="61.9"/>
	<circle display="inline" fill="#FFFFFF" cx="643.2" cy="1007.1" r="8.8"/>
	<circle display="inline" fill="#FFFFFF" cx="912.4" cy="883.4" r="8.8"/>
</g>
<path display="none" fill="#FFFFFF" stroke="#2E3191" stroke-width="60" stroke-miterlimit="10" d="M1904.6,832.6
	c0,46.4-37.6,84-84,84c-46.4,0-84-37.6-84-84"/>
<path fill="none" stroke="#00004C" stroke-width="60" stroke-miterlimit="10" d="M828.7,976.6c-10.6-45.2,17.5-90.4,62.7-100.9
	c45.2-10.6,90.4,17.5,100.9,62.7"/>
<path fill="none" stroke="#00004C" stroke-width="60" stroke-miterlimit="10" d="M444.5,1059.3c-10.6-45.2,17.5-90.4,62.7-100.9
	c45.2-10.6,90.4,17.5,100.9,62.7"/>
<polygon display="none" fill="#FFFFFF" points="196.2,862.5 359.4,467.9 429.6,764.7 "/>
<polygon fill="#FFFFFF" points="359.4,467.9 196.2,862.5 429.6,764.7 "/>
</svg>
