<?xml version="1.0" encoding="utf-8"?>
<!-- Generator: Adobe Illustrator 18.0.0, SVG Export Plug-In . SVG Version: 6.00 Build 0)  -->
<!DOCTYPE svg PUBLIC "-//W3C//DTD SVG 1.1//EN" "http://www.w3.org/Graphics/SVG/1.1/DTD/svg11.dtd">
<svg version="1.1" id="Layer_1" xmlns="http://www.w3.org/2000/svg" xmlns:xlink="http://www.w3.org/1999/xlink" x="0px" y="0px"
	 viewBox="0 0 2834.6 2834.6" enable-background="new 0 0 2834.6 2834.6" xml:space="preserve">
<g id="XMLID_1_" display="none">
	<g display="inline">
		<path fill="#FEBC2D" d="M405.1,652.1c20.2-40.3,42.4-79.5,67.3-117.3c32.4,31.3,23.3,84,25.7,129.2c2.6,48.2,21.2,93.9,37,139.5
			c54.1,156,78,320.7,101.6,484.1c70.4-202.7,143.8-410.3,282.9-573.6c15.1,175.6,30.6,353.2,86.3,520.3
			c29.4,88.3,69.8,172.9,92.7,263c30,118.3,35.6,256.4,128.9,334.9c31.1,26.2,69.1,42.6,107.3,56.5
			c177.9,64.5,373.2,80.5,559.2,45.3c-11,47.9-65.3,70.3-112.9,82.4c-256.8,65.5-527,48.5-789.8,14.6c-72.5-9.3-145.2-20-215.1-41
			c-69.2-20.8-134.8-51.4-201.4-79.1c-184-76.4-377.3-130.3-574.2-160.4c0,0,59.4-177.4,64.9-187.5
			C221.3,1280.9,260.6,940.1,405.1,652.1z"/>
	</g>
</g>
<g id="XMLID_2_">
	<g>
		<path fill="#FEBC2D" d="M405.1,652.1c20.2-40.3,42.4-79.5,67.3-117.3c32.4,31.3,23.3,84,25.7,129.2c2.6,48.2,21.2,93.9,37,139.5
			c54.1,156,78,320.7,101.6,484.1c70.4-202.7,143.8-410.3,282.9-573.6c15.1,175.6,30.6,353.2,86.3,520.3
			c29.4,88.3,69.8,172.9,92.7,263c30,118.3,35.6,256.4,128.9,334.9c31.1,26.2,69.1,42.6,107.3,56.5
			c177.9,64.5,373.2,80.5,559.2,45.3c-11,47.9-65.3,70.3-112.9,82.4c-256.8,65.5-527,48.5-789.8,14.6c-72.5-9.3-145.2-20-215.1-41
			c-69.2-20.8-134.8-51.4-201.4-79.1c-184-76.4-377.3-130.3-574.2-160.4c0,0,59.4-177.4,64.9-187.5
			C221.3,1280.9,260.6,940.1,405.1,652.1z"/>
	</g>
</g>
<path fill="none" stroke="#00004C" stroke-width="60" stroke-linejoin="bevel" stroke-miterlimit="10" d="M1132.9,1653.4
	c56.6,233.8,333.9,366.9,620,297.6"/>
<path fill="none" stroke="#00004C" stroke-width="60" stroke-linejoin="bevel" stroke-miterlimit="10" d="M1859.4,2077.8
	c-184.4,182.8-835.1,317.8-1610.9,317.8"/>
<g>
	<circle fill="#151349" cx="1913.9" cy="1938.2" r="94.2"/>
</g>
<line fill="none" stroke="#00004C" stroke-width="60" stroke-miterlimit="10" x1="485.9" y1="415.1" x2="58.2" y2="1575.5"/>
<line fill="none" stroke="#00004C" stroke-width="60" stroke-linejoin="bevel" stroke-miterlimit="10" x1="484.1" y1="433.7" x2="636.6" y2="1287.6"/>
<line fill="none" stroke="#00004C" stroke-width="60" stroke-linejoin="bevel" stroke-miterlimit="10" x1="697.6" y1="1150.1" x2="919.6" y2="714.1"/>
<line display="none" fill="none" stroke="#231F20" stroke-width="60" stroke-linejoin="bevel" stroke-miterlimit="10" x1="639.2" y1="1264.7" x2="697.6" y2="1150.1"/>
<line fill="none" stroke="#00004C" stroke-width="60" stroke-linejoin="bevel" stroke-miterlimit="10" x1="914.2" y1="737" x2="1053.2" y2="1361.2"/>
<g display="none">
	<circle display="inline" fill="#151349" cx="759.6" cy="1666" r="75.8"/>
	<circle display="inline" fill="#151349" cx="1089.2" cy="1514.6" r="75.8"/>
	<circle display="inline" fill="#FFFFFF" cx="787.6" cy="1635.5" r="10.8"/>
	<circle display="inline" fill="#FFFFFF" cx="1117.3" cy="1484.1" r="10.8"/>
</g>
<path display="none" fill="#FFFFFF" stroke="#2E3191" stroke-width="60" stroke-miterlimit="10" d="M2332.2,1421.9
	c0,56.8-46,102.9-102.9,102.9s-102.9-46-102.9-102.9"/>
<path fill="none" stroke="#00004C" stroke-width="60" stroke-miterlimit="10" d="M1014.8,1598.2c-13-55.3,21.4-110.7,76.8-123.6
	c55.3-13,110.7,21.4,123.6,76.8"/>
<path fill="none" stroke="#00004C" stroke-width="60" stroke-miterlimit="10" d="M544.3,1699.5c-13-55.3,21.4-110.7,76.8-123.6
	c55.3-13,110.7,21.4,123.6,76.8"/>
<polygon display="none" fill="#FFFFFF" points="240.3,1458.5 440.1,975.3 526.1,1338.7 "/>
<polygon fill="#FFFFFF" points="410.7,1094.9 272.1,1471.9 455.3,1348.1 "/>
<path fill="none" stroke="#00004C" stroke-width="60" stroke-miterlimit="10" d="M2797.9,1598.2c0,188-175.8,340.1-393.1,340.1"/>
<path fill="none" stroke="#00004C" stroke-width="60" stroke-miterlimit="10" d="M2797.9,2278.3c0-188-175.8-340.1-393.1-340.1"/>
<line fill="none" stroke="#00004C" stroke-width="60" stroke-miterlimit="10" x1="2797.9" y1="1598.2" x2="2797.9" y2="1471.9"/>
<line fill="none" stroke="#00004C" stroke-width="60" stroke-miterlimit="10" x1="2797.9" y1="2404.5" x2="2797.9" y2="2278.3"/>
</svg>
