<?xml version="1.0" encoding="utf-8"?>
<!-- Generator: Adobe Illustrator 18.0.0, SVG Export Plug-In . SVG Version: 6.00 Build 0)  -->
<!DOCTYPE svg PUBLIC "-//W3C//DTD SVG 1.1//EN" "http://www.w3.org/Graphics/SVG/1.1/DTD/svg11.dtd">
<svg version="1.1" id="Layer_1" xmlns="http://www.w3.org/2000/svg" xmlns:xlink="http://www.w3.org/1999/xlink" x="0px" y="0px"
	 viewBox="-2633.7 -1557.5 2823.4 2311.1" enable-background="new -2633.7 -1557.5 2823.4 2311.1" xml:space="preserve">
<polygon fill="#00004C" stroke="#00004C" stroke-width="100" stroke-miterlimit="10" points="-504.5,-453.9 -323.1,-86.3 
	82.3,-27.5 -210.9,258.3 -141.7,662.2 -504.5,471.5 -866.9,662.2 -797.7,258.3 -1091.1,-27.5 -685.5,-86.3 "/>
<polygon fill="#00004C" stroke="#00004C" stroke-width="100" stroke-miterlimit="10" points="-1939.4,-455.3 -1758,-87.7 
	-1352.7,-28.9 -1645.9,256.9 -1576.6,660.7 -1939.4,470.1 -2301.8,660.7 -2232.6,256.9 -2526.1,-28.9 -2120.4,-87.7 "/>
<polygon fill="#00004C" stroke="#00004C" stroke-width="100" stroke-miterlimit="10" points="-1222,-1444.5 -1040.6,-1076.9 
	-635.2,-1018 -928.4,-732.3 -859.2,-328.4 -1222,-519 -1584.4,-328.4 -1515.2,-732.3 -1808.7,-1018 -1403,-1076.9 "/>
</svg>
