<?xml version="1.0" encoding="utf-8"?>
<!-- Generator: Adobe Illustrator 18.0.0, SVG Export Plug-In . SVG Version: 6.00 Build 0)  -->
<!DOCTYPE svg PUBLIC "-//W3C//DTD SVG 1.1//EN" "http://www.w3.org/Graphics/SVG/1.1/DTD/svg11.dtd">
<svg version="1.1" id="Layer_1" xmlns="http://www.w3.org/2000/svg" xmlns:xlink="http://www.w3.org/1999/xlink" x="0px" y="0px"
	 viewBox="0 0 2834.6 2834.6" enable-background="new 0 0 2834.6 2834.6" xml:space="preserve">
<rect x="558.4" y="466.5" fill="#FFFFFF" stroke="#151349" stroke-width="40" stroke-miterlimit="10" width="1790.9" height="500"/>
<rect x="2318.5" y="655.1" fill="#F7F7F7" width="61.5" height="122.9"/>
<line fill="none" stroke="#151349" stroke-width="40" stroke-miterlimit="10" x1="2160" y1="716.5" x2="2528" y2="716.5"/>
<polygon opacity="5.000000e-02" fill="#151349" enable-background="new    " points="1073,541.6 1105.8,608 1179,618.7 1126,670.4 
	1138.5,743.3 1073,708.9 1007.5,743.3 1020,670.4 967,618.7 1040.2,608 "/>
<line fill="none" stroke="#151349" stroke-width="40" stroke-miterlimit="10" x1="2542.1" y1="702.5" x2="2428.3" y2="816.3"/>
<line fill="none" stroke="#151349" stroke-width="40" stroke-miterlimit="10" x1="2528" y1="716.5" x2="2428.3" y2="616.8"/>
<rect x="558.4" y="1208.6" fill="#151349" stroke="#151349" stroke-width="40" stroke-miterlimit="10" width="1790.9" height="500"/>
<g enable-background="new    ">
	<path fill="#151349" d="M1346.5,790.4c-12.9-3.8-23.3-8.6-31.1-14.6l13.8-30.5c7.5,5.5,16.4,9.9,26.8,13.2c10.3,3.3,20.7,5,31,5
		c11.5,0,20-1.7,25.5-5.1c5.5-3.4,8.2-8,8.2-13.6c0-4.2-1.6-7.6-4.9-10.4s-7.4-5-12.5-6.6c-5.1-1.7-12-3.5-20.6-5.5
		c-13.3-3.2-24.2-6.3-32.8-9.5c-8.5-3.2-15.8-8.2-21.9-15.2c-6.1-7-9.1-16.3-9.1-28c0-10.2,2.8-19.4,8.2-27.6
		c5.5-8.2,13.8-14.8,24.9-19.6c11.1-4.8,24.6-7.2,40.6-7.2c11.2,0,22.1,1.3,32.8,4c10.7,2.7,20,6.5,28,11.5l-12.5,30.8
		c-16.2-9.2-32.3-13.8-48.5-13.8c-11.3,0-19.7,1.8-25.1,5.5c-5.4,3.7-8.1,8.5-8.1,14.5s3.1,10.5,9.4,13.4c6.2,2.9,15.8,5.8,28.6,8.6
		c13.3,3.2,24.3,6.3,32.8,9.5c8.5,3.2,15.8,8.2,21.9,15c6.1,6.8,9.1,16.1,9.1,27.8c0,10-2.8,19.1-8.4,27.4
		c-5.6,8.2-14,14.8-25.1,19.6c-11.2,4.8-24.8,7.2-40.8,7.2C1372.8,796,1359.5,794.1,1346.5,790.4z"/>
	<path fill="#151349" d="M1572.7,786.5c-3.8,2.8-8.5,5-14.1,6.4c-5.6,1.4-11.5,2.1-17.6,2.1c-16,0-28.4-4.1-37.1-12.2
		c-8.8-8.2-13.1-20.2-13.1-36v-55.3h-20.8v-30h20.8v-32.8h39v32.8h33.5v30h-33.5v54.8c0,5.7,1.5,10,4.4,13.1c2.9,3.1,7,4.6,12.4,4.6
		c6.2,0,11.4-1.7,15.8-5L1572.7,786.5z"/>
	<path fill="#151349" d="M1696.9,671.4c11.2,9.9,16.8,24.9,16.8,44.9V793h-36.5v-16.8c-7.3,12.5-21,18.8-41,18.8
		c-10.3,0-19.3-1.8-26.9-5.2c-7.6-3.5-13.4-8.3-17.4-14.5c-4-6.2-6-13.2-6-21c0-12.5,4.7-22.3,14.1-29.5c9.4-7.2,24-10.8,43.6-10.8
		h31c0-8.5-2.6-15-7.8-19.6c-5.2-4.6-12.9-6.9-23.2-6.9c-7.2,0-14.2,1.1-21.1,3.4c-6.9,2.2-12.8,5.3-17.6,9.1l-14-27.3
		c7.3-5.2,16.1-9.2,26.4-12c10.2-2.8,20.8-4.2,31.6-4.2C1669.8,656.5,1685.8,661.5,1696.9,671.4z M1663.7,764.1
		c5.2-3.1,8.8-7.6,11-13.6v-13.8h-26.8c-16,0-24,5.3-24,15.8c0,5,2,9,5.9,11.9c3.9,2.9,9.3,4.4,16.1,4.4
		C1652.6,768.8,1658.5,767.2,1663.7,764.1z"/>
	<path fill="#151349" d="M1805,661.5c7.9-3.3,17-5,27.4-5v36c-4.3-0.3-7.2-0.5-8.8-0.5c-11.2,0-19.9,3.1-26.2,9.4
		c-6.3,6.2-9.5,15.6-9.5,28.1V793h-39V658.5h37.3v17.8C1790.8,669.8,1797.1,664.8,1805,661.5z"/>
	<path fill="#151349" d="M1868.7,790.9c-10.7-2.8-19.2-6.2-25.5-10.4l13-28c6,3.8,13.3,7,21.8,9.4c8.5,2.4,16.8,3.6,25,3.6
		c16.5,0,24.8-4.1,24.8-12.2c0-3.8-2.2-6.6-6.8-8.2c-4.5-1.7-11.4-3.1-20.8-4.3c-11-1.7-20.1-3.6-27.3-5.8
		c-7.2-2.2-13.4-6-18.6-11.5c-5.2-5.5-7.9-13.3-7.9-23.5c0-8.5,2.5-16,7.4-22.6c4.9-6.6,12.1-11.7,21.5-15.4
		c9.4-3.7,20.5-5.5,33.4-5.5c9.5,0,19,1,28.4,3.1c9.4,2.1,17.2,5,23.4,8.6l-13,27.8c-11.8-6.7-24.8-10-38.8-10
		c-8.3,0-14.6,1.2-18.8,3.5c-4.2,2.3-6.3,5.3-6.3,9c0,4.2,2.3,7.1,6.8,8.8c4.5,1.7,11.7,3.2,21.5,4.8c11,1.8,20,3.8,27,5.9
		c7,2.1,13.1,5.9,18.2,11.4c5.2,5.5,7.8,13.2,7.8,23c0,8.3-2.5,15.8-7.5,22.2s-12.3,11.5-21.9,15.1c-9.6,3.6-21,5.4-34.1,5.4
		C1890.3,795,1879.3,793.6,1868.7,790.9z"/>
</g>
<line fill="none" stroke="#151349" stroke-width="40" stroke-miterlimit="10" x1="2153" y1="1458.6" x2="2521" y2="1458.6"/>
<line fill="none" stroke="#151349" stroke-width="40" stroke-miterlimit="10" x1="2535" y1="1444.5" x2="2421.2" y2="1558.3"/>
<line fill="none" stroke="#151349" stroke-width="40" stroke-miterlimit="10" x1="2521" y1="1458.6" x2="2421.2" y2="1358.8"/>
<line fill="none" stroke="#FFFFFF" stroke-width="40" stroke-miterlimit="10" x1="2165.3" y1="1458.6" x2="2369.3" y2="1458.6"/>
<g enable-background="new    ">
	<path fill="#FFFFFF" d="M973,1506.5c-8.7-4.7-15.4-11.1-20.4-19.4s-7.4-17.6-7.4-28c0-10.4,2.5-19.7,7.4-28s11.7-14.7,20.4-19.4
		c8.6-4.6,18.4-7,29.2-7c9.1,0,17.3,1.6,24.7,4.8c7.4,3.2,13.5,7.8,18.5,13.8l-15.6,14.4c-7.1-8.2-15.9-12.3-26.4-12.3
		c-6.5,0-12.3,1.4-17.4,4.3c-5.1,2.9-9.1,6.8-11.9,11.9c-2.9,5.1-4.3,10.9-4.3,17.4c0,6.5,1.4,12.3,4.3,17.4
		c2.9,5.1,6.8,9.1,11.9,11.9c5.1,2.8,10.9,4.3,17.4,4.3c10.5,0,19.3-4.1,26.4-12.4l15.6,14.4c-5,6.1-11.2,10.8-18.6,14
		c-7.4,3.2-15.7,4.8-24.8,4.8C991.3,1513.5,981.6,1511.1,973,1506.5z"/>
	<path fill="#FFFFFF" d="M1072.7,1507.5c-6.8-3.5-12-8.5-15.8-14.8c-3.8-6.3-5.7-13.4-5.7-21.4c0-8,1.9-15.2,5.7-21.5
		c3.8-6.3,9.1-11.2,15.8-14.8c6.8-3.5,14.4-5.3,22.9-5.3c8.5,0,16.1,1.8,22.8,5.3c6.7,3.6,11.9,8.5,15.8,14.8
		c3.8,6.3,5.7,13.5,5.7,21.5c0,8-1.9,15.1-5.7,21.4c-3.8,6.3-9.1,11.2-15.8,14.8c-6.7,3.6-14.3,5.3-22.8,5.3
		C1087.1,1512.9,1079.5,1511.1,1072.7,1507.5z M1110.4,1487.6c3.8-4,5.8-9.5,5.8-16.3c0-6.8-1.9-12.2-5.8-16.3
		c-3.9-4-8.8-6.1-14.8-6.1s-11,2-14.9,6.1s-5.9,9.5-5.9,16.3c0,6.8,2,12.2,5.9,16.3s8.9,6.1,14.9,6.1S1106.5,1491.6,1110.4,1487.6z"
		/>
	<path fill="#FFFFFF" d="M1228.7,1438.8c6.2,6,9.2,14.9,9.2,26.7v46.2h-23.4v-42.6c0-6.4-1.4-11.2-4.2-14.3
		c-2.8-3.2-6.9-4.7-12.2-4.7c-5.9,0-10.6,1.8-14.1,5.5c-3.5,3.7-5.2,9.1-5.2,16.3v39.9h-23.4V1431h22.4v9.5c3.1-3.4,6.9-6,11.6-7.9
		c4.6-1.8,9.6-2.8,15.2-2.8C1214.5,1429.8,1222.6,1432.8,1228.7,1438.8z"/>
	<path fill="#FFFFFF" d="M1266.6,1510.4c-6.4-1.6-11.5-3.7-15.3-6.2l7.8-16.8c3.6,2.3,8,4.2,13.1,5.6c5.1,1.5,10.1,2.2,15,2.2
		c9.9,0,14.9-2.4,14.9-7.3c0-2.3-1.4-3.9-4.1-5c-2.7-1-6.9-1.8-12.4-2.5c-6.6-1-12.1-2.1-16.4-3.5c-4.3-1.3-8-3.6-11.2-6.9
		s-4.7-8-4.7-14.1c0-5.1,1.5-9.6,4.4-13.6c2.9-3.9,7.2-7,12.9-9.2c5.6-2.2,12.3-3.3,20-3.3c5.7,0,11.4,0.6,17,1.9
		c5.6,1.3,10.3,3,14,5.2l-7.8,16.6c-7.1-4-14.9-6-23.3-6c-5,0-8.8,0.7-11.3,2.1c-2.5,1.4-3.8,3.2-3.8,5.4c0,2.5,1.4,4.3,4.1,5.3
		c2.7,1,7,2,12.9,2.9c6.6,1.1,12,2.3,16.2,3.5c4.2,1.3,7.8,3.5,11,6.8c3.1,3.3,4.6,7.9,4.6,13.8c0,5-1.5,9.5-4.5,13.4
		c-3,3.9-7.4,6.9-13.1,9.1c-5.8,2.1-12.6,3.2-20.5,3.2C1279.5,1512.9,1273,1512,1266.6,1510.4z"/>
	<path fill="#FFFFFF" d="M1390.8,1507.8c-2.3,1.7-5.1,3-8.5,3.8c-3.4,0.8-6.9,1.3-10.6,1.3c-9.6,0-17-2.4-22.3-7.4
		c-5.2-4.9-7.9-12.1-7.9-21.6v-33.2h-12.5v-18h12.5v-19.6h23.4v19.6h20.1v18H1365v32.9c0,3.4,0.9,6,2.6,7.9c1.7,1.9,4.2,2.8,7.4,2.8
		c3.7,0,6.8-1,9.4-3L1390.8,1507.8z"/>
	<path fill="#FFFFFF" d="M1480,1477.9H1419c1.1,5,3.7,9,7.8,11.8c4.1,2.9,9.2,4.4,15.3,4.4c4.2,0,7.9-0.6,11.2-1.9
		c3.2-1.2,6.3-3.2,9.1-5.9l12.4,13.5c-7.6,8.7-18.7,13-33.3,13c-9.1,0-17.2-1.8-24.2-5.3c-7-3.5-12.4-8.5-16.2-14.8
		c-3.8-6.3-5.7-13.4-5.7-21.4c0-7.9,1.9-15,5.6-21.4c3.8-6.3,8.9-11.3,15.5-14.9c6.5-3.5,13.9-5.3,22-5.3c7.9,0,15,1.7,21.5,5.1
		c6.4,3.4,11.4,8.3,15.1,14.6c3.6,6.4,5.5,13.7,5.5,22.1C1480.5,1471.9,1480.3,1474,1480,1477.9z M1425.3,1452
		c-3.6,3-5.8,7.1-6.6,12.3h39.8c-0.8-5.1-3-9.2-6.6-12.2c-3.6-3-8-4.6-13.2-4.6C1433.3,1447.5,1428.9,1449,1425.3,1452z"/>
	<path fill="#FFFFFF" d="M1496.1,1400.4h23.4v111.3h-23.4V1400.4z"/>
	<path fill="#FFFFFF" d="M1541.2,1400.4h23.4v111.3h-23.4V1400.4z"/>
	<path fill="#FFFFFF" d="M1647.7,1438.7c6.7,6,10,14.9,10,26.9v46h-21.9v-10c-4.4,7.5-12.6,11.2-24.6,11.2c-6.2,0-11.6-1-16.1-3.2
		c-4.6-2.1-8-5-10.4-8.7c-2.4-3.7-3.6-7.9-3.6-12.6c0-7.5,2.8-13.4,8.5-17.7c5.6-4.3,14.4-6.5,26.2-6.5h18.6c0-5.1-1.6-9-4.7-11.8
		c-3.1-2.7-7.8-4.1-14-4.1c-4.3,0-8.5,0.7-12.7,2c-4.2,1.4-7.7,3.2-10.6,5.5l-8.4-16.4c4.4-3.1,9.7-5.5,15.8-7.2
		c6.2-1.7,12.5-2.6,19-2.6C1631.4,1429.8,1641,1432.7,1647.7,1438.7z M1627.8,1494.3c3.1-1.8,5.3-4.6,6.6-8.2v-8.2h-16.1
		c-9.6,0-14.4,3.2-14.4,9.5c0,3,1.2,5.4,3.5,7.1c2.3,1.8,5.6,2.6,9.7,2.6C1621.1,1497.1,1624.7,1496.2,1627.8,1494.3z"/>
	<path fill="#FFFFFF" d="M1731,1507.8c-2.3,1.7-5.1,3-8.5,3.8c-3.4,0.8-6.9,1.3-10.6,1.3c-9.6,0-17-2.4-22.3-7.4
		c-5.2-4.9-7.9-12.1-7.9-21.6v-33.2h-12.5v-18h12.5v-19.6h23.4v19.6h20.1v18h-20.1v32.9c0,3.4,0.9,6,2.6,7.9
		c1.7,1.9,4.2,2.8,7.4,2.8c3.7,0,6.8-1,9.5-3L1731,1507.8z"/>
	<path fill="#FFFFFF" d="M1745.4,1416c-2.7-2.5-4-5.6-4-9.3c0-3.7,1.3-6.8,4-9.3c2.7-2.5,6.2-3.8,10.5-3.8c4.3,0,7.8,1.2,10.5,3.6
		c2.7,2.4,4,5.4,4,9c0,3.9-1.3,7.1-4,9.7c-2.7,2.6-6.2,3.8-10.5,3.8C1751.6,1419.7,1748.1,1418.5,1745.4,1416z M1744.2,1431h23.4
		v80.7h-23.4V1431z"/>
	<path fill="#FFFFFF" d="M1804.9,1507.5c-6.8-3.5-12-8.5-15.8-14.8c-3.8-6.3-5.7-13.4-5.7-21.4c0-8,1.9-15.2,5.7-21.5
		c3.8-6.3,9.1-11.2,15.8-14.8c6.8-3.5,14.4-5.3,22.9-5.3c8.5,0,16.1,1.8,22.8,5.3c6.7,3.6,11.9,8.5,15.8,14.8
		c3.8,6.3,5.7,13.5,5.7,21.5c0,8-1.9,15.1-5.7,21.4c-3.8,6.3-9.1,11.2-15.8,14.8c-6.7,3.6-14.3,5.3-22.8,5.3
		C1819.2,1512.9,1811.6,1511.1,1804.9,1507.5z M1842.5,1487.6c3.8-4,5.8-9.5,5.8-16.3c0-6.8-1.9-12.2-5.8-16.3
		c-3.9-4-8.8-6.1-14.8-6.1s-11,2-14.9,6.1c-3.9,4-5.8,9.5-5.8,16.3c0,6.8,2,12.2,5.8,16.3c3.9,4,8.9,6.1,14.9,6.1
		S1838.7,1491.6,1842.5,1487.6z"/>
	<path fill="#FFFFFF" d="M1960.9,1438.8c6.2,6,9.2,14.9,9.2,26.7v46.2h-23.4v-42.6c0-6.4-1.4-11.2-4.2-14.3
		c-2.8-3.2-6.9-4.7-12.2-4.7c-5.9,0-10.6,1.8-14.1,5.5c-3.5,3.7-5.2,9.1-5.2,16.3v39.9h-23.4V1431h22.4v9.5c3.1-3.4,6.9-6,11.5-7.9
		c4.6-1.8,9.6-2.8,15.2-2.8C1946.6,1429.8,1954.7,1432.8,1960.9,1438.8z"/>
	<path fill="#FFFFFF" d="M1998.7,1510.4c-6.4-1.6-11.5-3.7-15.3-6.2l7.8-16.8c3.6,2.3,8,4.2,13,5.6c5.1,1.5,10.1,2.2,15,2.2
		c9.9,0,14.8-2.4,14.8-7.3c0-2.3-1.3-3.9-4-5c-2.7-1-6.9-1.8-12.5-2.5c-6.6-1-12.1-2.1-16.4-3.5c-4.3-1.3-8-3.6-11.2-6.9
		s-4.7-8-4.7-14.1c0-5.1,1.5-9.6,4.4-13.6c2.9-3.9,7.2-7,12.9-9.2c5.6-2.2,12.3-3.3,20-3.3c5.7,0,11.4,0.6,17,1.9
		c5.6,1.3,10.3,3,14,5.2l-7.8,16.6c-7.1-4-14.9-6-23.3-6c-5,0-8.8,0.7-11.2,2.1c-2.5,1.4-3.8,3.2-3.8,5.4c0,2.5,1.4,4.3,4.1,5.3
		c2.7,1,7,2,12.9,2.9c6.6,1.1,12,2.3,16.2,3.5c4.2,1.3,7.8,3.5,10.9,6.8c3.1,3.3,4.7,7.9,4.7,13.8c0,5-1.5,9.5-4.5,13.4
		c-3,3.9-7.4,6.9-13.1,9.1c-5.8,2.1-12.6,3.2-20.5,3.2C2011.7,1512.9,2005.1,1512,1998.7,1510.4z"/>
</g>
<line fill="none" stroke="#FFFFFF" stroke-width="6" stroke-miterlimit="10" x1="738" y1="1612" x2="1064" y2="1652"/>
<circle fill="#FFFFFF" cx="703" cy="1610" r="15"/>
<line fill="none" stroke="#FFFFFF" stroke-width="6" stroke-miterlimit="10" x1="688" y1="1558.3" x2="617.3" y2="1300.3"/>
<line fill="none" stroke="#FFFFFF" stroke-width="6" stroke-miterlimit="10" x1="690" y1="1652" x2="638" y2="1770"/>
<line fill="none" stroke="#FFFFFF" stroke-width="6" stroke-miterlimit="10" x1="581" y1="1284" x2="478" y2="1408.7"/>
<line fill="none" stroke="#FFFFFF" stroke-width="6" stroke-miterlimit="10" x1="1732" y1="1384.5" x2="1550" y2="1286.5"/>
<circle fill="#FFFFFF" cx="606" cy="1258" r="21"/>
<line fill="none" stroke="#FFFFFF" stroke-width="6" stroke-miterlimit="10" x1="644.7" y1="1258.2" x2="831.3" y2="1309.8"/>
<circle fill="#FFFFFF" cx="884.6" cy="1318.2" r="28.1"/>
<line fill="none" stroke="#FFFFFF" stroke-width="6" stroke-miterlimit="10" x1="927.9" y1="1290.1" x2="1139.5" y2="1159.6"/>
<polygon fill="#151349" points="738,541.6 770.8,608 844,618.7 791,670.4 803.5,743.3 738,708.9 672.5,743.3 685,670.4 632,618.7 
	705.2,608 "/>
<polygon opacity="5.000000e-02" fill="#151349" enable-background="new    " points="738,819.3 770.8,885.7 844,896.3 791,948 
	685,948 632,896.3 705.2,885.7 "/>
<polygon opacity="5.000000e-02" fill="#151349" enable-background="new    " points="1073,819.3 1105.8,885.7 1179,896.3 1126,948 
	1020,948 967,896.3 1040.2,885.7 "/>
<polygon opacity="5.000000e-02" fill="#151349" enable-background="new    " points="1408,819.3 1440.8,885.7 1514,896.3 1461,948 
	1355,948 1302,896.3 1375.2,885.7 "/>
<polygon opacity="5.000000e-02" fill="#151349" enable-background="new    " points="1743,819.3 1775.8,885.7 1849,896.3 1796,948 
	1690,948 1637,896.3 1710.2,885.7 "/>
<polygon opacity="5.000000e-02" fill="#151349" enable-background="new    " points="2078,819.3 2110.8,885.7 2184,896.3 2131,948 
	2025,948 1972,896.3 2045.2,885.7 "/>
<polygon opacity="5.000000e-02" fill="#151349" enable-background="new    " points="1408,541.6 1440.8,608 1514,618.7 1461,670.4 
	1473.5,743.3 1408,708.9 1342.5,743.3 1355,670.4 1302,618.7 1375.2,608 "/>
<polygon opacity="5.000000e-02" fill="#151349" enable-background="new    " points="1743,541.6 1775.8,608 1849,618.7 1796,670.4 
	1808.5,743.3 1743,708.9 1677.5,743.3 1690,670.4 1637,618.7 1710.2,608 "/>
<polygon opacity="5.000000e-02" fill="#151349" enable-background="new    " points="2078,541.6 2110.8,608 2184,618.7 2131,670.4 
	2143.5,743.3 2078,708.9 2012.5,743.3 2025,670.4 1972,618.7 2045.2,608 "/>
<circle fill="#FFFFFF" cx="1514" cy="1269" r="21"/>
<line fill="none" stroke="#FFFFFF" stroke-width="6" stroke-miterlimit="10" x1="1538" y1="1228.5" x2="1614" y2="1134"/>
<line fill="none" stroke="#FFFFFF" stroke-width="6" stroke-miterlimit="10" x1="1472.5" y1="1240" x2="1362" y2="1179.4"/>
<rect x="557.2" y="1941.9" fill="#FFFFFF" stroke="#151349" stroke-width="40" stroke-miterlimit="10" width="1790.9" height="500"/>
<rect x="2317.4" y="2130.4" fill="#F7F7F7" width="61.5" height="122.9"/>
<line fill="none" stroke="#151349" stroke-width="40" stroke-miterlimit="10" x1="2158.9" y1="2191.9" x2="2526.9" y2="2191.9"/>
<line fill="none" stroke="#151349" stroke-width="40" stroke-miterlimit="10" x1="2540.9" y1="2177.8" x2="2427.1" y2="2291.6"/>
<line fill="none" stroke="#151349" stroke-width="40" stroke-miterlimit="10" x1="2526.9" y1="2191.9" x2="2427.1" y2="2092.1"/>
<rect x="841.9" y="2070.8" fill="#151349" width="250.1" height="250.1"/>
<g enable-background="new    ">
	<path fill="#151349" d="M1317.3,2206.8c4.5,5.9,6.8,13.2,6.8,21.9c0,12.3-4.8,21.7-14.3,28.3c-9.5,6.6-23.4,9.9-41.7,9.9h-72.4
		v-140h68.4c17.1,0,30.2,3.3,39.3,9.8c9.1,6.5,13.7,15.4,13.7,26.6c0,6.8-1.6,12.9-4.9,18.2c-3.3,5.3-7.8,9.5-13.7,12.6
		C1306.5,2196.6,1312.7,2200.9,1317.3,2206.8z M1227.9,2151.3v33h32.2c8,0,14.1-1.4,18.2-4.2c4.1-2.8,6.2-6.9,6.2-12.4
		c0-5.5-2.1-9.6-6.2-12.3c-4.1-2.7-10.2-4.1-18.2-4.1H1227.9z M1285,2238.3c4.3-2.8,6.5-7.1,6.5-13c0-11.6-8.6-17.4-25.8-17.4h-37.8
		v34.6h37.8C1274.2,2242.5,1280.6,2241.1,1285,2238.3z"/>
	<path fill="#151349" d="M1428.3,2169.6c8.9,7.9,13.4,19.9,13.4,35.9v61.4h-29.2v-13.4c-5.9,10-16.8,15-32.8,15
		c-8.3,0-15.4-1.4-21.5-4.2c-6.1-2.8-10.7-6.7-13.9-11.6c-3.2-4.9-4.8-10.5-4.8-16.8c0-10,3.8-17.9,11.3-23.6
		c7.5-5.7,19.2-8.6,34.9-8.6h24.8c0-6.8-2.1-12-6.2-15.7c-4.1-3.7-10.3-5.5-18.6-5.5c-5.7,0-11.4,0.9-16.9,2.7
		c-5.5,1.8-10.2,4.2-14.1,7.3l-11.2-21.8c5.9-4.1,12.9-7.3,21.1-9.6c8.2-2.3,16.6-3.4,25.3-3.4
		C1406.5,2157.7,1419.3,2161.7,1428.3,2169.6z M1401.7,2243.8c4.1-2.5,7.1-6.1,8.8-10.9v-11h-21.4c-12.8,0-19.2,4.2-19.2,12.6
		c0,4,1.6,7.2,4.7,9.5c3.1,2.3,7.4,3.5,12.9,3.5C1392.8,2247.5,1397.5,2246.3,1401.7,2243.8z"/>
	<path fill="#151349" d="M1580.7,2118.5v148.4h-29.8v-12.4c-7.7,9.3-18.9,14-33.6,14c-10.1,0-19.3-2.3-27.5-6.8
		c-8.2-4.5-14.6-11-19.3-19.4c-4.7-8.4-7-18.1-7-29.2c0-11.1,2.3-20.8,7-29.2c4.7-8.4,11.1-14.9,19.3-19.4
		c8.2-4.5,17.4-6.8,27.5-6.8c13.7,0,24.5,4.3,32.2,13v-52.2H1580.7z M1542.3,2234.8c5.2-5.4,7.8-12.6,7.8-21.7
		c0-9.1-2.6-16.3-7.8-21.7s-11.7-8.1-19.6-8.1c-8,0-14.6,2.7-19.8,8.1s-7.8,12.6-7.8,21.7c0,9.1,2.6,16.3,7.8,21.7
		c5.2,5.4,11.8,8.1,19.8,8.1C1530.5,2242.9,1537.1,2240.2,1542.3,2234.8z"/>
	<path fill="#151349" d="M1720.5,2159.3v89.6c0,19.7-5.1,34.4-15.4,44c-10.3,9.6-25.3,14.4-45,14.4c-10.4,0-20.3-1.3-29.6-3.8
		c-9.3-2.5-17.1-6.2-23.2-11l12.4-22.4c4.5,3.7,10.3,6.7,17.2,8.9c6.9,2.2,13.9,3.3,20.8,3.3c10.8,0,18.8-2.4,23.9-7.3
		c5.1-4.9,7.7-12.2,7.7-22.1v-4.6c-8.1,8.9-19.5,13.4-34,13.4c-9.9,0-18.9-2.2-27.1-6.5c-8.2-4.3-14.7-10.4-19.5-18.3
		c-4.8-7.9-7.2-16.9-7.2-27.2c0-10.3,2.4-19.3,7.2-27.2c4.8-7.9,11.3-14,19.5-18.3c8.2-4.3,17.2-6.5,27.1-6.5
		c15.6,0,27.5,5.1,35.6,15.4v-13.8H1720.5z M1681.8,2228.8c5.3-4.9,7.9-11.2,7.9-19.1c0-7.9-2.6-14.2-7.9-19.1
		c-5.3-4.9-12-7.3-20.3-7.3c-8.3,0-15.1,2.4-20.4,7.3c-5.3,4.9-8,11.2-8,19.1c0,7.9,2.7,14.2,8,19.1c5.3,4.9,12.1,7.3,20.4,7.3
		C1669.7,2236.1,1676.5,2233.7,1681.8,2228.8z"/>
	<path fill="#151349" d="M1854.3,2221.9h-81.4c1.5,6.7,4.9,11.9,10.4,15.8c5.5,3.9,12.3,5.8,20.4,5.8c5.6,0,10.6-0.8,14.9-2.5
		c4.3-1.7,8.4-4.3,12.1-7.9l16.6,18c-10.1,11.6-24.9,17.4-44.4,17.4c-12.1,0-22.9-2.4-32.2-7.1c-9.3-4.7-16.5-11.3-21.6-19.7
		c-5.1-8.4-7.6-17.9-7.6-28.6c0-10.5,2.5-20,7.5-28.5c5-8.5,11.9-15.1,20.6-19.8c8.7-4.7,18.5-7.1,29.3-7.1
		c10.5,0,20.1,2.3,28.6,6.8c8.5,4.5,15.2,11,20.1,19.5c4.9,8.5,7.3,18.3,7.3,29.5C1854.9,2213.9,1854.7,2216.7,1854.3,2221.9z
		 M1781.3,2187.3c-4.8,4-7.7,9.5-8.8,16.4h53c-1.1-6.8-4-12.2-8.8-16.3c-4.8-4.1-10.7-6.1-17.6-6.1
		C1792,2181.3,1786.1,2183.3,1781.3,2187.3z"/>
	<path fill="#151349" d="M1885.7,2265.2c-8.5-2.2-15.3-5-20.4-8.3l10.4-22.4c4.8,3.1,10.6,5.6,17.4,7.5c6.8,1.9,13.5,2.9,20,2.9
		c13.2,0,19.8-3.3,19.8-9.8c0-3.1-1.8-5.3-5.4-6.6c-3.6-1.3-9.1-2.5-16.6-3.4c-8.8-1.3-16.1-2.9-21.8-4.6
		c-5.7-1.7-10.7-4.8-14.9-9.2c-4.2-4.4-6.3-10.7-6.3-18.8c0-6.8,2-12.8,5.9-18.1c3.9-5.3,9.7-9.4,17.2-12.3
		c7.5-2.9,16.4-4.4,26.7-4.4c7.6,0,15.2,0.8,22.7,2.5c7.5,1.7,13.8,4,18.7,6.9l-10.4,22.2c-9.5-5.3-19.8-8-31-8
		c-6.7,0-11.7,0.9-15,2.8c-3.3,1.9-5,4.3-5,7.2c0,3.3,1.8,5.7,5.4,7c3.6,1.3,9.3,2.6,17.2,3.8c8.8,1.5,16,3,21.6,4.7
		c5.6,1.7,10.5,4.7,14.6,9.1c4.1,4.4,6.2,10.5,6.2,18.4c0,6.7-2,12.6-6,17.8s-9.8,9.2-17.5,12.1c-7.7,2.9-16.8,4.3-27.3,4.3
		C1902.9,2268.5,1894.2,2267.4,1885.7,2265.2z"/>
</g>
<line fill="none" stroke="#FFFFFF" stroke-width="6" stroke-miterlimit="10" x1="1771.5" y1="1380" x2="1853.3" y2="1237"/>
<circle fill="#FFFFFF" cx="1863.9" cy="1215.9" r="8.1"/>
<text transform="matrix(1 0 0 1 869.0154 2266.7449)" fill="#FFFFFF" font-family="'Montserrat-Bold'" font-size="200">12</text>
<g opacity="5.000000e-02" enable-background="new    ">
	<path fill="#151349" d="M1317.3,1960.8c4.5,5.9,6.8,13.2,6.8,21.9c0,12.3-4.8,21.7-14.3,28.3c-9.5,6.6-23.4,9.9-41.7,9.9h-72.4
		v-140h68.4c17.1,0,30.2,3.3,39.3,9.8c9.1,6.5,13.7,15.4,13.7,26.6c0,6.8-1.6,12.9-4.9,18.2c-3.3,5.3-7.8,9.5-13.7,12.6
		C1306.5,1950.6,1312.7,1954.9,1317.3,1960.8z M1227.9,1905.3v33h32.2c8,0,14.1-1.4,18.2-4.2c4.1-2.8,6.2-6.9,6.2-12.4
		c0-5.5-2.1-9.6-6.2-12.3c-4.1-2.7-10.2-4.1-18.2-4.1H1227.9z M1285,1992.3c4.3-2.8,6.5-7.1,6.5-13c0-11.6-8.6-17.4-25.8-17.4h-37.8
		v34.6h37.8C1274.2,1996.5,1280.6,1995.1,1285,1992.3z"/>
	<path fill="#151349" d="M1428.3,1923.6c8.9,7.9,13.4,19.9,13.4,35.9v61.4h-29.2v-13.4c-5.9,10-16.8,15-32.8,15
		c-8.3,0-15.4-1.4-21.5-4.2c-6.1-2.8-10.7-6.7-13.9-11.6c-3.2-4.9-4.8-10.5-4.8-16.8c0-10,3.8-17.9,11.3-23.6
		c7.5-5.7,19.2-8.6,34.9-8.6h24.8c0-6.8-2.1-12-6.2-15.7c-4.1-3.7-10.3-5.5-18.6-5.5c-5.7,0-11.4,0.9-16.9,2.7
		c-5.5,1.8-10.2,4.2-14.1,7.3l-11.2-21.8c5.9-4.1,12.9-7.3,21.1-9.6c8.2-2.3,16.6-3.4,25.3-3.4
		C1406.5,1911.7,1419.3,1915.7,1428.3,1923.6z M1401.7,1997.8c4.1-2.5,7.1-6.1,8.8-10.9v-11h-21.4c-12.8,0-19.2,4.2-19.2,12.6
		c0,4,1.6,7.2,4.7,9.5c3.1,2.3,7.4,3.5,12.9,3.5C1392.8,2001.5,1397.5,2000.3,1401.7,1997.8z"/>
	<path fill="#151349" d="M1580.7,1872.5v148.4h-29.8v-12.4c-7.7,9.3-18.9,14-33.6,14c-10.1,0-19.3-2.3-27.5-6.8
		c-8.2-4.5-14.6-11-19.3-19.4c-4.7-8.4-7-18.1-7-29.2c0-11.1,2.3-20.8,7-29.2c4.7-8.4,11.1-14.9,19.3-19.4
		c8.2-4.5,17.4-6.8,27.5-6.8c13.7,0,24.5,4.3,32.2,13v-52.2H1580.7z M1542.3,1988.8c5.2-5.4,7.8-12.6,7.8-21.7
		c0-9.1-2.6-16.3-7.8-21.7s-11.7-8.1-19.6-8.1c-8,0-14.6,2.7-19.8,8.1s-7.8,12.6-7.8,21.7c0,9.1,2.6,16.3,7.8,21.7
		c5.2,5.4,11.8,8.1,19.8,8.1C1530.5,1996.9,1537.1,1994.2,1542.3,1988.8z"/>
	<path fill="#151349" d="M1720.5,1913.3v89.6c0,19.7-5.1,34.4-15.4,44c-10.3,9.6-25.3,14.4-45,14.4c-10.4,0-20.3-1.3-29.6-3.8
		c-9.3-2.5-17.1-6.2-23.2-11l12.4-22.4c4.5,3.7,10.3,6.7,17.2,8.9c6.9,2.2,13.9,3.3,20.8,3.3c10.8,0,18.8-2.4,23.9-7.3
		c5.1-4.9,7.7-12.2,7.7-22.1v-4.6c-8.1,8.9-19.5,13.4-34,13.4c-9.9,0-18.9-2.2-27.1-6.5c-8.2-4.3-14.7-10.4-19.5-18.3
		c-4.8-7.9-7.2-16.9-7.2-27.2c0-10.3,2.4-19.3,7.2-27.2c4.8-7.9,11.3-14,19.5-18.3c8.2-4.3,17.2-6.5,27.1-6.5
		c15.6,0,27.5,5.1,35.6,15.4v-13.8H1720.5z M1681.8,1982.8c5.3-4.9,7.9-11.2,7.9-19.1c0-7.9-2.6-14.2-7.9-19.1
		c-5.3-4.9-12-7.3-20.3-7.3c-8.3,0-15.1,2.4-20.4,7.3c-5.3,4.9-8,11.2-8,19.1c0,7.9,2.7,14.2,8,19.1c5.3,4.9,12.1,7.3,20.4,7.3
		C1669.7,1990.1,1676.5,1987.7,1681.8,1982.8z"/>
	<path fill="#151349" d="M1854.3,1975.9h-81.4c1.5,6.7,4.9,11.9,10.4,15.8c5.5,3.9,12.3,5.8,20.4,5.8c5.6,0,10.6-0.8,14.9-2.5
		c4.3-1.7,8.4-4.3,12.1-7.9l16.6,18c-10.1,11.6-24.9,17.4-44.4,17.4c-12.1,0-22.9-2.4-32.2-7.1c-9.3-4.7-16.5-11.3-21.6-19.7
		c-5.1-8.4-7.6-17.9-7.6-28.6c0-10.5,2.5-20,7.5-28.5c5-8.5,11.9-15.1,20.6-19.8c8.7-4.7,18.5-7.1,29.3-7.1
		c10.5,0,20.1,2.3,28.6,6.8c8.5,4.5,15.2,11,20.1,19.5c4.9,8.5,7.3,18.3,7.3,29.5C1854.9,1967.9,1854.7,1970.7,1854.3,1975.9z
		 M1781.3,1941.3c-4.8,4-7.7,9.5-8.8,16.4h53c-1.1-6.8-4-12.2-8.8-16.3c-4.8-4.1-10.7-6.1-17.6-6.1
		C1792,1935.3,1786.1,1937.3,1781.3,1941.3z"/>
	<path fill="#151349" d="M1885.7,2019.2c-8.5-2.2-15.3-5-20.4-8.3l10.4-22.4c4.8,3.1,10.6,5.6,17.4,7.5c6.8,1.9,13.5,2.9,20,2.9
		c13.2,0,19.8-3.3,19.8-9.8c0-3.1-1.8-5.3-5.4-6.6c-3.6-1.3-9.1-2.5-16.6-3.4c-8.8-1.3-16.1-2.9-21.8-4.6
		c-5.7-1.7-10.7-4.8-14.9-9.2c-4.2-4.4-6.3-10.7-6.3-18.8c0-6.8,2-12.8,5.9-18.1c3.9-5.3,9.7-9.4,17.2-12.3
		c7.5-2.9,16.4-4.4,26.7-4.4c7.6,0,15.2,0.8,22.7,2.5c7.5,1.7,13.8,4,18.7,6.9l-10.4,22.2c-9.5-5.3-19.8-8-31-8
		c-6.7,0-11.7,0.9-15,2.8c-3.3,1.9-5,4.3-5,7.2c0,3.3,1.8,5.7,5.4,7c3.6,1.3,9.3,2.6,17.2,3.8c8.8,1.5,16,3,21.6,4.7
		c5.6,1.7,10.5,4.7,14.6,9.1c4.1,4.4,6.2,10.5,6.2,18.4c0,6.7-2,12.6-6,17.8s-9.8,9.2-17.5,12.1c-7.7,2.9-16.8,4.3-27.3,4.3
		C1902.9,2022.5,1894.2,2021.4,1885.7,2019.2z"/>
</g>
<g opacity="5.000000e-02" enable-background="new    ">
	<path fill="#151349" d="M1317.3,2437.6c4.5,5.9,6.8,13.2,6.8,21.9c0,12.3-4.8,21.7-14.3,28.3c-9.5,6.6-23.4,9.9-41.7,9.9h-72.4
		v-140h68.4c17.1,0,30.2,3.3,39.3,9.8c9.1,6.5,13.7,15.4,13.7,26.6c0,6.8-1.6,12.9-4.9,18.2c-3.3,5.3-7.8,9.5-13.7,12.6
		C1306.5,2427.5,1312.7,2431.7,1317.3,2437.6z M1227.9,2382.1v33h32.2c8,0,14.1-1.4,18.2-4.2c4.1-2.8,6.2-6.9,6.2-12.4
		c0-5.5-2.1-9.6-6.2-12.3c-4.1-2.7-10.2-4.1-18.2-4.1H1227.9z M1285,2469.1c4.3-2.8,6.5-7.1,6.5-13c0-11.6-8.6-17.4-25.8-17.4h-37.8
		v34.6h37.8C1274.2,2473.3,1280.6,2471.9,1285,2469.1z"/>
	<path fill="#151349" d="M1428.3,2400.4c8.9,7.9,13.4,19.9,13.4,35.9v61.4h-29.2v-13.4c-5.9,10-16.8,15-32.8,15
		c-8.3,0-15.4-1.4-21.5-4.2c-6.1-2.8-10.7-6.7-13.9-11.6c-3.2-4.9-4.8-10.5-4.8-16.8c0-10,3.8-17.9,11.3-23.6
		c7.5-5.7,19.2-8.6,34.9-8.6h24.8c0-6.8-2.1-12-6.2-15.7c-4.1-3.7-10.3-5.5-18.6-5.5c-5.7,0-11.4,0.9-16.9,2.7
		c-5.5,1.8-10.2,4.2-14.1,7.3l-11.2-21.8c5.9-4.1,12.9-7.3,21.1-9.6c8.2-2.3,16.6-3.4,25.3-3.4
		C1406.5,2388.5,1419.3,2392.5,1428.3,2400.4z M1401.7,2474.6c4.1-2.5,7.1-6.1,8.8-10.9v-11h-21.4c-12.8,0-19.2,4.2-19.2,12.6
		c0,4,1.6,7.2,4.7,9.5c3.1,2.3,7.4,3.5,12.9,3.5C1392.8,2478.3,1397.5,2477.1,1401.7,2474.6z"/>
	<path fill="#151349" d="M1580.7,2349.3v148.4h-29.8v-12.4c-7.7,9.3-18.9,14-33.6,14c-10.1,0-19.3-2.3-27.5-6.8
		c-8.2-4.5-14.6-11-19.3-19.4c-4.7-8.4-7-18.1-7-29.2c0-11.1,2.3-20.8,7-29.2c4.7-8.4,11.1-14.9,19.3-19.4
		c8.2-4.5,17.4-6.8,27.5-6.8c13.7,0,24.5,4.3,32.2,13v-52.2H1580.7z M1542.3,2465.6c5.2-5.4,7.8-12.6,7.8-21.7
		c0-9.1-2.6-16.3-7.8-21.7c-5.2-5.4-11.7-8.1-19.6-8.1c-8,0-14.6,2.7-19.8,8.1c-5.2,5.4-7.8,12.6-7.8,21.7c0,9.1,2.6,16.3,7.8,21.7
		c5.2,5.4,11.8,8.1,19.8,8.1C1530.5,2473.7,1537.1,2471,1542.3,2465.6z"/>
	<path fill="#151349" d="M1720.5,2390.1v89.6c0,19.7-5.1,34.4-15.4,44c-10.3,9.6-25.3,14.4-45,14.4c-10.4,0-20.3-1.3-29.6-3.8
		c-9.3-2.5-17.1-6.2-23.2-11l12.4-22.4c4.5,3.7,10.3,6.7,17.2,8.9c6.9,2.2,13.9,3.3,20.8,3.3c10.8,0,18.8-2.4,23.9-7.3
		c5.1-4.9,7.7-12.2,7.7-22.1v-4.6c-8.1,8.9-19.5,13.4-34,13.4c-9.9,0-18.9-2.2-27.1-6.5c-8.2-4.3-14.7-10.4-19.5-18.3
		c-4.8-7.9-7.2-16.9-7.2-27.2c0-10.3,2.4-19.3,7.2-27.2c4.8-7.9,11.3-14,19.5-18.3c8.2-4.3,17.2-6.5,27.1-6.5
		c15.6,0,27.5,5.1,35.6,15.4v-13.8H1720.5z M1681.8,2459.6c5.3-4.9,7.9-11.2,7.9-19.1c0-7.9-2.6-14.2-7.9-19.1
		c-5.3-4.9-12-7.3-20.3-7.3c-8.3,0-15.1,2.4-20.4,7.3c-5.3,4.9-8,11.2-8,19.1c0,7.9,2.7,14.2,8,19.1c5.3,4.9,12.1,7.3,20.4,7.3
		C1669.7,2466.9,1676.5,2464.5,1681.8,2459.6z"/>
	<path fill="#151349" d="M1854.3,2452.7h-81.4c1.5,6.7,4.9,11.9,10.4,15.8c5.5,3.9,12.3,5.8,20.4,5.8c5.6,0,10.6-0.8,14.9-2.5
		c4.3-1.7,8.4-4.3,12.1-7.9l16.6,18c-10.1,11.6-24.9,17.4-44.4,17.4c-12.1,0-22.9-2.4-32.2-7.1c-9.3-4.7-16.5-11.3-21.6-19.7
		c-5.1-8.4-7.6-17.9-7.6-28.6c0-10.5,2.5-20,7.5-28.5c5-8.5,11.9-15.1,20.6-19.8c8.7-4.7,18.5-7.1,29.3-7.1
		c10.5,0,20.1,2.3,28.6,6.8c8.5,4.5,15.2,11,20.1,19.5c4.9,8.5,7.3,18.3,7.3,29.5C1854.9,2444.7,1854.7,2447.5,1854.3,2452.7z
		 M1781.3,2418.1c-4.8,4-7.7,9.5-8.8,16.4h53c-1.1-6.8-4-12.2-8.8-16.3c-4.8-4.1-10.7-6.1-17.6-6.1
		C1792,2412.1,1786.1,2414.1,1781.3,2418.1z"/>
	<path fill="#151349" d="M1885.7,2496c-8.5-2.2-15.3-5-20.4-8.3l10.4-22.4c4.8,3.1,10.6,5.6,17.4,7.5c6.8,1.9,13.5,2.9,20,2.9
		c13.2,0,19.8-3.3,19.8-9.8c0-3.1-1.8-5.3-5.4-6.6c-3.6-1.3-9.1-2.5-16.6-3.4c-8.8-1.3-16.1-2.9-21.8-4.6
		c-5.7-1.7-10.7-4.8-14.9-9.2s-6.3-10.7-6.3-18.8c0-6.8,2-12.8,5.9-18.1c3.9-5.3,9.7-9.4,17.2-12.3c7.5-2.9,16.4-4.4,26.7-4.4
		c7.6,0,15.2,0.8,22.7,2.5c7.5,1.7,13.8,4,18.7,6.9l-10.4,22.2c-9.5-5.3-19.8-8-31-8c-6.7,0-11.7,0.9-15,2.8c-3.3,1.9-5,4.3-5,7.2
		c0,3.3,1.8,5.7,5.4,7c3.6,1.3,9.3,2.6,17.2,3.8c8.8,1.5,16,3,21.6,4.7c5.6,1.7,10.5,4.7,14.6,9.1c4.1,4.4,6.2,10.5,6.2,18.4
		c0,6.7-2,12.6-6,17.8s-9.8,9.2-17.5,12.1c-7.7,2.9-16.8,4.3-27.3,4.3C1902.9,2499.3,1894.2,2498.2,1885.7,2496z"/>
</g>
<rect x="845.6" y="2421.3" transform="matrix(-0.7071 -0.7071 0.7071 -0.7071 -143.4464 5033.2075)" fill="#151349" width="250.1" height="250.1"/>
<rect x="812.6" y="2462" fill="#FFFFFF" width="1165.4" height="112"/>
<rect x="724.1" y="2511.5" fill="#FFFFFF" width="444" height="242"/>
<polygon fill="#151349" points="967,2019.7 790.1,1842.9 1143.8,1842.9 "/>
<rect x="761.6" y="1785.4" fill="#FFFFFF" width="1244.4" height="136.5"/>
<circle fill="#FFFFFF" cx="1092" cy="1654" r="8.1"/>
<line fill="none" stroke="#FFFFFF" stroke-width="6" stroke-miterlimit="10" x1="1102.8" y1="1676.6" x2="1135.3" y2="1738"/>
<line fill="none" stroke="#FFFFFF" stroke-width="6" stroke-miterlimit="10" x1="2184" y1="1335.5" x2="1887" y2="1230"/>
<circle fill="#FFFFFF" cx="2218" cy="1346.3" r="15"/>
<circle fill="#FFFFFF" cx="2277" cy="1577.3" r="26.6"/>
<circle fill="#FFFFFF" cx="1831.9" cy="1640" r="8.1"/>
<line fill="none" stroke="#FFFFFF" stroke-width="6" stroke-miterlimit="10" x1="2255" y1="1618.1" x2="2194" y2="1750"/>
<line fill="none" stroke="#FFFFFF" stroke-width="6" stroke-miterlimit="10" x1="1840" y1="1662" x2="1887" y2="1780"/>
<line fill="none" stroke="#FFFFFF" stroke-width="6" stroke-miterlimit="10" x1="1798" y1="1640" x2="1626" y2="1648.1"/>
<circle fill="#FFFFFF" cx="1591" cy="1652" r="15"/>
<line fill="none" stroke="#FFFFFF" stroke-width="6" stroke-miterlimit="10" x1="1550" y1="1645.9" x2="1362" y2="1600.3"/>
<circle fill="#FFFFFF" cx="1756.1" cy="1406.4" r="15"/>
<rect x="1738.5" y="1428.3" fill="#151349" width="33" height="6.4"/>
<circle fill="#FFFFFF" cx="1332" cy="1585.3" r="17.9"/>
<line fill="none" x1="1039.2" y1="2422.1" x2="1039.2" y2="1957.5"/>
</svg>
