<?xml version="1.0" encoding="utf-8"?>
<!-- Generator: Adobe Illustrator 18.0.0, SVG Export Plug-In . SVG Version: 6.00 Build 0)  -->
<!DOCTYPE svg PUBLIC "-//W3C//DTD SVG 1.1//EN" "http://www.w3.org/Graphics/SVG/1.1/DTD/svg11.dtd">
<svg version="1.1" id="Layer_1" xmlns="http://www.w3.org/2000/svg" xmlns:xlink="http://www.w3.org/1999/xlink" x="0px" y="0px"
	 viewBox="538.4 446.5 2017.9 540" enable-background="new 538.4 446.5 2017.9 540" xml:space="preserve">
<rect x="538.4" y="446.5" display="none" fill="#F7F7F7" width="2017.9" height="540"/>
<polygon fill="#EAEAEA" enable-background="new    " points="1073,541.6 1105.8,608 1179,618.7 1126,670.4 1138.5,743.3 1073,708.9 
	1007.5,743.3 1020,670.4 967,618.7 1040.2,608 "/>
<line fill="none" stroke="#151349" stroke-width="40" stroke-miterlimit="10" x1="2542.1" y1="702.5" x2="2428.3" y2="816.3"/>
<line fill="none" stroke="#151349" stroke-width="40" stroke-miterlimit="10" x1="2528" y1="716.5" x2="2428.3" y2="616.8"/>
<polygon fill="#151349" points="738,541.6 770.8,608 844,618.7 791,670.4 803.5,743.3 738,708.9 672.5,743.3 685,670.4 632,618.7 
	705.2,608 "/>
<polygon fill="#EAEAEA" enable-background="new    " points="738,819.3 770.8,885.7 844,896.3 791,948 685,948 632,896.3 
	705.2,885.7 "/>
<polygon fill="#EAEAEA" enable-background="new    " points="1073,819.3 1105.8,885.7 1179,896.3 1126,948 1020,948 967,896.3 
	1040.2,885.7 "/>
<polygon fill="#EAEAEA" enable-background="new    " points="1408,819.3 1440.8,885.7 1514,896.3 1461,948 1355,948 1302,896.3 
	1375.2,885.7 "/>
<polygon fill="#EAEAEA" enable-background="new    " points="1743,819.3 1775.8,885.7 1849,896.3 1796,948 1690,948 1637,896.3 
	1710.2,885.7 "/>
<polygon fill="#EAEAEA" enable-background="new    " points="2078,819.3 2110.8,885.7 2184,896.3 2131,948 2025,948 1972,896.3 
	2045.2,885.7 "/>
<polygon fill="#EAEAEA" enable-background="new    " points="1408,541.6 1440.8,608 1514,618.7 1461,670.4 1473.5,743.3 1408,708.9 
	1342.5,743.3 1355,670.4 1302,618.7 1375.2,608 "/>
<polygon fill="#EAEAEA" enable-background="new    " points="1743,541.6 1775.8,608 1849,618.7 1796,670.4 1808.5,743.3 1743,708.9 
	1677.5,743.3 1690,670.4 1637,618.7 1710.2,608 "/>
<polygon fill="#EAEAEA" enable-background="new    " points="2078,541.6 2110.8,608 2184,618.7 2131,670.4 2143.5,743.3 2078,708.9 
	2012.5,743.3 2025,670.4 1972,618.7 2045.2,608 "/>
<text transform="matrix(1 0 0 1 944.7886 793.0113)" fill="#151349" font-family="'Montserrat-Bold'" font-size="250">74 Stars</text>
<rect x="558.4" y="466.5" fill="none" stroke="#151349" stroke-width="40" stroke-miterlimit="10" width="1790.9" height="500"/>
<rect x="2318.5" y="655.1" fill="#FFFFFF" width="61.5" height="122.9"/>
<line fill="none" stroke="#151349" stroke-width="40" stroke-miterlimit="10" x1="2160" y1="716.5" x2="2528" y2="716.5"/>
</svg>
