<?xml version="1.0" encoding="utf-8"?>
<!-- Generator: Adobe Illustrator 18.0.0, SVG Export Plug-In . SVG Version: 6.00 Build 0)  -->
<!DOCTYPE svg PUBLIC "-//W3C//DTD SVG 1.1//EN" "http://www.w3.org/Graphics/SVG/1.1/DTD/svg11.dtd">
<svg version="1.1" id="Layer_1" xmlns="http://www.w3.org/2000/svg" xmlns:xlink="http://www.w3.org/1999/xlink" x="0px" y="0px"
	 viewBox="862.1 -0.1 1110.5 2834.9" enable-background="new 862.1 -0.1 1110.5 2834.9" xml:space="preserve">
<linearGradient id="SVGID_1_" gradientUnits="userSpaceOnUse" x1="706.75" y1="-773.55" x2="706.75" y2="2834.1499" gradientTransform="matrix(0.7855 0 0 -0.7855 862.1697 2226.6301)">
	<stop  offset="0" style="stop-color:#00004C"/>
	<stop  offset="1" style="stop-color:#000000"/>
</linearGradient>
<rect x="862.6" y="0.4" fill="url(#SVGID_1_)" stroke="#231F20" stroke-miterlimit="10" width="1109.5" height="2833.9"/>
<text transform="matrix(1 0 0 1 929.8004 329.4243)" fill="#FFFFFF" font-family="'Montserrat-Bold'" font-size="127">Constellations</text>
<text transform="matrix(1 0 0 1 1755.4445 289.4243)" fill="#FFFFFF" font-family="'Montserrat-Bold'" font-size="78.5504"> </text>
<g>
	<rect x="938.7" y="105.2" fill="#FFFFFF" width="79.9" height="12.6"/>
	
		<rect x="945.9" y="72.6" transform="matrix(-0.7071 -0.7071 0.7071 -0.7071 1556.2086 840.5041)" fill="#FFFFFF" width="12.6" height="50.7"/>
	
		<rect x="932.2" y="120.9" transform="matrix(-0.7071 -0.7071 0.7071 -0.7071 1539.3677 892.0289)" fill="#FFFFFF" width="44.5" height="12.6"/>
</g>
<text transform="matrix(1 0 0 1 938.6475 427.2104)" fill="#FFFFFF" font-family="'Montserrat-Regular'" font-size="62.8404">2 / 12</text>
<circle fill="#FFFFFF" cx="1052.2" cy="585.7" r="7.5"/>
<circle fill="#FFFFFF" cx="1699.4" cy="578.1" r="7.5"/>
<circle fill="#FFFFFF" cx="1627.7" cy="723.1" r="7.5"/>
<circle fill="#FFFFFF" cx="1434.3" cy="699.5" r="7.5"/>
<circle fill="#FFFFFF" cx="1403.1" cy="585.7" r="7.5"/>
<circle fill="#FFFFFF" cx="1289.7" cy="537.7" r="7.5"/>
<line fill="none" stroke="#FFFFFF" stroke-width="4" stroke-miterlimit="10" x1="1075.1" y1="580.4" x2="1267.6" y2="542.9"/>
<line fill="none" stroke="#FFFFFF" stroke-width="4" stroke-miterlimit="10" x1="1309.1" y1="542.9" x2="1384.5" y2="575.9"/>
<line fill="none" stroke="#FFFFFF" stroke-width="4" stroke-miterlimit="10" x1="1410.7" y1="599.5" x2="1430.6" y2="684.8"/>
<line fill="none" stroke="#FFFFFF" stroke-width="4" stroke-miterlimit="10" x1="1447.4" y1="702.1" x2="1612.3" y2="723.1"/>
<line fill="none" stroke="#FFFFFF" stroke-width="4" stroke-miterlimit="10" x1="1635.3" y1="710.5" x2="1691.9" y2="593.3"/>
<circle fill="#FFFFFF" cx="1862.1" cy="111.5" r="50.3"/>
<text transform="matrix(1 0 0 1 1852.6907 138.1519)" font-family="'Montserrat-Bold'" font-size="62.8404">i</text>
<text transform="matrix(1 0 0 1 1301.2667 818.6265)" opacity="0.5" fill="#FFFFFF" enable-background="new    " font-family="'Montserrat-Bold'" font-size="62.8404">The Big Dipper</text>
<text transform="matrix(1 0 0 1 1207.7955 1300.3887)" fill="#FFFFFF" font-family="'Montserrat-Bold'" font-size="62.8404">Canis Major</text>
<text transform="matrix(1 0 0 1 1207.7955 1338.0933)" fill="#FFFFFF" font-family="'Montserrat-Regular'" font-size="31.4202" letter-spacing="19"> </text>
<text transform="matrix(1 0 0 1 1236.0743 1338.0933)" fill="#FFFFFF" font-family="'Montserrat-Regular'" font-size="31.4202">    (The Great Dog)</text>
<circle fill="#FFFFFF" cx="964.4" cy="1172.1" r="7.5"/>
<circle fill="#FFFFFF" cx="1121.8" cy="1370" r="7.5"/>
<circle fill="#FFFFFF" cx="1138.6" cy="1230.9" r="7.5"/>
<circle fill="#FFFFFF" cx="1642.8" cy="1228.3" r="7.5"/>
<circle fill="#FFFFFF" cx="1571.9" cy="934.8" r="7.5"/>
<circle fill="#FFFFFF" cx="1458.7" cy="1063.3" r="7.5"/>
<circle fill="#FFFFFF" cx="1437.2" cy="990.6" r="7.5"/>
<circle fill="#FFFFFF" cx="1523.9" cy="1103.7" r="13.6"/>
<line fill="none" stroke="#FFFFFF" stroke-width="4" stroke-miterlimit="10" x1="1134" y1="1247" x2="1123" y2="1353.8"/>
<line fill="none" stroke="#FFFFFF" stroke-width="4" stroke-miterlimit="10" x1="978.5" y1="1177.2" x2="1124.4" y2="1225.9"/>
<line fill="none" stroke="#FFFFFF" stroke-width="4" stroke-miterlimit="10" x1="1155.1" y1="1227.8" x2="1502.6" y2="1112.2"/>
<line fill="none" stroke="#FFFFFF" stroke-width="4" stroke-miterlimit="10" x1="1633.3" y1="1218.9" x2="1539" y2="1120.3"/>
<line fill="none" stroke="#FFFFFF" stroke-width="4" stroke-miterlimit="10" x1="1505.7" y1="1087.8" x2="1472.7" y2="1068.4"/>
<line fill="none" stroke="#FFFFFF" stroke-width="4" stroke-miterlimit="10" x1="1439.7" y1="1003.7" x2="1452.3" y2="1049.3"/>
<line fill="none" stroke="#FFFFFF" stroke-width="4" stroke-miterlimit="10" x1="1448.2" y1="980.9" x2="1559.1" y2="937.2"/>
<line fill="none" stroke="#FFFFFF" stroke-width="4" stroke-miterlimit="10" x1="1565.8" y1="943.6" x2="1469.9" y2="1053.4"/>
<circle opacity="0.5" fill="#FFFFFF" enable-background="new    " cx="972" cy="927.2" r="2.8"/>
<circle opacity="0.5" fill="#FFFFFF" enable-background="new    " cx="1161.8" cy="642.1" r="2.8"/>
<circle opacity="0.5" fill="#FFFFFF" enable-background="new    " cx="1638.2" cy="1021.6" r="2.8"/>
<circle opacity="0.5" fill="#FFFFFF" enable-background="new    " cx="1158.9" cy="880.2" r="2.8"/>
<circle opacity="0.5" fill="#FFFFFF" enable-background="new    " cx="1175" cy="1132.3" r="2.8"/>
<circle opacity="0.5" fill="#FFFFFF" enable-background="new    " cx="1371.5" cy="1016.6" r="2.8"/>
<circle opacity="0.5" fill="#FFFFFF" enable-background="new    " cx="887.5" cy="1228.5" r="2.8"/>
<circle opacity="0.5" fill="#FFFFFF" enable-background="new    " cx="934.2" cy="834.3" r="2.8"/>
<circle opacity="0.5" fill="#FFFFFF" enable-background="new    " cx="1828.8" cy="798.5" r="2.8"/>
<circle opacity="0.5" fill="#FFFFFF" enable-background="new    " cx="872.1" cy="719.9" r="2.8"/>
<circle opacity="0.5" fill="#FFFFFF" enable-background="new    " cx="1785.5" cy="651.9" r="2.8"/>
<circle opacity="0.5" fill="#FFFFFF" enable-background="new    " cx="1101.4" cy="622.5" r="2.8"/>
<circle opacity="0.5" fill="#FFFFFF" enable-background="new    " cx="1733.3" cy="408.4" r="2.8"/>
<circle opacity="0.5" fill="#FFFFFF" enable-background="new    " cx="1770.4" cy="368" r="2.8"/>
<circle opacity="0.5" fill="#FFFFFF" enable-background="new    " cx="1480.4" cy="642.1" r="2.8"/>
<circle opacity="0.5" fill="#FFFFFF" enable-background="new    " cx="914.8" cy="542.9" r="2.8"/>
<circle opacity="0.5" fill="#FFFFFF" enable-background="new    " cx="1529.8" cy="480.8" r="2.8"/>
<circle opacity="0.5" fill="#FFFFFF" enable-background="new    " cx="1181.9" cy="478" r="2.8"/>
<circle opacity="0.5" fill="#FFFFFF" enable-background="new    " cx="1058.1" cy="762.6" r="2.8"/>
<circle opacity="0.5" fill="#FFFFFF" enable-background="new    " cx="971.4" cy="1169.3" r="2.8"/>
<circle opacity="0.5" fill="#FFFFFF" enable-background="new    " cx="1309.1" cy="828.6" r="2.8"/>
<circle opacity="0.5" fill="#FFFFFF" enable-background="new    " cx="946.5" cy="1033.6" r="2.8"/>
<circle opacity="0.5" fill="#FFFFFF" enable-background="new    " cx="1917.7" cy="538.6" r="2.8"/>
<circle opacity="0.5" fill="#FFFFFF" enable-background="new    " cx="1957.6" cy="860.4" r="2.8"/>
<circle opacity="0.5" fill="#FFFFFF" enable-background="new    " cx="1447.6" cy="1286.7" r="2.8"/>
<circle opacity="0.5" fill="#FFFFFF" enable-background="new    " cx="1684.4" cy="1262.1" r="2.8"/>
<circle opacity="0.5" fill="#FFFFFF" enable-background="new    " cx="1933" cy="1217.1" r="2.8"/>
<circle opacity="0.5" fill="#FFFFFF" enable-background="new    " cx="1795.4" cy="1035.3" r="2.8"/>
<circle opacity="0.5" fill="#FFFFFF" enable-background="new    " cx="1435" cy="1348.9" r="2.8"/>
<circle opacity="0.5" fill="#FFFFFF" enable-background="new    " cx="1579.2" cy="1375.8" r="2.8"/>
<circle opacity="0.5" fill="#FFFFFF" enable-background="new    " cx="1615.9" cy="1118.9" r="2.8"/>
<circle opacity="0.5" fill="#FFFFFF" enable-background="new    " cx="1861.3" cy="1455.5" r="2.8"/>
<circle opacity="0.5" fill="#FFFFFF" enable-background="new    " cx="1319.4" cy="1361" r="2.8"/>
<circle opacity="0.5" fill="#FFFFFF" enable-background="new    " cx="1152.9" cy="1626.5" r="2.8"/>
<circle opacity="0.5" fill="#FFFFFF" enable-background="new    " cx="978.5" cy="1481.4" r="2.8"/>
<circle opacity="0.5" fill="#FFFFFF" enable-background="new    " cx="1022.9" cy="1315.8" r="2.8"/>
<circle opacity="0.5" fill="#FFFFFF" enable-background="new    " cx="1272" cy="1318.9" r="2.8"/>
<circle opacity="0.5" fill="#FFFFFF" enable-background="new    " cx="1176.1" cy="1429.6" r="2.8"/>
<circle opacity="0.5" fill="#FFFFFF" enable-background="new    " cx="1505.2" cy="1743.9" r="2.8"/>
<circle opacity="0.5" fill="#FFFFFF" enable-background="new    " cx="1677.5" cy="1657.7" r="2.8"/>
<circle opacity="0.5" fill="#FFFFFF" enable-background="new    " cx="1747.6" cy="1900.4" r="2.8"/>
<circle opacity="0.5" fill="#FFFFFF" enable-background="new    " cx="1914.5" cy="1745.1" r="2.8"/>
<circle opacity="0.5" fill="#FFFFFF" enable-background="new    " cx="1448.2" cy="1661.3" r="2.8"/>
<circle opacity="0.5" fill="#FFFFFF" enable-background="new    " cx="1813.1" cy="1574.9" r="2.8"/>
<circle opacity="0.5" fill="#FFFFFF" enable-background="new    " cx="1635.3" cy="1497.7" r="2.8"/>
<circle opacity="0.5" fill="#FFFFFF" enable-background="new    " cx="993.8" cy="1729.4" r="2.8"/>
<circle opacity="0.5" fill="#FFFFFF" enable-background="new    " cx="1711.2" cy="1405" r="2.8"/>
<circle opacity="0.5" fill="#FFFFFF" enable-background="new    " cx="1168.5" cy="1810.8" r="2.8"/>
<circle opacity="0.5" fill="#FFFFFF" enable-background="new    " cx="1009.7" cy="2014.3" r="2.8"/>
<circle opacity="0.5" fill="#FFFFFF" enable-background="new    " cx="1235.1" cy="2048.6" r="2.8"/>
<circle opacity="0.5" fill="#FFFFFF" enable-background="new    " cx="1023.1" cy="1633.4" r="2.8"/>
<circle opacity="0.5" fill="#FFFFFF" enable-background="new    " cx="1269.2" cy="1547" r="2.8"/>
<circle opacity="0.5" fill="#FFFFFF" enable-background="new    " cx="1317.5" cy="1865.7" r="2.8"/>
<circle opacity="0.5" fill="#FFFFFF" enable-background="new    " cx="906.8" cy="1795.7" r="2.8"/>
<circle opacity="0.5" fill="#FFFFFF" enable-background="new    " cx="1315.2" cy="2229" r="2.8"/>
<circle opacity="0.5" fill="#FFFFFF" enable-background="new    " cx="1517.1" cy="1946.2" r="2.8"/>
<circle opacity="0.5" fill="#FFFFFF" enable-background="new    " cx="1502.2" cy="2182.1" r="2.8"/>
<circle opacity="0.5" fill="#FFFFFF" enable-background="new    " cx="1518.2" cy="2434.2" r="2.8"/>
<circle opacity="0.5" fill="#FFFFFF" enable-background="new    " cx="1714.7" cy="2318.5" r="2.8"/>
<circle opacity="0.5" fill="#FFFFFF" enable-background="new    " cx="1277.5" cy="2136.1" r="2.8"/>
<circle opacity="0.5" fill="#FFFFFF" enable-background="new    " cx="1215.3" cy="2021.8" r="2.8"/>
<circle opacity="0.5" fill="#FFFFFF" enable-background="new    " cx="1579.4" cy="1549.8" r="2.8"/>
<circle opacity="0.5" fill="#FFFFFF" enable-background="new    " cx="1401.3" cy="2064.4" r="2.8"/>
<circle opacity="0.5" fill="#FFFFFF" enable-background="new    " cx="1652.4" cy="2130.5" r="2.8"/>
<circle opacity="0.5" fill="#FFFFFF" enable-background="new    " cx="1289.6" cy="2335.5" r="2.8"/>
<circle fill="#FFFFFF" cx="1102" cy="1682.1" r="7.5"/>
<circle fill="#FFFFFF" cx="1575.6" cy="1947.6" r="7.5"/>
<circle fill="#FFFFFF" cx="1575.6" cy="1947.6" r="7.5"/>
<circle fill="#FFFFFF" cx="1575.6" cy="1947.6" r="7.5"/>
<circle fill="#FFFFFF" cx="1575.6" cy="1947.6" r="7.5"/>
<circle fill="#FFFFFF" cx="1575.6" cy="1947.6" r="7.5"/>
<circle fill="#FFFFFF" cx="1575.6" cy="1947.6" r="7.5"/>
<circle fill="#FFFFFF" cx="1575.6" cy="1947.6" r="7.5"/>
<circle fill="#FFFFFF" cx="1575.6" cy="1947.6" r="7.5"/>
<circle fill="#FFFFFF" cx="1575.6" cy="1947.6" r="7.5"/>
<circle fill="#FFFFFF" cx="1575.6" cy="1947.6" r="7.5"/>
<circle fill="#FFFFFF" cx="1575.6" cy="1947.6" r="7.5"/>
<circle fill="#FFFFFF" cx="1575.6" cy="1947.6" r="7.5"/>
<circle fill="#FFFFFF" cx="1575.6" cy="1947.6" r="7.5"/>
<circle fill="#FFFFFF" cx="1575.6" cy="1947.6" r="7.5"/>
<circle fill="#FFFFFF" cx="1575.6" cy="1947.6" r="7.5"/>
<circle fill="#FFFFFF" cx="1575.6" cy="1947.6" r="7.5"/>
<circle fill="#FFFFFF" cx="1575.6" cy="1947.6" r="7.5"/>
<circle fill="#FFFFFF" cx="1445.4" cy="1771.6" r="7.5"/>
<circle fill="#FFFFFF" cx="1250.1" cy="1929.4" r="7.5"/>
<circle opacity="0.5" fill="#FFFFFF" enable-background="new    " cx="989.7" cy="2229.5" r="2.8"/>
<circle opacity="0.5" fill="#FFFFFF" enable-background="new    " cx="1179.7" cy="2261.5" r="2.8"/>
<circle opacity="0.5" fill="#FFFFFF" enable-background="new    " cx="1337.9" cy="2274.7" r="2.8"/>
<circle opacity="0.5" fill="#FFFFFF" enable-background="new    " cx="923.4" cy="2316.7" r="2.8"/>
<circle opacity="0.5" fill="#FFFFFF" enable-background="new    " cx="1303" cy="2435.5" r="2.8"/>
<circle opacity="0.5" fill="#FFFFFF" enable-background="new    " cx="987.2" cy="2377.9" r="2.8"/>
<circle opacity="0.5" fill="#FFFFFF" enable-background="new    " cx="1226.6" cy="2447.1" r="2.8"/>
<circle opacity="0.5" fill="#FFFFFF" enable-background="new    " cx="1063.4" cy="2322.3" r="2.8"/>
<circle opacity="0.5" fill="#FFFFFF" enable-background="new    " cx="1179.6" cy="2476.1" r="2.8"/>
<circle opacity="0.5" fill="#FFFFFF" enable-background="new    " cx="1285.6" cy="2594.4" r="2.8"/>
<circle opacity="0.5" fill="#FFFFFF" enable-background="new    " cx="955.5" cy="2340.2" r="2.8"/>
<circle opacity="0.5" fill="#FFFFFF" enable-background="new    " cx="1149.7" cy="2687.2" r="2.8"/>
<circle opacity="0.5" fill="#FFFFFF" enable-background="new    " cx="959.8" cy="2428.5" r="2.8"/>
<circle opacity="0.5" fill="#FFFFFF" enable-background="new    " cx="1086.3" cy="2643.2" r="2.8"/>
<circle opacity="0.5" fill="#FFFFFF" enable-background="new    " cx="1571.2" cy="2267.7" r="2.8"/>
<circle opacity="0.5" fill="#FFFFFF" enable-background="new    " cx="1732.5" cy="2162.2" r="2.8"/>
<circle opacity="0.5" fill="#FFFFFF" enable-background="new    " cx="1857.6" cy="2064.4" r="2.8"/>
<circle opacity="0.5" fill="#FFFFFF" enable-background="new    " cx="1581.8" cy="2376.5" r="2.8"/>
<circle opacity="0.5" fill="#FFFFFF" enable-background="new    " cx="1941.1" cy="2206.1" r="2.8"/>
<circle opacity="0.5" fill="#FFFFFF" enable-background="new    " cx="1670.1" cy="2378.2" r="2.8"/>
<circle opacity="0.5" fill="#FFFFFF" enable-background="new    " cx="1892.9" cy="2266.5" r="2.8"/>
<circle opacity="0.5" fill="#FFFFFF" enable-background="new    " cx="1570.9" cy="2441" r="2.8"/>
<circle opacity="0.5" fill="#FFFFFF" enable-background="new    " cx="1760.9" cy="2473.2" r="2.8"/>
<circle opacity="0.5" fill="#FFFFFF" enable-background="new    " cx="1919.1" cy="2486.4" r="2.8"/>
<circle opacity="0.5" fill="#FFFFFF" enable-background="new    " cx="1504.6" cy="2528.2" r="2.8"/>
<circle opacity="0.5" fill="#FFFFFF" enable-background="new    " cx="1884.2" cy="2647" r="2.8"/>
<circle opacity="0.5" fill="#FFFFFF" enable-background="new    " cx="1568.4" cy="2589.4" r="2.8"/>
<circle opacity="0.5" fill="#FFFFFF" enable-background="new    " cx="1807.8" cy="2658.6" r="2.8"/>
<circle fill="#FFFFFF" cx="1592.5" cy="2747.5" r="7.5"/>
<circle fill="#FFFFFF" cx="1867.6" cy="2538.6" r="7.5"/>
<circle fill="#FFFFFF" cx="1292.5" cy="2716.8" r="7.5"/>
<circle fill="#FFFFFF" cx="984.8" cy="2669.1" r="7.5"/>
<circle fill="#FFFFFF" cx="1652.4" cy="2647" r="7.5"/>
<circle fill="#FFFFFF" cx="1801.8" cy="2285.1" r="7.5"/>
<circle fill="#FFFFFF" cx="1574" cy="2184.8" r="7.5"/>
<circle fill="#FFFFFF" cx="1307.6" cy="2489.2" r="7.5"/>
<circle fill="#FFFFFF" cx="1082.3" cy="2418.1" r="7.5"/>
<circle fill="#FFFFFF" cx="1350.8" cy="2277.6" r="7.5"/>
<circle fill="#FFFFFF" cx="1840.7" cy="1664.1" r="7.5"/>
<line fill="none" stroke="#FFFFFF" stroke-width="4" stroke-miterlimit="10" x1="1109.5" y1="1698.7" x2="1238" y2="1914.7"/>
<line fill="none" stroke="#FFFFFF" stroke-width="4" stroke-miterlimit="10" x1="1432.3" y1="1783.9" x2="1266.4" y2="1914.7"/>
<text transform="matrix(1 0 0 1 1063.3708 131.3909)" fill="#FFFFFF" font-family="'Montserrat-Regular'" font-size="63">Tom</text>
<text transform="matrix(1 0 0 1 1489.9866 156.3909)" fill="#FFFFFF" font-family="'Montserrat-Bold'" font-size="111.9353"> </text>
</svg>
