<?xml version="1.0" encoding="utf-8"?>
<!-- Generator: Adobe Illustrator 18.0.0, SVG Export Plug-In . SVG Version: 6.00 Build 0)  -->
<!DOCTYPE svg PUBLIC "-//W3C//DTD SVG 1.1//EN" "http://www.w3.org/Graphics/SVG/1.1/DTD/svg11.dtd">
<svg version="1.1" id="Layer_1" xmlns="http://www.w3.org/2000/svg" xmlns:xlink="http://www.w3.org/1999/xlink" x="0px" y="0px"
	 viewBox="0 0 1412.5 2532.4" enable-background="new 0 0 1412.5 2532.4" xml:space="preserve">
<text transform="matrix(1 0 0 1 197.5982 207.9562)"><tspan x="0" y="0" fill="#141449" font-family="'Montserrat-Bold'" font-size="140">Stars</tspan><tspan x="371.3" y="0" fill="#141449" font-family="'Montserrat-Bold'" font-size="100"> </tspan></text>
<text transform="matrix(1 0 0 1 96.8612 332.4447)" fill="#141449" font-family="'Montserrat-Regular'" font-size="80">7 / 120</text>
<linearGradient id="SVGID_1_" gradientUnits="userSpaceOnUse" x1="1229.2209" y1="225.3243" x2="1229.2209" y2="97.3243">
	<stop  offset="0" style="stop-color:#141449"/>
	<stop  offset="1" style="stop-color:#000000"/>
</linearGradient>
<circle fill="url(#SVGID_1_)" cx="1229.2" cy="161.3" r="64"/>
<polygon fill="#E7E7E7" points="184.3,668.5 212.7,726.1 276.3,735.3 230.3,780.1 241.2,843.4 184.3,813.6 127.5,843.4 138.3,780.1 
	92.3,735.3 155.9,726.1 "/>
<polygon fill="#E7E7E7" points="445.3,668.5 473.7,726.1 537.3,735.3 491.3,780.1 502.1,843.4 445.3,813.6 388.4,843.4 399.3,780.1 
	353.3,735.3 416.9,726.1 "/>
<polygon fill="#E7E7E7" points="445.3,668.5 473.7,726.1 537.3,735.3 491.3,780.1 502.1,843.4 445.3,813.6 388.4,843.4 399.3,780.1 
	353.3,735.3 416.9,726.1 "/>
<polygon fill="#E7E7E7" points="706.2,668.5 734.7,726.1 798.2,735.3 752.2,780.1 763.1,843.4 706.2,813.6 649.4,843.4 660.3,780.1 
	614.3,735.3 677.8,726.1 "/>
<polygon fill="#E7E7E7" points="706.2,668.5 734.7,726.1 798.2,735.3 752.2,780.1 763.1,843.4 706.2,813.6 649.4,843.4 660.3,780.1 
	614.3,735.3 677.8,726.1 "/>
<polygon fill="#E7E7E7" points="967.2,668.5 995.6,726.1 1059.2,735.3 1013.2,780.1 1024.1,843.4 967.2,813.6 910.4,843.4 
	921.2,780.1 875.2,735.3 938.8,726.1 "/>
<polygon fill="#E7E7E7" points="967.2,668.5 995.6,726.1 1059.2,735.3 1013.2,780.1 1024.1,843.4 967.2,813.6 910.4,843.4 
	921.2,780.1 875.2,735.3 938.8,726.1 "/>
<polygon fill="#E7E7E7" points="1228.2,668.5 1256.6,726.1 1320.2,735.3 1274.2,780.1 1285,843.4 1228.2,813.6 1171.3,843.4 
	1182.2,780.1 1136.2,735.3 1199.8,726.1 "/>
<polygon fill="#E7E7E7" points="184.3,917.5 212.7,975.1 276.3,984.3 230.3,1029.2 241.2,1092.5 184.3,1062.6 127.5,1092.5 
	138.3,1029.2 92.3,984.3 155.9,975.1 "/>
<polygon fill="#E7E7E7" points="445.3,917.5 473.7,975.1 537.3,984.3 491.3,1029.2 502.1,1092.5 445.3,1062.6 388.4,1092.5 
	399.3,1029.2 353.3,984.3 416.9,975.1 "/>
<polygon fill="#E7E7E7" points="445.3,917.5 473.7,975.1 537.3,984.3 491.3,1029.2 502.1,1092.5 445.3,1062.6 388.4,1092.5 
	399.3,1029.2 353.3,984.3 416.9,975.1 "/>
<polygon fill="#E7E7E7" points="706.2,917.5 734.7,975.1 798.2,984.3 752.2,1029.2 763.1,1092.5 706.2,1062.6 649.4,1092.5 
	660.3,1029.2 614.3,984.3 677.8,975.1 "/>
<polygon fill="#E7E7E7" points="706.2,917.5 734.7,975.1 798.2,984.3 752.2,1029.2 763.1,1092.5 706.2,1062.6 649.4,1092.5 
	660.3,1029.2 614.3,984.3 677.8,975.1 "/>
<polygon fill="#E7E7E7" points="967.2,917.5 995.6,975.1 1059.2,984.3 1013.2,1029.2 1024.1,1092.5 967.2,1062.6 910.4,1092.5 
	921.2,1029.2 875.2,984.3 938.8,975.1 "/>
<polygon fill="#E7E7E7" points="967.2,917.5 995.6,975.1 1059.2,984.3 1013.2,1029.2 1024.1,1092.5 967.2,1062.6 910.4,1092.5 
	921.2,1029.2 875.2,984.3 938.8,975.1 "/>
<polygon fill="#E7E7E7" points="1228.2,917.5 1256.6,975.1 1320.2,984.3 1274.2,1029.2 1285,1092.5 1228.2,1062.6 1171.3,1092.5 
	1182.2,1029.2 1136.2,984.3 1199.8,975.1 "/>
<polygon fill="#E7E7E7" points="184.3,917.5 212.7,975.1 276.3,984.3 230.3,1029.2 241.2,1092.5 184.3,1062.6 127.5,1092.5 
	138.3,1029.2 92.3,984.3 155.9,975.1 "/>
<polygon fill="#E7E7E7" points="445.3,917.5 473.7,975.1 537.3,984.3 491.3,1029.2 502.1,1092.5 445.3,1062.6 388.4,1092.5 
	399.3,1029.2 353.3,984.3 416.9,975.1 "/>
<polygon fill="#E7E7E7" points="445.3,917.5 473.7,975.1 537.3,984.3 491.3,1029.2 502.1,1092.5 445.3,1062.6 388.4,1092.5 
	399.3,1029.2 353.3,984.3 416.9,975.1 "/>
<polygon fill="#E7E7E7" points="706.2,917.5 734.7,975.1 798.2,984.3 752.2,1029.2 763.1,1092.5 706.2,1062.6 649.4,1092.5 
	660.3,1029.2 614.3,984.3 677.8,975.1 "/>
<polygon fill="#E7E7E7" points="706.2,917.5 734.7,975.1 798.2,984.3 752.2,1029.2 763.1,1092.5 706.2,1062.6 649.4,1092.5 
	660.3,1029.2 614.3,984.3 677.8,975.1 "/>
<polygon fill="#E7E7E7" points="967.2,917.5 995.6,975.1 1059.2,984.3 1013.2,1029.2 1024.1,1092.5 967.2,1062.6 910.4,1092.5 
	921.2,1029.2 875.2,984.3 938.8,975.1 "/>
<polygon fill="#E7E7E7" points="967.2,917.5 995.6,975.1 1059.2,984.3 1013.2,1029.2 1024.1,1092.5 967.2,1062.6 910.4,1092.5 
	921.2,1029.2 875.2,984.3 938.8,975.1 "/>
<polygon fill="#E7E7E7" points="1228.2,917.5 1256.6,975.1 1320.2,984.3 1274.2,1029.2 1285,1092.5 1228.2,1062.6 1171.3,1092.5 
	1182.2,1029.2 1136.2,984.3 1199.8,975.1 "/>
<polygon fill="#E7E7E7" points="184.3,1166.5 212.7,1224.1 276.3,1233.3 230.3,1278.2 241.2,1341.5 184.3,1311.6 127.5,1341.5 
	138.3,1278.2 92.3,1233.3 155.9,1224.1 "/>
<polygon fill="#E7E7E7" points="445.3,1166.5 473.7,1224.1 537.3,1233.3 491.3,1278.2 502.1,1341.5 445.3,1311.6 388.4,1341.5 
	399.3,1278.2 353.3,1233.3 416.9,1224.1 "/>
<polygon fill="#E7E7E7" points="445.3,1166.5 473.7,1224.1 537.3,1233.3 491.3,1278.2 502.1,1341.5 445.3,1311.6 388.4,1341.5 
	399.3,1278.2 353.3,1233.3 416.9,1224.1 "/>
<polygon fill="#E7E7E7" points="706.2,1166.5 734.7,1224.1 798.2,1233.3 752.2,1278.2 763.1,1341.5 706.2,1311.6 649.4,1341.5 
	660.3,1278.2 614.3,1233.3 677.8,1224.1 "/>
<polygon fill="#E7E7E7" points="706.2,1166.5 734.7,1224.1 798.2,1233.3 752.2,1278.2 763.1,1341.5 706.2,1311.6 649.4,1341.5 
	660.3,1278.2 614.3,1233.3 677.8,1224.1 "/>
<polygon fill="#E7E7E7" points="967.2,1166.5 995.6,1224.1 1059.2,1233.3 1013.2,1278.2 1024.1,1341.5 967.2,1311.6 910.4,1341.5 
	921.2,1278.2 875.2,1233.3 938.8,1224.1 "/>
<polygon fill="#E7E7E7" points="967.2,1166.5 995.6,1224.1 1059.2,1233.3 1013.2,1278.2 1024.1,1341.5 967.2,1311.6 910.4,1341.5 
	921.2,1278.2 875.2,1233.3 938.8,1224.1 "/>
<polygon fill="#E7E7E7" points="1228.2,1166.5 1256.6,1224.1 1320.2,1233.3 1274.2,1278.2 1285,1341.5 1228.2,1311.6 1171.3,1341.5 
	1182.2,1278.2 1136.2,1233.3 1199.8,1224.1 "/>
<polygon fill="#E7E7E7" points="184.3,1166.5 212.7,1224.1 276.3,1233.3 230.3,1278.2 241.2,1341.5 184.3,1311.6 127.5,1341.5 
	138.3,1278.2 92.3,1233.3 155.9,1224.1 "/>
<polygon fill="#E7E7E7" points="445.3,1166.5 473.7,1224.1 537.3,1233.3 491.3,1278.2 502.1,1341.5 445.3,1311.6 388.4,1341.5 
	399.3,1278.2 353.3,1233.3 416.9,1224.1 "/>
<polygon fill="#E7E7E7" points="445.3,1166.5 473.7,1224.1 537.3,1233.3 491.3,1278.2 502.1,1341.5 445.3,1311.6 388.4,1341.5 
	399.3,1278.2 353.3,1233.3 416.9,1224.1 "/>
<polygon fill="#E7E7E7" points="706.2,1166.5 734.7,1224.1 798.2,1233.3 752.2,1278.2 763.1,1341.5 706.2,1311.6 649.4,1341.5 
	660.3,1278.2 614.3,1233.3 677.8,1224.1 "/>
<polygon fill="#E7E7E7" points="706.2,1166.5 734.7,1224.1 798.2,1233.3 752.2,1278.2 763.1,1341.5 706.2,1311.6 649.4,1341.5 
	660.3,1278.2 614.3,1233.3 677.8,1224.1 "/>
<polygon fill="#E7E7E7" points="967.2,1166.5 995.6,1224.1 1059.2,1233.3 1013.2,1278.2 1024.1,1341.5 967.2,1311.6 910.4,1341.5 
	921.2,1278.2 875.2,1233.3 938.8,1224.1 "/>
<polygon fill="#E7E7E7" points="967.2,1166.5 995.6,1224.1 1059.2,1233.3 1013.2,1278.2 1024.1,1341.5 967.2,1311.6 910.4,1341.5 
	921.2,1278.2 875.2,1233.3 938.8,1224.1 "/>
<polygon fill="#E7E7E7" points="1228.2,1166.5 1256.6,1224.1 1320.2,1233.3 1274.2,1278.2 1285,1341.5 1228.2,1311.6 1171.3,1341.5 
	1182.2,1278.2 1136.2,1233.3 1199.8,1224.1 "/>
<polygon fill="#E7E7E7" points="184.3,1415.5 212.7,1473.1 276.3,1482.4 230.3,1527.2 241.2,1590.5 184.3,1560.6 127.5,1590.5 
	138.3,1527.2 92.3,1482.4 155.9,1473.1 "/>
<polygon fill="#E7E7E7" points="445.3,1415.5 473.7,1473.1 537.3,1482.4 491.3,1527.2 502.1,1590.5 445.3,1560.6 388.4,1590.5 
	399.3,1527.2 353.3,1482.4 416.9,1473.1 "/>
<polygon fill="#E7E7E7" points="445.3,1415.5 473.7,1473.1 537.3,1482.4 491.3,1527.2 502.1,1590.5 445.3,1560.6 388.4,1590.5 
	399.3,1527.2 353.3,1482.4 416.9,1473.1 "/>
<polygon fill="#E7E7E7" points="706.2,1415.5 734.7,1473.1 798.2,1482.4 752.2,1527.2 763.1,1590.5 706.2,1560.6 649.4,1590.5 
	660.3,1527.2 614.3,1482.4 677.8,1473.1 "/>
<polygon fill="#E7E7E7" points="706.2,1415.5 734.7,1473.1 798.2,1482.4 752.2,1527.2 763.1,1590.5 706.2,1560.6 649.4,1590.5 
	660.3,1527.2 614.3,1482.4 677.8,1473.1 "/>
<polygon fill="#E7E7E7" points="967.2,1415.5 995.6,1473.1 1059.2,1482.4 1013.2,1527.2 1024.1,1590.5 967.2,1560.6 910.4,1590.5 
	921.2,1527.2 875.2,1482.4 938.8,1473.1 "/>
<polygon fill="#E7E7E7" points="967.2,1415.5 995.6,1473.1 1059.2,1482.4 1013.2,1527.2 1024.1,1590.5 967.2,1560.6 910.4,1590.5 
	921.2,1527.2 875.2,1482.4 938.8,1473.1 "/>
<polygon fill="#E7E7E7" points="1228.2,1415.5 1256.6,1473.1 1320.2,1482.4 1274.2,1527.2 1285,1590.5 1228.2,1560.6 1171.3,1590.5 
	1182.2,1527.2 1136.2,1482.4 1199.8,1473.1 "/>
<polygon fill="#E7E7E7" points="184.3,1415.5 212.7,1473.1 276.3,1482.4 230.3,1527.2 241.2,1590.5 184.3,1560.6 127.5,1590.5 
	138.3,1527.2 92.3,1482.4 155.9,1473.1 "/>
<polygon fill="#E7E7E7" points="445.3,1415.5 473.7,1473.1 537.3,1482.4 491.3,1527.2 502.1,1590.5 445.3,1560.6 388.4,1590.5 
	399.3,1527.2 353.3,1482.4 416.9,1473.1 "/>
<polygon fill="#E7E7E7" points="445.3,1415.5 473.7,1473.1 537.3,1482.4 491.3,1527.2 502.1,1590.5 445.3,1560.6 388.4,1590.5 
	399.3,1527.2 353.3,1482.4 416.9,1473.1 "/>
<polygon fill="#E7E7E7" points="706.2,1415.5 734.7,1473.1 798.2,1482.4 752.2,1527.2 763.1,1590.5 706.2,1560.6 649.4,1590.5 
	660.3,1527.2 614.3,1482.4 677.8,1473.1 "/>
<polygon fill="#E7E7E7" points="706.2,1415.5 734.7,1473.1 798.2,1482.4 752.2,1527.2 763.1,1590.5 706.2,1560.6 649.4,1590.5 
	660.3,1527.2 614.3,1482.4 677.8,1473.1 "/>
<polygon fill="#E7E7E7" points="967.2,1415.5 995.6,1473.1 1059.2,1482.4 1013.2,1527.2 1024.1,1590.5 967.2,1560.6 910.4,1590.5 
	921.2,1527.2 875.2,1482.4 938.8,1473.1 "/>
<polygon fill="#E7E7E7" points="967.2,1415.5 995.6,1473.1 1059.2,1482.4 1013.2,1527.2 1024.1,1590.5 967.2,1560.6 910.4,1590.5 
	921.2,1527.2 875.2,1482.4 938.8,1473.1 "/>
<polygon fill="#E7E7E7" points="1228.2,1415.5 1256.6,1473.1 1320.2,1482.4 1274.2,1527.2 1285,1590.5 1228.2,1560.6 1171.3,1590.5 
	1182.2,1527.2 1136.2,1482.4 1199.8,1473.1 "/>
<polygon fill="#E7E7E7" points="184.3,1664.5 212.7,1722.1 276.3,1731.4 230.3,1776.2 241.2,1839.5 184.3,1809.6 127.5,1839.5 
	138.3,1776.2 92.3,1731.4 155.9,1722.1 "/>
<polygon fill="#E7E7E7" points="445.3,1664.5 473.7,1722.1 537.3,1731.4 491.3,1776.2 502.1,1839.5 445.3,1809.6 388.4,1839.5 
	399.3,1776.2 353.3,1731.4 416.9,1722.1 "/>
<polygon fill="#E7E7E7" points="445.3,1664.5 473.7,1722.1 537.3,1731.4 491.3,1776.2 502.1,1839.5 445.3,1809.6 388.4,1839.5 
	399.3,1776.2 353.3,1731.4 416.9,1722.1 "/>
<polygon fill="#E7E7E7" points="706.2,1664.5 734.7,1722.1 798.2,1731.4 752.2,1776.2 763.1,1839.5 706.2,1809.6 649.4,1839.5 
	660.3,1776.2 614.3,1731.4 677.8,1722.1 "/>
<polygon fill="#E7E7E7" points="706.2,1664.5 734.7,1722.1 798.2,1731.4 752.2,1776.2 763.1,1839.5 706.2,1809.6 649.4,1839.5 
	660.3,1776.2 614.3,1731.4 677.8,1722.1 "/>
<polygon fill="#E7E7E7" points="967.2,1664.5 995.6,1722.1 1059.2,1731.4 1013.2,1776.2 1024.1,1839.5 967.2,1809.6 910.4,1839.5 
	921.2,1776.2 875.2,1731.4 938.8,1722.1 "/>
<polygon fill="#E7E7E7" points="967.2,1664.5 995.6,1722.1 1059.2,1731.4 1013.2,1776.2 1024.1,1839.5 967.2,1809.6 910.4,1839.5 
	921.2,1776.2 875.2,1731.4 938.8,1722.1 "/>
<polygon fill="#E7E7E7" points="1228.2,1664.5 1256.6,1722.1 1320.2,1731.4 1274.2,1776.2 1285,1839.5 1228.2,1809.6 1171.3,1839.5 
	1182.2,1776.2 1136.2,1731.4 1199.8,1722.1 "/>
<polygon fill="#E7E7E7" points="184.3,1664.5 212.7,1722.1 276.3,1731.4 230.3,1776.2 241.2,1839.5 184.3,1809.6 127.5,1839.5 
	138.3,1776.2 92.3,1731.4 155.9,1722.1 "/>
<polygon fill="#E7E7E7" points="445.3,1664.5 473.7,1722.1 537.3,1731.4 491.3,1776.2 502.1,1839.5 445.3,1809.6 388.4,1839.5 
	399.3,1776.2 353.3,1731.4 416.9,1722.1 "/>
<polygon fill="#E7E7E7" points="445.3,1664.5 473.7,1722.1 537.3,1731.4 491.3,1776.2 502.1,1839.5 445.3,1809.6 388.4,1839.5 
	399.3,1776.2 353.3,1731.4 416.9,1722.1 "/>
<polygon fill="#E7E7E7" points="706.2,1664.5 734.7,1722.1 798.2,1731.4 752.2,1776.2 763.1,1839.5 706.2,1809.6 649.4,1839.5 
	660.3,1776.2 614.3,1731.4 677.8,1722.1 "/>
<polygon fill="#E7E7E7" points="706.2,1664.5 734.7,1722.1 798.2,1731.4 752.2,1776.2 763.1,1839.5 706.2,1809.6 649.4,1839.5 
	660.3,1776.2 614.3,1731.4 677.8,1722.1 "/>
<polygon fill="#E7E7E7" points="967.2,1664.5 995.6,1722.1 1059.2,1731.4 1013.2,1776.2 1024.1,1839.5 967.2,1809.6 910.4,1839.5 
	921.2,1776.2 875.2,1731.4 938.8,1722.1 "/>
<polygon fill="#E7E7E7" points="967.2,1664.5 995.6,1722.1 1059.2,1731.4 1013.2,1776.2 1024.1,1839.5 967.2,1809.6 910.4,1839.5 
	921.2,1776.2 875.2,1731.4 938.8,1722.1 "/>
<polygon fill="#E7E7E7" points="1228.2,1664.5 1256.6,1722.1 1320.2,1731.4 1274.2,1776.2 1285,1839.5 1228.2,1809.6 1171.3,1839.5 
	1182.2,1776.2 1136.2,1731.4 1199.8,1722.1 "/>
<polygon fill="#E7E7E7" points="184.3,1913.6 212.7,1971.2 276.3,1980.4 230.3,2025.2 241.2,2088.6 184.3,2058.7 127.5,2088.6 
	138.3,2025.2 92.3,1980.4 155.9,1971.2 "/>
<polygon fill="#E7E7E7" points="445.3,1913.6 473.7,1971.2 537.3,1980.4 491.3,2025.2 502.1,2088.6 445.3,2058.7 388.4,2088.6 
	399.3,2025.2 353.3,1980.4 416.9,1971.2 "/>
<polygon fill="#E7E7E7" points="445.3,1913.6 473.7,1971.2 537.3,1980.4 491.3,2025.2 502.1,2088.6 445.3,2058.7 388.4,2088.6 
	399.3,2025.2 353.3,1980.4 416.9,1971.2 "/>
<polygon fill="#E7E7E7" points="706.2,1913.6 734.7,1971.2 798.2,1980.4 752.2,2025.2 763.1,2088.6 706.2,2058.7 649.4,2088.6 
	660.3,2025.2 614.3,1980.4 677.8,1971.2 "/>
<polygon fill="#E7E7E7" points="706.2,1913.6 734.7,1971.2 798.2,1980.4 752.2,2025.2 763.1,2088.6 706.2,2058.7 649.4,2088.6 
	660.3,2025.2 614.3,1980.4 677.8,1971.2 "/>
<polygon fill="#E7E7E7" points="967.2,1913.6 995.6,1971.2 1059.2,1980.4 1013.2,2025.2 1024.1,2088.6 967.2,2058.7 910.4,2088.6 
	921.2,2025.2 875.2,1980.4 938.8,1971.2 "/>
<polygon fill="#E7E7E7" points="967.2,1913.6 995.6,1971.2 1059.2,1980.4 1013.2,2025.2 1024.1,2088.6 967.2,2058.7 910.4,2088.6 
	921.2,2025.2 875.2,1980.4 938.8,1971.2 "/>
<polygon fill="#E7E7E7" points="1228.2,1913.6 1256.6,1971.2 1320.2,1980.4 1274.2,2025.2 1285,2088.6 1228.2,2058.7 1171.3,2088.6 
	1182.2,2025.2 1136.2,1980.4 1199.8,1971.2 "/>
<polygon fill="#E7E7E7" points="1228.2,405.5 1256.6,463.1 1320.2,472.3 1274.2,517.1 1285,580.4 1228.2,550.6 1171.3,580.4 
	1182.2,517.1 1136.2,472.3 1199.8,463.1 "/>
<circle fill="#E31E26" cx="967.2" cy="493" r="43.1"/>
<circle fill="none" stroke="#A7A9AC" stroke-width="3" stroke-miterlimit="10" cx="706.2" cy="493" r="92"/>
<circle fill="#FCEE21" cx="184.3" cy="493" r="41.2"/>
<circle fill="#8A5E3C" cx="448" cy="493" r="25.3"/>
<text transform="matrix(1 0 0 1 141.8073 599.9525)" fill="#151349" font-family="'Montserrat-Medium'" font-size="60">× 3</text>
<text transform="matrix(1 0 0 1 404.4671 599.9523)" fill="#151349" font-family="'Montserrat-Medium'" font-size="60">× 2</text>
<line fill="none" stroke="#FFFFFF" stroke-width="12" stroke-miterlimit="10" x1="1229.2" y1="155.8" x2="1229.2" y2="193.3"/>
<circle fill="#FFFFFF" cx="1229.2" cy="134.7" r="8"/>
<line fill="none" stroke="#151349" stroke-width="18" stroke-miterlimit="10" x1="97" y1="166.2" x2="146.2" y2="117"/>
<line fill="none" stroke="#151349" stroke-width="18" stroke-miterlimit="10" x1="146.2" y1="202.6" x2="97" y2="153.4"/>
</svg>
