<?xml version="1.0" encoding="utf-8"?>
<!-- Generator: Adobe Illustrator 18.0.0, SVG Export Plug-In . SVG Version: 6.00 Build 0)  -->
<!DOCTYPE svg PUBLIC "-//W3C//DTD SVG 1.1//EN" "http://www.w3.org/Graphics/SVG/1.1/DTD/svg11.dtd">
<svg version="1.1" id="Layer_1" xmlns="http://www.w3.org/2000/svg" xmlns:xlink="http://www.w3.org/1999/xlink" x="0px" y="0px"
	 viewBox="0 0 1564.9 3608.7" enable-background="new 0 0 1564.9 3608.7" xml:space="preserve">
<linearGradient id="SVGID_1_" gradientUnits="userSpaceOnUse" x1="782.4737" y1="3608.1665" x2="782.4737" y2="0.5">
	<stop  offset="0" style="stop-color:#00004C"/>
	<stop  offset="1" style="stop-color:#000000"/>
</linearGradient>
<rect x="0.5" y="0.5" fill="url(#SVGID_1_)" stroke="#231F20" stroke-miterlimit="10" width="1563.9" height="3607.7"/>
<text transform="matrix(1 0 0 1 237.5457 368.4562)"><tspan x="0" y="0" fill="#FFFFFF" font-family="'Montserrat-Bold'" font-size="140">Constellations</tspan><tspan x="1051.1" y="0" fill="#FFFFFF" font-family="'Montserrat-Bold'" font-size="100"> </tspan></text>
<g>
	<rect x="248.8" y="133.9" fill="#FFFFFF" width="101.7" height="16"/>
	
		<rect x="258.1" y="92.4" transform="matrix(0.7071 0.7071 -0.7071 0.7071 166.0869 -151.6007)" fill="#FFFFFF" width="16" height="64.6"/>
	
		<rect x="240.5" y="153.9" transform="matrix(0.7071 0.7071 -0.7071 0.7071 193.2409 -142.6825)" fill="#FFFFFF" width="56.7" height="16"/>
</g>
<text transform="matrix(1 0 0 1 248.8087 492.9448)" fill="#FFFFFF" font-family="'Montserrat-Regular'" font-size="80">2 / 12</text>
<circle fill="#FFFFFF" cx="393.3" cy="745.6" r="9.6"/>
<circle fill="#FFFFFF" cx="1217.4" cy="736" r="9.6"/>
<circle fill="#FFFFFF" cx="1126.1" cy="920.5" r="9.6"/>
<circle fill="#FFFFFF" cx="879.7" cy="890.5" r="9.6"/>
<circle fill="#FFFFFF" cx="840.1" cy="745.6" r="9.6"/>
<circle fill="#FFFFFF" cx="695.7" cy="684.5" r="9.6"/>
<line fill="none" stroke="#FFFFFF" stroke-width="4" stroke-miterlimit="10" x1="422.6" y1="738.9" x2="667.5" y2="691.2"/>
<line fill="none" stroke="#FFFFFF" stroke-width="4" stroke-miterlimit="10" x1="720.4" y1="691.2" x2="816.4" y2="733.2"/>
<line fill="none" stroke="#FFFFFF" stroke-width="4" stroke-miterlimit="10" x1="849.7" y1="763.2" x2="875.1" y2="871.8"/>
<line fill="none" stroke="#FFFFFF" stroke-width="4" stroke-miterlimit="10" x1="896.4" y1="893.8" x2="1106.4" y2="920.5"/>
<line fill="none" stroke="#FFFFFF" stroke-width="4" stroke-miterlimit="10" x1="1135.7" y1="904.5" x2="1207.7" y2="755.3"/>
<circle fill="#FFFFFF" cx="1424.4" cy="141.9" r="64"/>
<text transform="matrix(1 0 0 1 1412.447 175.8766)" font-family="'Montserrat-Bold'" font-size="80">i</text>
<text transform="matrix(1 0 0 1 710.4471 1042.1664)" opacity="0.5" fill="#FFFFFF" font-family="'Montserrat-Bold'" font-size="80">The Big Dipper</text>
<text transform="matrix(1 0 0 1 591.4525 1655.4822)" opacity="0.5"><tspan x="0" y="0" fill="#FFFFFF" font-family="'Montserrat-Bold'" font-size="80">Canis Major</tspan><tspan x="0" y="48" fill="#FFFFFF" font-family="'Montserrat-Regular'" font-size="40" letter-spacing="25">	</tspan><tspan x="36" y="48" fill="#FFFFFF" font-family="'Montserrat-Regular'" font-size="40">    (The Great Dog)</tspan></text>
<circle fill="#FFFFFF" cx="281.6" cy="1492.2" r="9.6"/>
<circle fill="#FFFFFF" cx="481.9" cy="1744.1" r="9.6"/>
<circle fill="#FFFFFF" cx="503.4" cy="1567" r="9.6"/>
<circle fill="#FFFFFF" cx="1145.2" cy="1563.7" r="9.6"/>
<circle fill="#FFFFFF" cx="1055" cy="1190" r="9.6"/>
<circle fill="#FFFFFF" cx="910.8" cy="1353.6" r="9.6"/>
<circle fill="#FFFFFF" cx="883.5" cy="1261.1" r="9.6"/>
<circle fill="#FFFFFF" cx="993.8" cy="1405.1" r="17.3"/>
<line fill="none" stroke="#FFFFFF" stroke-width="4" stroke-miterlimit="10" x1="497.5" y1="1587.5" x2="483.5" y2="1723.5"/>
<line fill="none" stroke="#FFFFFF" stroke-width="4" stroke-miterlimit="10" x1="299.5" y1="1498.6" x2="485.3" y2="1560.7"/>
<line fill="none" stroke="#FFFFFF" stroke-width="4" stroke-miterlimit="10" x1="524.4" y1="1563.1" x2="966.8" y2="1415.9"/>
<line fill="none" stroke="#FFFFFF" stroke-width="4" stroke-miterlimit="10" x1="1133.2" y1="1551.8" x2="1013.1" y2="1426.2"/>
<line fill="none" stroke="#FFFFFF" stroke-width="4" stroke-miterlimit="10" x1="970.8" y1="1384.9" x2="928.7" y2="1360.1"/>
<line fill="none" stroke="#FFFFFF" stroke-width="4" stroke-miterlimit="10" x1="886.7" y1="1277.8" x2="902.8" y2="1335.8"/>
<line fill="none" stroke="#FFFFFF" stroke-width="4" stroke-miterlimit="10" x1="897.5" y1="1248.7" x2="1038.6" y2="1193.1"/>
<line fill="none" stroke="#FFFFFF" stroke-width="4" stroke-miterlimit="10" x1="1047.3" y1="1201.3" x2="925.1" y2="1341.1"/>
<circle opacity="0.5" fill="#FFFFFF" cx="291.3" cy="1180.4" r="3.6"/>
<circle opacity="0.5" fill="#FFFFFF" cx="532.9" cy="817.5" r="3.6"/>
<circle opacity="0.5" fill="#FFFFFF" cx="1139.3" cy="1300.6" r="3.6"/>
<circle opacity="0.5" fill="#FFFFFF" cx="529.3" cy="1120.5" r="3.6"/>
<circle opacity="0.5" fill="#FFFFFF" cx="549.7" cy="1441.5" r="3.6"/>
<circle opacity="0.5" fill="#FFFFFF" cx="799.8" cy="1294.2" r="3.6"/>
<circle opacity="0.5" fill="#FFFFFF" cx="183.8" cy="1564" r="3.6"/>
<circle opacity="0.5" fill="#FFFFFF" cx="243.2" cy="1062.1" r="3.6"/>
<circle opacity="0.5" fill="#FFFFFF" cx="1382" cy="1016.5" r="3.6"/>
<circle opacity="0.5" fill="#FFFFFF" cx="164" cy="916.5" r="3.6"/>
<circle opacity="0.5" fill="#FFFFFF" cx="1327" cy="829.9" r="3.6"/>
<circle opacity="0.5" fill="#FFFFFF" cx="456" cy="792.5" r="3.6"/>
<circle opacity="0.5" fill="#FFFFFF" cx="1260.4" cy="519.9" r="3.6"/>
<circle opacity="0.5" fill="#FFFFFF" cx="1307.7" cy="468.5" r="3.6"/>
<circle opacity="0.5" fill="#FFFFFF" cx="938.4" cy="817.5" r="3.6"/>
<circle opacity="0.5" fill="#FFFFFF" cx="218.4" cy="691.2" r="3.6"/>
<circle opacity="0.5" fill="#FFFFFF" cx="1001.4" cy="612.1" r="3.6"/>
<circle opacity="0.5" fill="#FFFFFF" cx="558.4" cy="608.5" r="3.6"/>
<circle opacity="0.5" fill="#FFFFFF" cx="400.9" cy="970.8" r="3.6"/>
<circle opacity="0.5" fill="#FFFFFF" cx="290.4" cy="1488.6" r="3.6"/>
<circle opacity="0.5" fill="#FFFFFF" cx="720.4" cy="1054.9" r="3.6"/>
<circle opacity="0.5" fill="#FFFFFF" cx="258.7" cy="1315.8" r="3.6"/>
<circle opacity="0.5" fill="#FFFFFF" cx="1495.2" cy="685.7" r="3.6"/>
<circle opacity="0.5" fill="#FFFFFF" cx="1546" cy="1095.3" r="3.6"/>
<circle opacity="0.5" fill="#FFFFFF" cx="896.8" cy="1638" r="3.6"/>
<circle opacity="0.5" fill="#FFFFFF" cx="1198.2" cy="1606.7" r="3.6"/>
<circle opacity="0.5" fill="#FFFFFF" cx="1514.7" cy="1549.5" r="3.6"/>
<circle opacity="0.5" fill="#FFFFFF" cx="1339.6" cy="1318" r="3.6"/>
<circle opacity="0.5" fill="#FFFFFF" cx="880.8" cy="1717.2" r="3.6"/>
<circle opacity="0.5" fill="#FFFFFF" cx="1064.2" cy="1751.5" r="3.6"/>
<circle opacity="0.5" fill="#FFFFFF" cx="1111" cy="1424.4" r="3.6"/>
<circle opacity="0.5" fill="#FFFFFF" cx="1423.4" cy="1853" r="3.6"/>
<circle opacity="0.5" fill="#FFFFFF" cx="733.6" cy="1732.7" r="3.6"/>
<circle opacity="0.5" fill="#FFFFFF" cx="521.6" cy="2070.7" r="3.6"/>
<circle opacity="0.5" fill="#FFFFFF" cx="299.5" cy="1885.9" r="3.6"/>
<circle opacity="0.5" fill="#FFFFFF" cx="356" cy="1675.1" r="3.6"/>
<circle opacity="0.5" fill="#FFFFFF" cx="673.3" cy="1679" r="3.6"/>
<circle opacity="0.5" fill="#FFFFFF" cx="551.1" cy="1820" r="3.6"/>
<circle opacity="0.5" fill="#FFFFFF" cx="970" cy="2220.1" r="3.6"/>
<circle opacity="0.5" fill="#FFFFFF" cx="1189.5" cy="2110.3" r="3.6"/>
<circle opacity="0.5" fill="#FFFFFF" cx="1278.6" cy="2419.4" r="3.6"/>
<circle opacity="0.5" fill="#FFFFFF" cx="1491.1" cy="2221.6" r="3.6"/>
<circle opacity="0.5" fill="#FFFFFF" cx="897.5" cy="2114.9" r="3.6"/>
<circle opacity="0.5" fill="#FFFFFF" cx="1362" cy="2005" r="3.6"/>
<circle opacity="0.5" fill="#FFFFFF" cx="1135.7" cy="1906.7" r="3.6"/>
<circle opacity="0.5" fill="#FFFFFF" cx="319" cy="2201.6" r="3.6"/>
<circle opacity="0.5" fill="#FFFFFF" cx="1232.3" cy="1788.6" r="3.6"/>
<circle opacity="0.5" fill="#FFFFFF" cx="541.5" cy="2305.3" r="3.6"/>
<circle opacity="0.5" fill="#FFFFFF" cx="339.2" cy="2564.4" r="3.6"/>
<circle opacity="0.5" fill="#FFFFFF" cx="626.3" cy="2608" r="3.6"/>
<circle opacity="0.5" fill="#FFFFFF" cx="356.4" cy="2079.4" r="3.6"/>
<circle opacity="0.5" fill="#FFFFFF" cx="669.7" cy="1969.4" r="3.6"/>
<circle opacity="0.5" fill="#FFFFFF" cx="731.1" cy="2375.1" r="3.6"/>
<circle opacity="0.5" fill="#FFFFFF" cx="208.3" cy="2286.1" r="3.6"/>
<circle opacity="0.5" fill="#FFFFFF" cx="728.2" cy="2837.7" r="3.6"/>
<circle opacity="0.5" fill="#FFFFFF" cx="985.2" cy="2477.7" r="3.6"/>
<circle opacity="0.5" fill="#FFFFFF" cx="966.2" cy="2777.9" r="3.6"/>
<circle opacity="0.5" fill="#FFFFFF" cx="986.6" cy="3098.9" r="3.6"/>
<circle opacity="0.5" fill="#FFFFFF" cx="1236.8" cy="2951.6" r="3.6"/>
<circle opacity="0.5" fill="#FFFFFF" cx="680.1" cy="2719.4" r="3.6"/>
<circle opacity="0.5" fill="#FFFFFF" cx="601" cy="2573.9" r="3.6"/>
<circle opacity="0.5" fill="#FFFFFF" cx="1064.6" cy="1973" r="3.6"/>
<circle opacity="0.5" fill="#FFFFFF" cx="837.8" cy="2628.1" r="3.6"/>
<circle opacity="0.5" fill="#FFFFFF" cx="1157.4" cy="2712.3" r="3.6"/>
<circle opacity="0.5" fill="#FFFFFF" cx="695.7" cy="2973.2" r="3.6"/>
<circle fill="#FFFFFF" cx="456.7" cy="2141.4" r="9.6"/>
<circle fill="#FFFFFF" cx="1059.7" cy="2479.4" r="9.6"/>
<circle fill="#FFFFFF" cx="1059.7" cy="2479.4" r="9.6"/>
<circle fill="#FFFFFF" cx="1059.7" cy="2479.4" r="9.6"/>
<circle fill="#FFFFFF" cx="1059.7" cy="2479.4" r="9.6"/>
<circle fill="#FFFFFF" cx="1059.7" cy="2479.4" r="9.6"/>
<circle fill="#FFFFFF" cx="1059.7" cy="2479.4" r="9.6"/>
<circle fill="#FFFFFF" cx="1059.7" cy="2479.4" r="9.6"/>
<circle fill="#FFFFFF" cx="1059.7" cy="2479.4" r="9.6"/>
<circle fill="#FFFFFF" cx="1059.7" cy="2479.4" r="9.6"/>
<circle fill="#FFFFFF" cx="1059.7" cy="2479.4" r="9.6"/>
<circle fill="#FFFFFF" cx="1059.7" cy="2479.4" r="9.6"/>
<circle fill="#FFFFFF" cx="1059.7" cy="2479.4" r="9.6"/>
<circle fill="#FFFFFF" cx="1059.7" cy="2479.4" r="9.6"/>
<circle fill="#FFFFFF" cx="1059.7" cy="2479.4" r="9.6"/>
<circle fill="#FFFFFF" cx="1059.7" cy="2479.4" r="9.6"/>
<circle fill="#FFFFFF" cx="1059.7" cy="2479.4" r="9.6"/>
<circle fill="#FFFFFF" cx="1059.7" cy="2479.4" r="9.6"/>
<circle fill="#FFFFFF" cx="893.9" cy="2255.4" r="9.6"/>
<circle fill="#FFFFFF" cx="645.3" cy="2456.2" r="9.6"/>
<circle opacity="0.5" fill="#FFFFFF" cx="313.7" cy="2838.3" r="3.6"/>
<circle opacity="0.5" fill="#FFFFFF" cx="555.7" cy="2879.1" r="3.6"/>
<circle opacity="0.5" fill="#FFFFFF" cx="757.1" cy="2895.9" r="3.6"/>
<circle opacity="0.5" fill="#FFFFFF" cx="229.5" cy="2949.3" r="3.6"/>
<circle opacity="0.5" fill="#FFFFFF" cx="712.6" cy="3100.5" r="3.6"/>
<circle opacity="0.5" fill="#FFFFFF" cx="310.7" cy="3027.2" r="3.6"/>
<circle opacity="0.5" fill="#FFFFFF" cx="615.4" cy="3115.3" r="3.6"/>
<circle opacity="0.5" fill="#FFFFFF" cx="407.7" cy="2956.4" r="3.6"/>
<circle opacity="0.5" fill="#FFFFFF" cx="555.5" cy="3152.3" r="3.6"/>
<circle opacity="0.5" fill="#FFFFFF" cx="690.4" cy="3302.8" r="3.6"/>
<circle opacity="0.5" fill="#FFFFFF" cx="270.2" cy="2979.2" r="3.6"/>
<circle opacity="0.5" fill="#FFFFFF" cx="517.6" cy="3421" r="3.6"/>
<circle opacity="0.5" fill="#FFFFFF" cx="275.7" cy="3091.6" r="3.6"/>
<circle opacity="0.5" fill="#FFFFFF" cx="436.7" cy="3365" r="3.6"/>
<circle opacity="0.5" fill="#FFFFFF" cx="1054.1" cy="2886.9" r="3.6"/>
<circle opacity="0.5" fill="#FFFFFF" cx="1259.5" cy="2752.6" r="3.6"/>
<circle opacity="0.5" fill="#FFFFFF" cx="1418.8" cy="2628.1" r="3.6"/>
<circle opacity="0.5" fill="#FFFFFF" cx="1067.5" cy="3025.5" r="3.6"/>
<circle opacity="0.5" fill="#FFFFFF" cx="1525" cy="2808.5" r="3.6"/>
<circle opacity="0.5" fill="#FFFFFF" cx="1180.1" cy="3027.6" r="3.6"/>
<circle opacity="0.5" fill="#FFFFFF" cx="1463.6" cy="2885.4" r="3.6"/>
<circle opacity="0.5" fill="#FFFFFF" cx="1053.6" cy="3107.6" r="3.6"/>
<circle opacity="0.5" fill="#FFFFFF" cx="1295.6" cy="3148.5" r="3.6"/>
<circle opacity="0.5" fill="#FFFFFF" cx="1497" cy="3165.3" r="3.6"/>
<circle opacity="0.5" fill="#FFFFFF" cx="969.4" cy="3218.6" r="3.6"/>
<circle opacity="0.5" fill="#FFFFFF" cx="1452.5" cy="3369.8" r="3.6"/>
<circle opacity="0.5" fill="#FFFFFF" cx="1050.5" cy="3296.5" r="3.6"/>
<circle opacity="0.5" fill="#FFFFFF" cx="1355.3" cy="3384.6" r="3.6"/>
<circle fill="#FFFFFF" cx="1081.2" cy="3497.7" r="9.6"/>
<circle fill="#FFFFFF" cx="1431.4" cy="3231.8" r="9.6"/>
<circle fill="#FFFFFF" cx="699.3" cy="3458.7" r="9.6"/>
<circle fill="#FFFFFF" cx="307.5" cy="3397.9" r="9.6"/>
<circle fill="#FFFFFF" cx="1157.4" cy="3369.8" r="9.6"/>
<circle fill="#FFFFFF" cx="1347.6" cy="2909.1" r="9.6"/>
<circle fill="#FFFFFF" cx="1057.7" cy="2781.4" r="9.6"/>
<circle fill="#FFFFFF" cx="718.5" cy="3168.9" r="9.6"/>
<circle fill="#FFFFFF" cx="431.7" cy="3078.4" r="9.6"/>
<circle fill="#FFFFFF" cx="773.4" cy="2899.5" r="9.6"/>
<circle fill="#FFFFFF" cx="1397.2" cy="2118.5" r="9.6"/>
<line fill="none" stroke="#FFFFFF" stroke-width="4" stroke-miterlimit="10" x1="466.4" y1="2162.5" x2="629.8" y2="2437.5"/>
<line fill="none" stroke="#FFFFFF" stroke-width="4" stroke-miterlimit="10" x1="877.2" y1="2271" x2="666.1" y2="2437.5"/>
</svg>
