<?xml version="1.0" encoding="utf-8"?>
<!-- Generator: Adobe Illustrator 18.0.0, SVG Export Plug-In . SVG Version: 6.00 Build 0)  -->
<!DOCTYPE svg PUBLIC "-//W3C//DTD SVG 1.1//EN" "http://www.w3.org/Graphics/SVG/1.1/DTD/svg11.dtd">
<svg version="1.1" id="Layer_1" xmlns="http://www.w3.org/2000/svg" xmlns:xlink="http://www.w3.org/1999/xlink" x="0px" y="0px"
	 viewBox="532.4 1183.2 2016.7 550.4" enable-background="new 532.4 1183.2 2016.7 550.4" xml:space="preserve">
<rect x="558.4" y="1208.6" fill="#151349" stroke="#151349" stroke-width="40" stroke-miterlimit="10" width="1790.9" height="500"/>
<line fill="none" stroke="#151349" stroke-width="40" stroke-miterlimit="10" x1="2153" y1="1458.6" x2="2521" y2="1458.6"/>
<line fill="none" stroke="#151349" stroke-width="40" stroke-miterlimit="10" x1="2535" y1="1444.5" x2="2421.2" y2="1558.3"/>
<line fill="none" stroke="#151349" stroke-width="40" stroke-miterlimit="10" x1="2521" y1="1458.6" x2="2421.2" y2="1358.8"/>
<line fill="none" stroke="#FFFFFF" stroke-width="40" stroke-miterlimit="10" x1="2165.3" y1="1458.6" x2="2369.3" y2="1458.6"/>
<text transform="matrix(1 0 0 1 793.7849 1511.4164)" fill="#FFFFFF" font-family="'Montserrat-Bold'" font-size="150">4 Constellations</text>
<line fill="none" stroke="#FFFFFF" stroke-width="6" stroke-miterlimit="10" x1="738" y1="1612" x2="1064" y2="1652"/>
<circle fill="#FFFFFF" cx="703" cy="1610" r="15"/>
<line fill="none" stroke="#FFFFFF" stroke-width="6" stroke-miterlimit="10" x1="688" y1="1558.3" x2="617.3" y2="1300.3"/>
<line fill="none" stroke="#FFFFFF" stroke-width="6" stroke-miterlimit="10" x1="690" y1="1652" x2="654.7" y2="1732.2"/>
<line fill="none" stroke="#FFFFFF" stroke-width="6" stroke-miterlimit="10" x1="581" y1="1284" x2="534.8" y2="1340"/>
<line fill="none" stroke="#FFFFFF" stroke-width="6" stroke-miterlimit="10" x1="1732" y1="1384.5" x2="1550" y2="1286.5"/>
<circle fill="#FFFFFF" cx="606" cy="1258" r="21"/>
<line fill="none" stroke="#FFFFFF" stroke-width="6" stroke-miterlimit="10" x1="644.7" y1="1258.2" x2="831.3" y2="1309.8"/>
<circle fill="#FFFFFF" cx="884.6" cy="1318.2" r="28.1"/>
<line fill="none" stroke="#FFFFFF" stroke-width="6" stroke-miterlimit="10" x1="927.9" y1="1290.1" x2="1097.1" y2="1185.8"/>
<circle fill="#FFFFFF" cx="1514" cy="1269" r="21"/>
<line fill="none" stroke="#FFFFFF" stroke-width="6" stroke-miterlimit="10" x1="1538" y1="1228.5" x2="1572.6" y2="1185.6"/>
<line fill="none" stroke="#FFFFFF" stroke-width="6" stroke-miterlimit="10" x1="1472.5" y1="1240" x2="1374" y2="1186"/>
<line fill="none" stroke="#FFFFFF" stroke-width="6" stroke-miterlimit="10" x1="1771.5" y1="1380" x2="1853.3" y2="1237"/>
<circle fill="#FFFFFF" cx="1863.9" cy="1215.9" r="8.1"/>
<circle fill="#FFFFFF" cx="1092" cy="1654" r="8.1"/>
<line fill="none" stroke="#FFFFFF" stroke-width="6" stroke-miterlimit="10" x1="1102.8" y1="1676.6" x2="1132.2" y2="1732.2"/>
<line fill="none" stroke="#FFFFFF" stroke-width="6" stroke-miterlimit="10" x1="2184" y1="1335.5" x2="1887" y2="1230"/>
<circle fill="#FFFFFF" cx="2218" cy="1346.3" r="15"/>
<circle fill="#FFFFFF" cx="2277" cy="1577.3" r="26.6"/>
<circle fill="#FFFFFF" cx="1831.9" cy="1640" r="8.1"/>
<line fill="none" stroke="#FFFFFF" stroke-width="6" stroke-miterlimit="10" x1="2255" y1="1618.1" x2="2202.4" y2="1731.9"/>
<line fill="none" stroke="#FFFFFF" stroke-width="6" stroke-miterlimit="10" x1="1840" y1="1662" x2="1867.8" y2="1731.9"/>
<line fill="none" stroke="#FFFFFF" stroke-width="6" stroke-miterlimit="10" x1="1798" y1="1640" x2="1626" y2="1648.1"/>
<circle fill="#FFFFFF" cx="1591" cy="1652" r="15"/>
<line fill="none" stroke="#FFFFFF" stroke-width="6" stroke-miterlimit="10" x1="1550" y1="1645.9" x2="1362" y2="1600.3"/>
<circle fill="#FFFFFF" cx="1756.1" cy="1406.4" r="15"/>
<rect x="1738.5" y="1428.6" fill="#151349" width="33" height="11.6"/>
<circle fill="#FFFFFF" cx="1332" cy="1585.3" r="17.9"/>
</svg>
