<?xml version="1.0" encoding="utf-8"?>
<!-- Generator: Adobe Illustrator 18.0.0, SVG Export Plug-In . SVG Version: 6.00 Build 0)  -->
<!DOCTYPE svg PUBLIC "-//W3C//DTD SVG 1.1//EN" "http://www.w3.org/Graphics/SVG/1.1/DTD/svg11.dtd">
<svg version="1.1" id="Layer_1" xmlns="http://www.w3.org/2000/svg" xmlns:xlink="http://www.w3.org/1999/xlink" x="0px" y="0px"
	 viewBox="-225.6 -311.6 2624.6 2496.4" enable-background="new -225.6 -311.6 2624.6 2496.4" xml:space="preserve">
<polygon display="none" fill="#00004C" stroke="#FFFFFF" stroke-width="180" stroke-miterlimit="10" points="1947.9,35.9 
	1971.3,817.1 2627.8,1240.3 1892.8,1503.7 1693,2259.1 1214.8,1641 435.2,1684.6 875.1,1039 592.4,310.7 1342.7,530 "/>
<polygon display="none" fill="#00004C" stroke="#FFFFFF" stroke-width="180" stroke-miterlimit="10" points="1785.9,128.9 
	1662.6,900.8 2228.1,1439.4 1456.9,1560.6 1119.2,2265.1 765.1,1568.4 -8.8,1465.2 544.2,913.3 402.8,145.1 1098.9,501 "/>
<polygon fill="#00004C" points="1086.8,2173.5 760.5,1512.1 31.1,1406.2 558.7,892.2 434.2,165.4 1086.8,508.4 1408.7,339.1 
	1738.9,165.4 1675,537.8 1614.3,892.2 2142.5,1406.2 1412.5,1512.1 "/>
<polygon fill="#00004C" stroke="#F7F7F7" stroke-width="180" stroke-miterlimit="10" points="1086.8,-108 1432.7,592.9 
	2205.6,705.1 1646.6,1250.1 1778.5,2020.2 1086.8,1656.6 395.7,2020.2 527.8,1250.1 -32,705.1 741.7,592.9 "/>
<polygon display="none" fill="#FFFF00" points="1086.9,165.7 1347.6,693.9 1929.9,778.5 1508.7,1189.1 1608.1,1769.5 1086.9,1495.6 
	566.1,1769.5 665.5,1189.1 243.8,778.5 826.8,693.9 "/>
<line display="none" fill="none" stroke="#FFFFFF" stroke-width="180" stroke-miterlimit="10" x1="1273.3" y1="486.3" x2="604.6" y2="1749.3"/>
<line display="none" fill="none" stroke="#FFFFFF" stroke-width="90" stroke-miterlimit="10" x1="1534.8" y1="721.1" x2="1116.4" y2="1511.1"/>
<g display="none">
	
		<line display="inline" fill="none" stroke="#00004C" stroke-width="180" stroke-miterlimit="10" x1="1102.7" y1="206.7" x2="1360.2" y2="728.4"/>
	
		<line display="inline" fill="none" stroke="#00004C" stroke-width="180" stroke-miterlimit="10" x1="817.7" y1="728.3" x2="1102.7" y2="147.7"/>
</g>
<g display="none">
	
		<line display="inline" fill="none" stroke="#00004C" stroke-width="180" stroke-miterlimit="10" x1="1572.4" y1="1740.2" x2="1059.9" y2="1467.9"/>
	
		<line display="inline" fill="none" stroke="#00004C" stroke-width="180" stroke-miterlimit="10" x1="1498.8" y1="1149.3" x2="1606.8" y2="1788.1"/>
</g>
<g display="none">
	
		<line display="inline" fill="none" stroke="#00004C" stroke-width="180" stroke-miterlimit="10" x1="581.7" y1="1722.9" x2="680.3" y2="1150.5"/>
	
		<line display="inline" fill="none" stroke="#00004C" stroke-width="180" stroke-miterlimit="10" x1="1122.1" y1="1467.1" x2="547.1" y2="1770.6"/>
</g>
<g display="none">
	
		<line display="inline" fill="none" stroke="#00004C" stroke-width="180" stroke-miterlimit="10" x1="288.5" y1="776.9" x2="868.4" y2="691.7"/>
	
		<line display="inline" fill="none" stroke="#00004C" stroke-width="180" stroke-miterlimit="10" x1="699.8" y1="1210.8" x2="232.5" y2="758.8"/>
</g>
<g display="none">
	
		<line display="inline" fill="none" stroke="#00004C" stroke-width="180" stroke-miterlimit="10" x1="1896.7" y1="802.5" x2="1480.3" y2="1208.8"/>
	
		<line display="inline" fill="none" stroke="#00004C" stroke-width="180" stroke-miterlimit="10" x1="1309" y1="692.6" x2="1952.8" y2="784.3"/>
</g>
</svg>
