<?xml version="1.0" encoding="utf-8"?>
<!-- Generator: Adobe Illustrator 18.0.0, SVG Export Plug-In . SVG Version: 6.00 Build 0)  -->
<!DOCTYPE svg PUBLIC "-//W3C//DTD SVG 1.1//EN" "http://www.w3.org/Graphics/SVG/1.1/DTD/svg11.dtd">
<svg version="1.1" id="Layer_1" xmlns="http://www.w3.org/2000/svg" xmlns:xlink="http://www.w3.org/1999/xlink" x="0px" y="0px"
	 viewBox="-16.5 -22.5 2416.7 2464.1" enable-background="new -16.5 -22.5 2416.7 2464.1" xml:space="preserve">
<polygon display="none" fill="#00004C" stroke="#FFFFFF" stroke-width="180" stroke-miterlimit="10" points="2121.8,132.9 
	2147.1,976.7 2856.2,1433.7 2062.3,1718.2 1846.5,2534.1 1330.1,1866.5 488.1,1913.6 963.2,1216.3 657.9,429.7 1468.2,666.6 "/>
<polygon display="none" fill="#00004C" stroke="#FFFFFF" stroke-width="180" stroke-miterlimit="10" points="1946.9,233.4 
	1813.7,1067.1 2424.5,1648.8 1591.6,1779.7 1226.8,2540.5 844.4,1788.1 8.6,1676.6 605.8,1080.6 453.1,250.9 1204.9,635.3 "/>
<polygon fill="#00004C" points="1191.8,145.9 1510.7,792 2223.1,895.4 1707.8,1397.8 1829.4,2107.7 1191.8,1772.5 554.8,2107.7 
	676.6,1397.8 160.5,895.4 873.7,792 "/>
<polygon display="none" fill="#FFFF00" points="1191.9,273.1 1473.5,843.6 2102.4,935 1647.5,1378.4 1754.9,2005.3 1191.9,1709.5 
	629.5,2005.3 736.8,1378.4 281.4,935 911,843.6 "/>
<line display="none" fill="none" stroke="#FFFFFF" stroke-width="180" stroke-miterlimit="10" x1="1393.3" y1="619.4" x2="671" y2="1983.5"/>
<line display="none" fill="none" stroke="#FFFFFF" stroke-width="90" stroke-miterlimit="10" x1="1675.7" y1="873" x2="1223.8" y2="1726.2"/>
<g display="none">
	
		<line display="inline" fill="none" stroke="#00004C" stroke-width="180" stroke-miterlimit="10" x1="1209" y1="317.4" x2="1487.1" y2="880.9"/>
	
		<line display="inline" fill="none" stroke="#00004C" stroke-width="180" stroke-miterlimit="10" x1="901.2" y1="880.8" x2="1209" y2="253.7"/>
</g>
<g display="none">
	
		<line display="inline" fill="none" stroke="#00004C" stroke-width="180" stroke-miterlimit="10" x1="1716.3" y1="1973.6" x2="1162.8" y2="1679.5"/>
	
		<line display="inline" fill="none" stroke="#00004C" stroke-width="180" stroke-miterlimit="10" x1="1636.8" y1="1335.4" x2="1753.4" y2="2025.4"/>
</g>
<g display="none">
	
		<line display="inline" fill="none" stroke="#00004C" stroke-width="180" stroke-miterlimit="10" x1="646.3" y1="1955" x2="752.8" y2="1336.7"/>
	
		<line display="inline" fill="none" stroke="#00004C" stroke-width="180" stroke-miterlimit="10" x1="1230" y1="1678.7" x2="608.9" y2="2006.5"/>
</g>
<g display="none">
	
		<line display="inline" fill="none" stroke="#00004C" stroke-width="180" stroke-miterlimit="10" x1="329.6" y1="933.2" x2="956" y2="841.2"/>
	
		<line display="inline" fill="none" stroke="#00004C" stroke-width="180" stroke-miterlimit="10" x1="773.9" y1="1401.9" x2="269.2" y2="913.7"/>
</g>
<g display="none">
	
		<line display="inline" fill="none" stroke="#00004C" stroke-width="180" stroke-miterlimit="10" x1="2066.6" y1="960.9" x2="1616.8" y2="1399.7"/>
	
		<line display="inline" fill="none" stroke="#00004C" stroke-width="180" stroke-miterlimit="10" x1="1431.8" y1="842.2" x2="2127.1" y2="941.2"/>
</g>
<polygon fill="#7E80A6" points="1191.8,1985 1013.1,2079.3 1191.8,2441.6 1370.3,2079.2 "/>
<polygon fill="#7E80A6" points="1894.4,1474.7 1929.9,1673.6 2329.5,1613.5 2038.5,1333.3 "/>
<polygon fill="#7E80A6" points="1625,650.2 1825.2,678.4 1892.3,280 1535.5,469.4 "/>
<polygon fill="#7E80A6" points="757.2,648.2 557,676.4 489.9,278 846.7,467.4 "/>
<polygon fill="#7E80A6" points="487.7,1474.7 452.2,1673.6 52.6,1613.5 343.6,1333.3 "/>
</svg>
