<?xml version="1.0" encoding="utf-8"?>
<!-- Generator: Adobe Illustrator 18.0.0, SVG Export Plug-In . SVG Version: 6.00 Build 0)  -->
<!DOCTYPE svg PUBLIC "-//W3C//DTD SVG 1.1//EN" "http://www.w3.org/Graphics/SVG/1.1/DTD/svg11.dtd">
<svg version="1.1" id="Layer_1" xmlns="http://www.w3.org/2000/svg" xmlns:xlink="http://www.w3.org/1999/xlink" x="0px" y="0px"
	 viewBox="536.5 1482.6 2837.8 762.4" enable-background="new 536.5 1482.6 2837.8 762.4" xml:space="preserve">
<rect x="538.4" y="1484.5" display="none" fill="#F7F7F7" width="2834.6" height="758.6"/>
<rect x="566.5" y="1512.6" fill="none" stroke="#151349" stroke-width="60" stroke-miterlimit="10" width="2515.8" height="702.4"/>
<rect x="3039" y="1777.6" fill="#F7F7F7" width="86.4" height="172.6"/>
<g>
	
		<rect x="3243.2" y="1811.1" transform="matrix(0.7071 0.7071 -0.7071 0.7071 2319.2263 -1750.9294)" fill="#151349" width="60" height="226.1"/>
	
		<rect x="3164.2" y="1766.8" transform="matrix(0.7071 0.7071 -0.7071 0.7071 2226.3171 -1781.2091)" fill="#151349" width="198.1" height="60"/>
	<rect x="2816.3" y="1833.8" fill="#151349" width="516.9" height="60"/>
</g>
<g>
	<path fill="#00004C" d="M1668.7,1971.9l-0.4-163.6l-80.2,134.7h-28.4l-79.8-131.2v160.1h-59.2v-272.6h52.2l102,169.4l100.5-169.4
		h51.8l0.8,272.6H1668.7z"/>
	<path fill="#00004C" d="M1947.5,1782.5c17.4,15.4,26.1,38.8,26.1,69.9v119.6h-56.9v-26.1c-11.4,19.5-32.7,29.2-63.9,29.2
		c-16.1,0-30.1-2.7-41.9-8.2c-11.8-5.5-20.8-13-27.1-22.6c-6.2-9.6-9.3-20.5-9.3-32.7c0-19.5,7.3-34.8,22-46
		c14.7-11.2,37.3-16.7,68-16.7h48.3c0-13.2-4-23.4-12.1-30.6c-8.1-7.1-20.1-10.7-36.2-10.7c-11.2,0-22.1,1.8-32.9,5.3
		c-10.8,3.5-19.9,8.2-27.5,14.2l-21.8-42.5c11.4-8,25.1-14.3,41.1-18.7c16-4.4,32.4-6.6,49.3-6.6
		C1905.2,1759.3,1930.1,1767,1947.5,1782.5z M1895.7,1927c8-4.8,13.8-11.9,17.1-21.2v-21.4h-41.7c-24.9,0-37.4,8.2-37.4,24.5
		c0,7.8,3,14,9.2,18.5c6.1,4.5,14.5,6.8,25.1,6.8C1878.5,1934.2,1887.7,1931.8,1895.7,1927z"/>
	<path fill="#00004C" d="M2205.5,1772.7c16,9,28.5,21.6,37.6,37.8c9.1,16.2,13.6,35.1,13.6,56.7c0,21.6-4.5,40.4-13.6,56.7
		c-9.1,16.2-21.6,28.8-37.6,37.8c-16,9-33.7,13.4-53.2,13.4c-26.7,0-47.8-8.4-63.1-25.3v97.8h-60.8v-285.1h58v24.1
		c15.1-18.2,37-27.3,65.8-27.3C2171.8,1759.3,2189.6,1763.8,2205.5,1772.7z M2180.2,1909.4c10-10.5,15-24.6,15-42.3
		c0-17.7-5-31.7-15-42.3c-10-10.5-22.8-15.8-38.4-15.8c-15.6,0-28.4,5.3-38.4,15.8c-10,10.5-15,24.6-15,42.3c0,17.7,5,31.7,15,42.3
		c10,10.5,22.8,15.8,38.4,15.8C2157.4,1925.2,2170.2,1919.9,2180.2,1909.4z"/>
</g>
</svg>
