<?xml version="1.0" encoding="utf-8"?>
<!-- Generator: Adobe Illustrator 18.0.0, SVG Export Plug-In . SVG Version: 6.00 Build 0)  -->
<!DOCTYPE svg PUBLIC "-//W3C//DTD SVG 1.1//EN" "http://www.w3.org/Graphics/SVG/1.1/DTD/svg11.dtd">
<svg version="1.1" id="Layer_1" xmlns="http://www.w3.org/2000/svg" xmlns:xlink="http://www.w3.org/1999/xlink" x="0px" y="0px"
	 viewBox="625 7.8 1594.9 2703" enable-background="new 625 7.8 1594.9 2703" xml:space="preserve">
<text transform="matrix(1 0 0 1 722.5967 521.8726)" fill="#141449" font-family="'Montserrat-Bold'" font-size="250">Stars</text>
<text transform="matrix(1 0 0 1 1138.2124 521.8726)" fill="#141449" font-family="'Montserrat-Bold'" font-size="111.9353"> </text>
<g>
	<rect x="735.2" y="149.3" fill="#141449" width="100.7" height="17.9"/>
	
		<rect x="745.5" y="102.9" transform="matrix(-0.7071 -0.7071 0.7071 -0.7071 1189.6847 770.826)" fill="#141449" width="17.9" height="72.3"/>
	
		<rect x="726" y="171.7" transform="matrix(-0.7071 -0.7071 0.7071 -0.7071 1165.6863 844.2493)" fill="#141449" width="63.5" height="17.9"/>
</g>
<text transform="matrix(1 0 0 1 735.2476 678.5125)" fill="#141449" font-family="'Montserrat-Regular'" font-size="90">7 / 120</text>
<linearGradient id="SVGID_1_" gradientUnits="userSpaceOnUse" x1="1272" y1="2624.783" x2="1272" y2="2752.783" gradientTransform="matrix(1.1194 0 0 -1.1194 626.7818 3172.9744)">
	<stop  offset="0" style="stop-color:#141449"/>
	<stop  offset="1" style="stop-color:#000000"/>
</linearGradient>
<circle fill="url(#SVGID_1_)" cx="2050.6" cy="163.3" r="71.6"/>
<text transform="matrix(1 0 0 1 2037.7266 201.3073)" fill="#FFFFFF" font-family="'Montserrat-Bold'" font-size="89.5483">i</text>
<polygon fill="#E7E7E7" points="833.1,1037.4 864.9,1101.9 936.1,1112.2 884.6,1162.3 896.8,1233.2 833.1,1199.8 769.5,1233.2 
	781.6,1162.3 730.1,1112.2 801.3,1101.9 "/>
<polygon fill="#E7E7E7" points="1125.2,1037.4 1157,1101.9 1228.2,1112.2 1176.7,1162.3 1188.8,1233.2 1125.2,1199.8 1061.5,1233.2 
	1073.7,1162.3 1022.2,1112.2 1093.4,1101.9 "/>
<polygon fill="#E7E7E7" points="1125.2,1037.4 1157,1101.9 1228.2,1112.2 1176.7,1162.3 1188.8,1233.2 1125.2,1199.8 1061.5,1233.2 
	1073.7,1162.3 1022.2,1112.2 1093.4,1101.9 "/>
<polygon fill="#E7E7E7" points="1417.3,1037.4 1449.2,1101.9 1520.2,1112.2 1468.8,1162.3 1481,1233.2 1417.3,1199.8 1353.7,1233.2 
	1365.9,1162.3 1314.4,1112.2 1385.5,1101.9 "/>
<polygon fill="#E7E7E7" points="1417.3,1037.4 1449.2,1101.9 1520.2,1112.2 1468.8,1162.3 1481,1233.2 1417.3,1199.8 1353.7,1233.2 
	1365.9,1162.3 1314.4,1112.2 1385.5,1101.9 "/>
<polygon fill="#E7E7E7" points="1709.4,1037.4 1741.2,1101.9 1812.4,1112.2 1760.9,1162.3 1773.1,1233.2 1709.4,1199.8 
	1645.8,1233.2 1657.9,1162.3 1606.4,1112.2 1677.6,1101.9 "/>
<polygon fill="#E7E7E7" points="1709.4,1037.4 1741.2,1101.9 1812.4,1112.2 1760.9,1162.3 1773.1,1233.2 1709.4,1199.8 
	1645.8,1233.2 1657.9,1162.3 1606.4,1112.2 1677.6,1101.9 "/>
<polygon fill="#E7E7E7" points="2001.6,1037.4 2033.4,1101.9 2104.6,1112.2 2053.1,1162.3 2065.2,1233.2 2001.6,1199.8 
	1937.9,1233.2 1950.1,1162.3 1898.6,1112.2 1969.8,1101.9 "/>
<polygon fill="#E7E7E7" points="833.1,1316.1 864.9,1380.6 936.1,1390.9 884.6,1441.1 896.8,1512 833.1,1478.5 769.5,1512 
	781.6,1441.1 730.1,1390.9 801.3,1380.6 "/>
<polygon fill="#E7E7E7" points="1125.2,1316.1 1157,1380.6 1228.2,1390.9 1176.7,1441.1 1188.8,1512 1125.2,1478.5 1061.5,1512 
	1073.7,1441.1 1022.2,1390.9 1093.4,1380.6 "/>
<polygon fill="#E7E7E7" points="1125.2,1316.1 1157,1380.6 1228.2,1390.9 1176.7,1441.1 1188.8,1512 1125.2,1478.5 1061.5,1512 
	1073.7,1441.1 1022.2,1390.9 1093.4,1380.6 "/>
<polygon fill="#E7E7E7" points="1417.3,1316.1 1449.2,1380.6 1520.2,1390.9 1468.8,1441.1 1481,1512 1417.3,1478.5 1353.7,1512 
	1365.9,1441.1 1314.4,1390.9 1385.5,1380.6 "/>
<polygon fill="#E7E7E7" points="1417.3,1316.1 1449.2,1380.6 1520.2,1390.9 1468.8,1441.1 1481,1512 1417.3,1478.5 1353.7,1512 
	1365.9,1441.1 1314.4,1390.9 1385.5,1380.6 "/>
<polygon fill="#E7E7E7" points="1709.4,1316.1 1741.2,1380.6 1812.4,1390.9 1760.9,1441.1 1773.1,1512 1709.4,1478.5 1645.8,1512 
	1657.9,1441.1 1606.4,1390.9 1677.6,1380.6 "/>
<polygon fill="#E7E7E7" points="1709.4,1316.1 1741.2,1380.6 1812.4,1390.9 1760.9,1441.1 1773.1,1512 1709.4,1478.5 1645.8,1512 
	1657.9,1441.1 1606.4,1390.9 1677.6,1380.6 "/>
<polygon fill="#E7E7E7" points="2001.6,1316.1 2033.4,1380.6 2104.6,1390.9 2053.1,1441.1 2065.2,1512 2001.6,1478.5 1937.9,1512 
	1950.1,1441.1 1898.6,1390.9 1969.8,1380.6 "/>
<polygon fill="#E7E7E7" points="833.1,1316.1 864.9,1380.6 936.1,1390.9 884.6,1441.1 896.8,1512 833.1,1478.5 769.5,1512 
	781.6,1441.1 730.1,1390.9 801.3,1380.6 "/>
<polygon fill="#E7E7E7" points="1125.2,1316.1 1157,1380.6 1228.2,1390.9 1176.7,1441.1 1188.8,1512 1125.2,1478.5 1061.5,1512 
	1073.7,1441.1 1022.2,1390.9 1093.4,1380.6 "/>
<polygon fill="#E7E7E7" points="1125.2,1316.1 1157,1380.6 1228.2,1390.9 1176.7,1441.1 1188.8,1512 1125.2,1478.5 1061.5,1512 
	1073.7,1441.1 1022.2,1390.9 1093.4,1380.6 "/>
<polygon fill="#E7E7E7" points="1417.3,1316.1 1449.2,1380.6 1520.2,1390.9 1468.8,1441.1 1481,1512 1417.3,1478.5 1353.7,1512 
	1365.9,1441.1 1314.4,1390.9 1385.5,1380.6 "/>
<polygon fill="#E7E7E7" points="1417.3,1316.1 1449.2,1380.6 1520.2,1390.9 1468.8,1441.1 1481,1512 1417.3,1478.5 1353.7,1512 
	1365.9,1441.1 1314.4,1390.9 1385.5,1380.6 "/>
<polygon fill="#E7E7E7" points="1709.4,1316.1 1741.2,1380.6 1812.4,1390.9 1760.9,1441.1 1773.1,1512 1709.4,1478.5 1645.8,1512 
	1657.9,1441.1 1606.4,1390.9 1677.6,1380.6 "/>
<polygon fill="#E7E7E7" points="1709.4,1316.1 1741.2,1380.6 1812.4,1390.9 1760.9,1441.1 1773.1,1512 1709.4,1478.5 1645.8,1512 
	1657.9,1441.1 1606.4,1390.9 1677.6,1380.6 "/>
<polygon fill="#E7E7E7" points="2001.6,1316.1 2033.4,1380.6 2104.6,1390.9 2053.1,1441.1 2065.2,1512 2001.6,1478.5 1937.9,1512 
	1950.1,1441.1 1898.6,1390.9 1969.8,1380.6 "/>
<polygon fill="#E7E7E7" points="833.1,1594.8 864.9,1659.3 936.1,1669.6 884.6,1719.9 896.8,1790.7 833.1,1757.2 769.5,1790.7 
	781.6,1719.9 730.1,1669.6 801.3,1659.3 "/>
<polygon fill="#E7E7E7" points="1125.2,1594.8 1157,1659.3 1228.2,1669.6 1176.7,1719.9 1188.8,1790.7 1125.2,1757.2 1061.5,1790.7 
	1073.7,1719.9 1022.2,1669.6 1093.4,1659.3 "/>
<polygon fill="#E7E7E7" points="1125.2,1594.8 1157,1659.3 1228.2,1669.6 1176.7,1719.9 1188.8,1790.7 1125.2,1757.2 1061.5,1790.7 
	1073.7,1719.9 1022.2,1669.6 1093.4,1659.3 "/>
<polygon fill="#E7E7E7" points="1417.3,1594.8 1449.2,1659.3 1520.2,1669.6 1468.8,1719.9 1481,1790.7 1417.3,1757.2 1353.7,1790.7 
	1365.9,1719.9 1314.4,1669.6 1385.5,1659.3 "/>
<polygon fill="#E7E7E7" points="1417.3,1594.8 1449.2,1659.3 1520.2,1669.6 1468.8,1719.9 1481,1790.7 1417.3,1757.2 1353.7,1790.7 
	1365.9,1719.9 1314.4,1669.6 1385.5,1659.3 "/>
<polygon fill="#E7E7E7" points="1709.4,1594.8 1741.2,1659.3 1812.4,1669.6 1760.9,1719.9 1773.1,1790.7 1709.4,1757.2 
	1645.8,1790.7 1657.9,1719.9 1606.4,1669.6 1677.6,1659.3 "/>
<polygon fill="#E7E7E7" points="1709.4,1594.8 1741.2,1659.3 1812.4,1669.6 1760.9,1719.9 1773.1,1790.7 1709.4,1757.2 
	1645.8,1790.7 1657.9,1719.9 1606.4,1669.6 1677.6,1659.3 "/>
<polygon fill="#E7E7E7" points="2001.6,1594.8 2033.4,1659.3 2104.6,1669.6 2053.1,1719.9 2065.2,1790.7 2001.6,1757.2 
	1937.9,1790.7 1950.1,1719.9 1898.6,1669.6 1969.8,1659.3 "/>
<polygon fill="#E7E7E7" points="833.1,1594.8 864.9,1659.3 936.1,1669.6 884.6,1719.9 896.8,1790.7 833.1,1757.2 769.5,1790.7 
	781.6,1719.9 730.1,1669.6 801.3,1659.3 "/>
<polygon fill="#E7E7E7" points="1125.2,1594.8 1157,1659.3 1228.2,1669.6 1176.7,1719.9 1188.8,1790.7 1125.2,1757.2 1061.5,1790.7 
	1073.7,1719.9 1022.2,1669.6 1093.4,1659.3 "/>
<polygon fill="#E7E7E7" points="1125.2,1594.8 1157,1659.3 1228.2,1669.6 1176.7,1719.9 1188.8,1790.7 1125.2,1757.2 1061.5,1790.7 
	1073.7,1719.9 1022.2,1669.6 1093.4,1659.3 "/>
<polygon fill="#E7E7E7" points="1417.3,1594.8 1449.2,1659.3 1520.2,1669.6 1468.8,1719.9 1481,1790.7 1417.3,1757.2 1353.7,1790.7 
	1365.9,1719.9 1314.4,1669.6 1385.5,1659.3 "/>
<polygon fill="#E7E7E7" points="1417.3,1594.8 1449.2,1659.3 1520.2,1669.6 1468.8,1719.9 1481,1790.7 1417.3,1757.2 1353.7,1790.7 
	1365.9,1719.9 1314.4,1669.6 1385.5,1659.3 "/>
<polygon fill="#E7E7E7" points="1709.4,1594.8 1741.2,1659.3 1812.4,1669.6 1760.9,1719.9 1773.1,1790.7 1709.4,1757.2 
	1645.8,1790.7 1657.9,1719.9 1606.4,1669.6 1677.6,1659.3 "/>
<polygon fill="#E7E7E7" points="1709.4,1594.8 1741.2,1659.3 1812.4,1669.6 1760.9,1719.9 1773.1,1790.7 1709.4,1757.2 
	1645.8,1790.7 1657.9,1719.9 1606.4,1669.6 1677.6,1659.3 "/>
<polygon fill="#E7E7E7" points="2001.6,1594.8 2033.4,1659.3 2104.6,1669.6 2053.1,1719.9 2065.2,1790.7 2001.6,1757.2 
	1937.9,1790.7 1950.1,1719.9 1898.6,1669.6 1969.8,1659.3 "/>
<polygon fill="#E7E7E7" points="833.1,1873.5 864.9,1938 936.1,1948.4 884.6,1998.6 896.8,2069.4 833.1,2036 769.5,2069.4 
	781.6,1998.6 730.1,1948.4 801.3,1938 "/>
<polygon fill="#E7E7E7" points="1125.2,1873.5 1157,1938 1228.2,1948.4 1176.7,1998.6 1188.8,2069.4 1125.2,2036 1061.5,2069.4 
	1073.7,1998.6 1022.2,1948.4 1093.4,1938 "/>
<polygon fill="#E7E7E7" points="1125.2,1873.5 1157,1938 1228.2,1948.4 1176.7,1998.6 1188.8,2069.4 1125.2,2036 1061.5,2069.4 
	1073.7,1998.6 1022.2,1948.4 1093.4,1938 "/>
<polygon fill="#E7E7E7" points="1417.3,1873.5 1449.2,1938 1520.2,1948.4 1468.8,1998.6 1481,2069.4 1417.3,2036 1353.7,2069.4 
	1365.9,1998.6 1314.4,1948.4 1385.5,1938 "/>
<polygon fill="#E7E7E7" points="1417.3,1873.5 1449.2,1938 1520.2,1948.4 1468.8,1998.6 1481,2069.4 1417.3,2036 1353.7,2069.4 
	1365.9,1998.6 1314.4,1948.4 1385.5,1938 "/>
<polygon fill="#E7E7E7" points="1709.4,1873.5 1741.2,1938 1812.4,1948.4 1760.9,1998.6 1773.1,2069.4 1709.4,2036 1645.8,2069.4 
	1657.9,1998.6 1606.4,1948.4 1677.6,1938 "/>
<polygon fill="#E7E7E7" points="1709.4,1873.5 1741.2,1938 1812.4,1948.4 1760.9,1998.6 1773.1,2069.4 1709.4,2036 1645.8,2069.4 
	1657.9,1998.6 1606.4,1948.4 1677.6,1938 "/>
<polygon fill="#E7E7E7" points="2001.6,1873.5 2033.4,1938 2104.6,1948.4 2053.1,1998.6 2065.2,2069.4 2001.6,2036 1937.9,2069.4 
	1950.1,1998.6 1898.6,1948.4 1969.8,1938 "/>
<polygon fill="#E7E7E7" points="833.1,1873.5 864.9,1938 936.1,1948.4 884.6,1998.6 896.8,2069.4 833.1,2036 769.5,2069.4 
	781.6,1998.6 730.1,1948.4 801.3,1938 "/>
<polygon fill="#E7E7E7" points="1125.2,1873.5 1157,1938 1228.2,1948.4 1176.7,1998.6 1188.8,2069.4 1125.2,2036 1061.5,2069.4 
	1073.7,1998.6 1022.2,1948.4 1093.4,1938 "/>
<polygon fill="#E7E7E7" points="1125.2,1873.5 1157,1938 1228.2,1948.4 1176.7,1998.6 1188.8,2069.4 1125.2,2036 1061.5,2069.4 
	1073.7,1998.6 1022.2,1948.4 1093.4,1938 "/>
<polygon fill="#E7E7E7" points="1417.3,1873.5 1449.2,1938 1520.2,1948.4 1468.8,1998.6 1481,2069.4 1417.3,2036 1353.7,2069.4 
	1365.9,1998.6 1314.4,1948.4 1385.5,1938 "/>
<polygon fill="#E7E7E7" points="1417.3,1873.5 1449.2,1938 1520.2,1948.4 1468.8,1998.6 1481,2069.4 1417.3,2036 1353.7,2069.4 
	1365.9,1998.6 1314.4,1948.4 1385.5,1938 "/>
<polygon fill="#E7E7E7" points="1709.4,1873.5 1741.2,1938 1812.4,1948.4 1760.9,1998.6 1773.1,2069.4 1709.4,2036 1645.8,2069.4 
	1657.9,1998.6 1606.4,1948.4 1677.6,1938 "/>
<polygon fill="#E7E7E7" points="1709.4,1873.5 1741.2,1938 1812.4,1948.4 1760.9,1998.6 1773.1,2069.4 1709.4,2036 1645.8,2069.4 
	1657.9,1998.6 1606.4,1948.4 1677.6,1938 "/>
<polygon fill="#E7E7E7" points="2001.6,1873.5 2033.4,1938 2104.6,1948.4 2053.1,1998.6 2065.2,2069.4 2001.6,2036 1937.9,2069.4 
	1950.1,1998.6 1898.6,1948.4 1969.8,1938 "/>
<polygon fill="#E7E7E7" points="833.1,2152.3 864.9,2216.7 936.1,2227.1 884.6,2277.3 896.8,2348.1 833.1,2314.7 769.5,2348.1 
	781.6,2277.3 730.1,2227.1 801.3,2216.7 "/>
<polygon fill="#E7E7E7" points="1125.2,2152.3 1157,2216.7 1228.2,2227.1 1176.7,2277.3 1188.8,2348.1 1125.2,2314.7 1061.5,2348.1 
	1073.7,2277.3 1022.2,2227.1 1093.4,2216.7 "/>
<polygon fill="#E7E7E7" points="1125.2,2152.3 1157,2216.7 1228.2,2227.1 1176.7,2277.3 1188.8,2348.1 1125.2,2314.7 1061.5,2348.1 
	1073.7,2277.3 1022.2,2227.1 1093.4,2216.7 "/>
<polygon fill="#E7E7E7" points="1417.3,2152.3 1449.2,2216.7 1520.2,2227.1 1468.8,2277.3 1481,2348.1 1417.3,2314.7 1353.7,2348.1 
	1365.9,2277.3 1314.4,2227.1 1385.5,2216.7 "/>
<polygon fill="#E7E7E7" points="1417.3,2152.3 1449.2,2216.7 1520.2,2227.1 1468.8,2277.3 1481,2348.1 1417.3,2314.7 1353.7,2348.1 
	1365.9,2277.3 1314.4,2227.1 1385.5,2216.7 "/>
<polygon fill="#E7E7E7" points="1709.4,2152.3 1741.2,2216.7 1812.4,2227.1 1760.9,2277.3 1773.1,2348.1 1709.4,2314.7 
	1645.8,2348.1 1657.9,2277.3 1606.4,2227.1 1677.6,2216.7 "/>
<polygon fill="#E7E7E7" points="1709.4,2152.3 1741.2,2216.7 1812.4,2227.1 1760.9,2277.3 1773.1,2348.1 1709.4,2314.7 
	1645.8,2348.1 1657.9,2277.3 1606.4,2227.1 1677.6,2216.7 "/>
<polygon fill="#E7E7E7" points="2001.6,2152.3 2033.4,2216.7 2104.6,2227.1 2053.1,2277.3 2065.2,2348.1 2001.6,2314.7 
	1937.9,2348.1 1950.1,2277.3 1898.6,2227.1 1969.8,2216.7 "/>
<polygon fill="#E7E7E7" points="833.1,2152.3 864.9,2216.7 936.1,2227.1 884.6,2277.3 896.8,2348.1 833.1,2314.7 769.5,2348.1 
	781.6,2277.3 730.1,2227.1 801.3,2216.7 "/>
<polygon fill="#E7E7E7" points="1125.2,2152.3 1157,2216.7 1228.2,2227.1 1176.7,2277.3 1188.8,2348.1 1125.2,2314.7 1061.5,2348.1 
	1073.7,2277.3 1022.2,2227.1 1093.4,2216.7 "/>
<polygon fill="#E7E7E7" points="1125.2,2152.3 1157,2216.7 1228.2,2227.1 1176.7,2277.3 1188.8,2348.1 1125.2,2314.7 1061.5,2348.1 
	1073.7,2277.3 1022.2,2227.1 1093.4,2216.7 "/>
<polygon fill="#E7E7E7" points="1417.3,2152.3 1449.2,2216.7 1520.2,2227.1 1468.8,2277.3 1481,2348.1 1417.3,2314.7 1353.7,2348.1 
	1365.9,2277.3 1314.4,2227.1 1385.5,2216.7 "/>
<polygon fill="#E7E7E7" points="1417.3,2152.3 1449.2,2216.7 1520.2,2227.1 1468.8,2277.3 1481,2348.1 1417.3,2314.7 1353.7,2348.1 
	1365.9,2277.3 1314.4,2227.1 1385.5,2216.7 "/>
<polygon fill="#E7E7E7" points="1709.4,2152.3 1741.2,2216.7 1812.4,2227.1 1760.9,2277.3 1773.1,2348.1 1709.4,2314.7 
	1645.8,2348.1 1657.9,2277.3 1606.4,2227.1 1677.6,2216.7 "/>
<polygon fill="#E7E7E7" points="1709.4,2152.3 1741.2,2216.7 1812.4,2227.1 1760.9,2277.3 1773.1,2348.1 1709.4,2314.7 
	1645.8,2348.1 1657.9,2277.3 1606.4,2227.1 1677.6,2216.7 "/>
<polygon fill="#E7E7E7" points="2001.6,2152.3 2033.4,2216.7 2104.6,2227.1 2053.1,2277.3 2065.2,2348.1 2001.6,2314.7 
	1937.9,2348.1 1950.1,2277.3 1898.6,2227.1 1969.8,2216.7 "/>
<polygon fill="#E7E7E7" points="833.1,2431.1 864.9,2495.6 936.1,2505.9 884.6,2556 896.8,2627 833.1,2593.5 769.5,2627 781.6,2556 
	730.1,2505.9 801.3,2495.6 "/>
<polygon fill="#E7E7E7" points="1125.2,2431.1 1157,2495.6 1228.2,2505.9 1176.7,2556 1188.8,2627 1125.2,2593.5 1061.5,2627 
	1073.7,2556 1022.2,2505.9 1093.4,2495.6 "/>
<polygon fill="#E7E7E7" points="1125.2,2431.1 1157,2495.6 1228.2,2505.9 1176.7,2556 1188.8,2627 1125.2,2593.5 1061.5,2627 
	1073.7,2556 1022.2,2505.9 1093.4,2495.6 "/>
<polygon fill="#E7E7E7" points="1417.3,2431.1 1449.2,2495.6 1520.2,2505.9 1468.8,2556 1481,2627 1417.3,2593.5 1353.7,2627 
	1365.9,2556 1314.4,2505.9 1385.5,2495.6 "/>
<polygon fill="#E7E7E7" points="1417.3,2431.1 1449.2,2495.6 1520.2,2505.9 1468.8,2556 1481,2627 1417.3,2593.5 1353.7,2627 
	1365.9,2556 1314.4,2505.9 1385.5,2495.6 "/>
<polygon fill="#E7E7E7" points="1709.4,2431.1 1741.2,2495.6 1812.4,2505.9 1760.9,2556 1773.1,2627 1709.4,2593.5 1645.8,2627 
	1657.9,2556 1606.4,2505.9 1677.6,2495.6 "/>
<polygon fill="#E7E7E7" points="1709.4,2431.1 1741.2,2495.6 1812.4,2505.9 1760.9,2556 1773.1,2627 1709.4,2593.5 1645.8,2627 
	1657.9,2556 1606.4,2505.9 1677.6,2495.6 "/>
<polygon fill="#E7E7E7" points="2001.6,2431.1 2033.4,2495.6 2104.6,2505.9 2053.1,2556 2065.2,2627 2001.6,2593.5 1937.9,2627 
	1950.1,2556 1898.6,2505.9 1969.8,2495.6 "/>
<polygon fill="#E7E7E7" points="2001.6,743 2033.4,807.5 2104.6,817.8 2053.1,867.9 2065.2,938.8 2001.6,905.4 1937.9,938.8 
	1950.1,867.9 1898.6,817.8 1969.8,807.5 "/>
<circle fill="#E31E26" cx="1709.4" cy="840.9" r="48.2"/>
<circle fill="none" stroke="#B7B7B7" stroke-width="3" stroke-miterlimit="10" cx="1417.3" cy="840.9" r="103"/>
<circle fill="#FCEE21" cx="833.1" cy="840.9" r="46.1"/>
<circle fill="#8A5E3C" cx="1128.3" cy="840.9" r="28.3"/>
<text transform="matrix(1 0 0 1 803.4238 943.8644)" fill="#010101" font-family="'Montserrat-Medium'" font-size="44.7741">x 3</text>
<text transform="matrix(1 0 0 1 1092.8008 943.8644)" fill="#010101" font-family="'Montserrat-Medium'" font-size="44.7741">x 2</text>
<text transform="matrix(1 0 0 1 891.9525 188.474)" fill="#141449" font-family="'Montserrat-Regular'" font-size="90">Tom</text>
<text transform="matrix(1 0 0 1 1307.5682 206.474)" fill="#141449" font-family="'Montserrat-Bold'" font-size="111.9353"> </text>
<rect x="625" y="7.8" display="none" fill="#141449" width="1594.9" height="2703"/>
</svg>
