<?xml version="1.0" encoding="utf-8"?>
<!-- Generator: Adobe Illustrator 18.0.0, SVG Export Plug-In . SVG Version: 6.00 Build 0)  -->
<!DOCTYPE svg PUBLIC "-//W3C//DTD SVG 1.1//EN" "http://www.w3.org/Graphics/SVG/1.1/DTD/svg11.dtd">
<svg version="1.1" id="Layer_1" xmlns="http://www.w3.org/2000/svg" xmlns:xlink="http://www.w3.org/1999/xlink" x="0px" y="0px"
	 viewBox="-3183.1 -3377.8 693.4 450.3" enable-background="new -3183.1 -3377.8 693.4 450.3" xml:space="preserve">
<circle fill="#FFFFFF" cx="-3175.6" cy="-3132.9" r="7.5"/>
<circle fill="#FFFFFF" cx="-3018.2" cy="-2935" r="7.5"/>
<circle fill="#FFFFFF" cx="-3001.4" cy="-3074.1" r="7.5"/>
<circle fill="#FFFFFF" cx="-2497.2" cy="-3076.7" r="7.5"/>
<circle fill="#FFFFFF" cx="-2568.1" cy="-3370.2" r="7.5"/>
<circle fill="#FFFFFF" cx="-2681.3" cy="-3241.7" r="7.5"/>
<circle fill="#FFFFFF" cx="-2702.8" cy="-3314.4" r="7.5"/>
<circle fill="#FFFFFF" cx="-2616.1" cy="-3201.3" r="13.6"/>
<line fill="none" stroke="#FFFFFF" stroke-width="4" stroke-miterlimit="10" x1="-3006" y1="-3058" x2="-3017" y2="-2951.2"/>
<line fill="none" stroke="#FFFFFF" stroke-width="4" stroke-miterlimit="10" x1="-3161.5" y1="-3127.8" x2="-3015.6" y2="-3079.1"/>
<line fill="none" stroke="#FFFFFF" stroke-width="4" stroke-miterlimit="10" x1="-2984.9" y1="-3077.2" x2="-2637.4" y2="-3192.8"/>
<line fill="none" stroke="#FFFFFF" stroke-width="4" stroke-miterlimit="10" x1="-2506.7" y1="-3086.1" x2="-2601" y2="-3184.7"/>
<line fill="none" stroke="#FFFFFF" stroke-width="4" stroke-miterlimit="10" x1="-2634.3" y1="-3217.2" x2="-2667.3" y2="-3236.6"/>
<line fill="none" stroke="#FFFFFF" stroke-width="4" stroke-miterlimit="10" x1="-2700.3" y1="-3301.3" x2="-2687.7" y2="-3255.7"/>
<line fill="none" stroke="#FFFFFF" stroke-width="4" stroke-miterlimit="10" x1="-2691.8" y1="-3324.1" x2="-2580.9" y2="-3367.8"/>
<line fill="none" stroke="#FFFFFF" stroke-width="4" stroke-miterlimit="10" x1="-2574.2" y1="-3361.4" x2="-2670.1" y2="-3251.6"/>
<circle opacity="0.5" fill="#FFFFFF" enable-background="new    " cx="-3168.6" cy="-3135.7" r="2.8"/>
</svg>
