<?xml version="1.0" encoding="utf-8"?>
<!-- Generator: Adobe Illustrator 18.0.0, SVG Export Plug-In . SVG Version: 6.00 Build 0)  -->
<!DOCTYPE svg PUBLIC "-//W3C//DTD SVG 1.1//EN" "http://www.w3.org/Graphics/SVG/1.1/DTD/svg11.dtd">
<svg version="1.1" id="Layer_1" xmlns="http://www.w3.org/2000/svg" xmlns:xlink="http://www.w3.org/1999/xlink" x="0px" y="0px"
	 viewBox="1094.4 1656.6 753.8 298.6" enable-background="new 1094.4 1656.6 753.8 298.6" xml:space="preserve">
<circle fill="#FFFFFF" cx="1102" cy="1682.1" r="7.5"/>
<circle fill="#FFFFFF" cx="1575.6" cy="1947.6" r="7.5"/>
<circle fill="#FFFFFF" cx="1575.6" cy="1947.6" r="7.5"/>
<circle fill="#FFFFFF" cx="1575.6" cy="1947.6" r="7.5"/>
<circle fill="#FFFFFF" cx="1575.6" cy="1947.6" r="7.5"/>
<circle fill="#FFFFFF" cx="1575.6" cy="1947.6" r="7.5"/>
<circle fill="#FFFFFF" cx="1575.6" cy="1947.6" r="7.5"/>
<circle fill="#FFFFFF" cx="1575.6" cy="1947.6" r="7.5"/>
<circle fill="#FFFFFF" cx="1575.6" cy="1947.6" r="7.5"/>
<circle fill="#FFFFFF" cx="1575.6" cy="1947.6" r="7.5"/>
<circle fill="#FFFFFF" cx="1575.6" cy="1947.6" r="7.5"/>
<circle fill="#FFFFFF" cx="1575.6" cy="1947.6" r="7.5"/>
<circle fill="#FFFFFF" cx="1575.6" cy="1947.6" r="7.5"/>
<circle fill="#FFFFFF" cx="1575.6" cy="1947.6" r="7.5"/>
<circle fill="#FFFFFF" cx="1575.6" cy="1947.6" r="7.5"/>
<circle fill="#FFFFFF" cx="1575.6" cy="1947.6" r="7.5"/>
<circle fill="#FFFFFF" cx="1575.6" cy="1947.6" r="7.5"/>
<circle fill="#FFFFFF" cx="1575.6" cy="1947.6" r="7.5"/>
<circle fill="#FFFFFF" cx="1445.4" cy="1771.6" r="7.5"/>
<circle fill="#FFFFFF" cx="1250.1" cy="1929.4" r="7.5"/>
<circle fill="#FFFFFF" cx="1840.7" cy="1664.1" r="7.5"/>
<line fill="none" stroke="#FFFFFF" stroke-width="4" stroke-miterlimit="10" x1="1109.5" y1="1698.7" x2="1238" y2="1914.7"/>
<line fill="none" stroke="#FFFFFF" stroke-width="4" stroke-miterlimit="10" x1="1432.3" y1="1783.9" x2="1266.4" y2="1914.7"/>
</svg>
