<?xml version="1.0" encoding="utf-8"?>
<!-- Generator: Adobe Illustrator 18.0.0, SVG Export Plug-In . SVG Version: 6.00 Build 0)  -->
<!DOCTYPE svg PUBLIC "-//W3C//DTD SVG 1.1//EN" "http://www.w3.org/Graphics/SVG/1.1/DTD/svg11.dtd">
<svg version="1.1" id="Layer_1" xmlns="http://www.w3.org/2000/svg" xmlns:xlink="http://www.w3.org/1999/xlink" x="0px" y="0px"
	 viewBox="643.4 7.2 2701.1 2787.3" enable-background="new 643.4 7.2 2701.1 2787.3" xml:space="preserve">
<g id="XMLID_1_">
	<g>
		<path fill="#00004C" d="M2665.4,1752.6h3.1c0,15.1,0,31.7-3.1,46.8V1752.6z"/>
		<path fill="#00004C" d="M1251.1,1089.2v1.5c-1.2-9.5-1.5-19.9-1.5-30.6C1249.7,1070.3,1250,1080.2,1251.1,1089.2z"/>
		<path fill="#00004C" d="M1251.1,1019.8v69.3c-1.2-9.1-1.4-18.9-1.5-29c0-3.4,0-6.8,0-10.1c0-2.1,0-4.2,0-6.4
			C1249.7,1035.7,1250,1027.8,1251.1,1019.8z"/>
		<path fill="#00004C" d="M1251.1,2003l-1.5-3.1C1251.1,1999.9,1251.1,2001.4,1251.1,2003z"/>
		<path fill="#00004C" d="M1249.6,1999.9l1.5,3.1C1249.6,2003,1249.6,2001.4,1249.6,1999.9z"/>
		<path fill="#00004C" d="M1249.6,1999.9c0,1.5,0,3.1,1.5,3.1v790.1H643.4V1037.9c0-6,0-12,0-18C660.1,462,1115.4,12.7,1670.2,12.7
			c481,0,885.1,337.7,995.2,791.6c357.3,162.8,607.6,526.2,607.6,948.4l1.5,1041.9h-607.6v-95c-128.1,58.8-269.9,90.4-419.2,90.4
			c-481,0-885.1-334.7-996.6-787v-3.1C1249.6,1999.9,1249.6,1999.9,1249.6,1999.9z M2669.9,1752.6c0-90.4-28.6-174.9-76.9-244.3
			c-61.8-87.5-152.3-150.8-259.4-171.9c0,0-146.3-52.8-187-102.6c-40.7-52.8-55.8-212.6-55.8-212.6c-7.5-105.5-54.2-199-123.7-269.9
			c-75.3-76.9-181-125.2-297.1-125.2c-221.6,0-402.6,173.4-419.2,392c-1.2,8.4-1.5,16.9-1.5,25.2c0,2.1,0,4.2,0,6.4
			c0,3.4,0,6.8,0,10.1c0,10.7,0.3,21.1,1.5,30.6v-1.5c7.5,75.3,34.7,146.3,75.3,205c48.2,70.8,117.7,125.2,199,155.3
			c0,0,150.8,39.3,211.1,110.1c54.2,61.8,95,251.8,95,251.8c12,93.5,55.8,176.4,117.6,239.8c76.9,78.4,182.5,125.2,298.5,125.2
			c215.6,0,396.6-165.9,419.2-378.4c1.5-7.6,2.2-15.1,2.6-22.6C2669.9,1767.7,2669.9,1760.1,2669.9,1752.6z"/>
	</g>
</g>
<text transform="matrix(1 0 0 1 2918.042 276.3774)" fill="#00004C" font-family="'Gilroy-Light'" font-size="316.6316">TM</text>
<line display="none" fill="none" stroke="#0000E2" stroke-width="17" stroke-miterlimit="10" x1="3003.6" y1="62.7" x2="3003.6" y2="276.4"/>
<line display="none" fill="none" stroke="#0000E2" stroke-width="17" stroke-miterlimit="10" x1="2925.7" y1="62.7" x2="3081.5" y2="62.7"/>
<line display="none" fill="none" stroke="#0000E2" stroke-width="17" stroke-miterlimit="10" x1="3125" y1="276.4" x2="3125" y2="55.1"/>
<line display="none" fill="none" stroke="#0000E2" stroke-width="17" stroke-miterlimit="10" x1="3130" y1="59.9" x2="3216.2" y2="201.1"/>
</svg>
