<?xml version="1.0" encoding="utf-8"?>
<!-- Generator: Adobe Illustrator 18.0.0, SVG Export Plug-In . SVG Version: 6.00 Build 0)  -->
<!DOCTYPE svg PUBLIC "-//W3C//DTD SVG 1.1//EN" "http://www.w3.org/Graphics/SVG/1.1/DTD/svg11.dtd">
<svg version="1.1" id="Layer_1" xmlns="http://www.w3.org/2000/svg" xmlns:xlink="http://www.w3.org/1999/xlink" x="0px" y="0px"
	 viewBox="687.2 7.2 2747 2834.7" enable-background="new 687.2 7.2 2747 2834.7" xml:space="preserve">
<g id="XMLID_1_">
	<g>
		<path fill="#00004C" d="M2743.6,1782.3h3.2c0,15.4,0,32.2-3.2,47.6V1782.3z"/>
		<path fill="#00004C" d="M1305.3,1107.6v1.5c-1.2-9.7-1.5-20.2-1.5-31.1C1303.8,1088.4,1304.1,1098.4,1305.3,1107.6z"/>
		<path fill="#00004C" d="M1305.3,1037v70.5c-1.2-9.3-1.4-19.2-1.5-29.5c0-3.5,0-6.9,0-10.3c0-2.1,0-4.3,0-6.5
			C1303.8,1053.2,1304.1,1045.1,1305.3,1037z"/>
		<path fill="#00004C" d="M1305.3,2036.9l-1.5-3.2C1305.3,2033.8,1305.3,2035.3,1305.3,2036.9z"/>
		<path fill="#00004C" d="M1303.7,2033.8l1.5,3.2C1303.7,2036.9,1303.7,2035.3,1303.7,2033.8z"/>
		<path fill="#00004C" d="M1303.7,2033.8c0,1.5,0,3.2,1.5,3.2v803.5h-618v-1785c0-6.1,0-12.2,0-18.3
			c17-567.4,480-1024.3,1044.2-1024.3c489.2,0,900.1,343.4,1012.1,805c363.4,165.6,617.9,535.1,617.9,964.5L3363,2842h-617.9v-96.6
			c-130.3,59.8-274.5,91.9-426.3,91.9c-489.2,0-900.1-340.4-1013.5-800.4v-3.2C1303.7,2033.8,1303.7,2033.8,1303.7,2033.8z
			 M2748.2,1782.3c0-91.9-29.1-177.9-78.2-248.5c-62.8-89-154.9-153.4-263.8-174.8c0,0-148.8-53.7-190.2-104.3
			c-41.4-53.7-56.7-216.2-56.7-216.2c-7.6-107.3-55.1-202.4-125.8-274.5c-76.6-78.2-184.1-127.3-302.1-127.3
			c-225.4,0-409.4,176.3-426.3,398.7c-1.2,8.5-1.5,17.2-1.5,25.6c0,2.1,0,4.3,0,6.5c0,3.5,0,6.9,0,10.3c0,10.9,0.3,21.5,1.5,31.1
			v-1.5c7.6,76.6,35.3,148.8,76.6,208.5c49,72,119.7,127.3,202.4,157.9c0,0,153.4,40,214.7,112c55.1,62.8,96.6,256.1,96.6,256.1
			c12.2,95.1,56.7,179.4,119.6,243.9c78.2,79.7,185.6,127.3,303.6,127.3c219.3,0,403.3-168.7,426.3-384.8c1.5-7.7,2.2-15.4,2.6-23
			C2748.2,1797.6,2748.2,1789.9,2748.2,1782.3z"/>
	</g>
</g>
<g enable-background="new    ">
	<path fill="#00004C" d="M3167,71.6h-70.8v209.3h-17.4V71.6h-70.8V55.5H3167V71.6z"/>
	<path fill="#00004C" d="M3406.2,280.9h-17.1V80.7l-83.4,138.5h-2.9l-83.4-138.5v200.3h-17.1V55.5h21.3l80.5,133.3l80.5-133.3h21.6
		V280.9z"/>
</g>
<line display="none" fill="none" stroke="#0000E2" stroke-width="17" stroke-miterlimit="10" x1="3087.5" y1="63.6" x2="3087.5" y2="281"/>
<line display="none" fill="none" stroke="#0000E2" stroke-width="17" stroke-miterlimit="10" x1="3008.3" y1="63.6" x2="3166.7" y2="63.6"/>
<line display="none" fill="none" stroke="#0000E2" stroke-width="17" stroke-miterlimit="10" x1="3211" y1="281" x2="3211" y2="55.9"/>
<line display="none" fill="none" stroke="#0000E2" stroke-width="17" stroke-miterlimit="10" x1="3216.1" y1="60.8" x2="3303.7" y2="204.4"/>
</svg>
