<?xml version="1.0" encoding="utf-8"?>
<!-- Generator: Adobe Illustrator 18.0.0, SVG Export Plug-In . SVG Version: 6.00 Build 0)  -->
<!DOCTYPE svg PUBLIC "-//W3C//DTD SVG 1.1//EN" "http://www.w3.org/Graphics/SVG/1.1/DTD/svg11.dtd">
<svg version="1.1" id="Layer_1" xmlns="http://www.w3.org/2000/svg" xmlns:xlink="http://www.w3.org/1999/xlink" x="0px" y="0px"
	 viewBox="0 0 198.4 198.4" enable-background="new 0 0 198.4 198.4" xml:space="preserve">
<g>
	<g>
		<ellipse fill="#231F20" cx="79.7" cy="76.2" rx="46.9" ry="47.4"/>
		<path fill="#FFFFFF" d="M79.7,143.6c-36.7,0-66.6-30.2-66.6-67.3c0-37.1,29.9-67.3,66.6-67.3s66.6,30.2,66.6,67.3
			C146.3,113.3,116.4,143.6,79.7,143.6z M79.7,48.7c-15,0-27.2,12.3-27.2,27.5s12.2,27.5,27.2,27.5s27.2-12.3,27.2-27.5
			S94.7,48.7,79.7,48.7z"/>
	</g>
	<g>
		<ellipse fill="#231F20" cx="117.1" cy="121.6" rx="46.9" ry="47.4"/>
		<path fill="#FFFFFF" d="M117.1,188.9c-36.7,0-66.6-30.2-66.6-67.3c0-37.1,29.9-67.3,66.6-67.3s66.6,30.2,66.6,67.3
			C183.7,158.7,153.8,188.9,117.1,188.9z M117.1,94.1c-15,0-27.2,12.3-27.2,27.5s12.2,27.5,27.2,27.5s27.2-12.3,27.2-27.5
			S132.1,94.1,117.1,94.1z"/>
	</g>
	<rect x="13.1" y="74.2" fill="#FFFFFF" width="39.4" height="115"/>
	<rect x="144.3" y="121.6" fill="#FFFFFF" width="39.4" height="67.6"/>
	<ellipse fill="#010101" cx="79.7" cy="76.2" rx="27.5" ry="27.8"/>
	<ellipse fill="#010101" cx="116.4" cy="121.6" rx="27.5" ry="27.8"/>
	<path fill="#010101" d="M107.1,74.2c0,0,0.9,10.6,3.5,13.9c2.6,3.2,12.3,6.6,12.3,6.6l-33.6,31.7c0,0-1.8-13-5.2-17.1
		c-3.8-4.6-13.9-6.9-13.9-6.9L107.1,74.2z"/>
</g>
</svg>
