<?xml version="1.0" encoding="utf-8"?>
<!-- Generator: Adobe Illustrator 18.0.0, SVG Export Plug-In . SVG Version: 6.00 Build 0)  -->
<!DOCTYPE svg PUBLIC "-//W3C//DTD SVG 1.1//EN" "http://www.w3.org/Graphics/SVG/1.1/DTD/svg11.dtd">
<svg version="1.1" id="Layer_1" xmlns="http://www.w3.org/2000/svg" xmlns:xlink="http://www.w3.org/1999/xlink" x="0px" y="0px"
	 viewBox="0 0 2595.7 2686.1" enable-background="new 0 0 2595.7 2686.1" xml:space="preserve">
<g id="XMLID_1_">
	<g>
		<path fill="#FFFFFF" d="M1943.3,1660.8h2.9c0,14.3,0,30-2.9,44.3V1660.8z"/>
		<path fill="#FFFFFF" d="M603.1,1032.1v1.4c-1.1-9-1.4-18.9-1.4-29C601.8,1014.2,602.1,1023.6,603.1,1032.1z"/>
		<path fill="#FFFFFF" d="M603.1,966.4v65.7c-1.1-8.6-1.3-17.9-1.4-27.5c0-3.2,0-6.4,0-9.6c0-2,0-4,0-6.1
			C601.8,981.4,602.1,973.9,603.1,966.4z"/>
		<path fill="#FFFFFF" d="M603.1,1898l-1.4-2.9C603.1,1895.1,603.1,1896.5,603.1,1898z"/>
		<path fill="#FFFFFF" d="M601.7,1895.1l1.4,2.9C601.7,1898,601.7,1896.5,601.7,1895.1z"/>
		<path d="M601.7,1895.1c0,1.4,0,2.9,1.4,2.9v748.7H27.3V983.5c0-5.7,0-11.4,0-17.1C43.1,437.8,474.5,12,1000.3,12
			c455.8,0,838.7,320,943,750.1c338.6,154.3,575.8,498.6,575.8,898.7l1.4,987.3h-575.8v-90c-121.4,55.7-255.8,85.7-397.2,85.7
			c-455.8,0-838.7-317.2-944.4-745.8v-2.9C601.7,1895.1,601.7,1895.1,601.7,1895.1z M1947.6,1660.8c0-85.7-27.1-165.7-72.9-231.5
			c-58.6-82.9-144.3-142.9-245.8-162.9c0,0-138.6-50-177.2-97.2c-38.6-50-52.9-201.5-52.9-201.5c-7.1-100-51.4-188.6-117.2-255.8
			c-71.4-72.9-171.5-118.6-281.5-118.6c-210,0-381.5,164.3-397.2,371.5c-1.1,8-1.4,16-1.4,23.9c0,2,0,4,0,6.1c0,3.2,0,6.4,0,9.6
			c0,10.1,0.3,20,1.4,29v-1.4c7.1,71.4,32.9,138.6,71.4,194.3c45.7,67.1,111.5,118.6,188.6,147.2c0,0,142.9,37.2,200,104.3
			c51.4,58.6,90,238.6,90,238.6c11.4,88.6,52.9,167.2,111.4,227.2c72.9,74.3,172.9,118.6,282.9,118.6
			c204.3,0,375.8-157.2,397.2-358.6c1.4-7.2,2.1-14.3,2.5-21.4C1947.6,1675.1,1947.6,1667.9,1947.6,1660.8z"/>
	</g>
	<g>
	</g>
</g>
<text transform="matrix(1 0 0 1 2182.7065 261.8941)" font-family="'Gilroy-Light'" font-size="300.0385">TM</text>
</svg>
