<?xml version="1.0" encoding="utf-8"?>
<!-- Generator: Adobe Illustrator 18.0.0, SVG Export Plug-In . SVG Version: 6.00 Build 0)  -->
<!DOCTYPE svg PUBLIC "-//W3C//DTD SVG 1.1//EN" "http://www.w3.org/Graphics/SVG/1.1/DTD/svg11.dtd">
<svg version="1.1" id="Layer_1" xmlns="http://www.w3.org/2000/svg" xmlns:xlink="http://www.w3.org/1999/xlink" x="0px" y="0px"
	 viewBox="0 0 198.4 198.4" enable-background="new 0 0 198.4 198.4" xml:space="preserve">
<g>
	<path fill="#FFFFFF" d="M12.6,75.4c0,0.4,0,0.9,0,1.3v-2.2C12.6,74.8,12.6,75.1,12.6,75.4z"/>
</g>
<g>
	<path fill="#FFFFFF" d="M52.8,138.3c0,0.1,0,0.2,0.1,0.2L52.8,138.3C52.9,138.3,52.9,138.3,52.8,138.3z"/>
</g>
<path fill="#FFFFFF" d="M12.6,73.3c0,0.4,0,0.8,0,1.2L12.6,73.3L12.6,73.3z"/>
<path fill="#FFFFFF" d="M52.9,73.3V78c-0.1-0.8-0.1-1.7-0.1-2.6C52.8,74.7,52.8,74,52.9,73.3L52.9,73.3z"/>
<path fill="#FFFFFF" d="M52.9,138.4v0.2C52.9,138.5,52.9,138.4,52.9,138.4C52.9,138.3,52.9,138.3,52.9,138.4z"/>
<path fill="#FFFFFF" d="M146.9,121.9L146.9,121.9c0,1,0,2.1-0.2,3.1v-3.1H146.9z"/>
<path fill="#FFFFFF" d="M187,121.9c0-28-16.6-52.1-40.3-62.9c-7.3-30.1-34.1-52.5-66-52.5c-36.8,0-67,29.8-68.1,66.8
	c0,0.4,0,0.8,0,1.2v116.4h40.3v-52.4c0-0.1,0-0.2-0.1-0.2c0,0,0,0,0.1,0v0.2c7.4,30,34.2,52.2,66.1,52.2c9.9,0,19.3-2.1,27.8-6v6.3
	h40.3L187,121.9L187,121.9z M119,150c-7.7,0-14.7-3.1-19.8-8.3c-4.1-4.2-7-9.7-7.8-15.9c0,0-2.7-12.6-6.3-16.7c-4-4.7-14-7.3-14-7.3
	c-5.4-2-10-5.6-13.2-10.3c-2.7-3.9-4.5-8.6-5-13.6c-0.1-0.8-0.1-1.7-0.1-2.6c0-0.7,0-1.4,0.1-2.1c1.1-14.5,13.1-26,27.8-26
	c7.7,0,14.7,3.2,19.7,8.3c4.6,4.7,7.7,10.9,8.2,17.9c0,0,1,10.6,3.7,14.1c2.7,3.3,12.4,6.8,12.4,6.8c7.1,1.4,13.1,5.6,17.2,11.4
	c3.2,4.6,5.1,10.2,5.1,16.2v0c0,1,0,2-0.2,3C145.3,139,133.3,150,119,150z"/>
</svg>
