<?xml version="1.0" encoding="utf-8"?>
<!-- Generator: Adobe Illustrator 18.0.0, SVG Export Plug-In . SVG Version: 6.00 Build 0)  -->
<!DOCTYPE svg PUBLIC "-//W3C//DTD SVG 1.1//EN" "http://www.w3.org/Graphics/SVG/1.1/DTD/svg11.dtd">
<svg version="1.1" id="Layer_1" xmlns="http://www.w3.org/2000/svg" xmlns:xlink="http://www.w3.org/1999/xlink" x="0px" y="0px"
	 viewBox="-1029.2 1269.2 4320.5 1316.4" enable-background="new -1029.2 1269.2 4320.5 1316.4" xml:space="preserve">
<g enable-background="new    ">
	<path fill="#00004C" d="M795.4,2280.1H594l-37.4,92.5H419.3L629.8,1896h132.8l211.1,476.6H833.5L795.4,2280.1z M755.7,2180.8
		l-61.3-152.6l-61.3,152.6H755.7z"/>
	<path fill="#00004C" d="M1834.9,2003.8l-159.4,384.1c-18.7,45.4-41.4,77.2-68.1,95.9c-26.7,18.2-59.6,27.8-98.2,27.8
		c-19.3,0-39.1-2.8-59-9.1c-19.9-6.2-35.7-14.2-48.2-24.4l44.8-90.8c7.4,6.8,15.9,11.9,26.1,15.9s20.4,5.7,31.2,5.7
		c12.5,0,22.1-2.3,30.1-7.4c7.9-5.1,14.8-13,19.9-23.8l-157.7-373.9h132.8l90.8,225.3l91.3-225.3L1834.9,2003.8L1834.9,2003.8z"/>
	<path fill="#00004C" d="M1894.5,2368c-30.1-6.8-53.9-16.5-72.1-27.8l38.6-88.5c17,10.2,36.9,18.7,60.1,25s46,9.1,68.7,9.1
		c21,0,35.7-2.3,44.8-6.2c9.1-4.5,13-10.8,13-18.7c0-7.9-5.1-14.2-15.9-17.6c-10.8-3.4-27.8-6.8-50.5-9.6
		c-29.5-3.4-54.5-8.5-75.5-14.2c-20.4-5.7-38.6-17-53.3-32.9c-14.8-15.9-22.7-38-22.7-67c0-23.8,6.8-44.8,21-63
		c14.2-18.2,34.6-32.9,61.8-43.7c27.2-10.8,59.6-15.9,97-15.9c26.7,0,53.3,2.8,79.4,7.9c26.1,5.7,48.2,13,65.8,23.3l-38.6,87.9
		c-32.9-18.2-68.1-27.2-106.1-27.2c-20.4,0-35.2,2.3-44.8,7.4c-9.6,4.5-14.2,10.8-14.2,18.7c0,8.5,5.1,14.8,15.9,18.2
		c10.2,3.4,27.8,6.8,51.6,10.8c30.6,4.5,55.6,9.6,75.5,15.9c19.9,5.7,37.4,16.5,52.2,32.3c14.8,15.9,22.1,37.4,22.1,65.8
		c0,23.3-6.8,43.7-21,62.4c-14.2,18.2-34.6,32.9-62.4,43.1c-27.2,10.2-60.7,15.9-99.3,15.9C1954.6,2378.8,1924,2375.4,1894.5,2368z"
		/>
	<path fill="#00004C" d="M2255.9,2368c-30.1-6.8-53.9-16.5-72.1-27.8l38.6-88.5c17,10.2,36.9,18.7,60.1,25c23.3,6.2,46,9.1,68.7,9.1
		c21,0,35.7-2.3,44.8-6.2c9.1-4.5,13-10.8,13-18.7c0-7.9-5.1-14.2-15.9-17.6c-10.8-3.4-27.8-6.8-50.5-9.6
		c-29.5-3.4-54.5-8.5-75.5-14.2c-20.4-5.7-38.6-17-53.3-32.9c-14.8-15.9-22.7-38-22.7-67c0-23.8,6.8-44.8,21-63
		c14.2-18.2,34.6-32.9,61.8-43.7c27.2-10.8,59.6-15.9,97-15.9c26.7,0,53.3,2.8,79.4,7.9c26.1,5.7,48.2,13,65.8,23.3l-38.6,87.9
		c-32.9-18.2-68.1-27.2-106.1-27.2c-20.4,0-35.2,2.3-44.8,7.4c-9.6,4.5-14.2,10.8-14.2,18.7c0,8.5,5.1,14.8,15.9,18.2
		c10.2,3.4,27.8,6.8,51.6,10.8c30.6,4.5,55.6,9.6,75.5,15.9c19.9,5.7,37.4,16.5,52.2,32.3c14.8,15.9,22.1,37.4,22.1,65.8
		c0,23.3-6.8,43.7-21,62.4c-14.2,18.2-34.6,32.9-62.4,43.1c-27.2,10.2-60.7,15.9-99.3,15.9C2316,2378.8,2286,2375.4,2255.9,2368z"/>
</g>
<g enable-background="new    ">
	<path fill="#00004C" d="M839.7,1435.2c31.8,14.2,56.2,34.6,73.8,61.3c17,26.7,26.1,57.9,26.1,93.6c0,35.7-8.5,67-26.1,93.1
		c-17,26.1-42,46.5-73.8,60.7c-31.8,14.2-69.2,21.6-112.3,21.6h-82.8v124.8h-135v-476.6h217.9
		C770.5,1414.2,807.9,1421.1,839.7,1435.2z M781.8,1641.8c14.2-11.9,21-28.9,21-51.6c0-22.1-6.8-39.7-21-51.6
		c-14.2-12.5-35.2-18.2-62.4-18.2h-74.9v139.6h74.9C746.6,1659.9,767.6,1653.7,781.8,1641.8z"/>
	<path fill="#00004C" d="M1345.2,1556.1c27.8,27.2,42,68.1,42,123.1v211.1h-129.4v-190.1c0-50.5-20.4-75.5-60.7-75.5
		c-22.1,0-40.3,7.4-53.3,21.6c-13.6,14.8-19.9,36.3-19.9,65.2v178.2H994.6v-505H1124V1555c14.2-13,30.6-23.3,49.9-30.1
		c19.3-6.8,39.7-10.2,61.3-10.2C1280.6,1515.2,1317.4,1528.9,1345.2,1556.1z"/>
	<g>
		<path fill="#00004C" d="M1513.8,2037.2c-20.4,0-40.9-3.4-61.3-9.6c-20.4-6.2-38-15.3-51.1-25.5l-5.1-4.5l53.3-106.7l8.5,7.9
			c6.2,6.2,14.2,10.8,23.3,14.2s18.7,5.1,27.8,5.1c10.8,0,19.3-2.3,25.5-6.2c5.7-3.4,10.8-9.1,15.3-17L1388.4,1513h151.5L1625,1724
			l85.7-211.1h141.8l-164,396c-19.3,46.5-43.1,80-70.9,99.3C1588.6,2027.6,1554,2037.2,1513.8,2037.2z"/>
		<path fill="#FFFFFF" d="M1838.9,1521.5L1680,1905.6c-18.7,45.4-41.4,77.2-68.1,95.9c-26.7,18.2-59.6,27.8-98.2,27.8
			c-19.3,0-39.1-2.8-59-9.1s-35.7-14.2-48.2-24.4l44.8-90.8c7.4,6.8,15.9,11.9,26.1,15.9c10.2,4,20.4,5.7,31.2,5.7
			c12.5,0,22.1-2.3,30.1-7.4c7.9-5.1,14.8-13,19.9-23.8l-157.7-373.9h132.8l90.8,225.3l91.3-225.3L1838.9,1521.5 M1864.4,1504.5
			h-25.5h-123.1h-11.3l-4.5,10.8l-75.5,186.1l-74.9-186.1l-4.5-10.8h-11.3h-132.8h-25.5l10.2,23.8l154.9,366
			c-2.8,4.5-6.2,7.9-10.2,10.8c-5.1,3.4-12.5,5.1-21,5.1s-16.5-1.7-25-4.5c-7.9-2.8-14.8-7.4-20.4-12.5l-16.5-15.9l-10.2,20.4
			l-44.8,90.8l-6.2,11.9l10.8,8.5c14.2,11.3,31.8,20.4,53.9,27.2c21.6,6.8,42.6,10.2,64.1,10.2c42,0,78.3-10.2,107.8-30.6
			c29.5-20.4,54.5-55,74.3-103.3l159.4-384.1L1864.4,1504.5L1864.4,1504.5z"/>
	</g>
	<path fill="#00004C" d="M1898.4,1886.3c-30.1-6.8-53.9-16.5-72.1-27.8l38.6-88.5c17,10.2,36.9,18.7,60.1,25
		c23.3,6.2,46,9.1,68.7,9.1c21,0,35.7-2.3,44.8-6.2c9.1-4.5,13-10.8,13-18.7c0-7.9-5.1-14.2-15.9-17.6c-10.8-3.4-27.8-6.8-50.5-9.6
		c-29.5-3.4-54.5-8.5-75.5-14.2c-20.4-5.7-38.6-17-53.3-32.9c-14.8-15.9-22.7-38-22.7-67c0-23.8,6.8-44.8,21-63
		c14.2-18.2,34.6-32.9,61.8-43.7c27.2-10.8,59.6-15.9,97-15.9c26.7,0,53.3,2.8,79.4,7.9c26.1,5.7,48.2,13,65.8,23.3l-38.6,87.9
		c-32.9-18.2-68.1-27.2-106.1-27.2c-20.4,0-35.2,2.3-44.8,7.4c-9.6,4.5-14.2,10.8-14.2,18.7c0,8.5,5.1,14.8,15.9,18.2
		c10.2,3.4,27.8,6.8,51.6,10.8c30.6,4.5,55.6,9.6,75.5,15.9c19.9,5.7,37.4,16.5,52.2,32.3c14.8,15.9,22.1,37.4,22.1,65.8
		c0,23.3-6.8,43.7-21,62.4c-14.2,18.2-34.6,32.9-62.4,43.1c-27.2,10.2-60.7,15.9-99.3,15.9
		C1958.6,1896.5,1928.5,1893.1,1898.4,1886.3z"/>
	<path fill="#00004C" d="M2224.7,1460.8c-14.8-13-21.6-29.5-21.6-48.8c0-19.3,7.4-35.7,21.6-48.8c14.8-13,33.5-19.9,57.3-19.9
		c23.8,0,42.6,6.2,57.3,18.7c14.8,12.5,21.6,28.4,21.6,48.2c0,20.4-7.4,37.4-21.6,50.5c-14.8,13.6-33.5,19.9-57.3,19.9
		S2238.9,1474.4,2224.7,1460.8z M2216.7,1521.5h129.4v368.8h-129.4V1521.5z"/>
</g>
<g enable-background="new    ">
	<path fill="#00004C" d="M2507.8,1872.1c-32.3-16.5-57.3-39.1-75.5-68.1c-18.2-28.9-26.7-61.8-26.7-98.7c0-36.9,9.1-69.8,26.7-98.2
		c18.2-28.9,43.1-51.1,75.5-67.5c32.3-15.9,68.7-24.4,109.5-24.4c42,0,77.7,9.1,108.4,26.7c30.6,18.2,52.2,42.6,64.7,74.3
		l-99.9,51.1c-17-32.9-41.4-49.9-73.8-49.9c-23.3,0-42.6,7.9-57.3,23.3c-15.3,15.3-22.7,36.9-22.7,64.1c0,27.8,7.4,49.4,22.7,65.2
		c15.3,15.9,34.6,23.3,57.3,23.3c32.3,0,56.7-16.5,73.8-49.9l99.9,51.1c-12.5,31.8-34,56.7-64.7,74.3
		c-30.6,18.2-66.4,26.7-108.4,26.7C2576.5,1896.5,2540.1,1888.6,2507.8,1872.1z"/>
</g>
<g enable-background="new    ">
	<path fill="#00004C" d="M2875.5,1886.3c-30.1-6.8-53.9-16.5-72.1-27.8l38.6-88.5c17,10.2,36.9,18.7,60.1,25
		c23.3,6.2,46,9.1,68.7,9.1c21,0,35.7-2.3,44.8-6.2c9.1-4.5,13-10.8,13-18.7c0-7.9-5.1-14.2-15.9-17.6c-10.8-3.4-27.8-6.8-50.5-9.6
		c-29.5-3.4-54.5-8.5-75.5-14.2c-20.4-5.7-38.6-17-53.3-32.9c-14.8-15.9-22.7-38-22.7-67c0-23.8,6.8-44.8,21-63
		c14.2-18.2,34.6-32.9,61.8-43.7c27.2-10.8,59.6-15.9,97-15.9c26.7,0,53.3,2.8,79.4,7.9c26.1,5.7,48.2,13,65.8,23.3l-38.6,87.9
		c-32.9-18.2-68.1-27.2-106.1-27.2c-20.4,0-35.2,2.3-44.8,7.4c-9.6,4.5-14.2,10.8-14.2,18.7c0,8.5,5.1,14.8,15.9,18.2
		c10.2,3.4,27.8,6.8,51.6,10.8c30.6,4.5,55.6,9.6,75.5,15.9c19.9,5.7,37.4,16.5,52.2,32.3c14.8,15.9,22.1,37.4,22.1,65.8
		c0,23.3-6.8,43.7-21,62.4c-14.2,18.2-34.6,32.9-62.4,43.1c-27.2,10.2-60.7,15.9-99.3,15.9C2935.6,1896.5,2905,1893.1,2875.5,1886.3
		z"/>
</g>
<g>
	<path fill="#00004C" d="M1226.1,2387.3c-42,0-75.5-10.2-100.4-31.2v25H985.5v-522h146.4v157.7c25-18.7,56.2-27.8,94.2-27.8
		c34.6,0,67,7.9,95.9,24.4c28.9,15.9,51.6,39.7,68.7,69.8s25.5,65.2,25.5,104.4c0,39.1-8.5,74.3-25.5,104.4
		c-17,30.1-39.7,53.9-68.7,70.4C1293.6,2378.8,1261.3,2387.3,1226.1,2387.3z M1198.9,2108.7c-20.4,0-36.9,6.8-49.4,20.4
		c-13,13.6-19.3,33.5-19.3,58.4c0,25.5,6.8,45.4,19.3,59c13,14.2,28.9,21,49.4,21c20.4,0,36.9-6.8,49.4-21c13-14.2,19.3-34,19.3-59
		c0-25-6.8-44.3-19.3-58.4C1235.7,2115.5,1219.3,2108.7,1198.9,2108.7z"/>
	<path fill="#FFFFFF" d="M1123.4,1867.6v167.9c25-25.5,59-38,102.7-38c33.5,0,64.1,7.9,91.3,23.3c27.2,15.3,49.4,37.4,65.2,66.4
		c15.9,28.9,24.4,62.4,24.4,100.4c0,38-7.9,71.5-24.4,101c-15.9,28.9-38,51.6-65.2,67c-27.2,15.9-57.9,23.3-91.3,23.3
		c-48.8,0-85.1-14.2-108.9-43.1v36.9H994v-505L1123.4,1867.6 M1198.9,2276.1c22.7,0,41.4-7.9,55.6-23.3
		c14.8-15.9,21.6-37.4,21.6-65.2c0-27.2-7.4-48.8-21.6-64.1c-14.8-15.3-32.9-23.3-55.6-23.3c-22.7,0-41.4,7.9-55.6,23.3
		c-14.8,15.3-21.6,36.9-21.6,64.1c0,27.8,7.4,49.4,21.6,65.2C1158,2268.2,1176.2,2276.1,1198.9,2276.1 M1140.4,1850.6h-17H994h-17
		v17v505v17h17h123.1h17v-17c24.4,15.3,55,22.7,91.9,22.7c36.3,0,69.8-8.5,99.9-25.5c30.1-17,54.5-42,72.1-73.8
		c17.6-31.2,26.1-68.1,26.1-108.9s-9.1-77.7-26.1-108.9c-17.6-31.2-42-56.2-72.1-73.2c-30.1-17-63.5-25.5-99.9-25.5
		c-33.5,0-61.8,6.8-85.7,20.4v-133.9L1140.4,1850.6L1140.4,1850.6z M1198.9,2259.1c-18.2,0-32.3-5.7-43.1-18.2
		c-11.3-12.5-17-30.1-17-53.3c0-22.7,5.7-40.3,17-52.2c11.3-11.9,25.5-17.6,43.7-17.6s32.3,5.7,43.7,17.6c11.3,12.5,17,29.5,17,52.2
		c0,23.3-5.7,40.9-17,53.3C1231.2,2252.8,1217,2259.1,1198.9,2259.1L1198.9,2259.1z"/>
</g>
<g enable-background="new    ">
	<path fill="#00004C" d="M3189.8,1277.6h-20.4v-7.4h49.3v7.4h-20.4v52.2h-8.4V1277.6z"/>
	<path fill="#00004C" d="M3283.2,1329.8l-0.1-43.4l-21.5,36.2h-3.9l-21.5-35.9v43.1h-8.2v-59.6h7l24.9,41.9l24.5-41.9h7l0.1,59.6
		H3283.2z"/>
</g>
<rect x="490.8" y="1887.4" fill="#FFFFFF" width="312.6" height="17"/>
<rect x="-1029.2" y="1269.2" fill="#00004C" width="1316.4" height="1316.4"/>
<g>
	<path fill="#FFFFFF" d="M-450.9,2095.5c0,0.4,0,0.8,0.4,0.8L-450.9,2095.5C-450.5,2095.5-450.5,2095.5-450.9,2095.5z"/>
</g>
<path fill="#FFFFFF" d="M-621.8,1819.3c0,1.7,0,3.4,0,5.1V1819.3L-621.8,1819.3z"/>
<path fill="#FFFFFF" d="M-450.5,1819.3v20c-0.4-3.4-0.4-7.2-0.4-11C-450.9,1825.2-450.9,1822.3-450.5,1819.3L-450.5,1819.3z"/>
<path fill="#FFFFFF" d="M-450.5,2096v0.9C-450.5,2096.4-450.5,2096-450.5,2096C-450.5,2095.5-450.5,2095.5-450.5,2096z"/>
<path fill="#FFFFFF" d="M-51,2025.8L-51,2025.8c0,4.2,0,8.9-0.8,13.2v-13.2H-51z"/>
<path fill="#FFFFFF" d="M46.4,2038.3c0-134.1-79.5-249.5-193-301.2c-35-144.1-163.3-251.4-316.1-251.4
	c-176.2,0-320.9,142.7-326.1,319.9c0,1.9,0,3.8,0,5.7v557.4h193v-250.9c0-0.5,0-1-0.5-1c0,0,0,0,0.5,0v1
	c35.4,143.7,163.8,250,316.6,250c47.4,0,92.4-10.1,133.1-28.7v30.2h193L46.4,2038.3L46.4,2038.3z M-279.3,2172.9
	c-36.9,0-70.4-14.8-94.8-39.7c-19.6-20.1-33.5-46.5-37.4-76.1c0,0-12.9-60.3-30.2-80c-19.2-22.5-67-35-67-35
	c-25.9-9.6-47.9-26.8-63.2-49.3c-12.9-18.7-21.6-41.2-23.9-65.1c-0.5-3.8-0.5-8.1-0.5-12.5c0-3.4,0-6.7,0.5-10.1
	c5.3-69.4,62.7-124.5,133.1-124.5c36.9,0,70.4,15.3,94.3,39.7c22,22.5,36.9,52.2,39.3,85.7c0,0,4.8,50.8,17.7,67.5
	c12.9,15.8,59.4,32.6,59.4,32.6c34,6.7,62.7,26.8,82.4,54.6c15.3,22,24.4,48.8,24.4,77.6l0,0c0,4.8,0,9.6-1,14.4
	C-153.3,2120.2-210.8,2172.9-279.3,2172.9z"/>
</svg>
