<?xml version="1.0" encoding="utf-8"?>
<!-- Generator: Adobe Illustrator 18.0.0, SVG Export Plug-In . SVG Version: 6.00 Build 0)  -->
<!DOCTYPE svg PUBLIC "-//W3C//DTD SVG 1.1//EN" "http://www.w3.org/Graphics/SVG/1.1/DTD/svg11.dtd">
<svg version="1.1" id="Layer_1" xmlns="http://www.w3.org/2000/svg" xmlns:xlink="http://www.w3.org/1999/xlink" x="0px" y="0px"
	 viewBox="0 0 323.4 280" enable-background="new 0 0 323.4 280" xml:space="preserve">
<g>
	<rect x="2.5" y="2.5" fill="#F4C248" width="275" height="275"/>
	<path fill="#FFFFFF" d="M275,5v270H5V5H275 M280,0h-5H5H0v5v270v5h5h270h5v-5V5V0L280,0z"/>
</g>
<g>
	<rect x="2.5" y="238" fill="#F4C248" width="91.7" height="39.5"/>
	<path fill="#FFFFFF" d="M91.7,240.5V275H5v-34.5H91.7 M96.7,235.5h-5H5H0v5V275v5h5h86.7h5v-5v-34.5V235.5L96.7,235.5z"/>
</g>
<g>
	<rect x="94.1" y="238" fill="#F4C248" width="91.7" height="39.5"/>
	<path fill="#FFFFFF" d="M183.4,240.5V275H96.6v-34.5H183.4 M188.4,235.5h-5H96.6h-5v5V275v5h5h86.7h5v-5v-34.5V235.5L188.4,235.5z"
		/>
</g>
<g>
	<rect x="185.8" y="238" fill="#F4C248" width="91.7" height="39.5"/>
	<path fill="#FFFFFF" d="M275,240.5V275h-86.7v-34.5H275 M280,235.5h-5h-86.7h-5v5V275v5h5H275h5v-5v-34.5V235.5L280,235.5z"/>
</g>
<g>
	<rect x="45.9" y="198" fill="#F4C248" width="91.7" height="39.5"/>
	<path fill="#FFFFFF" d="M135.1,200.5V235H48.4v-34.5H135.1 M140.1,195.5h-5H48.4h-5v5V235v5h5h86.7h5v-5v-34.5V195.5L140.1,195.5z"
		/>
</g>
<g>
	<rect x="137.5" y="198" fill="#F4C248" width="91.7" height="39.5"/>
	<path fill="#FFFFFF" d="M226.7,200.5V235H140v-34.5H226.7 M231.7,195.5h-5H140h-5v5V235v5h5h86.7h5v-5v-34.5V195.5L231.7,195.5z"/>
</g>
<g>
	<rect x="229.1" y="198" fill="#F4C248" width="91.7" height="39.5"/>
	<path fill="#FFFFFF" d="M318.4,200.5V235h-86.7v-34.5H318.4 M323.4,195.5h-5h-86.7h-5v5V235v5h5h86.7h5v-5v-34.5V195.5L323.4,195.5
		z"/>
</g>
<g>
	<rect x="94.1" y="157.2" fill="#F4C248" width="91.7" height="39.5"/>
	<path fill="#FFFFFF" d="M183.4,159.8v34.5H96.6v-34.5H183.4 M188.4,154.8h-5H96.6h-5v5v34.5v5h5h86.7h5v-5v-34.5V154.8L188.4,154.8
		z"/>
</g>
<g>
	<rect x="185.8" y="157.2" fill="#F4C248" width="91.7" height="39.5"/>
	<path fill="#FFFFFF" d="M275,159.8v34.5h-86.7v-34.5H275 M280,154.8h-5h-86.7h-5v5v34.5v5h5H275h5v-5v-34.5V154.8L280,154.8z"/>
</g>
<g>
	<rect x="137.5" y="117.1" fill="#F4C248" width="91.7" height="39.5"/>
	<path fill="#FFFFFF" d="M226.7,119.6v34.5H140v-34.5H226.7 M231.7,114.6h-5H140h-5v5v34.5v5h5h86.7h5v-5v-34.5V114.6L231.7,114.6z"
		/>
</g>
<g>
	<rect x="229.1" y="117.1" fill="#F4C248" width="91.7" height="39.5"/>
	<path fill="#FFFFFF" d="M318.4,119.6v34.5h-86.7v-34.5H318.4 M323.4,114.6h-5h-86.7h-5v5v34.5v5h5h86.7h5v-5v-34.5V114.6
		L323.4,114.6z"/>
</g>
</svg>
