<?xml version="1.0" encoding="utf-8"?>
<!-- Generator: Adobe Illustrator 18.0.0, SVG Export Plug-In . SVG Version: 6.00 Build 0)  -->
<!DOCTYPE svg PUBLIC "-//W3C//DTD SVG 1.1//EN" "http://www.w3.org/Graphics/SVG/1.1/DTD/svg11.dtd">
<svg version="1.1" id="Layer_1" xmlns="http://www.w3.org/2000/svg" xmlns:xlink="http://www.w3.org/1999/xlink" x="0px" y="0px"
	 viewBox="0 0 2834.6 2834.6" enable-background="new 0 0 2834.6 2834.6" xml:space="preserve">
<g>
	<rect x="21.9" y="402.3" fill="#F4C248" width="2410.4" height="2410.4"/>
	<path fill="#FFFFFF" d="M2410.4,424.2v2366.6H43.8V424.2H2410.4 M2454.2,380.4h-43.8H43.8H0v43.8v2366.6v43.8h43.8h2366.6h43.8
		v-43.8V424.2L2454.2,380.4L2454.2,380.4z"/>
</g>
<g>
	<rect x="65.8" y="2510.4" fill="#FFFFFF" width="716" height="258.4"/>
	<path fill="#F4C248" d="M759.8,2532.4v214.4h-672v-214.4H759.8 M803.8,2488.4h-760v302.4h760V2488.4L803.8,2488.4z"/>
</g>
<g>
	<rect x="868.7" y="2510.4" fill="#FFFFFF" width="716" height="258.4"/>
	<path fill="#F4C248" d="M1562.7,2532.4v214.4h-672v-214.4H1562.7 M1606.7,2488.4h-760v302.4h760V2488.4L1606.7,2488.4z"/>
</g>
<g>
	<rect x="1650.9" y="2530.2" fill="#FFFFFF" width="712.6" height="218.4"/>
</g>
<g>
	<rect x="870.8" y="2530.4" fill="#FFFFFF" width="712.6" height="218.4"/>
</g>
<g>
	<rect x="89.2" y="2530.2" fill="#FFFFFF" width="727.1" height="218.4"/>
</g>
<g>
	<rect x="863.2" y="2530.2" fill="#FFFFFF" width="727.1" height="218.4"/>
</g>
<g>
	<rect x="1636.5" y="2530.2" fill="#FFFFFF" width="727.1" height="218.4"/>
</g>
<g>
	<rect x="476.2" y="2270.1" fill="#FFFFFF" width="727.1" height="218.4"/>
</g>
<g>
	<rect x="1249.7" y="2270.1" fill="#FFFFFF" width="727.1" height="218.4"/>
</g>
<g>
	<rect x="2020.7" y="2270.1" fill="#FFFFFF" width="727.1" height="218.4"/>
</g>
<g>
	<rect x="863.6" y="2009.2" fill="#FFFFFF" width="727.1" height="218.4"/>
</g>
<g>
	<rect x="1636.5" y="2009.2" fill="#FFFFFF" width="727.1" height="218.4"/>
</g>
<g>
	<rect x="1251" y="1749.7" fill="#FFFFFF" width="727.1" height="218.4"/>
</g>
<g>
	<polygon fill="#F4C248" points="2022,1968.1 2410.3,1968.1 2749.1,1968.1 2749.1,1749.7 2410.5,1749.7 2022,1749.7 	"/>
</g>
<g>
	<polygon fill="#FFFFFF" points="2022,1968.1 2410.3,1968.1 2410.5,1749.7 2022,1749.7 	"/>
</g>
<g>
	<polygon fill="#F4C248" points="2022,2488.4 2410.3,2488.4 2749.1,2488.4 2749.1,2270.1 2410.5,2270.1 2022,2270.1 	"/>
</g>
<g>
	<polygon fill="#FFFFFF" points="2022,2488.4 2410.3,2488.4 2410.5,2270.1 2022,2270.1 	"/>
</g>
</svg>
