<?xml version="1.0" encoding="utf-8"?>
<!-- Generator: Adobe Illustrator 18.0.0, SVG Export Plug-In . SVG Version: 6.00 Build 0)  -->
<!DOCTYPE svg PUBLIC "-//W3C//DTD SVG 1.1//EN" "http://www.w3.org/Graphics/SVG/1.1/DTD/svg11.dtd">
<svg version="1.1" id="Layer_1" xmlns="http://www.w3.org/2000/svg" xmlns:xlink="http://www.w3.org/1999/xlink" x="0px" y="0px"
	 viewBox="0 190.2 2834.6 2454.2" enable-background="new 0 190.2 2834.6 2454.2" xml:space="preserve">
<g>
	<rect x="21.9" y="212.1" fill="#F4C248" width="2410.4" height="2410.4"/>
	<path fill="#FFFFFF" d="M2410.4,234v2366.6H43.8V234H2410.4 M2454.2,190.2h-43.8H43.8H0V234v2366.6v43.8h43.8h2366.6h43.8v-43.8
		V234V190.2L2454.2,190.2z"/>
</g>
<g>
	<rect x="21.9" y="2276.3" fill="#F4C248" width="803.8" height="346.2"/>
	<path fill="#FFFFFF" d="M803.8,2298.2v302.4H43.8v-302.4H803.8 M847.6,2254.4h-43.8H43.8H0v43.8v302.4v43.8h43.8h759.9h43.8v-43.8
		v-302.4V2254.4L847.6,2254.4z"/>
</g>
<g>
	<rect x="824.8" y="2276.3" fill="#F4C248" width="803.8" height="346.2"/>
	<path fill="#FFFFFF" d="M1607.5,2298.2v302.4H846.7v-302.4H1607.5 M1651.4,2254.4h-43.8H846.7h-43.8v43.8v302.4v43.8h43.8h759.9
		h43.8v-43.8v-302.4v-43.8H1651.4z"/>
</g>
<g>
	<rect x="1628.6" y="2276.3" fill="#F4C248" width="803.8" height="346.2"/>
	<path fill="#FFFFFF" d="M2410.4,2298.2v302.4h-759.9v-302.4H2410.4 M2454.2,2254.4h-43.8h-759.9h-43.8v43.8v302.4v43.8h43.8h759.9
		h43.8v-43.8v-302.4V2254.4L2454.2,2254.4z"/>
</g>
<g>
	<rect x="402.3" y="1925.7" fill="#F4C248" width="803.8" height="346.2"/>
	<path fill="#FFFFFF" d="M1184.2,1947.6V2250H424.2v-302.4H1184.2 M1228,1903.8h-43.8H424.2h-43.8v43.8V2250v43.8h43.8h759.9h43.8
		V2250v-302.4V1903.8L1228,1903.8z"/>
</g>
<g>
	<rect x="1205.2" y="1925.7" fill="#F4C248" width="803.8" height="346.2"/>
	<path fill="#FFFFFF" d="M1987.1,1947.6V2250h-759.9v-302.4H1987.1 M2030.9,1903.8h-43.8h-759.9h-43.8v43.8V2250v43.8h43.8h759.9
		h43.8V2250v-302.4V1903.8L2030.9,1903.8z"/>
</g>
<g>
	<rect x="2008.1" y="1925.7" fill="#F4C248" width="803.8" height="346.2"/>
	<path fill="#FFFFFF" d="M2790.8,1947.6V2250h-759.9v-302.4H2790.8 M2834.6,1903.8h-43.8h-759.9h-43.8v43.8V2250v43.8h43.8h759.9
		h43.8V2250v-302.4V1903.8L2834.6,1903.8z"/>
</g>
<g>
	<rect x="824.8" y="1568.1" fill="#F4C248" width="803.8" height="346.2"/>
	<path fill="#FFFFFF" d="M1607.5,1590.9v302.4H846.7v-302.4H1607.5 M1651.4,1547h-43.8H846.7h-43.8v43.8v302.4v43.8h43.8h759.9h43.8
		v-43.8v-302.4V1547H1651.4z"/>
</g>
<g>
	<rect x="1628.6" y="1568.1" fill="#F4C248" width="803.8" height="346.2"/>
	<path fill="#FFFFFF" d="M2410.4,1590.9v302.4h-759.9v-302.4H2410.4 M2454.2,1547h-43.8h-759.9h-43.8v43.8v302.4v43.8h43.8h759.9
		h43.8v-43.8v-302.4V1547L2454.2,1547z"/>
</g>
<g>
	<rect x="1205.2" y="1216.6" fill="#F4C248" width="803.8" height="346.2"/>
	<path fill="#FFFFFF" d="M1987.1,1238.5v302.4h-759.9v-302.4L1987.1,1238.5 M2030.9,1194.7h-43.8h-759.9h-43.8v43.8v302.4v43.8h43.8
		h759.9h43.8v-43.8v-302.4V1194.7L2030.9,1194.7z"/>
</g>
<g>
	<rect x="2008.1" y="1216.6" fill="#F4C248" width="803.8" height="346.2"/>
	<path fill="#FFFFFF" d="M2790.8,1238.5v302.4h-759.9v-302.4L2790.8,1238.5 M2834.6,1194.7h-43.8h-759.9h-43.8v43.8v302.4v43.8h43.8
		h759.9h43.8v-43.8v-302.4V1194.7L2834.6,1194.7z"/>
</g>
</svg>
