<?xml version="1.0" encoding="utf-8"?>
<!-- Generator: Adobe Illustrator 18.0.0, SVG Export Plug-In . SVG Version: 6.00 Build 0)  -->
<!DOCTYPE svg PUBLIC "-//W3C//DTD SVG 1.1//EN" "http://www.w3.org/Graphics/SVG/1.1/DTD/svg11.dtd">
<svg version="1.1" id="Layer_1" xmlns="http://www.w3.org/2000/svg" xmlns:xlink="http://www.w3.org/1999/xlink" x="0px" y="0px"
	 viewBox="76.3 868.3 2263.6 1806.8" enable-background="new 76.3 868.3 2263.6 1806.8" xml:space="preserve">
<g>
	<rect x="76.3" y="868.3" fill="#FF6577" width="1806.8" height="1806.8"/>
</g>
<circle display="none" fill="#E4525A" cx="2030.8" cy="2345" r="194.6"/>
<g display="none">
	<path display="inline" fill="#E4525A" d="M1973.6,2154.3c39.1,0,77.8,10,112,28.8c35.2,19.5,64.9,48.1,85.8,82.8
		c31.8,52.8,41.1,114.8,26.2,174.5c-14.9,59.8-52.1,110.2-104.8,141.9c-35.9,21.6-77,33-118.7,33c-39.1,0-77.7-10-112-28.8
		c-35.2-19.5-64.9-48.1-85.8-82.8c-31.8-52.8-41.1-114.8-26.2-174.5c14.9-59.8,52.1-110.2,104.8-141.9
		C1890.8,2165.7,1931.9,2154.3,1973.6,2154.3z"/>
	<path display="inline" fill="#FFFFFF" d="M1974,2592.9c-70.6,0-139.4-35.9-178.4-100.8c-59.3-98.5-27.5-226.3,71-285.5
		c33.6-20.2,70.6-29.8,107.1-29.8c70.6,0,139.4,35.9,178.4,100.8c59.3,98.5,27.5,226.3-71,285.5
		C2047.5,2583.3,2010.5,2592.9,1974,2592.9 M1974,2638v-45.1V2638c45.8,0,90.9-12.5,130.4-36.3c29.3-17.6,54.2-40.5,74.1-67.9
		c19.2-26.4,33-56,40.9-87.9c7.9-31.9,9.6-64.5,5-96.9c-4.8-33.6-16.1-65.4-33.8-94.7c-22.9-38.1-55.5-69.5-94.2-90.9
		c-37.5-20.7-80-31.7-122.9-31.7c-45.8,0-90.9,12.5-130.4,36.3c-29.3,17.6-54.2,40.5-74.1,67.9c-19.2,26.4-33,56-40.9,87.9
		c-7.9,31.9-9.6,64.5-5,96.9c4.8,33.6,16.1,65.4,33.8,94.7c22.9,38.1,55.5,69.5,94.2,90.9C1888.7,2627,1931.1,2638,1974,2638
		L1974,2638z"/>
</g>
<circle fill="#FFFFFF" cx="1654.7" cy="2217" r="228.4"/>
<circle fill="#FFFFFF" cx="1654.7" cy="1758.1" r="228.4"/>
<circle fill="#FF6577" cx="2111.5" cy="2446.4" r="228.4"/>
<circle fill="#FF6577" cx="2111.5" cy="1987.5" r="228.4"/>
<circle fill="#FF6577" cx="2111.5" cy="1529.8" r="228.4"/>
<circle fill="#FFFFFF" cx="1654.7" cy="1300.4" r="228.4"/>
<circle fill="#FFFFFF" cx="1654.7" cy="841.5" r="228.4"/>
<circle fill="#FF6577" cx="2111.5" cy="1073" r="228.4"/>
<circle fill="#FFFFFF" cx="1654.7" cy="2675.1" r="228.4"/>
</svg>
