<?xml version="1.0" encoding="utf-8"?>
<!-- Generator: Adobe Illustrator 18.0.0, SVG Export Plug-In . SVG Version: 6.00 Build 0)  -->
<!DOCTYPE svg PUBLIC "-//W3C//DTD SVG 1.1//EN" "http://www.w3.org/Graphics/SVG/1.1/DTD/svg11.dtd">
<svg version="1.1" id="Layer_1" xmlns="http://www.w3.org/2000/svg" xmlns:xlink="http://www.w3.org/1999/xlink" x="0px" y="0px"
	 viewBox="76.3 453.1 3774.4 2753" enable-background="new 76.3 453.1 3774.4 2753" xml:space="preserve">
<g>
	<rect x="76.3" y="495.2" fill="#B56EF5" width="2405.8" height="2405.8"/>
</g>
<rect x="2482.1" y="2169.9" fill="#B56EF5" width="845.9" height="731.2"/>
<rect x="1636.2" y="2169.9" fill="#FFFFFF" width="845.9" height="731.2"/>
<path fill="none" stroke="#B56EF5" stroke-width="60" stroke-miterlimit="10" d="M2482.1,2455.3c616.2,0,1115.8-169.5,1115.8-378.6
	c0-209.1-499.6-378.6-1115.8-378.6"/>
<path fill="none" stroke="#FFFFFF" stroke-width="60" stroke-miterlimit="10" d="M2482.1,1698.1c-616.2,0-1115.8,169.5-1115.8,378.6
	c0,209.1,499.6,378.6,1115.8,378.6"/>
<path fill="none" stroke="#B56EF5" stroke-width="60" stroke-miterlimit="10" d="M2482.1,3366.1c616.2,0,1115.8-169.5,1115.8-378.6
	c0-209.1-499.6-378.6-1115.8-378.6"/>
<path fill="none" stroke="#FFFFFF" stroke-width="60" stroke-miterlimit="10" d="M2482.1,2608.9c-616.2,0-1115.8,169.5-1115.8,378.6
	c0,209.1,499.6,378.6,1115.8,378.6"/>
<path fill="none" stroke="#B56EF5" stroke-width="60" stroke-miterlimit="10" d="M2482.1,2628.1c751,0,1359.8-284.9,1359.8-636.2
	s-608.8-636.2-1359.8-636.2"/>
<path fill="none" stroke="#FFFFFF" stroke-width="60" stroke-miterlimit="10" d="M2482.1,1355.6c-751,0-1359.8,284.9-1359.8,636.2
	s608.8,636.2,1359.8,636.2"/>
<path fill="none" stroke="#B56EF5" stroke-width="60" stroke-miterlimit="10" d="M2482.1,3724.4c751,0,1359.8-284.9,1359.8-636.2
	s-608.8-636.2-1359.8-636.2"/>
<path fill="none" stroke="#FFFFFF" stroke-width="60" stroke-miterlimit="10" d="M2482.1,2451.9c-751,0-1359.8,284.9-1359.8,636.2
	s608.8,636.2,1359.8,636.2"/>
</svg>
