<?xml version="1.0" encoding="utf-8"?>
<!-- Generator: Adobe Illustrator 18.0.0, SVG Export Plug-In . SVG Version: 6.00 Build 0)  -->
<!DOCTYPE svg PUBLIC "-//W3C//DTD SVG 1.1//EN" "http://www.w3.org/Graphics/SVG/1.1/DTD/svg11.dtd">
<svg version="1.1" id="Layer_1" xmlns="http://www.w3.org/2000/svg" xmlns:xlink="http://www.w3.org/1999/xlink" x="0px" y="0px"
	 viewBox="76.3 1154.3 2834.6 2262.6" enable-background="new 76.3 1154.3 2834.6 2262.6" xml:space="preserve">
<g>
	<rect x="76.3" y="1154.3" fill="#FF6577" width="2262.6" height="2262.6"/>
</g>
<circle display="none" fill="#E4525A" cx="2523.9" cy="3003.6" r="243.7"/>
<g display="none">
	<path display="inline" fill="#E4525A" d="M2452.2,2764.7c49,0,97.4,12.5,140.3,36.1c44.1,24.4,81.3,60.2,107.4,103.7
		c39.8,66.1,51.5,143.8,32.8,218.5c-18.7,74.9-65.2,138-131.2,177.7c-45,27-96.4,41.3-148.6,41.3c-49,0-97.3-12.5-140.3-36.1
		c-44.1-24.4-81.3-60.2-107.4-103.7c-39.8-66.1-51.5-143.8-32.8-218.5c18.7-74.9,65.2-138,131.2-177.7
		C2348.6,2779,2400,2764.7,2452.2,2764.7z"/>
	<path display="inline" fill="#FFFFFF" d="M2452.7,3314c-88.4,0-174.6-45-223.4-126.2c-74.3-123.3-34.4-283.4,88.9-357.5
		c42.1-25.3,88.4-37.3,134.1-37.3c88.4,0,174.6,45,223.4,126.2c74.3,123.3,34.4,283.4-88.9,357.5
		C2544.8,3302,2498.5,3314,2452.7,3314 M2452.7,3370.5V3314V3370.5c57.4,0,113.8-15.7,163.3-45.5c36.7-22,67.9-50.7,92.8-85
		c24-33.1,41.3-70.1,51.2-110.1c9.9-39.9,12-80.8,6.3-121.3c-6-42.1-20.2-81.9-42.3-118.6c-28.7-47.7-69.5-87-118-113.8
		c-47-25.9-100.2-39.7-153.9-39.7c-57.4,0-113.8,15.7-163.3,45.5c-36.7,22-67.9,50.7-92.8,85c-24,33.1-41.3,70.1-51.2,110.1
		s-12,80.8-6.3,121.3c6,42.1,20.2,81.9,42.3,118.6c28.7,47.7,69.5,87,118,113.8C2345.9,3356.7,2399,3370.5,2452.7,3370.5
		L2452.7,3370.5z"/>
</g>
<circle fill="#FFFFFF" cx="2052.9" cy="2556" r="286"/>
<circle fill="#FFFFFF" cx="2052.9" cy="1981.4" r="286"/>
<circle fill="#FFFFFF" cx="1478.3" cy="1981.4" r="286"/>
<circle fill="#FFFFFF" cx="726.5" cy="2756.1" r="286"/>
<circle fill="#FF6577" cx="2624.9" cy="3130.5" r="286"/>
<circle fill="#FF6577" cx="2624.9" cy="2555.9" r="286"/>
<circle fill="#FF6577" cx="2624.9" cy="1982.7" r="286"/>
</svg>
