<?xml version="1.0" encoding="utf-8"?>
<!-- Generator: Adobe Illustrator 18.0.0, SVG Export Plug-In . SVG Version: 6.00 Build 0)  -->
<!DOCTYPE svg PUBLIC "-//W3C//DTD SVG 1.1//EN" "http://www.w3.org/Graphics/SVG/1.1/DTD/svg11.dtd">
<svg version="1.1" id="Layer_1" xmlns="http://www.w3.org/2000/svg" xmlns:xlink="http://www.w3.org/1999/xlink" x="0px" y="0px"
	 viewBox="76.3 495.2 3672.4 2830.9" enable-background="new 76.3 495.2 3672.4 2830.9" xml:space="preserve">
<g>
	<rect x="76.3" y="495.2" fill="#B56EF5" width="2405.8" height="2405.8"/>
</g>
<rect x="2482.1" y="1882.4" fill="#B56EF5" width="769.2" height="664.9"/>
<rect x="1712.9" y="1882.4" fill="#FFFFFF" width="769.2" height="664.9"/>
<path fill="none" stroke="#B56EF5" stroke-width="60" stroke-miterlimit="10" d="M2482.1,2166.3c496.3,0,898.7-136.5,898.7-304.9
	s-402.3-304.9-898.7-304.9"/>
<path fill="none" stroke="#FFFFFF" stroke-width="60" stroke-miterlimit="10" d="M2482.1,1556.4c-496.3,0-898.7,136.5-898.7,304.9
	s402.3,304.9,898.7,304.9"/>
<path fill="none" stroke="#B56EF5" stroke-width="60" stroke-miterlimit="10" d="M2482.1,2299.2c683,0,1236.6-259,1236.6-578.6
	S3165.1,1142,2482.1,1142"/>
<path fill="none" stroke="#FFFFFF" stroke-width="60" stroke-miterlimit="10" d="M2482.1,1142c-683,0-1236.6,259-1236.6,578.6
	s553.7,578.6,1236.6,578.6"/>
<path fill="none" stroke="#B56EF5" stroke-width="60" stroke-miterlimit="10" d="M2482.1,3296.1c683,0,1236.6-259,1236.6-578.6
	s-553.7-578.6-1236.6-578.6"/>
<path fill="none" stroke="#B56EF5" stroke-width="60" stroke-miterlimit="10" d="M1289.9,2871.7
	c144.2,244.7,623.4,424.4,1192.2,424.4"/>
<path fill="none" stroke="#FFFFFF" stroke-width="60" stroke-miterlimit="10" d="M1245.5,2717.5c0,53.4,15.5,105.1,44.4,154.2"/>
<path fill="none" stroke="#FFFFFF" stroke-width="60" stroke-miterlimit="10" d="M2482.1,2138.9c-683,0-1236.6,259-1236.6,578.6"/>
<path fill="none" stroke="#B56EF5" stroke-width="60" stroke-miterlimit="10" d="M2482.1,2870.8c496.3,0,898.7-136.5,898.7-304.9
	c0-168.4-402.3-304.9-898.7-304.9"/>
<path fill="none" stroke="#FFFFFF" stroke-width="60" stroke-miterlimit="10" d="M1664.5,2692.6
	c141.8,105.1,454.5,178.2,817.6,178.2"/>
<path fill="none" stroke="#FFFFFF" stroke-width="60" stroke-miterlimit="10" d="M2482.1,2260.9c-496.3,0-898.7,136.5-898.7,304.9
	c0,45.2,29,88.2,81.1,126.8"/>
<polygon fill="#FFFFFF" points="1272.9,2901 1263.5,2886 1314.6,2854.7 1346.5,2901 "/>
</svg>
