<?xml version="1.0" encoding="utf-8"?>
<!-- Generator: Adobe Illustrator 18.0.0, SVG Export Plug-In . SVG Version: 6.00 Build 0)  -->
<!DOCTYPE svg PUBLIC "-//W3C//DTD SVG 1.1//EN" "http://www.w3.org/Graphics/SVG/1.1/DTD/svg11.dtd">
<svg version="1.1" id="Layer_1" xmlns="http://www.w3.org/2000/svg" xmlns:xlink="http://www.w3.org/1999/xlink" x="0px" y="0px"
	 viewBox="76.3 495.2 3795.6 3073.2" enable-background="new 76.3 495.2 3795.6 3073.2" xml:space="preserve">
<g>
	<rect x="76.3" y="495.2" fill="#B56EF5" width="2405.8" height="2405.8"/>
</g>
<rect x="2482.1" y="1983.9" fill="#B56EF5" width="845.9" height="731.2"/>
<rect x="1636.2" y="1983.9" fill="#FFFFFF" width="845.9" height="731.2"/>
<path fill="none" stroke="#B56EF5" stroke-width="60" stroke-miterlimit="10" d="M2482.1,2296c545.8,0,988.2-150.1,988.2-335.3
	s-442.4-335.3-988.2-335.3"/>
<path fill="none" stroke="#FFFFFF" stroke-width="60" stroke-miterlimit="10" d="M2482.1,1625.4c-545.8,0-988.2,150.1-988.2,335.3
	s442.4,335.3,988.2,335.3"/>
<path fill="none" stroke="#B56EF5" stroke-width="60" stroke-miterlimit="10" d="M2482.1,2442.1c751,0,1359.8-284.9,1359.8-636.2
	s-608.8-636.2-1359.8-636.2"/>
<path fill="none" stroke="#FFFFFF" stroke-width="60" stroke-miterlimit="10" d="M2482.1,1169.6c-751,0-1359.8,284.9-1359.8,636.2
	s608.8,636.2,1359.8,636.2"/>
<path fill="none" stroke="#B56EF5" stroke-width="60" stroke-miterlimit="10" d="M2482.1,3538.4c751,0,1359.8-284.9,1359.8-636.2
	s-608.8-636.2-1359.8-636.2"/>
<path fill="none" stroke="#B56EF5" stroke-width="60" stroke-miterlimit="10" d="M1122.3,2902.1c0,351.4,608.8,636.2,1359.8,636.2"
	/>
<path fill="none" stroke="#FFFFFF" stroke-width="60" stroke-miterlimit="10" d="M2482.1,2265.9c-751,0-1359.8,284.9-1359.8,636.2"
	/>
<path fill="none" stroke="#B56EF5" stroke-width="60" stroke-miterlimit="10" d="M2482.1,3070.7c545.8,0,988.2-150.1,988.2-335.3
	c0-185.2-442.4-335.3-988.2-335.3"/>
<path fill="none" stroke="#B56EF5" stroke-width="60" stroke-miterlimit="10" d="M1583.1,2874.8c155.9,115.6,499.8,195.9,899,195.9"
	/>
<path fill="none" stroke="#FFFFFF" stroke-width="60" stroke-miterlimit="10" d="M2482.1,2400.1c-545.8,0-988.2,150.1-988.2,335.3
	c0,49.7,31.9,96.9,89.2,139.4"/>
<polygon fill="#FFFFFF" points="1568,2901 1563.8,2898 1600.9,2850.8 1637.8,2873.4 1686,2901 "/>
</svg>
