<?xml version="1.0" encoding="utf-8"?>
<!-- Generator: Adobe Illustrator 18.0.0, SVG Export Plug-In . SVG Version: 6.00 Build 0)  -->
<!DOCTYPE svg PUBLIC "-//W3C//DTD SVG 1.1//EN" "http://www.w3.org/Graphics/SVG/1.1/DTD/svg11.dtd">
<svg version="1.1" id="Layer_1" xmlns="http://www.w3.org/2000/svg" xmlns:xlink="http://www.w3.org/1999/xlink" x="0px" y="0px"
	 viewBox="76.3 885 2859.1 2055.1" enable-background="new 76.3 885 2859.1 2055.1" xml:space="preserve">
<g>
	<rect x="76.3" y="885" fill="#B56EF5" width="2055.1" height="2055.1"/>
</g>
<path fill="none" stroke="#FFFFFF" stroke-width="80" stroke-miterlimit="10" d="M2084.5,1915.7c0-347.4-95.6-629-213.4-629
	s-213.4,281.6-213.4,629"/>
<path fill="none" stroke="#FFFFFF" stroke-width="80" stroke-miterlimit="10" d="M1657.7,1915.7c0,347.4,95.6,629,213.4,629
	s213.4-281.6,213.4-629"/>
<path fill="none" stroke="#FFFFFF" stroke-width="80" stroke-miterlimit="10" d="M2177.6,1915.7c0-478-181.4-865.6-405-865.6
	s-405,387.5-405,865.6"/>
<path fill="none" stroke="#FFFFFF" stroke-width="80" stroke-miterlimit="10" d="M1367.6,1915.7c0,478,181.4,865.6,405,865.6
	s405-387.5,405-865.6"/>
<path fill="none" stroke="#B56EF5" stroke-width="80" stroke-miterlimit="10" d="M2895.3,1915.7c0-478-181.4-865.6-405-865.6
	s-405,387.5-405,865.6"/>
<path fill="none" stroke="#B56EF5" stroke-width="80" stroke-miterlimit="10" d="M2598.3,2750.2c171.3-101,297.1-436.3,297.1-834.5"
	/>
<path fill="none" stroke="#B56EF5" stroke-width="80" stroke-miterlimit="10" d="M2490.3,2781.3c37.4,0,73.6-10.8,107.9-31.1"/>
<path fill="none" stroke="#B56EF5" stroke-width="80" stroke-miterlimit="10" d="M2085.3,1915.7c0,478,181.4,865.6,405,865.6"/>
<path fill="none" stroke="#B56EF5" stroke-width="80" stroke-miterlimit="10" d="M2597.7,1915.7c0-347.4-95.6-629-213.4-629
	c-117.8,0-213.4,281.6-213.4,629"/>
<path fill="none" stroke="#B56EF5" stroke-width="80" stroke-miterlimit="10" d="M2473,2487.9c73.6-99.3,124.7-318.1,124.7-572.3"/>
<path fill="none" stroke="#B56EF5" stroke-width="80" stroke-miterlimit="10" d="M2170.8,1915.7c0,347.4,95.6,629,213.4,629
	c31.7,0,61.7-20.3,88.8-56.7"/>
<rect x="1895.8" y="1377.3" fill="#B56EF5" width="465.4" height="538.4"/>
<rect x="1895.8" y="1915.7" fill="#F7F7F7" width="465.4" height="538.4"/>
</svg>
