<?xml version="1.0" encoding="utf-8"?>
<!-- Generator: Adobe Illustrator 18.0.0, SVG Export Plug-In . SVG Version: 6.00 Build 0)  -->
<!DOCTYPE svg PUBLIC "-//W3C//DTD SVG 1.1//EN" "http://www.w3.org/Graphics/SVG/1.1/DTD/svg11.dtd">
<svg version="1.1" id="Layer_1" xmlns="http://www.w3.org/2000/svg" xmlns:xlink="http://www.w3.org/1999/xlink" x="0px" y="0px"
	 viewBox="76.3 868.3 2309.7 1806.8" enable-background="new 76.3 868.3 2309.7 1806.8" xml:space="preserve">
<g>
	<rect x="76.3" y="868.3" fill="#00D692" width="1806.8" height="1806.8"/>
</g>
<line fill="none" stroke="#00D692" stroke-width="40" stroke-miterlimit="10" x1="1971.9" y1="1646.1" x2="1971.9" y2="1846.8"/>
<line fill="none" stroke="#FFFFFF" stroke-width="40" stroke-miterlimit="10" x1="1798.4" y1="1531.3" x2="1798.4" y2="1961.6"/>
<line fill="none" stroke="#FFFFFF" stroke-width="40" stroke-miterlimit="10" x1="1759.6" y1="2299.7" x2="1901.9" y2="2442"/>
<line fill="none" stroke="#FFFFFF" stroke-width="40" stroke-miterlimit="10" x1="1798.4" y1="1746.4" x2="1384.7" y2="1746.4"/>
<line fill="none" stroke="#FFFFFF" stroke-width="40" stroke-linecap="square" stroke-miterlimit="10" x1="1384.7" y1="1746.4" x2="1384.7" y2="2423.3"/>
<line fill="none" stroke="#FFFFFF" stroke-width="40" stroke-linecap="square" stroke-miterlimit="10" x1="1384.7" y1="2423.3" x2="1706.7" y2="2423.3"/>
<path fill="none" stroke="#FFFFFF" stroke-width="40" stroke-miterlimit="10" d="M1883.1,2599.6c-97.4,0-176.4-79-176.4-176.4
	s79-176.4,176.4-176.4C1980.5,2246.9,1980.5,2599.6,1883.1,2599.6z"/>
<line fill="none" stroke="#00D692" stroke-width="40" stroke-miterlimit="10" x1="2385.6" y1="1746.4" x2="1971.9" y2="1746.4"/>
<line fill="none" stroke="#00D692" stroke-width="40" stroke-linecap="square" stroke-miterlimit="10" x1="2366" y1="1746.4" x2="2366" y2="2423.3"/>
<line fill="none" stroke="#00D692" stroke-width="40" stroke-miterlimit="10" x1="2366" y1="2423.3" x2="2059.5" y2="2423.3"/>
<line fill="none" stroke="#FFFFFF" stroke-width="40" stroke-miterlimit="10" x1="1752.5" y1="2554.5" x2="1883.7" y2="2423.3"/>
<line fill="none" stroke="#00D692" stroke-width="40" stroke-miterlimit="10" x1="2006.2" y1="2546.8" x2="1882.7" y2="2423.3"/>
<line fill="none" stroke="#00D692" stroke-width="40" stroke-miterlimit="10" x1="2013.4" y1="2292" x2="1882.1" y2="2423.3"/>
<rect x="1863.1" y="2394.6" fill="#FFFFFF" width="20" height="57.5"/>
<path fill="none" stroke="#00D692" stroke-width="40" stroke-miterlimit="10" d="M1883.7,2247c97.4,0,176.4,79,176.4,176.4
	c0,97.4-79,176.4-176.4,176.4"/>
</svg>
