<?xml version="1.0" encoding="utf-8"?>
<!-- Generator: Adobe Illustrator 18.0.0, SVG Export Plug-In . SVG Version: 6.00 Build 0)  -->
<!DOCTYPE svg PUBLIC "-//W3C//DTD SVG 1.1//EN" "http://www.w3.org/Graphics/SVG/1.1/DTD/svg11.dtd">
<svg version="1.1" id="Layer_1" xmlns="http://www.w3.org/2000/svg" xmlns:xlink="http://www.w3.org/1999/xlink" x="0px" y="0px"
	 viewBox="76.3 280.8 3429.7 2672.1" enable-background="new 76.3 280.8 3429.7 2672.1" xml:space="preserve">
<g>
	<g>
		<path fill="#00004C" d="M1953.4,680.8v1477.1H476.3V680.8H1953.4 M2353.4,280.8H76.3v2277.1h2277.1V280.8L2353.4,280.8z"/>
	</g>
</g>
<path display="none" fill="#FFFFFF" d="M2354.4,933c-72.2,0-111.9,63.1-168.9,165.8c-51.9,95.6-111.9,205.5-236.1,205.5
	s-185.2-109.9-236.1-205.5c-56-102.8-95.6-165.8-168.9-165.8c-72.2,0-111.9,63.1-168.9,165.8c-51.9,95.6-111.9,205.5-236.1,205.5
	s-184.2-109.9-236.1-205.5C847.5,996.1,807.9,933,734.6,933v-75.3c124.1,0,185.2,109.9,236.1,205.5c57,103.8,96.7,166.9,168.9,166.9
	c72.2,0,111.9-63.1,168.9-165.8c51.9-95.6,111.9-205.5,236.1-205.5s185.2,109.9,236.1,205.5c56,102.8,95.6,165.8,168.9,165.8
	c72.2,0,111.9-63.1,168.9-165.8c51.9-95.6,111.9-205.5,236.1-205.5"/>
<path display="none" fill="#FFFFFF" d="M2354.4,1442.8c-72.2,0-111.9,63.1-168.9,165.8c-51.9,95.6-111.9,205.5-236.1,205.5
	s-185.2-109.9-236.1-205.5c-56-102.8-95.6-165.8-168.9-165.8c-72.2,0-111.9,63.1-168.9,165.8c-51.9,95.6-111.9,205.5-236.1,205.5
	s-185.2-109.9-236.1-205.5c-56-102.8-95.6-165.8-168.9-165.8v-75.3c124.1,0,185.2,109.9,236.1,205.5
	c56,102.8,95.6,165.8,168.9,165.8c73.3,0,111.9-63.1,168.9-165.8c51.9-95.6,111.9-205.5,236.1-205.5s185.2,109.9,236.1,205.5
	c56,102.8,95.6,165.8,168.9,165.8c72.2,0,111.9-63.1,168.9-165.8c51.9-95.6,111.9-205.5,236.1-205.5"/>
<path display="none" fill="#FFFFFF" d="M2354.4,1957.6c-72.2,0-111.9,63.1-168.9,165.8c-51.9,95.6-111.9,205.5-236.1,205.5
	s-185.2-109.9-236.1-205.5c-56-102.8-95.6-165.8-168.9-165.8c-72.2,0-111.9,63.1-168.9,165.8c-51.9,95.6-111.9,205.5-236.1,205.5
	s-185.2-109.9-236.1-205.5c-56-102.8-95.6-165.8-168.9-165.8v-75.3c124.1,0,185.2,109.9,236.1,205.5
	c56,102.8,95.6,165.8,168.9,165.8c73.3,0,111.9-63.1,168.9-165.8c51.9-95.6,111.9-205.5,236.1-205.5s185.2,109.9,236.1,205.5
	c56,102.8,95.6,165.8,168.9,165.8c72.2,0,111.9-63.1,168.9-165.8c51.9-95.6,111.9-205.5,236.1-205.5"/>
<polygon display="none" fill="#00004C" stroke="#FFFFFF" stroke-width="250" stroke-miterlimit="10" points="3048,1149 
	2227.9,2041.2 1407.9,1149 "/>
<g>
	<path fill="#00004C" d="M2155.6,2818c-301.3,0-586.4-35.6-802.6-100.3c-113.3-33.9-204.4-74.9-270.8-121.8
		c-40.7-28.8-73.2-60.6-96.4-94.6c-30.2-44.2-45.5-91.7-45.5-141.4c0-61.9,24.6-153,142-236c66.4-47,157.5-87.9,270.8-121.8
		c216.3-64.7,501.3-100.3,802.6-100.3s586.4,35.6,802.6,100.3c113.3,33.9,204.4,74.9,270.8,121.8c40.7,28.8,73.2,60.6,96.4,94.6
		c30.2,44.2,45.5,91.7,45.5,141.4c0,61.9-24.6,153-142,236c-66.4,47-157.5,87.9-270.8,121.8C2742,2782.3,2456.9,2818,2155.6,2818z"
		/>
	<path fill="#FFFFFF" d="M2155.6,2036.7c596.7,0,1080.4,144.7,1080.4,323.1c0,178.5-483.7,323.1-1080.4,323.1
		s-1080.4-144.7-1080.4-323.1C1075.2,2181.4,1558.9,2036.7,2155.6,2036.7 M2155.6,1766.7c-314.1,0-612.8,37.6-841.3,106
		c-59.7,17.9-114.9,37.9-163.9,59.6c-55.3,24.5-104.5,51.9-146.2,81.3c-53.8,38.1-97.5,81.4-129.9,128.6
		c-21.1,30.8-37.6,63.7-49.2,97.7c-13.2,38.9-19.9,79.2-19.9,119.9c0,40.6,6.7,80.9,19.9,119.9c11.6,34,28.1,66.9,49.2,97.7
		c32.4,47.3,76.1,90.6,129.9,128.6c41.7,29.5,90.8,56.8,146.2,81.3c49,21.7,104.1,41.7,163.9,59.6c228.5,68.3,527.3,106,841.3,106
		s612.8-37.6,841.3-106c59.7-17.9,114.9-37.9,163.9-59.6c55.4-24.5,104.5-51.9,146.2-81.3c53.8-38.1,97.5-81.4,129.9-128.6
		c21.1-30.8,37.6-63.7,49.2-97.7c13.2-38.9,19.9-79.2,19.9-119.9c0-40.6-6.7-80.9-19.9-119.9c-11.6-34-28.1-66.9-49.2-97.7
		c-32.4-47.3-76.1-90.6-129.9-128.6c-41.7-29.5-90.8-56.8-146.2-81.3c-49-21.7-104.1-41.7-163.9-59.6
		C2768.5,1804.4,2469.7,1766.7,2155.6,1766.7L2155.6,1766.7z"/>
</g>
<rect x="2103.4" y="998.1" fill="#00004C" width="249.9" height="354.1"/>
<rect x="800" y="2033.7" fill="#FFFFFF" width="269" height="580.1"/>
<rect x="1883.6" y="1542.5" fill="#FFFFFF" width="544.1" height="367.5"/>
<g>
	<polygon fill="#00004C" points="2903.1,1012.7 2155.6,1826 1408.2,1012.7 	"/>
</g>
</svg>
