<?xml version="1.0" encoding="utf-8"?>
<!-- Generator: Adobe Illustrator 18.0.0, SVG Export Plug-In . SVG Version: 6.00 Build 0)  -->
<!DOCTYPE svg PUBLIC "-//W3C//DTD SVG 1.1//EN" "http://www.w3.org/Graphics/SVG/1.1/DTD/svg11.dtd">
<svg version="1.1" id="Layer_1" xmlns="http://www.w3.org/2000/svg" xmlns:xlink="http://www.w3.org/1999/xlink" x="0px" y="0px"
	 viewBox="76.3 495.2 3318.3 2405.8" enable-background="new 76.3 495.2 3318.3 2405.8" xml:space="preserve">
<g>
	<rect x="76.3" y="495.2" fill="#B56EF5" width="2405.8" height="2405.8"/>
</g>
<path fill="none" stroke="#FFFFFF" stroke-width="60" stroke-miterlimit="10" d="M2438.9,1701.8c0-406.7-111.9-736.3-249.8-736.3
	s-249.8,329.7-249.8,736.3"/>
<path fill="none" stroke="#FFFFFF" stroke-width="60" stroke-miterlimit="10" d="M1939.2,1701.8c0,406.7,111.9,736.3,249.8,736.3
	s249.8-329.7,249.8-736.3"/>
<path fill="none" stroke="#FFFFFF" stroke-width="60" stroke-miterlimit="10" d="M2547.8,1701.8c0-559.6-212.3-1013.3-474.1-1013.3
	s-474.1,453.6-474.1,1013.3"/>
<path fill="none" stroke="#FFFFFF" stroke-width="60" stroke-miterlimit="10" d="M1599.6,1701.8c0,559.6,212.3,1013.3,474.1,1013.3
	s474.1-453.6,474.1-1013.3"/>
<path fill="none" stroke="#B56EF5" stroke-width="60" stroke-miterlimit="10" d="M3364.6,1701.8c0-559.6-212.3-1013.3-474.1-1013.3
	s-474.1,453.6-474.1,1013.3"/>
<path fill="none" stroke="#B56EF5" stroke-width="60" stroke-miterlimit="10" d="M3016.9,2678.7
	c200.5-118.2,347.8-510.8,347.8-976.9"/>
<path fill="none" stroke="#B56EF5" stroke-width="60" stroke-miterlimit="10" d="M2890.5,2715.1c43.8,0,86.1-12.7,126.3-36.4"/>
<path fill="none" stroke="#B56EF5" stroke-width="60" stroke-miterlimit="10" d="M2416.4,1701.8c0,559.6,212.3,1013.3,474.1,1013.3"
	/>
<path fill="none" stroke="#B56EF5" stroke-width="60" stroke-miterlimit="10" d="M3016.2,1701.8c0-406.7-111.9-736.3-249.8-736.3
	s-249.8,329.7-249.8,736.3"/>
<path fill="none" stroke="#B56EF5" stroke-width="60" stroke-miterlimit="10" d="M2870.2,2371.7c86.1-116.2,146-372.4,146-669.9"/>
<path fill="none" stroke="#B56EF5" stroke-width="60" stroke-miterlimit="10" d="M2516.5,1701.8c0,406.7,111.9,736.3,249.8,736.3
	c37.1,0,72.2-23.8,103.9-66.4"/>
<rect x="2206.3" y="1071.5" fill="#B56EF5" width="544.8" height="630.3"/>
<rect x="2206.3" y="1701.8" fill="#F7F7F7" width="544.8" height="630.3"/>
</svg>
