<?xml version="1.0" encoding="utf-8"?>
<!-- Generator: Adobe Illustrator 18.0.0, SVG Export Plug-In . SVG Version: 6.00 Build 0)  -->
<!DOCTYPE svg PUBLIC "-//W3C//DTD SVG 1.1//EN" "http://www.w3.org/Graphics/SVG/1.1/DTD/svg11.dtd">
<svg version="1.1" id="Layer_1" xmlns="http://www.w3.org/2000/svg" xmlns:xlink="http://www.w3.org/1999/xlink" x="0px" y="0px"
	 viewBox="76.3 1656.1 2834.6 2082.1" enable-background="new 76.3 1656.1 2834.6 2082.1" xml:space="preserve">
<circle fill="#E4525A" cx="2453.8" cy="3229" r="239.3"/>
<g>
	<path fill="#E4525A" d="M2526.8,2902.4c72.9,0,141.4,28.4,193,79.9s79.9,120,79.9,193s-28.4,141.4-79.9,193s-120,79.9-193,79.9
		s-141.4-28.4-193-79.9c-51.5-51.5-79.9-120-79.9-193s28.4-141.4,79.9-193C2385.5,2930.8,2454,2902.4,2526.8,2902.4z"/>
	<path fill="#FFFFFF" d="M2526.8,3414.4c-132.1,0-239.3-107.1-239.3-239.3c0-132.1,107.1-239.3,239.3-239.3S2766,3043,2766,3175.2
		S2659.1,3414.4,2526.8,3414.4 M2526.8,3481.7c41.4,0,81.5-8.1,119.2-24.1c36.6-15.5,69.2-37.5,97.5-65.6
		c28.1-28.1,50.2-60.9,65.6-97.5c16-37.7,24.1-78,24.1-119.2c0-41.4-8.1-81.5-24.1-119.2c-15.5-36.6-37.5-69.2-65.6-97.5
		c-28.1-28.1-60.9-50.2-97.5-65.6c-37.7-16-78-24.1-119.2-24.1s-81.5,8.1-119.2,24.1c-36.6,15.5-69.2,37.5-97.5,65.6
		c-28.1,28.1-50.2,60.9-65.6,97.5c-16,37.7-24.1,78-24.1,119.2c0,41.4,8.1,81.5,24.1,119.2c15.5,36.6,37.5,69.2,65.6,97.5
		c28.1,28.1,60.9,50.2,97.5,65.6C2445.3,3473.6,2485.5,3481.7,2526.8,3481.7L2526.8,3481.7z"/>
</g>
<g>
	<path fill="#E4525A" d="M2688.5,2797.6v579.3h-33.7c-77.3,0-150.2-30.1-204.9-84.9S2365,3164.6,2365,3087s30.1-150.2,84.9-204.9
		c54.8-54.8,127.4-84.7,204.9-84.7L2688.5,2797.6L2688.5,2797.6z"/>
	<path fill="#FFFFFF" d="M2654.9,3343.2c-141.4,0-256.1-114.6-256.1-256.1c0-141.5,114.6-256,256.1-256V3343.2 M2654.9,3410.4h67.2
		v-67.2v-512.1V2764h-67.2c-43.6,0-86,8.6-125.9,25.5c-38.5,16.2-73,39.6-102.8,69.1c-29.8,29.8-53.1,64.2-69.2,102.7
		c-16.9,40-25.5,82.3-25.5,125.9s8.6,86,25.5,125.9c16.2,38.4,39.6,73,69.2,102.7c29.8,29.8,64.2,52.9,102.7,69.2
		C2568.9,3402,2611.3,3410.4,2654.9,3410.4L2654.9,3410.4z"/>
</g>
<g>
	<rect x="76.3" y="1712.5" fill="#E4525A" width="2025.7" height="2025.7"/>
</g>
<circle display="none" fill="#E4525A" cx="2267.6" cy="3368.1" r="218.1"/>
<g display="none">
	<path display="inline" fill="#E4525A" d="M2203.5,3154.3c43.9,0,87.2,11.2,125.6,32.3c39.5,21.9,72.7,54,96.2,92.8
		c35.7,59.1,46.1,128.8,29.4,195.7c-16.7,67.1-58.4,123.5-117.5,159.1c-40.3,24.2-86.3,37-133.1,37c-43.9,0-87-11.2-125.6-32.3
		c-39.5-21.9-72.7-54-96.2-92.8c-35.7-59.1-46.1-128.8-29.4-195.7c16.7-67.1,58.4-123.5,117.5-159.1
		C2110.7,3167,2156.7,3154.3,2203.5,3154.3z"/>
	<path display="inline" fill="#FFFFFF" d="M2204,3646.1c-79.2,0-156.3-40.3-200-113c-66.4-110.4-30.8-253.6,79.6-320.1
		c37.6-22.7,79.2-33.4,120-33.4c79.2,0,156.3,40.3,200,113c66.4,110.4,30.8,253.6-79.6,320.1
		C2286.4,3635.3,2244.8,3646.1,2204,3646.1 M2204,3696.6V3646V3696.6c51.4,0,101.8-14,146.3-40.8c32.9-19.7,60.8-45.4,83.1-76.2
		c21.5-29.6,37-62.8,45.8-98.5c8.9-35.8,10.8-72.3,5.5-108.6c-5.3-37.6-18-73.3-37.9-106.1c-25.7-42.7-62.2-77.9-105.6-101.8
		c-42-23.2-89.7-35.6-137.8-35.6c-51.4,0-101.8,14-146.3,40.8c-32.9,19.7-60.8,45.4-83.1,76.2c-21.5,29.6-37,62.8-45.8,98.5
		c-8.9,35.8-10.8,72.3-5.5,108.6c5.3,37.6,18,73.3,37.9,106.1c25.7,42.7,62.2,77.9,105.6,101.8
		C2108.4,3684.2,2155.8,3696.6,2204,3696.6L2204,3696.6z"/>
</g>
<line fill="none" stroke="#FFFFFF" stroke-width="80" stroke-miterlimit="10" x1="942.3" y1="3592" x2="942.3" y2="1712.3"/>
<line fill="none" stroke="#FFFFFF" stroke-width="80" stroke-miterlimit="10" x1="430.2" y1="3596.3" x2="430.2" y2="1712.3"/>
<path fill="#E4525A" d="M2654.9,3343.2v-512.1c141.4,0,256.1,114.6,256.1,256.1C2910.9,3228.7,2796.3,3343.2,2654.9,3343.2z"/>
<circle fill="#E4525A" cx="2654.9" cy="3087.1" r="256"/>
<circle fill="#FFFFFF" cx="942.3" cy="3394.8" r="256"/>
<circle fill="#FFFFFF" cx="430.2" cy="3394.8" r="256"/>
<line fill="none" stroke="#FFFFFF" stroke-width="80" stroke-linecap="square" stroke-miterlimit="10" x1="1454.2" y1="1712.5" x2="2398.9" y2="2794.1"/>
<polygon fill="#E4525A" points="2746.5,3252.2 2102,2514.8 2102,2393.4 2806.7,3199.8 "/>
</svg>
