<?xml version="1.0" encoding="utf-8"?>
<!-- Generator: Adobe Illustrator 18.0.0, SVG Export Plug-In . SVG Version: 6.00 Build 0)  -->
<!DOCTYPE svg PUBLIC "-//W3C//DTD SVG 1.1//EN" "http://www.w3.org/Graphics/SVG/1.1/DTD/svg11.dtd">
<svg version="1.1" id="Layer_1" xmlns="http://www.w3.org/2000/svg" xmlns:xlink="http://www.w3.org/1999/xlink" x="0px" y="0px"
	 viewBox="76.3 453.1 3958.9 2758.8" enable-background="new 76.3 453.1 3958.9 2758.8" xml:space="preserve">
<g>
	<g>
		<rect x="76.3" y="495.2" fill="#E4525A" width="2405.8" height="2405.8"/>
	</g>
	<circle fill="#E4525A" cx="3764.4" cy="2421.6" r="270.8"/>
	<g>
		<path fill="#E4525A" d="M3609.7,2854.4c-57.6,0-114.6-14.7-165-42.6c-51.9-28.7-95.7-70.9-126.4-122
			c-23.7-39.3-38.9-82.1-45.3-127.1c-6.2-43.5-4-87.3,6.7-130.1c10.6-42.8,29.1-82.5,55-118.1c26.8-36.8,60.3-67.5,99.5-91.1
			c53-31.9,113.5-48.7,175-48.7c57.6,0,114.6,14.7,165,42.6c51.9,28.7,95.7,70.9,126.4,122c23.7,39.3,38.9,82.1,45.3,127.1
			c6.2,43.5,4,87.3-6.7,130.1c-10.6,42.8-29.1,82.5-55,118.1c-26.8,36.8-60.3,67.5-99.5,91.1
			C3731.7,2837.6,3671.2,2854.4,3609.7,2854.4z"/>
		<path fill="#FFFFFF" d="M3609.1,2204.7c105.1,0,207.6,53.5,265.7,150.1c88.3,146.6,41,337-105.6,425.2
			c-50,30.1-105.1,44.4-159.5,44.4c-105.1,0-207.6-53.5-265.7-150.1c-88.3-146.6-41-337,105.6-425.2
			C3499.6,2219,3554.7,2204.7,3609.1,2204.7 M3609.1,2144.7v60V2144.7c-67,0-132.8,18.3-190.5,53c-42.7,25.7-79.2,59.1-108.3,99.2
			c-28.1,38.7-48.3,81.9-59.8,128.5c-11.6,46.6-14,94.2-7.3,141.6c7,49,23.6,95.6,49.3,138.3c33.5,55.6,81.1,101.6,137.6,132.8
			c54.8,30.3,116.9,46.3,179.5,46.3c67,0,132.8-18.3,190.4-53c42.7-25.7,79.2-59.1,108.3-99.2c28.1-38.7,48.3-81.9,59.8-128.5
			c11.6-46.6,14-94.2,7.3-141.6c-7-49-23.6-95.6-49.3-138.3c-33.5-55.6-81.1-101.6-137.6-132.8
			C3733.8,2160.7,3671.7,2144.7,3609.1,2144.7L3609.1,2144.7z"/>
	</g>
	<g>
		<path fill="#E4525A" d="M3481.1,2932.1c-57.6,0-114.6-14.7-165-42.6c-51.9-28.7-95.7-70.9-126.4-122
			c-23.7-39.3-38.9-82.1-45.3-127.1c-6.2-43.5-4-87.3,6.7-130.1c10.6-42.8,29.1-82.5,55-118.1c26.8-36.8,60.3-67.5,99.5-91.1
			c53-31.9,113.5-48.7,175-48.7c57.6,0,114.6,14.7,165,42.6c51.9,28.7,95.7,70.9,126.4,122c23.7,39.3,38.9,82.1,45.3,127.1
			c6.2,43.5,4,87.3-6.7,130.1s-29.1,82.5-55,118.1c-26.8,36.8-60.3,67.5-99.5,91.1C3603.1,2915.2,3542.6,2932.1,3481.1,2932.1z"/>
		<path fill="#FFFFFF" d="M3480.5,2282.3c105.1,0,207.6,53.5,265.7,150.1c88.3,146.6,41,337-105.6,425.2
			c-50,30.1-105.1,44.4-159.5,44.4c-105.1,0-207.6-53.5-265.7-150.1c-88.3-146.6-41-337,105.6-425.2
			C3371,2296.7,3426.1,2282.3,3480.5,2282.3 M3480.5,2222.3v60V2222.3c-67,0-132.8,18.3-190.5,53c-42.7,25.7-79.2,59.1-108.3,99.2
			c-28.1,38.7-48.3,81.9-59.8,128.5c-11.6,46.6-14,94.2-7.3,141.6c7,49,23.6,95.6,49.3,138.3c33.5,55.6,81.1,101.6,137.6,132.8
			c54.8,30.3,116.9,46.3,179.5,46.3c67,0,132.8-18.3,190.4-53c42.7-25.7,79.2-59.1,108.3-99.2c28.1-38.7,48.3-81.9,59.8-128.5
			c11.6-46.6,14-94.2,7.3-141.6c-7-49-23.6-95.6-49.3-138.3c-33.5-55.6-81.1-101.6-137.6-132.8
			C3605.2,2238.3,3543.1,2222.3,3480.5,2222.3L3480.5,2222.3z"/>
	</g>
	<line fill="none" stroke="#FFFFFF" stroke-width="70" stroke-miterlimit="10" x1="1878.7" y1="2902" x2="1878.7" y2="453.1"/>
	<circle fill="#FFFFFF" cx="1883.3" cy="2902" r="309.8"/>
	<line fill="none" stroke="#FFFFFF" stroke-width="70" stroke-miterlimit="10" x1="1259" y1="2902" x2="1259" y2="453.1"/>
	<circle fill="#FFFFFF" cx="1263.6" cy="2902" r="309.8"/>
	<line fill="none" stroke="#E4525A" stroke-width="70" stroke-miterlimit="10" x1="2450.2" y1="511" x2="3451.1" y2="2514.6"/>
</g>
</svg>
