<?xml version="1.0" encoding="utf-8"?>
<!-- Generator: Adobe Illustrator 18.0.0, SVG Export Plug-In . SVG Version: 6.00 Build 0)  -->
<!DOCTYPE svg PUBLIC "-//W3C//DTD SVG 1.1//EN" "http://www.w3.org/Graphics/SVG/1.1/DTD/svg11.dtd">
<svg version="1.1" id="Layer_1" xmlns="http://www.w3.org/2000/svg" xmlns:xlink="http://www.w3.org/1999/xlink" x="0px" y="0px"
	 viewBox="76.3 1284 2914.6 2132.2" enable-background="new 76.3 1284 2914.6 2132.2" xml:space="preserve">
<circle fill="#E4525A" cx="2520.9" cy="2892.7" r="246"/>
<g>
	<path fill="#E4525A" d="M2595.9,2556.8c75,0,145.4,29.2,198.4,82.2c53,53,82.2,123.4,82.2,198.4c0,75-29.2,145.4-82.2,198.4
		c-53,53-123.4,82.2-198.4,82.2c-75,0-145.4-29.2-198.4-82.2c-53-53-82.2-123.4-82.2-198.4c0-75,29.2-145.4,82.2-198.4
		C2450.6,2586,2521.1,2556.8,2595.9,2556.8z"/>
	<path fill="#FFFFFF" d="M2595.9,3083.3c-135.8,0-246-110.1-246-246c0-135.8,110.1-246,246-246c135.9,0,246,110.1,246,246
		S2731.9,3083.3,2595.9,3083.3 M2595.9,3152.5c42.6,0,83.8-8.3,122.6-24.8c37.6-15.9,71.2-38.6,100.2-67.5
		c28.9-28.9,51.6-62.6,67.5-100.2c16.5-38.8,24.8-80.2,24.8-122.6c0-42.6-8.3-83.8-24.8-122.6c-15.9-37.6-38.6-71.2-67.5-100.2
		c-28.9-28.9-62.6-51.6-100.2-67.5c-38.8-16.5-80.2-24.8-122.6-24.8s-83.8,8.3-122.6,24.8c-37.6,15.9-71.2,38.6-100.2,67.5
		c-28.9,28.9-51.6,62.6-67.5,100.2c-16.5,38.8-24.8,80.2-24.8,122.6c0,42.6,8.3,83.8,24.8,122.6c15.9,37.6,38.6,71.2,67.5,100.2
		c28.9,28.9,62.6,51.6,100.2,67.5C2512.1,3144.2,2553.5,3152.5,2595.9,3152.5L2595.9,3152.5z"/>
</g>
<g>
	<path fill="#E4525A" d="M2762.2,2449.1v595.6h-34.6c-79.5,0-154.4-31-210.7-87.3c-56.3-56.3-87.3-131-87.3-210.7
		s31-154.4,87.3-210.7c56.3-56.3,131-87.1,210.7-87.1L2762.2,2449.1L2762.2,2449.1z"/>
	<path fill="#FFFFFF" d="M2727.6,3010.1c-145.4,0-263.3-117.8-263.3-263.3c0-145.5,117.8-263.2,263.3-263.2V3010.1 M2727.6,3079.2
		h69.1v-69.1v-526.5v-69.1h-69.1c-44.8,0-88.4,8.8-129.4,26.2c-39.6,16.7-75.1,40.7-105.7,71.1c-30.6,30.6-54.6,66-71.2,105.6
		c-17.4,41.1-26.2,84.6-26.2,129.4c0,44.8,8.8,88.4,26.2,129.4c16.7,39.5,40.7,75.1,71.2,105.6c30.6,30.6,66,54.4,105.6,71.2
		C2639.2,3070.5,2682.8,3079.2,2727.6,3079.2L2727.6,3079.2z"/>
</g>
<g>
	<rect x="76.3" y="1333.4" fill="#E4525A" width="2082.8" height="2082.8"/>
</g>
<circle display="none" fill="#E4525A" cx="2329.4" cy="3035.7" r="224.3"/>
<g display="none">
	<path display="inline" fill="#E4525A" d="M2263.5,2815.8c45.1,0,89.7,11.5,129.1,33.2c40.6,22.5,74.8,55.5,98.9,95.4
		c36.7,60.8,47.4,132.4,30.2,201.2c-17.2,69-60,127-120.8,163.6c-41.4,24.9-88.7,38-136.9,38c-45.1,0-89.5-11.5-129.1-33.2
		c-40.6-22.5-74.8-55.5-98.9-95.4c-36.7-60.8-47.4-132.4-30.2-201.2c17.2-69,60-127,120.8-163.6
		C2168.1,2828.9,2215.4,2815.8,2263.5,2815.8z"/>
	<path display="inline" fill="#FFFFFF" d="M2264,3321.5c-81.4,0-160.7-41.4-205.6-116.2c-68.3-113.5-31.7-260.8,81.8-329.1
		c38.7-23.3,81.4-34.3,123.4-34.3c81.4,0,160.7,41.4,205.6,116.2c68.3,113.5,31.7,260.8-81.8,329.1
		C2348.7,3310.4,2306,3321.5,2264,3321.5 M2264,3373.4v-52V3373.4c52.8,0,104.7-14.4,150.4-41.9c33.8-20.3,62.5-46.7,85.4-78.3
		c22.1-30.4,38-64.6,47.1-101.3c9.1-36.8,11.1-74.3,5.7-111.7c-5.5-38.7-18.5-75.4-39-109.1c-26.4-43.9-64-80.1-108.6-104.7
		c-43.2-23.9-92.2-36.6-141.7-36.6c-52.8,0-104.7,14.4-150.4,41.9c-33.8,20.3-62.5,46.7-85.4,78.3c-22.1,30.4-38,64.6-47.1,101.3
		c-9.1,36.8-11.1,74.3-5.7,111.7c5.5,38.7,18.5,75.4,39,109.1c26.4,43.9,64,80.1,108.6,104.7
		C2165.7,3360.7,2214.5,3373.4,2264,3373.4L2264,3373.4z"/>
</g>
<line fill="none" stroke="#FFFFFF" stroke-width="70" stroke-miterlimit="10" x1="966.7" y1="3265.9" x2="966.7" y2="1333.2"/>
<line fill="none" stroke="#FFFFFF" stroke-width="70" stroke-miterlimit="10" x1="440.2" y1="3270.3" x2="440.2" y2="1333.2"/>
<path fill="#E4525A" d="M2727.6,3010.1v-526.5c145.4,0,263.3,117.8,263.3,263.3C2990.9,2892.4,2873,3010.1,2727.6,3010.1z"/>
<circle fill="#E4525A" cx="2727.6" cy="2746.8" r="263.2"/>
<circle fill="#FFFFFF" cx="966.7" cy="3063.1" r="263.2"/>
<circle fill="#FFFFFF" cx="440.2" cy="3063.1" r="263.2"/>
<line fill="none" stroke="#FFFFFF" stroke-width="70" stroke-linecap="square" stroke-miterlimit="10" x1="1493.1" y1="1333.4" x2="2671.6" y2="2682.7"/>
<polygon fill="#E4525A" points="2724.6,2796.2 2159.1,2149.2 2159.1,2042.7 2777.4,2750.2 "/>
</svg>
