<?xml version="1.0" encoding="utf-8"?>
<!-- Generator: Adobe Illustrator 18.0.0, SVG Export Plug-In . SVG Version: 6.00 Build 0)  -->
<!DOCTYPE svg PUBLIC "-//W3C//DTD SVG 1.1//EN" "http://www.w3.org/Graphics/SVG/1.1/DTD/svg11.dtd">
<svg version="1.1" id="Layer_1" xmlns="http://www.w3.org/2000/svg" xmlns:xlink="http://www.w3.org/1999/xlink" x="0px" y="0px"
	 viewBox="76.3 822.9 2199.5 2081.3" enable-background="new 76.3 822.9 2199.5 2081.3" xml:space="preserve">
<circle fill="#E4525A" cx="2062.4" cy="2320.9" r="213.4"/>
<g>
	<path fill="#E4525A" d="M1997.3,2612.3c-65,0-126.1-25.3-172.1-71.3c-46-46-71.3-107.1-71.3-172.1s25.3-126.1,71.3-172.1
		c46-46,107.1-71.3,172.1-71.3s126.1,25.3,172.1,71.3c46,46,71.3,107.1,71.3,172.1s-25.3,126.1-71.3,172.1
		C2123.4,2587,2062.3,2612.3,1997.3,2612.3z"/>
	<path fill="#FFFFFF" d="M1997.3,2155.6c117.8,0,213.4,95.5,213.4,213.4c0,117.8-95.5,213.4-213.4,213.4s-213.4-95.5-213.4-213.4
		C1783.9,2251.1,1879.4,2155.6,1997.3,2155.6 M1997.3,2095.6c-36.9,0-72.7,7.2-106.4,21.5c-32.6,13.8-61.8,33.5-86.9,58.6
		c-25.1,25.1-44.8,54.3-58.6,86.9c-14.3,33.7-21.5,69.6-21.5,106.4c0,36.9,7.2,72.7,21.5,106.4c13.8,32.6,33.5,61.8,58.6,86.9
		c25.1,25.1,54.3,44.8,86.9,58.6c33.7,14.3,69.6,21.5,106.4,21.5s72.7-7.2,106.4-21.5c32.6-13.8,61.8-33.5,86.9-58.6
		c25.1-25.1,44.8-54.3,58.6-86.9c14.3-33.7,21.5-69.6,21.5-106.4c0-36.9-7.2-72.7-21.5-106.4c-13.8-32.6-33.5-61.8-58.6-86.9
		c-25.1-25.1-54.3-44.8-86.9-58.6C2070,2102.8,2034.2,2095.6,1997.3,2095.6L1997.3,2095.6z"/>
</g>
<g>
	<path fill="#E4525A" d="M1853.1,2705.8v-516.7h30c69,0,133.9,26.9,182.7,75.7c48.8,48.8,75.7,113.7,75.7,182.7
		c0,69-26.9,133.9-75.7,182.7c-48.8,48.8-113.7,75.6-182.7,75.6H1853.1z"/>
	<path fill="#FFFFFF" d="M1883.1,2219.1c126.1,0,228.4,102.2,228.4,228.4c0,126.2-102.2,228.3-228.4,228.3V2219.1 M1883.1,2159.1
		h-60v60v456.7v60h60c38.9,0,76.7-7.6,112.3-22.7c34.4-14.5,65.2-35.3,91.7-61.7c26.5-26.5,47.3-57.3,61.8-91.6
		c15.1-35.6,22.7-73.4,22.7-112.3s-7.6-76.7-22.7-112.3c-14.5-34.3-35.3-65.2-61.8-91.6c-26.5-26.5-57.3-47.2-91.6-61.8
		C1959.8,2166.7,1922,2159.1,1883.1,2159.1L1883.1,2159.1z"/>
</g>
<g>
	<rect x="76.3" y="868.3" fill="#E4525A" width="1806.8" height="1806.8"/>
</g>
<circle display="none" fill="#E4525A" cx="2030.8" cy="2345" r="194.6"/>
<g display="none">
	<path display="inline" fill="#E4525A" d="M1973.6,2154.3c39.1,0,77.8,10,112,28.8c35.2,19.5,64.9,48.1,85.8,82.8
		c31.8,52.8,41.1,114.8,26.2,174.5c-14.9,59.8-52.1,110.2-104.8,141.9c-35.9,21.6-77,33-118.7,33c-39.1,0-77.7-10-112-28.8
		c-35.2-19.5-64.9-48.1-85.8-82.8c-31.8-52.8-41.1-114.8-26.2-174.5c14.9-59.8,52.1-110.2,104.8-141.9
		C1890.8,2165.7,1931.9,2154.3,1973.6,2154.3z"/>
	<path display="inline" fill="#FFFFFF" d="M1974,2592.9c-70.6,0-139.4-35.9-178.4-100.8c-59.3-98.5-27.5-226.3,71-285.5
		c33.6-20.2,70.6-29.8,107.1-29.8c70.6,0,139.4,35.9,178.4,100.8c59.3,98.5,27.5,226.3-71,285.5
		C2047.5,2583.3,2010.5,2592.9,1974,2592.9 M1974,2638v-45.1V2638c45.8,0,90.9-12.5,130.4-36.3c29.3-17.6,54.2-40.5,74.1-67.9
		c19.2-26.4,33-56,40.9-87.9c7.9-31.9,9.6-64.5,5-96.9c-4.8-33.6-16.1-65.4-33.8-94.7c-22.9-38.1-55.5-69.5-94.2-90.9
		c-37.5-20.7-80-31.7-122.9-31.7c-45.8,0-90.9,12.5-130.4,36.3c-29.3,17.6-54.2,40.5-74.1,67.9c-19.2,26.4-33,56-40.9,87.9
		c-7.9,31.9-9.6,64.5-5,96.9c4.8,33.6,16.1,65.4,33.8,94.7c22.9,38.1,55.5,69.5,94.2,90.9C1888.7,2627,1931.1,2638,1974,2638
		L1974,2638z"/>
</g>
<line fill="none" stroke="#FFFFFF" stroke-width="70" stroke-miterlimit="10" x1="761.9" y1="2675.9" x2="761.9" y2="836.6"/>
<line fill="none" stroke="#FFFFFF" stroke-width="70" stroke-miterlimit="10" x1="305.2" y1="2675.9" x2="305.2" y2="836.6"/>
<path fill="#FFFFFF" d="M990.2,2675.8H533.6c0-126.1,102.2-228.4,228.4-228.4S990.2,2549.7,990.2,2675.8z"/>
<path fill="#FFFFFF" d="M533.6,2675.8H76.8c0-126.1,102.2-228.4,228.4-228.4S533.6,2549.7,533.6,2675.8z"/>
<path fill="#E4525A" d="M533.6,2675.8h456.7c0,126.1-102.2,228.4-228.4,228.4S533.6,2802,533.6,2675.8z"/>
<path fill="#E4525A" d="M76.8,2675.8h456.7c0,126.1-102.2,228.4-228.4,228.4S76.8,2802,76.8,2675.8z"/>
<line fill="none" stroke="#FFFFFF" stroke-width="70" stroke-miterlimit="10" x1="1834" y1="2332.4" x2="1195.4" y2="836.6"/>
<path fill="#FFFFFF" d="M1883.1,2219.1v456.7c-126.1,0-228.4-102.2-228.4-228.4S1757,2219.1,1883.1,2219.1z"/>
</svg>
