<?xml version="1.0" encoding="utf-8"?>
<!-- Generator: Adobe Illustrator 18.0.0, SVG Export Plug-In . SVG Version: 6.00 Build 0)  -->
<!DOCTYPE svg PUBLIC "-//W3C//DTD SVG 1.1//EN" "http://www.w3.org/Graphics/SVG/1.1/DTD/svg11.dtd">
<svg version="1.1" id="Layer_1" xmlns="http://www.w3.org/2000/svg" xmlns:xlink="http://www.w3.org/1999/xlink" x="0px" y="0px"
	 viewBox="0 0 829 1232.2" enable-background="new 0 0 829 1232.2" xml:space="preserve">
<g>
	
		<image overflow="visible" opacity="0.25" width="3454" height="1466" xlink:href="AA44E35B30A87615.png"  transform="matrix(0.24 0 0 0.24 0 880.392)">
	</image>
	<g>
		<polygon fill="#221F1F" points="781.4,1189.6 33.4,1189.6 147.4,908.9 667.4,908.9 		"/>
		<polygon fill="none" stroke="#59595C" stroke-width="20" stroke-miterlimit="10" points="781.4,1189.6 33.4,1189.6 147.4,908.9 
			667.4,908.9 		"/>
	</g>
</g>
<g>
	
		<image overflow="visible" opacity="0.25" width="3454" height="1466" xlink:href="AA44E35B30A87616.png"  transform="matrix(0.24 0 0 0.24 0 880.392)">
	</image>
	<g>
		<polygon fill="none" stroke="#59595C" stroke-width="20" stroke-miterlimit="10" points="781.4,1189.6 33.4,1189.6 147.4,908.9 
			667.4,908.9 		"/>
	</g>
</g>
<g>
	
		<image overflow="visible" opacity="0.25" width="3454" height="1466" xlink:href="AA44E35B30A8761B.png"  transform="matrix(0.24 0 0 0.24 0 672.9031)">
	</image>
	<g>
		<linearGradient id="SVGID_1_" gradientUnits="userSpaceOnUse" x1="178.6965" y1="670.0821" x2="621.9283" y2="1113.3138">
			<stop  offset="0" style="stop-color:#F7EA31"/>
			<stop  offset="0.9457" style="stop-color:#F59120"/>
		</linearGradient>
		<polygon fill="url(#SVGID_1_)" points="781.4,982.1 33.4,982.1 147.4,701.4 667.4,701.4 		"/>
		<polygon fill="none" stroke="#FFFFFF" stroke-width="20" stroke-miterlimit="10" points="781.4,982.1 33.4,982.1 147.4,701.4 
			667.4,701.4 		"/>
	</g>
</g>
<linearGradient id="SVGID_2_" gradientUnits="userSpaceOnUse" x1="481.6309" y1="994.1901" x2="667.4062" y2="808.4147">
	<stop  offset="0" style="stop-color:#F9AE41"/>
	<stop  offset="0.9457" style="stop-color:#F59120"/>
</linearGradient>
<ellipse fill="url(#SVGID_2_)" cx="574.5" cy="901.3" rx="170.4" ry="73.9"/>
<g>
	
		<image overflow="visible" opacity="0.25" width="3454" height="1466" xlink:href="AA44E35B30A8761C.png"  transform="matrix(0.24 0 0 0.24 0 672.9031)">
	</image>
	<g>
		<polygon fill="none" stroke="#FFFFFF" stroke-width="20" stroke-miterlimit="10" points="781.4,982.1 33.4,982.1 147.4,701.4 
			667.4,701.4 		"/>
	</g>
</g>
<text transform="matrix(1 0 0 1 303.3652 941.4259)" fill="#282560" font-family="'Montserrat-Medium'" font-size="60">Level -1</text>
<text transform="matrix(1 0 0 1 303.3652 1150.4258)" fill="#FFFFFF" font-family="'Montserrat-Medium'" font-size="60">Level -2</text>
<linearGradient id="SVGID_3_" gradientUnits="userSpaceOnUse" x1="202.0023" y1="883.5374" x2="285.5753" y2="799.9644">
	<stop  offset="0" style="stop-color:#F7EA31"/>
	<stop  offset="0.1838" style="stop-color:#F7DF2F;stop-opacity:0.9028"/>
	<stop  offset="0.5049" style="stop-color:#F6C229;stop-opacity:0.7331"/>
	<stop  offset="0.9228" style="stop-color:#F59421;stop-opacity:0.5121"/>
	<stop  offset="0.9457" style="stop-color:#F59120;stop-opacity:0.5"/>
</linearGradient>
<ellipse fill="url(#SVGID_3_)" cx="243.8" cy="841.8" rx="76.7" ry="33.2"/>
<g>
	
		<image overflow="visible" opacity="0.25" width="3413" height="3413" xlink:href="AA44E35B30A8761D.png"  transform="matrix(0.24 0 0 0.24 1.6056 0)">
	</image>
	<g>
		<rect x="30.1" y="28.5" fill="#F1F1F1" width="748" height="748"/>
		<rect x="30.1" y="28.5" fill="none" stroke="#F9AE41" stroke-width="20" stroke-miterlimit="10" width="748" height="748"/>
	</g>
</g>
<circle fill="#FFFFFF" cx="250.6" cy="558.5" r="224.7"/>
<text transform="matrix(1 0 0 1 303.365 732.0339)" fill="#282560" font-family="'Montserrat-Medium'" font-size="60">Level 0</text>
<circle fill="#FFFFFF" cx="643.5" cy="109.2" r="80.7"/>
<g>
	
		<image overflow="visible" opacity="0.25" width="3413" height="3413" xlink:href="AA44E35B30A8761A.png"  transform="matrix(0.24 0 0 0.24 1.6056 0)">
	</image>
	<g>
		<rect x="30.1" y="28.5" fill="none" stroke="#F9AE41" stroke-width="20" stroke-miterlimit="10" width="748" height="748"/>
	</g>
</g>
<line fill="none" stroke="#FFFFFF" stroke-width="13" stroke-linecap="round" stroke-miterlimit="10" x1="310.1" y1="228.4" x2="529.8" y2="290.6"/>
<g>
	
		<image overflow="visible" opacity="0.25" width="713" height="646" xlink:href="AA44E35B30A87619.png"  transform="matrix(0.24 0 0 0.24 195.2962 137.1035)">
	</image>
	<g>
		<g>
			<g>
				<rect x="214.7" y="156.5" fill="#F3C048" width="102" height="102"/>
				<path fill="#FFFFFF" d="M315.8,157.5v100.2H215.7V157.5H315.8 M317.7,155.6h-1.9H215.7h-1.9v1.9v100.2v1.9h1.9h100.2h1.9v-1.9
					V157.5V155.6L317.7,155.6z"/>
			</g>
			<g>
				<rect x="214.7" y="243.9" fill="#F3C048" width="34" height="14.7"/>
				<path fill="#FFFFFF" d="M247.8,244.8v12.8h-32.2v-12.8H247.8 M249.7,243h-1.9h-32.2h-1.9v1.9v12.8v1.9h1.9h32.2h1.9v-1.9v-12.8
					V243L249.7,243z"/>
			</g>
			<g>
				<rect x="248.7" y="243.9" fill="#F3C048" width="34" height="14.7"/>
				<path fill="#FFFFFF" d="M281.8,244.8v12.8h-32.2v-12.8H281.8 M283.7,243h-1.9h-32.2h-1.9v1.9v12.8v1.9h1.9h32.2h1.9v-1.9v-12.8
					L283.7,243L283.7,243z"/>
			</g>
			<g>
				<rect x="282.7" y="243.9" fill="#F3C048" width="34" height="14.7"/>
				<path fill="#FFFFFF" d="M315.8,244.8v12.8h-32.2v-12.8H315.8 M317.7,243h-1.9h-32.2h-1.9v1.9v12.8v1.9h1.9h32.2h1.9v-1.9v-12.8
					V243L317.7,243z"/>
			</g>
			<g>
				<rect x="230.8" y="229.1" fill="#F3C048" width="34" height="14.7"/>
				<path fill="#FFFFFF" d="M263.9,230v12.8h-32.2V230H263.9 M265.8,228.1h-1.9h-32.2h-1.9v1.9v12.8v1.9h1.9h32.2h1.9v-1.9V230
					V228.1L265.8,228.1z"/>
			</g>
			<g>
				<rect x="264.8" y="229.1" fill="#F3C048" width="34" height="14.7"/>
				<path fill="#FFFFFF" d="M297.9,230v12.8h-32.2V230H297.9 M299.8,228.1h-1.9h-32.2h-1.9v1.9v12.8v1.9h1.9h32.2h1.9v-1.9V230
					V228.1L299.8,228.1z"/>
			</g>
			<g>
				<rect x="298.8" y="229.1" fill="#F3C048" width="34" height="14.7"/>
				<path fill="#FFFFFF" d="M331.9,230v12.8h-32.2V230H331.9 M333.8,228.1h-1.9h-32.2h-1.9v1.9v12.8v1.9h1.9h32.2h1.9v-1.9V230
					V228.1L333.8,228.1z"/>
			</g>
			<g>
				<rect x="248.7" y="213.9" fill="#F3C048" width="34" height="14.7"/>
				<path fill="#FFFFFF" d="M281.8,214.9v12.8h-32.2v-12.8H281.8 M283.7,213h-1.9h-32.2h-1.9v1.9v12.8v1.9h1.9h32.2h1.9v-1.9v-12.8
					L283.7,213L283.7,213z"/>
			</g>
			<g>
				<rect x="282.7" y="213.9" fill="#F3C048" width="34" height="14.7"/>
				<path fill="#FFFFFF" d="M315.8,214.9v12.8h-32.2v-12.8H315.8 M317.7,213h-1.9h-32.2h-1.9v1.9v12.8v1.9h1.9h32.2h1.9v-1.9v-12.8
					V213L317.7,213z"/>
			</g>
			<g>
				<rect x="264.8" y="199.1" fill="#F3C048" width="34" height="14.7"/>
				<path fill="#FFFFFF" d="M297.9,200v12.8h-32.2V200H297.9 M299.8,198.1h-1.9h-32.2h-1.9v1.9v12.8v1.9h1.9h32.2h1.9v-1.9V200
					V198.1L299.8,198.1z"/>
			</g>
			<g>
				<rect x="298.8" y="199.1" fill="#F3C048" width="34" height="14.7"/>
				<path fill="#FFFFFF" d="M331.9,200v12.8h-32.2V200H331.9 M333.8,198.1h-1.9h-32.2h-1.9v1.9v12.8v1.9h1.9h32.2h1.9v-1.9V200
					V198.1L333.8,198.1z"/>
			</g>
		</g>
	</g>
</g>
<g>
	
		<image overflow="visible" opacity="0.25" width="718" height="646" xlink:href="AA44E35B30A87608.png"  transform="matrix(0.24 0 0 0.24 491.1337 239.7203)">
	</image>
	<g>
		<g>
			<g>
				<path fill="#FFFFFF" d="M610.3,358.8v-97.4 M630.8,258.2h-3.2h-17.3H607v3.2v97.4v3.2h3.2h17.3h3.2v-3.2v-97.4V258.2
					L630.8,258.2z"/>
			</g>
			<g>
				<rect x="511.3" y="259.9" fill="#44B2E6" width="100.6" height="100.6"/>
				<path fill="#FFFFFF" d="M610.3,261.5v97.4h-97.4v-97.4H610.3 M613.5,258.2h-3.2h-97.4h-3.2v3.2v97.4v3.2h3.2h97.4h3.2v-3.2
					v-97.4V258.2L613.5,258.2z"/>
			</g>
			<g>
				<path fill="none" stroke="#44B2E6" stroke-width="3.4" stroke-miterlimit="10" d="M540.8,287.7c8.7,0,8.7,15.9,17.3,15.9
					c8.7,0,8.7-15.9,17.3-15.9c8.7,0,8.7,15.9,17.3,15.9c8.7,0,8.7-15.9,17.3-15.9s8.7,15.9,17.3,15.9"/>
			</g>
			<path fill="#FFFFFF" d="M610.3,289.4c-3.1,0-4.8,2.7-7.2,7.1c-2.2,4.1-4.8,8.8-10.1,8.8s-7.9-4.7-10.1-8.8
				c-2.4-4.4-4.1-7.1-7.2-7.1s-4.8,2.7-7.2,7.1c-2.2,4.1-4.8,8.8-10.1,8.8c-5.3,0-7.9-4.7-10.1-8.8c-2.4-4.4-4.1-7.1-7.2-7.1v-3.2
				c5.3,0,7.9,4.7,10.1,8.8c2.4,4.4,4.1,7.1,7.2,7.1s4.8-2.7,7.2-7.1c2.2-4.1,4.8-8.8,10.1-8.8c5.3,0,7.9,4.7,10.1,8.8
				c2.4,4.4,4.1,7.1,7.2,7.1s4.8-2.7,7.2-7.1c2.2-4.1,4.8-8.8,10.1-8.8"/>
			<g>
				<path fill="none" stroke="#44B2E6" stroke-width="3.4" stroke-miterlimit="10" d="M540.7,309.5c8.7,0,8.7,15.9,17.3,15.9
					c8.7,0,8.7-15.9,17.3-15.9c8.7,0,8.7,15.9,17.3,15.9c8.7,0,8.7-15.9,17.3-15.9s8.7,15.9,17.3,15.9"/>
			</g>
			<path fill="#FFFFFF" d="M610.2,311.2c-3.1,0-4.8,2.7-7.2,7.1c-2.2,4.1-4.8,8.8-10.1,8.8c-5.3,0-7.9-4.7-10.1-8.8
				c-2.4-4.4-4.1-7.1-7.2-7.1s-4.8,2.7-7.2,7.1c-2.2,4.1-4.8,8.8-10.1,8.8c-5.3,0-7.9-4.7-10.1-8.8c-2.4-4.4-4.1-7.1-7.2-7.1v-3.2
				c5.3,0,7.9,4.7,10.1,8.8c2.4,4.4,4.1,7.1,7.2,7.1s4.8-2.7,7.2-7.1c2.2-4.1,4.8-8.8,10.1-8.8c5.3,0,7.9,4.7,10.1,8.8
				c2.4,4.4,4.1,7.1,7.2,7.1s4.8-2.7,7.2-7.1c2.2-4.1,4.8-8.8,10.1-8.8"/>
			<g>
				<path fill="none" stroke="#44B2E6" stroke-width="3.4" stroke-miterlimit="10" d="M540.8,331.5c8.7,0,8.7,15.9,17.3,15.9
					c8.7,0,8.7-15.9,17.3-15.9c8.7,0,8.7,15.9,17.3,15.9c8.7,0,8.7-15.9,17.3-15.9s8.7,15.9,17.3,15.9"/>
			</g>
			<path fill="#FFFFFF" d="M610.3,333.2c-3.1,0-4.8,2.7-7.2,7.1c-2.2,4.1-4.8,8.8-10.1,8.8s-7.9-4.7-10.1-8.8
				c-2.4-4.4-4.1-7.1-7.2-7.1s-4.8,2.7-7.2,7.1c-2.2,4.1-4.8,8.8-10.1,8.8c-5.3,0-7.9-4.7-10.1-8.8c-2.4-4.4-4.1-7.1-7.2-7.1v-3.2
				c5.3,0,7.9,4.7,10.1,8.8c2.4,4.4,4.1,7.1,7.2,7.1s4.8-2.7,7.2-7.1c2.2-4.1,4.8-8.8,10.1-8.8c5.3,0,7.9,4.7,10.1,8.8
				c2.4,4.4,4.1,7.1,7.2,7.1s4.8-2.7,7.2-7.1c2.2-4.1,4.8-8.8,10.1-8.8"/>
		</g>
	</g>
</g>
</svg>
