<?xml version="1.0" encoding="utf-8"?>
<!-- Generator: Adobe Illustrator 18.0.0, SVG Export Plug-In . SVG Version: 6.00 Build 0)  -->
<!DOCTYPE svg PUBLIC "-//W3C//DTD SVG 1.1//EN" "http://www.w3.org/Graphics/SVG/1.1/DTD/svg11.dtd">
<svg version="1.1" id="Layer_1" xmlns="http://www.w3.org/2000/svg" xmlns:xlink="http://www.w3.org/1999/xlink" x="0px" y="0px"
	 viewBox="76.3 957.4 3169 2328.8" enable-background="new 76.3 957.4 3169 2328.8" xml:space="preserve">
<circle fill="#E4525A" cx="2719.8" cy="2700.9" r="275"/>
<g>
	<path fill="#E4525A" d="M2803.7,2325.4c83.8,0,162.5,32.6,221.8,91.9s91.9,138,91.9,221.8c0,83.8-32.6,162.5-91.9,221.8
		s-138,91.9-221.8,91.9s-162.5-32.6-221.8-91.9s-91.9-138-91.9-221.8c0-83.8,32.6-162.5,91.9-221.8
		C2641.2,2358,2720,2325.4,2803.7,2325.4z"/>
	<path fill="#FFFFFF" d="M2803.7,2913.9c-151.8,0-275-123.1-275-275c0-151.8,123.1-275,275-275s275,123.1,275,275
		S2955.7,2913.9,2803.7,2913.9 M2803.7,2991.3c47.6,0,93.7-9.3,137.1-27.7c42-17.8,79.6-43.2,112-75.5c32.3-32.3,57.7-70,75.5-112
		c18.4-43.4,27.7-89.7,27.7-137.1c0-47.6-9.3-93.7-27.7-137.1c-17.8-42-43.2-79.6-75.5-112c-32.3-32.3-70-57.7-112-75.5
		c-43.4-18.4-89.7-27.7-137.1-27.7s-93.7,9.3-137.1,27.7c-42,17.8-79.6,43.2-112,75.5c-32.3,32.3-57.7,70-75.5,112
		c-18.4,43.4-27.7,89.7-27.7,137.1c0,47.6,9.3,93.7,27.7,137.1c17.8,42,43.2,79.6,75.5,112c32.3,32.3,70,57.7,112,75.5
		C2710,2982,2756.2,2991.3,2803.7,2991.3L2803.7,2991.3z"/>
</g>
<g>
	<path fill="#E4525A" d="M2989.6,2204.9v665.9h-38.7c-88.9,0-172.6-34.7-235.5-97.6s-97.6-146.5-97.6-235.5s34.7-172.6,97.6-235.5
		s146.5-97.4,235.5-97.4H2989.6z"/>
	<path fill="#FFFFFF" d="M2950.9,2832.1c-162.5,0-294.4-131.7-294.4-294.4s131.7-294.2,294.4-294.2V2832.1 M2950.9,2909.4h77.3
		v-77.3v-588.6v-77.3h-77.3c-50.1,0-98.8,9.8-144.7,29.3c-44.3,18.7-84,45.5-118.2,79.5c-34.2,34.2-61,73.8-79.6,118.1
		c-19.5,45.9-29.3,94.6-29.3,144.7s9.8,98.8,29.3,144.7c18.7,44.2,45.5,84,79.6,118.1c34.2,34.2,73.8,60.8,118.1,79.6
		C2852.1,2899.6,2900.8,2909.4,2950.9,2909.4L2950.9,2909.4z"/>
</g>
<g>
	<rect x="76.3" y="957.6" fill="#E4525A" width="2328.5" height="2328.5"/>
</g>
<circle display="none" fill="#E4525A" cx="2595.2" cy="2860.7" r="250.8"/>
<g display="none">
	<path display="inline" fill="#E4525A" d="M2521.5,2614.9c50.4,0,100.3,12.9,144.3,37.1c45.4,25.1,83.6,62,110.6,106.7
		c41,68,53,148,33.8,224.9c-19.2,77.1-67.1,142-135.1,182.9c-46.3,27.8-99.2,42.5-153,42.5c-50.4,0-100.1-12.9-144.3-37.1
		c-45.4-25.1-83.6-62-110.6-106.7c-41-68-53-148-33.8-224.9c19.2-77.1,67.1-142,135.1-182.9
		C2414.8,2629.6,2467.7,2614.9,2521.5,2614.9z"/>
	<path display="inline" fill="#FFFFFF" d="M2522,3180.2c-91,0-179.7-46.3-229.9-129.9c-76.4-126.9-35.4-291.6,91.5-367.9
		c43.3-26,91-38.4,138-38.4c91,0,179.7,46.3,229.9,129.9c76.4,126.9,35.4,291.6-91.5,367.9C2616.7,3167.8,2569,3180.2,2522,3180.2
		 M2522,3238.3v-58.1V3238.3c59,0,117.1-16.1,168.1-46.8c37.8-22.7,69.9-52.2,95.5-87.5c24.7-34,42.5-72.2,52.7-113.3
		s12.4-83.1,6.4-124.9c-6.2-43.3-20.7-84.3-43.6-122c-29.5-49.1-71.5-89.6-121.4-117.1c-48.3-26.7-103.1-40.9-158.4-40.9
		c-59,0-117.1,16.1-168.1,46.8c-37.8,22.7-69.9,52.2-95.5,87.5c-24.7,34-42.5,72.2-52.7,113.3c-10.2,41.1-12.4,83.1-6.4,124.9
		c6.2,43.3,20.7,84.3,43.6,122c29.5,49.1,71.5,89.6,121.4,117.1C2412.1,3224.1,2466.7,3238.3,2522,3238.3L2522,3238.3z"/>
</g>
<line fill="none" stroke="#FFFFFF" stroke-width="70" stroke-miterlimit="10" x1="959.9" y1="3218.5" x2="959.9" y2="957.6"/>
<line fill="none" stroke="#FFFFFF" stroke-width="70" stroke-miterlimit="10" x1="371.3" y1="3223.6" x2="371.3" y2="957.6"/>
<path fill="#FFFFFF" d="M1254.1,2994H665.7c0-162.5,131.7-294.4,294.4-294.4S1254.1,2831.5,1254.1,2994z"/>
<path fill="#E4525A" d="M2950.9,2832.1v-588.6c162.5,0,294.4,131.7,294.4,294.4C3245.3,2700.5,3113.4,2832.1,2950.9,2832.1z"/>
<circle fill="#E4525A" cx="2950.9" cy="2537.8" r="294.3"/>
<circle fill="#FFFFFF" cx="959.9" cy="2992" r="294.2"/>
<circle fill="#FFFFFF" cx="371.3" cy="2992" r="294.2"/>
<polygon fill="#FFFFFF" points="2579.5,2169 1512.7,957.5 1605.9,957.4 2632.1,2122.8 "/>
<polygon fill="#E4525A" points="2924.6,2561 2404.7,1970.5 2404.8,1864.7 2977.2,2514.7 "/>
</svg>
