<?xml version="1.0" encoding="utf-8"?>
<!-- Generator: Adobe Illustrator 18.0.0, SVG Export Plug-In . SVG Version: 6.00 Build 0)  -->
<!DOCTYPE svg PUBLIC "-//W3C//DTD SVG 1.1//EN" "http://www.w3.org/Graphics/SVG/1.1/DTD/svg11.dtd">
<svg version="1.1" id="Layer_1" xmlns="http://www.w3.org/2000/svg" xmlns:xlink="http://www.w3.org/1999/xlink" x="0px" y="0px"
	 viewBox="76.3 453.1 3774.4 2753" enable-background="new 76.3 453.1 3774.4 2753" xml:space="preserve">
<g>
	<g>
		<rect x="76.3" y="495.2" fill="#E4525A" width="2405.8" height="2405.8"/>
	</g>
	<circle fill="#E4525A" cx="3277.8" cy="2730.5" r="270.8"/>
	<g>
		<path fill="#E4525A" d="M3354,2984.5c-52,0-103.6-13.3-149.1-38.4c-46.9-25.9-86.4-64.1-114.2-110.3
			c-42.3-70.3-54.7-152.8-34.9-232.4c19.8-79.6,69.4-146.7,139.6-189c47.8-28.8,102.5-44,158.1-44c52,0,103.5,13.3,149.1,38.4
			c46.9,25.9,86.4,64.1,114.2,110.3c42.3,70.3,54.7,152.8,34.9,232.4c-19.8,79.6-69.4,146.7-139.6,189
			C3464.3,2969.3,3409.6,2984.5,3354,2984.5z"/>
		<path fill="#FFFFFF" d="M3353.5,2400.4c94,0,185.6,47.8,237.6,134.2c78.9,131.1,36.6,301.3-94.5,380.2
			c-44.7,26.9-94,39.7-142.6,39.7c-94,0-185.6-47.8-237.6-134.2c-78.9-131.1-36.6-301.3,94.5-380.2
			C3255.6,2413.2,3304.9,2400.4,3353.5,2400.4 M3353.5,2340.4v60V2340.4c-61,0-121.1,16.7-173.6,48.3c-39,23.5-72.2,53.9-98.7,90.4
			c-25.6,35.2-44,74.6-54.5,117.1c-10.5,42.5-12.8,85.9-6.6,129c6.4,44.7,21.5,87.1,45,126.1c30.5,50.7,73.9,92.6,125.4,121
			c49.9,27.6,106.5,42.2,163.6,42.2c61,0,121-16.7,173.6-48.3c39-23.5,72.2-53.9,98.7-90.4c25.6-35.2,44-74.6,54.5-117.1
			s12.8-85.9,6.6-129c-6.4-44.7-21.5-87.1-45-126.1c-30.5-50.7-73.9-92.6-125.4-121C3467.1,2355,3410.6,2340.4,3353.5,2340.4
			L3353.5,2340.4z"/>
	</g>
	<g>
		<path fill="#E4525A" d="M3481.1,2932.1c-57.6,0-114.6-14.7-165-42.6c-51.9-28.7-95.7-70.9-126.4-122
			c-23.7-39.3-38.9-82.1-45.3-127.1c-6.2-43.5-4-87.3,6.7-130.1c10.6-42.8,29.1-82.5,55-118.1c26.8-36.8,60.3-67.5,99.5-91.1
			c53-31.9,113.5-48.7,175-48.7c57.6,0,114.6,14.7,165,42.6c51.9,28.7,95.7,70.9,126.4,122c23.7,39.3,38.9,82.1,45.3,127.1
			c6.2,43.5,4,87.3-6.7,130.1s-29.1,82.5-55,118.1c-26.8,36.8-60.3,67.5-99.5,91.1C3603.1,2915.2,3542.6,2932.1,3481.1,2932.1z"/>
		<path fill="#FFFFFF" d="M3480.5,2282.3c105.1,0,207.6,53.5,265.7,150.1c88.3,146.6,41,337-105.6,425.2
			c-50,30.1-105.1,44.4-159.5,44.4c-105.1,0-207.6-53.5-265.7-150.1c-88.3-146.6-41-337,105.6-425.2
			C3371,2296.7,3426.1,2282.3,3480.5,2282.3 M3480.5,2222.3v60V2222.3c-67,0-132.8,18.3-190.5,53c-42.7,25.7-79.2,59.1-108.3,99.2
			c-28.1,38.7-48.3,81.9-59.8,128.5c-11.6,46.6-14,94.2-7.3,141.6c7,49,23.6,95.6,49.3,138.3c33.5,55.6,81.1,101.6,137.6,132.8
			c54.8,30.3,116.9,46.3,179.5,46.3c67,0,132.8-18.3,190.4-53c42.7-25.7,79.2-59.1,108.3-99.2c28.1-38.7,48.3-81.9,59.8-128.5
			c11.6-46.6,14-94.2,7.3-141.6c-7-49-23.6-95.6-49.3-138.3c-33.5-55.6-81.1-101.6-137.6-132.8
			C3605.2,2238.3,3543.1,2222.3,3480.5,2222.3L3480.5,2222.3z"/>
	</g>
	<line fill="none" stroke="#FFFFFF" stroke-width="70" stroke-miterlimit="10" x1="1878.7" y1="2902.1" x2="1878.7" y2="453.1"/>
	<line fill="none" stroke="#FFFFFF" stroke-width="70" stroke-miterlimit="10" x1="1270.5" y1="2902.1" x2="1270.5" y2="453.1"/>
	<line fill="none" stroke="#E4525A" stroke-width="70" stroke-miterlimit="10" x1="2450.2" y1="511" x2="3451.1" y2="2514.6"/>
	<path fill="#FFFFFF" d="M2182.7,2902h-608.1c0-167.9,136.1-304.1,304.1-304.1S2182.7,2734.1,2182.7,2902z"/>
	<path fill="#FFFFFF" d="M1574.6,2902H966.4c0-167.9,136.1-304.1,304.1-304.1S1574.6,2734.1,1574.6,2902z"/>
	<path fill="#E4525A" d="M1574.6,2902h608.1c0,167.9-136.1,304.1-304.1,304.1S1574.6,3070,1574.6,2902z"/>
	<path fill="#E4525A" d="M966.4,2902h608.1c0,167.9-136.1,304.1-304.1,304.1S966.4,3070,966.4,2902z"/>
</g>
</svg>
