<?xml version="1.0" encoding="utf-8"?>
<!-- Generator: Adobe Illustrator 18.0.0, SVG Export Plug-In . SVG Version: 6.00 Build 0)  -->
<!DOCTYPE svg PUBLIC "-//W3C//DTD SVG 1.1//EN" "http://www.w3.org/Graphics/SVG/1.1/DTD/svg11.dtd">
<svg version="1.1" id="Layer_1" xmlns="http://www.w3.org/2000/svg" xmlns:xlink="http://www.w3.org/1999/xlink" x="0px" y="0px"
	 viewBox="76.3 957.6 3343.8 2328.5" enable-background="new 76.3 957.6 3343.8 2328.5" xml:space="preserve">
<g>
	<rect x="76.3" y="957.6" width="2328.5" height="2328.5"/>
</g>
<circle display="none" fill="#E4525A" cx="2595.2" cy="2860.7" r="250.8"/>
<g display="none">
	<path display="inline" fill="#E4525A" d="M2521.5,2614.9c50.4,0,100.3,12.9,144.3,37.1c45.4,25.1,83.6,62,110.6,106.7
		c41,68,53,148,33.8,224.9c-19.2,77.1-67.1,142-135.1,182.9c-46.3,27.8-99.2,42.5-153,42.5c-50.4,0-100.1-12.9-144.3-37.1
		c-45.4-25.1-83.6-62-110.6-106.7c-41-68-53-148-33.8-224.9c19.2-77.1,67.1-142,135.1-182.9
		C2414.8,2629.6,2467.7,2614.9,2521.5,2614.9z"/>
	<path display="inline" fill="#FFFFFF" d="M2522,3180.2c-91,0-179.7-46.3-229.9-129.9c-76.4-126.9-35.4-291.6,91.5-367.9
		c43.3-26,91-38.4,138-38.4c91,0,179.7,46.3,229.9,129.9c76.4,126.9,35.4,291.6-91.5,367.9C2616.7,3167.8,2569,3180.2,2522,3180.2
		 M2522,3238.3v-58.1V3238.3c59,0,117.1-16.1,168.1-46.8c37.8-22.7,69.9-52.2,95.5-87.5c24.7-34,42.5-72.2,52.7-113.3
		c10.2-41.1,12.4-83.1,6.4-124.9c-6.2-43.3-20.7-84.3-43.6-122c-29.5-49.1-71.5-89.6-121.4-117.1c-48.3-26.7-103.1-40.9-158.4-40.9
		c-59,0-117.1,16.1-168.1,46.8c-37.8,22.7-69.9,52.2-95.5,87.5c-24.7,34-42.5,72.2-52.7,113.3c-10.2,41.1-12.4,83.1-6.4,124.9
		c6.2,43.3,20.7,84.3,43.6,122c29.5,49.1,71.5,89.6,121.4,117.1C2412.1,3224.1,2466.7,3238.3,2522,3238.3L2522,3238.3z"/>
</g>
<path d="M2627.2,2465.6c19,67.7-65,150.5-187.6,184.8c-12.5,3.5-25,6.4-37.3,8.6c-107.8,19.7-202-8.4-219-69.2
	c-19-67.7,65-150.5,187.6-184.8c9.7-2.7,19.3-5,28.8-7C2511,2375.3,2609.7,2403.2,2627.2,2465.6z"/>
<path d="M1917.9,2922.1c-9,0-17.8-0.1-26.6-0.4c-85.5-2.7-157.8-18.6-214.7-47.2c-84-42.2-132-111.7-135.4-195.7
	c-1.6-41,7.5-84.4,27.3-128.9c17.7-40,44.1-81.2,78.4-122.2c66.7-79.8,164-159.6,281.3-230.9c155.8-94.6,302.3-151.6,474-175.6
	c14-1.9,28.1-3.7,42.4-5.2c224.9-23.8,507.4-14.6,507.4-14.6s-318.6,36.1-549.1,92c-84.1,20.4-156.6,43.4-197.5,68.3
	c-351.8,205.4-422.7,529.4,198.6,534.5c85.4,0.7,183.9-4.6,296.5-17.1c0,0-144.3,71.1-298.1,133.4c-90.6,36.7-184.5,70.3-254.1,84.4
	C2065.8,2913.6,1988.5,2922.1,1917.9,2922.1z"/>
<circle fill="#FFFFFF" cx="702.9" cy="1325.5" r="22"/>
<circle fill="#FFFFFF" cx="659" cy="3065.3" r="22"/>
<circle fill="#FFFFFF" cx="1415.8" cy="1145.2" r="22"/>
<circle fill="#FFFFFF" cx="984.5" cy="2450.7" r="22"/>
<circle fill="#FFFFFF" cx="312.7" cy="1881.9" r="22"/>
<path d="M3043.2,2142.9c9,0,17.8,0.1,26.6,0.4c85.5,2.7,157.8,18.6,214.7,47.2c84,42.2,132,111.7,135.4,195.7
	c1.6,41-7.5,84.4-27.3,128.9c-17.7,40-44.1,81.2-78.4,122.2c-66.7,79.8-164,159.6-281.3,230.9c-168.5,102.3-326,160.7-516.4,180.8
	c-36.5,3.9-74.4,6.8-112.5,9.1c-196.6,11.9-395,5.4-395,5.4s198.2-22.5,395-59.4c143.8-27,286.9-61.7,351.6-101
	c378.7-221.1,431.9-579.8-353.9-529.9c-44.4,2.8-91.4,6.9-141.2,12.5c0,0,59.2-29.2,142.1-66.5c122.9-55.3,298-128.5,410.1-151.3
	C2895.3,2151.3,2972.7,2142.9,3043.2,2142.9z"/>
<g>
	<path fill="#FFFFFF" d="M2402.2,2659c-107.8,19.7-202-8.4-219-69.2c-19-67.7,65-150.5,187.6-184.8c9.7-2.7,19.3-5,28.8-7"/>
	<path fill="#FFFFFF" d="M2402.3,2812.5c-90.6,36.7-184.5,70.3-254.1,84.4c-82.5,16.7-159.8,25.2-230.4,25.2c-9,0-17.8-0.1-26.6-0.4
		c-85.5-2.7-157.8-18.6-214.7-47.2c-84-42.2-132-111.7-135.4-195.7c-1.6-41,7.5-84.4,27.3-128.9c17.7-40,44.1-81.2,78.4-122.2
		c66.7-79.8,164-159.6,281.3-230.9c155.8-94.6,302.3-151.6,474-175.6"/>
	<path d="M2402.9,2093.4c-84.1,20.4-156.6,43.4-197.5,68.3c-351.8,205.4-422.7,529.4,198.6,534.5"/>
	<path fill="#FFFFFF" d="M2401.9,2373.4c-44.4,2.8-91.4,6.9-141.2,12.5c0,0,59.2-29.2,142.1-66.5"/>
	<path fill="#FFFFFF" d="M2404,3058.1c-196.6,11.9-395,5.4-395,5.4s198.2-22.5,395-59.4"/>
</g>
<path fill="#FFFFFF" d="M2405.4,2658.4c-1,0.2-2.1,0.4-3.1,0.6c-107.8,19.7-202-8.4-219-69.2c-19-67.7,65-150.5,187.6-184.8
	c9.7-2.7,19.3-5,28.8-7c1.7-0.3,3.3-0.7,5-1C2399.7,2398.1,2405.4,2658.4,2405.4,2658.4z"/>
<circle fill="#FFFFFF" cx="1284.1" cy="2721.5" r="14"/>
<circle fill="#FFFFFF" cx="326.7" cy="2154.9" r="14"/>
<circle fill="#FFFFFF" cx="1162.7" cy="3175.6" r="14"/>
<circle fill="#FFFFFF" cx="568.4" cy="2528.1" r="14"/>
<circle fill="#FFFFFF" cx="1095.2" cy="2330.3" r="14"/>
<circle fill="#FFFFFF" cx="2005.8" cy="1130.5" r="11.5"/>
<circle fill="#FFFFFF" cx="1307.8" cy="1717.4" r="11.5"/>
<circle fill="#FFFFFF" cx="2324.1" cy="1347.6" r="11.5"/>
<circle fill="#FFFFFF" cx="1662.1" cy="1631.7" r="11.5"/>
<circle fill="#FFFFFF" cx="1652" cy="1170.5" r="11.5"/>
<circle fill="#FFFFFF" cx="782.9" cy="1638" r="11.5"/>
<circle fill="#FFFFFF" cx="363.6" cy="1198.1" r="11.5"/>
<circle fill="#FFFFFF" cx="816.9" cy="1283.5" r="11.5"/>
<circle fill="#FFFFFF" cx="1822.3" cy="1925.9" r="22"/>
</svg>
