<?xml version="1.0" encoding="utf-8"?>
<!-- Generator: Adobe Illustrator 18.0.0, SVG Export Plug-In . SVG Version: 6.00 Build 0)  -->
<!DOCTYPE svg PUBLIC "-//W3C//DTD SVG 1.1//EN" "http://www.w3.org/Graphics/SVG/1.1/DTD/svg11.dtd">
<svg version="1.1" id="Layer_1" xmlns="http://www.w3.org/2000/svg" xmlns:xlink="http://www.w3.org/1999/xlink" x="0px" y="0px"
	 viewBox="76.3 957.4 3169 2328.8" enable-background="new 76.3 957.4 3169 2328.8" xml:space="preserve">
<g>
	<rect x="76.3" y="957.6" width="2328.5" height="2328.5"/>
</g>
<circle display="none" fill="#E4525A" cx="2595.2" cy="2860.7" r="250.8"/>
<g display="none">
	<path display="inline" fill="#E4525A" d="M2521.5,2614.9c50.4,0,100.3,12.9,144.3,37.1c45.4,25.1,83.6,62,110.6,106.7
		c41,68,53,148,33.8,224.9c-19.2,77.1-67.1,142-135.1,182.9c-46.3,27.8-99.2,42.5-153,42.5c-50.4,0-100.1-12.9-144.3-37.1
		c-45.4-25.1-83.6-62-110.6-106.7c-41-68-53-148-33.8-224.9c19.2-77.1,67.1-142,135.1-182.9
		C2414.8,2629.6,2467.7,2614.9,2521.5,2614.9z"/>
	<path display="inline" fill="#FFFFFF" d="M2522,3180.2c-91,0-179.7-46.3-229.9-129.9c-76.4-126.9-35.4-291.6,91.5-367.9
		c43.3-26,91-38.4,138-38.4c91,0,179.7,46.3,229.9,129.9c76.4,126.9,35.4,291.6-91.5,367.9C2616.7,3167.8,2569,3180.2,2522,3180.2
		 M2522,3238.3v-58.1V3238.3c59,0,117.1-16.1,168.1-46.8c37.8-22.7,69.9-52.2,95.5-87.5c24.7-34,42.5-72.2,52.7-113.3
		s12.4-83.1,6.4-124.9c-6.2-43.3-20.7-84.3-43.6-122c-29.5-49.1-71.5-89.6-121.4-117.1c-48.3-26.7-103.1-40.9-158.4-40.9
		c-59,0-117.1,16.1-168.1,46.8c-37.8,22.7-69.9,52.2-95.5,87.5c-24.7,34-42.5,72.2-52.7,113.3c-10.2,41.1-12.4,83.1-6.4,124.9
		c6.2,43.3,20.7,84.3,43.6,122c29.5,49.1,71.5,89.6,121.4,117.1C2412.1,3224.1,2466.7,3238.3,2522,3238.3L2522,3238.3z"/>
</g>
<ellipse transform="matrix(0.963 -0.2695 0.2695 0.963 -549.6448 975.3931)" cx="3278.1" cy="2489.8" rx="174.5" ry="96.5"/>
<path d="M2909.1,2788.5c-6.8,0-13.5-0.1-20.1-0.3c-64.8-2-119.5-14.1-162.6-35.7c-63.6-32-100-84.6-102.5-148.2
	c-1.2-31.1,5.7-63.9,20.6-97.7c13.4-30.3,33.4-61.5,59.4-92.5c50.5-60.4,124.2-120.9,213-174.9c127.6-77.5,246.9-121.7,391.1-136.9
	c170.3-18,384.3-11,384.3-11s-449.4,50.9-565.5,121.4c-303,176.9-330.9,470.1,374.9,391.8c0,0-276.1,136.1-418.2,164.9
	C3021.1,2782.1,2962.5,2788.5,2909.1,2788.5z"/>
<circle fill="#FFFFFF" cx="702.9" cy="1325.5" r="22"/>
<circle fill="#FFFFFF" cx="827" cy="3130.1" r="22"/>
<circle fill="#FFFFFF" cx="1415.8" cy="1145.2" r="22"/>
<circle fill="#FFFFFF" cx="984.5" cy="2450.7" r="22"/>
<circle fill="#FFFFFF" cx="312.7" cy="1881.9" r="22"/>
<path d="M3761.3,2198.4c6.8,0,13.5,0.1,20.1,0.3c64.8,2,119.5,14.1,162.6,35.7c63.6,32,100,84.6,102.5,148.2
	c1.2,31.1-5.7,63.9-20.6,97.7c-13.4,30.3-33.4,61.5-59.4,92.5c-50.5,60.4-124.2,120.9-213,174.9
	c-127.6,77.5-246.9,121.7-391.1,136.9c-170.3,18-384.3,11-384.3,11s449.4-50.9,565.5-121.4c303-176.9,330.9-470.1-374.9-391.8
	c0,0,276.1-136.1,418.2-164.9C3649.3,2204.8,3707.9,2198.4,3761.3,2198.4z"/>
</svg>
