<?xml version="1.0" encoding="utf-8"?>
<!-- Generator: Adobe Illustrator 18.0.0, SVG Export Plug-In . SVG Version: 6.00 Build 0)  -->
<!DOCTYPE svg PUBLIC "-//W3C//DTD SVG 1.1//EN" "http://www.w3.org/Graphics/SVG/1.1/DTD/svg11.dtd">
<svg version="1.1" id="Layer_1" xmlns="http://www.w3.org/2000/svg" xmlns:xlink="http://www.w3.org/1999/xlink" x="0px" y="0px"
	 viewBox="418.7 494.8 499.6 211.1" enable-background="new 418.7 494.8 499.6 211.1" xml:space="preserve">
<g enable-background="new    ">
	<path fill="#00004C" d="M485.1,665.2h-35.5l-6.6,16.3h-24.2l37.1-84h23.4l37.2,84h-24.7L485.1,665.2z M478.1,647.7l-10.8-26.9
		l-10.8,26.9H478.1z"/>
	<path fill="#00004C" d="M668.3,616.5l-28.1,67.7c-3.3,8-7.3,13.6-12,16.9c-4.7,3.2-10.5,4.9-17.3,4.9c-3.4,0-6.9-0.5-10.4-1.6
		s-6.3-2.5-8.5-4.3l7.9-16c1.3,1.2,2.8,2.1,4.6,2.8c1.8,0.7,3.6,1,5.5,1c2.2,0,3.9-0.4,5.3-1.3c1.4-0.9,2.6-2.3,3.5-4.2l-27.8-65.9
		h23.4l16,39.7l16.1-39.7H668.3z"/>
	<path fill="#00004C" d="M678.8,680.7c-5.3-1.2-9.5-2.9-12.7-4.9l6.8-15.6c3,1.8,6.5,3.3,10.6,4.4s8.1,1.6,12.1,1.6
		c3.7,0,6.3-0.4,7.9-1.1c1.6-0.8,2.3-1.9,2.3-3.3c0-1.4-0.9-2.5-2.8-3.1c-1.9-0.6-4.9-1.2-8.9-1.7c-5.2-0.6-9.6-1.5-13.3-2.5
		c-3.6-1-6.8-3-9.4-5.8c-2.6-2.8-4-6.7-4-11.8c0-4.2,1.2-7.9,3.7-11.1c2.5-3.2,6.1-5.8,10.9-7.7c4.8-1.9,10.5-2.8,17.1-2.8
		c4.7,0,9.4,0.5,14,1.4c4.6,1,8.5,2.3,11.6,4.1l-6.8,15.5c-5.8-3.2-12-4.8-18.7-4.8c-3.6,0-6.2,0.4-7.9,1.3
		c-1.7,0.8-2.5,1.9-2.5,3.3c0,1.5,0.9,2.6,2.8,3.2c1.8,0.6,4.9,1.2,9.1,1.9c5.4,0.8,9.8,1.7,13.3,2.8c3.5,1,6.6,2.9,9.2,5.7
		c2.6,2.8,3.9,6.6,3.9,11.6c0,4.1-1.2,7.7-3.7,11c-2.5,3.2-6.1,5.8-11,7.6c-4.8,1.8-10.7,2.8-17.5,2.8
		C689.4,682.6,684,682,678.8,680.7z"/>
	<path fill="#00004C" d="M742.5,680.7c-5.3-1.2-9.5-2.9-12.7-4.9l6.8-15.6c3,1.8,6.5,3.3,10.6,4.4s8.1,1.6,12.1,1.6
		c3.7,0,6.3-0.4,7.9-1.1c1.6-0.8,2.3-1.9,2.3-3.3c0-1.4-0.9-2.5-2.8-3.1c-1.9-0.6-4.9-1.2-8.9-1.7c-5.2-0.6-9.6-1.5-13.3-2.5
		c-3.6-1-6.8-3-9.4-5.8c-2.6-2.8-4-6.7-4-11.8c0-4.2,1.2-7.9,3.7-11.1c2.5-3.2,6.1-5.8,10.9-7.7c4.8-1.9,10.5-2.8,17.1-2.8
		c4.7,0,9.4,0.5,14,1.4c4.6,1,8.5,2.3,11.6,4.1l-6.8,15.5c-5.8-3.2-12-4.8-18.7-4.8c-3.6,0-6.2,0.4-7.9,1.3
		c-1.7,0.8-2.5,1.9-2.5,3.3c0,1.5,0.9,2.6,2.8,3.2c1.8,0.6,4.9,1.2,9.1,1.9c5.4,0.8,9.8,1.7,13.3,2.8c3.5,1,6.6,2.9,9.2,5.7
		c2.6,2.8,3.9,6.6,3.9,11.6c0,4.1-1.2,7.7-3.7,11c-2.5,3.2-6.1,5.8-11,7.6c-4.8,1.8-10.7,2.8-17.5,2.8
		C753.1,682.6,747.8,682,742.5,680.7z"/>
</g>
<g enable-background="new    ">
	<path fill="#00004C" d="M492.9,516.3c5.6,2.5,9.9,6.1,13,10.8c3,4.7,4.6,10.2,4.6,16.5c0,6.3-1.5,11.8-4.6,16.4
		c-3,4.6-7.4,8.2-13,10.7c-5.6,2.5-12.2,3.8-19.8,3.8h-14.6v22h-23.8v-84h38.4C480.7,512.6,487.3,513.8,492.9,516.3z M482.7,552.7
		c2.5-2.1,3.7-5.1,3.7-9.1c0-3.9-1.2-7-3.7-9.1c-2.5-2.2-6.2-3.2-11-3.2h-13.2v24.6h13.2C476.5,555.9,480.2,554.8,482.7,552.7z"/>
	<path fill="#00004C" d="M582,537.6c4.9,4.8,7.4,12,7.4,21.7v37.2h-22.8v-33.5c0-8.9-3.6-13.3-10.7-13.3c-3.9,0-7.1,1.3-9.4,3.8
		c-2.4,2.6-3.5,6.4-3.5,11.5v31.4h-22.8v-89h22.8v30c2.5-2.3,5.4-4.1,8.8-5.3c3.4-1.2,7-1.8,10.8-1.8
		C570.6,530.4,577.1,532.8,582,537.6z"/>
	<g>
		<path fill="#00004C" d="M611.7,622.4c-3.6,0-7.2-0.6-10.8-1.7c-3.6-1.1-6.7-2.7-9-4.5l-0.9-0.8l9.4-18.8l1.5,1.4
			c1.1,1.1,2.5,1.9,4.1,2.5c1.6,0.6,3.3,0.9,4.9,0.9c1.9,0,3.4-0.4,4.5-1.1c1-0.6,1.9-1.6,2.7-3L589.6,530h26.7l15,37.2l15.1-37.2
			h25l-28.9,69.8c-3.4,8.2-7.6,14.1-12.5,17.5C624.9,620.7,618.8,622.4,611.7,622.4z"/>
		<path fill="#FFFFFF" d="M669,531.5L641,599.2c-3.3,8-7.3,13.6-12,16.9c-4.7,3.2-10.5,4.9-17.3,4.9c-3.4,0-6.9-0.5-10.4-1.6
			c-3.5-1.1-6.3-2.5-8.5-4.3l7.9-16c1.3,1.2,2.8,2.1,4.6,2.8c1.8,0.7,3.6,1,5.5,1c2.2,0,3.9-0.4,5.3-1.3c1.4-0.9,2.6-2.3,3.5-4.2
			l-27.8-65.9h23.4l16,39.7l16.1-39.7H669 M673.5,528.5H669h-21.7h-2l-0.8,1.9l-13.3,32.8l-13.2-32.8l-0.8-1.9h-2h-23.4h-4.5
			l1.8,4.2l27.3,64.5c-0.5,0.8-1.1,1.4-1.8,1.9c-0.9,0.6-2.2,0.9-3.7,0.9c-1.5,0-2.9-0.3-4.4-0.8c-1.4-0.5-2.6-1.3-3.6-2.2l-2.9-2.8
			l-1.8,3.6l-7.9,16l-1.1,2.1l1.9,1.5c2.5,2,5.6,3.6,9.5,4.8c3.8,1.2,7.5,1.8,11.3,1.8c7.4,0,13.8-1.8,19-5.4
			c5.2-3.6,9.6-9.7,13.1-18.2l28.1-67.7L673.5,528.5L673.5,528.5z"/>
	</g>
	<path fill="#00004C" d="M679.5,595.8c-5.3-1.2-9.5-2.9-12.7-4.9l6.8-15.6c3,1.8,6.5,3.3,10.6,4.4c4.1,1.1,8.1,1.6,12.1,1.6
		c3.7,0,6.3-0.4,7.9-1.1c1.6-0.8,2.3-1.9,2.3-3.3c0-1.4-0.9-2.5-2.8-3.1c-1.9-0.6-4.9-1.2-8.9-1.7c-5.2-0.6-9.6-1.5-13.3-2.5
		c-3.6-1-6.8-3-9.4-5.8c-2.6-2.8-4-6.7-4-11.8c0-4.2,1.2-7.9,3.7-11.1c2.5-3.2,6.1-5.8,10.9-7.7c4.8-1.9,10.5-2.8,17.1-2.8
		c4.7,0,9.4,0.5,14,1.4c4.6,1,8.5,2.3,11.6,4.1l-6.8,15.5c-5.8-3.2-12-4.8-18.7-4.8c-3.6,0-6.2,0.4-7.9,1.3
		c-1.7,0.8-2.5,1.9-2.5,3.3c0,1.5,0.9,2.6,2.8,3.2c1.8,0.6,4.9,1.2,9.1,1.9c5.4,0.8,9.8,1.7,13.3,2.8c3.5,1,6.6,2.9,9.2,5.7
		c2.6,2.8,3.9,6.6,3.9,11.6c0,4.1-1.2,7.7-3.7,11c-2.5,3.2-6.1,5.8-11,7.6c-4.8,1.8-10.7,2.8-17.5,2.8
		C690.1,597.6,684.8,597,679.5,595.8z"/>
	<path fill="#00004C" d="M735.6,531.5h22.8v65h-22.8V531.5z"/>
</g>
<g enable-background="new    ">
	<path fill="#00004C" d="M786.9,593.3c-5.7-2.9-10.1-6.9-13.3-12c-3.2-5.1-4.7-10.9-4.7-17.4c0-6.5,1.6-12.3,4.7-17.3
		c3.2-5.1,7.6-9,13.3-11.9c5.7-2.8,12.1-4.3,19.3-4.3c7.4,0,13.7,1.6,19.1,4.7c5.4,3.2,9.2,7.5,11.4,13.1l-17.6,9
		c-3-5.8-7.3-8.8-13-8.8c-4.1,0-7.5,1.4-10.1,4.1c-2.7,2.7-4,6.5-4,11.3c0,4.9,1.3,8.7,4,11.5c2.7,2.8,6.1,4.1,10.1,4.1
		c5.7,0,10-2.9,13-8.8l17.6,9c-2.2,5.6-6,10-11.4,13.1c-5.4,3.2-11.7,4.7-19.1,4.7C799,597.6,792.6,596.2,786.9,593.3z"/>
</g>
<g enable-background="new    ">
	<path fill="#00004C" d="M851.7,595.8c-5.3-1.2-9.5-2.9-12.7-4.9l6.8-15.6c3,1.8,6.5,3.3,10.6,4.4s8.1,1.6,12.1,1.6
		c3.7,0,6.3-0.4,7.9-1.1c1.6-0.8,2.3-1.9,2.3-3.3c0-1.4-0.9-2.5-2.8-3.1c-1.9-0.6-4.9-1.2-8.9-1.7c-5.2-0.6-9.6-1.5-13.3-2.5
		c-3.6-1-6.8-3-9.4-5.8c-2.6-2.8-4-6.7-4-11.8c0-4.2,1.2-7.9,3.7-11.1c2.5-3.2,6.1-5.8,10.9-7.7c4.8-1.9,10.5-2.8,17.1-2.8
		c4.7,0,9.4,0.5,14,1.4c4.6,1,8.5,2.3,11.6,4.1l-6.8,15.5c-5.8-3.2-12-4.8-18.7-4.8c-3.6,0-6.2,0.4-7.9,1.3
		c-1.7,0.8-2.5,1.9-2.5,3.3c0,1.5,0.9,2.6,2.8,3.2c1.8,0.6,4.9,1.2,9.1,1.9c5.4,0.8,9.8,1.7,13.3,2.8c3.5,1,6.6,2.9,9.2,5.7
		c2.6,2.8,3.9,6.6,3.9,11.6c0,4.1-1.2,7.7-3.7,11c-2.5,3.2-6.1,5.8-11,7.6c-4.8,1.8-10.7,2.8-17.5,2.8
		C862.3,597.6,856.9,597,851.7,595.8z"/>
</g>
<g>
	<path fill="#00004C" d="M561,684.1c-7.4,0-13.3-1.8-17.7-5.5v4.4h-24.7v-92h25.8v27.8c4.4-3.3,9.9-4.9,16.6-4.9
		c6.1,0,11.8,1.4,16.9,4.3c5.1,2.8,9.1,7,12.1,12.3c3,5.3,4.5,11.5,4.5,18.4S593,662,590,667.3c-3,5.3-7,9.5-12.1,12.4
		C572.9,682.6,567.2,684.1,561,684.1z M556.2,635c-3.6,0-6.5,1.2-8.7,3.6c-2.3,2.4-3.4,5.9-3.4,10.3c0,4.5,1.2,8,3.4,10.4
		c2.3,2.5,5.1,3.7,8.7,3.7c3.6,0,6.5-1.2,8.7-3.7c2.3-2.5,3.4-6,3.4-10.4c0-4.4-1.2-7.8-3.4-10.3C562.7,636.2,559.8,635,556.2,635z"
		/>
	<path fill="#FFFFFF" d="M542.9,592.5v29.6c4.4-4.5,10.4-6.7,18.1-6.7c5.9,0,11.3,1.4,16.1,4.1c4.8,2.7,8.7,6.6,11.5,11.7
		c2.8,5.1,4.3,11,4.3,17.7c0,6.7-1.4,12.6-4.3,17.8c-2.8,5.1-6.7,9.1-11.5,11.8c-4.8,2.8-10.2,4.1-16.1,4.1c-8.6,0-15-2.5-19.2-7.6
		v6.5h-21.7v-89H542.9 M556.2,664.5c4,0,7.3-1.4,9.8-4.1c2.6-2.8,3.8-6.6,3.8-11.5c0-4.8-1.3-8.6-3.8-11.3c-2.6-2.7-5.8-4.1-9.8-4.1
		c-4,0-7.3,1.4-9.8,4.1c-2.6,2.7-3.8,6.5-3.8,11.3c0,4.9,1.3,8.7,3.8,11.5C549,663.1,552.2,664.5,556.2,664.5 M545.9,589.5h-3h-22.8
		h-3v3v89v3h3h21.7h3v-3c4.3,2.7,9.7,4,16.2,4c6.4,0,12.3-1.5,17.6-4.5c5.3-3,9.6-7.4,12.7-13c3.1-5.5,4.6-12,4.6-19.2
		c0-7.2-1.6-13.7-4.6-19.2c-3.1-5.5-7.4-9.9-12.7-12.9c-5.3-3-11.2-4.5-17.6-4.5c-5.9,0-10.9,1.2-15.1,3.6v-23.6V589.5L545.9,589.5z
		 M556.2,661.5c-3.2,0-5.7-1-7.6-3.2c-2-2.2-3-5.3-3-9.4c0-4,1-7.1,3-9.2c2-2.1,4.5-3.1,7.7-3.1c3.2,0,5.7,1,7.7,3.1
		c2,2.2,3,5.2,3,9.2c0,4.1-1,7.2-3,9.4C561.9,660.4,559.4,661.5,556.2,661.5L556.2,661.5z"/>
</g>
<text transform="matrix(1 0 0 1 895.1732 507.5151)" fill="#00004C" font-family="'Montserrat-Medium'" font-size="15">TM</text>
<rect x="431.4" y="596" fill="#FFFFFF" width="55.1" height="3"/>
<path fill="#00004C" stroke="#FFFFFF" stroke-width="3" stroke-miterlimit="10" d="M737,538.4c-2.6-2.3-3.8-5.2-3.8-8.6
	c0-3.4,1.3-6.3,3.8-8.6c2.6-2.3,5.9-3.5,10.1-3.5c4.2,0,7.5,1.1,10.1,3.3c2.6,2.2,3.8,5,3.8,8.5c0,3.6-1.3,6.6-3.8,8.9
	c-2.6,2.4-5.9,3.5-10.1,3.5C742.9,541.9,739.5,540.7,737,538.4z"/>
</svg>
