<?xml version="1.0" encoding="utf-8"?>
<!-- Generator: Adobe Illustrator 18.0.0, SVG Export Plug-In . SVG Version: 6.00 Build 0)  -->
<!DOCTYPE svg PUBLIC "-//W3C//DTD SVG 1.1//EN" "http://www.w3.org/Graphics/SVG/1.1/DTD/svg11.dtd">
<svg version="1.1" id="Layer_1" xmlns="http://www.w3.org/2000/svg" xmlns:xlink="http://www.w3.org/1999/xlink" x="0px" y="0px"
	 viewBox="418.7 494.8 499.6 211.1" enable-background="new 418.7 494.8 499.6 211.1" xml:space="preserve">
<g enable-background="new    ">
	<path fill="#00004C" d="M485.1,665.2h-35.5l-6.6,16.3h-24.2l37.1-84h23.4l37.2,84h-24.7L485.1,665.2z M478.1,647.7l-10.8-26.9
		l-10.8,26.9H478.1z"/>
	<path fill="#00004C" d="M668.3,616.5l-28.1,67.7c-3.3,8-7.3,13.6-12,16.9c-4.7,3.2-10.5,4.9-17.3,4.9c-3.4,0-6.9-0.5-10.4-1.6
		s-6.3-2.5-8.5-4.3l7.9-16c1.3,1.2,2.8,2.1,4.6,2.8c1.8,0.7,3.6,1,5.5,1c2.2,0,3.9-0.4,5.3-1.3c1.4-0.9,2.6-2.3,3.5-4.2l-27.1-65.9
		h22.7l16,39.7l16.1-39.7H668.3z"/>
	<path fill="#00004C" d="M678.8,680.7c-5.3-1.2-9.5-2.9-12.7-4.9l6.8-15.6c3,1.8,6.5,3.3,10.6,4.4s8.1,1.6,12.1,1.6
		c3.7,0,6.3-0.4,7.9-1.1c1.6-0.8,2.3-1.9,2.3-3.3c0-1.4-0.9-2.5-2.8-3.1c-1.9-0.6-4.9-1.2-8.9-1.7c-5.2-0.6-9.6-1.5-13.3-2.5
		c-3.6-1-6.8-3-9.4-5.8c-2.6-2.8-4-6.7-4-11.8c0-4.2,1.2-7.9,3.7-11.1c2.5-3.2,6.1-5.8,10.9-7.7c4.8-1.9,10.5-2.8,17.1-2.8
		c4.7,0,9.4,0.5,14,1.4c4.6,1,8.5,2.3,11.6,4.1l-6.8,15.5c-5.8-3.2-12-4.8-18.7-4.8c-3.6,0-6.2,0.4-7.9,1.3
		c-1.7,0.8-2.5,1.9-2.5,3.3c0,1.5,0.9,2.6,2.8,3.2c1.8,0.6,4.9,1.2,9.1,1.9c5.4,0.8,9.8,1.7,13.3,2.8c3.5,1,6.6,2.9,9.2,5.7
		c2.6,2.8,3.9,6.6,3.9,11.6c0,4.1-1.2,7.7-3.7,11c-2.5,3.2-6.1,5.8-11,7.6c-4.8,1.8-10.7,2.8-17.5,2.8
		C689.4,682.6,684,682,678.8,680.7z"/>
	<path fill="#00004C" d="M742.5,680.7c-5.3-1.2-9.5-2.9-12.7-4.9l6.8-15.6c3,1.8,6.5,3.3,10.6,4.4s8.1,1.6,12.1,1.6
		c3.7,0,6.3-0.4,7.9-1.1c1.6-0.8,2.3-1.9,2.3-3.3c0-1.4-0.9-2.5-2.8-3.1c-1.9-0.6-4.9-1.2-8.9-1.7c-5.2-0.6-9.6-1.5-13.3-2.5
		c-3.6-1-6.8-3-9.4-5.8c-2.6-2.8-4-6.7-4-11.8c0-4.2,1.2-7.9,3.7-11.1c2.5-3.2,6.1-5.8,10.9-7.7c4.8-1.9,10.5-2.8,17.1-2.8
		c4.7,0,9.4,0.5,14,1.4c4.6,1,8.5,2.3,11.6,4.1l-6.8,15.5c-5.8-3.2-12-4.8-18.7-4.8c-3.6,0-6.2,0.4-7.9,1.3
		c-1.7,0.8-2.5,1.9-2.5,3.3c0,1.5,0.9,2.6,2.8,3.2c1.8,0.6,4.9,1.2,9.1,1.9c5.4,0.8,9.8,1.7,13.3,2.8c3.5,1,6.6,2.9,9.2,5.7
		c2.6,2.8,3.9,6.6,3.9,11.6c0,4.1-1.2,7.7-3.7,11c-2.5,3.2-6.1,5.8-11,7.6c-4.8,1.8-10.7,2.8-17.5,2.8
		C753.1,682.6,747.8,682,742.5,680.7z"/>
</g>
<g enable-background="new    ">
	<path fill="#00004C" d="M492.9,516.3c5.6,2.5,9.9,6.1,13,10.8c3,4.7,4.6,10.2,4.6,16.5c0,6.3-1.5,11.8-4.6,16.4
		c-3,4.6-7.4,8.2-13,10.7c-5.6,2.5-12.2,3.8-19.8,3.8h-14.6v22h-23.8v-84h38.4C480.7,512.6,487.3,513.8,492.9,516.3z M482.7,552.7
		c2.5-2.1,3.7-5.1,3.7-9.1c0-3.9-1.2-7-3.7-9.1c-2.5-2.2-6.2-3.2-11-3.2h-13.2v24.6h13.2C476.5,555.9,480.2,554.8,482.7,552.7z"/>
	<path fill="#00004C" d="M582,537.6c4.9,4.8,7.4,12,7.4,21.7v37.2h-22.8v-33.5c0-8.9-3.6-13.3-10.7-13.3c-3.9,0-7.1,1.3-9.4,3.8
		c-2.4,2.6-3.5,6.4-3.5,11.5v31.4h-22.8v-89h22.8v30c2.5-2.3,5.4-4.1,8.8-5.3c3.4-1.2,7-1.8,10.8-1.8
		C570.6,530.4,577.1,532.8,582,537.6z"/>
	<g>
		<path fill="#00004C" d="M611.7,621.9c-3.5,0-7.1-0.6-10.7-1.7c-3.6-1.1-6.5-2.6-8.8-4.4l-0.6-0.5l8.9-17.9l1,0.9
			c1.2,1.1,2.6,2,4.3,2.6c1.7,0.6,3.4,1,5.1,1c2,0,3.6-0.4,4.8-1.2c1.1-0.7,2.1-1.9,3-3.4l-28.2-66.8H616l15.3,38l15.4-38h23.9
			l-28.7,69.1c-3.3,8.1-7.5,14-12.4,17.3C624.7,620.2,618.7,621.9,611.7,621.9z"/>
		<path fill="#FFFFFF" d="M669,531.5L641,599.2c-3.3,8-7.3,13.6-12,16.9c-4.7,3.2-10.5,4.9-17.3,4.9c-3.4,0-6.9-0.5-10.4-1.6
			c-3.5-1.1-6.3-2.5-8.5-4.3l7.9-16c1.3,1.2,2.8,2.1,4.6,2.8c1.8,0.7,3.6,1,5.5,1c2.2,0,3.9-0.4,5.3-1.3c1.4-0.9,2.6-2.3,3.5-4.2
			l-27.8-65.9h23.4l16,39.7l16.1-39.7H669 M672,529.5h-3h-21.7H646l-0.5,1.2l-14.2,35.1l-14.1-35.1l-0.5-1.3h-1.4h-23.4h-3l1.2,2.8
			l27.5,65c-0.7,1.2-1.5,2.1-2.4,2.6c-1.1,0.7-2.5,1-4.3,1c-1.6,0-3.2-0.3-4.8-0.9c-1.5-0.6-2.9-1.4-4-2.4l-2-1.8l-1.2,2.4l-7.9,16
			l-0.7,1.4l1.2,1c2.4,1.9,5.4,3.5,9.1,4.6c3.7,1.1,7.3,1.7,11,1.7c7.2,0,13.4-1.8,18.4-5.2c5-3.4,9.3-9.4,12.7-17.8l28.1-67.7
			L672,529.5L672,529.5z"/>
	</g>
	<path fill="#00004C" d="M679.5,595.8c-5.3-1.2-9.5-2.9-12.7-4.9l6.8-15.6c3,1.8,6.5,3.3,10.6,4.4c4.1,1.1,8.1,1.6,12.1,1.6
		c3.7,0,6.3-0.4,7.9-1.1c1.6-0.8,2.3-1.9,2.3-3.3c0-1.4-0.9-2.5-2.8-3.1c-1.9-0.6-4.9-1.2-8.9-1.7c-5.2-0.6-9.6-1.5-13.3-2.5
		c-3.6-1-6.8-3-9.4-5.8c-2.6-2.8-4-6.7-4-11.8c0-4.2,1.2-7.9,3.7-11.1c2.5-3.2,6.1-5.8,10.9-7.7c4.8-1.9,10.5-2.8,17.1-2.8
		c4.7,0,9.4,0.5,14,1.4c4.6,1,8.5,2.3,11.6,4.1l-6.8,15.5c-5.8-3.2-12-4.8-18.7-4.8c-3.6,0-6.2,0.4-7.9,1.3
		c-1.7,0.8-2.5,1.9-2.5,3.3c0,1.5,0.9,2.6,2.8,3.2c1.8,0.6,4.9,1.2,9.1,1.9c5.4,0.8,9.8,1.7,13.3,2.8c3.5,1,6.6,2.9,9.2,5.7
		c2.6,2.8,3.9,6.6,3.9,11.6c0,4.1-1.2,7.7-3.7,11c-2.5,3.2-6.1,5.8-11,7.6c-4.8,1.8-10.7,2.8-17.5,2.8
		C690.1,597.6,684.8,597,679.5,595.8z"/>
	<path fill="#00004C" d="M737,520.8c-2.6-2.3-3.8-5.2-3.8-8.6c0-3.4,1.3-6.3,3.8-8.6c2.6-2.3,5.9-3.5,10.1-3.5
		c4.2,0,7.5,1.1,10.1,3.3c2.6,2.2,3.8,5,3.8,8.5c0,3.6-1.3,6.6-3.8,8.9c-2.6,2.4-5.9,3.5-10.1,3.5
		C742.9,524.3,739.5,523.2,737,520.8z M735.6,531.5h22.8v65h-22.8V531.5z"/>
</g>
<g enable-background="new    ">
	<path fill="#00004C" d="M786.9,593.3c-5.7-2.9-10.1-6.9-13.3-12c-3.2-5.1-4.7-10.9-4.7-17.4c0-6.5,1.6-12.3,4.7-17.3
		c3.2-5.1,7.6-9,13.3-11.9c5.7-2.8,12.1-4.3,19.3-4.3c7.4,0,13.7,1.6,19.1,4.7c5.4,3.2,9.2,7.5,11.4,13.1l-17.6,9
		c-3-5.8-7.3-8.8-13-8.8c-4.1,0-7.5,1.4-10.1,4.1c-2.7,2.7-4,6.5-4,11.3c0,4.9,1.3,8.7,4,11.5c2.7,2.8,6.1,4.1,10.1,4.1
		c5.7,0,10-2.9,13-8.8l17.6,9c-2.2,5.6-6,10-11.4,13.1c-5.4,3.2-11.7,4.7-19.1,4.7C799,597.6,792.6,596.2,786.9,593.3z"/>
</g>
<g enable-background="new    ">
	<path fill="#00004C" d="M851.7,595.8c-5.3-1.2-9.5-2.9-12.7-4.9l6.8-15.6c3,1.8,6.5,3.3,10.6,4.4s8.1,1.6,12.1,1.6
		c3.7,0,6.3-0.4,7.9-1.1c1.6-0.8,2.3-1.9,2.3-3.3c0-1.4-0.9-2.5-2.8-3.1c-1.9-0.6-4.9-1.2-8.9-1.7c-5.2-0.6-9.6-1.5-13.3-2.5
		c-3.6-1-6.8-3-9.4-5.8c-2.6-2.8-4-6.7-4-11.8c0-4.2,1.2-7.9,3.7-11.1c2.5-3.2,6.1-5.8,10.9-7.7c4.8-1.9,10.5-2.8,17.1-2.8
		c4.7,0,9.4,0.5,14,1.4c4.6,1,8.5,2.3,11.6,4.1l-6.8,15.5c-5.8-3.2-12-4.8-18.7-4.8c-3.6,0-6.2,0.4-7.9,1.3
		c-1.7,0.8-2.5,1.9-2.5,3.3c0,1.5,0.9,2.6,2.8,3.2c1.8,0.6,4.9,1.2,9.1,1.9c5.4,0.8,9.8,1.7,13.3,2.8c3.5,1,6.6,2.9,9.2,5.7
		c2.6,2.8,3.9,6.6,3.9,11.6c0,4.1-1.2,7.7-3.7,11c-2.5,3.2-6.1,5.8-11,7.6c-4.8,1.8-10.7,2.8-17.5,2.8
		C862.3,597.6,856.9,597,851.7,595.8z"/>
</g>
<g>
	<path fill="#00004C" d="M561,683.6c-7.7,0-13.8-2-18.2-6.1v5h-23.7v-91h24.8v28.4c4.4-3.6,10.1-5.4,17.1-5.4
		c6.1,0,11.7,1.4,16.6,4.2c5,2.8,9,6.9,11.9,12.1c2.9,5.2,4.4,11.3,4.4,18.2c0,6.9-1.5,13-4.4,18.2c-2.9,5.3-6.9,9.4-11.9,12.2
		C572.7,682.1,567.1,683.6,561,683.6z M556.2,634.5c-3.7,0-6.7,1.2-9.1,3.8c-2.4,2.5-3.6,6.1-3.6,10.6c0,4.6,1.2,8.2,3.6,10.8
		c2.4,2.6,5.4,3.8,9.1,3.8c3.7,0,6.7-1.2,9.1-3.8c2.4-2.6,3.6-6.2,3.6-10.8c0-4.5-1.2-8.1-3.6-10.6C563,635.7,560,634.5,556.2,634.5
		z"/>
	<path fill="#FFFFFF" d="M542.9,592.5v29.6c4.4-4.5,10.4-6.7,18.1-6.7c5.9,0,11.3,1.4,16.1,4.1c4.8,2.7,8.7,6.6,11.5,11.7
		c2.8,5.1,4.3,11,4.3,17.7c0,6.7-1.4,12.6-4.3,17.8c-2.8,5.1-6.7,9.1-11.5,11.8c-4.8,2.8-10.2,4.1-16.1,4.1c-8.6,0-15-2.5-19.2-7.6
		v6.5h-21.7v-89H542.9 M556.2,664.5c4,0,7.3-1.4,9.8-4.1c2.6-2.8,3.8-6.6,3.8-11.5c0-4.8-1.3-8.6-3.8-11.3c-2.6-2.7-5.8-4.1-9.8-4.1
		c-4,0-7.3,1.4-9.8,4.1c-2.6,2.7-3.8,6.5-3.8,11.3c0,4.9,1.3,8.7,3.8,11.5C549,663.1,552.2,664.5,556.2,664.5 M544.9,590.5h-2h-22.8
		h-2v2v89v2h2h21.7h2v-2v-1.9c4.4,3.3,10.1,4.9,17.2,4.9c6.2,0,12-1.5,17.1-4.4c5.1-2.9,9.3-7.2,12.3-12.6c3-5.4,4.5-11.7,4.5-18.7
		c0-7-1.5-13.3-4.5-18.7c-3-5.4-7.1-9.6-12.3-12.5c-5.1-2.9-10.9-4.3-17.1-4.3c-6.4,0-11.8,1.5-16.1,4.4v-25.4V590.5L544.9,590.5z
		 M556.2,662.5c-3.5,0-6.2-1.1-8.4-3.5c-2.2-2.4-3.3-5.8-3.3-10.1c0-4.3,1.1-7.6,3.3-9.9c2.2-2.3,4.9-3.5,8.4-3.5
		c3.5,0,6.2,1.1,8.4,3.5c2.2,2.4,3.3,5.6,3.3,9.9c0,4.3-1.1,7.7-3.3,10.1C562.4,661.3,559.7,662.5,556.2,662.5L556.2,662.5z"/>
</g>
<text transform="matrix(1 0 0 1 895.1732 507.5151)" fill="#00004C" font-family="'Montserrat-Medium'" font-size="15">TM</text>
<rect x="428.1" y="596.6" fill="#FFFFFF" width="53.3" height="2"/>
</svg>
