<?xml version="1.0" encoding="utf-8"?>
<!-- Generator: Adobe Illustrator 18.0.0, SVG Export Plug-In . SVG Version: 6.00 Build 0)  -->
<!DOCTYPE svg PUBLIC "-//W3C//DTD SVG 1.1//EN" "http://www.w3.org/Graphics/SVG/1.1/DTD/svg11.dtd">
<svg version="1.1" id="Layer_1" xmlns="http://www.w3.org/2000/svg" xmlns:xlink="http://www.w3.org/1999/xlink" x="0px" y="0px"
	 viewBox="0 0 2834.6 2834.6" enable-background="new 0 0 2834.6 2834.6" xml:space="preserve">
<g>
	<path fill="#00004C" d="M487.5,669h-39l-7.4,18h-19.9l37.4-84h19.2l37.6,84h-20.4L487.5,669z M481.4,654.2L468,622.1l-13.3,32.2
		H481.4z"/>
	<path fill="#00004C" d="M575.3,625.6c4.9,2.8,8.8,6.6,11.6,11.6c2.8,5,4.2,10.8,4.2,17.5c0,6.6-1.4,12.5-4.2,17.5
		c-2.8,5-6.7,8.9-11.6,11.6c-4.9,2.8-10.4,4.1-16.4,4.1c-8.9,0-15.6-2.8-20.3-8.4v7.4h-17.9v-89h18.7v31.3
		c4.7-5.2,11.2-7.8,19.4-7.8C564.9,621.5,570.3,622.9,575.3,625.6z M567.5,667.7c3.1-3.2,4.6-7.6,4.6-13c0-5.4-1.5-9.8-4.6-13
		c-3.1-3.2-7-4.9-11.8-4.9c-4.8,0-8.7,1.6-11.8,4.9c-3.1,3.2-4.6,7.6-4.6,13c0,5.4,1.5,9.8,4.6,13c3.1,3.2,7,4.9,11.8,4.9
		C560.4,672.6,564.4,671,567.5,667.7z"/>
	<path fill="#00004C" d="M663.8,622.4L634.6,691c-3,7.4-6.6,12.7-11,15.7c-4.4,3-9.6,4.6-15.8,4.6c-3.4,0-6.7-0.5-10-1.6
		c-3.3-1-6-2.5-8-4.3l6.8-13.3c1.4,1.3,3.1,2.3,5,3c1.9,0.7,3.7,1.1,5.6,1.1c2.6,0,4.6-0.6,6.2-1.9c1.6-1.2,3-3.3,4.3-6.2l0.2-0.6
		l-29.8-69.3h19.4l19.9,48.1l18.2-43.8H663.8z"/>
	<path fill="#00004C" d="M674.4,686c-5.1-1.3-9.2-3-12.2-5l6.2-13.4c2.9,1.8,6.4,3.3,10.4,4.5c4.1,1.2,8.1,1.7,12,1.7
		c7.9,0,11.9-2,11.9-5.9c0-1.8-1.1-3.2-3.2-4c-2.2-0.8-5.5-1.5-10-2c-5.3-0.8-9.6-1.7-13.1-2.8c-3.4-1-6.4-2.9-8.9-5.5
		c-2.5-2.6-3.8-6.4-3.8-11.3c0-4.1,1.2-7.7,3.5-10.9c2.4-3.2,5.8-5.6,10.3-7.4c4.5-1.8,9.9-2.6,16-2.6c4.6,0,9.1,0.5,13.6,1.5
		c4.5,1,8.3,2.4,11.2,4.1l-6.2,13.3c-5.7-3.2-11.9-4.8-18.6-4.8c-4,0-7,0.6-9,1.7c-2,1.1-3,2.6-3,4.3c0,2,1.1,3.4,3.2,4.2
		c2.2,0.8,5.6,1.6,10.3,2.3c5.3,0.9,9.6,1.8,13,2.8c3.4,1,6.3,2.8,8.8,5.5c2.5,2.6,3.7,6.3,3.7,11c0,4-1.2,7.6-3.6,10.7
		c-2.4,3.1-5.9,5.5-10.5,7.3c-4.6,1.7-10.1,2.6-16.4,2.6C684.8,688,679.6,687.3,674.4,686z"/>
	<path fill="#00004C" d="M736.1,686c-5.1-1.3-9.2-3-12.2-5l6.2-13.4c2.9,1.8,6.4,3.3,10.4,4.5c4.1,1.2,8.1,1.7,12,1.7
		c7.9,0,11.9-2,11.9-5.9c0-1.8-1.1-3.2-3.2-4c-2.2-0.8-5.5-1.5-10-2c-5.3-0.8-9.6-1.7-13.1-2.8c-3.4-1-6.4-2.9-8.9-5.5
		c-2.5-2.6-3.8-6.4-3.8-11.3c0-4.1,1.2-7.7,3.5-10.9c2.4-3.2,5.8-5.6,10.3-7.4c4.5-1.8,9.9-2.6,16-2.6c4.6,0,9.1,0.5,13.6,1.5
		c4.5,1,8.3,2.4,11.2,4.1l-6.2,13.3c-5.7-3.2-11.9-4.8-18.6-4.8c-4,0-7,0.6-9,1.7c-2,1.1-3,2.6-3,4.3c0,2,1.1,3.4,3.2,4.2
		c2.2,0.8,5.6,1.6,10.3,2.3c5.3,0.9,9.6,1.8,13,2.8c3.4,1,6.3,2.8,8.8,5.5c2.5,2.6,3.7,6.3,3.7,11c0,4-1.2,7.6-3.6,10.7
		c-2.4,3.1-5.9,5.5-10.5,7.3c-4.6,1.7-10.1,2.6-16.4,2.6C746.5,688,741.2,687.3,736.1,686z"/>
</g>
<g>
	<path fill="#00004C" d="M492,516.3c5.5,2.5,9.7,6,12.7,10.6c3,4.6,4.4,10,4.4,16.2c0,6.2-1.5,11.5-4.4,16.1
		c-3,4.6-7.2,8.1-12.7,10.6c-5.5,2.4-11.9,3.7-19.4,3.7h-16.9v23.2h-19.4v-84h36.4C480,512.5,486.5,513.8,492,516.3z M484.8,553.8
		c3-2.5,4.6-6.1,4.6-10.7c0-4.7-1.5-8.3-4.6-10.9c-3-2.5-7.5-3.8-13.3-3.8h-15.8v29.2h15.8C477.4,557.5,481.8,556.3,484.8,553.8z"/>
	<path fill="#00004C" d="M579.3,538.2c4.9,4.8,7.4,11.9,7.4,21.4v37H568v-34.1c0-5.1-1.1-8.9-3.4-11.5c-2.2-2.5-5.5-3.8-9.7-3.8
		c-4.7,0-8.5,1.5-11.3,4.4c-2.8,2.9-4.2,7.3-4.2,13v31.9h-18.7v-89h18.7v31.2c2.5-2.5,5.5-4.4,9-5.7c3.5-1.3,7.4-2,11.5-2
		C568,531,574.4,533.4,579.3,538.2z"/>
	<g>
		<path fill="#00004C" d="M608.6,621.3c-3.4,0-6.8-0.5-10.1-1.6c-3.3-1.1-6.1-2.5-8.2-4.4l-0.3-0.3l7.3-14.2l0.5,0.4
			c1.4,1.2,3,2.2,4.8,2.9c1.8,0.7,3.6,1,5.4,1c2.4,0,4.4-0.6,5.9-1.8c1.5-1.2,2.9-3.2,4.2-6l0.2-0.4L590,531.5h20.4l17.8,43l17.9-43
			h19.1l-29.5,69.2c-3,7.5-6.7,12.8-11.2,15.9C620.2,619.7,614.8,621.3,608.6,621.3z"/>
		<path fill="#FFFFFF" d="M664.5,532l-29.2,68.5c-3,7.4-6.6,12.7-11,15.7c-4.4,3-9.6,4.6-15.8,4.6c-3.4,0-6.7-0.5-10-1.6
			c-3.3-1-6-2.5-8-4.3l6.8-13.3c1.4,1.3,3.1,2.3,5,3c1.9,0.7,3.7,1.1,5.6,1.1c2.6,0,4.6-0.6,6.2-1.9c1.6-1.2,3-3.3,4.3-6.2l0.2-0.6
			l-28-65h19.3l18.1,43.8l18.2-43.8H664.5 M666,531h-1.5h-18h-0.7l-0.3,0.6l-17.3,41.6L611,531.6l-0.3-0.6h-0.7h-19.3h-1.5l0.6,1.4
			l27.8,64.7l-0.1,0.2c-1.2,2.7-2.5,4.6-4,5.8c-1.4,1.1-3.3,1.7-5.6,1.7c-1.7,0-3.5-0.3-5.2-1c-1.8-0.7-3.3-1.6-4.7-2.8l-1-0.9
			l-0.6,1.1l-6.8,13.3l-0.4,0.7l0.6,0.5c2.2,1.9,5,3.4,8.4,4.5c3.4,1.1,6.8,1.6,10.3,1.6c6.3,0,11.8-1.6,16.4-4.7
			c4.5-3.1,8.3-8.6,11.3-16.2l29.2-68.5L666,531L666,531z"/>
	</g>
	<path fill="#00004C" d="M675.2,595.5c-5.1-1.3-9.2-3-12.2-5l6.2-13.4c2.9,1.8,6.4,3.3,10.4,4.5c4.1,1.2,8.1,1.7,12,1.7
		c7.9,0,11.9-2,11.9-5.9c0-1.8-1.1-3.2-3.2-4c-2.2-0.8-5.5-1.5-10-2c-5.3-0.8-9.6-1.7-13.1-2.8c-3.4-1-6.4-2.9-8.9-5.5
		c-2.5-2.6-3.8-6.4-3.8-11.3c0-4.1,1.2-7.7,3.5-10.9c2.4-3.2,5.8-5.6,10.3-7.4c4.5-1.8,9.9-2.6,16-2.6c4.6,0,9.1,0.5,13.6,1.5
		c4.5,1,8.3,2.4,11.2,4.1L713,550c-5.7-3.2-11.9-4.8-18.6-4.8c-4,0-7,0.6-9,1.7c-2,1.1-3,2.6-3,4.3c0,2,1.1,3.4,3.2,4.2
		c2.2,0.8,5.6,1.6,10.3,2.3c5.3,0.9,9.6,1.8,13,2.8c3.4,1,6.3,2.8,8.8,5.5c2.5,2.6,3.7,6.3,3.7,11c0,4-1.2,7.6-3.6,10.7
		c-2.4,3.1-5.9,5.5-10.5,7.3c-4.6,1.7-10.1,2.6-16.4,2.6C685.5,597.5,680.3,596.8,675.2,595.5z"/>
	<path fill="#00004C" d="M731.8,520c-2.2-2-3.2-4.5-3.2-7.4c0-3,1.1-5.4,3.2-7.4c2.2-2,5-3,8.4-3c3.4,0,6.2,1,8.4,2.9
		c2.2,1.9,3.2,4.3,3.2,7.2c0,3.1-1.1,5.7-3.2,7.7c-2.2,2-5,3.1-8.4,3.1C736.8,523,734,522,731.8,520z M730.8,532h18.7v64.6h-18.7
		V532z"/>
	<path fill="#00004C" d="M777.6,593.2c-5.5-2.8-9.8-6.8-12.8-11.8c-3.1-5-4.6-10.8-4.6-17.2c0-6.4,1.5-12.1,4.6-17.2
		c3.1-5,7.4-9,12.8-11.8c5.5-2.8,11.7-4.3,18.5-4.3c6.8,0,12.7,1.4,17.8,4.3c5.1,2.8,8.8,6.9,11.1,12.2l-14.5,7.8
		c-3.4-5.9-8.2-8.9-14.5-8.9c-4.9,0-8.9,1.6-12.1,4.8c-3.2,3.2-4.8,7.6-4.8,13.1s1.6,9.9,4.8,13.1c3.2,3.2,7.2,4.8,12.1,4.8
		c6.4,0,11.2-3,14.5-8.9l14.5,7.9c-2.3,5.1-6,9.1-11.1,12c-5.1,2.9-11,4.3-17.8,4.3C789.2,597.5,783,596.1,777.6,593.2z"/>
	<path fill="#00004C" d="M840.6,595.5c-5.1-1.3-9.2-3-12.2-5l6.2-13.4c2.9,1.8,6.4,3.3,10.4,4.5c4.1,1.2,8.1,1.7,12,1.7
		c7.9,0,11.9-2,11.9-5.9c0-1.8-1.1-3.2-3.2-4c-2.2-0.8-5.5-1.5-10-2c-5.3-0.8-9.6-1.7-13.1-2.8c-3.4-1-6.4-2.9-8.9-5.5
		c-2.5-2.6-3.8-6.4-3.8-11.3c0-4.1,1.2-7.7,3.5-10.9c2.4-3.2,5.8-5.6,10.3-7.4c4.5-1.8,9.9-2.6,16-2.6c4.6,0,9.1,0.5,13.6,1.5
		c4.5,1,8.3,2.4,11.2,4.1l-6.2,13.3c-5.7-3.2-11.9-4.8-18.6-4.8c-4,0-7,0.6-9,1.7c-2,1.1-3,2.6-3,4.3c0,2,1.1,3.4,3.2,4.2
		c2.2,0.8,5.6,1.6,10.3,2.3c5.3,0.9,9.6,1.8,13,2.8c3.4,1,6.3,2.8,8.8,5.5c2.5,2.6,3.7,6.3,3.7,11c0,4-1.2,7.6-3.6,10.7
		c-2.4,3.1-5.9,5.5-10.5,7.3c-4.6,1.7-10.1,2.6-16.4,2.6C851,597.5,845.7,596.8,840.6,595.5z"/>
</g>
<text transform="matrix(1 0 0 1 892.563 514.5156)" fill="#00004C" font-family="'AvenirNext-Regular'" font-size="15">TM</text>
</svg>
