<?xml version="1.0" encoding="utf-8"?>
<!-- Generator: Adobe Illustrator 18.0.0, SVG Export Plug-In . SVG Version: 6.00 Build 0)  -->
<!DOCTYPE svg PUBLIC "-//W3C//DTD SVG 1.1//EN" "http://www.w3.org/Graphics/SVG/1.1/DTD/svg11.dtd">
<svg version="1.1" id="Layer_1" xmlns="http://www.w3.org/2000/svg" xmlns:xlink="http://www.w3.org/1999/xlink" x="0px" y="0px"
	 viewBox="0 0 492.4 203.7" enable-background="new 0 0 492.4 203.7" xml:space="preserve">
<g>
	<g>
		<g>
			<path fill="#00004C" d="M66.4,161.5h-39l-7.4,18H0l37.4-84h19.2l37.6,84H73.8L66.4,161.5z M60.2,146.7l-13.3-32.2l-13.3,32.2
				H60.2z"/>
		</g>
		<g>
			<path fill="#00004C" d="M242.6,114.9l-29.2,68.5c-3,7.4-6.6,12.7-11,15.7c-4.4,3-9.6,4.6-15.8,4.6c-3.4,0-6.7-0.5-10-1.6
				c-3.3-1-6-2.5-8-4.3l6.8-13.3c1.4,1.3,3.1,2.3,5,3c1.9,0.7,3.7,1.1,5.6,1.1c2.6,0,4.6-0.6,6.2-1.9c1.6-1.2,3-3.3,4.3-6.2l0.2-0.6
				l-28-65h19.3l18.1,43.8l18.2-43.8H242.6z"/>
		</g>
		<g>
			<path fill="#00004C" d="M253.3,178.5c-5.1-1.3-9.2-3-12.2-5l6.2-13.4c2.9,1.8,6.4,3.3,10.4,4.5c4.1,1.2,8.1,1.7,12,1.7
				c7.9,0,11.9-2,11.9-5.9c0-1.8-1.1-3.2-3.2-4c-2.2-0.8-5.5-1.5-10-2c-5.3-0.8-9.6-1.7-13.1-2.8c-3.4-1-6.4-2.9-8.9-5.5
				c-2.5-2.6-3.8-6.4-3.8-11.3c0-4.1,1.2-7.7,3.5-10.9c2.4-3.2,5.8-5.6,10.3-7.4c4.5-1.8,9.9-2.6,16-2.6c4.6,0,9.1,0.5,13.6,1.5
				c4.5,1,8.3,2.4,11.2,4.1l-6.2,13.3c-5.7-3.2-11.9-4.8-18.6-4.8c-4,0-7,0.6-9,1.7c-2,1.1-3,2.6-3,4.3c0,2,1.1,3.4,3.2,4.2
				c2.2,0.8,5.6,1.6,10.3,2.3c5.3,0.9,9.6,1.8,13,2.8c3.4,1,6.3,2.8,8.8,5.5c2.5,2.6,3.7,6.3,3.7,11c0,4-1.2,7.6-3.6,10.7
				c-2.4,3.1-5.9,5.5-10.5,7.3c-4.6,1.7-10.1,2.6-16.4,2.6C263.7,180.5,258.4,179.8,253.3,178.5z"/>
		</g>
		<g>
			<path fill="#00004C" d="M315,178.5c-5.1-1.3-9.2-3-12.2-5l6.2-13.4c2.9,1.8,6.4,3.3,10.4,4.5c4.1,1.2,8.1,1.7,12,1.7
				c7.9,0,11.9-2,11.9-5.9c0-1.8-1.1-3.2-3.2-4c-2.2-0.8-5.5-1.5-10-2c-5.3-0.8-9.6-1.7-13.1-2.8c-3.4-1-6.4-2.9-8.9-5.5
				c-2.5-2.6-3.8-6.4-3.8-11.3c0-4.1,1.2-7.7,3.5-10.9c2.4-3.2,5.8-5.6,10.3-7.4c4.5-1.8,9.9-2.6,16-2.6c4.6,0,9.1,0.5,13.6,1.5
				c4.5,1,8.3,2.4,11.2,4.1l-6.2,13.3c-5.7-3.2-11.9-4.8-18.6-4.8c-4,0-7,0.6-9,1.7c-2,1.1-3,2.6-3,4.3c0,2,1.1,3.4,3.2,4.2
				c2.2,0.8,5.6,1.6,10.3,2.3c5.3,0.9,9.6,1.8,13,2.8c3.4,1,6.3,2.8,8.8,5.5c2.5,2.6,3.7,6.3,3.7,11c0,4-1.2,7.6-3.6,10.7
				c-2.4,3.1-5.9,5.5-10.5,7.3c-4.6,1.7-10.1,2.6-16.4,2.6C325.4,180.5,320.1,179.8,315,178.5z"/>
		</g>
	</g>
</g>
<g>
	<path fill="#00004C" d="M70.9,15.8c5.5,2.5,9.7,6,12.7,10.6c3,4.6,4.4,10,4.4,16.2c0,6.2-1.5,11.5-4.4,16.1
		c-3,4.6-7.2,8.1-12.7,10.6c-5.5,2.4-11.9,3.7-19.4,3.7H34.6v23.2H15.1v-84h36.4C58.9,12.1,65.4,13.3,70.9,15.8z M63.7,53.3
		c3-2.5,4.6-6.1,4.6-10.7c0-4.7-1.5-8.3-4.6-10.9c-3-2.5-7.5-3.8-13.3-3.8H34.6v29.2h15.8C56.2,57.1,60.7,55.8,63.7,53.3z"/>
	<g>
		<path fill="#00004C" d="M158.2,37.7c4.9,4.8,7.4,11.9,7.4,21.4v37h-18.7V62c0-5.1-1.1-8.9-3.4-11.5c-2.2-2.5-5.5-3.8-9.7-3.8
			c-4.7,0-8.5,1.5-11.3,4.4c-2.8,2.9-4.2,7.3-4.2,13v31.9H99.6V7h18.7v31.2c2.5-2.5,5.5-4.4,9-5.7c3.5-1.3,7.4-2,11.5-2
			C146.8,30.5,153.3,32.9,158.2,37.7z"/>
	</g>
	<g>
		<path fill="#00004C" d="M187.4,121.3c-3.4,0-6.9-0.5-10.3-1.6c-3.4-1.1-6.2-2.6-8.4-4.5l-0.6-0.5l7.8-15.2l1,0.9
			c1.3,1.2,2.9,2.1,4.7,2.8c1.8,0.7,3.5,1,5.2,1c2.3,0,4.2-0.6,5.6-1.7c1.5-1.1,2.8-3.1,4-5.8l0.1-0.2l-28.4-66.1h21.5l17.5,42.2
			l17.6-42.2h20.2l-29.8,69.9c-3,7.6-6.8,13-11.3,16.1C199.3,119.7,193.8,121.3,187.4,121.3z"/>
		<path fill="#FFFFFF" d="M243.4,31.5L214.2,100c-3,7.4-6.6,12.7-11,15.7c-4.4,3-9.6,4.6-15.8,4.6c-3.4,0-6.7-0.5-10-1.6
			c-3.3-1-6-2.5-8-4.3l6.8-13.3c1.4,1.3,3.1,2.3,5,3c1.9,0.7,3.7,1.1,5.6,1.1c2.6,0,4.6-0.6,6.2-1.9c1.6-1.2,3-3.3,4.3-6.2l0.2-0.6
			l-28-65H189l18.1,43.8l18.2-43.8H243.4 M246.4,29.5h-3h-18H224l-0.5,1.2l-16.4,39.4l-16.3-39.3l-0.5-1.2H189h-19.3h-3l1.2,2.8
			l27.6,64.3c-1.1,2.4-2.3,4.2-3.6,5.2c-1.3,1-2.9,1.4-5,1.4c-1.6,0-3.2-0.3-4.9-0.9c-1.6-0.6-3.1-1.5-4.4-2.6l-1.9-1.7l-1.2,2.3
			l-6.8,13.3l-0.7,1.4l1.2,1c2.3,2,5.2,3.6,8.8,4.7c3.5,1.1,7,1.7,10.6,1.7c6.5,0,12.2-1.7,16.9-4.9c4.7-3.3,8.6-8.8,11.7-16.6
			l29.1-68.5L246.4,29.5L246.4,29.5z"/>
	</g>
	<path fill="#00004C" d="M254,95c-5.1-1.3-9.2-3-12.2-5l6.2-13.4c2.9,1.8,6.4,3.3,10.4,4.5c4.1,1.2,8.1,1.7,12,1.7
		c7.9,0,11.9-2,11.9-5.9c0-1.8-1.1-3.2-3.2-4c-2.2-0.8-5.5-1.5-10-2c-5.3-0.8-9.6-1.7-13.1-2.8c-3.4-1-6.4-2.9-8.9-5.5
		c-2.5-2.6-3.8-6.4-3.8-11.3c0-4.1,1.2-7.7,3.5-10.9c2.4-3.2,5.8-5.6,10.3-7.4c4.5-1.8,9.9-2.6,16-2.6c4.6,0,9.1,0.5,13.6,1.5
		c4.5,1,8.3,2.4,11.2,4.1l-6.2,13.3c-5.7-3.2-11.9-4.8-18.6-4.8c-4,0-7,0.6-9,1.7c-2,1.1-3,2.6-3,4.3c0,2,1.1,3.4,3.2,4.2
		c2.2,0.8,5.6,1.6,10.3,2.3c5.3,0.9,9.6,1.8,13,2.8c3.4,1,6.3,2.8,8.8,5.5c2.5,2.6,3.7,6.3,3.7,11c0,4-1.2,7.6-3.6,10.7
		c-2.4,3.1-5.9,5.5-10.5,7.3c-4.6,1.7-10.1,2.6-16.4,2.6C264.4,97,259.1,96.4,254,95z"/>
	<path fill="#00004C" d="M310.7,19.5c-2.2-2-3.2-4.5-3.2-7.4c0-3,1.1-5.4,3.2-7.4c2.2-2,5-3,8.4-3c3.4,0,6.2,1,8.4,2.9
		c2.2,1.9,3.2,4.3,3.2,7.2c0,3.1-1.1,5.7-3.2,7.7c-2.2,2-5,3.1-8.4,3.1C315.6,22.5,312.8,21.5,310.7,19.5z M309.7,31.5h18.7v64.6
		h-18.7V31.5z"/>
	<path fill="#00004C" d="M356.4,92.8c-5.5-2.8-9.8-6.8-12.8-11.8c-3.1-5-4.6-10.8-4.6-17.2c0-6.4,1.5-12.1,4.6-17.2
		c3.1-5,7.4-9,12.8-11.8c5.5-2.8,11.7-4.3,18.5-4.3c6.8,0,12.7,1.4,17.8,4.3c5.1,2.8,8.8,6.9,11.1,12.2l-14.5,7.8
		c-3.4-5.9-8.2-8.9-14.5-8.9c-4.9,0-8.9,1.6-12.1,4.8c-3.2,3.2-4.8,7.6-4.8,13.1s1.6,9.9,4.8,13.1c3.2,3.2,7.2,4.8,12.1,4.8
		c6.4,0,11.2-3,14.5-8.9l14.5,7.9c-2.3,5.1-6,9.1-11.1,12c-5.1,2.9-11,4.3-17.8,4.3C368.1,97,361.9,95.6,356.4,92.8z"/>
	<path fill="#00004C" d="M419.5,95c-5.1-1.3-9.2-3-12.2-5l6.2-13.4c2.9,1.8,6.4,3.3,10.4,4.5c4.1,1.2,8.1,1.7,12,1.7
		c7.9,0,11.9-2,11.9-5.9c0-1.8-1.1-3.2-3.2-4c-2.2-0.8-5.5-1.5-10-2c-5.3-0.8-9.6-1.7-13.1-2.8c-3.4-1-6.4-2.9-8.9-5.5
		c-2.5-2.6-3.8-6.4-3.8-11.3c0-4.1,1.2-7.7,3.5-10.9c2.4-3.2,5.8-5.6,10.3-7.4c4.5-1.8,9.9-2.6,16-2.6c4.6,0,9.1,0.5,13.6,1.5
		c4.5,1,8.3,2.4,11.2,4.1l-6.2,13.3c-5.7-3.2-11.9-4.8-18.6-4.8c-4,0-7,0.6-9,1.7c-2,1.1-3,2.6-3,4.3c0,2,1.1,3.4,3.2,4.2
		c2.2,0.8,5.6,1.6,10.3,2.3c5.3,0.9,9.6,1.8,13,2.8c3.4,1,6.3,2.8,8.8,5.5c2.5,2.6,3.7,6.3,3.7,11c0,4-1.2,7.6-3.6,10.7
		c-2.4,3.1-5.9,5.5-10.5,7.3c-4.6,1.7-10.1,2.6-16.4,2.6C429.9,97,424.6,96.4,419.5,95z"/>
</g>
<g>
	<path fill="#00004C" d="M137.8,181.5c-8.1,0-14.6-2.3-19.3-6.9v5.9H98.6v-91h20.7v29.9c4.7-4.2,10.9-6.4,18.4-6.4
		c6.1,0,11.8,1.4,16.9,4.3c5.1,2.8,9.1,6.9,12,12c2.9,5.1,4.3,11.2,4.3,17.9c0,6.8-1.5,12.8-4.3,17.9c-2.9,5.1-6.9,9.2-12,12
		C149.6,180,143.9,181.5,137.8,181.5z M134.5,130.3c-4.6,0-8.2,1.5-11.1,4.5c-2.9,3-4.3,7.2-4.3,12.3c0,5.2,1.5,9.3,4.3,12.3
		c2.9,3.1,6.5,4.5,11.1,4.5c4.6,0,8.2-1.5,11.1-4.5c2.9-3,4.3-7.2,4.3-12.3c0-5.1-1.5-9.3-4.3-12.3
		C142.7,131.8,139.1,130.3,134.5,130.3z"/>
	<path fill="#FFFFFF" d="M118.3,90.5v31.3c4.7-5.2,11.2-7.8,19.4-7.8c6,0,11.5,1.4,16.4,4.1c4.9,2.8,8.8,6.6,11.6,11.6
		c2.8,5,4.2,10.8,4.2,17.5c0,6.6-1.4,12.5-4.2,17.5c-2.8,5-6.7,8.9-11.6,11.6c-4.9,2.8-10.4,4.1-16.4,4.1c-8.9,0-15.6-2.8-20.3-8.4
		v7.4H99.6v-89H118.3 M134.5,165.1c4.8,0,8.7-1.6,11.8-4.9c3.1-3.2,4.6-7.6,4.6-13c0-5.4-1.5-9.8-4.6-13c-3.1-3.2-7-4.9-11.8-4.9
		c-4.8,0-8.7,1.6-11.8,4.9c-3.1,3.2-4.6,7.6-4.6,13c0,5.4,1.5,9.8,4.6,13C125.8,163.5,129.7,165.1,134.5,165.1 M120.3,88.5h-2H99.6
		h-2v2v89v2h2h17.9h2v-2v-2.7c4.7,3.7,10.8,5.6,18.3,5.6c6.3,0,12.2-1.5,17.4-4.4c5.2-2.9,9.4-7.1,12.3-12.4
		c3-5.3,4.5-11.5,4.5-18.4c0-7-1.5-13.2-4.5-18.4c-3-5.3-7.1-9.5-12.3-12.4c-5.2-2.9-11-4.4-17.4-4.4c-6.9,0-12.8,1.8-17.4,5.3V90.5
		V88.5L120.3,88.5z M134.5,163.1c-4.3,0-7.7-1.4-10.4-4.2c-2.7-2.9-4.1-6.7-4.1-11.6c0-5,1.3-8.8,4.1-11.6c2.7-2.9,6.1-4.2,10.4-4.2
		c4.3,0,7.7,1.4,10.4,4.2c2.7,2.9,4.1,6.7,4.1,11.6c0,5-1.3,8.8-4.1,11.6C142.2,161.7,138.8,163.1,134.5,163.1L134.5,163.1z"/>
</g>
<g>
	<path fill="#00004C" d="M475.2,1h-3.7V0h8.5v1h-3.7v9.5h-1.1V1z"/>
	<path fill="#00004C" d="M492.4,0v10.5h-1.1V2.1l-4.1,7.1h-0.5l-4.1-7v8.4h-1.1V0h0.9l4.6,7.8l4.5-7.8H492.4z"/>
</g>
<g>
	<line fill="none" stroke="#FFFFFF" stroke-miterlimit="10" x1="36.9" y1="95.5" x2="57.2" y2="95.5"/>
</g>
<circle fill="#00004C" cx="319.1" cy="11.9" r="11.9"/>
<g>
	<rect x="309.2" y="31.4" fill="#FFFFFF" width="19.7" height="5.2"/>
</g>
</svg>
