<?xml version="1.0" encoding="utf-8"?>
<!-- Generator: Adobe Illustrator 18.0.0, SVG Export Plug-In . SVG Version: 6.00 Build 0)  -->
<!DOCTYPE svg PUBLIC "-//W3C//DTD SVG 1.1//EN" "http://www.w3.org/Graphics/SVG/1.1/DTD/svg11.dtd">
<svg version="1.1" id="Layer_1" xmlns="http://www.w3.org/2000/svg" xmlns:xlink="http://www.w3.org/1999/xlink" x="0px" y="0px"
	 viewBox="0 0 278.6 238.8" enable-background="new 0 0 278.6 238.8" xml:space="preserve">
<g>
	<g display="none">
		<path display="inline" fill="#A6A8AB" d="M231.4,231.4V7.4 M278.6,0h-7.4h-39.8h-7.6v7.4v224.1v7.4h7.4H271h7.4v-7.4V7.4V0H278.6z
			"/>
	</g>
	<g>
		<path fill="#46B0E4" d="M271.1,111.4c-13.9,0-20.5-12.1-25.8-21.8c-5.5-10-8.7-14.8-14-14.8h-3V61.3h3c13.9,0,20.5,12.1,25.8,21.8
			c5.5,10,8.7,14.8,14,14.8h3v13.5H271.1z"/>
		<path fill="#FFFFFF" d="M231.3,64.3c12.1,0,18,10.8,23.2,20.2c5.6,10.2,9.5,16.3,16.6,16.3v7.5c-12.1,0-18-10.8-23.2-20.2
			c-5.6-10.2-9.5-16.3-16.6-16.3V64.3 M231.3,58.3h-6v6v7.5v6h6c3.2,0,5.7,2.8,11.3,13.2c5.4,9.9,12.8,23.4,28.5,23.4h6v-6v-7.5v-6
			h-6c-3.2,0-5.7-2.8-11.3-13.2C254.4,71.8,247,58.3,231.3,58.3L231.3,58.3z"/>
	</g>
	<g>
		<rect x="3.7" y="3.9" fill="#00E1FF" width="231.4" height="231.4"/>
		<path fill="#FFFFFF" d="M231.4,7.6v224.1H7.4V7.6H231.4 M238.8,0h-7.4H7.4H0v7.4v224.1v7.4h7.4h224.1h7.4v-7.4V7.4V0L238.8,0z"/>
	</g>
	<g>
		<path fill="#00E1FF" d="M254.5,84.6c-5.2-9.5-11.1-20.2-23.2-20.2v7.5c7.2,0,11,6.2,16.6,16.3c5.2,9.5,11.1,20.2,23.2,20.2v-7.5
			C264,100.9,260.1,94.7,254.5,84.6z"/>
	</g>
	<path fill="#FFFFFF" d="M231.4,71.8c-7.1,0-11,6.2-16.6,16.3c-5.1,9.4-11,20.2-23.2,20.2c-12.2,0-18.2-10.8-23.2-20.2
		c-5.5-10.1-9.4-16.3-16.6-16.3c-7.1,0-11,6.2-16.6,16.3c-5.1,9.4-11,20.2-23.2,20.2S93.9,97.5,88.8,88.1
		C83.3,78,79.4,71.8,72.2,71.8v-7.4c12.2,0,18.2,10.8,23.2,20.2C101,94.8,104.9,101,112,101s11-6.2,16.6-16.3
		c5.1-9.4,11-20.2,23.2-20.2c12.2,0,18.2,10.8,23.2,20.2c5.5,10.1,9.4,16.3,16.6,16.3c7.1,0,11-6.2,16.6-16.3
		c5.1-9.4,11-20.2,23.2-20.2"/>
	<g display="none">
		<path display="inline" fill="none" stroke="#46B0E4" stroke-width="3.4" stroke-miterlimit="10" d="M71.3,118
			c20,0,20,36.6,39.8,36.6c20,0,20-36.6,39.8-36.6c20,0,20,36.6,39.8,36.6c20,0,20-36.6,39.8-36.6s20,36.6,39.8,36.6"/>
	</g>
	<path display="none" fill="#FFFFFF" d="M231.2,121.9c-7.1,0-11,6.2-16.6,16.3c-5.1,9.4-11,20.2-23.2,20.2
		c-12.2,0-18.2-10.8-23.2-20.2c-5.5-10.1-9.4-16.3-16.6-16.3c-7.1,0-11,6.2-16.6,16.3c-5.1,9.4-11,20.2-23.2,20.2
		s-18.2-10.8-23.2-20.2c-5.5-10.1-9.4-16.3-16.6-16.3v-7.4c12.2,0,18.2,10.8,23.2,20.2c5.5,10.1,9.4,16.3,16.6,16.3
		s11-6.2,16.6-16.3c5.1-9.4,11-20.2,23.2-20.2c12.2,0,18.2,10.8,23.2,20.2c5.5,10.1,9.4,16.3,16.6,16.3c7.1,0,11-6.2,16.6-16.3
		c5.1-9.4,11-20.2,23.2-20.2"/>
	<g display="none">
		<path display="inline" fill="none" stroke="#46B0E4" stroke-width="3.4" stroke-miterlimit="10" d="M71.5,168.6
			c20,0,20,36.6,39.8,36.6c20,0,20-36.6,39.8-36.6c20,0,20,36.6,39.8,36.6c20,0,20-36.6,39.8-36.6s20,36.6,39.8,36.6"/>
	</g>
	<path display="none" fill="#FFFFFF" d="M231.4,172.5c-7.1,0-11,6.2-16.6,16.3c-5.1,9.4-11,20.2-23.2,20.2
		c-12.2,0-18.2-10.8-23.2-20.2c-5.5-10.1-9.4-16.3-16.6-16.3c-7.1,0-11,6.2-16.6,16.3c-5.1,9.4-11,20.2-23.2,20.2
		s-18.2-10.8-23.2-20.2c-5.5-10.1-9.4-16.3-16.6-16.3v-7.4c12.2,0,18.2,10.8,23.2,20.2c5.5,10.1,9.4,16.3,16.6,16.3
		s11-6.2,16.6-16.3c5.1-9.4,11-20.2,23.2-20.2c12.2,0,18.2,10.8,23.2,20.2c5.5,10.1,9.4,16.3,16.6,16.3c7.1,0,11-6.2,16.6-16.3
		c5.1-9.4,11-20.2,23.2-20.2"/>
	<g>
		<g>
			<path fill="#46B0E4" d="M231.3,114.5c12.1,0,18,10.8,23.2,20.2c5.6,10.2,9.5,16.3,16.6,16.3v7.5c-12.1,0-18-10.8-23.2-20.2
				c-5.6-10.2-9.5-16.3-16.6-16.3"/>
		</g>
		<g>
			<path fill="none" stroke="#FFFFFF" stroke-width="12" d="M231.3,114.5c12.1,0,18,10.8,23.2,20.2c5.6,10.2,9.5,16.3,16.6,16.3v7.5
				c-12.1,0-18-10.8-23.2-20.2c-5.6-10.2-9.5-16.3-16.6-16.3"/>
		</g>
	</g>
	<path fill="#FFFFFF" d="M231.4,121.9c-7.1,0-11,6.2-16.6,16.3c-5.1,9.4-11,20.2-23.2,20.2c-12.2,0-18.2-10.8-23.2-20.2
		c-5.5-10.1-9.4-16.3-16.6-16.3c-7.1,0-11,6.2-16.6,16.3c-5.1,9.4-11,20.2-23.2,20.2s-18.2-10.8-23.2-20.2
		c-5.5-10.1-9.4-16.3-16.6-16.3v-7.4c12.2,0,18.2,10.8,23.2,20.2c5.5,10.1,9.4,16.3,16.6,16.3s11-6.2,16.6-16.3
		c5.1-9.4,11-20.2,23.2-20.2c12.2,0,18.2,10.8,23.2,20.2c5.5,10.1,9.4,16.3,16.6,16.3c7.1,0,11-6.2,16.6-16.3
		c5.1-9.4,11-20.2,23.2-20.2"/>
	<g>
		<g>
			<path fill="#46B0E4" d="M231.4,165.2c12.1,0,18,10.8,23.2,20.2c5.6,10.2,9.5,16.3,16.6,16.3v7.5c-12.1,0-18-10.8-23.2-20.2
				c-5.6-10.2-9.5-16.3-16.6-16.3"/>
		</g>
		<g>
			<path fill="none" stroke="#FFFFFF" stroke-width="12" d="M231.4,165.2c12.1,0,18,10.8,23.2,20.2c5.6,10.2,9.5,16.3,16.6,16.3v7.5
				c-12.1,0-18-10.8-23.2-20.2c-5.6-10.2-9.5-16.3-16.6-16.3"/>
		</g>
	</g>
	<path fill="#FFFFFF" d="M231.4,172.5c-7.1,0-11,6.2-16.6,16.3c-5.1,9.4-11,20.2-23.2,20.2c-12.2,0-18.2-10.8-23.2-20.2
		c-5.5-10.1-9.4-16.3-16.6-16.3c-7.1,0-11,6.2-16.6,16.3c-5.1,9.4-11,20.2-23.2,20.2s-18.2-10.8-23.2-20.2
		c-5.5-10.1-9.4-16.3-16.6-16.3v-7.4c12.2,0,18.2,10.8,23.2,20.2c5.5,10.1,9.4,16.3,16.6,16.3s11-6.2,16.6-16.3
		c5.1-9.4,11-20.2,23.2-20.2c12.2,0,18.2,10.8,23.2,20.2c5.5,10.1,9.4,16.3,16.6,16.3c7.1,0,11-6.2,16.6-16.3
		c5.1-9.4,11-20.2,23.2-20.2"/>
	<g>
		<g>
			<path fill="#46B0E4" d="M231.3,114.5c12.1,0,18,10.8,23.2,20.2c5.6,10.2,9.5,16.3,16.6,16.3v7.5c-12.1,0-18-10.8-23.2-20.2
				c-5.6-10.2-9.5-16.3-16.6-16.3"/>
		</g>
		<g>
			<path fill="none" stroke="#FFFFFF" stroke-width="12" d="M231.3,114.5c12.1,0,18,10.8,23.2,20.2c5.6,10.2,9.5,16.3,16.6,16.3v7.5
				c-12.1,0-18-10.8-23.2-20.2c-5.6-10.2-9.5-16.3-16.6-16.3"/>
		</g>
	</g>
	<g>
		<g>
			<path fill="#00E1FF" d="M231.4,114.6c12.1,0,18,10.8,23.2,20.2c5.6,10.2,9.5,16.3,16.6,16.3v7.5c-12.1,0-18-10.8-23.2-20.2
				c-5.6-10.2-9.5-16.3-16.6-16.3"/>
		</g>
	</g>
	<g>
		<g>
			<path fill="#00E1FF" d="M231.4,165.1c12.1,0,18,10.8,23.2,20.2c5.6,10.2,9.5,16.3,16.6,16.3v7.5c-12.1,0-18-10.8-23.2-20.2
				c-5.6-10.2-9.5-16.3-16.6-16.3"/>
		</g>
	</g>
</g>
</svg>
