<?xml version="1.0" encoding="utf-8"?>
<!-- Generator: Adobe Illustrator 18.0.0, SVG Export Plug-In . SVG Version: 6.00 Build 0)  -->
<!DOCTYPE svg PUBLIC "-//W3C//DTD SVG 1.1//EN" "http://www.w3.org/Graphics/SVG/1.1/DTD/svg11.dtd">
<svg version="1.1" id="Layer_1" xmlns="http://www.w3.org/2000/svg" xmlns:xlink="http://www.w3.org/1999/xlink" x="0px" y="0px"
	 viewBox="0 0 278.6 238.8" enable-background="new 0 0 278.6 238.8" xml:space="preserve">
<g>
	<g display="none">
		<path display="inline" fill="#FFFFFF" d="M231.4,231.4V7.4 M278.6,0h-7.4h-39.8h-7.6v7.4v224.1v7.4h7.4H271h7.4v-7.4V7.4V0H278.6z
			"/>
	</g>
	<g display="none">
		<rect x="3.7" y="3.9" display="inline" fill="#47B1E5" width="231.4" height="231.4"/>
		<path display="inline" fill="#FFFFFF" d="M231.4,7.6v224.1H7.4V7.6H231.4 M238.8,0h-7.4H7.4H0v7.4v224.1v7.4h7.4h224.1h7.4v-7.4
			V7.4V0L238.8,0z"/>
	</g>
	<g>
		<path fill="#47B1E5" stroke="#FFFFFF" stroke-miterlimit="10" d="M231.3,64.3c12.1,0,18,10.8,23.2,20.2
			c5.6,10.2,9.5,16.3,16.6,16.3v7.5c-12.1,0-18-10.8-23.2-20.2c-5.6-10.2-9.5-16.3-16.6-16.3"/>
	</g>
	<path display="none" fill="#FFFFFF" d="M231.4,71.8c-7.1,0-11,6.2-16.6,16.3c-5.1,9.4-11,20.2-23.2,20.2
		c-12.2,0-18.2-10.8-23.2-20.2c-5.5-10.1-9.4-16.3-16.6-16.3c-7.1,0-11,6.2-16.6,16.3c-5.1,9.4-11,20.2-23.2,20.2
		S93.9,97.5,88.8,88.1C83.3,78,79.4,71.8,72.2,71.8v-7.4c12.2,0,18.2,10.8,23.2,20.2C101,94.8,104.9,101,112,101s11-6.2,16.6-16.3
		c5.1-9.4,11-20.2,23.2-20.2c12.2,0,18.2,10.8,23.2,20.2c5.5,10.1,9.4,16.3,16.6,16.3c7.1,0,11-6.2,16.6-16.3
		c5.1-9.4,11-20.2,23.2-20.2"/>
	<g display="none">
		<path display="inline" fill="none" stroke="#47B1E5" stroke-width="3.4" stroke-miterlimit="10" d="M71.3,118
			c20,0,20,36.6,39.8,36.6c20,0,20-36.6,39.8-36.6c20,0,20,36.6,39.8,36.6c20,0,20-36.6,39.8-36.6s20,36.6,39.8,36.6"/>
	</g>
	<path display="none" fill="#FFFFFF" d="M231.2,121.9c-7.1,0-11,6.2-16.6,16.3c-5.1,9.4-11,20.2-23.2,20.2
		c-12.2,0-18.2-10.8-23.2-20.2c-5.5-10.1-9.4-16.3-16.6-16.3c-7.1,0-11,6.2-16.6,16.3c-5.1,9.4-11,20.2-23.2,20.2
		s-18.2-10.8-23.2-20.2c-5.5-10.1-9.4-16.3-16.6-16.3v-7.4c12.2,0,18.2,10.8,23.2,20.2c5.5,10.1,9.4,16.3,16.6,16.3
		s11-6.2,16.6-16.3c5.1-9.4,11-20.2,23.2-20.2c12.2,0,18.2,10.8,23.2,20.2c5.5,10.1,9.4,16.3,16.6,16.3c7.1,0,11-6.2,16.6-16.3
		c5.1-9.4,11-20.2,23.2-20.2"/>
	<g display="none">
		<path display="inline" fill="none" stroke="#47B1E5" stroke-width="3.4" stroke-miterlimit="10" d="M71.5,168.6
			c20,0,20,36.6,39.8,36.6c20,0,20-36.6,39.8-36.6c20,0,20,36.6,39.8,36.6c20,0,20-36.6,39.8-36.6s20,36.6,39.8,36.6"/>
	</g>
	<path display="none" fill="#FFFFFF" d="M231.4,172.5c-7.1,0-11,6.2-16.6,16.3c-5.1,9.4-11,20.2-23.2,20.2
		c-12.2,0-18.2-10.8-23.2-20.2c-5.5-10.1-9.4-16.3-16.6-16.3c-7.1,0-11,6.2-16.6,16.3c-5.1,9.4-11,20.2-23.2,20.2
		s-18.2-10.8-23.2-20.2c-5.5-10.1-9.4-16.3-16.6-16.3v-7.4c12.2,0,18.2,10.8,23.2,20.2c5.5,10.1,9.4,16.3,16.6,16.3
		s11-6.2,16.6-16.3c5.1-9.4,11-20.2,23.2-20.2c12.2,0,18.2,10.8,23.2,20.2c5.5,10.1,9.4,16.3,16.6,16.3c7.1,0,11-6.2,16.6-16.3
		c5.1-9.4,11-20.2,23.2-20.2"/>
	<g>
		<path fill="#47B1E5" d="M231.3,114.5c12.1,0,18,10.8,23.2,20.2c5.6,10.2,9.5,16.3,16.6,16.3v7.5c-12.1,0-18-10.8-23.2-20.2
			c-5.6-10.2-9.5-16.3-16.6-16.3"/>
	</g>
	<path display="none" fill="#FFFFFF" d="M231.4,121.9c-7.1,0-11,6.2-16.6,16.3c-5.1,9.4-11,20.2-23.2,20.2
		c-12.2,0-18.2-10.8-23.2-20.2c-5.5-10.1-9.4-16.3-16.6-16.3c-7.1,0-11,6.2-16.6,16.3c-5.1,9.4-11,20.2-23.2,20.2
		s-18.2-10.8-23.2-20.2c-5.5-10.1-9.4-16.3-16.6-16.3v-7.4c12.2,0,18.2,10.8,23.2,20.2c5.5,10.1,9.4,16.3,16.6,16.3
		s11-6.2,16.6-16.3c5.1-9.4,11-20.2,23.2-20.2c12.2,0,18.2,10.8,23.2,20.2c5.5,10.1,9.4,16.3,16.6,16.3c7.1,0,11-6.2,16.6-16.3
		c5.1-9.4,11-20.2,23.2-20.2"/>
	<g>
		<path fill="#47B1E5" d="M231.3,165.1c12.1,0,18,10.8,23.2,20.2c5.6,10.2,9.5,16.3,16.6,16.3v7.5c-12.1,0-18-10.8-23.2-20.2
			c-5.6-10.2-9.5-16.3-16.6-16.3"/>
	</g>
	<path display="none" fill="#FFFFFF" d="M231.4,172.5c-7.1,0-11,6.2-16.6,16.3c-5.1,9.4-11,20.2-23.2,20.2
		c-12.2,0-18.2-10.8-23.2-20.2c-5.5-10.1-9.4-16.3-16.6-16.3c-7.1,0-11,6.2-16.6,16.3c-5.1,9.4-11,20.2-23.2,20.2
		s-18.2-10.8-23.2-20.2c-5.5-10.1-9.4-16.3-16.6-16.3v-7.4c12.2,0,18.2,10.8,23.2,20.2c5.5,10.1,9.4,16.3,16.6,16.3
		s11-6.2,16.6-16.3c5.1-9.4,11-20.2,23.2-20.2c12.2,0,18.2,10.8,23.2,20.2c5.5,10.1,9.4,16.3,16.6,16.3c7.1,0,11-6.2,16.6-16.3
		c5.1-9.4,11-20.2,23.2-20.2"/>
</g>
</svg>
