<?xml version="1.0" encoding="utf-8"?>
<!-- Generator: Adobe Illustrator 18.0.0, SVG Export Plug-In . SVG Version: 6.00 Build 0)  -->
<!DOCTYPE svg PUBLIC "-//W3C//DTD SVG 1.1//EN" "http://www.w3.org/Graphics/SVG/1.1/DTD/svg11.dtd">
<svg version="1.1" id="Layer_1" xmlns="http://www.w3.org/2000/svg" xmlns:xlink="http://www.w3.org/1999/xlink" x="0px" y="0px"
	 viewBox="0 0 369.6 493.2" enable-background="new 0 0 369.6 493.2" xml:space="preserve">
<rect x="10" y="10" fill="#FFFFFF" stroke="#000000" stroke-width="20" stroke-miterlimit="10" width="349.6" height="473.2"/>
<rect x="60.3" y="62.3" fill="#FFFFFF" stroke="#000000" stroke-width="20" stroke-miterlimit="10" width="249" height="74.3"/>
<circle fill="#FFFFFF" stroke="#000000" stroke-width="20" stroke-miterlimit="10" cx="89.2" cy="215.6" r="27"/>
<circle fill="#FFFFFF" stroke="#000000" stroke-width="20" stroke-miterlimit="10" cx="184.8" cy="215.6" r="28.5"/>
<circle fill="#FFFFFF" stroke="#000000" stroke-width="20" stroke-miterlimit="10" cx="89.2" cy="310.1" r="27"/>
<circle fill="#FFFFFF" stroke="#000000" stroke-width="20" stroke-miterlimit="10" cx="184.8" cy="310.1" r="28.5"/>
<circle stroke="#000000" stroke-width="20" stroke-miterlimit="10" cx="280.8" cy="215.6" r="28.5"/>
<circle stroke="#000000" stroke-width="20" stroke-miterlimit="10" cx="280.8" cy="310.1" r="28.5"/>
<circle stroke="#000000" stroke-width="20" stroke-miterlimit="10" cx="280.8" cy="402.8" r="28.5"/>
<path fill="#FFFFFF" stroke="#000000" stroke-width="20" stroke-miterlimit="10" d="M91.7,431.3h92.7c15.7,0,28.5-12.8,28.5-28.5v0
	c0-15.7-12.8-28.5-28.5-28.5H91.7c-15.7,0-28.5,12.8-28.5,28.5v0C63.2,418.5,76,431.3,91.7,431.3z"/>
</svg>
