<?xml version="1.0" encoding="utf-8"?>
<!-- Generator: Adobe Illustrator 18.0.0, SVG Export Plug-In . SVG Version: 6.00 Build 0)  -->
<!DOCTYPE svg PUBLIC "-//W3C//DTD SVG 1.1//EN" "http://www.w3.org/Graphics/SVG/1.1/DTD/svg11.dtd">
<svg version="1.1"
	 id="svg2" inkscape:export-xdpi="27.3305" inkscape:export-filename="C:\Documents and Settings\Todd V\My Documents\FAS logos\FASlogoSmall.png" sodipodi:docname="FASlogoFinal.svg" inkscape:version="0.47 r22583" inkscape:export-ydpi="27.3305" xmlns:sodipodi="http://sodipodi.sourceforge.net/DTD/sodipodi-0.dtd" xmlns:dc="http://purl.org/dc/elements/1.1/" xmlns:svg="http://www.w3.org/2000/svg" xmlns:ns1="http://sozi.baierouge.fr" xmlns:rdf="http://www.w3.org/1999/02/22-rdf-syntax-ns#" xmlns:cc="http://creativecommons.org/ns#" xmlns:inkscape="http://www.inkscape.org/namespaces/inkscape"
	 xmlns="http://www.w3.org/2000/svg" xmlns:xlink="http://www.w3.org/1999/xlink" x="0px" y="0px" viewBox="60 30.6 1664.5 1583.3"
	 enable-background="new 60 30.6 1664.5 1583.3" xml:space="preserve">
<title  id="title2885">3D Star</title>
<sodipodi:namedview  inkscape:document-units="px" inkscape:pageopacity="0.0" inkscape:window-width="1280" inkscape:current-layer="layer1" inkscape:window-y="-8" inkscape:window-x="-8" inkscape:pageshadow="2" inkscape:window-maximized="1" inkscape:window-height="962" inkscape:cx="526.18109" inkscape:cy="372.04724" showgrid="false" borderopacity="1.0" id="base" pagecolor="#ffffff" inkscape:zoom="0.72776573" bordercolor="#666666">
	</sodipodi:namedview>
<g id="layer1" transform="translate(0 -308.27)" inkscape:groupmode="layer" inkscape:label="Layer 1">
	<g id="g2881">
		
			<path id="path3656-2" inkscape:rounded="0" inkscape:randomized="0" inkscape:flatsided="false" sodipodi:arg1="-0.31369767" sodipodi:r1="927.19232" sodipodi:type="star" sodipodi:cx="158.33333" sodipodi:cy="309.30664" sodipodi:arg2="0.31462086" sodipodi:r2="352.33307" sodipodi:sides="5" fill="#FEBC2E" d="
			M1724.4,944l-516.1,372.9l197.8,605.3L892,1546.5l-514.5,375.2l198.4-605.1L60.1,943.2l636.7,1.7L892.5,339l195.2,606.1
			L1724.4,944L1724.4,944z"/>
		<path id="path3997" sodipodi:nodetypes="ccccccccccccccccccsc" fill="#00004C" d="M892.6,338.9l-195.8,606l194.7,271L892.6,338.9
			L892.6,338.9z M891.5,1215.9L1724.5,944l-636.8,1.1L891.5,1215.9L891.5,1215.9z M60,943.2l515.9,373.4l315.7-100.8L60,943.2
			L60,943.2z M891,1216l-513.5,705.7L892,1546.5L891,1216L891,1216z M890.8,1215.5l515.3,706.8l-197.8-605.3L890.8,1215.5
			L890.8,1215.5z"/>
	</g>
</g>
</svg>
