<?xml version="1.0" encoding="utf-8"?>
<!-- Generator: Adobe Illustrator 18.0.0, SVG Export Plug-In . SVG Version: 6.00 Build 0)  -->
<!DOCTYPE svg PUBLIC "-//W3C//DTD SVG 1.1//EN" "http://www.w3.org/Graphics/SVG/1.1/DTD/svg11.dtd">
<svg version="1.1" id="Layer_1" xmlns="http://www.w3.org/2000/svg" xmlns:xlink="http://www.w3.org/1999/xlink" x="0px" y="0px"
	 viewBox="-102.2 -704 3420.4 3538.9" enable-background="new -102.2 -704 3420.4 3538.9" xml:space="preserve">
<polygon display="none" fill="#00004C" stroke="#FFFFFF" stroke-width="180" stroke-miterlimit="10" points="2864.4,483.9 
	2664.7,1515.7 3401,2264.4 2359.3,2393.2 1874.4,3325.1 1429.3,2373.3 393.8,2200.6 1161.4,1483.4 1005.2,444.7 1924.8,953.7 "/>
<polygon display="none" fill="#00004C" stroke="#FFFFFF" stroke-width="180" stroke-miterlimit="10" points="2298.8,34.9 
	2456.4,1073.9 3401,1532.6 2462.7,2003.1 2318,3043.6 1579.8,2296 546.3,2480.2 1029.2,1547.2 534,621 1571,792.4 "/>
<polygon display="none" fill="#00004C" stroke="#FFFFFF" stroke-width="180" stroke-miterlimit="10" points="1439.1,3132.4 
	974.1,2190 -65.1,2039.1 686.5,1306.5 509.1,271.1 1439.1,759.8 2368.3,271.1 2190.8,1306.5 2943.4,2039.1 1903.2,2190 "/>
<polygon display="none" fill="#00004C" stroke="#FFFFFF" stroke-width="180" stroke-miterlimit="10" points="2356.1,-65.1 
	2821.2,877.3 3860.4,1028.2 3108.7,1760.9 3286.2,2796.3 2356.1,2307.5 1427,2796.3 1604.5,1760.9 851.9,1028.2 1892.1,877.3 "/>
<polygon fill="#00004C" stroke="#FFFFFF" stroke-width="180" stroke-miterlimit="10" points="1608.1,-214.8 2077,735.4 
	3124.9,887.6 2367,1626.3 2545.9,2670.3 1608.1,2177.5 671.3,2670.3 850.3,1626.3 91.4,887.6 1140.2,735.4 "/>
<polygon fill="#00004C" stroke="#FFFFFF" stroke-width="180" stroke-miterlimit="10" points="1619.1,-500.5 2084.2,441.9 
	3123.4,592.8 2371.7,1325.5 2549.2,2360.9 1619.1,1872.1 690,2360.9 867.5,1325.5 114.9,592.8 1155.1,441.9 "/>
<polygon display="none" fill="#FFFF00" points="1439.2,358.5 1789.7,1068.7 2572.8,1182.4 2006.4,1734.6 2140.1,2514.8 
	1439.2,2146.5 739.1,2514.8 872.8,1734.6 305.7,1182.4 1089.5,1068.7 "/>
<line display="none" fill="none" stroke="#FFFFFF" stroke-width="180" stroke-miterlimit="10" x1="1690" y1="789.6" x2="790.8" y2="2487.6"/>
<line display="none" fill="none" stroke="#FFFFFF" stroke-width="90" stroke-miterlimit="10" x1="2041.5" y1="1105.3" x2="1479" y2="2167.4"/>
<g display="none">
	
		<line display="inline" fill="none" stroke="#00004C" stroke-width="180" stroke-miterlimit="10" x1="1460.5" y1="413.6" x2="1806.7" y2="1115.1"/>
	
		<line display="inline" fill="none" stroke="#00004C" stroke-width="180" stroke-miterlimit="10" x1="1077.3" y1="1115" x2="1460.5" y2="334.3"/>
</g>
<g display="none">
	
		<line display="inline" fill="none" stroke="#00004C" stroke-width="180" stroke-miterlimit="10" x1="2092" y1="2475.4" x2="1403" y2="2109.3"/>
	
		<line display="inline" fill="none" stroke="#00004C" stroke-width="180" stroke-miterlimit="10" x1="1993" y1="1681" x2="2138.3" y2="2539.8"/>
</g>
<g display="none">
	
		<line display="inline" fill="none" stroke="#00004C" stroke-width="180" stroke-miterlimit="10" x1="760.1" y1="2452.2" x2="892.6" y2="1682.6"/>
	
		<line display="inline" fill="none" stroke="#00004C" stroke-width="180" stroke-miterlimit="10" x1="1486.6" y1="2108.3" x2="713.5" y2="2516.3"/>
</g>
<text transform="matrix(1 0 0 1 1045.3311 1343.8494)" fill="#FFFFFF" font-family="'Montserrat-Bold'" font-size="885.3079">74</text>
<g display="none">
	
		<line display="inline" fill="none" stroke="#00004C" stroke-width="180" stroke-miterlimit="10" x1="365.9" y1="1180.2" x2="1145.5" y2="1065.6"/>
	
		<line display="inline" fill="none" stroke="#00004C" stroke-width="180" stroke-miterlimit="10" x1="918.9" y1="1763.6" x2="290.5" y2="1155.9"/>
</g>
<g display="none">
	
		<line display="inline" fill="none" stroke="#00004C" stroke-width="180" stroke-miterlimit="10" x1="2528.1" y1="1214.7" x2="1968.3" y2="1760.9"/>
	
		<line display="inline" fill="none" stroke="#00004C" stroke-width="180" stroke-miterlimit="10" x1="1738" y1="1066.9" x2="2603.4" y2="1190.2"/>
</g>
</svg>
