<?xml version="1.0" encoding="utf-8"?>
<!-- Generator: Adobe Illustrator 18.0.0, SVG Export Plug-In . SVG Version: 6.00 Build 0)  -->
<!DOCTYPE svg PUBLIC "-//W3C//DTD SVG 1.1//EN" "http://www.w3.org/Graphics/SVG/1.1/DTD/svg11.dtd">
<svg version="1.1" id="Layer_1" xmlns="http://www.w3.org/2000/svg" xmlns:xlink="http://www.w3.org/1999/xlink" x="0px" y="0px"
	 viewBox="-330.5 -348.6 2279.9 2397.7" enable-background="new -330.5 -348.6 2279.9 2397.7" xml:space="preserve">
<polygon display="none" fill="#00004C" stroke="#FFFFFF" stroke-width="180" stroke-miterlimit="10" points="1537.8,-23.4 
	1557.6,637.4 2112.9,995.4 1491.2,1218.2 1322.2,1857.1 917.7,1334.3 258.3,1371.2 630.4,825.1 391.2,209.1 1025.9,394.6 "/>
<polygon display="none" fill="#00004C" stroke="#FFFFFF" stroke-width="180" stroke-miterlimit="10" points="1400.8,55.3 
	1296.5,708.2 1774.8,1163.8 1122.5,1266.3 836.8,1862.2 537.3,1272.9 -117.3,1185.6 350.5,718.8 230.9,69 819.7,370 "/>
<polygon fill="#00004C" points="809.4,1784.7 533.4,1225.3 -83.5,1135.7 362.7,700.9 257.4,86.2 809.4,376.3 1361,86.2 
	1255.6,700.9 1702.4,1135.7 1084.9,1225.3 "/>
<polygon fill="#00004C" stroke="#F7F7F7" stroke-width="180" stroke-miterlimit="10" points="809.4,-145.1 1102,447.8 1755.8,542.7 
	1282.9,1003.7 1394.5,1655.1 809.4,1347.5 224.9,1655.1 336.6,1003.7 -136.9,542.7 517.5,447.8 "/>
<polygon display="none" fill="#FFFF00" points="809.5,86.4 1030,533.2 1522.6,604.8 1166.3,952.1 1250.4,1443 809.5,1211.3 
	369,1443 453.1,952.1 96.4,604.8 589.5,533.2 "/>
<line display="none" fill="none" stroke="#FFFFFF" stroke-width="180" stroke-miterlimit="10" x1="967.2" y1="357.6" x2="401.6" y2="1425.9"/>
<line display="none" fill="none" stroke="#FFFFFF" stroke-width="90" stroke-miterlimit="10" x1="1188.4" y1="556.2" x2="834.5" y2="1224.4"/>
<g display="none">
	
		<line display="inline" fill="none" stroke="#00004C" stroke-width="180" stroke-miterlimit="10" x1="822.9" y1="121.1" x2="1040.7" y2="562.4"/>
	
		<line display="inline" fill="none" stroke="#00004C" stroke-width="180" stroke-miterlimit="10" x1="581.8" y1="562.3" x2="822.9" y2="71.2"/>
</g>
<g display="none">
	
		<line display="inline" fill="none" stroke="#00004C" stroke-width="180" stroke-miterlimit="10" x1="1220.2" y1="1418.2" x2="786.7" y2="1187.9"/>
	
		<line display="inline" fill="none" stroke="#00004C" stroke-width="180" stroke-miterlimit="10" x1="1157.9" y1="918.4" x2="1249.3" y2="1458.7"/>
</g>
<g display="none">
	
		<line display="inline" fill="none" stroke="#00004C" stroke-width="180" stroke-miterlimit="10" x1="382.2" y1="1403.6" x2="465.6" y2="919.4"/>
	
		<line display="inline" fill="none" stroke="#00004C" stroke-width="180" stroke-miterlimit="10" x1="839.3" y1="1187.2" x2="352.9" y2="1443.9"/>
</g>
<text transform="matrix(1 0 0 1 448.4404 1043.1973)" fill="#FFFFFF" font-family="'Montserrat-Bold'" font-size="556.9573">74</text>
<g display="none">
	
		<line display="inline" fill="none" stroke="#00004C" stroke-width="180" stroke-miterlimit="10" x1="134.2" y1="603.4" x2="624.7" y2="531.3"/>
	
		<line display="inline" fill="none" stroke="#00004C" stroke-width="180" stroke-miterlimit="10" x1="482.1" y1="970.4" x2="86.8" y2="588.1"/>
</g>
<g display="none">
	
		<line display="inline" fill="none" stroke="#00004C" stroke-width="180" stroke-miterlimit="10" x1="1494.5" y1="625.1" x2="1142.3" y2="968.7"/>
	
		<line display="inline" fill="none" stroke="#00004C" stroke-width="180" stroke-miterlimit="10" x1="997.4" y1="532.1" x2="1541.9" y2="609.7"/>
</g>
</svg>
