<?xml version="1.0" encoding="utf-8"?>
<!-- Generator: Adobe Illustrator 18.0.0, SVG Export Plug-In . SVG Version: 6.00 Build 0)  -->
<!DOCTYPE svg PUBLIC "-//W3C//DTD SVG 1.1//EN" "http://www.w3.org/Graphics/SVG/1.1/DTD/svg11.dtd">
<svg version="1.1" id="Layer_1" xmlns="http://www.w3.org/2000/svg" xmlns:xlink="http://www.w3.org/1999/xlink" x="0px" y="0px"
	 viewBox="112.1 155 2654.1 2524.4" enable-background="new 112.1 155 2654.1 2524.4" xml:space="preserve">
<polygon fill="#00004C" stroke="#00004C" stroke-width="180" stroke-miterlimit="10" points="1439.1,360.8 1783.8,1059.3 
	2554,1171.1 1996.9,1714.1 2128.5,2481.5 1439.1,2119.3 750.5,2481.5 882.1,1714.1 324.3,1171.1 1095.2,1059.3 "/>
<polygon display="none" fill="#FFFF00" points="1439.2,358.5 1789.7,1068.7 2572.8,1182.4 2006.4,1734.6 2140.1,2514.8 
	1439.2,2146.5 739.1,2514.8 872.8,1734.6 305.7,1182.4 1089.5,1068.7 "/>
<line display="none" fill="none" stroke="#FFFFFF" stroke-width="180" stroke-miterlimit="10" x1="1690" y1="789.6" x2="790.8" y2="2487.6"/>
<line display="none" fill="none" stroke="#FFFFFF" stroke-width="90" stroke-miterlimit="10" x1="2041.5" y1="1105.3" x2="1479" y2="2167.4"/>
<g display="none">
	
		<line display="inline" fill="none" stroke="#00004C" stroke-width="180" stroke-miterlimit="10" x1="1460.5" y1="413.6" x2="1806.7" y2="1115.1"/>
	
		<line display="inline" fill="none" stroke="#00004C" stroke-width="180" stroke-miterlimit="10" x1="1077.3" y1="1115" x2="1460.5" y2="334.3"/>
</g>
<g display="none">
	
		<line display="inline" fill="none" stroke="#00004C" stroke-width="180" stroke-miterlimit="10" x1="2092" y1="2475.4" x2="1403" y2="2109.3"/>
	
		<line display="inline" fill="none" stroke="#00004C" stroke-width="180" stroke-miterlimit="10" x1="1993" y1="1681" x2="2138.3" y2="2539.8"/>
</g>
<g display="none">
	
		<line display="inline" fill="none" stroke="#00004C" stroke-width="180" stroke-miterlimit="10" x1="760.1" y1="2452.2" x2="892.6" y2="1682.6"/>
	
		<line display="inline" fill="none" stroke="#00004C" stroke-width="180" stroke-miterlimit="10" x1="1486.6" y1="2108.3" x2="713.5" y2="2516.3"/>
</g>
<text transform="matrix(1 0 0 1 865.3311 1834.8218)" fill="#FFFFFF" font-family="'Montserrat-Bold'" font-size="885.3079">74</text>
<g display="none">
	
		<line display="inline" fill="none" stroke="#00004C" stroke-width="180" stroke-miterlimit="10" x1="365.9" y1="1180.2" x2="1145.5" y2="1065.6"/>
	
		<line display="inline" fill="none" stroke="#00004C" stroke-width="180" stroke-miterlimit="10" x1="918.9" y1="1763.6" x2="290.5" y2="1155.9"/>
</g>
<g display="none">
	
		<line display="inline" fill="none" stroke="#00004C" stroke-width="180" stroke-miterlimit="10" x1="2528.1" y1="1214.7" x2="1968.3" y2="1760.9"/>
	
		<line display="inline" fill="none" stroke="#00004C" stroke-width="180" stroke-miterlimit="10" x1="1738" y1="1066.9" x2="2603.4" y2="1190.2"/>
</g>
</svg>
