<?xml version="1.0" encoding="utf-8"?>
<!-- Generator: Adobe Illustrator 18.0.0, SVG Export Plug-In . SVG Version: 6.00 Build 0)  -->
<!DOCTYPE svg PUBLIC "-//W3C//DTD SVG 1.1//EN" "http://www.w3.org/Graphics/SVG/1.1/DTD/svg11.dtd">
<svg version="1.1" id="Layer_1" xmlns="http://www.w3.org/2000/svg" xmlns:xlink="http://www.w3.org/1999/xlink" x="0px" y="0px"
	 viewBox="0 0 2591.3 827.8" enable-background="new 0 0 2591.3 827.8" xml:space="preserve">
<g>
	<path fill="#FEBC2D" d="M697.9,74.2c12.8,5.8,22.7,14,29.6,24.7c6.9,10.7,10.4,23.3,10.4,37.7c0,14.4-3.5,27-10.4,37.6
		c-6.9,10.6-16.8,18.8-29.6,24.5c-12.8,5.8-27.9,8.6-45.3,8.6h-33.5v50.2h-54.3v-192h87.8C670,65.6,685.1,68.5,697.9,74.2z
		 M674.6,157.3c5.7-4.8,8.5-11.7,8.5-20.7c0-9-2.8-15.9-8.5-20.8c-5.7-4.9-14.1-7.4-25.2-7.4h-30.2v56.2h30.2
		C660.5,164.6,668.9,162.2,674.6,157.3z"/>
	<path fill="#FEBC2D" d="M905.9,122.9c11.2,11,16.9,27.5,16.9,49.6v85h-52.1v-76.5c0-20.3-8.1-30.4-24.4-30.4
		c-9,0-16.1,2.9-21.5,8.8c-5.4,5.9-8.1,14.6-8.1,26.3v71.9h-52.1V54.1h52.1v68.6c5.7-5.3,12.3-9.3,20-12.1
		c7.7-2.7,15.9-4.1,24.7-4.1C879.8,106.5,894.6,112,905.9,122.9z"/>
	<path fill="#FEBC2D" d="M1109.2,108.9l-64.2,154.7c-7.5,18.3-16.6,31.1-27.4,38.5c-10.8,7.4-24,11.1-39.5,11.1
		c-7.9,0-15.8-1.2-23.7-3.7c-8-2.5-14.4-5.7-19.3-9.7l18.1-36.5c2.9,2.7,6.4,4.9,10.6,6.4c4.1,1.6,8.3,2.3,12.5,2.3
		c4.9,0,9-1,12.2-3c3.2-2,5.9-5.2,8.1-9.6l-63.6-150.6h53.5l36.5,90.8l36.8-90.8H1109.2z"/>
	<path fill="#FEBC2D" d="M1137.5,255.8c-12.1-2.8-21.8-6.5-29.1-11.1l15.6-35.7c6.8,4.2,14.8,7.5,24.1,10c9.3,2.5,18.6,3.7,27.7,3.7
		c8.4,0,14.4-0.9,18-2.6c3.6-1.7,5.3-4.3,5.3-7.5s-2.2-5.6-6.4-7c-4.3-1.4-11.1-2.7-20.4-4c-11.9-1.5-22-3.4-30.3-5.8
		c-8.3-2.4-15.5-6.8-21.5-13.2c-6-6.4-9.1-15.4-9.1-26.9c0-9.5,2.8-18,8.5-25.4c5.7-7.4,13.9-13.3,24.8-17.6
		c10.9-4.3,23.9-6.4,39.1-6.4c10.8,0,21.5,1.1,32.1,3.3c10.6,2.2,19.5,5.3,26.6,9.3l-15.6,35.4c-13.2-7.3-27.4-11-42.8-11
		c-8.2,0-14.3,1-18.1,2.9s-5.8,4.4-5.8,7.5c0,3.5,2.1,5.9,6.3,7.3c4.2,1.4,11.2,2.8,20.8,4.3c12.2,1.8,22.4,3.9,30.4,6.3
		c8,2.4,15,6.7,21,13c5.9,6.3,8.9,15.1,8.9,26.5c0,9.3-2.8,17.7-8.5,25.1c-5.7,7.4-14,13.2-25.1,17.4c-11.1,4.2-24.4,6.3-39.9,6.3
		C1161.8,260,1149.6,258.6,1137.5,255.8z"/>
	<path fill="#FEBC2D" d="M1273.2,84.5c-5.9-5.3-8.8-11.9-8.8-19.7c0-7.9,2.9-14.4,8.8-19.7c5.8-5.3,13.5-8,23-8
		c9.5,0,17.2,2.5,23,7.5c5.8,5,8.8,11.5,8.8,19.3c0,8.2-2.9,15-8.8,20.4c-5.9,5.4-13.5,8.1-23,8.1
		C1286.8,92.5,1279.1,89.8,1273.2,84.5z M1270.2,108.9h52.1v148.6h-52.1V108.9z"/>
	<path fill="#FEBC2D" d="M1387.9,250.2c-13-6.6-23.1-15.7-30.3-27.4c-7.2-11.7-10.8-25-10.8-39.8s3.6-28,10.8-39.6
		c7.2-11.6,17.3-20.7,30.3-27.2c13-6.5,27.7-9.7,44.2-9.7c16.8,0,31.4,3.6,43.6,10.8c12.2,7.2,20.9,17.2,26.1,30l-40.3,20.6
		c-6.8-13.3-16.6-20-29.6-20c-9.3,0-17.1,3.1-23.2,9.3c-6.1,6.2-9.2,14.8-9.2,25.8c0,11.2,3.1,19.9,9.2,26.2
		c6.1,6.3,13.8,9.5,23.2,9.5c13,0,22.9-6.7,29.6-20l40.3,20.6c-5.1,12.8-13.8,22.8-26.1,30c-12.3,7.2-26.8,10.8-43.6,10.8
		C1415.6,260,1400.9,256.8,1387.9,250.2z"/>
	<path fill="#FEBC2D" d="M1538.7,255.8c-12.1-2.8-21.8-6.5-29.1-11.1l15.6-35.7c6.8,4.2,14.8,7.5,24.1,10c9.3,2.5,18.6,3.7,27.7,3.7
		c8.4,0,14.4-0.9,18-2.6c3.6-1.7,5.3-4.3,5.3-7.5s-2.2-5.6-6.4-7c-4.3-1.4-11.1-2.7-20.4-4c-11.9-1.5-22-3.4-30.3-5.8
		c-8.3-2.4-15.5-6.8-21.5-13.2c-6-6.4-9.1-15.4-9.1-26.9c0-9.5,2.8-18,8.5-25.4c5.7-7.4,13.9-13.3,24.8-17.6
		c10.9-4.3,23.9-6.4,39.1-6.4c10.8,0,21.5,1.1,32.1,3.3c10.6,2.2,19.5,5.3,26.6,9.3l-15.6,35.4c-13.2-7.3-27.4-11-42.8-11
		c-8.2,0-14.3,1-18.1,2.9s-5.8,4.4-5.8,7.5c0,3.5,2.1,5.9,6.3,7.3c4.2,1.4,11.2,2.8,20.8,4.3c12.2,1.8,22.4,3.9,30.4,6.3
		c8,2.4,15,6.7,21,13c5.9,6.3,8.9,15.1,8.9,26.5c0,9.3-2.8,17.7-8.5,25.1c-5.7,7.4-14,13.2-25.1,17.4c-11.1,4.2-24.4,6.3-39.9,6.3
		C1563,260,1550.8,258.6,1538.7,255.8z"/>
</g>
<g>
	<path fill="#141449" d="M178.2,327.4V466h278.1v137.7H178.2v216H0v-630h494.1v137.7H178.2z"/>
	<path fill="#141449" d="M662.4,795.4c-42-21.6-74.9-51.6-98.5-90c-23.7-38.4-35.6-81.9-35.6-130.5c0-48,11.8-91.2,35.6-129.6
		c23.7-38.4,56.4-68.2,98.1-89.6c41.7-21.3,88.9-31.9,141.8-31.9c52.8,0,100.2,10.7,142.2,31.9c42,21.3,74.7,51,98.1,89.1
		c23.4,38.1,35.1,81.5,35.1,130s-11.7,92.1-35.1,130.5c-23.4,38.4-56.1,68.4-98.1,90c-42,21.6-89.4,32.4-142.2,32.4
		C751.5,827.8,704.4,817,662.4,795.4z M877.5,660.8c19.2-20.7,28.8-49.3,28.8-86c0-36-9.6-64.2-28.8-84.6
		c-19.2-20.4-43.8-30.6-73.8-30.6c-30,0-54.6,10.2-73.8,30.6c-19.2,20.4-28.8,48.6-28.8,84.6c0,36.6,9.6,65.2,28.8,86
		c19.2,20.7,43.8,31,73.8,31C833.7,691.9,858.3,681.5,877.5,660.8z"/>
	<path fill="#141449" d="M1453.5,819.7l-87.3-127.8l-93.6,127.8h-185.4l185.4-243.9l-180-243.9h192.6l86.4,123.3l90-123.3h180.9
		l-180,237.6l186.3,250.2H1453.5z"/>
</g>
<polygon fill="#FFFFFF" points="1900.1,211.1 1832.6,404.4 1941.7,351.3 "/>
<polyline fill="#1A1648" points="1756.3,818.2 1756.3,489.4 1756.3,122.9 2086.5,122.9 2454.4,122.9 2454.4,818.2 "/>
<polyline fill="#FEBC2D" points="1756.3,818.2 1756.3,485.2 1902.4,9.2 2005,268.9 2074.3,153 2109.9,130.2 2169.9,360.2 
	2220.1,490.1 2312.1,574.8 2454.4,580.4 2454.4,818.2 "/>
<polyline fill="#1A1648" points="1756.3,818.2 1950.3,736.7 2337.8,644.9 2454.4,580.4 2454.4,818.2 "/>
<path fill="#F7F7F7" d="M2058,740.6c0,0-188.4-198.3,0-127.2c188.4,71.1,271.6,20.4,349.9-13c35.7-15.2,54-15.7,54-32.5l20.1-18.7
	c0,0,21.2,22.9,3,31.8c-10.7,5.1-21,10.9-26.8,19.1c-23.8,33.7-65.1,63.8-121.6,87.9C2251,724.5,2178.1,740.6,2058,740.6z"/>
<polygon fill="#F7F7F7" points="2010.4,315.8 1902.4,11 1932.6,7.3 2019.9,292.1 "/>
<polygon fill="#F7F7F7" points="2010.4,315.8 1994.4,270.6 2079.5,112.5 2101.5,127.3 "/>
<rect x="1966" y="287.8" transform="matrix(0.3551 0.9348 -0.9348 0.3551 1678.6543 -1827.5402)" fill="#F7F7F7" width="395.8" height="30.2"/>
<path fill="#F7F7F7" d="M2421.4,600c-7.9,0.4-15.8,0.5-23.6,0.3c-27.5-0.9-53.4-5.9-77.3-14.7c-24.1-9-44.9-21.6-61.7-37.4
	c-17.6-16.6-31.6-33.4-38.7-55L2103.4,117l37.5,0.1c22.7,62.8,77.2,204.4,119.6,303.7c21.6,50.6,38.7,92,49.5,102.6
	c38.4,38.1,49.7,41.7,72.3,47.7c22.6,6,58.1,7.3,72-0.9c13.9-8.1-4.7,2.8,20.3-4.1l7.8,23.9C2462.3,595.6,2441.8,598.9,2421.4,600z"
	/>
<path fill="#1A1648" d="M2591.3,536.6c0,28.4-23,51.4-51.4,51.4s-51.4-23-51.4-51.4c0-28.4,23-51.4,51.4-51.4
	C2568.2,485.2,2591.3,508.2,2591.3,536.6"/>
<path fill="#F7F7F7" d="M1745.5,489.9c22.2-9.6,46.8-15.8,71.5-12.5c29.1,3.8,67.3,10.7,111.8,48.3c19.7,16.7,40.6,35.8,62.4,52.3
	c21.8,16.5,44.6,30.1,68.1,35.4l-1,127c-177.7,3.6-179.8,82-188.9,87.3"/>
<rect x="1685.9" y="510.4" fill="#F7F7F7" width="180.6" height="317.3"/>
<path fill="#1A1648" d="M2145.9,435.4c-4.7-12.4-4.4-26,1.1-38.1c5.4-12.1,15.2-21.5,27.7-26.1c12.4-4.7,25.9-4.4,38.1,1.1
	c12.1,5.4,21.5,15.2,26.1,27.7l-24,9.1c-2.3-6-6.7-10.7-12.7-13.4c-5.9-2.6-12.4-2.8-18.3-0.5l0,0c-6,2.3-10.7,6.7-13.4,12.7
	c-2.6,5.9-2.8,12.4-0.5,18.3L2145.9,435.4z"/>
<rect x="2069.5" y="115.8" fill="#FFFFFF" width="28.2" height="7.1"/>
<g>
	<path fill="#141449" d="M2520.8,3.9h-14.9V0h34.3v3.9h-14.9v38.5h-4.5V3.9L2520.8,3.9z"/>
	<path fill="#141449" d="M2591.3,0v42.3h-4.3V8.5L2570.3,37h-2.1l-16.6-28.3v33.7h-4.3V0h3.7l18.4,31.4L2587.6,0H2591.3L2591.3,0z"
		/>
</g>
<polygon fill="#F7F7F7" points="2016.4,297.3 1922.8,54.8 1967.1,42.6 2044.3,246.4 "/>
<polygon fill="#F7F7F7" points="1756.1,486.5 1751,484.8 1750.6,409.2 1714.9,401.1 1705.9,100.1 1874.5,0 1902.4,9.2 "/>
<path fill="#1A1648" d="M1996.6,493.4c-4.7-12.4-4.4-26,1.1-38.1c5.4-12.1,15.2-21.5,27.7-26.1c12.4-4.7,25.9-4.4,38.1,1.1
	c12.1,5.4,21.5,15.2,26.1,27.7l-24,9.1c-2.3-6-6.7-10.7-12.7-13.4c-5.9-2.6-12.4-2.8-18.3-0.5l0,0c-6,2.3-10.7,6.7-13.4,12.7
	c-2.6,5.9-2.8,12.4-0.5,18.3L1996.6,493.4z"/>
<line fill="none" x1="2247.8" y1="426.8" x2="1974.2" y2="532.3"/>
<line fill="none" x1="2010.4" y1="315.8" x2="1756.1" y2="486.5"/>
</svg>
