<?xml version="1.0" encoding="utf-8"?>
<!-- Generator: Adobe Illustrator 18.0.0, SVG Export Plug-In . SVG Version: 6.00 Build 0)  -->
<!DOCTYPE svg PUBLIC "-//W3C//DTD SVG 1.1//EN" "http://www.w3.org/Graphics/SVG/1.1/DTD/svg11.dtd">
<svg version="1.1" id="Layer_1" xmlns="http://www.w3.org/2000/svg" xmlns:xlink="http://www.w3.org/1999/xlink" x="0px" y="0px"
	 viewBox="83.8 232 2834.6 2774.3" enable-background="new 83.8 232 2834.6 2774.3" xml:space="preserve">
<polygon fill="#FFFFFF" points="601.9,939.4 375.8,1587.4 741.2,1409.4 "/>
<polyline fill="#141449" points="120,2974.1 120,1872.4 120,644 1226.8,644 2459.6,644 2459.6,2974.1 "/>
<polyline fill="#FEBC2D" points="120,2974.1 120,1858.1 609.5,262.7 953.5,1133.3 1185.8,744.8 1305.1,668.5 1506.1,1439.2 
	1674.5,1874.7 1982.7,2158.3 2459.6,2177.2 2459.6,2974.1 "/>
<polyline fill="#141449" points="120,2974.1 770.3,2701 2069,2393.4 2459.6,2177.2 2459.6,2974.1 "/>
<path fill="#FFFFFF" d="M1131.1,2714.2c0,0-631.5-664.7,0-426.3s910.2,68.4,1172.8-43.6c119.8-51,181-52.5,181-108.8l67.3-62.6
	c0,0,71,76.8,10.1,106.6c-35.9,17.2-70.3,36.6-89.7,63.9c-79.9,113-218.3,213.8-407.5,294.7
	C1778,2660.1,1533.7,2714.2,1131.1,2714.2z"/>
<polygon fill="#FFFFFF" points="971.5,1290.3 609.5,268.7 710.8,256.6 1003.5,1211.1 "/>
<polygon fill="#FFFFFF" points="971.5,1290.3 917.9,1138.9 1203.2,609.1 1277.1,658.6 "/>
<rect x="822.9" y="1196.5" transform="matrix(0.3551 0.9348 -0.9348 0.3551 2124.2891 -585.0046)" fill="#FFFFFF" width="1326.6" height="101.3"/>
<path fill="#FFFFFF" d="M2349.1,2242.9c-26.4,1.3-52.8,1.8-79.2,1c-92.1-3-179-19.7-259.2-49.4c-80.8-30.1-150.6-72.5-206.7-125.2
	c-58.9-55.6-106-112.1-129.7-184.2L1283.4,624.2l125.7,0.5c76,210.5,258.9,685.2,401,1018c72.3,169.5,129.8,308.3,165.8,344
	c128.6,127.6,166.6,139.8,242.4,159.7c75.8,20,194.6,24.3,241.3-3s-15.9,9.4,68-13.9l26.1,80.2
	C2486.3,2228,2417.6,2239.1,2349.1,2242.9z"/>
<path fill="#141449" d="M2918.4,2030.4c0,95.1-77.2,172.3-172.3,172.3c-95.1,0-172.3-77.2-172.3-172.3
	c0-95.1,77.2-172.3,172.3-172.3C2841.2,1858.1,2918.4,1935.3,2918.4,2030.4"/>
<path fill="#FFFFFF" d="M83.8,1874c74.4-32.2,156.7-52.8,239.6-42c97.5,12.6,225.7,35.9,374.6,161.8c66,55.9,136,120.1,209.1,175.4
	c73.1,55.2,149.6,100.8,228.1,118.8l-3.3,425.6c-595.5,12.2-602.6,274.8-633.1,292.7"/>
<rect x="83.8" y="1942.7" fill="#FFFFFF" width="405.7" height="1063.5"/>
<path fill="#141449" d="M1425.7,1691.1c-15.9-41.6-14.7-87,3.6-127.6c18-40.7,51-71.9,92.9-87.5c41.6-15.9,86.7-14.7,127.6,3.6
	c40.7,18,71.9,51,87.5,92.9l-80.5,30.4c-7.7-20.2-22.6-35.9-42.4-44.8c-19.7-8.6-41.5-9.4-61.5-1.6l0,0
	c-20.2,7.7-35.9,22.6-44.8,42.4c-8.6,19.7-9.4,41.5-1.6,61.5L1425.7,1691.1z"/>
<rect x="1169.6" y="620.1" fill="#FFFFFF" width="94.5" height="23.9"/>
<g>
	<path fill="#00004C" d="M2682.3,245h-49.9v-13h114.8v13h-49.9v128.9h-15L2682.3,245L2682.3,245z"/>
	<path fill="#00004C" d="M2918.4,232v141.9H2904V260.4l-55.8,95.5h-7.1l-55.8-94.9v112.9h-14.4V232h12.4l61.7,105.2l61-105.2H2918.4
		L2918.4,232z"/>
</g>
<polygon fill="#FFFFFF" points="991.7,1228.5 678,415.5 826.5,374.8 1085.3,1057.8 "/>
<polygon fill="#FFFFFF" points="119.2,1862.4 102.1,1856.8 100.9,1603.3 119.9,1545.6 516,232 609.5,262.7 "/>
<path fill="#141449" d="M925.4,1885.5c-15.9-41.6-14.7-87,3.6-127.6c18-40.7,51-71.9,92.9-87.5c41.6-15.9,86.7-14.7,127.6,3.6
	c40.7,18,71.9,51,87.5,92.9l-80.5,30.4c-7.7-20.2-22.6-35.9-42.4-44.8c-19.7-8.6-41.5-9.4-61.5-1.6l0,0
	c-20.2,7.7-35.9,22.6-44.8,42.4c-8.6,19.7-9.4,41.5-1.6,61.5L925.4,1885.5z"/>
<line fill="none" x1="1767.3" y1="1662.5" x2="850.4" y2="2016.1"/>
<polygon fill="#FFFFFF" points="682.4,983 513.6,1600.6 818.4,1455.7 "/>
<line fill="none" x1="971.5" y1="1290.3" x2="119.2" y2="1862.4"/>
</svg>
