<?xml version="1.0" encoding="utf-8"?>
<!-- Generator: Adobe Illustrator 18.0.0, SVG Export Plug-In . SVG Version: 6.00 Build 0)  -->
<!DOCTYPE svg PUBLIC "-//W3C//DTD SVG 1.1//EN" "http://www.w3.org/Graphics/SVG/1.1/DTD/svg11.dtd">
<svg version="1.1" id="Layer_1" xmlns="http://www.w3.org/2000/svg" xmlns:xlink="http://www.w3.org/1999/xlink" x="0px" y="0px"
	 viewBox="-149.7 253.5 3134.1 2327.7" enable-background="new -149.7 253.5 3134.1 2327.7" xml:space="preserve">
<g>
	<path fill="#FFFFFF" stroke="#FFFFFF" stroke-width="80" stroke-miterlimit="10" d="M251.6,2541.2c-62.6,0-113.4-50.8-113.4-113.4
		v-60c0-62.6,50.8-113.4,113.4-113.4c185.5,0,367.3-7.9,540.2-23.4c166.2-14.9,320.5-36.5,458.8-64.2
		c133.3-26.7,247.2-58.1,338.6-93.4c108.4-41.8,154.5-77.7,172.3-95.3c22.1-21.9,51-32.9,79.8-32.9c29.2,0,58.4,11.2,80.5,33.6
		l42.2,42.6c21.2,21.4,33,50.2,32.9,80.3s-12.2,58.9-33.6,80c-31,30.7-70.5,60.1-117.3,87.2c-43.5,25.2-94.7,49.2-152.2,71.5
		c-106.8,41.3-236.9,77.5-386.9,107.5c-148.4,29.7-313.1,52.8-489.5,68.6C636,2532.9,445.7,2541.2,251.6,2541.2z"/>
	<path fill="#FFFFFF" stroke="#FFFFFF" stroke-width="80" stroke-miterlimit="10" d="M1272.9,2278.1
		c-142.3,28.5-300.7,50.7-470.9,65.9c-176.3,15.8-361.5,23.8-550.3,23.8v60c190.7,0,377.6-8.1,555.7-24.1
		c172.4-15.5,333-37.9,477.4-66.8c143.6-28.7,267.5-63.1,368.2-102.1c104.6-40.5,182.2-85.4,230.7-133.4l-42.2-42.6
		C1755.4,2144,1553.5,2221.9,1272.9,2278.1z"/>
	<path fill="#FFFFFF" stroke="#FFFFFF" stroke-width="80" stroke-miterlimit="10" d="M1396.5,2176.5c-120.7,0-253-9.8-416.5-30.9
		c-71-9.1-153.5-20.9-233.3-44.9c-59.4-17.9-114.4-41.4-167.6-64.1c-14.7-6.3-29.9-12.8-44.6-18.9
		c-175.2-72.7-359.5-124.2-547.8-153c-33.1-5.1-62.2-24.5-79.6-53c-17.4-28.6-21.4-63.3-10.7-95.1c1.1-3.3,17.8-53.1,34.2-101.2
		c-0.1-0.2-0.2-0.4-0.2-0.5c-12.6-27.3-13.8-58.5-3.4-86.7L354.4,367.7c16.9-45.8,60.3-74.2,106.4-74.2c13,0,26.3,2.3,39.2,7
		l56.3,20.8c44.2,16.3,72.1,57.1,74.1,101.4l73,408.4l91.5-179.8c13.6-26.8,37.4-47.1,66-56.4c11.4-3.7,23.3-5.6,35.1-5.6
		c17.7,0,35.4,4.2,51.4,12.3l22.2,11.3c3.1,1.4,6.1,2.9,9,4.6l22.3,11.3c40.2,20.5,63,61.7,61.9,104l133.4,599.4
		c0.9,3.9,1.5,7.9,2,11.8c17.3,6,34,13.9,49.8,23.7c55.9,34.8,94.9,89.2,109.8,153.3c6.8,29.3,1.7,60.1-14.2,85.6
		c-13.6,21.8-34.1,38.2-58,46.8c9.1,22.2,21.9,42.9,38.2,61.9c25.3,29.5,58.3,54.2,98.2,73.3c41.6,20,88.1,32.5,138,37.3
		c14.7,1.4,29.6,2.1,44.4,2.1c38.9,0,78.6-4.8,117.8-14.3c9-2.2,18-3.2,26.8-3.2c2,0,4,0.1,6,0.2c38.1-47.5,96.5-77.9,162-77.9
		c114.4,0,207.6,93.1,207.6,207.6c0,114.4-93.1,207.6-207.6,207.6c-32.3,0-64.7-7.7-93.4-22.2c-0.2-0.1-0.3-0.2-0.5-0.2
		c-3.6,1-7.2,2-10.9,2.9C1685.4,2160.8,1549.4,2176.5,1396.5,2176.5z"/>
	<path fill="#FFFFFF" stroke="#FFFFFF" stroke-width="80" stroke-miterlimit="10" d="M1917,1846.3c-52,0-94.2,42.2-94.2,94.2
		c0,2.3,0.1,4.7,0.3,7c-22.3,2.6-44.7,4.4-67.2,5.6l-7-29c-66.7,16.2-133.9,21.2-199.7,14.9c-63.3-6-122.6-22.1-176.3-47.9
		c-108.8-52.2-182.6-138.3-207.8-242.4l-29.6,7.2c-12.1-49.5-20.3-101.3-32.3-150.1c18.4-3.8,37.2-0.5,53.2,9.4
		c16.5,10.3,28.1,26.4,32.5,45.3l58.4-13.6c-8-34.6-29.1-64-59.2-82.7c-30.2-18.7-65.8-24.6-100.3-16.5c-0.4,0.1-0.7,0.2-1.1,0.3
		c-9.2-28.4-19.6-56.5-30.4-84.5l29.2-6.5L947,734.6l2.4-4.7l-26.7-13.6c0,0,0-0.1,0-0.1c0,0,0,0.1-0.1,0.1l-26.7-13.6l-222,436.1
		l16.6,8.5c-10.5,28.3-20.7,56.7-30.7,85.1L516.6,430.6l-0.7,0.1l1.1-3.1l-56.3-20.8L33.1,1567.4l30.2,11.1
		c-15.9,43.4-59.6,174.1-59.6,174.1c196.9,30.1,390.1,84,574.2,160.4c66.6,27.7,132.2,58.3,201.4,79.1
		c69.9,21.1,142.7,31.7,215.1,41c262.8,33.9,533,50.9,789.8-14.6c19.3-4.9,39.8-11.5,58-20.9c17.2,22.4,44.3,36.9,74.8,36.9
		c52,0,94.2-42.2,94.2-94.2C2011.2,1888.4,1969,1846.3,1917,1846.3z"/>
	<path fill="#FFFFFF" stroke="#FFFFFF" stroke-width="80" stroke-miterlimit="10" d="M2771,2520.1c-62.6,0-113.4-50.8-113.4-113.4
		v-126.2c0-23.7-5.3-46.8-15.8-68.7c-11.2-23.2-27.9-44.6-49.7-63.4c-48.2-41.7-113.6-64.6-184.2-64.6
		c-62.6,0-113.4-50.8-113.4-113.4v-60c0-62.6,50.8-113.4,113.4-113.4c70.6,0,136-22.9,184.2-64.6c21.8-18.8,38.5-40.2,49.7-63.4
		c10.5-21.9,15.8-45,15.8-68.7v-126.2c0-62.6,50.8-113.4,113.4-113.4h60c62.6,0,113.4,50.8,113.4,113.4v126.2
		c0,67.9-15.3,133.7-45.4,195.4c-26.4,54.1-63.1,102.7-109.2,144.7c46.1,42,82.8,90.6,109.2,144.7c30.1,61.7,45.4,127.4,45.4,195.4
		v126.2c0,62.6-50.8,113.4-113.4,113.4H2771z"/>
	<path fill="#FFFFFF" stroke="#FFFFFF" stroke-width="80" stroke-miterlimit="10" d="M2797.1,1746c22.5-46.1,33.9-95,33.9-145.6
		v-126.2h-60v126.2c0,82.1-37.2,159.4-104.7,217.8c-68.8,59.5-160.5,92.2-258.4,92.2v60c97.9,0,189.6,32.8,258.4,92.2
		c67.5,58.4,104.7,135.8,104.7,217.8v126.2h60v-126.2c0-50.5-11.4-99.5-33.9-145.6c-21.6-44.2-52.4-83.7-91.5-117.6
		c-38.1-33-82.2-58.8-130.1-76.8c47.9-18,92-43.9,130.1-76.8C2744.7,1829.7,2775.5,1790.1,2797.1,1746z"/>
</g>
<polygon fill="#FFFFFF" points="1804.5,2077.8 144.9,2541.2 -141,1803.1 284.5,1866.6 "/>
<g id="XMLID_1_" display="none">
	<g display="inline">
		<path fill="#FEBC2D" d="M405.1,652.1c20.2-40.3,42.4-79.5,67.3-117.3c32.4,31.3,23.3,84,25.7,129.2c2.6,48.2,21.2,93.9,37,139.5
			c54.1,156,78,320.7,101.6,484.1c70.4-202.7,143.8-410.3,282.9-573.6c15.1,175.6,30.6,353.2,86.3,520.3
			c29.4,88.3,69.8,172.9,92.7,263c30,118.3,35.6,256.4,128.9,334.9c31.1,26.2,69.1,42.6,107.3,56.5
			c177.9,64.5,373.2,80.5,559.2,45.3c-11,47.9-65.3,70.3-112.9,82.4c-256.8,65.5-527,48.5-789.8,14.6c-72.5-9.3-145.2-20-215.1-41
			c-69.2-20.8-134.8-51.4-201.4-79.1c-184-76.4-377.3-130.3-574.2-160.4c0,0,59.4-177.4,64.9-187.5
			C221.3,1280.9,260.6,940.1,405.1,652.1z"/>
	</g>
</g>
<line display="none" fill="none" stroke="#231F20" stroke-width="60" stroke-linejoin="bevel" stroke-miterlimit="10" x1="639.2" y1="1264.7" x2="697.6" y2="1150.1"/>
<g display="none">
	<circle display="inline" fill="#151349" cx="759.6" cy="1666" r="75.8"/>
	<circle display="inline" fill="#151349" cx="1089.2" cy="1514.6" r="75.8"/>
	<circle display="inline" fill="#FFFFFF" cx="787.6" cy="1635.5" r="10.8"/>
	<circle display="inline" fill="#FFFFFF" cx="1117.3" cy="1484.1" r="10.8"/>
</g>
<path display="none" fill="#FFFFFF" stroke="#2E3191" stroke-width="60" stroke-miterlimit="10" d="M2332.2,1421.9
	c0,56.8-46,102.9-102.9,102.9s-102.9-46-102.9-102.9"/>
<polygon display="none" fill="#FFFFFF" points="240.3,1458.5 440.1,975.3 526.1,1338.7 "/>
<g>
	<g id="XMLID_2_">
		<g>
			<path fill="#FEBC2D" d="M405.1,652.1c20.2-40.3,42.4-79.5,67.3-117.3c32.4,31.3,23.3,84,25.7,129.2c2.6,48.2,21.2,93.9,37,139.5
				c54.1,156,78,320.7,101.6,484.1c70.4-202.7,143.8-410.3,282.9-573.6c15.1,175.6,30.6,353.2,86.3,520.3
				c29.4,88.3,69.8,172.9,92.7,263c30,118.3,35.6,256.4,128.9,334.9c31.1,26.2,69.1,42.6,107.3,56.5
				c177.9,64.5,373.2,80.5,559.2,45.3c-11,47.9-65.3,70.3-112.9,82.4c-256.8,65.5-527,48.5-789.8,14.6c-72.5-9.3-145.2-20-215.1-41
				c-69.2-20.8-134.8-51.4-201.4-79.1c-184-76.4-377.3-130.3-574.2-160.4c0,0,59.4-177.4,64.9-187.5
				C221.3,1280.9,260.6,940.1,405.1,652.1z"/>
		</g>
	</g>
	<path fill="none" stroke="#00004C" stroke-width="60" stroke-linejoin="bevel" stroke-miterlimit="10" d="M1132.9,1653.4
		c56.6,233.8,333.9,366.9,620,297.6"/>
	<path fill="none" stroke="#00004C" stroke-width="60" stroke-linejoin="bevel" stroke-miterlimit="10" d="M1859.4,2077.8
		c-184.4,182.8-835.1,317.8-1610.9,317.8"/>
	<g>
		<circle fill="#151349" cx="1913.9" cy="1938.2" r="94.2"/>
	</g>
	<line fill="none" stroke="#00004C" stroke-width="60" stroke-miterlimit="10" x1="485.9" y1="415.1" x2="58.2" y2="1575.5"/>
	
		<line fill="none" stroke="#00004C" stroke-width="60" stroke-linejoin="bevel" stroke-miterlimit="10" x1="484.1" y1="433.7" x2="636.6" y2="1287.6"/>
	
		<line fill="none" stroke="#00004C" stroke-width="60" stroke-linejoin="bevel" stroke-miterlimit="10" x1="697.6" y1="1150.1" x2="919.6" y2="714.1"/>
	
		<line fill="none" stroke="#00004C" stroke-width="60" stroke-linejoin="bevel" stroke-miterlimit="10" x1="914.2" y1="737" x2="1053.2" y2="1361.2"/>
	<path fill="none" stroke="#00004C" stroke-width="60" stroke-miterlimit="10" d="M1014.8,1598.2c-13-55.3,21.4-110.7,76.8-123.6
		c55.3-13,110.7,21.4,123.6,76.8"/>
	<path fill="none" stroke="#00004C" stroke-width="60" stroke-miterlimit="10" d="M544.3,1699.5c-13-55.3,21.4-110.7,76.8-123.6
		c55.3-13,110.7,21.4,123.6,76.8"/>
	<polygon fill="#FFFFFF" points="410.7,1094.9 272.1,1471.9 455.3,1348.1 	"/>
	<path fill="none" stroke="#00004C" stroke-width="60" stroke-miterlimit="10" d="M2797.9,1598.2c0,188-175.8,340.1-393.1,340.1"/>
	<path fill="none" stroke="#00004C" stroke-width="60" stroke-miterlimit="10" d="M2797.9,2278.3c0-188-175.8-340.1-393.1-340.1"/>
	<line fill="none" stroke="#00004C" stroke-width="60" stroke-miterlimit="10" x1="2797.9" y1="1598.2" x2="2797.9" y2="1471.9"/>
	<line fill="none" stroke="#00004C" stroke-width="60" stroke-miterlimit="10" x1="2797.9" y1="2404.5" x2="2797.9" y2="2278.3"/>
</g>
</svg>
