<?xml version="1.0" encoding="utf-8"?>
<!-- Generator: Adobe Illustrator 18.0.0, SVG Export Plug-In . SVG Version: 6.00 Build 0)  -->
<!DOCTYPE svg PUBLIC "-//W3C//DTD SVG 1.1//EN" "http://www.w3.org/Graphics/SVG/1.1/DTD/svg11.dtd">
<svg version="1.1" id="Layer_1" xmlns="http://www.w3.org/2000/svg" xmlns:xlink="http://www.w3.org/1999/xlink" x="0px" y="0px"
	 viewBox="0 0 3968.5 2834.6" enable-background="new 0 0 3968.5 2834.6" xml:space="preserve">
<g id="XMLID_1_" display="none">
	<g display="inline">
		<path fill="#FEBC2D" d="M570.8,348.8c28.2-56.3,59.2-111,94-163.8c45.3,43.8,32.5,117.3,35.9,180.4
			c3.6,67.4,29.6,131.1,51.6,194.8C827.9,778,861.3,1008,894.3,1236.1c98.3-283,200.7-573,395-800.9
			c21,245.2,42.7,493.1,120.5,726.5c41,123.3,97.5,241.4,129.4,367.3c41.9,165.2,49.8,358.1,180.1,467.7
			c43.4,36.6,96.4,59.5,149.8,78.8c248.4,90.1,521.2,112.3,780.9,63.3c-15.4,66.9-91.1,98.1-157.7,115.1
			c-358.6,91.5-735.9,67.7-1102.9,20.3c-101.2-13-202.8-27.9-300.4-57.3c-96.6-29.1-188.3-71.8-281.3-110.5
			c-257-106.7-526.8-181.9-801.8-224c0,0,82.9-247.8,90.6-261.8C314.1,1226.8,369,751,570.8,348.8z"/>
	</g>
</g>
<g id="XMLID_2_">
	<g>
		<path fill="#FEBC2D" d="M570.8,348.8c28.2-56.3,59.2-111,94-163.8c45.3,43.8,32.5,117.3,35.9,180.4
			c3.6,67.4,29.6,131.1,51.6,194.8C827.9,778,861.3,1008,894.3,1236.1c98.3-283,200.7-573,395-800.9
			c21,245.2,42.7,493.1,120.5,726.5c41,123.3,97.5,241.4,129.4,367.3c41.9,165.2,49.8,358.1,180.1,467.7
			c43.4,36.6,96.4,59.5,149.8,78.8c248.4,90.1,521.2,112.3,780.9,63.3c-15.4,66.9-91.1,98.1-157.7,115.1
			c-358.6,91.5-735.9,67.7-1102.9,20.3c-101.2-13-202.8-27.9-300.4-57.3c-96.6-29.1-188.3-71.8-281.3-110.5
			c-257-106.7-526.8-181.9-801.8-224c0,0,82.9-247.8,90.6-261.8C314.1,1226.8,369,751,570.8,348.8z"/>
	</g>
</g>
<path fill="none" stroke="#00004C" stroke-width="60" stroke-linejoin="bevel" stroke-miterlimit="10" d="M1587.1,1747
	c79,326.4,466.3,512.3,865.7,415.5"/>
<path fill="none" stroke="#00004C" stroke-width="60" stroke-linejoin="bevel" stroke-miterlimit="10" d="M2601.6,2339.6
	c-257.5,255.3-1166.1,443.7-2249.4,443.7"/>
<g>
	<circle fill="#151349" cx="2677.7" cy="2144.7" r="131.5"/>
</g>
<line fill="none" stroke="#00004C" stroke-width="60" stroke-miterlimit="10" x1="683.6" y1="17.8" x2="86.4" y2="1638.2"/>
<line fill="none" stroke="#00004C" stroke-width="60" stroke-linejoin="bevel" stroke-miterlimit="10" x1="681.1" y1="43.8" x2="894.1" y2="1236.2"/>
<line fill="none" stroke="#00004C" stroke-width="60" stroke-linejoin="bevel" stroke-miterlimit="10" x1="979.3" y1="1044.2" x2="1289.3" y2="435.3"/>
<line display="none" fill="none" stroke="#231F20" stroke-width="60" stroke-linejoin="bevel" stroke-miterlimit="10" x1="897.7" y1="1204.3" x2="979.3" y2="1044.2"/>
<line fill="none" stroke="#00004C" stroke-width="60" stroke-linejoin="bevel" stroke-miterlimit="10" x1="1281.7" y1="467.3" x2="1475.8" y2="1339"/>
<g display="none">
	<circle display="inline" fill="#151349" cx="1065.8" cy="1764.6" r="105.8"/>
	<circle display="inline" fill="#151349" cx="1526.1" cy="1553.1" r="105.8"/>
	<circle display="inline" fill="#FFFFFF" cx="1104.9" cy="1722" r="15"/>
	<circle display="inline" fill="#FFFFFF" cx="1565.2" cy="1510.5" r="15"/>
</g>
<path display="none" fill="#FFFFFF" stroke="#2E3191" stroke-width="60" stroke-miterlimit="10" d="M3261.8,1423.7
	c0,79.3-64.3,143.6-143.6,143.6c-79.3,0-143.6-64.3-143.6-143.6"/>
<polygon display="none" fill="#FFFFFF" points="340.6,1474.8 619.7,800.1 739.7,1307.6 "/>
<polygon fill="#FFFFFF" points="578.6,967.1 385.1,1493.6 640.9,1320.7 "/>
<path fill="none" stroke="#00004C" stroke-width="60" stroke-miterlimit="10" d="M3912.1,1669.9c0,262.5-245.5,474.8-548.9,474.8"/>
<path fill="none" stroke="#00004C" stroke-width="60" stroke-miterlimit="10" d="M3912.1,2619.5c0-262.5-245.5-474.8-548.9-474.8"/>
<line fill="none" stroke="#00004C" stroke-width="60" stroke-miterlimit="10" x1="3912.1" y1="1669.9" x2="3912.1" y2="1493.6"/>
<line fill="none" stroke="#00004C" stroke-width="60" stroke-miterlimit="10" x1="3912.1" y1="2795.8" x2="3912.1" y2="2619.5"/>
<line fill="none" stroke="#00004C" stroke-width="60" stroke-miterlimit="10" x1="1501.9" y1="1417.3" x2="1562.6" y2="1676"/>
<line fill="none" stroke="#00004C" stroke-width="60" stroke-miterlimit="10" x1="1661.6" y1="1516.3" x2="1402.9" y2="1577"/>
<line fill="none" stroke="#00004C" stroke-width="60" stroke-miterlimit="10" x1="1083.2" y1="1638.2" x2="824.6" y2="1698.9"/>
</svg>
