<?xml version="1.0" encoding="utf-8"?>
<!-- Generator: Adobe Illustrator 18.0.0, SVG Export Plug-In . SVG Version: 6.00 Build 0)  -->
<!DOCTYPE svg PUBLIC "-//W3C//DTD SVG 1.1//EN" "http://www.w3.org/Graphics/SVG/1.1/DTD/svg11.dtd">
<svg version="1.1" id="Layer_1" xmlns="http://www.w3.org/2000/svg" xmlns:xlink="http://www.w3.org/1999/xlink" x="0px" y="0px"
	 viewBox="-2639.3 -1814.9 5386.4 4431" enable-background="new -2639.3 -1814.9 5386.4 4431" xml:space="preserve">
<polygon fill="#FFFF00" stroke="#00004C" stroke-width="200" stroke-miterlimit="10" points="1417.3,312.6 1762,1011 2532.2,1122.9 
	1975.1,1665.9 2106.6,2433.3 1417.3,2071.1 728.7,2433.3 860.2,1665.9 302.5,1122.9 1073.4,1011 "/>
<polygon fill="#FFFF00" stroke="#00004C" stroke-width="200" stroke-miterlimit="10" points="-1309.3,290.9 -964.7,989.4 
	-194.5,1101.2 -751.6,1644.2 -620,2411.6 -1309.3,2049.4 -1998,2411.6 -1866.4,1644.2 -2424.2,1101.2 -1653.3,989.4 "/>
<polygon fill="#FFFF00" stroke="#00004C" stroke-width="200" stroke-miterlimit="10" points="53.9,-1588.7 398.6,-890.2 
	1168.8,-778.4 611.7,-235.4 743.2,532 53.9,169.8 -634.7,532 -503.2,-235.4 -1061,-778.4 -290.1,-890.2 "/>
</svg>
