<?xml version="1.0" standalone="no"?>
<!DOCTYPE svg PUBLIC "-//W3C//DTD SVG 20010904//EN"
 "http://www.w3.org/TR/2001/REC-SVG-20010904/DTD/svg10.dtd">
<svg version="1.0" xmlns="http://www.w3.org/2000/svg"
 width="769.000000pt" height="769.000000pt" viewBox="0 0 769.000000 769.000000"
 preserveAspectRatio="xMidYMid meet">
<metadata>
Created by potrace 1.11, written by Peter Selinger 2001-2013
</metadata>
<g transform="translate(0.000000,769.000000) scale(0.100000,-0.100000)"
fill="#000000" stroke="none">
<path d="M2810 7683 c-29 -3 -219 -29 -270 -37 -162 -26 -445 -114 -625 -194
-527 -234 -989 -640 -1281 -1122 -21 -36 -44 -75 -51 -85 -36 -58 -107 -204
-151 -310 -98 -235 -167 -487 -198 -725 -3 -25 -8 -56 -12 -70 -3 -14 -8
-1175 -9 -2580 l-3 -2555 837 0 838 0 5 1080 c3 594 8 1065 12 1047 4 -17 8
-35 9 -40 7 -27 82 -241 109 -307 110 -276 292 -568 499 -805 130 -148 313
-318 431 -400 19 -13 37 -27 40 -30 24 -30 289 -189 424 -254 159 -76 411
-171 507 -190 13 -2 62 -14 109 -25 47 -11 119 -25 160 -31 41 -6 86 -13 100
-16 143 -23 585 -24 705 0 11 2 41 6 66 10 198 29 459 97 584 152 17 7 58 24
93 38 55 22 62 23 63 8 0 -9 1 -68 1 -130 l1 -112 839 0 839 0 -4 1573 c-2
864 -6 1583 -9 1597 -4 14 -9 51 -13 84 -4 32 -9 69 -11 82 -2 13 -6 35 -8 49
-36 204 -118 478 -198 655 -36 81 -117 239 -143 280 -14 22 -25 42 -25 45 0
18 -199 297 -270 379 -261 303 -531 518 -880 699 -63 33 -116 61 -118 63 -3 2
-28 90 -37 128 -29 127 -159 433 -261 616 -176 313 -493 674 -769 875 -22 16
-42 32 -45 35 -3 3 -54 38 -115 77 -275 178 -569 304 -895 383 -31 8 -204 38
-315 55 -45 7 -500 13 -555 8z m357 -1697 c385 -36 749 -295 927 -660 67 -139
102 -271 121 -466 5 -56 29 -197 49 -295 22 -102 71 -218 113 -265 78 -88 348
-223 579 -290 219 -63 377 -160 534 -327 186 -198 295 -446 315 -721 5 -58 3
-82 -5 -82 -7 0 -8 -5 -1 -17 5 -10 5 -26 0 -40 -5 -15 -5 -23 2 -23 6 0 8 -4
4 -9 -3 -6 -8 -40 -11 -77 -2 -37 -7 -71 -10 -75 -3 -5 -7 -19 -9 -31 -9 -48
-59 -186 -87 -241 -61 -122 -164 -261 -252 -340 -117 -107 -291 -211 -426
-255 -59 -19 -87 -26 -185 -47 -50 -11 -266 -13 -330 -4 -106 15 -179 34 -270
69 -60 23 -198 98 -255 138 -152 108 -301 289 -374 452 -16 36 -32 72 -36 80
-13 28 -42 134 -60 225 -10 49 -21 100 -24 113 -3 12 -8 31 -10 41 -41 184
-144 454 -207 543 -58 80 -165 160 -299 221 -122 56 -140 63 -257 101 -216 70
-370 172 -539 358 -96 106 -223 363 -249 507 -3 14 -8 37 -11 51 -12 51 -16
280 -5 356 14 107 17 117 47 209 145 442 545 765 994 801 36 3 66 6 67 7 3 3
95 -1 160 -7z"/>
</g>
</svg>
