<?xml version="1.0" encoding="utf-8"?>
<!-- Generator: Adobe Illustrator 18.0.0, SVG Export Plug-In . SVG Version: 6.00 Build 0)  -->
<!DOCTYPE svg PUBLIC "-//W3C//DTD SVG 1.1//EN" "http://www.w3.org/Graphics/SVG/1.1/DTD/svg11.dtd">
<svg version="1.1" id="Layer_1" xmlns="http://www.w3.org/2000/svg" xmlns:xlink="http://www.w3.org/1999/xlink" x="0px" y="0px"
	 viewBox="0 0 2834.6 2834.6" enable-background="new 0 0 2834.6 2834.6" xml:space="preserve">
<rect x="558.4" y="466.5" fill="#FFFFFF" stroke="#151349" stroke-width="40" stroke-miterlimit="10" width="1790.9" height="500"/>
<rect x="2318.5" y="655.1" fill="#FFFFFF" width="61.5" height="122.9"/>
<line fill="none" stroke="#151349" stroke-width="40" stroke-miterlimit="10" x1="2160" y1="716.5" x2="2528" y2="716.5"/>
<polygon opacity="5.000000e-02" fill="#151349" points="1073,541.6 1105.8,608 1179,618.7 1126,670.4 1138.5,743.3 1073,708.9 
	1007.5,743.3 1020,670.4 967,618.7 1040.2,608 "/>
<line fill="none" stroke="#151349" stroke-width="40" stroke-miterlimit="10" x1="2542.1" y1="702.5" x2="2428.3" y2="816.3"/>
<line fill="none" stroke="#151349" stroke-width="40" stroke-miterlimit="10" x1="2528" y1="716.5" x2="2428.3" y2="616.8"/>
<rect x="558.4" y="1208.6" fill="#151349" stroke="#151349" stroke-width="40" stroke-miterlimit="10" width="1790.9" height="500"/>
<text transform="matrix(1 0 0 1 944.772 792.9973)" fill="#151349" font-family="'Montserrat-Bold'" font-size="250">74 Stars</text>
<line fill="none" stroke="#151349" stroke-width="40" stroke-miterlimit="10" x1="2153" y1="1458.6" x2="2521" y2="1458.6"/>
<line fill="none" stroke="#151349" stroke-width="40" stroke-miterlimit="10" x1="2535" y1="1444.5" x2="2421.2" y2="1558.3"/>
<line fill="none" stroke="#151349" stroke-width="40" stroke-miterlimit="10" x1="2521" y1="1458.6" x2="2421.2" y2="1358.8"/>
<line fill="none" stroke="#FFFFFF" stroke-width="40" stroke-miterlimit="10" x1="2165.3" y1="1458.6" x2="2369.3" y2="1458.6"/>
<text transform="matrix(1 0 0 1 793.7708 1511.3896)" fill="#FFFFFF" font-family="'Montserrat-Bold'" font-size="150">4 Constellations</text>
<line fill="none" stroke="#FFFFFF" stroke-width="6" stroke-miterlimit="10" x1="738" y1="1612" x2="1064" y2="1652"/>
<circle fill="#FFFFFF" cx="703" cy="1610" r="15"/>
<line fill="none" stroke="#FFFFFF" stroke-width="6" stroke-miterlimit="10" x1="688" y1="1558.3" x2="617.3" y2="1300.3"/>
<line fill="none" stroke="#FFFFFF" stroke-width="6" stroke-miterlimit="10" x1="690" y1="1652" x2="638" y2="1770"/>
<line fill="none" stroke="#FFFFFF" stroke-width="6" stroke-miterlimit="10" x1="581" y1="1284" x2="478" y2="1408.7"/>
<line fill="none" stroke="#FFFFFF" stroke-width="6" stroke-miterlimit="10" x1="1732" y1="1384.5" x2="1550" y2="1286.5"/>
<circle fill="#FFFFFF" cx="606" cy="1258" r="21"/>
<line fill="none" stroke="#FFFFFF" stroke-width="6" stroke-miterlimit="10" x1="644.7" y1="1258.2" x2="831.3" y2="1309.8"/>
<circle fill="#FFFFFF" cx="884.6" cy="1318.2" r="28.1"/>
<line fill="none" stroke="#FFFFFF" stroke-width="6" stroke-miterlimit="10" x1="927.9" y1="1290.1" x2="1139.5" y2="1159.6"/>
<polygon fill="#151349" points="738,541.6 770.8,608 844,618.7 791,670.4 803.5,743.3 738,708.9 672.5,743.3 685,670.4 632,618.7 
	705.2,608 "/>
<polygon opacity="5.000000e-02" fill="#151349" points="738,819.3 770.8,885.7 844,896.3 791,948 685,948 632,896.3 705.2,885.7 "/>
<polygon opacity="5.000000e-02" fill="#151349" points="1073,819.3 1105.8,885.7 1179,896.3 1126,948 1020,948 967,896.3 
	1040.2,885.7 "/>
<polygon opacity="5.000000e-02" fill="#151349" points="1408,819.3 1440.8,885.7 1514,896.3 1461,948 1355,948 1302,896.3 
	1375.2,885.7 "/>
<polygon opacity="5.000000e-02" fill="#151349" points="1743,819.3 1775.8,885.7 1849,896.3 1796,948 1690,948 1637,896.3 
	1710.2,885.7 "/>
<polygon opacity="5.000000e-02" fill="#151349" points="2078,819.3 2110.8,885.7 2184,896.3 2131,948 2025,948 1972,896.3 
	2045.2,885.7 "/>
<polygon opacity="5.000000e-02" fill="#151349" points="1408,541.6 1440.8,608 1514,618.7 1461,670.4 1473.5,743.3 1408,708.9 
	1342.5,743.3 1355,670.4 1302,618.7 1375.2,608 "/>
<polygon opacity="5.000000e-02" fill="#151349" points="1743,541.6 1775.8,608 1849,618.7 1796,670.4 1808.5,743.3 1743,708.9 
	1677.5,743.3 1690,670.4 1637,618.7 1710.2,608 "/>
<polygon opacity="5.000000e-02" fill="#151349" points="2078,541.6 2110.8,608 2184,618.7 2131,670.4 2143.5,743.3 2078,708.9 
	2012.5,743.3 2025,670.4 1972,618.7 2045.2,608 "/>
<circle fill="#FFFFFF" cx="1514" cy="1269" r="21"/>
<line fill="none" stroke="#FFFFFF" stroke-width="6" stroke-miterlimit="10" x1="1538" y1="1228.5" x2="1614" y2="1134"/>
<line fill="none" stroke="#FFFFFF" stroke-width="6" stroke-miterlimit="10" x1="1472.5" y1="1240" x2="1362" y2="1179.4"/>
<rect x="557.2" y="1941.9" fill="#FFFFFF" stroke="#151349" stroke-width="40" stroke-miterlimit="10" width="1790.9" height="500"/>
<rect x="2317.4" y="2130.4" fill="#FFFFFF" width="61.5" height="122.9"/>
<line fill="none" stroke="#151349" stroke-width="40" stroke-miterlimit="10" x1="2158.9" y1="2191.9" x2="2526.9" y2="2191.9"/>
<line fill="none" stroke="#151349" stroke-width="40" stroke-miterlimit="10" x1="2540.9" y1="2177.8" x2="2427.1" y2="2291.6"/>
<line fill="none" stroke="#151349" stroke-width="40" stroke-miterlimit="10" x1="2526.9" y1="2191.9" x2="2427.1" y2="2092.1"/>
<rect x="841.9" y="2070.8" fill="#151349" width="250.1" height="250.1"/>
<text transform="matrix(1 0 0 1 1179.0403 2266.8647)" fill="#151349" font-family="'Montserrat-Bold'" font-size="200">Badges</text>
<line fill="none" stroke="#FFFFFF" stroke-width="6" stroke-miterlimit="10" x1="1771.5" y1="1380" x2="1853.3" y2="1237"/>
<circle fill="#FFFFFF" cx="1863.9" cy="1215.9" r="8.1"/>
<text transform="matrix(1 0 0 1 869 2266.7051)" fill="#FFFFFF" font-family="'Montserrat-Bold'" font-size="200">12</text>
<text transform="matrix(1 0 0 1 1179.0403 2020.8646)" opacity="5.000000e-02" fill="#151349" font-family="'Montserrat-Bold'" font-size="200">Badges</text>
<text transform="matrix(1 0 0 1 1179.0402 2497.6785)" opacity="5.000000e-02" fill="#151349" font-family="'Montserrat-Bold'" font-size="200">Badges</text>
<rect x="845.6" y="2421.2" transform="matrix(0.7071 0.7071 -0.7071 0.7071 2084.7778 59.4679)" fill="#151349" width="250.1" height="250.1"/>
<rect x="812.6" y="2462" fill="#FFFFFF" width="1165.4" height="112"/>
<rect x="724.1" y="2511.5" fill="#FFFFFF" width="444" height="242"/>
<polygon fill="#151349" points="967,2019.7 790.1,1842.9 1143.8,1842.9 "/>
<rect x="761.6" y="1785.4" fill="#FFFFFF" width="1244.4" height="136.5"/>
<circle fill="#FFFFFF" cx="1092" cy="1654" r="8.1"/>
<line fill="none" stroke="#FFFFFF" stroke-width="6" stroke-miterlimit="10" x1="1102.8" y1="1676.6" x2="1135.3" y2="1738"/>
<line fill="none" stroke="#FFFFFF" stroke-width="6" stroke-miterlimit="10" x1="2184" y1="1335.5" x2="1887" y2="1230"/>
<circle fill="#FFFFFF" cx="2218" cy="1346.3" r="15"/>
<circle fill="#FFFFFF" cx="2277" cy="1577.3" r="26.6"/>
<circle fill="#FFFFFF" cx="1831.9" cy="1640" r="8.1"/>
<line fill="none" stroke="#FFFFFF" stroke-width="6" stroke-miterlimit="10" x1="2255" y1="1618.1" x2="2194" y2="1750"/>
<line fill="none" stroke="#FFFFFF" stroke-width="6" stroke-miterlimit="10" x1="1840" y1="1662" x2="1887" y2="1780"/>
<line fill="none" stroke="#FFFFFF" stroke-width="6" stroke-miterlimit="10" x1="1798" y1="1640" x2="1626" y2="1648.1"/>
<circle fill="#FFFFFF" cx="1591" cy="1652" r="15"/>
<line fill="none" stroke="#FFFFFF" stroke-width="6" stroke-miterlimit="10" x1="1550" y1="1645.9" x2="1362" y2="1600.3"/>
<circle fill="#FFFFFF" cx="1756.1" cy="1406.4" r="15"/>
<rect x="1738.5" y="1428.6" fill="#151349" width="33" height="11.6"/>
<circle fill="#FFFFFF" cx="1332" cy="1585.3" r="17.9"/>
<line fill="none" x1="1039.2" y1="2422.1" x2="1039.2" y2="1957.5"/>
</svg>
