<?xml version="1.0" encoding="utf-8"?>
<!-- Generator: Adobe Illustrator 18.0.0, SVG Export Plug-In . SVG Version: 6.00 Build 0)  -->
<!DOCTYPE svg PUBLIC "-//W3C//DTD SVG 1.1//EN" "http://www.w3.org/Graphics/SVG/1.1/DTD/svg11.dtd">
<svg version="1.1" id="Layer_1" xmlns="http://www.w3.org/2000/svg" xmlns:xlink="http://www.w3.org/1999/xlink" x="0px" y="0px"
	 viewBox="536.5 1482.6 2837.8 762.4" enable-background="new 536.5 1482.6 2837.8 762.4" xml:space="preserve">
<rect x="538.4" y="1484.5" display="none" fill="#F7F7F7" width="2834.6" height="758.6"/>
<polygon fill="#EAEAEA" points="1289.4,1618.1 1335.5,1711.4 1438.3,1726.4 1363.8,1799.1 1381.4,1901.5 1289.4,1853.1 
	1197.4,1901.5 1214.9,1799.1 1140.5,1726.4 1243.3,1711.4 "/>
<polygon fill="#151349" points="818.8,1618.1 864.9,1711.4 967.7,1726.4 893.2,1799.1 910.8,1901.5 818.8,1853.1 726.8,1901.5 
	744.3,1799.1 669.9,1726.4 772.7,1711.4 "/>
<polygon fill="#EAEAEA" points="818.8,2008.2 864.9,2101.5 967.7,2116.4 893.2,2189 744.3,2189 669.9,2116.4 772.7,2101.5 "/>
<polygon fill="#EAEAEA" points="1289.4,2008.2 1335.5,2101.5 1438.3,2116.4 1363.8,2189 1214.9,2189 1140.5,2116.4 1243.3,2101.5 
	"/>
<polygon fill="#EAEAEA" points="1760,2008.2 1806,2101.5 1908.9,2116.4 1834.4,2189 1685.5,2189 1611.1,2116.4 1713.9,2101.5 "/>
<polygon fill="#EAEAEA" points="2230.6,2008.2 2276.6,2101.5 2379.5,2116.4 2305,2189 2156.1,2189 2081.7,2116.4 2184.5,2101.5 "/>
<polygon fill="#EAEAEA" points="2701.2,2008.2 2747.2,2101.5 2850.1,2116.4 2775.6,2189 2626.7,2189 2552.3,2116.4 2655.1,2101.5 
	"/>
<polygon fill="#EAEAEA" points="1760,1618.1 1806,1711.4 1908.9,1726.4 1834.4,1799.1 1852,1901.5 1760,1853.1 1668,1901.5 
	1685.5,1799.1 1611.1,1726.4 1713.9,1711.4 "/>
<polygon fill="#EAEAEA" points="2230.6,1618.1 2276.6,1711.4 2379.5,1726.4 2305,1799.1 2322.6,1901.5 2230.6,1853.1 2138.6,1901.5 
	2156.1,1799.1 2081.7,1726.4 2184.5,1711.4 "/>
<polygon fill="#EAEAEA" points="2701.2,1618.1 2747.2,1711.4 2850.1,1726.4 2775.6,1799.1 2793.2,1901.5 2701.2,1853.1 
	2609.1,1901.5 2626.7,1799.1 2552.3,1726.4 2655.1,1711.4 "/>
<g enable-background="new    ">
	<path fill="#151349" d="M1672.8,1967.6c-18.1-5.3-32.7-12.1-43.7-20.5l19.3-42.8c10.5,7.7,23.1,13.9,37.6,18.6
		c14.5,4.7,29,7,43.5,7c16.2,0,28.1-2.4,35.8-7.2c7.7-4.8,11.6-11.2,11.6-19.1c0-5.8-2.3-10.7-6.8-14.6s-10.4-7-17.6-9.3
		c-7.1-2.3-16.8-4.9-29-7.7c-18.7-4.4-34.1-8.9-46-13.3c-11.9-4.4-22.2-11.6-30.7-21.4c-8.5-9.8-12.8-22.9-12.8-39.3
		c0-14.3,3.9-27.2,11.6-38.8c7.7-11.6,19.4-20.8,34.9-27.6c15.6-6.8,34.6-10.2,57.1-10.2c15.7,0,31,1.9,46,5.6
		c15,3.7,28.1,9.1,39.3,16.2l-17.6,43.2c-22.7-12.9-45.4-19.3-68.1-19.3c-15.9,0-27.7,2.6-35.3,7.7c-7.6,5.2-11.4,11.9-11.4,20.4
		c0,8.4,4.4,14.7,13.2,18.8c8.8,4.1,22.2,8.1,40.2,12.1c18.7,4.5,34.1,8.9,46,13.3c11.9,4.5,22.2,11.5,30.7,21.1
		c8.5,9.6,12.8,22.6,12.8,39c0,14-3.9,26.9-11.8,38.5c-7.8,11.6-19.6,20.8-35.3,27.6c-15.7,6.8-34.8,10.2-57.2,10.2
		C1709.8,1975.5,1691,1972.9,1672.8,1967.6z"/>
	<path fill="#151349" d="M1990.5,1962.2c-5.4,4-12,7-19.8,9c-7.8,2-16.1,3-24.8,3c-22.5,0-39.9-5.7-52.2-17.2
		c-12.3-11.5-18.4-28.3-18.4-50.6v-77.6h-29.1v-42.1h29.1v-46h54.8v46h47.1v42.1h-47.1v76.9c0,8,2,14.1,6.1,18.4
		c4.1,4.3,9.9,6.5,17.4,6.5c8.7,0,16-2.3,22.1-7L1990.5,1962.2z"/>
	<path fill="#151349" d="M2165,1800.5c15.7,13.9,23.5,34.9,23.5,63v107.8h-51.3v-23.5c-10.3,17.6-29.5,26.3-57.6,26.3
		c-14.5,0-27.1-2.5-37.8-7.4c-10.7-4.9-18.8-11.7-24.4-20.4c-5.6-8.7-8.4-18.5-8.4-29.5c0-17.6,6.6-31.4,19.8-41.4
		c13.2-10.1,33.7-15.1,61.3-15.1h43.5c0-11.9-3.6-21.1-10.9-27.6c-7.3-6.4-18.1-9.7-32.7-9.7c-10.1,0-20,1.6-29.7,4.7
		c-9.7,3.2-18,7.4-24.8,12.8l-19.7-38.3c10.3-7.3,22.7-12.9,37.1-16.9c14.4-4,29.2-6,44.4-6
		C2126.9,1779.6,2149.3,1786.5,2165,1800.5z M2118.3,1930.7c7.3-4.3,12.4-10.7,15.5-19.1v-19.3h-37.6c-22.5,0-33.7,7.4-33.7,22.1
		c0,7,2.7,12.6,8.3,16.7c5.5,4.1,13,6.1,22.7,6.1C2102.7,1937.2,2111,1935.1,2118.3,1930.7z"/>
	<path fill="#151349" d="M2316.9,1786.6c11.1-4.7,23.9-7,38.5-7v50.6c-6.1-0.5-10.2-0.7-12.3-0.7c-15.7,0-28,4.4-36.9,13.2
		c-8.9,8.8-13.3,21.9-13.3,39.5v89.2h-54.8v-188.9h52.3v24.9C2296.9,1798.2,2305.8,1791.3,2316.9,1786.6z"/>
	<path fill="#151349" d="M2406.3,1968.3c-15-3.9-26.9-8.7-35.8-14.6l18.3-39.3c8.4,5.4,18.6,9.8,30.6,13.2
		c11.9,3.4,23.6,5.1,35.1,5.1c23.2,0,34.8-5.7,34.8-17.2c0-5.4-3.2-9.2-9.5-11.6c-6.3-2.3-16-4.3-29.1-6c-15.5-2.3-28.2-5-38.3-8.1
		c-10.1-3-18.8-8.4-26.2-16.2c-7.4-7.7-11.1-18.7-11.1-33c0-11.9,3.5-22.5,10.4-31.8c6.9-9.2,17-16.4,30.2-21.6
		c13.2-5.1,28.9-7.7,46.9-7.7c13.3,0,26.6,1.5,39.9,4.4c13.2,2.9,24.2,7,32.8,12.1l-18.3,39c-16.6-9.4-34.8-14-54.4-14
		c-11.7,0-20.5,1.6-26.3,4.9c-5.9,3.3-8.8,7.5-8.8,12.6c0,5.9,3.2,10,9.5,12.3c6.3,2.3,16.4,4.6,30.2,6.7
		c15.5,2.6,28.1,5.3,37.9,8.3c9.8,2.9,18.4,8.3,25.6,16c7.3,7.7,10.9,18.5,10.9,32.3c0,11.7-3.5,22.1-10.5,31.3
		s-17.3,16.2-30.7,21.2c-13.5,5-29.4,7.6-47.9,7.6C2436.6,1974.1,2421.3,1972.2,2406.3,1968.3z"/>
</g>
<rect x="566.5" y="1512.6" fill="none" stroke="#151349" stroke-width="60" stroke-miterlimit="10" width="2515.8" height="702.4"/>
<rect x="3039" y="1777.6" fill="#F7F7F7" width="86.4" height="172.6"/>
<g>
	
		<rect x="3243.2" y="1811.1" transform="matrix(0.7071 0.7071 -0.7071 0.7071 2319.2263 -1750.9294)" fill="#151349" width="60" height="226.1"/>
	
		<rect x="3164.2" y="1766.8" transform="matrix(0.7071 0.7071 -0.7071 0.7071 2226.3171 -1781.2091)" fill="#151349" width="198.1" height="60"/>
	<rect x="2816.3" y="1833.8" fill="#151349" width="516.9" height="60"/>
</g>
</svg>
