<?xml version="1.0" encoding="utf-8"?>
<!-- Generator: Adobe Illustrator 18.0.0, SVG Export Plug-In . SVG Version: 6.00 Build 0)  -->
<!DOCTYPE svg PUBLIC "-//W3C//DTD SVG 1.1//EN" "http://www.w3.org/Graphics/SVG/1.1/DTD/svg11.dtd">
<svg version="1.1" id="Layer_1" xmlns="http://www.w3.org/2000/svg" xmlns:xlink="http://www.w3.org/1999/xlink" x="0px" y="0px"
	 viewBox="0 0 1412.5 2532.4" enable-background="new 0 0 1412.5 2532.4" xml:space="preserve">
<text transform="matrix(1 0 0 1 85.5982 367.9562)"><tspan x="0" y="0" fill="#141449" font-family="'Montserrat-Bold'" font-size="140">Stars</tspan><tspan x="371.3" y="0" fill="#141449" font-family="'Montserrat-Bold'" font-size="100"> </tspan></text>
<g>
	<rect x="96.9" y="133.4" fill="#141449" width="101.7" height="16"/>
	
		<rect x="106.1" y="91.9" transform="matrix(0.7071 0.7071 -0.7071 0.7071 121.2289 -44.3041)" fill="#141449" width="16" height="64.6"/>
	
		<rect x="88.6" y="153.4" transform="matrix(0.7071 0.7071 -0.7071 0.7071 148.383 -35.3859)" fill="#141449" width="56.7" height="16"/>
</g>
<text transform="matrix(1 0 0 1 96.8612 492.4447)" fill="#141449" font-family="'Montserrat-Regular'" font-size="80">7 / 120</text>
<linearGradient id="SVGID_1_" gradientUnits="userSpaceOnUse" x1="1271.9783" y1="205.3767" x2="1271.9783" y2="77.3767">
	<stop  offset="0" style="stop-color:#141449"/>
	<stop  offset="1" style="stop-color:#000000"/>
</linearGradient>
<circle fill="url(#SVGID_1_)" cx="1272" cy="141.4" r="64"/>
<text transform="matrix(1 0 0 1 1260.4996 175.3763)" fill="#FFFFFF" font-family="'Montserrat-Bold'" font-size="80">i</text>
<polygon fill="#E7E7E7" points="184.3,828.5 212.7,886.1 276.3,895.3 230.3,940.1 241.2,1003.4 184.3,973.6 127.5,1003.4 
	138.3,940.1 92.3,895.3 155.9,886.1 "/>
<polygon fill="#E7E7E7" points="445.3,828.5 473.7,886.1 537.3,895.3 491.3,940.1 502.1,1003.4 445.3,973.6 388.4,1003.4 
	399.3,940.1 353.3,895.3 416.9,886.1 "/>
<polygon fill="#E7E7E7" points="445.3,828.5 473.7,886.1 537.3,895.3 491.3,940.1 502.1,1003.4 445.3,973.6 388.4,1003.4 
	399.3,940.1 353.3,895.3 416.9,886.1 "/>
<polygon fill="#E7E7E7" points="706.2,828.5 734.7,886.1 798.2,895.3 752.2,940.1 763.1,1003.4 706.2,973.6 649.4,1003.4 
	660.3,940.1 614.3,895.3 677.8,886.1 "/>
<polygon fill="#E7E7E7" points="706.2,828.5 734.7,886.1 798.2,895.3 752.2,940.1 763.1,1003.4 706.2,973.6 649.4,1003.4 
	660.3,940.1 614.3,895.3 677.8,886.1 "/>
<polygon fill="#E7E7E7" points="967.2,828.5 995.6,886.1 1059.2,895.3 1013.2,940.1 1024.1,1003.4 967.2,973.6 910.4,1003.4 
	921.2,940.1 875.2,895.3 938.8,886.1 "/>
<polygon fill="#E7E7E7" points="967.2,828.5 995.6,886.1 1059.2,895.3 1013.2,940.1 1024.1,1003.4 967.2,973.6 910.4,1003.4 
	921.2,940.1 875.2,895.3 938.8,886.1 "/>
<polygon fill="#E7E7E7" points="1228.2,828.5 1256.6,886.1 1320.2,895.3 1274.2,940.1 1285,1003.4 1228.2,973.6 1171.3,1003.4 
	1182.2,940.1 1136.2,895.3 1199.8,886.1 "/>
<polygon fill="#E7E7E7" points="184.3,1077.5 212.7,1135.1 276.3,1144.3 230.3,1189.2 241.2,1252.5 184.3,1222.6 127.5,1252.5 
	138.3,1189.2 92.3,1144.3 155.9,1135.1 "/>
<polygon fill="#E7E7E7" points="445.3,1077.5 473.7,1135.1 537.3,1144.3 491.3,1189.2 502.1,1252.5 445.3,1222.6 388.4,1252.5 
	399.3,1189.2 353.3,1144.3 416.9,1135.1 "/>
<polygon fill="#E7E7E7" points="445.3,1077.5 473.7,1135.1 537.3,1144.3 491.3,1189.2 502.1,1252.5 445.3,1222.6 388.4,1252.5 
	399.3,1189.2 353.3,1144.3 416.9,1135.1 "/>
<polygon fill="#E7E7E7" points="706.2,1077.5 734.7,1135.1 798.2,1144.3 752.2,1189.2 763.1,1252.5 706.2,1222.6 649.4,1252.5 
	660.3,1189.2 614.3,1144.3 677.8,1135.1 "/>
<polygon fill="#E7E7E7" points="706.2,1077.5 734.7,1135.1 798.2,1144.3 752.2,1189.2 763.1,1252.5 706.2,1222.6 649.4,1252.5 
	660.3,1189.2 614.3,1144.3 677.8,1135.1 "/>
<polygon fill="#E7E7E7" points="967.2,1077.5 995.6,1135.1 1059.2,1144.3 1013.2,1189.2 1024.1,1252.5 967.2,1222.6 910.4,1252.5 
	921.2,1189.2 875.2,1144.3 938.8,1135.1 "/>
<polygon fill="#E7E7E7" points="967.2,1077.5 995.6,1135.1 1059.2,1144.3 1013.2,1189.2 1024.1,1252.5 967.2,1222.6 910.4,1252.5 
	921.2,1189.2 875.2,1144.3 938.8,1135.1 "/>
<polygon fill="#E7E7E7" points="1228.2,1077.5 1256.6,1135.1 1320.2,1144.3 1274.2,1189.2 1285,1252.5 1228.2,1222.6 1171.3,1252.5 
	1182.2,1189.2 1136.2,1144.3 1199.8,1135.1 "/>
<polygon fill="#E7E7E7" points="184.3,1077.5 212.7,1135.1 276.3,1144.3 230.3,1189.2 241.2,1252.5 184.3,1222.6 127.5,1252.5 
	138.3,1189.2 92.3,1144.3 155.9,1135.1 "/>
<polygon fill="#E7E7E7" points="445.3,1077.5 473.7,1135.1 537.3,1144.3 491.3,1189.2 502.1,1252.5 445.3,1222.6 388.4,1252.5 
	399.3,1189.2 353.3,1144.3 416.9,1135.1 "/>
<polygon fill="#E7E7E7" points="445.3,1077.5 473.7,1135.1 537.3,1144.3 491.3,1189.2 502.1,1252.5 445.3,1222.6 388.4,1252.5 
	399.3,1189.2 353.3,1144.3 416.9,1135.1 "/>
<polygon fill="#E7E7E7" points="706.2,1077.5 734.7,1135.1 798.2,1144.3 752.2,1189.2 763.1,1252.5 706.2,1222.6 649.4,1252.5 
	660.3,1189.2 614.3,1144.3 677.8,1135.1 "/>
<polygon fill="#E7E7E7" points="706.2,1077.5 734.7,1135.1 798.2,1144.3 752.2,1189.2 763.1,1252.5 706.2,1222.6 649.4,1252.5 
	660.3,1189.2 614.3,1144.3 677.8,1135.1 "/>
<polygon fill="#E7E7E7" points="967.2,1077.5 995.6,1135.1 1059.2,1144.3 1013.2,1189.2 1024.1,1252.5 967.2,1222.6 910.4,1252.5 
	921.2,1189.2 875.2,1144.3 938.8,1135.1 "/>
<polygon fill="#E7E7E7" points="967.2,1077.5 995.6,1135.1 1059.2,1144.3 1013.2,1189.2 1024.1,1252.5 967.2,1222.6 910.4,1252.5 
	921.2,1189.2 875.2,1144.3 938.8,1135.1 "/>
<polygon fill="#E7E7E7" points="1228.2,1077.5 1256.6,1135.1 1320.2,1144.3 1274.2,1189.2 1285,1252.5 1228.2,1222.6 1171.3,1252.5 
	1182.2,1189.2 1136.2,1144.3 1199.8,1135.1 "/>
<polygon fill="#E7E7E7" points="184.3,1326.5 212.7,1384.1 276.3,1393.3 230.3,1438.2 241.2,1501.5 184.3,1471.6 127.5,1501.5 
	138.3,1438.2 92.3,1393.3 155.9,1384.1 "/>
<polygon fill="#E7E7E7" points="445.3,1326.5 473.7,1384.1 537.3,1393.3 491.3,1438.2 502.1,1501.5 445.3,1471.6 388.4,1501.5 
	399.3,1438.2 353.3,1393.3 416.9,1384.1 "/>
<polygon fill="#E7E7E7" points="445.3,1326.5 473.7,1384.1 537.3,1393.3 491.3,1438.2 502.1,1501.5 445.3,1471.6 388.4,1501.5 
	399.3,1438.2 353.3,1393.3 416.9,1384.1 "/>
<polygon fill="#E7E7E7" points="706.2,1326.5 734.7,1384.1 798.2,1393.3 752.2,1438.2 763.1,1501.5 706.2,1471.6 649.4,1501.5 
	660.3,1438.2 614.3,1393.3 677.8,1384.1 "/>
<polygon fill="#E7E7E7" points="706.2,1326.5 734.7,1384.1 798.2,1393.3 752.2,1438.2 763.1,1501.5 706.2,1471.6 649.4,1501.5 
	660.3,1438.2 614.3,1393.3 677.8,1384.1 "/>
<polygon fill="#E7E7E7" points="967.2,1326.5 995.6,1384.1 1059.2,1393.3 1013.2,1438.2 1024.1,1501.5 967.2,1471.6 910.4,1501.5 
	921.2,1438.2 875.2,1393.3 938.8,1384.1 "/>
<polygon fill="#E7E7E7" points="967.2,1326.5 995.6,1384.1 1059.2,1393.3 1013.2,1438.2 1024.1,1501.5 967.2,1471.6 910.4,1501.5 
	921.2,1438.2 875.2,1393.3 938.8,1384.1 "/>
<polygon fill="#E7E7E7" points="1228.2,1326.5 1256.6,1384.1 1320.2,1393.3 1274.2,1438.2 1285,1501.5 1228.2,1471.6 1171.3,1501.5 
	1182.2,1438.2 1136.2,1393.3 1199.8,1384.1 "/>
<polygon fill="#E7E7E7" points="184.3,1326.5 212.7,1384.1 276.3,1393.3 230.3,1438.2 241.2,1501.5 184.3,1471.6 127.5,1501.5 
	138.3,1438.2 92.3,1393.3 155.9,1384.1 "/>
<polygon fill="#E7E7E7" points="445.3,1326.5 473.7,1384.1 537.3,1393.3 491.3,1438.2 502.1,1501.5 445.3,1471.6 388.4,1501.5 
	399.3,1438.2 353.3,1393.3 416.9,1384.1 "/>
<polygon fill="#E7E7E7" points="445.3,1326.5 473.7,1384.1 537.3,1393.3 491.3,1438.2 502.1,1501.5 445.3,1471.6 388.4,1501.5 
	399.3,1438.2 353.3,1393.3 416.9,1384.1 "/>
<polygon fill="#E7E7E7" points="706.2,1326.5 734.7,1384.1 798.2,1393.3 752.2,1438.2 763.1,1501.5 706.2,1471.6 649.4,1501.5 
	660.3,1438.2 614.3,1393.3 677.8,1384.1 "/>
<polygon fill="#E7E7E7" points="706.2,1326.5 734.7,1384.1 798.2,1393.3 752.2,1438.2 763.1,1501.5 706.2,1471.6 649.4,1501.5 
	660.3,1438.2 614.3,1393.3 677.8,1384.1 "/>
<polygon fill="#E7E7E7" points="967.2,1326.5 995.6,1384.1 1059.2,1393.3 1013.2,1438.2 1024.1,1501.5 967.2,1471.6 910.4,1501.5 
	921.2,1438.2 875.2,1393.3 938.8,1384.1 "/>
<polygon fill="#E7E7E7" points="967.2,1326.5 995.6,1384.1 1059.2,1393.3 1013.2,1438.2 1024.1,1501.5 967.2,1471.6 910.4,1501.5 
	921.2,1438.2 875.2,1393.3 938.8,1384.1 "/>
<polygon fill="#E7E7E7" points="1228.2,1326.5 1256.6,1384.1 1320.2,1393.3 1274.2,1438.2 1285,1501.5 1228.2,1471.6 1171.3,1501.5 
	1182.2,1438.2 1136.2,1393.3 1199.8,1384.1 "/>
<polygon fill="#E7E7E7" points="184.3,1575.5 212.7,1633.1 276.3,1642.4 230.3,1687.2 241.2,1750.5 184.3,1720.6 127.5,1750.5 
	138.3,1687.2 92.3,1642.4 155.9,1633.1 "/>
<polygon fill="#E7E7E7" points="445.3,1575.5 473.7,1633.1 537.3,1642.4 491.3,1687.2 502.1,1750.5 445.3,1720.6 388.4,1750.5 
	399.3,1687.2 353.3,1642.4 416.9,1633.1 "/>
<polygon fill="#E7E7E7" points="445.3,1575.5 473.7,1633.1 537.3,1642.4 491.3,1687.2 502.1,1750.5 445.3,1720.6 388.4,1750.5 
	399.3,1687.2 353.3,1642.4 416.9,1633.1 "/>
<polygon fill="#E7E7E7" points="706.2,1575.5 734.7,1633.1 798.2,1642.4 752.2,1687.2 763.1,1750.5 706.2,1720.6 649.4,1750.5 
	660.3,1687.2 614.3,1642.4 677.8,1633.1 "/>
<polygon fill="#E7E7E7" points="706.2,1575.5 734.7,1633.1 798.2,1642.4 752.2,1687.2 763.1,1750.5 706.2,1720.6 649.4,1750.5 
	660.3,1687.2 614.3,1642.4 677.8,1633.1 "/>
<polygon fill="#E7E7E7" points="967.2,1575.5 995.6,1633.1 1059.2,1642.4 1013.2,1687.2 1024.1,1750.5 967.2,1720.6 910.4,1750.5 
	921.2,1687.2 875.2,1642.4 938.8,1633.1 "/>
<polygon fill="#E7E7E7" points="967.2,1575.5 995.6,1633.1 1059.2,1642.4 1013.2,1687.2 1024.1,1750.5 967.2,1720.6 910.4,1750.5 
	921.2,1687.2 875.2,1642.4 938.8,1633.1 "/>
<polygon fill="#E7E7E7" points="1228.2,1575.5 1256.6,1633.1 1320.2,1642.4 1274.2,1687.2 1285,1750.5 1228.2,1720.6 1171.3,1750.5 
	1182.2,1687.2 1136.2,1642.4 1199.8,1633.1 "/>
<polygon fill="#E7E7E7" points="184.3,1575.5 212.7,1633.1 276.3,1642.4 230.3,1687.2 241.2,1750.5 184.3,1720.6 127.5,1750.5 
	138.3,1687.2 92.3,1642.4 155.9,1633.1 "/>
<polygon fill="#E7E7E7" points="445.3,1575.5 473.7,1633.1 537.3,1642.4 491.3,1687.2 502.1,1750.5 445.3,1720.6 388.4,1750.5 
	399.3,1687.2 353.3,1642.4 416.9,1633.1 "/>
<polygon fill="#E7E7E7" points="445.3,1575.5 473.7,1633.1 537.3,1642.4 491.3,1687.2 502.1,1750.5 445.3,1720.6 388.4,1750.5 
	399.3,1687.2 353.3,1642.4 416.9,1633.1 "/>
<polygon fill="#E7E7E7" points="706.2,1575.5 734.7,1633.1 798.2,1642.4 752.2,1687.2 763.1,1750.5 706.2,1720.6 649.4,1750.5 
	660.3,1687.2 614.3,1642.4 677.8,1633.1 "/>
<polygon fill="#E7E7E7" points="706.2,1575.5 734.7,1633.1 798.2,1642.4 752.2,1687.2 763.1,1750.5 706.2,1720.6 649.4,1750.5 
	660.3,1687.2 614.3,1642.4 677.8,1633.1 "/>
<polygon fill="#E7E7E7" points="967.2,1575.5 995.6,1633.1 1059.2,1642.4 1013.2,1687.2 1024.1,1750.5 967.2,1720.6 910.4,1750.5 
	921.2,1687.2 875.2,1642.4 938.8,1633.1 "/>
<polygon fill="#E7E7E7" points="967.2,1575.5 995.6,1633.1 1059.2,1642.4 1013.2,1687.2 1024.1,1750.5 967.2,1720.6 910.4,1750.5 
	921.2,1687.2 875.2,1642.4 938.8,1633.1 "/>
<polygon fill="#E7E7E7" points="1228.2,1575.5 1256.6,1633.1 1320.2,1642.4 1274.2,1687.2 1285,1750.5 1228.2,1720.6 1171.3,1750.5 
	1182.2,1687.2 1136.2,1642.4 1199.8,1633.1 "/>
<polygon fill="#E7E7E7" points="184.3,1824.5 212.7,1882.1 276.3,1891.4 230.3,1936.2 241.2,1999.5 184.3,1969.6 127.5,1999.5 
	138.3,1936.2 92.3,1891.4 155.9,1882.1 "/>
<polygon fill="#E7E7E7" points="445.3,1824.5 473.7,1882.1 537.3,1891.4 491.3,1936.2 502.1,1999.5 445.3,1969.6 388.4,1999.5 
	399.3,1936.2 353.3,1891.4 416.9,1882.1 "/>
<polygon fill="#E7E7E7" points="445.3,1824.5 473.7,1882.1 537.3,1891.4 491.3,1936.2 502.1,1999.5 445.3,1969.6 388.4,1999.5 
	399.3,1936.2 353.3,1891.4 416.9,1882.1 "/>
<polygon fill="#E7E7E7" points="706.2,1824.5 734.7,1882.1 798.2,1891.4 752.2,1936.2 763.1,1999.5 706.2,1969.6 649.4,1999.5 
	660.3,1936.2 614.3,1891.4 677.8,1882.1 "/>
<polygon fill="#E7E7E7" points="706.2,1824.5 734.7,1882.1 798.2,1891.4 752.2,1936.2 763.1,1999.5 706.2,1969.6 649.4,1999.5 
	660.3,1936.2 614.3,1891.4 677.8,1882.1 "/>
<polygon fill="#E7E7E7" points="967.2,1824.5 995.6,1882.1 1059.2,1891.4 1013.2,1936.2 1024.1,1999.5 967.2,1969.6 910.4,1999.5 
	921.2,1936.2 875.2,1891.4 938.8,1882.1 "/>
<polygon fill="#E7E7E7" points="967.2,1824.5 995.6,1882.1 1059.2,1891.4 1013.2,1936.2 1024.1,1999.5 967.2,1969.6 910.4,1999.5 
	921.2,1936.2 875.2,1891.4 938.8,1882.1 "/>
<polygon fill="#E7E7E7" points="1228.2,1824.5 1256.6,1882.1 1320.2,1891.4 1274.2,1936.2 1285,1999.5 1228.2,1969.6 1171.3,1999.5 
	1182.2,1936.2 1136.2,1891.4 1199.8,1882.1 "/>
<polygon fill="#E7E7E7" points="184.3,1824.5 212.7,1882.1 276.3,1891.4 230.3,1936.2 241.2,1999.5 184.3,1969.6 127.5,1999.5 
	138.3,1936.2 92.3,1891.4 155.9,1882.1 "/>
<polygon fill="#E7E7E7" points="445.3,1824.5 473.7,1882.1 537.3,1891.4 491.3,1936.2 502.1,1999.5 445.3,1969.6 388.4,1999.5 
	399.3,1936.2 353.3,1891.4 416.9,1882.1 "/>
<polygon fill="#E7E7E7" points="445.3,1824.5 473.7,1882.1 537.3,1891.4 491.3,1936.2 502.1,1999.5 445.3,1969.6 388.4,1999.5 
	399.3,1936.2 353.3,1891.4 416.9,1882.1 "/>
<polygon fill="#E7E7E7" points="706.2,1824.5 734.7,1882.1 798.2,1891.4 752.2,1936.2 763.1,1999.5 706.2,1969.6 649.4,1999.5 
	660.3,1936.2 614.3,1891.4 677.8,1882.1 "/>
<polygon fill="#E7E7E7" points="706.2,1824.5 734.7,1882.1 798.2,1891.4 752.2,1936.2 763.1,1999.5 706.2,1969.6 649.4,1999.5 
	660.3,1936.2 614.3,1891.4 677.8,1882.1 "/>
<polygon fill="#E7E7E7" points="967.2,1824.5 995.6,1882.1 1059.2,1891.4 1013.2,1936.2 1024.1,1999.5 967.2,1969.6 910.4,1999.5 
	921.2,1936.2 875.2,1891.4 938.8,1882.1 "/>
<polygon fill="#E7E7E7" points="967.2,1824.5 995.6,1882.1 1059.2,1891.4 1013.2,1936.2 1024.1,1999.5 967.2,1969.6 910.4,1999.5 
	921.2,1936.2 875.2,1891.4 938.8,1882.1 "/>
<polygon fill="#E7E7E7" points="1228.2,1824.5 1256.6,1882.1 1320.2,1891.4 1274.2,1936.2 1285,1999.5 1228.2,1969.6 1171.3,1999.5 
	1182.2,1936.2 1136.2,1891.4 1199.8,1882.1 "/>
<polygon fill="#E7E7E7" points="184.3,2073.6 212.7,2131.2 276.3,2140.4 230.3,2185.2 241.2,2248.6 184.3,2218.7 127.5,2248.6 
	138.3,2185.2 92.3,2140.4 155.9,2131.2 "/>
<polygon fill="#E7E7E7" points="445.3,2073.6 473.7,2131.2 537.3,2140.4 491.3,2185.2 502.1,2248.6 445.3,2218.7 388.4,2248.6 
	399.3,2185.2 353.3,2140.4 416.9,2131.2 "/>
<polygon fill="#E7E7E7" points="445.3,2073.6 473.7,2131.2 537.3,2140.4 491.3,2185.2 502.1,2248.6 445.3,2218.7 388.4,2248.6 
	399.3,2185.2 353.3,2140.4 416.9,2131.2 "/>
<polygon fill="#E7E7E7" points="706.2,2073.6 734.7,2131.2 798.2,2140.4 752.2,2185.2 763.1,2248.6 706.2,2218.7 649.4,2248.6 
	660.3,2185.2 614.3,2140.4 677.8,2131.2 "/>
<polygon fill="#E7E7E7" points="706.2,2073.6 734.7,2131.2 798.2,2140.4 752.2,2185.2 763.1,2248.6 706.2,2218.7 649.4,2248.6 
	660.3,2185.2 614.3,2140.4 677.8,2131.2 "/>
<polygon fill="#E7E7E7" points="967.2,2073.6 995.6,2131.2 1059.2,2140.4 1013.2,2185.2 1024.1,2248.6 967.2,2218.7 910.4,2248.6 
	921.2,2185.2 875.2,2140.4 938.8,2131.2 "/>
<polygon fill="#E7E7E7" points="967.2,2073.6 995.6,2131.2 1059.2,2140.4 1013.2,2185.2 1024.1,2248.6 967.2,2218.7 910.4,2248.6 
	921.2,2185.2 875.2,2140.4 938.8,2131.2 "/>
<polygon fill="#E7E7E7" points="1228.2,2073.6 1256.6,2131.2 1320.2,2140.4 1274.2,2185.2 1285,2248.6 1228.2,2218.7 1171.3,2248.6 
	1182.2,2185.2 1136.2,2140.4 1199.8,2131.2 "/>
<polygon fill="#E7E7E7" points="1228.2,565.5 1256.6,623.1 1320.2,632.3 1274.2,677.1 1285,740.4 1228.2,710.6 1171.3,740.4 
	1182.2,677.1 1136.2,632.3 1199.8,623.1 "/>
<circle fill="#E31E26" cx="967.2" cy="653" r="43.1"/>
<circle fill="none" stroke="#F2F2F2" stroke-width="3" stroke-miterlimit="10" cx="706.2" cy="653" r="92"/>
<circle fill="#FCEE21" cx="184.3" cy="653" r="41.2"/>
<circle fill="#8A5E3C" cx="448" cy="653" r="25.3"/>
<text transform="matrix(1 0 0 1 157.8073 744.9525)" fill="#010101" font-family="'Montserrat-Medium'" font-size="40">x 3</text>
<text transform="matrix(1 0 0 1 416.3288 744.9525)" fill="#010101" font-family="'Montserrat-Medium'" font-size="40">x 2</text>
</svg>
