<?xml version="1.0" encoding="utf-8"?>
<!-- Generator: Adobe Illustrator 18.0.0, SVG Export Plug-In . SVG Version: 6.00 Build 0)  -->
<!DOCTYPE svg PUBLIC "-//W3C//DTD SVG 1.1//EN" "http://www.w3.org/Graphics/SVG/1.1/DTD/svg11.dtd">
<svg version="1.1" id="Layer_1" xmlns="http://www.w3.org/2000/svg" xmlns:xlink="http://www.w3.org/1999/xlink" x="0px" y="0px"
	 viewBox="532.3 2213.5 2854.1 773.9" enable-background="new 532.3 2213.5 2854.1 773.9" xml:space="preserve">
<rect x="568.9" y="2249.4" fill="#151349" stroke="#151349" stroke-width="60" stroke-miterlimit="10" width="2517.3" height="702.8"/>
<g>
	<rect x="2868.9" y="2570.8" fill="#151349" width="476.7" height="60"/>
	
		<rect x="3255.3" y="2547.9" transform="matrix(0.7071 0.7071 -0.7071 0.7071 2843.8154 -1543.6461)" fill="#151349" width="60" height="226.2"/>
	
		<rect x="3176.2" y="2503.7" transform="matrix(0.7071 0.7071 -0.7071 0.7071 2750.9202 -1573.9735)" fill="#151349" width="198.4" height="60"/>
	<rect x="2829.5" y="2570.8" fill="#FFFFFF" width="286.7" height="60"/>
</g>
<g enable-background="new    ">
	<path fill="#FFFFFF" d="M1152,2667.8c-12.2-6.5-21.7-15.6-28.7-27.2c-7-11.6-10.4-24.7-10.4-39.3c0-14.6,3.5-27.7,10.4-39.3
		c7-11.6,16.5-20.7,28.7-27.2c12.2-6.5,25.8-9.8,41-9.8c12.8,0,24.4,2.2,34.7,6.7c10.3,4.5,19,11,26,19.4l-21.9,20.2
		c-10-11.5-22.3-17.3-37.1-17.3c-9.1,0-17.3,2-24.5,6c-7.2,4-12.8,9.6-16.8,16.8c-4,7.2-6,15.3-6,24.5c0,9.1,2,17.3,6,24.5
		c4,7.2,9.6,12.8,16.8,16.8s15.3,6,24.5,6c14.8,0,27.1-5.8,37.1-17.5l21.9,20.2c-7,8.6-15.7,15.1-26.1,19.6
		c-10.4,4.5-22,6.7-34.8,6.7C1177.7,2677.6,1164.1,2674.3,1152,2667.8z"/>
	<path fill="#FFFFFF" d="M1292.2,2669.2c-9.5-5-16.9-11.9-22.2-20.8c-5.3-8.9-8-18.9-8-30.2c0-11.2,2.7-21.3,8-30.1
		c5.3-8.9,12.8-15.8,22.2-20.8c9.5-5,20.2-7.5,32.2-7.5c11.9,0,22.6,2.5,32,7.5c9.4,5,16.8,11.9,22.1,20.8c5.3,8.9,8,18.9,8,30.1
		c0,11.2-2.7,21.3-8,30.2c-5.3,8.9-12.7,15.8-22.1,20.8c-9.4,5-20.1,7.5-32,7.5C1312.4,2676.7,1301.7,2674.2,1292.2,2669.2z
		 M1345.1,2641.2c5.4-5.7,8.1-13.3,8.1-22.9c0-9.6-2.7-17.2-8.1-22.9c-5.4-5.7-12.3-8.5-20.8-8.5s-15.4,2.8-20.9,8.5
		c-5.5,5.7-8.2,13.3-8.2,22.9c0,9.6,2.7,17.2,8.2,22.9c5.5,5.7,12.4,8.5,20.9,8.5S1339.7,2646.9,1345.1,2641.2z"/>
	<path fill="#FFFFFF" d="M1511.4,2572.6c8.6,8.4,13,20.9,13,37.5v64.9h-32.9v-59.9c0-9-2-15.7-5.9-20.1c-3.9-4.4-9.6-6.6-17.1-6.6
		c-8.3,0-14.9,2.6-19.8,7.7c-4.9,5.1-7.4,12.8-7.4,22.9v56.1h-32.9v-113.4h31.4v13.3c4.4-4.8,9.8-8.5,16.2-11.1
		c6.5-2.6,13.6-3.9,21.3-3.9C1491.4,2559.9,1502.8,2564.1,1511.4,2572.6z"/>
	<path fill="#FFFFFF" d="M1564.7,2673.3c-9-2.3-16.2-5.2-21.5-8.8l11-23.6c5.1,3.2,11.2,5.9,18.3,7.9c7.2,2,14.2,3.1,21.1,3.1
		c13.9,0,20.9-3.4,20.9-10.3c0-3.2-1.9-5.6-5.7-7c-3.8-1.4-9.6-2.6-17.5-3.6c-9.3-1.4-16.9-3-23-4.8c-6-1.8-11.3-5.1-15.7-9.7
		s-6.6-11.2-6.6-19.8c0-7.2,2.1-13.5,6.2-19.1c4.1-5.6,10.2-9.9,18.1-13c7.9-3.1,17.3-4.6,28.1-4.6c8,0,16,0.9,23.9,2.6
		c7.9,1.8,14.5,4.2,19.7,7.3l-11,23.4c-10-5.6-20.9-8.4-32.7-8.4c-7,0-12.3,1-15.8,3c-3.5,2-5.3,4.5-5.3,7.6c0,3.5,1.9,6,5.7,7.4
		c3.8,1.4,9.8,2.7,18.1,4c9.3,1.5,16.9,3.2,22.8,5c5.9,1.8,11,5,15.4,9.6c4.4,4.6,6.5,11.1,6.5,19.4c0,7-2.1,13.3-6.3,18.8
		c-4.2,5.5-10.4,9.7-18.4,12.8c-8.1,3-17.7,4.5-28.8,4.5C1582.9,2676.7,1573.7,2675.6,1564.7,2673.3z"/>
	<path fill="#FFFFFF" d="M1739.2,2669.6c-3.2,2.4-7.2,4.2-11.9,5.4c-4.7,1.2-9.7,1.8-14.9,1.8c-13.5,0-23.9-3.4-31.3-10.3
		c-7.4-6.9-11.1-17-11.1-30.4v-46.6h-17.5v-25.3h17.5v-27.6h32.9v27.6h28.3v25.3H1703v46.2c0,4.8,1.2,8.5,3.7,11.1
		c2.5,2.6,5.9,3.9,10.4,3.9c5.2,0,9.6-1.4,13.3-4.2L1739.2,2669.6z"/>
	<path fill="#FFFFFF" d="M1864.7,2627.6h-85.8c1.5,7,5.2,12.6,11,16.7c5.8,4.1,12.9,6.1,21.5,6.1c5.9,0,11.1-0.9,15.7-2.6
		c4.6-1.8,8.8-4.5,12.8-8.3l17.5,19c-10.7,12.2-26.3,18.3-46.8,18.3c-12.8,0-24.1-2.5-33.9-7.5c-9.8-5-17.4-11.9-22.8-20.8
		c-5.3-8.9-8-18.9-8-30.2c0-11.1,2.6-21.1,7.9-30c5.3-8.9,12.5-15.9,21.7-20.9c9.2-5,19.5-7.5,30.9-7.5c11.1,0,21.2,2.4,30.1,7.2
		c9,4.8,16.1,11.6,21.2,20.6c5.1,8.9,7.7,19.3,7.7,31.1C1865.3,2619.2,1865.1,2622.1,1864.7,2627.6z M1787.7,2591.1
		c-5.1,4.2-8.2,10-9.3,17.3h55.9c-1.1-7.2-4.2-12.9-9.3-17.2c-5.1-4.3-11.2-6.4-18.6-6.4C1799.1,2584.8,1792.8,2586.9,1787.7,2591.1
		z"/>
	<path fill="#FFFFFF" d="M1887.3,2518.6h32.9V2675h-32.9V2518.6z"/>
	<path fill="#FFFFFF" d="M1950.7,2518.6h32.9V2675h-32.9V2518.6z"/>
	<path fill="#FFFFFF" d="M2100.4,2572.5c9.4,8.4,14.1,21,14.1,37.8v64.7h-30.8v-14.1c-6.2,10.5-17.7,15.8-34.6,15.8
		c-8.7,0-16.3-1.5-22.7-4.4c-6.4-3-11.3-7-14.7-12.2c-3.4-5.2-5.1-11.1-5.1-17.7c0-10.5,4-18.8,11.9-24.9c7.9-6,20.2-9.1,36.8-9.1
		h26.1c0-7.2-2.2-12.7-6.5-16.6c-4.4-3.9-10.9-5.8-19.6-5.8c-6,0-12,0.9-17.8,2.8c-5.8,1.9-10.8,4.5-14.9,7.7l-11.8-23
		c6.2-4.4,13.6-7.7,22.2-10.1c8.6-2.4,17.5-3.6,26.7-3.6C2077.5,2559.9,2091,2564.1,2100.4,2572.5z M2072.4,2650.7
		c4.4-2.6,7.4-6.4,9.3-11.5v-11.6h-22.6c-13.5,0-20.2,4.4-20.2,13.3c0,4.2,1.7,7.6,5,10c3.3,2.5,7.8,3.7,13.6,3.7
		C2063,2654.6,2068,2653.3,2072.4,2650.7z"/>
	<path fill="#FFFFFF" d="M2217.4,2669.6c-3.2,2.4-7.2,4.2-11.9,5.4c-4.7,1.2-9.7,1.8-14.9,1.8c-13.5,0-23.9-3.4-31.3-10.3
		c-7.4-6.9-11.1-17-11.1-30.4v-46.6h-17.5v-25.3h17.5v-27.6h32.9v27.6h28.3v25.3h-28.3v46.2c0,4.8,1.2,8.5,3.7,11.1
		c2.5,2.6,5.9,3.9,10.4,3.9c5.2,0,9.6-1.4,13.3-4.2L2217.4,2669.6z"/>
	<path fill="#FFFFFF" d="M2237.7,2540.5c-3.8-3.5-5.7-7.9-5.7-13.1c0-5.2,1.9-9.6,5.7-13.1c3.8-3.5,8.7-5.3,14.8-5.3
		c6,0,11,1.7,14.8,5.1c3.8,3.4,5.7,7.6,5.7,12.6c0,5.5-1.9,10-5.7,13.6c-3.8,3.6-8.7,5.4-14.8,5.4
		C2246.4,2545.8,2241.5,2544,2237.7,2540.5z M2236,2561.6h32.9V2675H2236V2561.6z"/>
	<path fill="#FFFFFF" d="M2321.3,2669.2c-9.5-5-16.9-11.9-22.2-20.8c-5.3-8.9-8-18.9-8-30.2c0-11.2,2.7-21.3,8-30.1
		c5.3-8.9,12.8-15.8,22.2-20.8c9.5-5,20.2-7.5,32.2-7.5c11.9,0,22.6,2.5,32,7.5c9.4,5,16.8,11.9,22.1,20.8c5.3,8.9,8,18.9,8,30.1
		c0,11.2-2.7,21.3-8,30.2c-5.3,8.9-12.7,15.8-22.1,20.8c-9.4,5-20.1,7.5-32,7.5C2341.5,2676.7,2330.8,2674.2,2321.3,2669.2z
		 M2374.2,2641.2c5.4-5.7,8.1-13.3,8.1-22.9c0-9.6-2.7-17.2-8.1-22.9c-5.4-5.7-12.3-8.5-20.8-8.5s-15.4,2.8-20.9,8.5
		c-5.5,5.7-8.2,13.3-8.2,22.9c0,9.6,2.7,17.2,8.2,22.9c5.5,5.7,12.4,8.5,20.9,8.5S2368.8,2646.9,2374.2,2641.2z"/>
	<path fill="#FFFFFF" d="M2540.5,2572.6c8.6,8.4,13,20.9,13,37.5v64.9h-32.9v-59.9c0-9-2-15.7-5.9-20.1c-3.9-4.4-9.6-6.6-17.1-6.6
		c-8.3,0-14.9,2.6-19.8,7.7c-4.9,5.1-7.4,12.8-7.4,22.9v56.1h-32.9v-113.4h31.4v13.3c4.4-4.8,9.8-8.5,16.2-11.1
		c6.5-2.6,13.6-3.9,21.3-3.9C2520.5,2559.9,2531.9,2564.1,2540.5,2572.6z"/>
	<path fill="#FFFFFF" d="M2593.8,2673.3c-9-2.3-16.2-5.2-21.5-8.8l11-23.6c5.1,3.2,11.2,5.9,18.3,7.9c7.2,2,14.2,3.1,21.1,3.1
		c13.9,0,20.9-3.4,20.9-10.3c0-3.2-1.9-5.6-5.7-7c-3.8-1.4-9.6-2.6-17.5-3.6c-9.3-1.4-16.9-3-23-4.8c-6-1.8-11.3-5.1-15.7-9.7
		c-4.4-4.6-6.6-11.2-6.6-19.8c0-7.2,2.1-13.5,6.2-19.1c4.1-5.6,10.2-9.9,18.1-13c7.9-3.1,17.3-4.6,28.1-4.6c8,0,16,0.9,23.9,2.6
		c7.9,1.8,14.5,4.2,19.7,7.3l-11,23.4c-10-5.6-20.9-8.4-32.7-8.4c-7,0-12.3,1-15.8,3c-3.5,2-5.3,4.5-5.3,7.6c0,3.5,1.9,6,5.7,7.4
		c3.8,1.4,9.8,2.7,18.1,4c9.3,1.5,16.9,3.2,22.8,5c5.9,1.8,11,5,15.4,9.6c4.4,4.6,6.5,11.1,6.5,19.4c0,7-2.1,13.3-6.3,18.8
		c-4.2,5.5-10.4,9.7-18.4,12.8c-8.1,3-17.7,4.5-28.8,4.5C2612,2676.7,2602.8,2675.6,2593.8,2673.3z"/>
</g>
<line fill="none" stroke="#FFFFFF" stroke-width="9" stroke-miterlimit="10" x1="821.4" y1="2816.4" x2="1279.6" y2="2872.6"/>
<circle fill="#FFFFFF" cx="772.2" cy="2813.6" r="21.1"/>
<line fill="none" stroke="#FFFFFF" stroke-width="9" stroke-miterlimit="10" x1="751.1" y1="2740.9" x2="651.7" y2="2378.3"/>
<line fill="none" stroke="#FFFFFF" stroke-width="9" stroke-miterlimit="10" x1="753.9" y1="2872.6" x2="704.3" y2="2985.4"/>
<line fill="none" stroke="#FFFFFF" stroke-width="9" stroke-miterlimit="10" x1="600.7" y1="2355.4" x2="535.8" y2="2434.1"/>
<line fill="none" stroke="#FFFFFF" stroke-width="9" stroke-miterlimit="10" x1="2218.5" y1="2496.7" x2="1962.7" y2="2358.9"/>
<circle fill="#FFFFFF" cx="635.9" cy="2318.8" r="29.5"/>
<line fill="none" stroke="#FFFFFF" stroke-width="9" stroke-miterlimit="10" x1="690.2" y1="2319.1" x2="952.5" y2="2391.7"/>
<circle fill="#FFFFFF" cx="1027.4" cy="2403.5" r="39.5"/>
<line fill="none" stroke="#FFFFFF" stroke-width="9" stroke-miterlimit="10" x1="1088.3" y1="2364" x2="1326.1" y2="2217.4"/>
<circle fill="#FFFFFF" cx="1912.1" cy="2334.3" r="29.5"/>
<line fill="none" stroke="#FFFFFF" stroke-width="9" stroke-miterlimit="10" x1="1945.9" y1="2277.4" x2="1994.5" y2="2217.1"/>
<line fill="none" stroke="#FFFFFF" stroke-width="9" stroke-miterlimit="10" x1="1853.8" y1="2293.5" x2="1715.3" y2="2217.6"/>
<line fill="none" stroke="#FFFFFF" stroke-width="9" stroke-miterlimit="10" x1="2274.1" y1="2490.3" x2="2389" y2="2289.3"/>
<circle fill="#FFFFFF" cx="2403.9" cy="2259.7" r="11.4"/>
<circle fill="#FFFFFF" cx="1319" cy="2875.5" r="11.4"/>
<line fill="none" stroke="#FFFFFF" stroke-width="9" stroke-miterlimit="10" x1="1334.1" y1="2907.2" x2="1375.5" y2="2985.4"/>
<line fill="none" stroke="#FFFFFF" stroke-width="9" stroke-miterlimit="10" x1="2853.9" y1="2427.8" x2="2436.4" y2="2279.5"/>
<circle fill="#FFFFFF" cx="2901.7" cy="2443" r="21.1"/>
<circle fill="#FFFFFF" cx="2984.6" cy="2767.6" r="37.4"/>
<circle fill="#FFFFFF" cx="2359" cy="2855.8" r="11.4"/>
<line fill="none" stroke="#FFFFFF" stroke-width="9" stroke-miterlimit="10" x1="2953.7" y1="2825" x2="2879.7" y2="2985"/>
<line fill="none" stroke="#FFFFFF" stroke-width="9" stroke-miterlimit="10" x1="2370.3" y1="2886.7" x2="2409.4" y2="2985"/>
<line fill="none" stroke="#FFFFFF" stroke-width="9" stroke-miterlimit="10" x1="2311.3" y1="2855.8" x2="2069.6" y2="2867.2"/>
<circle fill="#FFFFFF" cx="2020.4" cy="2872.6" r="21.1"/>
<line fill="none" stroke="#FFFFFF" stroke-width="9" stroke-miterlimit="10" x1="1962.7" y1="2864.1" x2="1698.5" y2="2800"/>
<circle fill="#FFFFFF" cx="2252.4" cy="2527.4" r="21.1"/>
<rect x="2227.7" y="2558.6" fill="#151349" width="46.4" height="10"/>
<circle fill="#FFFFFF" cx="1656.3" cy="2778.9" r="25.2"/>
</svg>
