<?xml version="1.0" encoding="utf-8"?>
<!-- Generator: Adobe Illustrator 16.0.0, SVG Export Plug-In . SVG Version: 6.00 Build 0)  -->
<!DOCTYPE svg PUBLIC "-//W3C//DTD SVG 1.1//EN" "http://www.w3.org/Graphics/SVG/1.1/DTD/svg11.dtd">
<svg version="1.1" id="Layer_1" xmlns="http://www.w3.org/2000/svg" xmlns:xlink="http://www.w3.org/1999/xlink" x="0px" y="0px"
	 width="1952px" height="2018px" viewBox="0 0 1952 2018" enable-background="new 0 0 1952 2018" xml:space="preserve">
<g transform="translate(0.000000,2018.000000) scale(0.100000,-0.100000)">
	<path fill="#EFE483" stroke="#EFE483" stroke-width="80" stroke-miterlimit="10" d="M3622.678,19823.34
		c-186.162-60.43-266.094-220.281-183.232-362.586c50.684-86.75,155.947-130.605,328.467-137.434
		c105.264-4.871,121.836-2.918,199.814,21.445c91.621,28.262,96.494,28.262,183.242-8.777
		c88.691-37.031,165.703-40.938,282.666-15.586c164.717,36.062,151.074,37.031,220.273-19.504
		c34.121-27.285,93.574-65.301,132.559-83.828c78.955-38.008,264.15-83.816,306.064-75.039
		c54.58,10.715,70.176-1.953,136.455-109.168c34.111-55.566,67.256-102.344,73.105-102.344c5.84,0,35.088-23.398,65.303-51.66
		c67.256-62.383,70.186-83.828,21.445-154.016c-55.557-80.898-65.303-127.676-70.176-327.488
		c-7.793-287.539,20.459-455.195,90.645-537.062c43.857-51.668,92.598-77,182.266-95.527c72.129-15.594,84.805-20.469,84.805-32.168
		c0-11.688-120.869-96.484-165.703-116.961c-22.422-9.746-98.447-59.453-168.623-109.172
		c-108.193-76.992-169.6-132.547-380.137-345.039c-139.385-139.375-308.008-316.777-375.264-394.754
		c-140.352-159.855-182.256-202.746-257.314-258.293c-64.326-49.715-106.25-118.914-144.248-236.864
		c-45.811-141.328-61.406-251.465-55.557-382.07c6.816-130.615,30.205-228.086,84.795-350.898
		c21.445-46.787,37.031-91.621,34.111-99.414c-2.92-6.826-31.191-27.295-63.35-44.844
		c-72.129-39.961-135.488-110.137-160.83-178.369c-16.572-44.834-19.492-77.002-19.492-208.584
		c0-203.711,23.389-308.983,98.447-438.612c27.285-47.764,59.463-104.297,70.176-124.775c10.723-19.492,34.111-45.801,51.65-58.477
		c17.549-11.689,50.693-45.801,74.082-75.049c23.389-29.238,55.557-66.279,70.176-82.842c14.619-15.605,42.891-50.693,61.406-77.979
		c19.492-26.318,112.09-121.836,205.664-212.49c178.369-170.576,355.771-367.461,372.344-414.258
		c23.379-64.326,201.748-253.418,268.037-283.633c71.152-32.158,166.67-22.412,203.711,21.445
		c15.596,19.492,30.215,21.445,30.215,4.873c0-6.826-38.018-80.898-83.828-163.74
		c-201.768-369.424-459.082-949.365-632.578-1427.939c-71.152-195.928-66.279-190.068-161.807-190.068
		c-62.373,0-59.453-2.939-71.143,78.945c-5.85,50.684-61.406,143.281-95.527,160.82c-15.596,7.803-37.031,11.699-46.777,8.779
		c-25.352-7.803-36.064-50.684-18.525-77.002c37.041-58.486,47.773-90.645,47.773-148.164c0-78.945-13.652-115.977-49.727-130.596
		c-23.389-9.746-32.158-9.746-52.617,3.887c-27.295,18.525-82.861,109.17-82.861,136.465c0,9.746,15.596,41.904,34.121,70.176
		c69.199,104.297,80.898,247.578,29.238,362.588c-29.238,65.312-61.406,89.678-118.916,89.678
		c-66.27,0-75.049,13.643-81.875,129.639c-4.873,87.715-8.77,108.184-32.168,147.168c-30.205,51.66-88.691,94.551-156.914,113.076
		c-48.74,13.643-73.105,39.961-73.105,76.992c0,41.914-22.422,98.457-52.637,133.535c-22.422,24.375-47.754,39.961-97.471,55.566
		l-68.232,21.445l-11.699,66.279c-14.619,76.992-49.707,142.295-91.611,172.52c-15.605,11.689-58.486,30.215-94.551,42.881
		c-75.059,25.352-90.645,43.867-90.645,112.09c0,58.486-30.225,116.963-88.701,171.553c-61.406,57.5-115.986,81.875-181.299,82.852
		c-43.857,0-53.604-3.906-66.27-23.398c-28.271-42.891-10.732-71.152,67.246-110.137
		c113.066-55.557,152.061-108.193,137.441-184.219c-12.676-68.232-117.949-142.305-156.934-110.146
		c-7.803,5.85-30.215,44.834-50.684,85.771c-38.984,80.898-42.891,112.09-27.305,259.277c6.826,61.406,4.873,91.621-7.793,139.385
		c-28.262,111.113-86.738,172.52-210.527,221.26c-92.598,36.055-97.471,42.881-97.471,135.479
		c0,93.574-20.479,147.188-68.232,181.299c-31.191,22.412-106.24,48.73-138.408,48.73c-26.318,0-56.523-35.088-56.523-67.256
		c0-31.191,13.633-45.811,72.119-74.072c57.51-28.271,68.232-56.543,55.557-149.141c-17.539-130.605-66.279-257.314-104.297-271.934
		c-40.928-15.596-158.867,78.945-185.186,149.131c-22.422,59.453-13.643,111.113,41.914,235.879
		c42.881,98.438,45.801,109.17,46.787,192.021c0,72.119-3.906,94.531-21.445,127.676
		c-42.891,80.898-140.361,137.432-266.094,155.957c-24.365,2.92-49.717,12.666-56.533,21.445
		c-7.803,10.713-11.699,51.65-11.699,123.789c0,97.471-2.92,113.057-25.342,158.877c-14.619,29.238-44.834,66.27-70.176,87.715
		c-45.811,37.041-56.543,38.994-162.773,29.248l-29.238-2.93l4.873,48.74c10.713,107.216,3.887,212.479-16.572,253.417
		c-25.342,48.74-45.82,67.256-110.146,100.4c-57.51,29.238-59.463,32.158-87.725,111.104
		c-23.389,62.383-77.002,123.789-136.455,154.014c-22.412,11.689-73.105,24.365-114.043,29.238
		c-42.891,4.873-79.922,13.643-87.725,22.422c-17.539,16.572-18.516,80.898-2.92,133.535c12.666,42.881,12.666,180.322,0,223.203
		c-21.445,75.049-71.152,121.836-177.393,163.74c-34.121,13.652-67.266,31.201-74.082,39.971s-11.689,43.867-11.689,83.818
		c0,86.758-35.098,168.623-96.504,223.213c-40.938,37.041-115.01,75.058-144.258,75.058c-7.793,0,6.826,14.621,32.168,32.16
		c100.391,68.23,154.98,196.895,154.98,362.598c0,114.031-17.539,163.738-77.979,222.227l-37.031,36.062l74.072,76.992
		c110.137,113.078,148.154,210.547,165.693,427.91c5.85,77.969-35.078,119.883-89.668,89.668
		c-24.365-12.664-29.238-26.316-50.684-153.027c-31.191-185.195-80.898-263.164-158.877-253.418
		c-92.607,12.668-107.227,60.43-55.566,175.441c80.908,180.32,188.125,275.84,365.518,323.602
		c128.662,35.09,262.197,225.156,286.562,409.375c7.793,58.488,6.826,70.188-6.826,79.934c-20.469,15.586-74.072,15.586-86.738,0
		c-5.85-6.828-27.305-58.488-46.797-114.043c-37.041-109.172-86.748-192.988-130.605-224.18
		c-34.111-24.375-41.914-24.375-61.406-1.953c-38.984,42.891,27.295,227.098,103.32,288.504
		c22.412,17.551,66.279,46.797,98.438,63.359c51.67,27.297,64.336,30.215,131.582,28.273
		c109.17-3.906,161.807,24.363,296.318,159.852c130.615,132.551,157.9,169.59,182.265,251.465
		c21.445,73.105,29.248,80.898,174.473,188.117c87.725,64.336,115.986,103.32,124.766,170.574
		c4.873,34.113,2.92,38.996-17.549,43.867c-46.787,12.668-61.406,4.875-139.385-69.207
		c-119.883-115.02-228.076-159.855-278.76-114.035c-38.984,35.078-12.666,126.711,58.486,203.703
		c74.072,79.93,140.351,82.852,309.951,10.73c99.424-41.914,110.137-43.867,195.908-43.867c104.297,0,183.252,17.551,268.047,60.441
		c67.256,34.109,160.82,102.344,190.068,140.352c27.295,35.086,27.295,85.77-0.977,105.262
		c-34.111,24.367-50.684,19.492-121.836-38.992c-88.691-74.074-126.709-97.461-196.895-120.852
		c-102.344-34.121-249.512-21.445-280.713,25.332c-34.111,52.637,15.596,118.918,107.217,144.258
		c89.678,25.352,275.84,38.984,367.471,26.32c44.834-5.84,103.311-10.723,130.605-10.723c38.018,0,65.303-8.77,122.812-38.008
		c93.574-48.742,160.83-63.359,266.094-57.512c71.152,3.898,93.564,9.746,155.957,39.961c38.984,19.492,92.598,53.613,117.93,77.004
		l47.764,40.938l-6.826,62.383c-2.92,35.086-0.967,81.875,4.873,105.262c25.352,99.426-42.881,125.742-318.721,125.742h-185.195
		l-57.5-29.238c-59.463-30.223-84.805-65.312-118.916-159.852l-11.699-33.137l-149.131,6.809
		c-170.576,7.812-326.523-4.875-421.074-33.125c-82.852-26.328-153.027-87.727-177.393-156.934
		c-9.756-27.297-24.375-52.637-33.135-57.512c-7.803-3.895-48.74-9.746-89.678-12.664c-157.9-11.699-244.648-82.852-305.078-253.418
		c-21.445-58.488-31.191-75.059-52.637-82.852c-13.643-4.875-46.787-17.559-73.105-26.32
		c-118.916-42.891-241.729-161.805-315.801-307.031c-46.787-90.645-52.637-147.188-24.365-227.109l17.539-47.762l-29.238-20.461
		c-137.441-99.422-192.988-204.688-205.664-393.789l-6.816-93.562l-44.844-39.973c-205.654-184.207-293.379-330.418-293.379-490.273
		c0-77.977,18.516-115.02,72.119-148.164c19.492-12.664,35.098-26.316,35.098-32.156c0-4.875-25.352-47.766-56.533-94.551
		c-67.256-100.391-113.066-228.086-130.615-364.543c-11.699-91.609-11.699-92.598,14.619-144.258l27.295-52.625l-26.318-73.097
		c-20.469-55.566-27.295-97.471-31.182-172.529c-3.906-91.621-1.953-103.32,21.436-155.947
		c33.145-71.152,89.668-129.639,173.496-179.355c35.088-21.445,67.256-44.834,70.176-52.627c1.953-6.826,0-41.914-5.84-76.035
		c-33.145-197.861,103.311-406.445,297.275-456.152c25.342-5.85,49.707-16.572,54.58-22.422
		c5.859-6.826,13.652-46.787,18.525-89.678c10.723-90.645,30.215-134.502,111.123-241.719
		c32.158-42.891,62.373-88.691,68.223-102.344c4.883-13.652,19.502-84.804,31.191-156.923
		c32.168-186.172,65.303-243.672,169.6-288.516c107.217-46.787,103.311-42.881,111.123-105.273
		c8.76-67.256,48.73-143.281,95.518-182.266c30.205-26.318,106.23-66.279,176.416-94.551c14.619-5.84,38.984-35.088,63.35-76.025
		c44.844-76.992,106.25-129.629,204.688-174.463c38.018-17.549,72.139-36.064,76.025-41.924c3.906-5.84,14.629-43.857,25.352-83.818
		c23.389-91.621,39.961-123.789,94.551-182.275c60.42-65.303,124.756-103.311,206.631-123.789
		c38.018-9.746,73.105-22.412,77.969-27.285c4.873-4.873,15.605-33.135,24.375-63.359
		c35.098-124.756,117.939-200.781,247.578-228.066c101.367-20.479,116.963-30.225,163.74-96.504
		c29.248-42.891,54.6-66.279,96.504-88.691c48.73-26.318,61.406-38.994,96.494-100.4c69.209-121.846,147.188-183.242,261.23-207.617
		c74.062-15.586,82.852-22.412,102.344-78.945c18.516-52.637,80.889-130.615,122.803-153.027
		c29.248-15.596,32.168-21.445,56.533-120.869c36.064-149.131,107.217-244.648,226.133-304.102
		c37.041-18.525,74.072-34.111,81.885-34.111c6.807,0,14.619-5.859,17.539-11.699c1.953-6.826,10.713-37.041,18.516-66.279
		c16.572-56.543,104.297-185.195,127.686-185.195c6.826,0,21.445-28.271,33.135-66.289c24.375-81.865,51.67-122.803,108.193-164.717
		c107.217-79.922,108.193-80.898,115.986-148.154c6.826-55.557,11.699-66.279,39.971-90.645
		c18.516-14.619,53.604-34.111,77.979-43.867c59.453-21.445,77.969-38.984,77.969-75.049c0-16.572-13.643-104.297-29.238-195.908
		c-38.018-213.467-117.949-785.615-155.957-1114.092c-15.596-141.338-38.008-292.412-49.707-336.279
		c-10.723-43.857-18.516-95.518-15.596-114.023c4.873-40.947-16.572-423.027-37.041-638.438
		c-9.746-112.09-14.619-296.309-14.619-653.047l-0.977-497.1l39.971-248.545c77.979-491.26,89.668-521.475,477.607-1315.85
		c119.883-243.682,236.846-478.584,261.221-521.465c134.502-237.832,456.152-662.803,642.324-847.998
		c52.637-52.637,169.6-156.934,261.221-232.959c90.645-76.025,248.555-206.631,350.898-291.435
		c313.848-262.188,543.877-427.891,813.877-586.768c206.631-121.836,202.734-117.939,165.693-170.566
		c-37.041-51.67-58.477-116.963-58.477-178.379c-0.986-72.129-15.605-116.963-55.566-168.623
		c-69.209-89.678-98.447-236.855-66.27-338.223c18.506-60.43,18.506-62.373-19.502-187.139
		c-17.549-59.463-27.295-112.09-28.262-162.773c-0.977-71.152,0.967-78.955,46.777-166.68
		c26.318-50.684,46.787-103.32,46.787-115.986c0-11.699-7.793-59.463-16.562-104.297c-20.479-99.424-14.619-160.82,21.436-231.973
		c21.445-43.867,36.064-58.486,85.781-86.758c33.135-18.516,71.152-33.135,84.795-33.135s52.637,18.516,85.781,40.938
		c57.5,38.018,62.373,39.961,91.611,27.295c95.518-38.984,131.582-47.764,200.791-48.73c77.002,0,138.408,21.436,204.688,69.199
		l29.248,22.412l86.738-21.445c148.154-37.041,232.959-25.342,301.191,39.971c39.961,38.008,48.73,52.627,76.025,133.535
		l21.445,63.359l96.484-3.906c82.852-2.92,104.297,0,146.211,18.525c65.303,28.262,114.043,80.898,128.662,138.398
		c5.85,25.342,10.723,82.852,10.723,127.686c0,54.58,3.896,85.781,12.676,92.598c5.84,4.873,64.326,11.699,128.662,14.629
		c204.688,8.76,324.57,56.523,357.705,143.281c8.779,24.365,16.572,71.152,16.572,104.287
		c0.977,85.781,7.793,90.654,142.314,104.287c53.604,5.859,108.184,0.986,472.725-41.904
		c453.232-52.637,670.596-64.326,1242.744-64.326c414.248,0.967,552.656,3.887,696.914,17.539
		c343.086,32.168,694.961,91.621,1019.531,172.529c309.961,76.025,395.731,114.033,1017.597,448.359
		c908.418,488.32,921.094,495.146,1111.162,677.422c50.674,49.697,158.877,144.248,238.799,211.494
		c80.898,67.266,161.797,137.441,181.289,154.99c53.613,48.73,194.941,211.513,231.982,265.117
		c17.539,25.342,48.73,56.533,69.209,70.186c48.73,31.182,138.398,56.523,204.688,57.5c47.754,0.977,58.477-2.93,99.414-35.088
		c25.352-19.492,62.383-40.938,82.852-47.764c44.844-15.596,140.352-15.596,206.641,0.977
		c46.776,10.723,50.683,10.723,78.944-12.676c15.598-13.643,54.59-32.168,84.797-40.928
		c119.891-33.145,150.105-53.613,201.766-139.395c47.766-79.912,78.957-94.541,181.301-92.597
		c45.809,0.986,93.562,2.939,106.238,4.873c20.469,2.939,25.352-3.886,47.766-73.095c27.285-85.771,59.453-120.859,164.715-176.426
		l55.566-30.205l15.598-78.955c18.516-97.471,56.531-163.75,117.938-203.711l44.824-29.238l4.883-78.955
		c4.863-88.701,24.367-131.592,98.449-214.443c49.707-55.557,65.301-81.865,65.301-111.104c0-35.098,38.996-138.408,70.176-182.275
		c37.043-54.59,93.574-95.518,160.82-116.963c72.141-22.412,100.41-50.684,100.41-97.471c0-49.717-28.27-93.574-79.93-122.822
		c-124.758-72.119-172.531-30.205-173.496,150.117c0,105.264-10.734,125.732-65.305,125.732c-45.82,0-65.312-29.238-69.219-106.24
		c-4.863-75.059,8.781-148.164,39.973-225.156c29.246-71.162,187.148-368.447,212.488-400.605
		c20.461-26.318,20.461-26.318,2.922-115.986c-14.621-77.002-15.598-100.4-5.852-156.934c10.723-63.35,10.723-67.246-18.516-137.432
		c-22.422-50.684-32.168-92.598-35.086-146.201c-4.875-70.186-2.922-77.979,22.41-121.836
		c44.836-74.082,48.742-94.551,45.82-228.086l-2.93-124.756l-43.855-89.678c-54.59-112.09-59.465-177.402-18.527-266.094
		c28.273-61.406,27.285-77.002-5.84-166.67c-51.668-140.361,9.746-229.053,157.891-229.053c126.711,0,180.324,79.912,216.387,327.49
		c8.77,58.486,22.414,130.615,30.215,159.863c21.445,79.912,18.516,109.15-19.492,181.289
		c-18.516,36.064-34.109,70.176-34.109,77.002c0,6.816,11.688,38.008,26.309,69.199c23.398,51.66,26.316,68.232,24.363,154.004
		c-0.965,92.598,0,99.424,34.121,168.623c54.59,112.09,49.707,169.6-21.434,262.197c-35.098,44.834-43.867,63.35-39.973,81.875
		c25.352,112.09,28.273,178.369,16.574,307.031c-7.805,74.072-14.621,171.543-15.598,218.33
		c-1.953,69.209-7.801,94.551-30.215,142.314c-29.246,61.406-34.121,116.963-18.516,210.527
		c5.84,37.041,2.922,53.613-19.492,102.344c-22.43,48.74-25.352,64.326-18.523,101.377c29.238,160.82-5.852,256.348-135.488,366.484
		c-34.113,28.261-36.055,33.144-36.055,88.691c0,73.105-32.18,142.305-97.473,205.664c-63.359,63.359-75.059,89.678-79.93,194.941
		c-8.781,148.164-66.281,240.762-190.07,303.125c-26.316,13.652-41.902,27.285-41.902,38.984c0,9.746-15.605,48.75-34.113,85.781
		c-39.98,78.945-108.203,149.141-146.211,149.141c-37.051,0-95.527,33.125-113.066,65.293c-8.77,14.609-23.398,52.637-32.168,83.828
		c-27.285,93.574-103.32,153.027-195.918,153.027c-44.832,0-73.094-24.355-73.094-62.383c0-38.984,10.711-48.73,67.246-64.316
		c23.398-5.859,51.66-21.445,64.336-35.107c40.926-43.867,58.484-173.496,29.246-215.41
		c-21.445-30.215-93.582-55.557-142.312-48.721c-40.949,5.84-85.773,39.961-127.688,97.461l-19.492,27.285l30.215,30.215
		c40.938,39.98,51.652,83.828,39.961,165.703c-9.746,70.176-35.098,119.902-83.828,165.703
		c-38.984,36.055-72.117,46.797-143.281,46.797c-64.324,0-76.023,4.863-135.477,60.41c-66.28,63.359-173.497,65.312-189.093,3.906
		c-7.803-33.145,0-42.891,53.604-66.27c61.406-26.328,84.806-50.693,108.192-112.09c31.191-84.814,28.262-97.48-34.11-125.742
		c-72.129-33.145-172.52-40.947-218.33-16.582c-52.646,27.314-56.533,40.947-31.201,115.039
		c17.549,56.514,20.479,77.969,14.619,146.191c-4.863,63.359-2.92,86.738,9.746,113.066c8.779,18.516,112.1,153.027,230.039,300.215
		c209.562,261.211,372.335,487.344,399.628,556.543c7.793,18.525,47.754,111.113,89.668,203.711
		c41.914,93.574,76.035,179.355,76.035,190.068c0,11.699-6.824,29.238-14.629,38.984c-7.801,10.732-14.609,27.295-14.609,37.041
		c0,8.779,32.16,64.336,72.121,121.836c94.539,138.408,185.184,300.215,289.48,514.648
		c104.297,215.41,168.625,379.16,271.953,682.295c324.57,960.078,481.496,1629.697,535.098,2273.975
		c13.652,166.67,21.445,221.26,33.145,232.949c9.746,10.732,44.836,17.559,106.242,23.398
		c120.867,10.723,216.387,40.938,252.449,79.932c41.914,45.811,51.66,84.805,44.836,189.082
		c-5.852,78.965-10.715,100.41-45.801,170.576c-21.445,43.867-38.996,85.781-38.996,92.598c0,7.803,8.77,26.318,20.469,40.938
		c13.652,18.535,23.398,51.66,28.273,95.527c10.711,100.4,32.156,129.639,96.492,129.639c52.637,0,108.195-105.273,112.09-211.514
		c0.977-63.35-22.422-90.645-100.398-116.963c-64.328-21.445-77.004-38.018-60.43-78.955c11.699-28.262,16.57-30.215,68.23-33.135
		c95.52-4.873,183.242,44.834,206.641,117.939c24.367,73.105,8.77,208.584-37.039,328.477c-3.906,9.746,3.895,13.652,30.203,13.652
		c97.48,0,215.422,80.898,248.555,171.543c51.66,136.445,1.953,363.555-88.691,405.469c-20.477,9.746-42.891,27.295-50.684,38.984
		c-23.398,36.074-44.844,178.379-44.844,295.342c0,95.518,2.93,113.057,19.504,134.502c28.262,35.098,81.863,49.707,117.93,31.201
		c22.422-12.686,32.168-30.225,58.484-110.146c47.766-149.131,42.891-230.029-21.445-312.881
		c-10.723-12.666-18.516-38.018-18.516-55.557c0-30.215,2.922-33.135,28.262-33.135c38.984,0,89.68,18.506,116.965,42.881
		c38.992,35.098,49.715,75.059,49.715,189.102c0,125.723-23.398,229.043-70.176,313.848l-31.191,56.533l38.008,55.557
		c34.121,48.73,38.996,63.359,41.914,121.836c6.828,122.812-48.73,234.902-147.188,296.309
		c-39.961,24.365-59.453,29.238-135.477,34.111l-89.68,5.85l-12.664,41.914c-18.527,64.326-35.09,228.076-30.227,308.008
		c3.906,92.588,20.48,113.066,86.758,113.066c38.02,0,53.613-5.85,80.898-29.238c53.613-47.764,93.574-165.703,93.574-279.746
		c0-64.336,1.945-71.152,26.309-90.645c31.191-24.365,67.266-19.492,94.551,12.666c15.605,18.516,17.539,32.168,12.676,105.273
		c-8.77,141.328-45.809,249.521-113.066,334.316c-34.121,42.891-34.121,40.947-48.73,176.426
		c-16.582,141.338-69.207,244.648-158.875,308.975c-70.188,49.717-309.953-0.967-385.012-81.865
		c-31.191-33.145-62.383-109.17-68.23-168.623c-7.793-77.979,25.34-142.314,122.812-234.912
		c110.137-105.264,119.883-131.582,137.43-362.588c9.758-133.525,25.344-188.115,67.258-241.729
		c16.57-21.445,18.523-34.111,13.641-114.043c-6.816-115.977,8.77-195.908,45.82-232.949c32.16-31.191,58.477-35.088,80.898-9.746
		c20.469,21.445,20.469,56.533,1.953,133.535c-14.629,61.406-11.699,113.066,10.715,148.154
		c42.891,68.223,151.082,4.873,180.32-106.24c10.723-40.938,9.746-55.557-6.824-120.869l-19.492-75.049l-54.582-1.943
		c-85.77-3.906-154.98-28.271-184.219-65.312c-54.59-69.209-57.508-82.842-57.508-248.545c0-130.615,2.918-164.727,21.434-226.133
		l21.445-72.129l-22.41-15.596c-57.512-39.961-108.195-93.564-128.664-135.488c-18.516-38.984-22.422-66.279-26.316-177.383
		c-3.898-144.268-12.668-165.703-60.422-165.703c-13.652,0-45.82-12.676-69.219-28.271
		c-71.152-44.834-103.309-112.09-115.008-238.799l-5.852-69.199l-58.477-0.986c-33.145-0.967-79.922-9.746-110.145-21.445
		c-37.043-14.619-52.629-16.553-58.488-8.76c-3.887,6.826-11.688,73.096-17.539,148.154
		c-11.699,141.328-23.387,232.949-47.754,375.264c-7.812,45.801-20.477,126.709-29.238,180.312
		c-8.777,53.613-24.375,139.385-34.121,190.068s-30.215,154.004-43.855,229.053c-85.793,463.955-282.668,1012.715-467.863,1306.113
		c-69.207,110.137-188.125,269.004-316.777,423.008c-110.145,132.568-437.645,568.252-470.789,626.738
		c-30.207,52.637-267.062,281.689-382.081,369.414c-53.604,40.938-181.289,131.582-284.609,201.758
		c-102.344,70.186-267.07,188.114-365.518,262.196c-229.053,172.52-403.525,280.713-694.961,426.924
		c-644.277,325.547-1368.486,574.092-2007.88,691.055c-471.758,85.771-815.83,112.09-1566.348,119.893
		c-980.557,9.746-1232.031-16.562-1976.699-211.504c-142.314-37.051-330.43-80.908-419.121-97.471
		c-88.701-16.572-220.283-40.938-292.412-54.59c-72.129-13.643-179.346-37.041-238.799-51.66
		c-149.141-38.984-146.211-38.984-164.727-25.332c-11.699,9.746-19.492,42.881-31.191,132.549
		c-15.596,134.512-40.947,213.467-107.217,337.246c-23.389,44.844-42.881,89.678-42.881,99.424c0,13.643,20.459,31.191,71.143,60.43
		c95.527,55.558,149.131,108.194,173.496,173.495c25.342,68.234,39.961,265.117,36.064,498.078
		c-1.943,193.965,0,202.742,72.129,269.023c81.875,76.023,314.834,196.895,636.484,332.383
		c32.168,13.633,108.193,47.754,168.623,76.992s114.043,52.637,119.883,52.637c5.85,0,26.328,13.641,44.834,29.238
		c34.121,30.215,274.873,155.957,297.285,155.957c6.826,0,30.225,8.77,51.67,18.516c21.436,10.723,98.438,38.984,170.566,62.383
		c72.129,24.363,182.266,61.406,243.682,82.852c61.406,22.41,125.732,41.902,141.328,43.855
		c16.562,1.953,44.834,10.723,63.359,19.492c49.707,21.445,102.344,29.25,123.779,17.551
		c21.445-10.723,71.162-100.391,90.654-160.832c6.816-21.445,20.459-51.66,30.215-68.23
		c23.389-39.953,212.48-510.734,277.783-691.055c57.51-156.945,121.846-371.379,144.258-481.516
		c18.525-87.723,9.746-116.961-43.857-150.105c-21.455-12.668-66.279-40.938-100.4-63.359
		c-38.984-25.332-126.709-62.375-235.879-101.359c-96.484-33.145-186.162-67.254-200.781-74.081
		c-48.74-25.342-42.891-85.771,9.746-97.471c14.619-2.92,31.191-6.826,37.031-8.77c5.85-1.953,35.088,7.793,63.359,21.436
		c29.238,12.676,122.812,49.717,208.594,81.875c85.771,32.167,173.496,70.187,194.941,85.78
		c21.436,14.621,54.58,35.09,73.096,44.836c43.867,21.434,84.795,60.43,105.273,97.469c11.699,21.438,14.619,52.629,13.633,119.895
		c-1.934,77.969-9.746,116.961-62.373,297.285c-32.158,113.055-63.35,209.559-68.232,212.48
		c-15.596,10.73-262.197,648.184-265.117,686.199c-0.967,5.84-25.342,66.281-54.58,134.504
		c-83.828,195.918-136.455,250.508-241.729,250.508c-41.914,0-133.535-27.297-434.717-127.695
		c-366.484-122.812-447.393-155.957-522.432-214.434c-51.67-40.93-322.637-182.266-355.771-186.164l-29.238-2.93l-0.986,77.98
		c-5.84,328.477-33.135,642.324-62.373,731.023c-43.857,130.605-125.742,222.238-227.109,253.43
		c-77.979,23.387-377.207,29.238-523.408,10.711c-252.451-32.156-882.109-231.004-1000.049-315.789
		c-44.834-32.18-216.387-101.379-311.904-124.777c-37.041-9.746-126.719-42.879-198.838-74.07
		c-258.291-113.059-301.191-129.629-313.857-116.965c-6.826,6.828-12.666,96.496-17.539,267.07
		c-6.826,235.871-9.746,262.188-32.178,332.375c-13.633,41.902-41.904,105.262-64.326,142.305
		c-35.078,59.461-44.834,69.207-85.771,82.84c-63.35,21.445-80.889,19.504-202.725-19.492
		c-114.043-36.055-241.738-52.625-268.047-33.133c-75.059,53.613,415.215,116.961,577.012,74.07
		c204.688-54.57,294.365-135.469,330.43-303.125c10.723-52.637,13.652-197.859,6.826-331.395
		c-2.92-44.844-0.977-48.742,23.389-57.512c32.168-11.699,61.416,9.746,81.875,59.465c21.445,49.707,17.549,255.359-5.84,347.957
		c-36.064,142.316-116.963,261.23-222.246,328.477c-187.129,118.918-583.838,115.012-873.32-8.77
		c-38.027-16.57-74.082-27.293-80.898-24.363c-6.826,2.918-37.041,54.578-67.266,114.031
		c-36.064,72.129-74.072,130.617-112.09,173.508c-50.684,56.531-64.326,66.277-107.217,75.039
		c-84.805,18.523-126.709,49.715-174.463,132.566c-44.844,76.027-78.955,111.113-138.408,140.352
		c-56.533,28.273-66.279,30.227-173.496,30.227c-81.885,0-135.488-5.859-190.068-19.504
		c-105.273-27.285-142.314-25.34-171.553,5.852c-33.135,36.062-58.486,46.785-178.369,77
		c-79.932,20.469-119.893,25.344-159.844,21.445c-60.439-6.824-143.291-43.855-176.426-78.953l-23.389-24.367l-20.479,40.938
		c-15.586,31.191-29.238,43.867-59.453,54.582C3890.725,19836.008,3675.314,19840.879,3622.678,19823.34z M3949.201,19696.633
		c33.145,0,60.439-2.93,60.439-5.852c-0.977-2.918-6.826-31.191-14.619-63.348c-7.803-32.168-14.619-77.012-14.619-99.426
		c0-38.992-0.986-40.938-45.82-58.484c-72.129-27.285-234.893-24.367-303.125,5.848c-28.271,12.676-60.439,34.113-70.186,47.766
		c-38.984,49.707-15.596,119.883,51.66,154.98c55.556,28.262,78.945,32.156,177.402,26.309
		C3843.938,19700.527,3915.09,19697.609,3949.201,19696.633z M4433.635,19653.75l107.217-36.074l-2.93-53.602
		c-1.943-29.238-8.77-62.383-16.562-73.105c-17.559-28.273-73.105-43.859-172.529-50.684
		c-101.367-6.828-161.797,6.824-202.725,45.809c-24.375,23.391-29.248,35.09-29.248,75.059c0,47.754,18.516,87.727,54.58,115.012
		C4207.502,19703.457,4314.719,19694.68,4433.635,19653.75z M3137.278,19612.805c79.932-11.691,121.836-26.32,121.836-43.859
		c0-20.477-125.732-110.137-185.186-132.566c-67.266-25.332-157.91-21.438-229.062,9.746c-55.557,24.375-63.35,33.145-63.35,75.059
		c0,68.23,63.35,100.391,199.814,100.391C3030.061,19621.574,3100.246,19617.676,3137.278,19612.805z M5020.393,19602.082
		c14.629-4.875,39.971-21.438,54.59-36.055c48.74-45.812,59.453-77.012,60.439-173.508c0-100.391-9.746-120.859-57.51-120.859
		c-48.74,0-177.402,37.043-243.682,70.188c-101.367,50.672-119.883,68.223-141.328,141.328
		c-10.723,35.086-17.549,68.23-14.619,73.105c10.713,16.562,65.303,38.008,118.916,45.801
		C4879.064,19613.781,4989.211,19614.758,5020.393,19602.082z M5392.736,19305.773c40.938-20.469,92.598-84.797,137.441-171.555
		c54.58-105.262,68.223-147.168,56.523-170.566c-14.619-27.293-48.73-52.625-71.143-52.625
		c-28.271,0-199.814,177.391-199.814,206.629c0,3.898,13.633,22.422,30.205,41.914c27.295,31.191,30.215,38.984,24.365,76.027
		c-2.92,22.41-8.77,50.684-11.689,63.359C5351.799,19324.289,5355.695,19325.273,5392.736,19305.773z M6326.496,18893.477
		c11.699-18.523,31.191-57.508,43.867-87.723c20.469-51.66,22.422-73.098,25.342-310.93c1.953-176.414,0-256.348-6.826-256.348
		c-5.84,0-27.285,34.113-48.73,76.027c-70.176,138.406-96.504,163.75-211.514,206.641c-30.215,10.711-31.191,12.664-41.904,101.355
		c-6.826,50.695-18.525,115.031-25.342,143.293c-20.479,76.016-18.525,101.367,8.77,118.906
		c37.031,24.375,122.812,44.832,181.299,42.898C6300.188,18925.645,6306.037,18922.715,6326.496,18893.477z M1483.206,18785.285
		c19.492-9.746,55.566-24.375,79.932-31.191s47.754-15.598,52.627-19.504c13.652-11.68-89.668-153.016-173.496-235.867
		c-91.611-92.598-159.844-128.664-227.1-120.859c-50.693,5.84-91.631,32.156-104.297,67.254
		c-10.723,31.184,32.158,128.652,85.771,192.988c68.223,80.898,186.172,164.719,232.959,165.695
		C1439.348,18803.801,1462.747,18796.008,1483.206,18785.285z M5932.727,18779.434c17.539-16.57,45.811-164.727,45.811-234.902
		c0-59.453-15.596-77-61.416-69.207c-101.357,16.57-221.25,93.574-221.25,143.289c0,26.32,58.486,83.82,140.352,137.422
		C5899.582,18797.949,5912.248,18800.879,5932.727,18779.434z M8790.559,18721.926c63.35-16.574,101.357-37.031,132.549-71.152
		c72.139-77.004,89.678-171.543,106.25-568.254c4.873-131.582,12.666-266.082,15.596-299.227l6.816-59.453l-81.875-38.996
		c-44.834-21.445-83.818-38.016-85.771-36.062s-11.699,66.277-21.445,143.281c-51.66,399.629-67.246,475.652-121.836,589.695
		c-62.373,130.605-136.465,165.703-330.42,155.957c-141.328-7.812-258.301-26.316-405.479-64.336
		c-346.992-90.645-890.879-320.672-1264.199-536.094c-75.039-42.879-274.854-162.773-442.51-265.117
		c-167.646-103.309-318.73-192.988-334.316-199.812c-16.572-6.816-85.781-58.488-154.014-115.012
		c-68.223-56.531-133.525-108.191-145.225-114.043c-10.723-5.848-56.533-41.914-99.424-78.945
		c-43.857-38.016-129.629-105.273-191.035-149.129c-161.807-115.996-306.055-243.684-481.504-424.98
		c-163.75-168.625-201.768-217.354-227.109-283.634c-19.492-51.66-21.445-193.965-3.896-275.84
		c15.596-69.209,104.297-226.133,144.248-251.475c45.82-29.248,129.648-109.16,129.648-123.779
		c0-19.502-61.416-38.994-125.742-38.994c-44.834,0-88.691,31.182-108.184,77.979c-6.826,15.586-24.375,36.055-38.994,45.801
		c-27.295,18.525-115.996,117.949-153.027,174.482c-31.191,45.811-68.232,162.773-76.025,237.822
		c-12.676,124.766,42.881,289.481,139.375,407.431c53.613,67.246,624.785,664.746,695.938,728.105
		c27.295,24.367,70.176,56.535,94.551,71.152c24.365,13.652,55.557,36.066,69.209,48.73c13.643,13.652,57.5,45.82,97.471,71.152
		c39.961,26.32,95.518,64.336,121.836,84.805c75.039,59.453,310.928,217.355,418.145,279.738
		c231.982,135.477,938.633,444.461,1117.012,487.352c35.088,8.77,70.176,19.492,79.922,24.367
		c8.779,4.871,54.59,23.387,102.344,41.914c46.797,18.523,134.512,55.555,192.998,82.852
		c240.742,109.168,591.641,206.641,862.617,240.75C8562.473,18737.531,8730.119,18738.496,8790.559,18721.926z M5533.098,18641.027
		c23.389-54.582,34.111-103.312,45.811-216.387c12.666-115.012,44.834-228.078,93.564-324.57
		c40.947-81.887,77.979-123.789,143.291-164.727c83.818-52.637,83.818-54.582,11.699-103.32
		c-34.121-23.398-66.289-41.906-71.162-41.906s-11.689,12.668-14.619,28.254c-7.803,37.051-32.168,49.715-116.973,60.438
		c-122.803,15.598-152.051,47.766-178.369,193.965c-21.445,114.043-24.365,406.457-5.84,487.355
		c13.643,61.406,43.857,116.961,63.359,116.961C5511.652,18677.09,5524.318,18660.52,5533.098,18641.027z M5798.215,18394.426
		c38.008-15.598,77.002-29.238,88.701-29.238c23.389,0,47.764-24.367,57.51-58.477c23.389-78.965,82.852-160.832,148.145-203.723
		c50.684-34.109,85.781-38.008,112.09-13.641c30.225,27.293,20.479,49.707-39.961,96.492c-32.158,25.344-65.303,60.43-75.049,79.922
		c-15.596,32.168-14.619,36.074,2.92,78.957c21.445,52.637,43.857,60.43,77.979,28.262
		c44.844-40.938,110.146-191.035,110.146-252.453c0-13.633-7.803-32.156-16.572-39.949
		c-25.352-21.445-283.643-154.004-301.182-154.004c-7.803,0-18.516,11.699-24.375,26.316
		c-4.873,14.621-41.904,60.422-81.865,101.367c-77.979,81.875-114.043,142.305-136.455,230.031
		c-18.525,70.176-19.502,139.383-1.953,139.383C5725.119,18423.672,5761.174,18410.996,5798.215,18394.426z M8572.219,18398.32
		c58.477-30.215,110.137-194.941,144.258-458.105c37.031-291.434,38.008-372.332,5.85-345.039
		c-14.619,12.668-23.398,48.73-53.613,229.055c-36.064,211.512-88.701,345.039-158.877,398.641
		c-58.486,44.844-108.193,56.543-240.742,57.52c-140.361,0-232.959-13.652-351.875-51.66
		c-134.512-43.867-649.15-308.984-722.256-372.344c-14.619-12.664-74.082-50.684-131.582-85.77
		c-57.51-34.113-151.084-94.543-207.607-134.504c-154.014-108.203-263.174-173.504-419.121-253.426
		c-77.012-38.984-182.275-101.367-233.936-137.434c-50.684-37.039-134.512-93.574-185.195-125.73
		c-50.684-33.145-128.662-88.711-171.553-123.789c-322.617-260.254-655.967-486.387-900.615-609.191l-79.932-39.97l17.549,29.238
		c27.285,45.81,175.439,206.642,267.07,289.493c94.541,85.77,227.1,192.02,487.354,391.824
		c99.404,76.027,206.631,160.832,238.799,188.125c32.168,26.32,95.518,74.082,141.328,104.289
		c45.811,30.215,88.701,62.391,95.527,72.137c16.572,23.391,755.391,464.922,905.488,540.957
		c64.336,33.137,143.281,67.246,175.449,76.027c31.191,8.77,119.893,43.855,197.871,77.977
		c371.357,163.75,616.982,242.695,872.354,281.68C8389.943,18417.812,8535.178,18417.812,8572.219,18398.32z M8439.66,18109.816
		c49.707-53.613,108.193-263.176,142.305-510.754l12.666-89.656l-34.111-36.074c-18.516-19.492-56.533-45.812-83.818-58.477
		c-79.932-36.066-116.963-69.211-149.131-135.488c-36.064-74.074-48.73-193.965-48.73-478.574
		c0-217.375-6.826-257.324-52.646-302.16c-43.857-43.867-148.154-102.344-182.266-102.344c-33.135,0-100.391,32.16-203.711,97.473
		c-59.463,38.008-86.748,48.73-143.281,57.5c-162.773,25.352-393.779,2.918-483.457-45.812
		c-113.066-61.406-155.957-185.194-152.051-431.796c1.953-76.992-1.953-128.662-8.779-141.328
		c-7.793-14.619-34.111-28.262-81.865-42.881c-38.984-11.699-156.934-65.312-262.197-118.916l-192.021-97.471l-166.67-1.953
		c-129.629-0.967-169.6,1.953-175.449,11.699c-16.572,27.285-33.145,273.887-28.262,426.914
		c4.873,144.258,7.803,160.83,37.041,239.775c74.072,201.769,276.807,444.472,487.354,583.847
		c122.803,81.887,329.443,167.656,428.867,179.355c18.516,1.953,51.66,8.77,73.105,14.621c21.436,5.84,117.93,12.664,215.4,15.594
		l176.416,4.875l58.486-29.25c107.217-54.578,149.141-135.488,157.9-303.125c8.779-162.773,44.844-207.617,103.33-130.613
		c26.309,35.086,27.285,37.039,20.459,132.559c-8.77,126.707-34.111,204.695-96.494,297.293
		c-44.834,67.246-58.486,79.914-114.033,108.184c-87.725,43.867-155.957,54.582-303.135,46.789
		c-207.617-10.723-464.941-59.453-545.84-103.32c-19.492-10.723-42.881-19.492-51.66-19.492c-8.77,0-60.43-26.32-115.01-59.465
		c-313.857-185.195-511.719-414.246-624.785-720.292c-31.191-84.805-34.121-102.344-36.064-209.57
		c-1.943-159.854,14.629-360.635,34.121-417.178c8.76-25.332,13.643-52.627,10.713-60.42
		c-4.873-12.686-68.232-14.619-468.828-14.619h-463.965l-46.777,23.379c-32.168,16.572-50.693,34.121-59.453,54.59
		c-6.826,16.562-31.191,42.881-53.613,58.486c-98.447,68.232-165.693,178.369-190.068,312.871
		c-5.85,33.145-8.77,76.025-4.873,93.574l5.85,32.168l30.205-15.596c43.867-22.422,90.654-12.676,205.674,42.891
		c125.732,61.406,612.109,390.849,809.004,548.751c81.865,64.324,167.646,128.66,192.012,143.289
		c24.375,13.633,58.486,37.031,76.025,52.629c17.549,14.629,36.074,27.293,40.947,27.293s38.008,26.32,73.096,57.5
		c38.994,34.121,126.719,92.598,216.377,143.281c83.828,46.789,270,157.91,413.281,246.602
		c143.281,89.68,283.633,175.449,310.938,191.047c27.285,16.57,87.715,53.613,134.502,83.828
		c122.812,78.953,216.387,130.613,436.67,240.75c269.99,135.488,315.801,147.18,542.91,145.234l145.225-1.953L8439.66,18109.816z
		 M644.963,16919.699c33.145-35.09,50.684-89.668,50.684-156.926c0-82.852-25.342-156.922-69.209-202.734
		c-39.961-41.914-66.279-46.785-113.057-17.547c-29.248,17.547-32.168,23.387-32.168,67.254
		c0,100.391,87.725,332.375,124.766,332.375C615.725,16942.121,633.264,16932.375,644.963,16919.699z M7693.029,16434.297
		c29.248-5.848,62.393-20.469,74.092-32.168c11.689-12.664,36.055-28.271,53.604-35.077
		c92.598-38.018,209.561-157.91,258.301-266.113c39.951-85.762,83.818-241.719,89.658-315.801
		c10.732-128.652-7.793-145.234-289.473-270.957c-93.584-42.891-188.125-88.711-209.561-103.32
		c-21.445-13.652-52.637-32.168-69.209-40.947c-29.248-14.619-30.215-14.619-54.58,16.572
		c-14.629,17.539-49.717,43.857-78.965,58.486c-212.48,103.32-323.594,417.168-278.76,790.488
		c15.596,130.605,28.271,151.075,111.123,178.368C7424.016,16453.789,7566.32,16461.582,7693.029,16434.297z M585.51,16390.43
		c18.516-4.871,19.492-8.759,10.723-34.11c-15.596-45.811-2.93-73.105,55.557-112.09c32.168-20.469,64.326-52.627,77.979-76.992
		c47.754-80.908,23.389-229.062-37.031-229.062c-38.018,0-140.361,57.51-172.529,95.518c-36.064,43.867-48.73,85.781-48.73,159.854
		c0,79.922,18.506,154.004,44.824,180.312C539.7,16397.258,550.413,16400.176,585.51,16390.43z M4311.799,16111.671
		c29.238-185.195,114.033-347.969,216.377-418.145c72.129-49.707,140.361-114.043,129.639-123.789
		c-17.549-16.562-210.537-79.922-242.705-79.922c-40.938,0-44.834,4.873-86.738,108.184
		c-64.336,154.99-83.838,274.873-66.289,403.535c10.723,76.992,31.191,180.322,36.064,180.322
		C4299.123,16181.856,4304.973,16149.679,4311.799,16111.671z M12187.395,16021.026c508.789-35.098,791.455-83.828,1281.737-219.307
		c817.764-225.166,1417.207-489.307,2003.008-882.109c307.031-206.63,861.631-616.991,970.802-718.349
		c38.992-37.041,140.359-161.807,250.496-309.961c181.301-243.672,376.23-492.227,522.441-667.666
		c192.988-231.992,354.797-548.77,477.609-933.779c59.461-187.129,128.66-440.557,142.312-523.408
		c6.816-39.961,34.113-195.918,61.398-346.016c55.566-310.938,95.516-582.881,104.297-711.533
		c7.801-124.766-10.723-746.621-29.238-960.078c-29.25-352.842-68.234-565.332-195.93-1072.178
		c-170.566-682.285-319.695-1149.17-500.984-1575.117c-139.387-326.533-231.008-498.076-449.348-837.266
		c-140.352-218.34-258.289-407.432-336.27-539.023c-98.438-166.67-239.774-333.34-409.374-480.527
		c-125.732-110.137-158.877-131.582-237.822-154.971c-36.064-10.723-82.852-32.168-105.273-48.73
		c-22.422-15.605-45.811-26.318-52.627-24.365c-6.826,2.92-23.398,20.459-36.074,39.951
		c-35.078,50.693-120.859,125.742-193.965,169.609c-104.287,61.396-266.094,79.912-341.143,39.951
		c-52.627-28.262-77.002-101.367-37.041-112.09c11.699-2.92,42.891,0.977,68.232,8.779c77.002,23.389,124.756,18.516,218.33-22.422
		c131.592-56.533,226.133-160.83,226.133-248.555c0-47.754-30.215-69.199-135.488-93.564
		c-96.504-22.422-260.254-27.295-311.895-9.746c-40.957,14.619-76.035-0.977-84.805-35.088
		c-14.629-59.463,64.336-94.551,206.641-93.574c81.875,0.977,101.367-1.953,101.367-12.676c0-39.951-348.945-321.65-550.703-444.453
		c-37.051-22.432-157.91-90.664-268.047-151.084c-110.156-60.43-335.312-187.148-501.973-281.689
		c-706.66-403.535-1038.056-538.037-1531.259-619.912c-199.814-33.145-326.523-38.984-808.027-38.984
		c-552.656,0-923.037,15.586-1310.967,54.58c-184.238,18.525-187.148,18.525-183.252,45.811
		c2.93,19.492,10.723,22.412,80.908,29.238c167.637,15.596,252.441,61.406,304.092,160.83
		c23.398,45.811,30.225,69.199,26.318,92.598c-22.412,132.549-49.707,180.322-137.422,237.822
		c-52.637,35.088-58.486,37.041-133.535,37.041c-75.059,0-83.828-2.93-160.83-43.857c-70.186-38.018-83.818-49.717-104.297-89.678
		c-12.666-25.342-27.285-76.025-33.135-112.09c-10.723-77.979-23.398-90.645-92.598-90.645c-75.049,0-140.361-23.398-230.039-82.852
		c-56.523-37.041-90.645-53.604-113.057-53.604c-103.32,0-568.252,141.328-889.902,270.957
		c-821.68,330.42-1413.32,685.215-2110.234,1265.166c-248.545,206.641-376.24,332.373-570.195,564.355
		c-89.678,107.217-194.941,230.029-232.959,272.92c-258.301,288.506-396.709,460.049-526.338,653.047
		c-202.744,303.135-355.771,641.348-451.289,999.062c-15.596,61.406-37.041,131.582-46.787,155.957s-41.914,120.859-72.129,214.443
		c-153.027,481.494-194.941,709.58-211.514,1168.662c-5.84,156.934-7.793,292.402-3.887,301.172
		c2.92,8.77,9.746,152.051,14.619,318.73c8.76,291.445,22.412,449.336,54.58,614.072
		c43.857,226.123,302.158,1357.764,327.49,1432.812c32.178,98.438,104.297,250.488,163.76,345.039
		c43.857,70.186,47.754,98.447,19.492,134.502c-10.732,13.652-19.492,35.098-19.492,46.797
		c0,63.359,350.898,814.844,476.621,1023.438c33.145,53.613,63.35,104.287,68.232,112.09
		c144.258,238.809,209.561,333.34,335.293,486.367c290.469,349.922,603.34,664.756,1170.625,1178.417
		c182.266,165.703,477.598,385.01,595.547,442.51c16.553,7.812,48.73,24.375,73.096,37.051
		c419.121,217.354,588.721,280.713,823.623,307.031c97.471,10.713,220.283,32.158,516.592,92.598
		c368.447,75.039,358.691,73.096,496.123,128.652c64.336,26.318,157.9,55.557,205.664,66.289
		c48.73,10.713,124.756,28.262,170.576,38.008c98.447,23.389,462.002,58.477,706.66,69.209
		C10974.865,16048.321,11943.723,16038.575,12187.395,16021.026z M935.422,15841.681c21.445-9.746,49.717-30.215,61.406-45.811
		c21.445-26.328,22.422-35.088,18.525-154.98c-2.93-112.09-5.85-132.559-27.295-175.439c-21.445-42.891-28.271-48.74-58.477-51.67
		c-72.139-5.84-164.736,83.828-192.021,185.195c-16.572,65.303-16.572,93.574,1.953,145.234
		c17.539,47.764,36.064,72.129,77.979,97.471C854.534,15865.079,884.739,15865.079,935.422,15841.681z M7074.094,15786.114
		c8.779-2.92,24.375-34.111,35.098-69.199s39.961-95.518,64.326-135.488c24.365-38.984,41.914-76.025,38.994-80.898
		c-2.93-4.873-34.121-22.412-68.232-38.018c-34.111-15.586-79.932-45.801-102.344-66.27
		c-66.279-58.486-78.945-93.574-88.691-240.762c-11.699-169.59-38.994-259.258-115.996-374.276
		c-58.486-87.725-76.025-105.264-307.031-314.824c-132.559-119.893-353.818-351.875-572.158-598.477
		c-101.357-114.033-234.893-293.379-361.602-485.4c-27.295-41.904-54.59-76.016-60.439-76.016c-5.84,0-18.525,13.633-27.285,29.238
		c-19.502,33.135-29.248,35.088-102.344,13.643c-29.248-8.77-63.359-12.676-76.025-9.756
		c-28.271,6.826-112.09,93.584-163.76,169.609c-66.279,94.541-326.523,402.549-372.334,439.58
		c-61.406,49.717-248.545,241.729-300.215,307.031c-33.135,42.891-88.691,108.203-121.836,146.211
		c-165.684,184.219-237.812,348.945-251.465,576.054c-6.816,106.24,9.746,202.734,43.857,248.545
		c28.271,38.994,91.621,78.955,135.488,84.795c36.064,4.873,42.891,1.953,73.105-30.215c38.984-40.938,43.857-41.904,78.945-14.619
		c22.412,17.549,26.318,26.318,21.445,56.533c-3.906,19.492-2.93,39.971,1.953,46.787c9.746,14.619,187.139,78.955,329.434,118.916
		c204.697,57.51,239.775,60.43,992.246,59.463c376.25,0,698.867,3.887,717.393,7.793c18.516,4.873,93.564,38.984,165.693,75.049
		c151.084,77.002,338.223,159.844,362.588,159.844C7051.682,15791.974,7065.334,15789.044,7074.094,15786.114z M7418.166,15341.661
		c40.938-19.502,67.256-37.041,63.359-42.891s-41.914-36.064-84.795-69.199c-42.891-32.168-132.568-103.33-197.871-157.91
		c-66.279-53.604-124.766-98.438-130.605-98.438c-14.619,0-3.906,216.377,12.666,272.92
		c25.342,84.785,116.963,140.352,218.34,132.549C7326.545,15375.772,7378.205,15360.167,7418.166,15341.661z M1222.961,15298.771
		c127.686-37.041,165.693-97.471,146.201-231.006c-9.746-69.199-24.365-87.725-45.811-57.51
		c-24.365,36.074-48.73,43.867-80.898,26.318c-43.857-22.422-65.303-17.549-93.564,18.516c-48.73,64.336-76.025,166.68-57.51,215.42
		c5.85,13.643,52.637,41.904,73.096,43.857C1167.405,15314.366,1193.723,15307.54,1222.961,15298.771z M1565.09,14957.618
		c16.562-38.008,18.506-56.523,12.666-108.184c-14.619-137.44-75.059-290.458-133.535-339.198
		c-33.145-28.271-48.73-23.389-89.678,24.375c-35.088,42.881-45.811,92.588-42.881,201.748c2.92,90.653,3.896,96.503,26.309,105.282
		c86.758,36.055,103.33,48.73,130.615,105.264c22.412,45.811,31.191,55.557,51.66,55.557
		C1539.739,15002.462,1548.518,14993.683,1565.09,14957.618z M1715.188,14650.588c9.746-11.699,40.938-35.078,69.209-53.604
		c70.176-44.834,76.025-58.486,74.072-179.346c-1.953-117.939-25.342-236.855-52.637-264.15
		c-35.088-35.078-110.136-12.666-171.543,51.66c-61.406,64.336-64.326,104.297-21.445,281.699
		c29.238,116.963,56.523,184.219,75.059,184.219C1692.766,14671.066,1704.465,14661.32,1715.188,14650.588z M2121.633,14160.314
		c59.453-25.332,78.955-57.51,82.861-135.488c1.943-58.477-0.977-76.025-19.492-108.184c-12.676-21.445-34.121-46.787-48.74-57.51
		l-26.318-19.492l-62.373,30.215c-68.232,34.121-138.408,101.367-149.141,144.258c-9.746,36.064,29.238,108.184,73.105,137.432
		C2009.543,14177.863,2072.903,14180.783,2121.633,14160.314z M2740.578,13505.314c121.836-60.43,170.566-204.688,110.137-322.617
		c-10.723-21.445-25.342-43.867-34.121-50.693c-19.492-16.572-61.396-6.826-115.01,27.295
		c-96.494,61.406-113.057,177.393-51.66,359.668C2656.75,13537.482,2685.012,13532.609,2740.578,13505.314z M18811.465,13401.018
		c16.582-18.516,39.961-61.406,51.66-96.484c23.398-71.152,37.043-163.75,24.375-163.75
		c-28.262-0.977-143.289-30.225-169.598-43.867c-30.227-15.596-32.168-15.596-68.234,8.77
		c-63.348,41.914-134.512,168.623-120.859,214.434c13.652,44.844,63.352,81.885,144.25,109.17
		C18732.52,13448.781,18776.387,13440.012,18811.465,13401.018z M3417.024,12881.506c35.078-18.516,84.785-79.932,91.611-115.986
		c8.779-49.717-15.586-105.273-55.557-123.789c-32.168-16.572-37.041-16.572-81.875-0.977
		c-58.477,19.492-160.82,114.043-160.82,148.154c0,61.406,80.898,123.789,146.201,112.09
		C3375.1,12897.111,3402.405,12888.332,3417.024,12881.506z M3679.211,12578.381c55.557-33.145,78.955-147.188,38.018-188.115
		c-26.318-26.318-32.168-25.352-73.105,11.68c-61.406,53.613-93.574,149.141-61.406,181.309
		C3599.28,12599.826,3646.076,12597.873,3679.211,12578.381z M3919.963,12298.635c76.025-39.961,94.551-96.494,74.072-228.086
		c-20.459-124.756-27.285-131.582-89.658-85.771c-52.646,38.018-99.424,103.33-123.789,170.576
		c-23.398,67.256-19.502,92.598,19.492,126.709C3839.064,12315.207,3877.072,12321.047,3919.963,12298.635z M4228.947,11870.734
		c16.572-41.904,11.699-114.033-10.732-169.59c-15.586-39.971-26.309-39.971-56.523,0c-32.168,41.914-51.66,98.438-60.439,171.543
		c-9.746,87.725-5.84,92.598,58.486,61.406C4202.629,11912.658,4217.248,11899.982,4228.947,11870.734z M4671.457,11362.922
		c12.666-15.596,6.826-45.811-30.215-159.854c-14.619-46.787-25.342-64.326-43.857-71.152
		c-50.693-19.492-129.639,43.857-129.639,105.264c0,28.271,26.309,79.932,61.406,117.949c16.572,17.539,30.215,21.445,76.025,21.445
		C4641.242,11376.574,4664.631,11371.701,4671.457,11362.922z M18893.352,11327.834c22.41-12.676,50.672-100.4,50.672-159.854
		c0-83.818-41.914-137.432-139.375-179.346c-24.375-10.723-55.566-33.135-69.199-49.707c-23.398-31.191-23.398-31.191-40.945-11.699
		c-17.539,18.525-17.539,20.469,1.953,52.637c16.57,25.342,21.445,53.604,25.34,131.582c4.875,110.137,26.32,170.576,71.152,206.641
		C18820.246,11339.523,18864.102,11343.43,18893.352,11327.834z M18330.938,10492.512c23.398-26.318,52.637-101.367,66.289-167.646
		c9.746-51.66,8.77-62.383-6.836-95.518c-25.332-51.66-73.094-72.139-179.336-78.965c-81.875-3.887-85.781-3.887-97.469,17.559
		c-12.676,24.365-8.781,233.926,4.871,263.164c10.723,23.389,122.812,77.002,161.797,77.002
		C18301.699,10509.084,18321.191,10502.258,18330.938,10492.512z M4429.729,8460.256
		c22.422-226.133,97.471-512.695,317.754-1201.807c176.426-553.633,280.723-764.17,558.506-1134.551
		c503.916-669.629,962.031-1155.029,1486.426-1575.117c451.289-361.621,867.49-613.095,1504.932-910.381
		c438.623-204.688,792.432-334.316,1135.537-415.215c58.477-13.652,113.066-30.234,120.859-36.064
		c10.723-8.779,12.676-25.352,7.803-64.336c-9.756-81.875-13.652-85.771-97.471-92.598c-85.771-5.85-144.258-30.215-200.791-80.898
		c-90.654-81.875-119.893-166.67-77.002-222.236c36.064-45.811,76.025-26.318,95.518,47.773
		c5.85,21.436,17.539,49.697,26.318,62.373c18.525,26.318,124.766,78.955,159.854,78.955c39.961,0,83.818-34.111,107.217-82.852
		c19.492-40.938,20.469-49.727,9.746-85.781c-6.816-22.412-28.262-56.533-48.73-76.992c-32.178-33.145-41.924-37.041-83.828-37.041
		c-48.74,0-445.439,77.979-627.705,122.812c-288.516,71.143-627.715,203.711-1008.818,393.779
		c-160.83,79.922-369.414,182.265-462.979,228.066c-282.666,136.465-483.467,271.953-934.746,633.564
		c-375.264,300.205-448.369,363.564-624.785,541.943c-235.879,237.812-448.359,501.973-579.941,722.246
		c-94.551,158.867-602.383,1191.094-651.113,1324.629c-81.865,221.25-140.352,497.1-162.764,755.391
		c-10.732,134.512-12.686,517.559-2.939,928.887C4402.443,8580.148,4413.156,8634.729,4429.729,8460.256z M16700.266,5820.764
		c0-21.445-43.859-96.494-137.434-234.902c-98.445-146.211-145.234-203.711-163.75-203.711c-19.491,0-10.723,19.492,40.938,90.645
		c29.238,38.008,95.52,134.512,148.156,214.434C16675.898,5818.82,16700.266,5848.059,16700.266,5820.764z M16352.296,5323.674
		c-10.723-8.779-27.285-29.248-36.064-46.797c-8.779-16.562-49.707-73.105-92.598-125.732
		c-122.812-153.027-132.559-160.83-162.773-115.01c-13.643,21.436-13.643,25.332-0.977,44.834
		c26.318,36.064,304.111,279.736,308.008,269.014C16369.845,5344.133,16363.019,5332.434,16352.296,5323.674z M15971.183,4956.203
		c10.732-9.746,17.549-29.238,17.549-50.684c0-31.191-14.619-51.66-124.766-176.416c-93.564-106.25-130.605-142.314-150.098-144.268
		c-45.811-5.84-135.488,70.186-123.789,103.33c7.793,22.412,324.57,284.609,343.096,284.609
		C15943.888,4972.775,15961.437,4965.949,15971.183,4956.203z M16639.836,4610.188c39.961-43.867,54.578-128.662,26.316-156.934
		c-7.801-8.77-34.109-22.422-58.477-32.168c-41.922-15.586-44.844-15.586-63.359,0.986c-23.398,21.436-24.375,35.078-3.906,92.598
		c8.781,24.365,12.676,55.547,9.746,69.199c-2.918,13.643,0,30.205,6.828,37.031
		C16574.531,4638.449,16617.422,4633.576,16639.836,4610.188z M15563.761,4539.035c35.098-35.098,64.336-69.209,64.336-77.002
		c0-20.469-46.797-78.955-157.9-200.791c-109.17-119.893-192.021-196.894-339.199-313.857
		c-50.684-40.938-112.09-94.541-136.455-119.883c-61.416-64.336-200.801-180.322-288.525-239.785
		c-81.865-54.58-928.887-513.672-1266.133-685.215c-314.833-160.82-478.583-210.527-954.237-294.355
		c-319.697-55.566-605.283-88.701-878.203-102.344c-229.053-11.699-756.367-5.85-1004.922,10.723
		c-79.922,4.873-252.441,16.562-384.023,24.365c-230.039,15.596-528.291,47.754-547.793,59.453
		c-11.689,7.803-5.85,39.961,20.469,112.09c18.525,51.66,18.525,58.486,5.85,107.217c-33.135,120.869-37.041,154.004-26.318,229.062
		c11.699,84.795,22.422,101.367,65.312,101.367c32.168,0,219.307-36.064,227.109-42.891c15.586-15.586-39.971-38.018-181.309-74.072
		c-29.238-7.803-44.834-17.549-53.604-36.064c-9.746-22.422-7.803-27.295,15.596-47.764c32.168-27.295,46.787-28.262,136.465-8.77
		c77.969,16.562,147.178,46.787,220.273,96.494c61.406,41.904,88.711,43.857,301.191,20.469
		c373.311-38.984,730.049-56.533,1220.332-56.533c746.611-0.977,979.57,24.365,1358.73,146.201
		c376.239,120.869,588.72,225.166,1461.073,722.256c572.158,325.547,644.277,374.287,907.451,605.293
		c78.955,70.176,146.201,127.686,147.188,127.686C15498.448,4602.385,15528.673,4574.123,15563.761,4539.035z M17254.863,4195.939
		c79.934-68.232,90.645-227.109,15.605-227.109c-38.016,0-84.805,41.914-128.66,115.02l-42.891,70.176l20.477,29.238
		c27.285,38.994,55.547,57.51,77.969,51.66C17207.109,4232.004,17233.418,4214.445,17254.863,4195.939z M17486.848,3908.401
		c38.984-40.938,57.508-79.932,68.23-139.385c11.699-60.43,0-107.217-31.191-127.686c-47.754-31.191-87.715,7.793-127.684,124.756
		c-12.668,38.018-23.391,77.979-23.391,88.701c0,17.549,60.422,84.805,76.992,84.805
		C17453.711,3939.592,17470.285,3924.973,17486.848,3908.401z M10440.725,3628.655c37.041-25.332,57.5-62.383,66.279-114.043
		c12.666-82.842-67.256-143.281-210.527-157.9c-95.537-9.746-131.592-1.943-140.361,32.178
		c-5.85,24.365,16.572,158.867,32.158,187.129c12.666,25.352,50.684,58.486,78.955,70.186
		C10309.143,3663.742,10405.627,3653.996,10440.725,3628.655z M17671.066,3476.604c30.215-19.492,61.406-85.781,62.391-128.662
		c0-61.396-69.219-81.875-110.156-32.158c-33.133,38.984-70.164,135.479-66.27,174.463
		C17558.008,3508.772,17636.953,3499.026,17671.066,3476.604z M10009.904,3310.91c32.168-13.652,67.256-66.289,56.533-84.804
		c-12.666-20.469-209.561,1.953-235.879,26.318c-16.562,14.619,8.779,38.008,62.383,57.5
		C9942.648,3328.449,9968,3328.449,10009.904,3310.91z M7567.307,3148.127c45.801-23.389,64.326-38.018,66.27-53.604
		c1.953-12.666-10.723-57.51-28.262-101.377c-30.215-76.025-34.121-80.898-80.898-102.344
		c-107.217-49.707-167.656-15.586-186.172,104.297c-7.803,54.58,13.643,112.09,62.383,163.75
		c27.285,29.238,35.088,32.158,67.256,27.285C7487.375,3182.249,7532.209,3165.676,7567.307,3148.127z M17826.055,3156.897
		c42.871-24.365,76.992-76.992,86.738-136.455c5.852-30.215,2.922-39.961-18.516-61.406c-17.547-17.539-31.191-22.412-46.797-18.516
		c-67.246,19.492-142.305,187.139-102.344,227.109C17761.719,3184.202,17782.188,3182.249,17826.055,3156.897z M7868.479,2995.1
		c122.822-63.359,462.988-203.711,639.414-263.164c140.352-48.74,212.48-68.232,373.311-103.32
		c27.285-6.826,28.262-35.098,0.967-59.463c-61.406-55.557-129.629-196.895-126.709-265.117
		c1.953-52.627-12.666-59.453-80.898-38.008c-42.891,13.643-61.406,14.619-109.17,5.84c-64.326-11.699-76.992-17.539-142.305-61.406
		c-52.637-34.111-70.176-74.072-79.922-177.393c-4.873-53.613-2.93-61.406,16.572-80.898c45.811-41.914,88.691-17.539,100.391,57.51
		c8.77,56.533,37.031,113.066,66.279,131.582c15.596,10.723,39.961,14.619,70.176,12.676c64.326-3.906,82.852-31.191,89.678-127.695
		c3.887-72.119,3.887-73.105-30.225-110.137l-35.088-38.008h-97.471c-84.795,0-99.414-1.953-111.113-18.525
		c-13.643-18.525-14.619-18.525-26.309,4.873c-24.375,47.764-73.105,112.09-106.25,140.361
		c-32.168,28.262-38.018,29.238-121.836,29.238c-76.025-0.977-95.518-3.896-137.432-26.318
		c-57.51-30.215-89.678-62.383-129.639-129.629c-22.422-38.994-33.135-48.74-51.66-46.797c-12.666,0.986-51.66,4.873-86.748,8.779
		c-45.811,3.896-75.049,1.953-107.217-9.746c-24.365-8.779-46.787-15.596-49.707-15.596c-3.896,0-7.803,34.111-10.723,77.002
		c-5.859,92.588-34.111,149.121-95.527,186.172l-40.938,24.365l5.85,48.73c17.539,159.854,18.525,188.115,1.943,239.775
		l-16.562,52.637l28.262,68.232c16.572,38.008,38.994,100.391,50.693,139.385c18.506,64.326,28.262,79.922,92.598,147.168
		c58.477,61.406,76.992,87.725,96.484,142.314c24.365,67.246,44.844,92.598,73.105,92.598
		C7788.557,3033.118,7828.518,3015.569,7868.479,2995.1z M7348.967,2784.573c60.43-35.098,72.129-55.566,60.43-104.297
		c-10.723-48.74-46.777-134.512-56.523-134.512c-3.906,0-11.699-10.723-17.559-24.365c-24.365-52.637-108.184-10.723-110.137,55.547
		c-5.85,143.291,19.492,231.992,66.279,231.992C7300.227,2808.938,7326.545,2798.206,7348.967,2784.573z M9127.795,2523.342
		c50.693-34.111,77.012-79.922,77.012-135.479c0-83.828-26.318-106.25-153.037-130.615
		c-147.178-28.262-195.918-13.643-183.242,52.637c17.549,93.574,87.725,188.115,164.727,222.236
		C9075.158,2550.637,9089.777,2548.694,9127.795,2523.342z M17963.477,2450.237c32.168-21.436,51.66-134.502,33.145-192.012
		c-12.676-37.041-46.797-58.477-77.977-48.73c-29.238,9.746-69.211,59.453-92.59,117.939c-19.5,48.73-21.445,60.43-10.73,77.002
		C17840.664,2444.397,17931.32,2472.668,17963.477,2450.237z M7322.648,2353.752c22.412-14.629,22.412-19.502,16.572-95.527
		c-7.793-101.367-38.994-205.664-65.312-220.283c-28.262-14.619-62.373,9.746-76.992,55.557
		c-21.445,63.359,0.967,218.34,37.041,260.254C7252.463,2375.198,7292.434,2375.198,7322.648,2353.752z M18004.414,2066.213
		c30.215-30.225-3.895-223.213-40.938-230.039c-26.316-5.84-35.078,14.619-35.078,81.885c0,77.969,24.367,159.854,46.777,159.854
		C17984.922,2077.913,17997.598,2073.04,18004.414,2066.213z M7444.484,1949.25c21.445-29.248,19.492-84.805-4.873-173.496
		c-26.318-99.424-75.059-195.928-104.297-206.641c-18.516-5.85-28.262-1.953-49.707,19.492
		c-23.398,23.389-28.271,37.041-34.111,106.24c-7.793,101.367,2.92,129.639,82.852,213.457
		C7399.65,1975.569,7421.096,1983.362,7444.484,1949.25z M8194.035,1907.336c69.199-33.145,105.264-148.154,70.176-222.236
		c-17.549-38.008-63.35-65.303-109.16-65.303c-75.059,0-191.055,57.5-208.594,103.32c-17.539,48.73,51.66,124.756,157.9,174.473
		C8166.75,1925.852,8156.994,1924.875,8194.035,1907.336z M7625.783,1704.592c18.516,0,60.43,3.906,93.574,7.803
		c53.604,6.816,60.43,4.873,85.771-16.572c34.111-29.238,37.031-72.129,6.816-96.494c-64.326-52.627-263.164-23.389-271.943,38.018
		c-5.84,37.031,17.559,82.842,36.064,74.072C7584.846,1706.545,7607.258,1703.616,7625.783,1704.592z M18058.996,1691.926
		c35.098-34.121,32.168-118.916-3.887-169.6c-18.527-26.318-26.32-30.215-47.766-24.365c-13.652,3.896-46.785,7.793-74.082,8.77
		l-48.73,0.977l-2.93,38.994c-4.871,60.42,5.852,99.404,38.02,131.582c25.34,24.365,37.031,29.238,77,29.238
		C18026.836,1707.522,18049.25,1701.672,18058.996,1691.926z M17999.543,974.543c10.723-13.652,21.445-46.787,23.387-73.105
		c11.699-115.01-76.023-187.139-143.27-119.883c-28.273,28.262-26.32,104.287,4.871,164.717
		c12.668,26.318,29.238,50.684,36.055,52.637C17946.906,1010.608,17981.016,999.885,17999.543,974.543z"/>
	<path fill="#EFE483" stroke="#EFE483" stroke-width="80" stroke-miterlimit="10" d="M7359.68,16343.653
		c-118.906-42.891-165.693-100.391-115.977-145.234c24.365-22.422,40.938-20.469,107.217,6.826
		c79.922,33.135,157.9,47.764,191.035,35.088c81.875-30.215,212.48-195.918,265.117-335.303
		c38.018-96.494,85.771-161.797,119.893-161.797c28.271,0,69.209,31.191,69.209,52.637c0,26.318-28.271,91.621-87.725,200.791
		c-118.916,218.33-200.791,317.744-289.492,350.889C7544.875,16374.845,7445.461,16373.858,7359.68,16343.653z"/>
	<path fill="#EFE483" stroke="#EFE483" stroke-width="80" stroke-miterlimit="10" d="M11068.43,15576.554
		c-11.689-4.873-21.436-12.666-21.436-17.539c0-25.342-51.67-39.961-190.068-54.58c-350.889-37.041-456.172-69.209-1252.49-383.066
		c-745.654-293.379-1123.848-464.921-1423.066-642.323c-166.68-99.424-455.195-300.205-521.465-363.564
		c-32.178-30.215-111.123-100.4-175.449-156.924c-167.656-146.211-468.838-443.496-582.881-574.102
		c-268.047-309.961-435.684-569.229-747.588-1155.02c-399.629-750.518-540.967-1107.266-677.422-1715.479
		c-19.492-84.795-38.018-159.854-41.914-164.727c-2.93-5.85-8.77-57.51-11.689-114.043c-3.906-56.533-13.652-124.756-22.432-151.074
		c-26.309-79.932-65.293-555.586-76.992-926.943c-13.652-457.139-4.873-1145.273,15.586-1271.982
		c36.074-222.236,115.02-401.582,296.318-668.652c54.58-80.898,99.424-150.098,99.424-153.018
		c0-11.699,445.43-677.422,514.639-770.02c207.607-276.816,323.604-402.559,798.271-867.48
		c668.652-655.986,654.033-642.334,878.213-795.371c109.17-75.049,226.133-152.051,260.254-172.52
		c35.078-19.492,126.709-76.025,203.701-125.732c219.307-140.361,313.857-190.068,424.98-225.166
		c106.24-34.111,308.975-85.771,443.486-114.033c42.881-8.77,93.574-20.469,113.066-25.342s48.73-8.77,65.303-8.77
		s145.225-17.549,286.562-38.984c141.328-20.479,366.494-49.717,500.029-63.359c190.068-19.492,245.615-29.238,253.418-40.938
		c46.787-72.129,77.979-79.932,113.066-29.238c12.666,16.572,27.285,34.111,33.145,38.008c4.873,3.896,87.725,7.803,183.242,7.803
		c185.195,0,196.895-3.906,151.074-45.811c-33.145-30.225-60.43-41.914-121.836-52.637
		c-142.314-24.375-159.854-30.215-174.473-51.66c-20.469-32.168-3.896-68.232,36.064-82.852
		c37.031-12.666,113.057-14.619,119.883-1.953c2.93,3.906,33.145,15.605,66.279,25.352c76.035,20.459,142.314,54.58,169.6,84.785
		c11.699,11.699,33.145,44.844,46.787,73.105c21.445,42.891,30.225,51.67,56.533,55.566c17.549,2.92,165.703,6.816,329.453,8.77
		c326.523,4.873,296.309,0.977,765.146,90.645c523.408,99.424,719.326,154.98,1038.056,293.388
		c639.404,279.736,888.916,423.018,1189.141,685.225c108.184,94.531,250.488,201.748,317.744,239.766
		c85.771,47.764,98.447,41.914,154.98-76.025c24.365-48.73,43.867-99.414,43.867-112.09c0-67.256-49.717-94.541-175.449-94.541
		c-83.828-0.977-99.424,1.943-145.234,26.318c-28.271,14.619-62.383,26.318-75.059,26.318c-24.365,0-42.881-24.375-42.881-57.52
		c0-21.445,63.359-79.922,112.09-102.344c59.453-28.262,264.141-12.666,361.611,28.271c43.867,18.516,72.139,64.326,81.885,133.525
		c8.77,56.543,6.816,65.312-26.318,143.291c-19.492,45.811-50.693,107.217-68.232,135.479s-32.158,59.453-32.158,69.199
		s38.008,55.566,85.771,101.367c128.662,125.732,181.289,190.068,323.604,391.836c71.143,102.354,185.186,257.314,252.441,346.025
		c350.889,461.035,430.82,577.998,561.436,815.811c133.525,242.715,280.702,629.668,398.644,1050.742
		c85.77,306.055,249.531,957.148,268.047,1068.262c25.34,147.188,56.531,484.434,69.207,754.434
		c13.633,274.863-1.953,1020.508-23.398,1145.273c-39.961,231.973-57.508,317.754-102.344,523.408
		c-73.105,331.396-196.895,680.352-313.855,886.006c-75.051,131.582-146.202,225.156-273.888,361.621
		c-221.26,236.855-380.137,437.637-591.65,748.574c-148.154,217.354-197.861,277.793-331.396,407.422
		c-103.311,99.424-144.248,128.662-436.66,316.777c-115.996,74.082-192.988,134.512-342.129,270
		c-145.225,130.605-260.234,213.457-401.572,286.553c-144.258,74.081-225.156,106.239-425.947,166.679
		c-123.789,38.008-204.688,69.199-333.35,132.549c-256.347,125.742-328.476,147.178-929.872,268.047
		c-287.529,57.51-625.752,120.869-750.518,140.361c-123.779,19.492-303.125,54.58-396.699,78.945
		c-93.574,23.398-177.393,44.834-185.186,46.787C11096.701,15582.413,11080.129,15580.46,11068.43,15576.554z M11115.227,15390.392
		c24.365,0,85.771,1.953,136.455,2.92c72.119,1.953,116.963-2.92,204.688-23.389c129.629-29.248,262.188-50.684,414.248-64.326
		c73.105-6.826,151.084-22.422,243.672-49.707c75.049-22.432,193.965-47.764,263.174-58.486
		c153.018-21.445,533.154-100.4,648.174-133.535c45.811-12.666,157.9-60.43,250.497-106.25
		c115.02-56.523,216.387-98.438,321.65-131.582c423.994-135.478,617.959-236.845,836.299-437.636
		c181.289-166.68,288.506-248.545,476.621-362.588c70.186-42.891,158.877-101.377,197.871-131.592
		c103.32-77.969,260.244-246.592,347.969-374.287c169.6-244.648,261.221-370.381,363.555-500.986
		c96.504-121.836,154.014-189.102,396.709-461.045c180.321-201.758,302.157-453.232,429.853-885.996
		c118.906-401.582,174.465-789.512,185.195-1304.15c7.793-315.811-13.652-803.164-35.098-829.482
		c-39.961-48.73-173.496-65.303-617.958-77.969c-122.812-3.896-245.625-7.803-272.92-8.77
		c-45.811-2.93-558.506-24.365-571.172-24.365c-2.93,0-22.422,13.633-42.881,29.238c-33.145,26.309-43.867,29.238-108.203,29.238
		c-68.232,0-101.357-12.676-101.357-38.984c0-22.422-38.994-29.238-77.979-13.652c-28.271,11.699-54.59,14.619-90.654,9.746
		c-155.957-18.516-175.449-18.516-248.555,5.85l-72.119,24.365l-8.779-22.412c-7.793-22.422-12.666-23.389-100.391-23.389
		c-120.869,0-136.455,10.713-139.375,99.414c-1.953,95.527-30.225,364.541-46.787,456.162
		c-46.797,245.615-135.488,527.314-228.086,721.279c-16.572,35.088-30.215,72.119-30.215,83.818c0,10.723-8.77,28.271-19.492,38.018
		s-27.295,39.961-38.018,68.232c-26.318,69.199-168.623,346.016-243.672,471.748
		c-269.014,453.242-605.292,774.893-1058.524,1011.738c-75.059,39.971-143.281,76.035-151.084,80.908
		c-19.492,10.723-175.439,83.818-199.805,92.598c-225.166,83.818-450.322,154.971-564.365,179.346
		c-150.107,33.135-433.74,77.002-610.156,95.518c-248.545,25.342-735.898,20.469-793.408-8.77
		c-9.746-5.85-40.947-13.652-68.232-18.525c-27.295-3.887-132.559-36.064-233.926-71.152
		c-101.377-36.064-193.975-64.326-205.664-64.326c-17.549,0-23.398,6.816-28.271,38.994c-5.84,35.078-24.365,75.039-110.137,233.926
		c-16.572,29.238-65.312,104.287-108.203,165.703c-87.715,124.756-190.059,286.553-331.396,524.385
		c-98.438,164.717-300.205,461.035-383.057,562.402c-26.318,32.168-98.438,125.732-161.797,207.607
		c-93.574,121.846-112.09,153.037-103.32,165.703c23.398,38.008,394.756,213.457,540.957,255.37
		c38.994,11.689,86.758,29.248,105.273,38.994c61.406,31.182,308.975,134.502,411.318,171.543
		c189.102,68.223,217.373,78.945,275.85,105.264c334.326,152.061,843.125,279.746,1042.939,262.197
		C11041.135,15392.345,11090.852,15389.415,11115.227,15390.392z M8513.732,14482.941
		c17.549-13.643,345.049-446.416,405.479-536.084c22.422-33.135,60.43-82.852,83.828-109.16
		c41.914-45.82,94.551-135.488,94.551-159.854c0-5.85,14.619-27.295,32.158-46.787c42.881-49.717,71.152-94.551,138.408-222.227
		c32.168-58.486,74.072-126.719,93.574-151.084c19.492-24.365,48.73-66.289,64.326-93.574
		c14.619-27.295,61.406-99.424,102.344-160.83c101.367-150.098,208.584-357.715,196.885-377.207
		c-5.84-7.803-43.857-32.168-84.795-54.58c-143.271-76.025-249.521-159.854-415.225-327.5
		c-87.725-88.701-169.6-177.393-182.266-196.895c-12.676-19.492-52.627-72.129-88.701-115.986
		c-137.432-169.6-236.846-345.039-409.375-725.176c-166.68-365.518-289.482-744.678-344.062-1057.549
		c-29.238-171.553-42.891-518.545-39.971-1003.945c2.92-443.486,11.699-564.355,59.463-799.258
		c47.754-235.879,150.098-537.07,224.18-658.906c156.924-255.371,319.707-457.129,596.514-740.771
		c93.574-95.518,165.703-177.402,168.633-192.021c12.666-48.73-55.566-305.078-130.615-492.217
		c-10.723-27.295-107.217-242.695-213.467-477.607c-201.758-443.486-248.545-552.646-345.039-814.854
		c-38.018-101.367-61.406-181.289-66.279-225.146c-3.896-37.051-19.492-98.457-33.145-135.488
		c-13.643-36.064-25.332-75.059-25.332-83.818c0-27.305,27.285-48.74,62.373-48.74c26.318,0,35.098,5.85,52.637,37.041
		c10.723,20.459,24.365,63.35,30.215,96.484c4.873,33.145,16.572,73.105,24.365,89.678c8.779,15.605,15.605,36.064,15.605,45.811
		c0,24.375,65.293,228.086,116.963,364.541c57.5,151.084,114.033,280.713,295.332,672.549
		c181.289,394.756,260.244,595.537,311.904,789.512c16.572,63.35,25.342,82.852,38.008,81.865
		c8.779-0.967,78.955-38.984,155.947-84.795c246.611-146.211,448.369-233.936,630.645-274.863
		c56.523-12.676,153.027-34.111,214.434-48.73c303.135-69.219,1027.334-93.584,1350.938-44.844
		c652.07,98.447,1240.801,392.803,1720.351,860.654c140.352,136.465,469.805,493.213,514.639,556.562
		c77.002,110.137,235.879,427.891,235.879,470.781c0,8.779,28.262,99.424,62.383,201.768
		c35.098,103.311,70.176,224.18,77.969,269.99c23.398,124.766,35.098,310.928,35.098,537.061
		c0,242.705-6.826,230.029,124.766,214.434c112.09-13.652,864.561-13.652,1018.564,0c80.898,6.826,131.582,7.793,154.971,0.967
		c19.492-4.873,38.984-5.84,43.857-1.934c8.779,7.793,240.752,23.379,582.881,38.984c287.538,13.643,358.69,18.516,436.659,31.182
		c48.742,7.803,69.211,7.803,77.004,0c15.594-15.586-13.645-264.141-55.559-474.668
		c-29.238-146.211-229.051-879.189-338.223-1242.754c-147.177-490.283-394.745-931.816-802.177-1433.789
		c-54.58-67.246-107.217-135.479-115.986-152.051c-7.803-16.572-19.492-32.158-23.398-34.111
		c-4.873-0.986-54.58-71.152-111.113-154.98c-125.742-188.115-222.227-307.031-346.016-430.82l-96.504-94.541l-108.184-4.873
		c-97.471-3.906-115.02-6.826-168.623-34.111c-71.162-36.074-95.527-35.098-121.836,5.84c-14.619,23.398-34.121,36.064-82.852,51.66
		c-195.918,64.336-375.264-28.262-454.219-232.949c-8.77-24.365-20.459-47.764-24.365-52.637
		c-4.873-5.85-34.121,15.586-70.186,49.707c-72.119,69.209-119.883,87.715-181.289,71.152
		c-68.232-18.516-102.344-89.668-58.477-120.859c15.586-9.746,27.285-11.699,44.824-4.873c12.686,4.873,38.994,8.77,57.52,8.77
		c43.857,0,72.129-30.215,106.24-114.043c27.295-68.223,26.309-100.391-1.953-131.582c-16.572-18.525-110.137-56.533-139.375-56.533
		c-23.398,0-41.924-33.145-34.121-58.477c9.756-31.191,41.914-41.924,105.273-35.098c77.969,7.793,132.549,40.938,172.52,103.32
		c45.801,71.152,52.627,73.105,134.512,32.168c38.984-18.525,70.176-39.971,70.176-46.787c0-30.215-491.25-295.342-758.32-408.398
		c-530.233-226.133-1094.589-365.517-1695.985-419.121c-200.781-18.525-372.324-20.469-372.324-4.873
		c0,5.84,21.436,38.018,47.754,71.143c25.342,32.168,52.637,70.185,59.463,83.838c17.539,34.111,29.238,38.984,70.166,32.158
		c26.318-3.896,58.486,1.953,114.043,21.445c68.232,24.365,81.875,33.135,122.822,81.875
		c74.072,86.748,86.738,123.789,79.912,237.832c-3.887,82.842-2.92,95.518,9.746,90.645c49.717-19.502,58.486-17.549,90.654,23.389
		c43.867,55.557,74.082,68.232,159.854,68.232c118.916,0,152.051-28.271,152.051-130.615c0-46.777-2.93-55.557-29.238-77.969
		c-44.844-37.041-89.678-45.82-204.688-38.994c-95.527,5.85-103.32,4.873-120.869-13.652
		c-26.318-30.205-13.643-68.223,28.271-85.771c148.154-61.396,356.738-8.76,419.121,106.25
		c23.389,43.857,34.121,48.73,88.701,35.088c62.383-15.596,165.693-6.826,218.33,20.469
		c49.707,24.375,140.352,108.193,161.797,148.154c19.502,37.041,17.549,140.361-4.873,188.125
		c-21.445,47.754-75.049,96.484-123.789,112.09c-48.73,16.562-200.781,7.793-255.371-14.619
		c-59.453-24.375-89.668-64.336-89.668-118.916c0-53.613,20.469-80.898,60.43-80.898c22.422,0,31.191,5.84,41.914,32.158
		c26.309,63.359,51.66,72.119,178.369,67.246c45.811-1.934,52.627-4.873,71.152-33.135c32.168-51.65,20.469-111.113-29.238-154.98
		c-43.867-39.951-91.631-54.58-198.848-63.35c-80.898-6.826-80.898-6.826-109.16,69.209c-10.723,30.215-34.111,65.293-63.35,94.541
		c-38.018,37.041-57.51,46.787-103.33,56.533c-81.865,17.549-159.844,7.803-233.926-29.238
		c-66.279-32.178-99.424-66.289-108.184-109.17c-2.93-14.619-11.699-32.158-18.525-38.018
		c-14.619-11.699-10.723-13.643-91.621,47.764c-105.273,78.945-268.037,79.932-348.945,0.977
		c-16.562-16.572-37.041-50.693-45.801-77.002c-8.779-26.318-21.445-52.637-29.248-58.477
		c-7.803-5.859-59.463-14.619-115.986-18.525c-88.701-6.826-106.25-10.723-135.488-33.145
		c-43.867-33.135-66.279-81.865-78.955-177.393c-5.84-42.891-14.619-83.828-18.516-89.668c-4.873-7.793-29.248-12.676-60.43-12.676
		c-181.299,0-344.072-61.406-358.701-134.511c-8.76-41.914-42.881-78.945-85.771-89.668
		c-71.143-19.492-477.598,33.135-1163.789,151.084c-168.633,28.262-293.389,60.42-423.994,109.16
		c-124.766,46.787-275.85,122.812-341.143,172.52c-54.59,39.971-80.908,57.51-107.217,70.186
		c-61.416,30.215-407.441,263.164-594.57,400.605c-61.416,45.811-501.006,467.852-866.514,831.426
		c-167.656,166.66-336.279,349.902-410.352,443.496c-16.572,21.436-48.73,58.477-71.162,82.832
		c-68.223,74.082-141.328,177.402-345.039,487.363c-273.896,419.121-464.932,719.326-510.742,803.145
		c-72.119,134.512-124.766,306.064-145.234,473.711c-12.676,103.32-5.85,940.586,10.723,1369.453
		c34.121,890.879,209.561,1628.73,564.355,2368.535c66.279,139.375,294.355,555.586,495.146,906.465
		c209.561,366.484,396.709,606.27,741.748,951.309c269.99,269.023,523.418,480.527,787.559,658.906
		c26.318,17.539,77.969,52.637,115.02,77.969c86.738,58.477,296.309,168.633,321.66,167.656
		C8489.367,14494.641,8504.963,14489.768,8513.732,14482.941z M11160.061,12701.184c78.945-10.713,160.82-25.332,183.242-32.158
		c21.445-7.803,83.828-15.596,137.432-19.492c285.586-16.572,668.643-139.385,1079.971-345.049
		c241.729-120.859,364.531-199.814,508.799-331.406c163.75-148.145,368.437-361.611,399.628-416.191
		c14.619-26.318,39.951-59.463,54.58-73.096c57.51-49.717,339.189-584.824,437.637-828.496
		c22.422-56.543,45.811-108.203,51.66-115.996c6.826-7.793,16.572-31.191,22.422-53.613c6.816-22.412,29.238-87.725,50.684-147.178
		c64.326-178.369,112.09-432.764,128.662-686.191c11.689-180.312,10.713-821.67-0.977-941.553
		c-13.643-137.441-37.041-230.039-121.846-476.641c-129.629-382.08-207.607-514.639-451.279-772.93
		c-336.279-356.748-569.228-567.285-790.478-716.406c-125.742-83.838-342.129-192.021-472.734-235.879
		c-53.613-17.549-167.646-56.533-253.418-86.758c-158.887-54.58-313.857-93.564-462.988-115.986
		c-116.963-17.539-883.086-11.699-1018.564,7.803c-181.299,26.318-224.18,33.145-272.92,46.777
		c-26.318,7.803-94.541,23.398-151.074,35.098c-303.145,63.359-615.049,213.457-872.363,420.098
		c-146.201,117.93-412.305,395.723-571.182,598.467c-86.738,111.113-174.463,234.902-189.082,269.98
		c-6.826,17.559-32.178,66.289-56.543,107.227c-154.004,269.99-234.902,671.572-244.648,1221.309
		c-5.84,378.184,7.793,945.459,28.271,1091.67c20.469,153.008,50.674,289.473,77.979,355.762
		c11.689,29.238,28.262,76.025,37.031,102.344c7.803,27.285,27.295,85.771,40.938,131.582
		c14.629,45.801,37.041,102.344,50.684,126.719c12.676,24.355,63.35,144.248,112.09,267.051
		c168.633,425.947,271.943,596.523,592.627,975.684c69.199,81.875,139.375,154.971,157.891,164.727
		c18.525,10.723,41.924,32.158,50.693,49.707c19.492,35.088,151.074,130.605,249.521,180.322
		c81.875,41.914,331.406,136.465,443.496,168.623c110.137,32.168,201.758,51.66,350.889,75.059
		C10649.309,12728.479,10970.959,12728.479,11160.061,12701.184z M14344.415,5278.83c54.57-18.516,78.945-46.787,98.438-115.986
		c23.398-79.932,20.469-97.471-24.365-141.328c-88.701-85.781-218.33-119.902-302.158-77.979
		c-23.389,11.689-50.693,28.262-59.453,36.055c-8.779,8.779-31.191,17.549-47.764,21.445c-41.914,8.779-45.82,26.318-8.77,33.145
		c20.459,4.873,33.135,14.619,39.961,33.135c57.51,142.314,90.645,180.322,181.289,213.467
		C14270.323,5297.346,14289.825,5297.346,14344.415,5278.83z M11608.42,4583.869c69.199-32.168,101.367-95.518,86.748-172.529
		c-9.746-54.58-85.781-125.732-154.98-145.225c-49.707-14.619-57.51-14.619-77.979-1.953c-14.619,9.746-24.365,29.248-28.262,53.613
		c-3.896,20.459-17.549,52.627-31.191,71.152c-12.676,18.525-31.191,42.891-39.961,54.58
		c-14.629,20.469-13.643,24.365,27.285,77.969c23.398,31.201,53.613,61.416,66.289,68.232
		C11491.457,4607.268,11562.609,4604.328,11608.42,4583.869z M11251.682,4379.182c18.516-9.746,44.834-32.168,56.533-50.693
		c19.492-27.285,22.412-42.881,19.492-91.611c-2.92-49.717-9.746-67.256-41.914-113.076
		c-39.971-56.523-129.639-130.605-157.9-130.605c-11.699,0-20.479,14.629-29.238,42.891c-6.826,24.365-25.352,57.51-41.914,74.082
		c-32.168,34.111-37.051,65.293-14.619,108.184c7.793,15.596,14.619,39.961,14.619,54.58s6.816,44.844,16.562,67.256
		C11099.621,4407.453,11166.877,4422.072,11251.682,4379.182z M10952.443,4053.625c34.121-21.436,52.627-70.176,35.088-90.645
		c-11.699-14.619-33.135-15.596-193.955-8.77c-104.297,3.896-183.262,10.723-186.182,16.553
		c-19.492,32.188,21.445,71.172,96.504,92.607C10765.305,4079.944,10921.252,4074.094,10952.443,4053.625z"/>
	<path fill="#EFE483" stroke="#EFE483" stroke-width="80" stroke-miterlimit="10" d="M13318.048,5150.168
		c-56.543-7.803-144.257-43.867-184.218-75.049c-23.398-18.525-44.834-32.168-48.74-31.191
		c-71.152,36.064-89.668,40.938-157.9,40.938c-65.303,0-78.945-3.896-121.836-29.238c-53.613-34.111-71.152-68.232-56.533-109.17
		c12.666-37.041,48.74-39.971,110.137-8.779c67.266,35.098,102.344,33.145,142.314-6.826
		c76.025-76.016,63.359-263.164-20.469-301.172c-18.516-8.779-35.088-8.779-67.256,0c-52.637,13.643-99.424,5.84-113.066-19.492
		c-11.699-21.445-5.85-31.191,56.533-92.598c46.787-47.764,52.637-48.74,117.939-24.365
		c76.992,29.238,148.154,83.818,168.623,127.676c20.469,45.82,50.684,58.486,108.183,42.891
		c69.209-18.525,261.23,39.961,316.777,96.494c35.098,36.064,36.074,38.018,36.074,116.963
		c-0.977,86.748-14.629,132.568-59.453,192.021C13505.187,5121.906,13395.05,5161.867,13318.048,5150.168z M13414.542,5013.703
		c66.279-33.135,89.668-95.518,60.43-164.717c-16.572-40.938-69.199-61.406-170.576-67.256
		c-106.239-6.826-123.788,2.92-140.351,78.955c-15.596,72.119-10.723,94.541,28.262,122.812
		C13260.538,5032.229,13355.089,5044.895,13414.542,5013.703z"/>
	<path fill="#EFE483" stroke="#EFE483" stroke-width="80" stroke-miterlimit="10" d="M10363.723,12415.598
		c-51.66-30.205-51.66-27.285-55.557-601.387c-3.896-548.76,0.977-658.896,33.135-726.162
		c9.756-20.459,62.393-83.818,115.996-140.352c226.123-238.799,600.42-668.652,623.809-718.35
		c13.643-29.248,15.596-46.787,8.77-99.424c-32.158-240.752,6.826-315.811,202.734-400.596
		c117.949-50.693,115.996-46.797,131.592-299.238c6.816-116.963,21.445-307.031,32.168-422.041
		c11.689-115.029,26.309-330.43,33.135-477.607c9.746-215.42,15.596-273.896,29.238-300.215
		c8.779-17.549,54.59-61.406,100.391-97.471c127.695-98.447,235.889-190.068,397.686-333.34
		c80.898-71.162,198.838-171.553,263.174-222.246c155.957-123.779,187.139-153.994,215.41-208.574
		c26.318-52.637,54.58-74.082,112.09-86.758c21.445-4.873,55.557-20.459,75.049-33.135c45.811-31.191,98.447-32.168,124.766-3.896
		c16.572,18.525,18.516,36.064,17.539,188.115c-1.953,221.26-23.389,349.922-103.311,634.531
		c-14.629,48.74-63.359,232.949-109.17,409.375c-46.787,177.393-93.574,338.223-104.297,359.668
		c-21.445,40.938-51.66,73.096-560.459,587.744l-339.189,343.096l21.445,66.279c26.318,78.955,28.262,183.242,5.84,249.521
		c-29.238,84.805-122.803,167.656-240.752,211.514c-30.205,11.689-59.453,28.262-64.326,37.041
		c-4.873,8.76-11.699,93.564-14.619,187.139c-13.652,334.326-54.58,892.822-74.072,1003.945
		c-14.619,83.818-59.463,162.764-146.211,258.301c-43.857,48.73-137.432,164.717-207.617,258.291
		c-143.271,192.012-263.164,317.754-337.246,354.785C10489.465,12425.344,10399.787,12436.066,10363.723,12415.598z
		 M10504.084,12286.936c72.119-36.064,101.357-86.738,73.105-122.803c-23.398-29.248-125.742-49.717-139.385-28.271
		c-2.93,4.873-5.85,39.961-7.803,78.955c-0.977,52.627,1.953,71.152,12.676,77.979
		C10462.17,12305.461,10468.02,12305.461,10504.084,12286.936z M10461.193,11566.633c6.826-32.168,15.596-109.16,19.492-170.566
		c11.699-140.361,28.271-184.229,126.709-331.396c82.852-122.822,112.09-174.482,104.297-182.275
		c-7.793-8.779-248.545,220.283-265.117,251.475c-10.723,21.445-13.643,77.002-13.643,273.887
		C10433.898,11653.381,10439.748,11685.539,10461.193,11566.633z M11100.607,11262.531c49.697-80.898,62.373-133.535,73.096-314.834
		c10.723-178.379,28.262-626.738,24.365-631.611c-7.803-8.77-38.008,19.492-104.287,98.447
		c-99.424,116.973-100.4,147.178-4.873,187.148c59.453,24.365,61.396,43.857,21.445,154.004
		c-18.525,52.627-40.947,133.535-48.74,179.336c-16.572,92.598-20.479,383.066-5.85,383.066
		C11060.637,11318.088,11081.105,11292.736,11100.607,11262.531z M11388.137,10176.701c34.121-14.619,64.326-38.984,102.344-83.818
		l53.613-63.35v-73.105c0-70.176-0.986-74.082-33.145-106.25c-29.238-29.238-38.984-33.125-81.885-33.125
		c-54.57,0-130.596,28.252-165.693,61.396c-79.922,74.072-91.621,232.949-23.389,296.309
		C11271.174,10203.996,11323.801,10203.996,11388.137,10176.701z M11624.006,9584.094c36.074-38.018,66.289-73.105,66.289-78.955
		s-10.723-21.445-25.342-35.088c-18.516-19.492-30.215-23.389-50.693-18.516c-64.326,15.596-79.912,43.857-79.912,147.178
		c0,35.088,3.887,52.637,11.689,52.637C11552.863,9651.35,11587.951,9621.125,11624.006,9584.094z M12578.244,8168.82
		c9.746-38.984,18.525-80.898,18.525-93.564c0-12.676,19.492-99.424,43.867-192.988c34.111-133.545,45.801-200.801,54.58-311.904
		c5.84-78.965,8.77-145.234,5.84-148.164c-13.643-12.666-38.008,9.746-56.533,50.693c-32.158,74.072-48.73,175.439-57.5,365.508
		c-4.873,105.264-14.619,204.688-23.398,237.822c-8.77,32.168-18.525,86.758-21.445,121.836
		C12533.42,8282.863,12551.926,8268.244,12578.244,8168.82z M11973.928,8098.645c40.947-24.375,86.758-77.002,155.957-177.393
		c25.342-37.051,62.383-83.828,81.875-102.344c18.516-18.525,34.121-38.984,34.121-46.797c0-17.539-15.605-7.793-68.232,42.891
		c-24.365,23.398-94.551,86.758-155.947,141.338c-152.061,133.535-158.887,141.328-152.061,153.994
		C11881.34,8127.883,11936.896,8122.033,11973.928,8098.645z"/>
	<path fill="#EFE483" stroke="#EFE483" stroke-width="80" stroke-miterlimit="10" d="M6607.219,15442.052
		c-10.723-3.906-35.098-13.652-53.604-22.422c-39.971-18.516-155.957-41.904-272.92-56.523
		c-45.811-5.859-260.244-9.746-477.607-9.746l-394.756,0.967l-163.75-34.111c-203.711-41.914-431.797-106.25-508.789-142.305
		c-61.416-29.238-115.02-77.979-126.709-114.043c-3.906-16.572,0-28.271,18.506-46.787c30.225-30.215,39.971-30.215,88.711,0
		c95.518,57.5,139.375,75.049,298.252,115.986c331.396,86.748,534.131,107.217,934.746,97.471
		c349.912-8.77,510.732,9.746,675.469,77.002c76.992,31.191,94.541,47.754,94.541,89.678c0,28.262-4.873,36.055-25.342,43.857
		C6666.672,15451.798,6636.457,15451.798,6607.219,15442.052z"/>
	<path fill="#EFE483" stroke="#EFE483" stroke-width="80" stroke-miterlimit="10" d="M10004.064,17780.363
		c-108.203-46.777-404.502-154.98-614.072-225.156c-125.732-41.914-242.695-84.797-260.244-93.566
		c-116.963-64.336-173.496-104.297-241.719-173.496c-93.584-92.598-143.291-186.18-185.195-346.023
		c-27.305-101.367-111.123-332.375-149.141-406.457c-29.238-56.523-93.564-115.984-161.797-148.152
		c-68.232-32.159-91.621-65.304-73.105-101.368c25.342-47.764,46.787-46.787,153.037,5.85
		c51.65,25.342,102.344,59.453,133.535,89.678c43.857,43.856,55.547,64.325,111.113,204.688
		c34.111,85.77,78.955,217.352,100.391,292.41c51.66,182.266,84.795,246.594,166.68,328.477
		c50.684,51.652,85.771,76.027,155.947,109.152c86.748,41.922,390.85,154.012,752.48,278.777
		c145.225,49.707,181.289,66.281,212.48,95.52c37.031,36.062,46.787,75.047,24.365,97.469
		C10111.281,17805.703,10053.771,17801.809,10004.064,17780.363z"/>
	<path fill="#EFE483" stroke="#EFE483" stroke-width="80" stroke-miterlimit="10" d="M17790.957,14231.467
		c-19.492-5.84-63.359-32.158-96.492-58.477l-59.465-48.74l-66.277,6.826c-121.836,11.699-231.973-38.984-283.633-129.629
		c-15.598-27.295-42.891-58.486-60.43-69.219c-44.844-28.252-112.102-99.404-123.789-131.582
		c-5.852-14.619-12.676-60.42-16.574-103.311c-5.848-69.199-4.871-77.979,14.621-97.471c39.969-39.961,80.898-17.549,93.574,50.684
		c3.895,19.492,11.688,36.064,16.562,36.064c4.871,0,29.246-16.572,52.637-38.018c25.34-22.412,61.406-41.904,86.758-48.73
		c61.395-15.596,72.117-39.961,33.133-77.979c-16.57-16.572-33.133-30.215-38.008-30.215c-16.57,0-68.23-50.684-68.23-67.256
		c0-9.746,8.77-25.342,19.492-35.088c59.453-53.604,224.188,65.303,244.648,178.369c9.746,52.627,34.109,89.678,69.199,107.217
		c22.43,9.746,33.145,7.803,89.676-18.516c86.75-40.947,161.809-47.764,225.156-19.502c59.453,26.318,84.797,26.318,134.512-2.92
		c22.414-12.666,76.027-30.215,118.918-39.961c93.562-19.492,191.035-49.717,240.742-74.082
		c47.762-24.365,68.23-23.389,93.574,3.906c38.008,39.961,27.293,75.049-30.215,99.424c-40.93,16.562-43.867,29.238-21.438,93.564
		c19.492,55.557,37.031,67.256,96.484,67.256c69.211-0.977,89.68-19.492,121.836-113.066l25.352-77.002l36.055,0.977
		c60.43,1.953,69.211,16.572,63.359,99.424c-7.793,102.344-36.055,147.168-119.883,188.115
		c-54.59,27.285-74.082,32.158-138.418,32.158c-109.16,0-144.246-22.412-198.828-129.629
		c-34.121-67.266-62.383-82.852-130.613-74.082c-45.812,5.85-62.375,12.676-88.703,38.994
		c-30.215,30.215-32.156,37.031-32.156,96.484c0,73.105,17.547,125.742,46.785,141.338c34.113,18.525,144.25,12.666,187.141-8.77
		c20.469-10.723,39.961-23.398,43.867-29.238c2.918-4.873,21.434-9.746,38.984-9.746c25.34,0,38.008,5.84,50.672,25.332
		c14.629,22.422,14.629,29.248,1.953,66.279c-11.699,34.121-21.445,43.867-70.176,68.232
		c-52.625,26.318-65.301,28.271-170.574,29.238c-149.133,0.986-177.395-11.699-224.18-103.311
		c-27.297-52.637-33.137-76.025-37.043-145.234c-7.793-134.512-1.953-125.732-88.691-125.732c-55.555,0-85.77,4.873-116.961,20.469
		c-54.59,26.318-65.305,47.764-58.488,115.986c10.723,117.939,82.852,194.941,196.895,211.504
		c24.367,2.93,55.547,14.619,68.234,24.365c33.133,25.352,33.133,70.186,0,91.631
		C17933.262,14238.293,17838.723,14245.119,17790.957,14231.467z M17567.754,13993.645c15.586-18.525-2.93-163.76-24.363-196.885
		c-23.398-35.098-131.594-101.377-155.957-94.551c-25.344,6.826-63.352,48.73-63.352,70.176c0,9.746,8.762,34.121,19.492,55.566
		c10.715,21.436,19.492,45.801,19.492,55.547c0,8.779,14.621,33.145,31.184,52.637
		C17446.887,13996.574,17540.449,14026.779,17567.754,13993.645z"/>
</g>
</svg>
