<?xml version="1.0" standalone="no"?>
<!DOCTYPE svg PUBLIC "-//W3C//DTD SVG 20010904//EN"
 "http://www.w3.org/TR/2001/REC-SVG-20010904/DTD/svg10.dtd">
<svg version="1.0" xmlns="http://www.w3.org/2000/svg"
 width="1952.000000pt" height="2018.000000pt" viewBox="0 0 1952.000000 2018.000000"
 preserveAspectRatio="xMidYMid meet">
<metadata>
Created by potrace 1.15, written by Peter Selinger 2001-2017
</metadata>
<g transform="translate(0.000000,2018.000000) scale(0.100000,-0.100000)"
fill="#000000" stroke="none">
<path d="M3463 20076 c-191 -62 -273 -226 -188 -372 52 -89 160 -134 337 -141
108 -5 125 -3 205 22 94 29 99 29 188 -9 91 -38 170 -42 290 -16 169 37 155
38 226 -20 35 -28 96 -67 136 -86 81 -39 271 -86 314 -77 56 11 72 -2 140
-112 35 -57 69 -105 75 -105 6 0 36 -24 67 -53 69 -64 72 -86 22 -158 -57 -83
-67 -131 -72 -336 -8 -295 21 -467 93 -551 45 -53 95 -79 187 -98 74 -16 87
-21 87 -33 0 -12 -124 -99 -170 -120 -23 -10 -101 -61 -173 -112 -111 -79
-174 -136 -390 -354 -143 -143 -316 -325 -385 -405 -144 -164 -187 -208 -264
-265 -66 -51 -109 -122 -148 -243 -47 -145 -63 -258 -57 -392 7 -134 31 -234
87 -360 22 -48 38 -94 35 -102 -3 -7 -32 -28 -65 -46 -74 -41 -139 -113 -165
-183 -17 -46 -20 -79 -20 -214 0 -209 24 -317 101 -450 28 -49 61 -107 72
-128 11 -20 35 -47 53 -60 18 -12 52 -47 76 -77 24 -30 57 -68 72 -85 15 -16
44 -52 63 -80 20 -27 115 -125 211 -218 183 -175 365 -377 382 -425 24 -66
207 -260 275 -291 73 -33 171 -23 209 22 16 20 31 22 31 5 0 -7 -39 -83 -86
-168 -207 -379 -471 -974 -649 -1465 -73 -201 -68 -195 -166 -195 -64 0 -61
-3 -73 81 -6 52 -63 147 -98 165 -16 8 -38 12 -48 9 -26 -8 -37 -52 -19 -79
38 -60 49 -93 49 -152 0 -81 -14 -119 -51 -134 -24 -10 -33 -10 -54 4 -28 19
-85 112 -85 140 0 10 16 43 35 72 71 107 83 254 30 372 -30 67 -63 92 -122 92
-68 0 -77 14 -84 133 -5 90 -9 111 -33 151 -31 53 -91 97 -161 116 -50 14 -75
41 -75 79 0 43 -23 101 -54 137 -23 25 -49 41 -100 57 l-70 22 -12 68 c-15 79
-51 146 -94 177 -16 12 -60 31 -97 44 -77 26 -93 45 -93 115 0 60 -31 120 -91
176 -63 59 -119 84 -186 85 -45 0 -55 -4 -68 -24 -29 -44 -11 -73 69 -113 116
-57 156 -111 141 -189 -13 -70 -121 -146 -161 -113 -8 6 -31 46 -52 88 -40 83
-44 115 -28 266 7 63 5 94 -8 143 -29 114 -89 177 -216 227 -95 37 -100 44
-100 139 0 96 -21 151 -70 186 -32 23 -109 50 -142 50 -27 0 -58 -36 -58 -69
0 -32 14 -47 74 -76 59 -29 70 -58 57 -153 -18 -134 -68 -264 -107 -279 -42
-16 -163 81 -190 153 -23 61 -14 114 43 242 44 101 47 112 48 197 0 74 -4 97
-22 131 -44 83 -144 141 -273 160 -25 3 -51 13 -58 22 -8 11 -12 53 -12 127 0
100 -3 116 -26 163 -15 30 -46 68 -72 90 -47 38 -58 40 -167 30 l-30 -3 5 50
c11 110 4 218 -17 260 -26 50 -47 69 -113 103 -59 30 -61 33 -90 114 -24 64
-79 127 -140 158 -23 12 -75 25 -117 30 -44 5 -82 14 -90 23 -18 17 -19 83 -3
137 13 44 13 185 0 229 -22 77 -73 125 -182 168 -35 14 -69 32 -76 41 -7 9
-12 45 -12 86 0 89 -36 173 -99 229 -42 38 -118 77 -148 77 -8 0 7 15 33 33
103 70 159 202 159 372 0 117 -18 168 -80 228 l-38 37 76 79 c113 116 152 216
170 439 6 80 -36 123 -92 92 -25 -13 -30 -27 -52 -157 -32 -190 -83 -270 -163
-260 -95 13 -110 62 -57 180 83 185 193 283 375 332 132 36 269 231 294 420 8
60 7 72 -7 82 -21 16 -76 16 -89 0 -6 -7 -28 -60 -48 -117 -38 -112 -89 -198
-134 -230 -35 -25 -43 -25 -63 -2 -40 44 28 233 106 296 23 18 68 48 101 65
53 28 66 31 135 29 112 -4 166 25 304 164 134 136 162 174 187 258 22 75 30
83 179 193 90 66 119 106 128 175 5 35 3 40 -18 45 -48 13 -63 5 -143 -71
-123 -118 -234 -164 -286 -117 -40 36 -13 130 60 209 76 82 144 85 318 11 102
-43 113 -45 201 -45 107 0 188 18 275 62 69 35 165 105 195 144 28 36 28 88
-1 108 -35 25 -52 20 -125 -40 -91 -76 -130 -100 -202 -124 -105 -35 -256 -22
-288 26 -35 54 16 122 110 148 92 26 283 40 377 27 46 -6 106 -11 134 -11 39
0 67 -9 126 -39 96 -50 165 -65 273 -59 73 4 96 10 160 41 40 20 95 55 121 79
l49 42 -7 64 c-3 36 -1 84 5 108 26 102 -44 129 -327 129 l-190 0 -59 -30
c-61 -31 -87 -67 -122 -164 l-12 -34 -153 7 c-175 8 -335 -5 -432 -34 -85 -27
-157 -90 -182 -161 -10 -28 -25 -54 -34 -59 -8 -4 -50 -10 -92 -13 -162 -12
-251 -85 -313 -260 -22 -60 -32 -77 -54 -85 -14 -5 -48 -18 -75 -27 -122 -44
-248 -166 -324 -315 -48 -93 -54 -151 -25 -233 l18 -49 -30 -21 c-141 -102
-198 -210 -211 -404 l-7 -96 -46 -41 c-211 -189 -301 -339 -301 -503 0 -80 19
-118 74 -152 20 -13 36 -27 36 -33 0 -5 -26 -49 -58 -97 -69 -103 -116 -234
-134 -374 -12 -94 -12 -95 15 -148 l28 -54 -27 -75 c-21 -57 -28 -100 -32
-177 -4 -94 -2 -106 22 -160 34 -73 92 -133 178 -184 36 -22 69 -46 72 -54 2
-7 0 -43 -6 -78 -34 -203 106 -417 305 -468 26 -6 51 -17 56 -23 6 -7 14 -48
19 -92 11 -93 31 -138 114 -248 33 -44 64 -91 70 -105 5 -14 20 -87 32 -161
33 -191 67 -250 174 -296 110 -48 106 -44 114 -108 9 -69 50 -147 98 -187 31
-27 109 -68 181 -97 15 -6 40 -36 65 -78 46 -79 109 -133 210 -179 39 -18 74
-37 78 -43 4 -6 15 -45 26 -86 24 -94 41 -127 97 -187 62 -67 128 -106 212
-127 39 -10 75 -23 80 -28 5 -5 16 -34 25 -65 36 -128 121 -206 254 -234 104
-21 120 -31 168 -99 30 -44 56 -68 99 -91 50 -27 63 -40 99 -103 71 -125 151
-188 268 -213 76 -16 85 -23 105 -81 19 -54 83 -134 126 -157 30 -16 33 -22
58 -124 37 -153 110 -251 232 -312 38 -19 76 -35 84 -35 7 0 15 -6 18 -12 2
-7 11 -38 19 -68 17 -58 107 -190 131 -190 7 0 22 -29 34 -68 25 -84 53 -126
111 -169 110 -82 111 -83 119 -152 7 -57 12 -68 41 -93 19 -15 55 -35 80 -45
61 -22 80 -40 80 -77 0 -17 -14 -107 -30 -201 -39 -219 -121 -806 -160 -1143
-16 -145 -39 -300 -51 -345 -11 -45 -19 -98 -16 -117 5 -42 -17 -434 -38 -655
-10 -115 -15 -304 -15 -670 l-1 -510 41 -255 c80 -504 92 -535 490 -1350 123
-250 243 -491 268 -535 138 -244 468 -680 659 -870 54 -54 174 -161 268 -239
93 -78 255 -212 360 -299 322 -269 558 -439 835 -602 212 -125 208 -121 170
-175 -38 -53 -60 -120 -60 -183 -1 -74 -16 -120 -57 -173 -71 -92 -101 -243
-68 -347 19 -62 19 -64 -20 -192 -18 -61 -28 -115 -29 -167 -1 -73 1 -81 48
-171 27 -52 48 -106 48 -119 0 -12 -8 -61 -17 -107 -21 -102 -15 -165 22 -238
22 -45 37 -60 88 -89 34 -19 73 -34 87 -34 14 0 54 19 88 42 59 39 64 41 94
28 98 -40 135 -49 206 -50 79 0 142 22 210 71 l30 23 89 -22 c152 -38 239 -26
309 41 41 39 50 54 78 137 l22 65 99 -4 c85 -3 107 0 150 19 67 29 117 83 132
142 6 26 11 85 11 131 0 56 4 88 13 95 6 5 66 12 132 15 210 9 333 58 367 147
9 25 17 73 17 107 1 88 8 93 146 107 55 6 111 1 485 -43 465 -54 688 -66 1275
-66 425 1 567 4 715 18 352 33 713 94 1046 177 318 78 406 117 1044 460 932
501 945 508 1140 695 52 51 163 148 245 217 83 69 166 141 186 159 55 50 200
217 238 272 18 26 50 58 71 72 50 32 142 58 210 59 49 1 60 -3 102 -36 26 -20
64 -42 85 -49 46 -16 144 -16 212 1 48 11 52 11 81 -13 16 -14 56 -33 87 -42
123 -34 154 -55 207 -143 49 -82 81 -97 186 -95 47 1 96 3 109 5 21 3 26 -4
49 -75 28 -88 61 -124 169 -181 l57 -31 16 -81 c19 -100 58 -168 121 -209 l46
-30 5 -81 c5 -91 25 -135 101 -220 51 -57 67 -84 67 -114 0 -36 40 -142 72
-187 38 -56 96 -98 165 -120 74 -23 103 -52 103 -100 0 -51 -29 -96 -82 -126
-128 -74 -177 -31 -178 154 0 108 -11 129 -67 129 -47 0 -67 -30 -71 -109 -5
-77 9 -152 41 -231 30 -73 192 -378 218 -411 21 -27 21 -27 3 -119 -15 -79
-16 -103 -6 -161 11 -65 11 -69 -19 -141 -23 -52 -33 -95 -36 -150 -5 -72 -3
-80 23 -125 46 -76 50 -97 47 -234 l-3 -128 -45 -92 c-56 -115 -61 -182 -19
-273 29 -63 28 -79 -6 -171 -53 -144 10 -235 162 -235 130 0 185 82 222 336 9
60 23 134 31 164 22 82 19 112 -20 186 -19 37 -35 72 -35 79 0 7 12 39 27 71
24 53 27 70 25 158 -1 95 0 102 35 173 56 115 51 174 -22 269 -36 46 -45 65
-41 84 26 115 29 183 17 315 -8 76 -15 176 -16 224 -2 71 -8 97 -31 146 -30
63 -35 120 -19 216 6 38 3 55 -20 105 -23 50 -26 66 -19 104 30 165 -6 263
-139 376 -35 29 -37 34 -37 91 0 75 -33 146 -100 211 -65 65 -77 92 -82 200
-9 152 -68 247 -195 311 -27 14 -43 28 -43 40 0 10 -16 50 -35 88 -41 81 -111
153 -150 153 -38 0 -98 34 -116 67 -9 15 -24 54 -33 86 -28 96 -106 157 -201
157 -46 0 -75 -25 -75 -64 0 -40 11 -50 69 -66 24 -6 53 -22 66 -36 42 -45 60
-178 30 -221 -22 -31 -96 -57 -146 -50 -42 6 -88 41 -131 100 l-20 28 31 31
c42 41 53 86 41 170 -10 72 -36 123 -86 170 -40 37 -74 48 -147 48 -66 0 -78
5 -139 62 -68 65 -178 67 -194 4 -8 -34 0 -44 55 -68 63 -27 87 -52 111 -115
32 -87 29 -100 -35 -129 -74 -34 -177 -42 -224 -17 -54 28 -58 42 -32 118 18
58 21 80 15 150 -5 65 -3 89 10 116 9 19 115 157 236 308 215 268 382 500 410
571 8 19 49 114 92 209 43 96 78 184 78 195 0 12 -7 30 -15 40 -8 11 -15 28
-15 38 0 9 33 66 74 125 97 142 190 308 297 528 107 221 173 389 279 700 333
985 494 1672 549 2333 14 171 22 227 34 239 10 11 46 18 109 24 124 11 222 42
259 82 43 47 53 87 46 194 -6 81 -11 103 -47 175 -22 45 -40 88 -40 95 0 8 9
27 21 42 14 19 24 53 29 98 11 103 33 133 99 133 54 0 111 -108 115 -217 1
-65 -23 -93 -103 -120 -66 -22 -79 -39 -62 -81 12 -29 17 -31 70 -34 98 -5
188 46 212 121 25 75 9 214 -38 337 -4 10 4 14 31 14 100 0 221 83 255 176 53
140 2 373 -91 416 -21 10 -44 28 -52 40 -24 37 -46 183 -46 303 0 98 3 116 20
138 29 36 84 51 121 32 23 -13 33 -31 60 -113 49 -153 44 -236 -22 -321 -11
-13 -19 -39 -19 -57 0 -31 3 -34 29 -34 40 0 92 19 120 44 40 36 51 77 51 194
0 129 -24 235 -72 322 l-32 58 39 57 c35 50 40 65 43 125 7 126 -50 241 -151
304 -41 25 -61 30 -139 35 l-92 6 -13 43 c-19 66 -36 234 -31 316 4 95 21 116
89 116 39 0 55 -6 83 -30 55 -49 96 -170 96 -287 0 -66 2 -73 27 -93 32 -25
69 -20 97 13 16 19 18 33 13 108 -9 145 -47 256 -116 343 -35 44 -35 42 -50
181 -17 145 -71 251 -163 317 -72 51 -318 -1 -395 -84 -32 -34 -64 -112 -70
-173 -8 -80 26 -146 126 -241 113 -108 123 -135 141 -372 10 -137 26 -193 69
-248 17 -22 19 -35 14 -117 -7 -119 9 -201 47 -239 33 -32 60 -36 83 -10 21
22 21 58 2 137 -15 63 -12 116 11 152 44 70 155 5 185 -109 11 -42 10 -57 -7
-124 l-20 -77 -56 -2 c-88 -4 -159 -29 -189 -67 -56 -71 -59 -85 -59 -255 0
-134 3 -169 22 -232 l22 -74 -23 -16 c-59 -41 -111 -96 -132 -139 -19 -40 -23
-68 -27 -182 -4 -148 -13 -170 -62 -170 -14 0 -47 -13 -71 -29 -73 -46 -106
-115 -118 -245 l-6 -71 -60 -1 c-34 -1 -82 -10 -113 -22 -38 -15 -54 -17 -60
-9 -4 7 -12 75 -18 152 -12 145 -24 239 -49 385 -8 47 -21 130 -30 185 -9 55
-25 143 -35 195 -10 52 -31 158 -45 235 -88 476 -290 1039 -480 1340 -71 113
-193 276 -325 434 -113 136 -449 583 -483 643 -31 54 -274 289 -392 379 -55
42 -186 135 -292 207 -105 72 -274 193 -375 269 -235 177 -414 288 -713 438
-661 334 -1404 589 -2060 709 -484 88 -837 115 -1607 123 -1006 10 -1264 -17
-2028 -217 -146 -38 -339 -83 -430 -100 -91 -17 -226 -42 -300 -56 -74 -14
-184 -38 -245 -53 -153 -40 -150 -40 -169 -26 -12 10 -20 44 -32 136 -16 138
-42 219 -110 346 -24 46 -44 92 -44 102 0 14 21 32 73 62 98 57 153 111 178
178 26 70 41 272 37 511 -2 199 0 208 74 276 84 78 323 202 653 341 33 14 111
49 173 79 62 30 117 54 123 54 6 0 27 14 46 30 35 31 282 160 305 160 7 0 31
9 53 19 22 11 101 40 175 64 74 25 187 63 250 85 63 23 129 43 145 45 17 2 46
11 65 20 51 22 105 30 127 18 22 -11 73 -103 93 -165 7 -22 21 -53 31 -70 24
-41 218 -524 285 -709 59 -161 125 -381 148 -494 19 -90 10 -120 -45 -154 -22
-13 -68 -42 -103 -65 -40 -26 -130 -64 -242 -104 -99 -34 -191 -69 -206 -76
-50 -26 -44 -88 10 -100 15 -3 32 -7 38 -9 6 -2 36 8 65 22 30 13 126 51 214
84 88 33 178 72 200 88 22 15 56 36 75 46 45 22 87 62 108 100 12 22 15 54 14
123 -2 80 -10 120 -64 305 -33 116 -65 215 -70 218 -16 11 -269 665 -272 704
-1 6 -26 68 -56 138 -86 201 -140 257 -248 257 -43 0 -137 -28 -446 -131 -376
-126 -459 -160 -536 -220 -53 -42 -331 -187 -365 -191 l-30 -3 -1 80 c-6 337
-34 659 -64 750 -45 134 -129 228 -233 260 -80 24 -387 30 -537 11 -259 -33
-905 -237 -1026 -324 -46 -33 -222 -104 -320 -128 -38 -10 -130 -44 -204 -76
-265 -116 -309 -133 -322 -120 -7 7 -13 99 -18 274 -7 242 -10 269 -33 341
-14 43 -43 108 -66 146 -36 61 -46 71 -88 85 -65 22 -83 20 -208 -20 -117 -37
-248 -54 -275 -34 -77 55 426 120 592 76 210 -56 302 -139 339 -311 11 -54 14
-203 7 -340 -3 -46 -1 -50 24 -59 33 -12 63 10 84 61 22 51 18 262 -6 357 -37
146 -120 268 -228 337 -192 122 -599 118 -896 -9 -39 -17 -76 -28 -83 -25 -7
3 -38 56 -69 117 -37 74 -76 134 -115 178 -52 58 -66 68 -110 77 -87 19 -130
51 -179 136 -46 78 -81 114 -142 144 -58 29 -68 31 -178 31 -84 0 -139 -6
-195 -20 -108 -28 -146 -26 -176 6 -34 37 -60 48 -183 79 -82 21 -123 26 -164
22 -62 -7 -147 -45 -181 -81 l-24 -25 -21 42 c-16 32 -30 45 -61 56 -57 20
-278 25 -332 7z m335 -130 c34 0 62 -3 62 -6 -1 -3 -7 -32 -15 -65 -8 -33 -15
-79 -15 -102 0 -40 -1 -42 -47 -60 -74 -28 -241 -25 -311 6 -29 13 -62 35 -72
49 -40 51 -16 123 53 159 57 29 81 33 182 27 55 -4 128 -7 163 -8z m497 -44
l110 -37 -3 -55 c-2 -30 -9 -64 -17 -75 -18 -29 -75 -45 -177 -52 -104 -7
-166 7 -208 47 -25 24 -30 36 -30 77 0 49 19 90 56 118 37 28 147 19 269 -23z
m-1330 -42 c82 -12 125 -27 125 -45 0 -21 -129 -113 -190 -136 -69 -26 -162
-22 -235 10 -57 25 -65 34 -65 77 0 70 65 103 205 103 50 0 122 -4 160 -9z
m1932 -11 c15 -5 41 -22 56 -37 50 -47 61 -79 62 -178 0 -103 -10 -124 -59
-124 -50 0 -182 38 -250 72 -104 52 -123 70 -145 145 -11 36 -18 70 -15 75 11
17 67 39 122 47 84 12 197 13 229 0z m382 -304 c42 -21 95 -87 141 -176 56
-108 70 -151 58 -175 -15 -28 -50 -54 -73 -54 -29 0 -205 182 -205 212 0 4 14
23 31 43 28 32 31 40 25 78 -3 23 -9 52 -12 65 -7 26 -3 27 35 7z m958 -423
c12 -19 32 -59 45 -90 21 -53 23 -75 26 -319 2 -181 0 -263 -7 -263 -6 0 -28
35 -50 78 -72 142 -99 168 -217 212 -31 11 -32 13 -43 104 -7 52 -19 118 -26
147 -21 78 -19 104 9 122 38 25 126 46 186 44 50 -2 56 -5 77 -35z m-4969
-111 c20 -10 57 -25 82 -32 25 -7 49 -16 54 -20 14 -12 -92 -157 -178 -242
-94 -95 -164 -132 -233 -124 -52 6 -94 33 -107 69 -11 32 33 132 88 198 70 83
191 169 239 170 10 0 34 -8 55 -19z m4565 -6 c18 -17 47 -169 47 -241 0 -61
-16 -79 -63 -71 -104 17 -227 96 -227 147 0 27 60 86 144 141 65 43 78 46 99
24z m2932 -59 c65 -17 104 -38 136 -73 74 -79 92 -176 109 -583 5 -135 13
-273 16 -307 l7 -61 -84 -40 c-46 -22 -86 -39 -88 -37 -2 2 -12 68 -22 147
-53 410 -69 488 -125 605 -64 134 -140 170 -339 160 -145 -8 -265 -27 -416
-66 -356 -93 -914 -329 -1297 -550 -77 -44 -282 -167 -454 -272 -172 -106
-327 -198 -343 -205 -17 -7 -88 -60 -158 -118 -70 -58 -137 -111 -149 -117
-11 -6 -58 -43 -102 -81 -45 -39 -133 -108 -196 -153 -166 -119 -314 -250
-494 -436 -168 -173 -207 -223 -233 -291 -20 -53 -22 -199 -4 -283 16 -71 107
-232 148 -258 47 -30 133 -112 133 -127 0 -20 -63 -40 -129 -40 -46 0 -91 32
-111 80 -7 16 -25 37 -40 47 -28 19 -119 121 -157 179 -32 47 -70 167 -78 244
-13 128 44 297 143 418 55 69 641 682 714 747 28 25 72 58 97 73 25 14 57 37
71 50 14 14 59 47 100 73 41 27 98 66 125 87 77 61 319 223 429 287 238 139
963 456 1146 500 36 9 72 20 82 25 9 5 56 24 105 43 48 19 138 57 198 85 247
112 607 212 885 247 141 17 313 18 375 1z m-3342 -83 c24 -56 35 -106 47 -222
13 -118 46 -234 96 -333 42 -84 80 -127 147 -169 86 -54 86 -56 12 -106 -35
-24 -68 -43 -73 -43 -5 0 -12 13 -15 29 -8 38 -33 51 -120 62 -126 16 -156 49
-183 199 -22 117 -25 417 -6 500 14 63 45 120 65 120 8 0 21 -17 30 -37z m272
-253 c39 -16 79 -30 91 -30 24 0 49 -25 59 -60 24 -81 85 -165 152 -209 52
-35 88 -39 115 -14 31 28 21 51 -41 99 -33 26 -67 62 -77 82 -16 33 -15 37 3
81 22 54 45 62 80 29 46 -42 113 -196 113 -259 0 -14 -8 -33 -17 -41 -26 -22
-291 -158 -309 -158 -8 0 -19 12 -25 27 -5 15 -43 62 -84 104 -80 84 -117 146
-140 236 -19 72 -20 143 -2 143 7 0 44 -13 82 -30z m2846 4 c60 -31 113 -200
148 -470 38 -299 39 -382 6 -354 -15 13 -24 50 -55 235 -37 217 -91 354 -163
409 -60 46 -111 58 -247 59 -144 0 -239 -14 -361 -53 -138 -45 -666 -317 -741
-382 -15 -13 -76 -52 -135 -88 -59 -35 -155 -97 -213 -138 -158 -111 -270
-178 -430 -260 -79 -40 -187 -104 -240 -141 -52 -38 -138 -96 -190 -129 -52
-34 -132 -91 -176 -127 -331 -267 -673 -499 -924 -625 l-82 -41 18 30 c28 47
180 212 274 297 97 88 233 197 500 402 102 78 212 165 245 193 33 27 98 76
145 107 47 31 91 64 98 74 17 24 775 477 929 555 66 34 147 69 180 78 32 9
123 45 203 80 381 168 633 249 895 289 129 20 278 20 316 0z m-136 -296 c51
-55 111 -270 146 -524 l13 -92 -35 -37 c-19 -20 -58 -47 -86 -60 -82 -37 -120
-71 -153 -139 -37 -76 -50 -199 -50 -491 0 -223 -7 -264 -54 -310 -45 -45
-152 -105 -187 -105 -34 0 -103 33 -209 100 -61 39 -89 50 -147 59 -167 26
-404 3 -496 -47 -116 -63 -160 -190 -156 -443 2 -79 -2 -132 -9 -145 -8 -15
-35 -29 -84 -44 -40 -12 -161 -67 -269 -122 l-197 -100 -171 -2 c-133 -1 -174
2 -180 12 -17 28 -34 281 -29 438 5 148 8 165 38 246 76 207 284 456 500 599
126 84 338 172 440 184 19 2 53 9 75 15 22 6 121 13 221 16 l181 5 60 -30
c110 -56 153 -139 162 -311 9 -167 46 -213 106 -134 27 36 28 38 21 136 -9
130 -35 210 -99 305 -46 69 -60 82 -117 111 -90 45 -160 56 -311 48 -213 -11
-477 -61 -560 -106 -20 -11 -44 -20 -53 -20 -9 0 -62 -27 -118 -61 -322 -190
-525 -425 -641 -739 -32 -87 -35 -105 -37 -215 -2 -164 15 -370 35 -428 9 -26
14 -54 11 -62 -5 -13 -70 -15 -481 -15 l-476 0 -48 24 c-33 17 -52 35 -61 56
-7 17 -32 44 -55 60 -101 70 -170 183 -195 321 -6 34 -9 78 -5 96 l6 33 31
-16 c45 -23 93 -13 211 44 129 63 628 401 830 563 84 66 172 132 197 147 25
14 60 38 78 54 18 15 37 28 42 28 5 0 39 27 75 59 40 35 130 95 222 147 86 48
277 162 424 253 147 92 291 180 319 196 28 17 90 55 138 86 126 81 222 134
448 247 277 139 324 151 557 149 l149 -2 33 -37z m-7997 -1221 c34 -36 52 -92
52 -161 0 -85 -26 -161 -71 -208 -41 -43 -68 -48 -116 -18 -30 18 -33 24 -33
69 0 103 90 341 128 341 10 0 28 -10 40 -23z m7231 -498 c30 -6 64 -21 76 -33
12 -13 37 -29 55 -36 95 -39 215 -162 265 -273 41 -88 86 -248 92 -324 11
-132 -8 -149 -297 -278 -96 -44 -193 -91 -215 -106 -22 -14 -54 -33 -71 -42
-30 -15 -31 -15 -56 17 -15 18 -51 45 -81 60 -218 106 -332 428 -286 811 16
134 29 155 114 183 128 41 274 49 404 21z m-7292 -45 c19 -5 20 -9 11 -35 -16
-47 -3 -75 57 -115 33 -21 66 -54 80 -79 49 -83 24 -235 -38 -235 -39 0 -144
59 -177 98 -37 45 -50 88 -50 164 0 82 19 158 46 185 24 24 35 27 71 17z
m3823 -286 c30 -190 117 -357 222 -429 74 -51 144 -117 133 -127 -18 -17 -216
-82 -249 -82 -42 0 -46 5 -89 111 -66 159 -86 282 -68 414 11 79 32 185 37
185 1 0 7 -33 14 -72z m8080 -93 c522 -36 812 -86 1315 -225 839 -231 1454
-502 2055 -905 315 -212 884 -633 996 -737 40 -38 144 -166 257 -318 186 -250
386 -505 536 -685 198 -238 364 -563 490 -958 61 -192 132 -452 146 -537 7
-41 35 -201 63 -355 57 -319 98 -598 107 -730 8 -128 -11 -766 -30 -985 -30
-362 -70 -580 -201 -1100 -175 -700 -328 -1179 -514 -1616 -143 -335 -237
-511 -461 -859 -144 -224 -265 -418 -345 -553 -101 -171 -246 -342 -420 -493
-129 -113 -163 -135 -244 -159 -37 -11 -85 -33 -108 -50 -23 -16 -47 -27 -54
-25 -7 3 -24 21 -37 41 -36 52 -124 129 -199 174 -107 63 -273 82 -350 41 -54
-29 -79 -104 -38 -115 12 -3 44 1 70 9 79 24 128 19 224 -23 135 -58 232 -165
232 -255 0 -49 -31 -71 -139 -96 -99 -23 -267 -28 -320 -10 -42 15 -78 -1 -87
-36 -15 -61 66 -97 212 -96 84 1 104 -2 104 -13 0 -41 -358 -330 -565 -456
-38 -23 -162 -93 -275 -155 -113 -62 -344 -192 -515 -289 -725 -414 -1065
-552 -1571 -636 -205 -34 -335 -40 -829 -40 -567 0 -947 16 -1345 56 -189 19
-192 19 -188 47 3 20 11 23 83 30 172 16 259 63 312 165 24 47 31 71 27 95
-23 136 -51 185 -141 244 -54 36 -60 38 -137 38 -77 0 -86 -3 -165 -45 -72
-39 -86 -51 -107 -92 -13 -26 -28 -78 -34 -115 -11 -80 -24 -93 -95 -93 -77 0
-144 -24 -236 -85 -58 -38 -93 -55 -116 -55 -106 0 -583 145 -913 278 -843
339 -1450 703 -2165 1298 -255 212 -386 341 -585 579 -92 110 -200 236 -239
280 -265 296 -407 472 -540 670 -208 311 -365 658 -463 1025 -16 63 -38 135
-48 160 -10 25 -43 124 -74 220 -157 494 -200 728 -217 1199 -6 161 -8 300 -4
309 3 9 10 156 15 327 9 299 23 461 56 630 45 232 310 1393 336 1470 33 101
107 257 168 354 45 72 49 101 20 138 -11 14 -20 36 -20 48 0 65 360 836 489
1050 34 55 65 107 70 115 148 245 215 342 344 499 298 359 619 682 1201 1209
187 170 490 395 611 454 17 8 50 25 75 38 430 223 604 288 845 315 100 11 226
33 530 95 378 77 368 75 509 132 66 27 162 57 211 68 50 11 128 29 175 39 101
24 474 60 725 71 281 13 1275 3 1525 -15z m-11544 -184 c22 -10 51 -31 63 -47
22 -27 23 -36 19 -159 -3 -115 -6 -136 -28 -180 -22 -44 -29 -50 -60 -53 -74
-6 -169 86 -197 190 -17 67 -17 96 2 149 18 49 37 74 80 100 38 24 69 24 121
0z m6298 -57 c9 -3 25 -35 36 -71 11 -36 41 -98 66 -139 25 -40 43 -78 40 -83
-3 -5 -35 -23 -70 -39 -35 -16 -82 -47 -105 -68 -68 -60 -81 -96 -91 -247 -12
-174 -40 -266 -119 -384 -60 -90 -78 -108 -315 -323 -136 -123 -363 -361 -587
-614 -104 -117 -241 -301 -371 -498 -28 -43 -56 -78 -62 -78 -6 0 -19 14 -28
30 -20 34 -30 36 -105 14 -30 -9 -65 -13 -78 -10 -29 7 -115 96 -168 174 -68
97 -335 413 -382 451 -63 51 -255 248 -308 315 -34 44 -91 111 -125 150 -170
189 -244 358 -258 591 -7 109 10 208 45 255 29 40 94 81 139 87 37 5 44 2 75
-31 40 -42 45 -43 81 -15 23 18 27 27 22 58 -4 20 -3 41 2 48 10 15 192 81
338 122 210 59 246 62 1018 61 386 0 717 4 736 8 19 5 96 40 170 77 155 79
347 164 372 164 9 1 23 -2 32 -5z m353 -456 c42 -20 69 -38 65 -44 -4 -6 -43
-37 -87 -71 -44 -33 -136 -106 -203 -162 -68 -55 -128 -101 -134 -101 -15 0
-4 222 13 280 26 87 120 144 224 136 28 -3 81 -19 122 -38z m-6356 -44 c131
-38 170 -100 150 -237 -10 -71 -25 -90 -47 -59 -25 37 -50 45 -83 27 -45 -23
-67 -18 -96 19 -50 66 -78 171 -59 221 6 14 54 43 75 45 3 0 30 -7 60 -16z
m351 -350 c17 -39 19 -58 13 -111 -15 -141 -77 -298 -137 -348 -34 -29 -50
-24 -92 25 -36 44 -47 95 -44 207 3 93 4 99 27 108 89 37 106 50 134 108 23
47 32 57 53 57 20 0 29 -9 46 -46z m154 -315 c10 -12 42 -36 71 -55 72 -46 78
-60 76 -184 -2 -121 -26 -243 -54 -271 -36 -36 -113 -13 -176 53 -63 66 -66
107 -22 289 30 120 58 189 77 189 5 0 17 -10 28 -21z m417 -503 c61 -26 81
-59 85 -139 2 -60 -1 -78 -20 -111 -13 -22 -35 -48 -50 -59 l-27 -20 -64 31
c-70 35 -142 104 -153 148 -10 37 30 111 75 141 39 27 104 30 154 9z m635
-672 c125 -62 175 -210 113 -331 -11 -22 -26 -45 -35 -52 -20 -17 -63 -7 -118
28 -99 63 -116 182 -53 369 7 19 36 14 93 -14z m16488 -107 c17 -19 41 -63 53
-99 24 -73 38 -168 25 -168 -29 -1 -147 -31 -174 -45 -31 -16 -33 -16 -70 9
-65 43 -138 173 -124 220 14 46 65 84 148 112 61 20 106 11 142 -29z m-15794
-533 c36 -19 87 -82 94 -119 9 -51 -16 -108 -57 -127 -33 -17 -38 -17 -84 -1
-60 20 -165 117 -165 152 0 63 83 127 150 115 19 -4 47 -13 62 -20z m269 -311
c57 -34 81 -151 39 -193 -27 -27 -33 -26 -75 12 -63 55 -96 153 -63 186 17 17
65 15 99 -5z m247 -287 c78 -41 97 -99 76 -234 -21 -128 -28 -135 -92 -88 -54
39 -102 106 -127 175 -24 69 -20 95 20 130 40 34 79 40 123 17z m317 -439 c17
-43 12 -117 -11 -174 -16 -41 -27 -41 -58 0 -33 43 -53 101 -62 176 -10 90 -6
95 60 63 44 -22 59 -35 71 -65z m454 -521 c13 -16 7 -47 -31 -164 -15 -48 -26
-66 -45 -73 -52 -20 -133 45 -133 108 0 29 27 82 63 121 17 18 31 22 78 22 37
0 61 -5 68 -14z m14591 -36 c23 -13 52 -103 52 -164 0 -86 -43 -141 -143 -184
-25 -11 -57 -34 -71 -51 -24 -32 -24 -32 -42 -12 -18 19 -18 21 2 54 17 26 22
55 26 135 5 113 27 175 73 212 28 22 73 26 103 10z m-577 -857 c24 -27 54
-104 68 -172 10 -53 9 -64 -7 -98 -26 -53 -75 -74 -184 -81 -84 -4 -88 -4
-100 18 -13 25 -9 240 5 270 11 24 126 79 166 79 22 1 42 -6 52 -16z m-14262
-2085 c23 -232 100 -526 326 -1233 181 -568 288 -784 573 -1164 517 -687 987
-1185 1525 -1616 463 -371 890 -629 1544 -934 450 -210 813 -343 1165 -426 60
-14 116 -31 124 -37 11 -9 13 -26 8 -66 -10 -84 -14 -88 -100 -95 -88 -6 -148
-31 -206 -83 -93 -84 -123 -171 -79 -228 37 -47 78 -27 98 49 6 22 18 51 27
64 19 27 128 81 164 81 41 0 86 -35 110 -85 20 -42 21 -51 10 -88 -7 -23 -29
-58 -50 -79 -33 -34 -43 -38 -86 -38 -50 0 -457 80 -644 126 -296 73 -644 209
-1035 404 -165 82 -379 187 -475 234 -290 140 -496 279 -959 650 -385 308
-460 373 -641 556 -242 244 -460 515 -595 741 -97 163 -618 1222 -668 1359
-84 227 -144 510 -167 775 -11 138 -13 531 -3 953 6 303 17 359 34 180z
m12589 -2708 c0 -22 -45 -99 -141 -241 -101 -150 -149 -209 -168 -209 -20 0
-11 20 42 93 30 39 98 138 152 220 90 135 115 165 115 137z m-357 -510 c-11
-9 -28 -30 -37 -48 -9 -17 -51 -75 -95 -129 -126 -157 -136 -165 -167 -118
-14 22 -14 26 -1 46 27 37 312 287 316 276 2 -6 -5 -18 -16 -27z m-391 -377
c11 -10 18 -30 18 -52 0 -32 -15 -53 -128 -181 -96 -109 -134 -146 -154 -148
-47 -6 -139 72 -127 106 8 23 333 292 352 292 11 0 29 -7 39 -17z m686 -355
c41 -45 56 -132 27 -161 -8 -9 -35 -23 -60 -33 -43 -16 -46 -16 -65 1 -24 22
-25 36 -4 95 9 25 13 57 10 71 -3 14 0 31 7 38 18 18 62 13 85 -11z m-1104
-73 c36 -36 66 -71 66 -79 0 -21 -48 -81 -162 -206 -112 -123 -197 -202 -348
-322 -52 -42 -115 -97 -140 -123 -63 -66 -206 -185 -296 -246 -84 -56 -953
-527 -1299 -703 -323 -165 -491 -216 -979 -302 -328 -57 -621 -91 -901 -105
-235 -12 -776 -6 -1031 11 -82 5 -259 17 -394 25 -236 16 -542 49 -562 61 -12
8 -6 41 21 115 19 53 19 60 6 110 -34 124 -38 158 -27 235 12 87 23 104 67
104 33 0 225 -37 233 -44 16 -16 -41 -39 -186 -76 -30 -8 -46 -18 -55 -37 -10
-23 -8 -28 16 -49 33 -28 48 -29 140 -9 80 17 151 48 226 99 63 43 91 45 309
21 383 -40 749 -58 1252 -58 766 -1 1005 25 1394 150 386 124 604 231 1499
741 587 334 661 384 931 621 81 72 150 131 151 131 2 0 33 -29 69 -65z m1735
-352 c82 -70 93 -233 16 -233 -39 0 -87 43 -132 118 l-44 72 21 30 c28 40 57
59 80 53 10 -3 37 -21 59 -40z m238 -295 c40 -42 59 -82 70 -143 12 -62 0
-110 -32 -131 -49 -32 -90 8 -131 128 -13 39 -24 80 -24 91 0 18 62 87 79 87
4 0 21 -15 38 -32z m-7229 -287 c38 -26 59 -64 68 -117 13 -85 -69 -147 -216
-162 -98 -10 -135 -2 -144 33 -6 25 17 163 33 192 13 26 52 60 81 72 43 18
142 8 178 -18z m7418 -156 c31 -20 63 -88 64 -132 0 -63 -71 -84 -113 -33 -34
40 -72 139 -68 179 1 19 82 9 117 -14z m-7860 -170 c33 -14 69 -68 58 -87 -13
-21 -215 2 -242 27 -17 15 9 39 64 59 51 19 77 19 120 1z m-2506 -167 c47 -24
66 -39 68 -55 2 -13 -11 -59 -29 -104 -31 -78 -35 -83 -83 -105 -110 -51 -172
-16 -191 107 -8 56 14 115 64 168 28 30 36 33 69 28 20 -4 66 -21 102 -39z
m10525 9 c44 -25 79 -79 89 -140 6 -31 3 -41 -19 -63 -18 -18 -32 -23 -48 -19
-69 20 -146 192 -105 233 17 17 38 15 83 -11z m-10216 -166 c126 -65 475 -209
656 -270 144 -50 218 -70 383 -106 28 -7 29 -36 1 -61 -63 -57 -133 -202 -130
-272 2 -54 -13 -61 -83 -39 -44 14 -63 15 -112 6 -66 -12 -79 -18 -146 -63
-54 -35 -72 -76 -82 -182 -5 -55 -3 -63 17 -83 47 -43 91 -18 103 59 9 58 38
116 68 135 16 11 41 15 72 13 66 -4 85 -32 92 -131 4 -74 4 -75 -31 -113 l-36
-39 -100 0 c-87 0 -102 -2 -114 -19 -14 -19 -15 -19 -27 5 -25 49 -75 115
-109 144 -33 29 -39 30 -125 30 -78 -1 -98 -4 -141 -27 -59 -31 -92 -64 -133
-133 -23 -40 -34 -50 -53 -48 -13 1 -53 5 -89 9 -47 4 -77 2 -110 -10 -25 -9
-48 -16 -51 -16 -4 0 -8 35 -11 79 -6 95 -35 153 -98 191 l-42 25 6 50 c18
164 19 193 2 246 l-17 54 29 70 c17 39 40 103 52 143 19 66 29 82 95 151 60
63 79 90 99 146 25 69 46 95 75 95 8 0 49 -18 90 -39z m-533 -216 c62 -36 74
-57 62 -107 -11 -50 -48 -138 -58 -138 -4 0 -12 -11 -18 -25 -25 -54 -111 -11
-113 57 -6 147 20 238 68 238 9 0 36 -11 59 -25z m1825 -268 c52 -35 79 -82
79 -139 0 -86 -27 -109 -157 -134 -151 -29 -201 -14 -188 54 18 96 90 193 169
228 43 19 58 17 97 -9z m9065 -75 c33 -22 53 -138 34 -197 -13 -38 -48 -60
-80 -50 -30 10 -71 61 -95 121 -20 50 -22 62 -11 79 26 41 119 70 152 47z
m-10917 -99 c23 -15 23 -20 17 -98 -8 -104 -40 -211 -67 -226 -29 -15 -64 10
-79 57 -22 65 1 224 38 267 19 22 60 22 91 0z m10959 -295 c31 -31 -4 -229
-42 -236 -27 -6 -36 15 -36 84 0 80 25 164 48 164 10 0 23 -5 30 -12z m-10834
-120 c22 -30 20 -87 -5 -178 -27 -102 -77 -201 -107 -212 -19 -6 -29 -2 -51
20 -24 24 -29 38 -35 109 -8 104 3 133 85 219 67 69 89 77 113 42z m769 -43
c71 -34 108 -152 72 -228 -18 -39 -65 -67 -112 -67 -77 0 -196 59 -214 106
-18 50 53 128 162 179 64 29 54 28 92 10z m-583 -208 c19 0 62 4 96 8 55 7 62
5 88 -17 35 -30 38 -74 7 -99 -66 -54 -270 -24 -279 39 -6 38 18 85 37 76 9
-5 32 -8 51 -7z m10704 -13 c36 -35 33 -122 -4 -174 -19 -27 -27 -31 -49 -25
-14 4 -48 8 -76 9 l-50 1 -3 40 c-5 62 6 102 39 135 26 25 38 30 79 30 31 0
54 -6 64 -16z m-61 -736 c11 -14 22 -48 24 -75 12 -118 -78 -192 -147 -123
-29 29 -27 107 5 169 13 27 30 52 37 54 27 12 62 1 81 -25z"/>
<path d="M7297 16506 c-122 -44 -170 -103 -119 -149 25 -23 42 -21 110 7 82
34 162 49 196 36 84 -31 218 -201 272 -344 39 -99 88 -166 123 -166 29 0 71
32 71 54 0 27 -29 94 -90 206 -122 224 -206 326 -297 360 -76 28 -178 27 -266
-4z"/>
<path d="M11102 15719 c-12 -5 -22 -13 -22 -18 0 -26 -53 -41 -195 -56 -360
-38 -468 -71 -1285 -393 -765 -301 -1153 -477 -1460 -659 -171 -102 -467 -308
-535 -373 -33 -31 -114 -103 -180 -161 -172 -150 -481 -455 -598 -589 -275
-318 -447 -584 -767 -1185 -410 -770 -555 -1136 -695 -1760 -20 -87 -39 -164
-43 -169 -3 -6 -9 -59 -12 -117 -4 -58 -14 -128 -23 -155 -27 -82 -67 -570
-79 -951 -14 -469 -5 -1175 16 -1305 37 -228 118 -412 304 -686 56 -83 102
-154 102 -157 0 -12 457 -695 528 -790 213 -284 332 -413 819 -890 686 -673
671 -659 901 -816 112 -77 232 -156 267 -177 36 -20 130 -78 209 -129 225
-144 322 -195 436 -231 109 -35 317 -88 455 -117 44 -9 96 -21 116 -26 20 -5
50 -9 67 -9 17 0 149 -18 294 -40 145 -21 376 -51 513 -65 195 -20 252 -30
260 -42 48 -74 80 -82 116 -30 13 17 28 35 34 39 5 4 90 8 188 8 190 0 202 -4
155 -47 -34 -31 -62 -43 -125 -54 -146 -25 -164 -31 -179 -53 -21 -33 -4 -70
37 -85 38 -13 116 -15 123 -2 3 4 34 16 68 26 78 21 146 56 174 87 12 12 34
46 48 75 22 44 31 53 58 57 18 3 170 7 338 9 335 5 304 1 785 93 537 102 738
159 1065 301 656 287 912 434 1220 703 111 97 257 207 326 246 88 49 101 43
159 -78 25 -50 45 -102 45 -115 0 -69 -51 -97 -180 -97 -86 -1 -102 2 -149 27
-29 15 -64 27 -77 27 -25 0 -44 -25 -44 -59 0 -22 65 -82 115 -105 61 -29 271
-13 371 29 45 19 74 66 84 137 9 58 7 67 -27 147 -20 47 -52 110 -70 139 -18
29 -33 61 -33 71 0 10 39 57 88 104 132 129 186 195 332 402 73 105 190 264
259 355 360 473 442 593 576 837 137 249 288 646 409 1078 88 314 256 982 275
1096 26 151 58 497 71 774 14 282 -2 1047 -24 1175 -41 238 -59 326 -105 537
-75 340 -202 698 -322 909 -77 135 -150 231 -281 371 -227 243 -390 449 -607
768 -152 223 -203 285 -340 418 -106 102 -148 132 -448 325 -119 76 -198 138
-351 277 -149 134 -267 219 -412 294 -148 76 -231 109 -437 171 -127 39 -210
71 -342 136 -263 129 -337 151 -954 275 -295 59 -642 124 -770 144 -127 20
-311 56 -407 81 -96 24 -182 46 -190 48 -9 1 -26 -1 -38 -5z m48 -191 c25 0
88 2 140 3 74 2 120 -3 210 -24 133 -30 269 -52 425 -66 75 -7 155 -23 250
-51 77 -23 199 -49 270 -60 157 -22 547 -103 665 -137 47 -13 162 -62 257
-109 118 -58 222 -101 330 -135 435 -139 634 -243 858 -449 186 -171 296 -255
489 -372 72 -44 163 -104 203 -135 106 -80 267 -253 357 -384 174 -251 268
-380 373 -514 99 -125 158 -194 407 -473 185 -207 310 -465 441 -909 122 -412
179 -810 190 -1338 8 -324 -14 -824 -36 -851 -41 -50 -178 -67 -634 -80 -126
-4 -252 -8 -280 -9 -47 -3 -573 -25 -586 -25 -3 0 -23 14 -44 30 -34 27 -45
30 -111 30 -70 0 -104 -13 -104 -40 0 -23 -40 -30 -80 -14 -29 12 -56 15 -93
10 -160 -19 -180 -19 -255 6 l-74 25 -9 -23 c-8 -23 -13 -24 -103 -24 -124 0
-140 11 -143 102 -2 98 -31 374 -48 468 -48 252 -139 541 -234 740 -17 36 -31
74 -31 86 0 11 -9 29 -20 39 -11 10 -28 41 -39 70 -27 71 -173 355 -250 484
-276 465 -621 795 -1086 1038 -77 41 -147 78 -155 83 -20 11 -180 86 -205 95
-231 86 -462 159 -579 184 -154 34 -445 79 -626 98 -255 26 -755 21 -814 -9
-10 -6 -42 -14 -70 -19 -28 -4 -136 -37 -240 -73 -104 -37 -199 -66 -211 -66
-18 0 -24 7 -29 40 -6 36 -25 77 -113 240 -17 30 -67 107 -111 170 -90 128
-195 294 -340 538 -101 169 -308 473 -393 577 -27 33 -101 129 -166 213 -96
125 -115 157 -106 170 24 39 405 219 555 262 40 12 89 30 108 40 63 32 317
138 422 176 194 70 223 81 283 108 343 156 865 287 1070 269 39 -3 90 -6 115
-5z m-2669 -931 c18 -14 354 -458 416 -550 23 -34 62 -85 86 -112 43 -47 97
-139 97 -164 0 -6 15 -28 33 -48 44 -51 73 -97 142 -228 33 -60 76 -130 96
-155 20 -25 50 -68 66 -96 15 -28 63 -102 105 -165 104 -154 214 -367 202
-387 -6 -8 -45 -33 -87 -56 -147 -78 -256 -164 -426 -336 -90 -91 -174 -182
-187 -202 -13 -20 -54 -74 -91 -119 -141 -174 -243 -354 -420 -744 -171 -375
-297 -764 -353 -1085 -30 -176 -44 -532 -41 -1030 3 -455 12 -579 61 -820 49
-242 154 -551 230 -676 161 -262 328 -469 612 -760 96 -98 170 -182 173 -197
13 -50 -57 -313 -134 -505 -11 -28 -110 -249 -219 -490 -207 -455 -255 -567
-354 -836 -39 -104 -63 -186 -68 -231 -4 -38 -20 -101 -34 -139 -14 -37 -26
-77 -26 -86 0 -28 28 -50 64 -50 27 0 36 6 54 38 11 21 25 65 31 99 5 34 17
75 25 92 9 16 16 37 16 47 0 25 67 234 120 374 59 155 117 288 303 690 186
405 267 611 320 810 17 65 26 85 39 84 9 -1 81 -40 160 -87 253 -150 460 -240
647 -282 58 -13 157 -35 220 -50 311 -71 1054 -96 1386 -46 669 101 1273 403
1765 883 144 140 482 506 528 571 79 113 242 439 242 483 0 9 29 102 64 207
36 106 72 230 80 277 24 128 36 319 36 551 0 249 -7 236 128 220 115 -14 887
-14 1045 0 83 7 135 8 159 1 20 -5 40 -6 45 -2 9 8 247 24 598 40 295 14 368
19 448 32 50 8 71 8 79 0 16 -16 -14 -271 -57 -487 -30 -150 -235 -902 -347
-1275 -151 -503 -405 -956 -823 -1471 -56 -69 -110 -139 -119 -156 -8 -17 -20
-33 -24 -35 -5 -1 -56 -73 -114 -159 -129 -193 -228 -315 -355 -442 l-99 -97
-111 -5 c-100 -4 -118 -7 -173 -35 -73 -37 -98 -36 -125 6 -15 24 -35 37 -85
53 -201 66 -385 -29 -466 -239 -9 -25 -21 -49 -25 -54 -5 -6 -35 16 -72 51
-74 71 -123 90 -186 73 -70 -19 -105 -92 -60 -124 16 -10 28 -12 46 -5 13 5
40 9 59 9 45 0 74 -31 109 -117 28 -70 27 -103 -2 -135 -17 -19 -113 -58 -143
-58 -24 0 -43 -34 -35 -60 10 -32 43 -43 108 -36 80 8 136 42 177 106 47 73
54 75 138 33 40 -19 72 -41 72 -48 0 -31 -504 -303 -778 -419 -544 -232 -1123
-375 -1740 -430 -206 -19 -382 -21 -382 -5 0 6 22 39 49 73 26 33 54 72 61 86
18 35 30 40 72 33 27 -4 60 2 117 22 70 25 84 34 126 84 76 89 89 127 82 244
-4 85 -3 98 10 93 51 -20 60 -18 93 24 45 57 76 70 164 70 122 0 156 -29 156
-134 0 -48 -3 -57 -30 -80 -46 -38 -92 -47 -210 -40 -98 6 -106 5 -124 -14
-27 -31 -14 -70 29 -88 152 -63 366 -9 430 109 24 45 35 50 91 36 64 -16 170
-7 224 21 51 25 144 111 166 152 20 38 18 144 -5 193 -22 49 -77 99 -127 115
-50 17 -206 8 -262 -15 -61 -25 -92 -66 -92 -122 0 -55 21 -83 62 -83 23 0 32
6 43 33 27 65 53 74 183 69 47 -2 54 -5 73 -34 33 -53 21 -114 -30 -159 -45
-41 -94 -56 -204 -65 -83 -7 -83 -7 -112 71 -11 31 -35 67 -65 97 -39 38 -59
48 -106 58 -84 18 -164 8 -240 -30 -68 -33 -102 -68 -111 -112 -3 -15 -12 -33
-19 -39 -15 -12 -11 -14 -94 49 -108 81 -275 82 -358 1 -17 -17 -38 -52 -47
-79 -9 -27 -22 -54 -30 -60 -8 -6 -61 -15 -119 -19 -91 -7 -109 -11 -139 -34
-45 -34 -68 -84 -81 -182 -6 -44 -15 -86 -19 -92 -5 -8 -30 -13 -62 -13 -186
0 -353 -63 -368 -138 -9 -43 -44 -81 -88 -92 -73 -20 -490 34 -1194 155 -173
29 -301 62 -435 112 -128 48 -283 126 -350 177 -56 41 -83 59 -110 72 -63 31
-418 270 -610 411 -63 47 -514 480 -889 853 -172 171 -345 359 -421 455 -17
22 -50 60 -73 85 -70 76 -145 182 -354 500 -281 430 -477 738 -524 824 -74
138 -128 314 -149 486 -13 106 -6 965 11 1405 35 914 215 1671 579 2430 68
143 302 570 508 930 215 376 407 622 761 976 277 276 537 493 808 676 27 18
80 54 118 80 89 60 304 173 330 172 11 0 27 -5 36 -12z m2715 -1828 c81 -11
165 -26 188 -33 22 -8 86 -16 141 -20 293 -17 686 -143 1108 -354 248 -124
374 -205 522 -340 168 -152 378 -371 410 -427 15 -27 41 -61 56 -75 59 -51
348 -600 449 -850 23 -58 47 -111 53 -119 7 -8 17 -32 23 -55 7 -23 30 -90 52
-151 66 -183 115 -444 132 -704 12 -185 11 -843 -1 -966 -14 -141 -38 -236
-125 -489 -133 -392 -213 -528 -463 -793 -345 -366 -584 -582 -811 -735 -129
-86 -351 -197 -485 -242 -55 -18 -172 -58 -260 -89 -163 -56 -322 -96 -475
-119 -120 -18 -906 -12 -1045 8 -186 27 -230 34 -280 48 -27 8 -97 24 -155 36
-311 65 -631 219 -895 431 -150 121 -423 406 -586 614 -89 114 -179 241 -194
277 -7 18 -33 68 -58 110 -158 277 -241 689 -251 1253 -6 388 8 970 29 1120
21 157 52 297 80 365 12 30 29 78 38 105 8 28 28 88 42 135 15 47 38 105 52
130 13 25 65 148 115 274 173 437 279 612 608 1001 71 84 143 159 162 169 19
11 43 33 52 51 20 36 155 134 256 185 84 43 340 140 455 173 113 33 207 53
360 77 177 27 507 27 701 -1z m3267 -7615 c56 -19 81 -48 101 -119 24 -82 21
-100 -25 -145 -91 -88 -224 -123 -310 -80 -24 12 -52 29 -61 37 -9 9 -32 18
-49 22 -43 9 -47 27 -9 34 21 5 34 15 41 34 59 146 93 185 186 219 50 17 70
17 126 -2z m-2807 -713 c71 -33 104 -98 89 -177 -10 -56 -88 -129 -159 -149
-51 -15 -59 -15 -80 -2 -15 10 -25 30 -29 55 -4 21 -18 54 -32 73 -13 19 -32
44 -41 56 -15 21 -14 25 28 80 24 32 55 63 68 70 36 18 109 15 156 -6z m-366
-210 c19 -10 46 -33 58 -52 20 -28 23 -44 20 -94 -3 -51 -10 -69 -43 -116 -41
-58 -133 -134 -162 -134 -12 0 -21 15 -30 44 -7 25 -26 59 -43 76 -33 35 -38
67 -15 111 8 16 15 41 15 56 0 15 7 46 17 69 27 69 96 84 183 40z m-307 -334
c35 -22 54 -72 36 -93 -12 -15 -34 -16 -199 -9 -107 4 -188 11 -191 17 -20 33
22 73 99 95 63 17 223 11 255 -10z"/>
<path d="M13410 5022 c-58 -8 -148 -45 -189 -77 -24 -19 -46 -33 -50 -32 -73
37 -92 42 -162 42 -67 0 -81 -4 -125 -30 -55 -35 -73 -70 -58 -112 13 -38 50
-41 113 -9 69 36 105 34 146 -7 78 -78 65 -270 -21 -309 -19 -9 -36 -9 -69 0
-54 14 -102 6 -116 -20 -12 -22 -6 -32 58 -95 48 -49 54 -50 121 -25 79 30
152 86 173 131 21 47 52 60 111 44 71 -19 268 41 325 99 36 37 37 39 37 120
-1 89 -15 136 -61 197 -41 54 -154 95 -233 83z m99 -140 c68 -34 92 -98 62
-169 -17 -42 -71 -63 -175 -69 -109 -7 -127 3 -144 81 -16 74 -11 97 29 126
70 50 167 63 228 31z"/>
<path d="M10379 12476 c-53 -31 -53 -28 -57 -617 -4 -563 1 -676 34 -745 10
-21 64 -86 119 -144 232 -245 616 -686 640 -737 14 -30 16 -48 9 -102 -33
-247 7 -324 208 -411 121 -52 119 -48 135 -307 7 -120 22 -315 33 -433 12
-118 27 -339 34 -490 10 -221 16 -281 30 -308 9 -18 56 -63 103 -100 131 -101
242 -195 408 -342 83 -73 204 -176 270 -228 160 -127 192 -158 221 -214 27
-54 56 -76 115 -89 22 -5 57 -21 77 -34 47 -32 101 -33 128 -4 17 19 19 37 18
193 -2 227 -24 359 -106 651 -15 50 -65 239 -112 420 -48 182 -96 347 -107
369 -22 42 -53 75 -575 603 l-348 352 22 68 c27 81 29 188 6 256 -30 87 -126
172 -247 217 -31 12 -61 29 -66 38 -5 9 -12 96 -15 192 -14 343 -56 916 -76
1030 -15 86 -61 167 -150 265 -45 50 -141 169 -213 265 -147 197 -270 326
-346 364 -63 32 -155 43 -192 22z m144 -132 c74 -37 104 -89 75 -126 -24 -30
-129 -51 -143 -29 -3 5 -6 41 -8 81 -1 54 2 73 13 80 20 13 26 13 63 -6z m-44
-739 c7 -33 16 -112 20 -175 12 -144 29 -189 130 -340 85 -126 115 -179 107
-187 -8 -9 -255 226 -272 258 -11 22 -14 79 -14 281 1 252 7 285 29 163z m656
-312 c51 -83 64 -137 75 -323 11 -183 29 -643 25 -648 -8 -9 -39 20 -107 101
-102 120 -103 151 -5 192 61 25 63 45 22 158 -19 54 -42 137 -50 184 -17 95
-21 393 -6 393 5 0 26 -26 46 -57z m295 -1114 c35 -15 66 -40 105 -86 l55 -65
0 -75 c0 -72 -1 -76 -34 -109 -30 -30 -40 -34 -84 -34 -56 0 -134 29 -170 63
-82 76 -94 239 -24 304 32 30 86 30 152 2z m242 -608 c37 -39 68 -75 68 -81 0
-6 -11 -22 -26 -36 -19 -20 -31 -24 -52 -19 -66 16 -82 45 -82 151 0 36 4 54
12 54 7 0 43 -31 80 -69z m979 -1452 c10 -40 19 -83 19 -96 0 -13 20 -102 45
-198 35 -137 47 -206 56 -320 6 -81 9 -149 6 -152 -14 -13 -39 10 -58 52 -33
76 -50 180 -59 375 -5 108 -15 210 -24 244 -9 33 -19 89 -22 125 -9 87 10 72
37 -30z m-620 -72 c42 -25 89 -79 160 -182 26 -38 64 -86 84 -105 19 -19 35
-40 35 -48 0 -18 -16 -8 -70 44 -25 24 -97 89 -160 145 -156 137 -163 145
-156 158 12 18 69 12 107 -12z"/>
<path d="M6525 15581 c-11 -4 -36 -14 -55 -23 -41 -19 -160 -43 -280 -58 -47
-6 -267 -10 -490 -10 l-405 1 -168 -35 c-209 -43 -443 -109 -522 -146 -63 -30
-118 -80 -130 -117 -4 -17 0 -29 19 -48 31 -31 41 -31 91 0 98 59 143 77 306
119 340 89 548 110 959 100 359 -9 524 10 693 79 79 32 97 49 97 92 0 29 -5
37 -26 45 -28 11 -59 11 -89 1z"/>
<path d="M10010 17980 c-111 -48 -415 -159 -630 -231 -129 -43 -249 -87 -267
-96 -120 -66 -178 -107 -248 -178 -96 -95 -147 -191 -190 -355 -28 -104 -114
-341 -153 -417 -30 -58 -96 -119 -166 -152 -70 -33 -94 -67 -75 -104 26 -49
48 -48 157 6 53 26 105 61 137 92 45 45 57 66 114 210 35 88 81 223 103 300
53 187 87 253 171 337 52 53 88 78 160 112 89 43 401 158 772 286 149 51 186
68 218 98 38 37 48 77 25 100 -18 18 -77 14 -128 -8z"/>
<path d="M17999 14339 c-20 -6 -65 -33 -99 -60 l-61 -50 -68 7 c-125 12 -238
-40 -291 -133 -16 -28 -44 -60 -62 -71 -46 -29 -115 -102 -127 -135 -6 -15
-13 -62 -17 -106 -6 -71 -5 -80 15 -100 41 -41 83 -18 96 52 4 20 12 37 17 37
5 0 30 -17 54 -39 26 -23 63 -43 89 -50 63 -16 74 -41 34 -80 -17 -17 -34 -31
-39 -31 -17 0 -70 -52 -70 -69 0 -10 9 -26 20 -36 61 -55 230 67 251 183 10
54 35 92 71 110 23 10 34 8 92 -19 89 -42 166 -49 231 -20 61 27 87 27 138 -3
23 -13 78 -31 122 -41 96 -20 196 -51 247 -76 49 -25 70 -24 96 4 39 41 28 77
-31 102 -42 17 -45 30 -22 96 20 57 38 69 99 69 71 -1 92 -20 125 -116 l26
-79 37 1 c62 2 71 17 65 102 -8 105 -37 151 -123 193 -56 28 -76 33 -142 33
-112 0 -148 -23 -204 -133 -35 -69 -64 -85 -134 -76 -47 6 -64 13 -91 40 -31
31 -33 38 -33 99 0 75 18 129 48 145 35 19 148 13 192 -9 21 -11 41 -24 45
-30 3 -5 22 -10 40 -10 26 0 39 6 52 26 15 23 15 30 2 68 -12 35 -22 45 -72
70 -54 27 -67 29 -175 30 -153 1 -182 -12 -230 -106 -28 -54 -34 -78 -38 -149
-8 -138 -2 -129 -91 -129 -57 0 -88 5 -120 21 -56 27 -67 49 -60 119 11 121
85 200 202 217 25 3 57 15 70 25 34 26 34 72 0 94 -30 20 -127 27 -176 13z
m-229 -244 c16 -19 -3 -168 -25 -202 -24 -36 -135 -104 -160 -97 -26 7 -65 50
-65 72 0 10 9 35 20 57 11 22 20 47 20 57 0 9 15 34 32 54 54 62 150 93 178
59z"/>
</g>
</svg>
