<?xml version="1.0" encoding="utf-8"?>
<!-- Generator: Adobe Illustrator 16.0.0, SVG Export Plug-In . SVG Version: 6.00 Build 0)  -->
<!DOCTYPE svg PUBLIC "-//W3C//DTD SVG 1.1//EN" "http://www.w3.org/Graphics/SVG/1.1/DTD/svg11.dtd">
<svg version="1.1" id="Layer_1" xmlns="http://www.w3.org/2000/svg" xmlns:xlink="http://www.w3.org/1999/xlink" x="0px" y="0px"
	 width="1169px" height="323px" viewBox="0 0 1169 323" enable-background="new 0 0 1169 323" xml:space="preserve">
<g transform="translate(0.000000,323.000000) scale(0.100000,-0.100000)">
	<path fill="#EFE483" stroke="#EFE483" stroke-width="15" stroke-miterlimit="10" d="M2088,3030.998
		c-12.998-10.996-37.002-38.994-52.998-62.998c-16.006-24.004-56.006-77.002-89.004-117.998c-150-189.004-382.998-569.004-490-800
		c-122.998-262.998-225.996-582.998-265-822.998C1170.998,1108,1150.002,878,1150.002,773c0-57.002-4.004-102.998-9.004-102.998
		c-7.998,0-200,380-288.994,570c-121.006,258.994-327.002,680.996-346.006,710c-12.998,18.994-57.002,88.994-95.996,155
		c-79.004,130-106.006,165-127.998,165c-18.008,0-11.006-35,35-165c18.994-55,40.996-121.006,47.998-146.006s27.998-76.992,45-115
		c17.998-37.998,53.994-115.996,80-173.994c25.996-57.998,62.002-139.004,80.996-180C703,1195.999,873.997,893,1007.004,718
		C1108,585.999,1145.999,565.002,1203,610.002c39.004,30.996,62.002,105.996,95.996,320c30,183.994,52.002,297.002,72.002,365
		c50,173.994,121.006,382.002,161.006,480c100,238.994,272.998,558.994,416.992,767.998c25,37.002,55,82.002,65,100
		c11.006,17.002,63.008,92.998,116.006,167.002c112.998,157.998,122.998,175,115,198.994
		C2232.004,3050.998,2130.998,3065.002,2088,3030.998z"/>
	<path fill="#EFE483" stroke="#EFE483" stroke-width="15" stroke-miterlimit="10" d="M6118,2678
		c-21.006-17.002-277.998-334.004-372.002-459.004c-25.996-35.996-29.004-36.992-109.004-43.994c-45-2.998-140-15-210.996-26.006
		c-70.996-10-130.996-18.994-134.004-18.994c-3.994,0,0-6.006,7.002-12.002c9.004-10,59.004-12.998,187.002-12.002
		c95.996,1.006,174.004-2.002,174.004-5.996c0-4.004-7.002-12.998-15-20c-14.004-11.006-77.002-111.006-157.002-245
		c-34.004-57.998-137.998-269.004-137.998-281.006c0-2.998-6.006-20-14.004-36.992c-19.004-41.006-59.004-179.004-80.996-282.002
		c-19.004-85-25-96.006-92.002-189.004c-177.002-242.002-385-417.998-499.004-420c-57.002-0.996-92.998,27.002-120.996,95
		c-27.002,65-31.006,194.004-9.004,261.006c7.998,23.994,26.006,90,41.006,147.998c45,180.996,113.994,385,175.996,517.998
		c22.002,45.996,39.004,87.002,39.004,92.002c0,15.996-19.004,20.996-40,10c-16.006-9.004-20-7.998-20,5
		c0,25.996-114.004,130.996-174.004,158.994c-109.004,52.002-197.002,69.004-355.996,70
		c-152.998,1.006-231.006-11.992-342.002-57.998c-70.996-27.998-180-90-247.998-138.994c-79.004-57.002-210-193.008-255-262.002
		c-44.004-69.004-120-226.006-129.004-270c-28.994-129.004-35-169.004-35.996-235v-75L3128,887.004
		c-157.002-147.002-335.996-237.002-475.996-237.002c-72.002,0-117.002,25.996-147.002,85c-24.004,48.994-27.998,192.002-6.006,270
		c50,182.998,94.004,292.002,142.002,352.002c232.998,285.996,599.004,765.996,599.004,785c0,16.992-31.006,20.996-57.002,6.992
		c-45.996-25-285-227.998-372.998-317.998c-147.998-150.996-225-248.994-300-385.996c-17.998-32.998-97.002-145-175-250
		c-155-209.004-211.006-285-267.002-366.006c-20.996-30-54.004-75.996-72.998-103.994c-87.002-125-105-166.006-72.998-172.998
		c20-4.004,61.992,36.992,217.998,217.998c68.994,80,145,167.002,170,192.998l45,47.998l-2.998-82.002
		c-7.002-165,46.992-265,176.992-325.996c49.004-24.004,61.006-25,155-20c82.002,4.004,116.006,10.996,181.006,37.002
		c100.996,40,192.998,90,273.994,152.002c35,25.996,67.002,47.998,71.006,47.998c2.998,0,17.002-25,28.994-55
		c46.006-111.006,178.008-217.002,306.006-246.006c120.996-26.992,277.998,26.006,428.994,146.006
		c134.004,105.996,225,198.994,390,397.998c49.004,59.004,90,107.002,92.002,107.002c0.996,0-2.002-15-5.996-32.002
		c-19.004-69.004-38.008-282.998-30-334.004c16.992-108.994,65.996-177.998,155-220c147.998-70,377.998,29.004,605,260
		l53.994,56.006l17.998-66.006c56.006-203.994,177.002-323.994,388.008-383.994c145-41.006,338.994-37.002,466.992,10
		c79.004,28.994,204.004,93.994,254.004,132.002c24.004,18.994,49.004,36.992,55,40.996c7.002,4.004,35.996-4.004,65.996-17.998
		c144.004-66.006,344.004-87.002,477.002-51.006c126.006,34.004,277.002,122.002,415,240
		c202.998,175,317.998,409.004,319.004,646.006c0,90-21.006,167.002-69.004,245.996c-70,116.006-163.994,187.998-302.002,230
		c-75.996,22.998-132.998,32.002-331.992,50c-169.004,16.006-402.002-115.996-561.006-315.996c-112.002-142.002-195-375-205.996-580
		c-7.002-144.004,10-219.004,67.002-302.998c21.992-32.002,37.998-62.002,35-67.002c-13.008-21.006-148.008-122.002-206.006-154.004
		C6048,517.005,5920.998,480.003,5858,480.003c-96.006,0-262.998,50.996-324.004,98.994c-97.998,77.002-135.996,183.008-135,374.004
		c0,152.002-2.002,145,132.002,344.004c160,236.992,289.004,457.998,409.004,697.998l65,130l150,7.002
		c82.998,3.994,235.996,11.992,340,17.998c105,5.996,268.994,15,365,20c277.998,15,482.998,30,501.992,35.996
		c24.004,7.002,23.008,41.006-0.996,52.998c-29.004,16.006-844.004-8.994-1222.998-36.992c-54.004-4.004-97.998-5-97.998-2.002
		s10.996,32.002,23.994,65c14.004,32.998,37.002,100.996,52.002,150c14.004,50,35,117.002,45,148.994
		c22.998,73.008,24.004,92.002,2.998,100C6141.994,2692.004,6135.998,2692.004,6118,2678z M4373,1925.002
		c125-24.004,202.002-67.998,272.002-156.006c52.998-66.992,41.992-75-30-20c-86.006,66.006-176.006,108.008-264.004,123.008
		c-62.002,10.996-84.004,10-153.994-5c-233.008-48.008-525-279.004-752.002-595c-20-29.004-39.004-51.006-41.006-49.004
		c-5,5,51.006,147.002,85,215c115,227.002,382.002,439.004,616.006,487.002C4188.996,1943,4281.994,1943,4373,1925.002z
		 M7286.994,1880.002c197.002-64.004,303.008-212.998,303.008-426.006c0-143.994-45-300.996-118.008-412.998
		c-62.998-95.996-226.992-238.994-372.998-327.998c-118.994-72.002-185-95.996-283.994-100.996
		c-81.006-4.004-99.004-1.006-185,27.998c-150,50-148.008,43.994-49.004,147.002c107.998,111.992,200.996,228.994,284.004,351.992
		c71.992,110,182.998,325,213.994,417.002c31.006,94.004,62.002,244.004,61.006,294.004c-1.006,25-1.006,47.998-1.006,50.996
		C7140.002,1908.997,7240.998,1893.997,7286.994,1880.002z M7055.002,1863c-20-107.998-116.006-327.002-216.006-495
		c-112.002-187.002-400-567.998-430-567.998c-17.002,0-40,62.998-52.002,140.996c-13.994,100,4.004,224.004,58.008,387.002
		c75,225.996,168.994,375.996,302.998,480c57.002,44.004,67.002,47.998,77.002,32.002c10-15,61.992-12.002,97.998,7.002
		c45,22.998,127.998,51.992,150.996,52.998C7060.002,1900.002,7060.998,1895.002,7055.002,1863z M4395.002,1790.002
		c85-29.004,253.994-125,255-144.004c0-3.994-11.006-22.002-26.006-40c-67.998-83.994-145-180.996-203.994-257.002
		C4305.998,1203,4058.996,918.997,3953,813c-105.996-104.004-207.002-182.998-267.998-209.004
		C3643,587.004,3563,585.999,3533.996,603C3433,660.999,3373,765.999,3363,903c-5,70-4.004,75,24.004,107.998
		c15.996,19.004,85,106.006,152.998,194.004c150.996,195,168.994,215,290.996,335.996c112.002,111.006,244.004,210,327.002,244.004
		C4230.998,1815.999,4315.998,1817.004,4395.002,1790.002z"/>
	<path fill="#EFE483" stroke="#EFE483" stroke-width="15" stroke-miterlimit="10" d="M9295.998,1885.002
		c-64.004-24.004-157.002-105-194.004-167.002c-8.994-15.996-20.996-27.998-26.992-27.998c-6.006,0-49.004,17.998-96.006,40.996
		c-47.998,24.004-115.996,47.002-160,55c-67.998,12.998-87.998,12.998-175-0.996c-242.998-39.004-427.998-187.998-610-491.006
		c-7.998-13.994-12.002,6.006-17.998,91.006c-12.002,190.996-44.004,372.998-69.004,392.998c-25,20.996-71.992,22.002-95,4.004
		c-22.998-18.008-22.998-19.004-7.998-79.004c35-134.004,66.006-570.996,65-920.996c0-106.006,2.998-197.002,6.006-202.002
		c8.994-15,50.996-12.002,63.994,3.994c17.998,21.006,39.004,153.008,46.006,286.006c6.992,122.998,18.994,197.002,40.996,238.994
		c7.998,14.004,14.004,29.004,14.004,33.008c0,3.994,16.992,41.992,36.992,85c93.008,196.992,265,405,388.008,470
		c70.996,36.992,192.998,72.998,250,72.998c22.998,0,65.996-7.002,95.996-16.006c64.004-18.994,212.002-91.992,207.002-101.992
		c-2.002-4.004-15-30-30-58.008c-62.998-118.994-142.002-416.992-156.006-582.998c-20-250,31.006-357.002,207.002-438.994
		c70-33.008,85-36.006,192.002-40c144.999-5,235.995,15,392.997,90.996c137.998,67.002,267.002,157.002,371.006,262.002
		c200,198.994,300,367.002,405.996,678.994c49.004,144.004,72.998,178.008,137.002,196.006c132.002,35,372.002-145,452.998-340
		c89.004-212.998,90-367.002,0.996-537.998c-36.992-74.004-126.992-163.008-197.998-198.008
		c-55-26.992-65.996-28.994-183.994-28.994h-125v-25c0-32.998,45-49.004,140.996-49.004
		c254.004-2.002,502.998,216.006,542.998,476.006c26.006,170.996-60,408.994-200.996,551.992
		c-120,122.002-295,201.006-414.004,187.002c-125.996-15-173.994-57.002-268.994-237.002
		c-154.004-291.992-278.008-471.992-425-618.994C9747.999,787.004,9622.999,703.997,9448.995,638
		c-70.996-27.002-97.998-32.002-174.999-32.002c-85.996-0.996-95,1.006-160,35C8965.002,718,8948,828,9025.998,1205.002
		c15.996,77.002,74.004,277.002,105.996,365.996l20,56.006L9218,1608c175.995-47.998,287.997,5.996,330.995,162.998
		c16.006,56.006,6.006,81.006-42.002,106.006C9462.999,1898.997,9345.997,1903.997,9295.998,1885.002z M9455.001,1878.997
		c21.992-5.996,47.998-17.998,57.998-26.992c33.994-30,13.994-111.006-45-178.008c-66.006-75-137.998-80.996-296.005-28.994
		c-13.994,5,8.008,53.994,57.002,130c40,60.996,62.998,80.996,117.997,100.996C9393.995,1892.004,9405.001,1893,9455.001,1878.997z"
		/>
</g>
<ellipse fill="#EFE483" stroke="#EFE483" stroke-width="15" stroke-miterlimit="10" cx="353" cy="72" rx="6" ry="4.5"/>
</svg>
